<svg xmlns="http://www.w3.org/2000/svg" fill="none" viewBox="0 0 48 48" height="48" width="48" id="All-The-Things-Meme--Streamline-Memes.svg"><desc>All The Things Meme Streamline Element: https://streamlinehq.com</desc><path stroke="#000000" stroke-linecap="round" stroke-linejoin="round" d="M17.2 22.225c-0.908 -1.038 -0.367 -3.05 1.32 -3.05s2.163 1.6 1.58 2.704c-0.585 1.103 -1.99 1.384 -2.9 0.346Z" stroke-width="1"></path><path fill="#000000" d="M17.572 21.087c-0.232 -0.265 -0.094 -0.78 0.337 -0.78 0.431 0 0.553 0.41 0.404 0.692 -0.15 0.281 -0.509 0.353 -0.74 0.088Z" stroke-width="1"></path><path fill="#000000" d="M30.113 17.322c-0.232 -0.265 -0.094 -0.779 0.337 -0.779 0.431 0 0.553 0.41 0.404 0.691 -0.15 0.282 -0.509 0.354 -0.74 0.088Z" stroke-width="1"></path><path stroke="#000000" stroke-linecap="round" stroke-linejoin="round" d="M19.342 19.183c1.878 -1.927 5.806 -2.446 8.795 -2.199" stroke-width="1"></path><path stroke="#000000" stroke-linecap="round" stroke-linejoin="round" d="M31.678 18.2c2.74 3.368 1.879 6.774 0.665 9.788 -1.213 3.015 -2.975 3.876 -5.363 4.072 -2.389 0.196 -4.111 -0.274 -6.186 -3.524 -2.075 -3.249 -2.075 -4.502 -2.153 -5.52" stroke-width="1"></path><path stroke="#000000" stroke-linecap="round" stroke-linejoin="round" d="M24.943 16.942c-1.382 -2.132 -3.06 -2.132 -4.817 -1.855 -1.406 0.22 -2.363 0.763 -2.666 1.007l3.1 2.033" stroke-width="1"></path><path stroke="#000000" stroke-linecap="round" stroke-linejoin="round" d="M19.982 23.3c0.106 0.465 2.135 1.945 3.171 2.812 0 0.62 0.03 1.937 0.148 2.241 0.148 0.38 0.444 0.951 1.226 1.163 0.783 0.211 3.214 0.444 4.334 -0.486 1.121 -0.93 1.1 -2.6 1.037 -4.229 -0.064 -1.628 -0.952 -5.75 -3.172 -5.856 -2.22 -0.106 -5.01 1.797 -5.877 2.537s-0.973 1.353 -0.867 1.818Z" stroke-width="1"></path><path stroke="#000000" stroke-linecap="round" stroke-linejoin="round" d="M20.785 24.082c0.423 -1.226 0.613 -1.733 3.087 -3.044 1.979 -1.049 3.784 -1.17 4.44 -1.1" stroke-width="1"></path><path stroke="#000000" stroke-linecap="round" stroke-linejoin="round" d="M23.365 27.36c0.76 0.76 1.12 1.331 2.96 1.162 1.839 -0.17 2.41 -0.74 2.663 -1.734 0.203 -0.795 0.649 -1.219 0.846 -1.332" stroke-width="1"></path><path stroke="#000000" stroke-linecap="round" stroke-linejoin="round" d="M21.838 30.145c3.162 5.972 3.197 8.502 2.213 12.05" stroke-width="1"></path><path stroke="#000000" stroke-linecap="round" stroke-linejoin="round" d="M33.695 24.201c0.704 2.41 2.278 8.102 2.944 11.584 0.665 3.481 0.49 5.845 0.32 6.592" stroke-width="1"></path><path stroke="#000000" stroke-linecap="round" stroke-linejoin="round" d="m34.079 24.65 1.792 -18.56h-1.344" stroke-width="1"></path><path stroke="#000000" stroke-linecap="round" stroke-linejoin="round" d="M20.192 27.913 5.344 37.001" stroke-width="1"></path><path stroke="#000000" stroke-linecap="round" stroke-linejoin="round" d="M28.637 18.521c-0.918 -1.05 -0.371 -3.082 1.334 -3.082s2.186 1.617 1.595 2.732c-0.59 1.115 -2.01 1.4 -2.929 0.35Z" stroke-width="1"></path><path stroke="#000000" stroke-linecap="round" stroke-linejoin="round" d="m42.018 42.417 -2.247 -2.294 7.34 -5.347M37.603 9.59l8.488 -4.008L35.55 23.838l5.46 -0.78 -2.478 3.578 8.578 -2.064 -7.752 7.799 7.752 0.566" stroke-width="1"></path><path stroke="#000000" stroke-linecap="round" stroke-linejoin="round" d="m33.981 11.565 -1.527 0.678 1.188 -3.562 -8.787 5.564 -1.73 -7.057 -2.534 6.104 -4.909 -4.611v5.564L4.49 6.55l5.236 14.204L0.89 18.07l4.974 6.873h-3.01l4.385 5.105 -6.35 -0.331 1.44 4.193H0.89" stroke-width="1"></path><path stroke="#000000" stroke-linecap="round" stroke-linejoin="round" d="m24.549 19.4 0.45 1.044" stroke-width="1"></path><path stroke="#000000" stroke-linecap="round" stroke-linejoin="round" d="m21.725 20.96 0.45 1.042" stroke-width="1"></path><path stroke="#000000" stroke-linecap="round" stroke-linejoin="round" d="m25.304 28.663 0.45 1.043" stroke-width="1"></path></svg>