<svg xmlns="http://www.w3.org/2000/svg" fill="none" viewBox="0 0 48 48" height="48" width="48" id="All-The-Things-Meme-Hand-Drawn--Streamline-Memes.svg"><desc>All The Things Meme Hand Drawn Streamline Element: https://streamlinehq.com</desc><path fill="#000000" fill-rule="evenodd" d="M17.648495999999998 21.68016c-1.229424 0.307344 -1.84416 1.536816 -1.6904639999999997 2.6125439999999998 0.307344 1.9978079999999998 3.3809279999999995 2.458848 3.9956159999999996 0.15364799999999998 0.46104 -1.536768 -0.768384 -3.073536 -2.3051519999999996 -2.7661919999999998Zm0.92208 0.46104c-2.151504 0 -2.4588959999999997 2.612496 -0.92208 3.073536 1.536768 0.46104 2.458848 -2.151504 0.92208 -3.073536Z" clip-rule="evenodd" stroke-width="1"></path><path fill="#000000" fill-rule="evenodd" d="M17.1876 23.216976c-0.153696 0.15364799999999998 -0.307344 0.46104 -0.307344 0.768384 0.153696 0.614688 1.0757279999999998 0.46104 1.0757279999999998 0 0.307344 -0.92208 -0.768384 -1.075776 -0.768384 -0.768384Z" clip-rule="evenodd" stroke-width="1"></path><path fill="#000000" fill-rule="evenodd" d="M29.174447999999998 18.607055999999996c-0.15364799999999998 -0.307392 -1.229424 -0.000048 -1.536768 0.1536 -1.229424 0.614736 -1.6904639999999997 1.997856 -0.92208 3.073584 1.0757279999999998 1.84416 3.8419199999999996 1.536768 4.30296 -0.768384 0.153696 -1.84416 -1.690416 -2.9198399999999998 -1.844112 -2.4587999999999997Zm0 0.307344 -0.153696 0.15364799999999998c-1.383072 0.153696 -2.3051519999999996 1.383168 -1.536768 2.4588959999999997 0.768384 1.075776 2.458848 1.07568 2.919888 -0.461088 0.153696 -1.6904639999999997 -1.0757279999999998 -1.99776 -1.229424 -2.1514559999999996Z" clip-rule="evenodd" stroke-width="1"></path><path fill="#000000" fill-rule="evenodd" d="M28.713359999999998 20.758319999999998c0.153696 0.614736 1.075776 0.614736 1.229472 0 0.153696 -1.0757279999999998 -1.38312 -1.0757279999999998 -1.229472 0Z" clip-rule="evenodd" stroke-width="1"></path><path fill="#000000" fill-rule="evenodd" d="M19.339056 22.448687999999997c1.075776 -0.768384 2.4588959999999997 -1.075776 3.8419679999999996 -1.38312 1.075776 -0.307344 2.3051519999999996 -0.61464 3.3809279999999995 -0.30729599999999996 0.307344 0.153696 0.46104 -0.30744 0.15364799999999998 -0.461088 -1.844112 -0.768384 -5.993424 -0.153696 -7.683888 1.84416 -0.307344 0.15364799999999998 0 0.614736 0.307344 0.307344Z" clip-rule="evenodd" stroke-width="1"></path><path fill="#000000" fill-rule="evenodd" d="M17.341056000000002 25.829759999999997c-0.153696 2.7661919999999998 1.536768 4.610303999999999 2.1514559999999996 5.993424 0.614736 1.383072 1.075776 2.76624 2.6125439999999998 3.2272799999999995 6.761855999999999 1.84416 12.908976 -8.759712 8.298623999999998 -13.216415999999999 -0.15364799999999998 -0.15364799999999998 -0.460992 0.153696 -0.30729599999999996 0.307392 3.8419679999999996 4.303008 -1.84416 13.677407999999998 -7.837631999999999 12.14064 -1.229424 -0.307344 -1.536768 -1.6904639999999997 -2.1514559999999996 -2.7661919999999998 -0.614736 -1.229424 -2.4588959999999997 -3.2272799999999995 -2.4588959999999997 -5.686128 0.153696 -0.307344 -0.307344 -0.307344 -0.307344 0Z" clip-rule="evenodd" stroke-width="1"></path><path fill="#000000" fill-rule="evenodd" d="M26.715552 22.602576c2.151504 1.38312 2.6125439999999998 7.684032 -0.307344 8.913456 -0.92208 0.307344 -2.3051519999999996 0.614688 -3.227232 0 0.307392 0.15364799999999998 0.614688 0.30724799999999997 0.922032 0.30724799999999997 3.8419679999999996 0.307392 4.610352 -2.7661919999999998 3.073584 -2.3051519999999996 -1.0757279999999998 0.46104 -1.690416 1.997856 -3.38088 0.922128 -0.153696 -0.153696 -0.307392 -0.153696 -0.461088 -0.307392 -0.307344 -0.15364799999999998 -0.614688 0.153696 -0.768384 0.307392 -0.307344 -0.307344 0.153696 -1.229472 -0.307344 -2.151552 -0.614688 -1.0757279999999998 -2.6125439999999998 -1.383072 -1.997856 -3.227184v0.15364799999999998c0.46104 1.844112 2.151552 -1.38312 4.456752 -1.84416 1.0757279999999998 -0.307392 1.844112 0.153696 1.99776 -0.614688l0 -0.153744Z" clip-rule="evenodd" stroke-width="1"></path><path fill="#000000" fill-rule="evenodd" d="M19.953888 25.369056c-0.614736 1.844112 1.536768 2.3051039999999996 1.99776 3.380832 0.46104 0.768384 -0.614688 3.2272799999999995 1.84416 3.68832 1.229472 0.153696 3.3809279999999995 -0.307344 4.303008 -1.690416 1.844112 -3.2272799999999995 0.614688 -11.372207999999999 -5.532432 -7.683935999999999 -1.075776 0.46104 -2.3051519999999996 1.38312 -2.612496 2.3052Zm0.614688 -0.307392c-1.229424 1.6904639999999997 1.229424 2.064432 1.9978079999999998 3.293856 0.614688 1.229424 -0.614688 3.00696 1.229424 3.160656 0.768432 0.153696 1.9978079999999998 -0.153744 2.6125439999999998 -0.461136 2.612496 -1.383072 2.6125439999999998 -12.601583999999999 -5.2250879999999995 -6.608111999999999 -0.198672 0.15192 -0.55872 0.530736 -0.614688 0.614736Z" clip-rule="evenodd" stroke-width="1"></path><path fill="#000000" fill-rule="evenodd" d="M17.007599999999996 19.755504c1.0757279999999998 0.92208 0.922032 0.92208 2.919888 1.84416 0.307344 0.153696 0.46104 -0.15364799999999998 0.307344 -0.46104 -1.383072 -1.0757279999999998 -1.38312 -1.229424 -2.919936 -1.84416 -0.307344 0 -0.61464 0.307344 -0.30729599999999996 0.46104Z" clip-rule="evenodd" stroke-width="1"></path><path fill="#000000" fill-rule="evenodd" d="M24.10296 20.297088c-1.383072 -3.688272 -5.224992 -1.229376 -6.300768 -1.07568 -0.768384 0.153696 -1.075776 -0.153696 -1.075776 0.15364799999999998 -0.15364799999999998 0.46104 0.768384 0.460992 1.229424 0.460992 1.6904639999999997 -0.15364799999999998 4.456704 -1.844112 5.839823999999999 0.768384 0 0.153696 0.30729599999999996 0 0.30729599999999996 -0.307344Z" clip-rule="evenodd" stroke-width="1"></path><path fill="#000000" fill-rule="evenodd" d="M32.555471999999995 10.154639999999999c1.6904639999999997 0.46104 0.922032 3.073536 0.768384 4.764 -0.307344 4.456704 -0.15364799999999998 9.989136 -1.0757279999999998 13.9848 0 0.307344 0.307344 0.460992 0.460992 0.15364799999999998 1.229472 -4.917696 1.38312 -8.45232 1.536816 -14.138448 0 -1.0757279999999998 0.307344 -2.766144 -0.153696 -3.9955679999999996 -0.46104 -1.229472 -1.536768 -1.383168 -1.690416 -1.075776 0 0.15364799999999998 -0.000048 0.307344 0.15364799999999998 0.307344Z" clip-rule="evenodd" stroke-width="1"></path><path fill="#000000" fill-rule="evenodd" d="M19.492559999999997 31.055087999999998c-5.68608 2.458848 -7.991231999999999 4.149408 -14.138352 5.839872 -0.307392 0.15364799999999998 -0.153696 0.460992 0.153696 0.460992 8.913312000000001 -2.151504 9.374352 -3.534576 14.138352 -5.839776 0.307344 -0.15364799999999998 0 -0.614784 -0.153696 -0.461088Z" clip-rule="evenodd" stroke-width="1"></path><path fill="#000000" fill-rule="evenodd" d="M22.1052 34.74336c0.307344 4.456704 0.307344 2.4588959999999997 0.768384 5.378784 0.46104 2.7661919999999998 -0.46104 3.688272 0 3.8419199999999996 0.153696 0 0.307392 0.000048 0.307392 -0.1536 0.92208 -3.3809279999999995 0.768336 -2.1515999999999997 -0.614784 -8.913456 0 -0.614688 -0.460992 -0.460992 -0.460992 -0.15364799999999998Z" clip-rule="evenodd" stroke-width="1"></path><path fill="#000000" fill-rule="evenodd" d="M31.479552 27.366767999999997c2.151504 8.144927999999998 2.919888 8.605967999999999 3.8419679999999996 12.601631999999999 0.768384 3.534576 0.307344 3.8419679999999996 0.768384 3.8419679999999996 0.153696 0 0.153696 -0.153696 0.153696 -0.307392 0 -5.839776 -2.3052 -9.3744 -4.456704 -16.4436 0 -0.153696 -0.460992 0 -0.307344 0.307392Z" clip-rule="evenodd" stroke-width="1"></path><path fill="#000000" fill-rule="evenodd" d="M5.389632 43.60104c8.45232 -4.303008 10.296432 -2.151552 0.307344 -5.686128 -1.3831008 -0.46104 -2.4588144 -0.92208 -3.9955967999999995 -1.536768 6.9155328 -3.073584 10.296460799999998 -3.8419199999999996 9.220684799999999 -4.764 -1.0757279999999998 -0.768384 -5.532432 -4.303008 -6.7618656 -5.071392 6.1471296 0.768384 4.9177056 1.536816 -1.9978032 -7.683888C7.541135999999999 21.625055999999997 11.229408 23.776511999999997 11.383104 23.161824c0.153696 -0.307344 -0.153696 -0.153744 -3.2272799999999995 -1.690512 -6.7618272 -3.3809279999999995 -7.069166399999999 -4.149264 -7.3765248 -3.688224 -0.1536768 0.15364799999999998 -0.1536768 0.307344 0 0.460992 1.9978224 2.76624 3.2272368 4.6104 5.993452799999999 7.991327999999999l-4.1493408 -0.614784c-0.4610352 0 -0.6146831999999999 0.46104 -0.3073248 0.768384C3.8528687999999995 27.618479999999998 8.77056 31.306751999999996 9.69264 32.075136c-0.768384 0.46104 -1.536816 0.768432 -2.3052 1.075776 -8.1449424 3.688272 -8.759664 3.227232 -5.5324176 4.30296 1.229424 0.46104 2.3052 0.92208 3.5346095999999996 1.229424 1.6904639999999997 0.614736 3.534624 1.075776 5.2250879999999995 1.536768 0.768384 0.307392 0.92208 -0.1536 -2.151504 1.383168 -3.6882767999999997 1.6904639999999997 -3.534624 1.690416 -3.534624 1.9978079999999998l0.46104 0Z" clip-rule="evenodd" stroke-width="1"></path><path fill="#000000" fill-rule="evenodd" d="M11.635008 23.270736c-1.075776 -3.534576 -3.073584 -7.683888 -4.610352 -11.218463999999999 2.919888 2.612496 5.532432 4.764 8.605967999999999 6.915503999999999 0.92208 0.614736 0.614736 -1.38312 0.768432 -7.222896 0 0.153696 2.6125439999999998 5.378736 3.227232 5.378736 0.46104 0 0.153696 -0.15364799999999998 1.536768 -3.9956159999999996 0.92208 -2.458848 1.844112 -4.764048 2.6125439999999998 -7.222896 0.922032 4.610352 1.6904639999999997 10.142784 2.151504 10.29648 0.307392 0.153696 0.614688 -0.30729599999999996 5.071392 -3.227184 -0.614736 4.764 -1.075776 3.9956159999999996 2.7661919999999998 1.99776 8.759664 -4.456656000000001 8.91336 -4.30296 8.759664 -4.610352 -0.15364799999999998 -0.307344 -0.46104 0 -1.6904639999999997 0.46104 -1.0757279999999998 0.46104 -8.913312000000001 4.30296 -9.681696 4.764 0.614688 -5.071392 1.5367199999999999 -4.610303999999999 -5.07144 -0.30729599999999996 -0.768384 -3.688272 -1.229424 -7.53024 -2.151504 -11.064859199999999 -0.15364799999999998 -0.4610352 -0.614688 -0.4610352 -0.768384 0 -1.0757279999999998 3.8419632 -2.919888 7.837531199999999 -3.9956159999999996 11.3721552 -1.075776 -1.84416 -2.151504 -3.688224 -2.919888 -5.686032 -0.153696 -0.46104 -0.768384 -0.307392 -0.768384 0.15364799999999998 -0.307392 2.458848 -0.15364799999999998 5.2250879999999995 -0.307344 7.991279999999999 -3.073584 -2.151504 -6.300815999999999 -4.764048 -9.220704 -7.222896 -0.307344 -0.153696 -0.614736 0 -0.46104 0.307392 1.536768 3.688272 4.149311999999999 8.45232 5.378736 12.601631999999999 0.46104 0 0.922032 -0.153744 0.768384 -0.461136Z" clip-rule="evenodd" stroke-width="1"></path><path fill="#000000" fill-rule="evenodd" d="M45.800112 26.012448c-1.9978079999999998 1.229424 -7.558752 5.042208 -8.327136 5.810592 -1.229424 1.229424 4.456656000000001 1.075824 9.067008 2.766288 -1.84416 0.92208 -4.456656000000001 2.1514559999999996 -6.60816 2.7661919999999998 -0.307344 0 -0.307344 0.460944 -0.153696 0.61464 0.92208 0.768384 1.84416 0.92208 4.149360000000001 1.84416 -5.686128 1.9978079999999998 -6.147168 1.075776 -4.303008 2.919936 1.383072 1.38312 1.536768 1.383072 1.6904639999999997 1.229424 0.307344 -0.307392 -0.614736 -0.768432 -1.84416 -2.151552 0.46104 -0.153696 5.839776 -1.536768 5.839776 -1.9978079999999998 0 -0.307344 -0.307344 -0.307344 -0.768384 -0.460992 -0.15364799999999998 0 -2.919888 -1.229424 -3.073536 -1.229424 -1.075776 -0.46104 -1.229424 0.30729599999999996 6.300815999999999 -3.227328 0.307344 -0.15364799999999998 0.307344 -0.614688 0 -0.768384 -4.149311999999999 -1.6904639999999997 -9.220752000000001 -1.9978079999999998 -8.913408 -2.3051519999999996 7.53024 -5.839776 8.91336 -5.686032 8.606016 -6.454415999999999 -0.153696 -0.46104 -0.46104 -0.153696 -2.151504 0 -9.374352 0.92208 -7.837583999999999 0.768384 -7.991279999999999 0.768384 3.227232 -3.688272 2.458848 -3.073632 0.614688 -3.227328 -0.768384 0 -1.690416 -0.1536 -2.4587999999999997 -0.1536C42.698064 10.308096 43.159056 10.308096 42.698015999999996 10.1544c-0.307344 -0.15364799999999998 -0.307344 0.000048 -1.536768 2.151552 -4.303008 6.761855999999999 -0.614688 0.460992 -6.454464 10.603728 -0.153696 0.153696 -0.000048 0.46104 0.307344 0.46104 1.229424 0.153696 2.6125439999999998 0.307392 3.534624 0.307392 -2.919888 3.688272 -4.303008 3.38088 3.073536 2.7661919999999998 1.3074240000000001 -0.10896 2.9484 -0.27816 4.177823999999999 -0.431856Z" clip-rule="evenodd" stroke-width="1"></path><path fill="#000000" fill-rule="evenodd" d="M21.490416 23.985744c0.153696 0.614736 0.153696 0.614688 0.614688 0.922032 0.153696 0.307392 0.614736 0.000096 0.46104 -0.30724799999999997 -0.153696 -0.768384 -0.15364799999999998 -0.7684799999999999 -0.614688 -0.922128 -0.153696 -0.307344 -0.614688 0 -0.46104 0.307344Z" clip-rule="evenodd" stroke-width="1"></path><path fill="#000000" fill-rule="evenodd" d="M23.949408 22.602624c0 0.46104 -0.153696 0.461136 0.307344 1.22952 0.153696 0.307344 0.46104 0.1536 0.46104 -0.153744 0 -0.614736 0.153696 -0.614688 -0.307344 -1.229424 0 -0.307344 -0.46104 -0.153696 -0.46104 0.15364799999999998Z" clip-rule="evenodd" stroke-width="1"></path><path fill="#000000" fill-rule="evenodd" d="M23.949408 30.593808c-0.307392 0.46104 -0.307392 0.46104 0 1.0757279999999998 0 0.307392 0.460992 0.307392 0.460992 0 0.307344 -0.614688 0.307344 -0.46104 0 -1.0757279999999998 0 -0.153696 -0.460992 -0.307392 -0.460992 0Z" clip-rule="evenodd" stroke-width="1"></path><path fill="#000000" fill-rule="evenodd" d="M25.793472 30.132911999999997c-0.153696 0.46104 -0.15364799999999998 0.614688 0.307392 1.229424 0.15364799999999998 0.307344 0.460992 0.153696 0.460992 -0.15364799999999998 0 -0.614688 0.153696 -0.614688 -0.307344 -1.229376 -0.15364799999999998 -0.153696 -0.614736 -0.153744 -0.46104 0.1536Z" clip-rule="evenodd" stroke-width="1"></path></svg>