<svg xmlns="http://www.w3.org/2000/svg" fill="none" viewBox="0 0 48 48" height="48" width="48" id="Angry-Face-Hand-Drawn--Streamline-Memes.svg"><desc>Angry Face Hand Drawn Streamline Element: https://streamlinehq.com</desc><path fill="#000000" fill-rule="evenodd" d="M9.489071999999998 43.735296C5.3707199999999995 37.706688 3.568656 30.105504 6.142656 21.979824C9.746832 10.184592 24.1608 5.728992 34.456896 11.7576C45.01032 18.048239999999996 47.58432 34.823616 39.604943999999996 43.997328C39.347615999999995 44.259359999999994 39.862272000000004 44.521823999999995 39.862272000000004 44.259359999999994C48.098928 34.823136 45.782688 17.786255999999998 34.971503999999996 11.233103999999999C24.1608 4.680432 8.800415999999998 9.398544 5.1966719999999995 21.979824C2.6226719999999997 30.367055999999998 5.11344 38.230703999999996 9.231792 44.259312C9.231792 44.259312 9.7464 43.997328 9.489071999999998 43.735296Z" clip-rule="evenodd" stroke-width="1"></path><path fill="#000000" fill-rule="evenodd" d="M20.042496 20.145263999999997C19.012752000000003 19.359264 13.607424 10.971551999999999 0.737328 10.447056C0.737328 10.447056 0.48 10.447056 0.48 10.709088C0.48 11.233584 2.539392 10.447056 7.68744 12.543648C17.211119999999998 15.951696 19.785168 23.291328 20.814864 20.669759999999997C21.586799999999997 18.572736 19.27008 15.951696 17.725776 14.379119999999999C17.468448 14.116656 17.211168 14.379119999999999 17.468448 14.641152C18.755472 15.951696 19.785168 17.262192 20.300256 19.096752C20.300256 19.096752 20.300256 19.88328 20.042496 20.145744Z" clip-rule="evenodd" stroke-width="1"></path><path fill="#000000" fill-rule="evenodd" d="M27.764543999999997 11.495135999999999C26.22024 14.640672 28.279152 16.2132 32.912592 11.495135999999999C36.515856 7.563504 41.921184000000004 4.417968 47.32704 4.1559360000000005C47.58432 4.1559360000000005 47.58432 3.6319199999999996 47.32704 3.6319199999999996C43.980624 3.8939519999999996 40.63416 4.942463999999999 37.802831999999995 6.515472C31.625568 10.184592 31.625568 13.068144 28.79376 13.854144C28.279152 14.116176 28.021824 13.854144 28.021824 13.59216C27.764543999999997 13.068144 28.279152 12.281616 28.53648 11.7576C28.279152 11.495135999999999 27.764543999999997 11.233103999999999 27.764543999999997 11.495135999999999Z" clip-rule="evenodd" stroke-width="1"></path><path fill="#000000" fill-rule="evenodd" d="M16.438751999999997 18.309792C10.003680000000001 15.950736 5.628048 22.765871999999998 8.459375999999999 28.532496C10.776095999999999 33.250608 17.468448 33.774623999999996 20.042496 27.745967999999998C22.616495999999998 21.979344 17.725776 18.571776 17.210688 19.358304V19.620336C20.299776 21.193344 20.557104 24.600432 19.27056 27.483984C16.696512 32.726112 11.033856 32.464079999999996 8.974464 28.270031999999997C6.657744 23.289888 10.261488 16.737264 16.181424 18.833807999999998C16.696512 19.096272 16.696032 18.571776 16.438751999999997 18.309792Z" clip-rule="evenodd" stroke-width="1"></path><path fill="#000000" fill-rule="evenodd" d="M10.775616 23.5524C11.033376 24.600911999999997 11.805792 25.386912 13.092336 24.33888C14.37936 23.028336 13.092336 20.931312000000002 11.290704 21.71784C10.928496 21.875856 10.518288 22.50384 10.775616 23.5524Z" clip-rule="evenodd" stroke-width="1"></path><path fill="#000000" fill-rule="evenodd" d="M34.456896 14.902704C31.367807999999997 15.164688 28.53648 17.523744 27.249456 20.407296C25.705152 24.33888 28.021872 28.794528 32.397504 29.056992C36.515856 29.581007999999997 40.37688 25.649424 40.119552 21.455327999999998C39.862272000000004 18.834288 38.06064 16.2132 35.743919999999996 15.426720000000001C35.486592 15.426720000000001 35.229312 15.689184 35.486592 15.951215999999997C37.803312 16.999728 39.115728 19.096752 39.373056 21.455807999999998C39.63033599999999 25.124928 36.259007999999994 28.79448 32.654784 28.270463999999997C29.051567999999996 28.00848 26.992128 24.076848 28.021824 20.668847999999997C29.05152 17.785776 31.625087999999998 15.689184 34.456896 15.426720000000001C34.971503999999996 15.164688 34.971503999999996 14.902704 34.456896 14.902704Z" clip-rule="evenodd" stroke-width="1"></path><path fill="#000000" fill-rule="evenodd" d="M34.507248000000004 17.259407999999997C33.417311999999995 17.629583999999998 33.4272 20.144832 35.486592 19.8828C37.288224 19.358304 36.739295999999996 17.1324 35.194944 17.1324C34.937664 17.1324 34.78243199999999 17.1324 34.507248000000004 17.259407999999997Z" clip-rule="evenodd" stroke-width="1"></path><path fill="#000000" fill-rule="evenodd" d="M33.16992 33.250608C31.176336 30.274367999999996 26.837376 27.448224 22.501248 31.274927999999996C20.185008 33.109488 17.468448 37.444655999999995 19.27056 39.803232C20.557104 41.63827199999999 23.131103999999997 40.852224 25.190544 40.58976C29.823936 39.541247999999996 35.228832 39.017232 33.941808 34.561104C33.941808 34.29912 33.4272 34.29912 33.4272 34.561104C33.684528 35.871648 33.4272 36.658176 32.912592 37.182192C31.882896000000002 38.231184 29.566176 38.492736 28.53648 38.755199999999995C26.992128 39.017232 24.1608 39.803232 22.616495999999998 39.803232C18.755472 40.065743999999995 18.498143999999996 36.658176 22.359168 32.464079999999996C25.962432 28.532496 29.339424 29.94744 32.943168 33.354575999999994C33.011376 33.496607999999995 33.31430399999999 33.466512 33.169872 33.251087999999996Z" clip-rule="evenodd" stroke-width="1"></path><path fill="#000000" fill-rule="evenodd" d="M29.051567999999996 32.726592000000004C28.79424 32.46456 27.764543999999997 30.892032 26.992128 31.678032C26.734848 31.940063999999996 26.47752 33.250608 25.962432 32.726592000000004C25.705152 32.46456 25.447824 32.202528 24.932736 31.940063999999996C24.1608 31.678032 24.1608 32.46456 24.1608 32.989056C23.646192 34.037088 23.131103999999997 32.989056 22.616495999999998 32.202528C22.616495999999998 31.940063999999996 22.101408 31.940063999999996 22.101408 32.46456C22.616495999999998 34.561104 24.1608 35.0856 24.933216 32.988576C25.190544 32.988576 25.447824 33.513072 25.705152 33.775104C26.47752 34.037088 27.249456 33.250608 27.506784 32.46456C27.764063999999998 32.46456 28.79376 34.29912 29.823504 32.988576C30.080784 32.46456 30.338592 31.940063999999996 30.338592 31.416048000000004C30.338592 31.416048000000004 30.338592 31.154016 30.080784 31.154016C29.823504 30.891551999999997 29.624975999999997 32.202096 29.051567999999996 32.726592000000004Z" clip-rule="evenodd" stroke-width="1"></path><path fill="#000000" fill-rule="evenodd" d="M30.595872 37.182672C30.338112 36.658176 29.823455999999997 36.396144 29.308847999999998 36.396144C28.53648 36.396144 28.279152 36.92064 27.764543999999997 37.444655999999995C27.764543999999997 37.444655999999995 27.635664 37.706688 27.506784 37.444655999999995C27.249456 36.92064 26.734848 36.658176 26.219759999999997 36.658176C25.447824 36.658176 24.932736 37.182672 24.675456 37.707119999999996C24.569616 37.890575999999996 24.496223999999998 37.91976 24.1608 37.707119999999996C22.359215999999996 36.92064 21.586799999999997 40.32772799999999 22.101408 40.32772799999999C22.616495999999998 40.32772799999999 22.359215999999996 39.54168 23.131584 38.493168000000004C23.388432 37.969152 23.90304 37.968672 24.1608 38.231184C24.418128 38.493168000000004 24.675456 39.01718399999999 25.190496 38.493168000000004C25.705152 37.969152 26.219759999999997 36.658608 26.734848 37.444655999999995C27.249456 37.968672 27.506784 38.755199999999995 28.021824 38.231184C28.53648 37.706688 29.051567999999996 36.658176 29.566176 37.182192C29.823455999999997 37.444655999999995 29.836655999999998 37.630944 30.080784 37.968672C30.338064 38.231184 30.595872 38.231184 30.853151999999998 37.968672C31.110480000000003 37.706688 31.032384 37.066944 31.54704 36.804912C31.8048 36.804912 32.010335999999995 36.917807999999994 32.140176 37.182672C32.397504 37.706688 32.654784 37.96872 32.912592 37.96872C33.16992 37.96872 33.16992 37.706688 32.397504 36.658176C31.625087999999998 35.872128 31.110480000000003 36.396144 30.595872 37.182672Z" clip-rule="evenodd" stroke-width="1"></path></svg>