<svg xmlns="http://www.w3.org/2000/svg" fill="none" viewBox="0 0 48 48" height="48" width="48" id="Angry-Face--Streamline-Memes.svg"><desc>Angry Face Streamline Element: https://streamlinehq.com</desc><path stroke="#000000" stroke-linecap="round" stroke-linejoin="round" d="M13.436 47C6.533 42.854 1.847 34.771 1.847 25.479 1.847 11.959 11.765 1 24 1s22.153 10.96 22.153 24.479c0 9.292 -4.686 17.375 -11.589 21.521" stroke-width="1"></path><path stroke="#000000" stroke-linecap="round" stroke-linejoin="round" d="M25.173 14.618a6.776 6.776 0 1 0 13.552 0 6.776 6.776 0 1 0 -13.552 0" stroke-width="1"></path><path stroke="#000000" stroke-linecap="round" stroke-linejoin="round" d="M5.757 20.547a6.776 6.776 0 1 0 13.552 0 6.776 6.776 0 1 0 -13.552 0" stroke-width="1"></path><path stroke="#000000" stroke-linecap="round" stroke-linejoin="round" d="M25.108 4.258c-1.532 1.824 -3.412 7.297 -2.118 7.362 0.184 -0.081 0.266 -0.437 0.359 -0.6 2.966 -5.212 8.446 -8.802 14.352 -9.564" stroke-width="1"></path><path stroke="#000000" stroke-linecap="round" stroke-linejoin="round" d="M4.258 8.754c6.75 0 11.467 4.56 13.976 7.981 0.907 0.504 0.423 -3.616 -2.183 -7.2" stroke-width="1"></path><path stroke="#000000" stroke-linecap="round" stroke-linejoin="round" d="M23.883 24.491c6.803 -2.129 19.055 8.061 12.007 8.884 -1.934 0.226 -4.731 1.236 -7.658 2.44 -2.98 1.065 -5.735 2.187 -7.322 3.314 -5.787 4.107 -3.507 -11.665 2.973 -14.637Z" stroke-width="1"></path><path stroke="#000000" stroke-linecap="round" stroke-linejoin="round" d="m24.406 26.093 2.707 2.149a0.5 0.5 0 0 0 0.808 -0.337l0.365 -3.303" stroke-width="1"></path><path stroke="#000000" stroke-linecap="round" stroke-linejoin="round" d="m24.406 26.093 -0.573 3.409a0.5 0.5 0 0 1 -0.825 0.29l-2.482 -2.209" stroke-width="1"></path><path stroke="#000000" stroke-linecap="round" stroke-linejoin="round" d="m30.305 34.84 -3.218 -2.619a0.5 0.5 0 0 0 -0.814 0.339l-0.393 3.98" stroke-width="1"></path><path stroke="#000000" stroke-linecap="round" stroke-linejoin="round" d="m25.88 36.54 -3.212 -2.614a0.5 0.5 0 0 0 -0.813 0.342l-0.418 4.544" stroke-width="1"></path><path stroke="#000000" stroke-linecap="round" stroke-linejoin="round" d="m30.305 34.84 0.633 -4.073a0.5 0.5 0 0 1 0.84 -0.284L35 33.563" stroke-width="1"></path><path fill="#000000" fill-rule="evenodd" d="M9.816 18.547a1.25 1.25 0 1 0 0 2.5 1.25 1.25 0 0 0 0 -2.5Z" clip-rule="evenodd" stroke-width="1"></path><path fill="#000000" fill-rule="evenodd" d="M34.119 9.823a1.25 1.25 0 1 0 0 2.5 1.25 1.25 0 0 0 0 -2.5Z" clip-rule="evenodd" stroke-width="1"></path></svg>