<svg xmlns="http://www.w3.org/2000/svg" fill="none" viewBox="0 0 48 48" height="48" width="48" id="Awkward-Look-Monkey--Hand-Drawn--Streamline-Memes.svg"><desc>Awkward Look Monkey  Hand Drawn Streamline Element: https://streamlinehq.com</desc><path fill="#000000" fill-rule="evenodd" d="M30.236928 15.118272C27.320592 16.192704 27.16704 20.951040000000003 29.162496 23.253455999999996C30.697391999999997 25.095359999999996 33.15336 24.481391999999996 34.074288 22.486031999999998C35.609232 19.5696 34.227744 14.197344 30.850944000000002 14.811312C30.543936 14.811312 30.697391999999997 15.271776 31.0044 15.271776C33.613824 14.811264 34.688256 19.109136 33.613824 21.718511999999997C32.846352 23.560464 31.004448 24.174384 29.776464 22.792944C28.241567999999997 20.951040000000003 27.93456 16.653216 30.390432 15.73224C30.69744 15.42528 30.390432 15.118272 30.236928 15.118272Z" clip-rule="evenodd" stroke-width="1"></path><path fill="#000000" fill-rule="evenodd" d="M28.702175999999998 17.728032C26.860224 19.569984 28.702175999999998 23.407344000000002 30.390575999999996 21.8724C31.3116 21.104928 31.158047999999997 19.262976 30.697536 18.342C29.930064 16.807104 28.702175999999998 17.267568 28.702175999999998 17.728032Z" clip-rule="evenodd" stroke-width="1"></path><path fill="#000000" fill-rule="evenodd" d="M39.600096 15.425327999999999C37.604688 14.04384 36.376751999999996 20.183615999999997 38.218656 21.872063999999998C40.521072 24.020976 42.05601599999999 17.8812 40.06056 15.885791999999999C39.907056000000004 15.732287999999999 39.600096 16.039296 39.753648 16.192752000000002C40.674575999999995 17.113728 40.521024000000004 19.262688 40.06056 20.337168000000002C39.139584 23.100048 37.451184000000005 20.183615999999997 38.218656 16.960272C38.372159999999994 16.346304 38.679120000000005 15.425376 39.293136 15.732336C39.600096 15.88584 39.907104 15.578831999999998 39.600096 15.425327999999999Z" clip-rule="evenodd" stroke-width="1"></path><path fill="#000000" fill-rule="evenodd" d="M38.525568 20.644464C39.6 20.183952 39.446495999999996 16.346688 38.372064 16.500144000000002C37.297584 16.500144000000002 36.990576 21.411935999999997 38.525568 20.644464Z" clip-rule="evenodd" stroke-width="1"></path><path fill="#000000" d="M41.7828 25.1508C41.936304 25.1508 41.936304 24.997344000000002 41.936304 24.843792C41.472528 23.220768 40.746095999999994 22.298208 39.757056 21.547055999999998L39.189887999999996 21.966768C41.84328 24.785328 41.359919999999995 25.291776 41.7828 25.1508Z" stroke-width="1"></path><path fill="#000000" fill-rule="evenodd" d="M42.516479999999994 24.941903999999997C38.372112 23.713967999999998 36.376704000000004 27.858287999999998 39.907056000000004 28.93272C41.13504 29.239728 42.66998399999999 28.62576 43.437456 27.704784C44.51188799999999 26.323344 43.130447999999994 24.941903999999997 42.823488 25.248912C42.66998399999999 25.402368 42.823488 25.555871999999997 42.823488 25.555871999999997C44.35843199999999 26.937312 41.442 28.625711999999996 40.06056 28.165248C37.758144 27.397824 39.139584 24.634895999999998 42.362976 25.402368C42.669936 25.402368 42.823488 24.941903999999997 42.516479999999994 24.941903999999997Z" clip-rule="evenodd" stroke-width="1"></path><path fill="#000000" fill-rule="evenodd" d="M41.749055999999996 28.319424C43.744463999999994 31.849776000000002 42.056064 36.915072 35.762831999999996 38.60352C29.316048 40.445424 23.329824 38.60352 23.636784 31.849824C23.943792 25.863552 28.241567999999997 24.635568 26.860127999999996 24.0216C20.259888 21.25872 22.562304 7.444224 34.534800000000004 9.746687999999999C37.604688 10.360608 40.82807999999999 12.356016 39.753648 15.118944C39.60014399999999 15.425904000000001 40.060607999999995 15.579456 40.21411199999999 15.272447999999999C42.823536 9.43968 28.088064 5.448864 23.943744000000002 13.123535999999998C21.794832 17.114351999999997 22.255296 22.486656 26.092655999999998 24.635568C19.492416 31.849776000000002 22.71576 43.208304 36.069744 39.370944C42.66998399999999 37.52904 44.511936 32.003280000000004 42.209472 28.16592C41.902559999999994 27.858912 41.595552 28.16592 41.749055999999996 28.319376Z" clip-rule="evenodd" stroke-width="1"></path><path fill="#000000" fill-rule="evenodd" d="M29.930016 33.077183999999995C30.544032 33.077183999999995 42.823584 33.077183999999995 42.823584 32.30976C42.823584 32.002751999999994 42.516576 32.15620799999999 41.288591999999994 32.15620799999999C34.534895999999996 32.002751999999994 34.074383999999995 32.463263999999995 29.930016 32.616719999999994C29.623056 32.616719999999994 29.623056 33.077183999999995 29.930016 33.077183999999995Z" clip-rule="evenodd" stroke-width="1"></path><path fill="#000000" fill-rule="evenodd" d="M28.695791999999997 39.171984C23.517311999999997 38.590128 14.48064 38.562576 10.489775999999999 34.57176C2.5081439999999997 26.59008 3.836016 12.048768 12.27816 5.601984C20.259839999999997 -0.537744 30.083472 0.38323199999999996 36.069696 5.601984C40.827984 9.899856 40.06056 11.127792 42.669936 11.127792C42.976944 11.127792 42.976944 10.66728 42.669936 10.66728C40.367568 10.66728 41.13504 9.439343999999998 36.376704000000004 5.141519999999999C30.236928 -0.38423999999999997 20.106336 -1.6122239999999999 11.817648 4.83456C2.9150400000000003 11.588256 1.22664 27.091152 9.668832 35.226288C13.966608 39.370656 23.841359999999998 39.325536 28.695791999999997 39.325536C29.156256 39.632495999999996 29.002799999999997 39.172032 28.695791999999997 39.172032Z" clip-rule="evenodd" stroke-width="1"></path><path fill="#000000" fill-rule="evenodd" d="M40.483487999999994 13.149648C41.864928 12.842688 42.478896 12.228672 43.399824 11.15424C43.553376 11.000687999999998 43.246415999999996 10.540272 43.092912 10.847232C42.632448 11.15424 42.018432 11.614704 41.404464 11.921664C41.097455999999994 12.075168 40.636992 12.53568 40.329983999999996 12.689136C40.023024 12.84264 40.17648 13.303151999999999 40.483487999999994 13.149648Z" clip-rule="evenodd" stroke-width="1"></path><path fill="#000000" fill-rule="evenodd" d="M30.543984 41.36592C29.00904 41.826432000000004 19.95288 41.672976 17.036496 41.672976C15.348096 41.672976 12.124655999999998 41.672928 10.743263999999998 40.598448C13.506096 35.379696 12.124704 39.370560000000005 28.548528 39.677472C28.855535999999997 39.677472 28.855535999999997 39.217056 28.548528 39.217056C13.966608 38.603088 12.73872 34.612224 10.2828 39.677472C9.822288 40.444992 9.361823999999999 41.212464000000004 11.817744 41.979936C14.12016 42.74736 23.022768 42.593904 25.785648 42.286896C26.860127999999996 42.13344 31.618416 42.440447999999996 31.004448 41.36592C30.69744 40.598448 30.28992 40.137935999999996 29.522447999999997 39.370512C29.368944 39.217008 29.061984 39.524016 29.215488 39.677472C29.982912 40.291488 30.236976 40.598448 30.543984 41.36592Z" clip-rule="evenodd" stroke-width="1"></path><path fill="#000000" fill-rule="evenodd" d="M12.124704 41.826336C10.896719999999998 43.36128 9.975744 44.589216 9.361775999999999 47.198592C9.20832 47.5056 9.668832 47.659056 9.822288 47.352095999999996C10.743263999999998 45.049679999999995 12.892176 41.979839999999996 12.431664 41.826336C12.431664 41.67288 12.278208 41.67288 12.124704 41.826336Z" clip-rule="evenodd" stroke-width="1"></path><path fill="#000000" fill-rule="evenodd" d="M29.469407999999998 42.133872C32.539296 47.659631999999995 32.232336 47.19912 32.38584 47.352672C32.539296 47.659631999999995 32.999808 47.506175999999996 32.846303999999996 47.19916799999999C32.078832 44.589791999999996 31.157856 43.361855999999996 29.929872 41.82691199999999C29.776415999999998 41.673407999999995 29.315952 41.826864 29.469407999999998 42.133872Z" clip-rule="evenodd" stroke-width="1"></path></svg>