<svg xmlns="http://www.w3.org/2000/svg" fill="none" viewBox="0 0 48 48" height="48" width="48" id="Awkward-Look-Monkey--Streamline-Memes.svg"><desc>Awkward Look Monkey  Streamline Element: https://streamlinehq.com</desc><path stroke="#000000" stroke-linecap="round" stroke-linejoin="round" d="M10.71 35.874v3.774c6.92 1.561 21.316 4.632 23.554 4.424 2.238 -0.208 2.624 -2.299 2.537 -3.318l-26.09 -4.88Z" stroke-width="1"></path><path stroke="#000000" stroke-linecap="round" stroke-linejoin="round" d="M12 39.938C10.59 41.218 7.718 44.5 7.718 47" stroke-width="1"></path><path stroke="#000000" stroke-linecap="round" stroke-linejoin="round" d="m33.483 44.072 1.236 2.863" stroke-width="1"></path><path stroke="#000000" stroke-linecap="round" stroke-linejoin="round" d="M25.86 38.672c-3.904 -3.175 -2.01 -13.273 0.982 -15.746 -10.556 -6.685 -4.206 -19.664 8.922 -15.42 0.878 0.284 1.677 -0.57 1.1 -1.29C33.625 2.175 27.701 1 22.747 1 12.599 1 5.506 7.897 5.506 19.51c0 8.408 3.949 14.679 10.15 17.271" stroke-width="1"></path><path stroke="#000000" stroke-linecap="round" stroke-linejoin="round" d="M35.236 7.338c1.99 2.3 3.04 5.764 3.407 8.494m2.17 11.027c0.046 -0.739 -1.112 -3.338 -1.863 -4.892M28.11 39.109c1.105 0.109 5.113 -0.632 6.674 -1.283 2.787 -1.161 4.484 -4.87 5.341 -7.67" stroke-width="1"></path><path stroke="#000000" stroke-linecap="round" stroke-linejoin="round" d="M42.494 28.49c0 0.916 -0.813 1.659 -2.244 1.659 -1.432 0 -2.245 -0.743 -2.245 -1.66 0 -0.916 0.455 -1.659 2.245 -1.659 1.789 0 2.244 0.743 2.244 1.66Z" stroke-width="1"></path><path stroke="#000000" stroke-linecap="round" stroke-linejoin="round" d="M28.893 19.381a2.847 3.558 0 1 0 5.694 0 2.847 3.558 0 1 0 -5.694 0" stroke-width="1"></path><path stroke="#000000" stroke-linecap="round" stroke-linejoin="round" d="M36.593 18.844a2.122 3.042 0 1 0 4.244 0 2.122 3.042 0 1 0 -4.244 0" stroke-width="1"></path><path stroke="#000000" stroke-linecap="round" stroke-linejoin="round" d="M39.534 31.873H28.506" stroke-width="1"></path><path fill="#000000" fill-rule="evenodd" d="M30.144 19.094a1.25 1.25 0 1 0 0 2.5 1.25 1.25 0 0 0 0 -2.5Z" clip-rule="evenodd" stroke-width="1"></path><path fill="#000000" fill-rule="evenodd" d="M37.843 18.344a1.25 1.25 0 1 0 0 2.5 1.25 1.25 0 0 0 0 -2.5Z" clip-rule="evenodd" stroke-width="1"></path></svg>