<svg xmlns="http://www.w3.org/2000/svg" fill="none" viewBox="0 0 48 48" height="48" width="48" id="Brian-Hand-Drawn--Streamline-Memes.svg"><desc>Brian Hand Drawn Streamline Element: https://streamlinehq.com</desc><path fill="#000000" fill-rule="evenodd" d="M20.250528 16.454304C18.87288 10.331376 15.199295999999999 13.546032 16.577423999999997 17.06664C17.648687999999996 20.127888000000002 20.403983999999998 20.127888000000002 20.097599999999996 19.362576C19.944623999999997 19.056672 19.638672 19.515552 19.025856 19.209600000000002C15.658704 17.678976000000002 17.342256 9.872447999999999 19.944623999999997 16.60728C19.791648 16.913712 20.250528 16.760735999999998 20.250528 16.454304Z" clip-rule="evenodd" stroke-width="1"></path><path fill="#000000" fill-rule="evenodd" d="M23.924592 17.220095999999998C26.98584 16.1484 27.597696 18.137904 28.057104 17.831952C28.516464 17.525568 26.373504 14.770752 23.618208 16.760256C23.465232 16.913712 23.618208 17.219616000000002 23.924112 17.219616000000002Z" clip-rule="evenodd" stroke-width="1"></path><path fill="#000000" fill-rule="evenodd" d="M25.914576 16.301328C25.761167999999998 15.841968 24.383519999999997 16.301328 24.995856 17.373072C25.30224 17.985408 26.52648 17.678976000000002 26.373504 16.913712C26.220527999999998 16.60776 26.067552 16.454304 25.914576 16.301328Z" clip-rule="evenodd" stroke-width="1"></path><path fill="#000000" fill-rule="evenodd" d="M30.200496 24.413808H31.424735999999996C30.965808 25.178639999999998 30.506448 24.872735999999996 30.352991999999997 25.026144C30.200496 25.179119999999998 30.047088 25.332095999999996 29.741136 25.332095999999996C29.588160000000002 25.332095999999996 29.435232 25.179119999999998 29.281776 25.179119999999998C29.281776 25.179119999999998 28.975824 25.485072 28.669439999999998 25.485072C28.210512 25.485072 28.057104 25.179119999999998 27.904608 25.179119999999998C27.751152 25.179119999999998 27.751152 25.332095999999996 27.291792 25.332095999999996C26.98584 25.332095999999996 26.832864 25.026144 26.52696 24.872735999999996C26.373504 24.872735999999996 25.761167999999998 24.872735999999996 25.30224 24.107855999999998C25.148832 23.954448 25.148832 23.954448 24.536928 23.648495999999998C25.455216 26.250383999999997 30.506448 27.169103999999997 31.425216 24.566784C31.425216 24.107423999999998 31.577712000000002 24.260831999999997 30.200543999999997 24.413808Z" clip-rule="evenodd" stroke-width="1"></path><path fill="#000000" fill-rule="evenodd" d="M25.30224 20.739743999999998C24.077568 21.352128 23.005872 21.811488 22.69992 23.189135999999998C22.546944 24.413808 23.1588 25.485072 23.618208 26.403792C23.771183999999998 26.709743999999997 24.230544 26.556767999999998 24.077568 26.250383999999997C23.1588 23.648495999999998 23.1588 22.729776 25.608192 21.046176C25.761167999999998 20.8932 25.455216 20.586816 25.30224 20.739743999999998Z" clip-rule="evenodd" stroke-width="1"></path><path fill="#000000" fill-rule="evenodd" d="M31.424735999999996 21.658032C32.037071999999995 22.5768 32.496432 24.107423999999998 32.190048 25.332095999999996C32.037071999999995 25.637999999999998 32.496432 25.790976 32.649407999999994 25.485072C33.41472 24.107423999999998 33.261744 22.5768 31.884096 21.352079999999997C31.577712000000002 21.199152 31.27176 21.505056 31.424735999999996 21.658511999999998Z" clip-rule="evenodd" stroke-width="1"></path><path fill="#000000" fill-rule="evenodd" d="M31.577712000000002 24.413808C31.731119999999997 24.260831999999997 31.577712000000002 23.954928 31.425216 23.954928C29.894112 24.260831999999997 27.904128 23.954928 26.373504 23.648495999999998C24.689904 23.342592 24.689904 22.883664 24.383519999999997 23.189616C23.924592 23.648495999999998 25.149264 25.026144 25.608192 25.485504C27.138816 26.8632 29.435184 27.169103999999997 30.352991999999997 26.710223999999997C31.424735999999996 26.097888 31.035696 25.248528 31.489872 24.688128C31.578144 24.529007999999997 31.578144 24.567264 31.578144 24.414288ZM30.965808 24.567264C28.975824 24.873168 26.679888 24.72024 25.30224 24.413808C26.679888 26.403792 28.975824 26.710223999999997 29.741136 26.403792C30.659424 25.944912000000002 30.506448 25.026144 30.965808 24.567264Z" clip-rule="evenodd" stroke-width="1"></path><path fill="#000000" fill-rule="evenodd" d="M36.629376 12.014975999999999C34.792367999999996 14.464319999999999 34.180032 13.851503999999998 34.333008 14.310863999999999C34.486416 14.770271999999999 35.404703999999995 14.310863999999999 35.864064 14.004959999999999C36.628944 13.545551999999999 36.935328 12.933215999999998 37.088304 12.168384C37.241279999999996 12.014975999999999 36.782352 11.709024 36.629376 12.014975999999999Z" clip-rule="evenodd" stroke-width="1"></path><path fill="#000000" fill-rule="evenodd" d="M29.894112 12.933696C29.129279999999998 13.239647999999999 28.822416 13.239647999999999 28.975824 13.546032C28.975824 14.00544 30.047568 13.699008 30.353472 13.699008C31.577712000000002 13.393056 32.190048 12.168384 32.037071999999995 12.015407999999999C31.731119999999997 11.709024 31.578144 12.015407999999999 29.894112 12.933696Z" clip-rule="evenodd" stroke-width="1"></path><path fill="#000000" fill-rule="evenodd" d="M27.4452 12.168384C26.52648 12.474816 26.373504 12.475296 26.373504 12.627792C26.373504 12.7812 26.52648 12.780719999999999 26.679408 12.780719999999999C28.975824 12.934176 30.047088 11.556528 29.894112 11.250096C29.588160000000002 11.250096 29.588160000000002 11.403072 27.444719999999997 12.168864Z" clip-rule="evenodd" stroke-width="1"></path><path fill="#000000" fill-rule="evenodd" d="M26.52696 11.096687999999999C25.608192 11.402592 24.383519999999997 11.709024 23.311776000000002 11.402592C22.546944 11.249664000000001 22.546944 13.699008 20.097599999999996 16.14792C19.791648 16.300895999999998 20.097599999999996 16.60728 20.403983999999998 16.454304C21.475728 15.535584 22.393967999999997 14.464319999999999 23.005872 13.239168000000001C23.924592 11.709024 23.005872 12.627311999999998 24.689904 12.321359999999999C25.455216 12.167903999999998 26.067552 11.861999999999998 26.679888 11.555568000000001C26.98584 11.249664000000001 26.832864 10.943712 26.52648 11.096687999999999Z" clip-rule="evenodd" stroke-width="1"></path><path fill="#000000" fill-rule="evenodd" d="M17.95464 13.086672C17.801664 6.964175999999999 22.546944 3.137184 25.30224 2.8312319999999995C25.761167999999998 2.8312319999999995 25.914144 0.534864 30.353472 1.759536C37.70064 3.7495199999999995 40.30296 11.403072 37.088304 16.300895999999998C36.016608 17.831952 35.55768 17.984928 35.864112 18.137904C36.01704 18.291359999999997 36.170016000000004 18.137904 36.170016000000004 18.137904C39.38472 14.92368 39.843599999999995 11.096687999999999 38.16 7.270128C35.098319999999994 0.535296 26.832864 -0.842784 25.148832 2.06592C21.475728 2.524848 17.342304000000002 6.964175999999999 17.648687999999996 13.086672C17.648687999999996 13.393104 18.107616 13.393104 17.95464 13.086672Z" clip-rule="evenodd" stroke-width="1"></path><path fill="#000000" fill-rule="evenodd" d="M19.638672 19.516032C19.638672 20.89368 19.944623999999997 26.251295999999996 18.873359999999998 27.169583999999997C18.566975999999997 27.32256 18.873359999999998 27.78192 19.179312 27.476016C20.403983999999998 26.710223999999997 20.55696 23.801952 20.403983999999998 22.271328C20.403983999999998 21.35304 20.250528 20.281344 19.944623999999997 19.363056C20.097599999999996 19.21008 19.638672 19.21008 19.638672 19.516032Z" clip-rule="evenodd" stroke-width="1"></path><path fill="#000000" fill-rule="evenodd" d="M35.710656 14.311823999999998C36.629376 16.60776 35.404703999999995 18.444288 34.638912 20.587728C34.180032 21.964896 34.180032 23.648976 33.721152 25.026624C33.108768 26.404272 32.037071999999995 27.475535999999998 30.965808 28.547231999999997C29.894112 29.771904 28.822416 31.149552000000003 27.138816 31.149552000000003C25.608192 30.996143999999997 23.465232 28.394256 22.69992 27.169583999999997C22.546944 26.863632 22.087584 27.169583999999997 22.24056 27.32256C23.005872 28.853184 25.148832 31.60848 26.98584 31.761936C28.975824 31.914863999999998 30.200543999999997 30.537215999999997 31.424735999999996 29.159567999999997C32.496432 27.934896 33.721152 26.8632 34.333008 25.332576C34.945344 23.801952 34.792367999999996 22.271328 35.251728 20.89368C35.864112 18.597744 37.088304 16.60776 36.016608 14.158847999999999C36.016608 13.852464 35.55768 14.00544 35.710656 14.311823999999998Z" clip-rule="evenodd" stroke-width="1"></path><path fill="#000000" fill-rule="evenodd" d="M24.383519999999997 15.535584C25.455216 15.229632 27.751152 15.535584 28.669872 16.60728C28.822848 16.913232 29.281776 16.60728 28.975824 16.300895999999998C28.057536 14.770271999999999 25.914095999999997 14.157936 24.077568 15.076656C23.924592 15.229632 24.077568 15.688992 24.383519999999997 15.535584Z" clip-rule="evenodd" stroke-width="1"></path><path fill="#000000" fill-rule="evenodd" d="M31.27176 16.913232C31.884096 16.760256 33.87408 16.60728 34.486416 17.372592C34.639392 17.678544 35.098752 17.372592 34.945344 17.066159999999996C34.333487999999996 15.841968 32.649407999999994 15.382608 31.118783999999998 16.454304C30.81288 16.60728 31.118783999999998 16.913232 31.27176 16.913232Z" clip-rule="evenodd" stroke-width="1"></path><path fill="#000000" fill-rule="evenodd" d="M31.27176 18.137904C32.037071999999995 17.831952 33.261744 17.678976000000002 34.027056 18.444288C34.180032 18.597264 34.639392 18.291359999999997 34.333008 18.137904C33.568176 17.06664 32.190048 16.760256 30.965808 17.831952C30.812399999999997 17.831952 30.965808 18.291359999999997 31.27176 18.137904Z" clip-rule="evenodd" stroke-width="1"></path><path fill="#000000" fill-rule="evenodd" d="M32.649407999999994 17.525568C32.649407999999994 17.219136 32.037071999999995 17.219136 31.731119999999997 17.984928C31.577712000000002 18.443856 32.190048 18.903216 32.649407999999994 18.74976C33.41472 18.29088 33.261744 17.678064000000003 32.649407999999994 17.525568Z" clip-rule="evenodd" stroke-width="1"></path><path fill="#000000" fill-rule="evenodd" d="M30.200064 16.913712C29.281776 18.138384 29.588160000000002 19.363056 29.894112 20.740704C29.894112 21.046656 30.352991999999997 21.046656 30.352991999999997 20.740704V18.291359999999997C30.352991999999997 17.219616000000002 30.659424 17.06712 30.352991999999997 16.913664C30.352991999999997 16.760735999999998 30.200064 16.760735999999998 30.200064 16.913664Z" clip-rule="evenodd" stroke-width="1"></path><path fill="#000000" fill-rule="evenodd" d="M27.291792 22.424304C27.751152 22.883183999999996 28.363488 23.342592 29.281776 23.03664C29.741136 22.883183999999996 30.812399999999997 22.118352 30.353472 21.811968C30.047088 21.506016 29.894112 22.271328 29.1288 22.424304C28.363488 22.57728 27.904128 21.811968 27.598176 21.658992C27.138816 21.199632 26.679456 21.352559999999997 26.52648 21.658992C26.067552 21.199632 26.98584 20.43432 26.679456 20.281344C26.373504 19.975392 25.761167999999998 21.046176 25.761167999999998 21.658992C25.914144 22.423823999999996 26.98584 23.189616 27.291792 22.423823999999996Z" clip-rule="evenodd" stroke-width="1"></path><path fill="#000000" fill-rule="evenodd" d="M30.659424 21.046656C30.659424 21.352559999999997 30.659424 22.271328 30.353472 22.271328C30.047088 22.271328 29.894112 22.271328 29.741136 22.424304C29.588160000000002 22.730207999999998 29.894112 22.730207999999998 30.353472 22.883183999999996C31.27176 23.03664 31.884096 21.964896 31.118783999999998 20.89368C30.965808 20.587248 30.506448 20.740704 30.659424 21.046656Z" clip-rule="evenodd" stroke-width="1"></path><path fill="#000000" fill-rule="evenodd" d="M28.516464 28.240847999999996C28.975824 28.240847999999996 30.352991999999997 27.628511999999997 30.200496 27.32256C30.047088 27.016607999999998 29.894112 27.475535999999998 28.822848 27.475535999999998C26.832864 27.628463999999997 26.679408 26.557247999999998 26.373504 27.016128C26.067552 27.169583999999997 27.138816 28.393776 28.516944 28.240847999999996Z" clip-rule="evenodd" stroke-width="1"></path><path fill="#000000" fill-rule="evenodd" d="M20.097599999999996 24.566784C16.424016 24.719759999999997 17.036352 26.250816 16.117583999999997 27.32208C15.658704 27.934416 13.515744 28.699728 16.117583999999997 31.607999999999997C16.576992 32.06736 20.403983999999998 35.435039999999994 21.322271999999998 35.893919999999994C24.383519999999997 37.424544 25.608192 32.679696 27.138816 33.75096C27.291792 33.904416000000005 27.4452 33.75096 27.4452 33.75096C27.751152 33.445007999999994 26.832864 32.986128 26.220527999999998 33.13862399999999C25.30224 33.445007999999994 24.383999999999997 34.669247999999996 23.312255999999998 35.282064C22.546944 35.587968 21.934607999999997 35.435039999999994 21.322271999999998 34.975152C21.01584 34.822656 17.189328 31.455023999999998 16.72992 30.995663999999994C14.434032 28.546751999999998 16.27104 28.699728 16.883376 27.32256C17.189328 26.556767999999998 17.189328 25.791456 18.260544 25.332095999999996C19.332288 24.873168 20.250576 25.179119999999998 20.250576 24.719759999999997C20.250576 24.566784 20.250576 24.566784 20.097599999999996 24.566784Z" clip-rule="evenodd" stroke-width="1"></path><path fill="#000000" fill-rule="evenodd" d="M19.179312 25.1796C17.035871999999998 26.556767999999998 20.097599999999996 29.618495999999997 22.087584 31.14912C24.383519999999997 32.832671999999995 25.30224 32.373792 26.679888 32.985648C27.751631999999997 33.292511999999995 27.598176 33.75144 27.904128 33.59846399999999C28.210512 33.29208 27.291792 32.679744 26.832383999999998 32.526768C24.84288 31.60848 24.536496 32.832671999999995 20.251008 28.546751999999998C19.332288 27.628511999999997 18.413999999999998 26.404272 19.332288 25.638479999999998C19.791648 25.332576 19.485263999999997 25.026144 19.179312 25.1796Z" clip-rule="evenodd" stroke-width="1"></path><path fill="#000000" fill-rule="evenodd" d="M27.138816 36.200352C27.4452 33.597984 30.200064 32.220335999999996 31.118783999999998 30.536736C31.424735999999996 29.9244 31.883616 28.546751999999998 31.27176 28.546751999999998C30.812399999999997 28.546751999999998 31.27176 29.159088 30.506448 30.077376C29.588160000000002 31.455023999999998 26.373504 32.832671999999995 26.52648 36.04737599999999C26.679888 36.506736 27.138816 36.506256 27.138816 36.200352Z" clip-rule="evenodd" stroke-width="1"></path><path fill="#000000" fill-rule="evenodd" d="M32.19052799999999 27.934416C32.496432 28.699728 32.496432 29.9244 32.649407999999994 30.842688C32.802864 32.06736 33.261744 33.139103999999996 33.261744 34.21032H32.343455999999996C30.659903999999997 34.21032 30.047568 32.373792 28.822848 33.597984C28.516464 33.903936 28.210512 34.21032 28.516464 34.363296C28.669872 34.516272 28.975824 34.21032 29.1288 33.904416000000005C30.04752 33.13862399999999 30.353472 34.822656 32.19048 34.976112H33.568176C34.333008 34.976112 33.721104000000004 32.52672 33.568176 31.760976C32.802384 29.006111999999998 32.802384 27.475056 32.19048 27.628463999999997C32.19048 27.628463999999997 32.037071999999995 27.78144 32.19048 27.934416Z" clip-rule="evenodd" stroke-width="1"></path><path fill="#000000" fill-rule="evenodd" d="M24.383519999999997 35.282064C28.210512 38.190335999999995 28.516464 38.955648 29.281776 38.802671999999994C30.353472 38.649696 31.731119999999997 35.740944 32.190048 34.669728C32.343455999999996 34.363776 31.884096 34.21032 31.731119999999997 34.516752C30.965808 35.741423999999995 30.506448 36.506736 29.894112 37.272048C28.669439999999998 38.802671999999994 29.741136 38.03688 24.536448 34.822704C24.383519999999997 34.669728 24.230544 35.129087999999996 24.383519999999997 35.282064Z" clip-rule="evenodd" stroke-width="1"></path><path fill="#000000" fill-rule="evenodd" d="M27.291792 2.6782559999999997C27.138816 3.5965439999999997 28.669439999999998 3.137184 29.588160000000002 3.137184C29.894112 3.137184 29.741136 3.137184 29.588160000000002 3.2901599999999998C28.975824 4.3618559999999995 31.424735999999996 4.3618559999999995 31.884096 4.821216C31.577712000000002 5.127167999999999 31.486128 5.178624 31.424735999999996 5.586096C31.424735999999996 5.739504 31.577712000000002 5.739504 31.884096 5.739504C32.496432 5.739504 33.41472 6.35184 34.027056 7.117152C34.180032 7.4231039999999995 34.639392 7.117152 34.486416 6.8107679999999995C34.027056 6.045936 33.261744 5.433120000000001 32.496432 5.127167999999999C33.261264000000004 4.3618559999999995 32.190048 3.902496 31.118783999999998 3.5965439999999997C30.903984 3.5352 30.812399999999997 3.509664 30.812399999999997 3.443568C30.965808 3.137184 30.965808 2.8312319999999995 30.812399999999997 2.678304C30.200064 2.218896 29.281776 2.218896 28.516464 2.3718719999999998C28.057104 2.3718719999999998 28.975824 1.759536 25.608192 2.06592C25.30176 2.06592 25.30176 2.524848 25.608192 2.524848C27.751152 2.678304 26.832864 2.678304 27.291792 2.678304Z" clip-rule="evenodd" stroke-width="1"></path><path fill="#000000" fill-rule="evenodd" d="M19.485263999999997 17.06664C19.944623999999997 16.760256 19.332288 15.229632 18.720384 14.923248C18.107568 14.464319999999999 17.189328 15.229632 17.495231999999998 16.14792C17.495231999999998 16.454304 17.95464 16.300895999999998 17.95464 15.994944C17.95464 15.535584 18.260544 15.229632 18.260544 15.382608C18.566975999999997 15.688992 18.719952 16.14792 18.87288 16.60728C18.260544 17.372592 19.332288 18.29088 19.638192 17.831952C19.638192 17.525568 18.873359999999998 17.372592 19.485216 17.06664Z" clip-rule="evenodd" stroke-width="1"></path><path fill="#000000" fill-rule="evenodd" d="M15.352272 28.547231999999997C10.760448 31.455504 6.168095999999999 34.057824 5.09688 35.129087999999996C4.637472 35.588448 3.4128 36.81312 4.025136 37.272528C4.790448 37.884384 5.861712 33.904896 9.841679999999998 43.547952C11.372784 47.221536 11.066352 47.374992 11.52576 47.374992C11.678688 47.374992 11.678688 47.222015999999996 11.678688 47.06856C10.913856000000001 44.466719999999995 8.923392 38.343744 6.780431999999999 36.659712C5.55576 35.741423999999995 5.09688 36.353759999999994 5.708736 35.741423999999995C6.0156 35.435472 14.58696 29.771904 15.658704 29.006591999999998C15.81168 28.700207999999996 15.658704 28.394256 15.352272 28.547231999999997Z" clip-rule="evenodd" stroke-width="1"></path><path fill="#000000" fill-rule="evenodd" d="M7.852175999999999 35.588448C11.372784 38.649696 12.596976 47.06856 13.209791999999998 47.06856C13.515744 47.06856 13.515744 46.762656 12.903408 44.160288C12.138096 40.792656 10.913376 37.425024 8.15856 35.282064C8.005104 34.976112 7.699199999999999 35.282064 7.8516960000000005 35.588448Z" clip-rule="evenodd" stroke-width="1"></path><path fill="#000000" fill-rule="evenodd" d="M4.331568 36.813168000000005C2.0356319999999997 40.486272 1.423296 42.78264 0.504528 46.60968C0.35155200000000003 46.915583999999996 0.9638880000000001 46.915583999999996 0.9638880000000001 46.762656C2.9539199999999997 40.792656 5.249808 36.96609599999999 4.790448 36.81312C4.637472 36.659712 4.484544 36.659712 4.331568 36.81312Z" clip-rule="evenodd" stroke-width="1"></path><path fill="#000000" fill-rule="evenodd" d="M32.802384 29.465519999999998C41.5272 31.455504 48.568895999999995 36.506736 44.435903999999994 44.313744C44.282976000000005 44.619696 44.741856 44.772624 44.895312 44.46624C47.03827199999999 40.793136 46.885296 36.96609599999999 43.823567999999995 33.75144C40.915296 30.843168000000002 36.782352 29.618495999999997 32.95536 28.853184C32.649407999999994 29.00664 32.496432 29.312544 32.802384 29.465519999999998Z" clip-rule="evenodd" stroke-width="1"></path><path fill="#000000" fill-rule="evenodd" d="M44.435903999999994 40.027344C44.12952 43.241568 44.282976000000005 41.710944 44.435903999999994 45.231552C44.435903999999994 45.537935999999995 44.894832 45.537935999999995 44.894832 45.231552C45.201216 42.32328 45.201216 42.017328 44.894832 40.027344C44.894832 39.72096 44.435903999999994 39.72096 44.435903999999994 40.027344Z" clip-rule="evenodd" stroke-width="1"></path><path fill="#000000" fill-rule="evenodd" d="M45.507168 37.424544C46.425456 39.72096 47.037792 43.241088 46.73184 45.843408C46.73184 46.14984 47.191248 46.14984 47.191248 45.843408C47.803104 42.629232 47.650128 40.17984 45.966528 37.271568C45.813599999999994 36.812688 45.354192 37.118592 45.507168 37.424544Z" clip-rule="evenodd" stroke-width="1"></path><path fill="#000000" fill-rule="evenodd" d="M4.943904 40.17984C7.699199999999999 42.935136 7.852175999999999 42.935136 9.076848 44.006879999999995C10.913424 45.690432 10.760448 45.996384 11.066832 45.843408C11.219808 45.843408 11.219808 45.690432 11.066832 45.537504C9.076848 42.629232 7.699199999999999 41.710463999999995 5.250288 39.873888C4.943423999999999 39.72048 4.637472 40.026864 4.943423999999999 40.17984Z" clip-rule="evenodd" stroke-width="1"></path><path fill="#000000" fill-rule="evenodd" d="M22.852895999999998 36.04737599999999C29.894112 41.710944 30.200064 43.853904 34.180032 34.669728C34.333008 34.363776 33.87408 34.21032 33.720672 34.516752C33.108768 35.741423999999995 32.190048 37.425024 31.27176 38.955648C30.047088 40.792176 29.588160000000002 40.486272 27.904128 39.261551999999995C22.852415999999998 35.588448 23.005872 35.588448 22.852415999999998 35.8944C22.69992 35.8944 22.69992 36.04737599999999 22.852415999999998 36.04737599999999Z" clip-rule="evenodd" stroke-width="1"></path><path fill="#000000" fill-rule="evenodd" d="M11.678688 31.60848C14.434032 35.435039999999994 16.7304 42.017328 17.648687999999996 46.6092C17.648687999999996 46.915583999999996 18.108047999999997 46.762656 18.108047999999997 46.456224C16.883376 40.486704 15.81168 36.04737599999999 11.984639999999999 31.302528C11.832144 30.996143999999997 11.52576 31.302528 11.678735999999999 31.60848Z" clip-rule="evenodd" stroke-width="1"></path><path fill="#000000" fill-rule="evenodd" d="M19.332288 35.435039999999994C20.862911999999998 39.72096 21.934607999999997 41.557967999999995 22.852895999999998 44.006879999999995C23.1588 44.925599999999996 23.1588 45.384528 23.465232 45.231552C23.771183999999998 45.078576 23.618208 44.772192000000004 23.312255999999998 43.547952C22.24056 39.41500799999999 20.55696 37.119072 19.791648 35.282064C19.638192 34.976112 19.179312 35.129087999999996 19.332288 35.435039999999994Z" clip-rule="evenodd" stroke-width="1"></path><path fill="#000000" fill-rule="evenodd" d="M26.220527999999998 38.649696C26.832864 40.027344 27.751152 43.088592 28.210512 45.690912000000004C28.210512 45.997344 28.669439999999998 45.997344 28.669439999999998 45.690912000000004C28.516464 42.629664 28.363488 41.09904 26.679456 38.496719999999996C26.52648 38.190335999999995 26.067552 38.496719999999996 26.220527999999998 38.649696Z" clip-rule="evenodd" stroke-width="1"></path><path fill="#000000" fill-rule="evenodd" d="M32.037071999999995 38.49624C32.95584 44.465759999999996 32.649407999999994 41.404512 33.41472 45.078096C33.41472 45.384528 33.87408 45.384528 33.87408 45.078096C33.568176 41.404512 33.261744 40.486224 32.496432 38.49624C32.343455999999996 38.03688 31.884096 38.190335999999995 32.037071999999995 38.49624Z" clip-rule="evenodd" stroke-width="1"></path><path fill="#000000" fill-rule="evenodd" d="M33.108768 30.383808C35.404703999999995 35.435472 37.241279999999996 39.568464 38.006592000000005 44.772624C38.006592000000005 45.078576 38.465952 45.078576 38.465952 44.772624C37.701119999999996 37.119552 36.475968 36.047855999999996 33.567696 30.231312C33.41472 29.9244 32.95536 30.077855999999997 33.108768 30.383808Z" clip-rule="evenodd" stroke-width="1"></path><path fill="#000000" fill-rule="evenodd" d="M37.854096 31.14912C40.149983999999996 34.669728 41.834064000000005 40.63968 41.98656 44.925599999999996C41.98656 45.231552 42.44592 45.231552 42.44592 44.925599999999996C42.44592 39.721391999999994 41.527680000000004 35.282064 38.312976 30.843168000000002C38.007071999999994 30.690192 37.547664 30.843168000000002 37.854096 31.14912Z" clip-rule="evenodd" stroke-width="1"></path><path fill="#000000" fill-rule="evenodd" d="M43.058256 34.2108C43.211231999999995 34.670208 43.364208 35.435472 43.51718399999999 36.04737599999999C43.67064 36.96609599999999 44.12952 38.03736 44.282496 38.803152C44.282496 39.109055999999995 44.741856 39.109055999999995 44.741856 38.803152C44.58888 36.353759999999994 44.282496 35.588448 43.51718399999999 34.057824C43.364208 33.75144 42.905328 33.904896 43.058256 34.2108Z" clip-rule="evenodd" stroke-width="1"></path><path fill="#000000" fill-rule="evenodd" d="M13.362288 47.068079999999995C22.546944 44.313264 35.0988 42.935616 44.282496 45.231552C44.58888 45.231552 44.741856 44.92511999999999 44.435952 44.772192000000004C33.87408 41.86392 23.618208 43.394543999999996 13.362288 46.60872C12.903408 46.60872 13.056384 47.06856 13.362288 47.06856Z" clip-rule="evenodd" stroke-width="1"></path><path fill="#000000" fill-rule="evenodd" d="M12.138096 41.711423999999994C15.046368 40.792656 22.087584 38.956128 26.679408 38.956128C26.98632 38.956128 26.98632 38.496719999999996 26.679408 38.496719999999996C20.403983999999998 38.343744 17.036352 39.41500799999999 11.98512 41.252016C11.679168 41.404992 11.832144 41.864352 12.138096 41.711423999999994Z" clip-rule="evenodd" stroke-width="1"></path><path fill="#000000" fill-rule="evenodd" d="M32.037071999999995 38.649215999999996C33.567696 38.649215999999996 39.38472 38.802192 40.76188799999999 38.955168C44.58888 39.261551999999995 44.741856 39.414528000000004 44.741856 39.108624C44.741856 38.955168 44.741856 38.802192 44.58888 38.802192C38.465952 37.730495999999995 37.394688 37.730495999999995 32.190048 38.189856C31.578144 38.189856 31.731119999999997 38.649215999999996 32.037071999999995 38.649215999999996Z" clip-rule="evenodd" stroke-width="1"></path><path fill="#000000" fill-rule="evenodd" d="M33.721104000000004 33.904896C36.170016000000004 34.057824 41.221247999999996 34.516752 43.211231999999995 34.976592000000004C43.51718399999999 34.976592000000004 43.67064 34.669728 43.364208 34.516752C39.38424 33.292511999999995 37.547664 33.292511999999995 33.721104000000004 33.445007999999994C33.41472 33.445007999999994 33.567696 33.904896 33.721104000000004 33.904896Z" clip-rule="evenodd" stroke-width="1"></path><path fill="#000000" fill-rule="evenodd" d="M18.87288 33.75096C15.505728000000001 34.057392 12.903408 34.669728 9.38328 36.506256C9.076848 36.659232 9.230304 37.118592 9.536208 36.965616000000004C13.056816 35.435039999999994 19.179792 34.516272 19.026816 33.903936C19.179792 33.903936 19.026816 33.75096 18.873359999999998 33.75096Z" clip-rule="evenodd" stroke-width="1"></path></svg>