<svg xmlns="http://www.w3.org/2000/svg" fill="none" viewBox="0 0 48 48" height="48" width="48" id="Brian--Streamline-Memes.svg"><desc>Brian Streamline Element: https://streamlinehq.com</desc><path stroke="#000000" stroke-linecap="round" stroke-linejoin="round" d="M22.75 17.228c-1.32 0.461 -1.864 1.447 -1.886 1.97" stroke-width="1"></path><path stroke="#000000" stroke-linecap="round" stroke-linejoin="round" d="M29.017 18.59c0.629 0.44 0.818 0.818 0.818 1.237" stroke-width="1"></path><path stroke="#000000" stroke-linecap="round" stroke-linejoin="round" d="M32.23 14.074c-0.529 1.743 -0.84 3.921 -0.965 4.855 -0.124 0.933 -0.871 2.676 -1.867 3.454s-2.023 2.116 -2.925 3.05c-0.902 0.933 -2.8 0.56 -3.765 -0.311 -0.965 -0.872 -2.148 -2.614 -2.552 -3.019" stroke-width="1"></path><path stroke="#000000" stroke-linecap="round" stroke-linejoin="round" d="M17.355 10.558c-1.12 0.124 -1.183 1.338 -1.027 2.303 0.156 0.964 0.934 2.987 1.556 3.547 0.498 0.448 0.85 0.187 0.965 0 -0.063 0.923 -0.206 2.975 -0.28 3.797 -0.075 0.821 -0.488 1.981 -0.685 2.458" stroke-width="1"></path><path stroke="#000000" stroke-linecap="round" stroke-linejoin="round" d="M18.102 12.02c0.104 0.519 0.436 1.63 0.933 1.93 0.374 -1.276 1.183 -3.455 2.677 -3.704 1.493 -0.249 6.41 1.245 9.087 0.934 0.547 0.871 0.975 1.483 1.12 1.68" stroke-width="1"></path><path stroke="#000000" stroke-linecap="round" stroke-linejoin="round" d="M17.386 10.589c-0.311 -3.423 0.747 -8.154 5.135 -9.056 3.859 -2.147 10.238 -0.28 11.7 4.917 1.17 4.157 -0.86 7.79 -2.022 9.087" stroke-width="1"></path><path stroke="#000000" stroke-linecap="round" stroke-linejoin="round" d="M31.612 18.208c1.07 0 1.53 -1.32 1.836 -1.874 0.306 -0.555 1.377 -1.893 0.287 -2.811" stroke-width="1"></path><path stroke="#000000" stroke-linecap="round" stroke-linejoin="round" d="M30.687 11.172c1.318 -0.22 1.73 -1.428 1.565 -2.663 -0.163 -1.222 -1.07 -2.663 -2.032 -4.118 -0.672 -1.018 -2.91 -2.499 -4.228 -2.471" stroke-width="1"></path><path stroke="#000000" stroke-linecap="round" stroke-linejoin="round" d="M22.204 13.614a2.341 2.341 0 0 1 1.688 -0.093c0.575 0.188 0.813 0.308 1.118 0.454" stroke-width="1"></path><path stroke="#000000" stroke-linecap="round" stroke-linejoin="round" d="M27.914 14.845c0.644 -0.195 1.116 -0.372 1.634 -0.319 0.415 0.043 0.89 0.23 1.077 0.32" stroke-width="1"></path><path stroke="#000000" stroke-linecap="round" stroke-linejoin="round" d="M23.462 13.769v0.412" stroke-width="1"></path><path stroke="#000000" stroke-linecap="round" stroke-linejoin="round" d="M29.482 14.64v0.411" stroke-width="1"></path><path stroke="#000000" stroke-linecap="round" stroke-linejoin="round" d="M27.17 15.987c-0.056 0.936 0.393 1.478 0.356 2.115 -0.038 0.636 -0.505 1.01 -1.217 0.805" stroke-width="1"></path><path stroke="#000000" stroke-linecap="round" stroke-linejoin="round" d="M24.325 17.693c-0.13 0.636 0.131 0.936 0.43 1.03" stroke-width="1"></path><path stroke="#000000" stroke-linecap="round" stroke-linejoin="round" d="M22.379 19.187c1.74 1.16 4.492 1.685 6.12 0.955 -0.524 0.917 -0.674 2.751 -2.395 2.995 -1.888 0.266 -2.92 -1.18 -3.538 -2.565" stroke-width="1"></path><path stroke="#000000" stroke-linecap="round" stroke-linejoin="round" d="M24.453 21.454c1.21 0.57 2.54 0.518 3.284 0.12" stroke-width="1"></path><path stroke="#000000" stroke-linecap="round" stroke-linejoin="round" d="m26.845 20.599 -0.19 1.158" stroke-width="1"></path><path stroke="#000000" stroke-linecap="round" stroke-linejoin="round" d="m25.319 20.51 -0.17 0.944" stroke-width="1"></path><path stroke="#000000" stroke-linecap="round" stroke-linejoin="round" d="M18.464 20.569c-1.762 -0.147 -2.29 0.616 -2.496 1.35 -0.206 0.735 -0.94 1.645 -1.439 1.762 0.617 2.232 3.612 5.05 5.814 6.313 2.279 -0.493 3.651 -1.458 4.052 -1.879" stroke-width="1"></path><path stroke="#000000" stroke-linecap="round" stroke-linejoin="round" d="M29.152 22.712c0.852 0.999 0.176 2.173 0.382 2.966 0.205 0.793 1.057 1.791 0.822 3.171 -1.674 0.411 -3.26 -0.763 -4.11 -1.262" stroke-width="1"></path><path stroke="#000000" stroke-linecap="round" stroke-linejoin="round" d="M17.201 22.066c0.705 1.762 5.08 4.963 7.81 5.932" stroke-width="1"></path><path stroke="#000000" stroke-linecap="round" stroke-linejoin="round" d="M28.242 25.443c-0.87 1.104 -2.516 2.163 -3.23 2.555 -0.313 0.45 -0.846 1.615 -0.47 2.672" stroke-width="1"></path><path stroke="#000000" stroke-linecap="round" stroke-linejoin="round" d="M21.641 29.679a184.405 184.405 0 0 0 5.42 3.107c0.638 -0.82 2.014 -2.695 2.411 -3.63" stroke-width="1"></path><path stroke="#000000" stroke-linecap="round" stroke-linejoin="round" d="M14.692 24.03c-2.628 1.862 -7.666 4.435 -9.418 7.118 -1.402 2.146 -1.752 3.997 -1.752 4.654" stroke-width="1"></path><path stroke="#000000" stroke-linecap="round" stroke-linejoin="round" d="M12.94 47.3c-0.822 -8.322 -3.505 -15.385 -6.626 -17.028" stroke-width="1"></path><path stroke="#000000" stroke-linecap="round" stroke-linejoin="round" d="M29.64 24.523c2.044 0.62 6.658 2.146 8.76 3.285 2.629 1.424 3.505 6.461 4.107 9.691 0.482 2.585 1.515 7.611 1.971 9.801" stroke-width="1"></path><path stroke="#000000" stroke-linecap="round" stroke-linejoin="round" d="M40.536 30.6c0.482 3.592 -0.602 12.557 -1.205 16.591" stroke-width="1"></path><path stroke="#000000" stroke-linecap="round" stroke-linejoin="round" d="M9.828 27.383c4.24 4.52 5.96 15.559 6.28 18.519" stroke-width="1"></path><path stroke="#000000" stroke-linecap="round" stroke-linejoin="round" d="M14.388 26.863c3.72 5.56 5.76 16.28 6.12 20.319" stroke-width="1"></path><path stroke="#000000" stroke-linecap="round" stroke-linejoin="round" d="M22.547 33.182c1.152 3.744 2 10.92 2.28 14.04" stroke-width="1"></path><path stroke="#000000" stroke-linecap="round" stroke-linejoin="round" d="M27.587 34.702c0.832 2.624 1.174 9.333 1.24 12.36" stroke-width="1"></path><path stroke="#000000" stroke-linecap="round" stroke-linejoin="round" d="M30.947 30.502c1.696 4.064 2.12 12.92 2.12 16.84" stroke-width="1"></path><path stroke="#000000" stroke-linecap="round" stroke-linejoin="round" d="M34.027 26.183c3.24 6.24 2.48 17.679 2.68 20.919" stroke-width="1"></path><path stroke="#000000" stroke-linecap="round" stroke-linejoin="round" d="M10.078 31.714c2.077 -1.038 5.626 -1.622 7.14 -1.784" stroke-width="1"></path><path stroke="#000000" stroke-linecap="round" stroke-linejoin="round" d="M10.62 35.987c4.024 -1.125 11.268 -1.767 14.387 -1.947" stroke-width="1"></path><path stroke="#000000" stroke-linecap="round" stroke-linejoin="round" d="M12.296 41.288c5.247 -0.92 18.498 -2.704 27.748 -1.677" stroke-width="1"></path><path stroke="#000000" stroke-linecap="round" stroke-linejoin="round" d="M14.46 45.237c6.815 -0.758 18.282 -2.489 25.097 -0.974" stroke-width="1"></path><path stroke="#000000" stroke-linecap="round" stroke-linejoin="round" d="M32.44 27.908c2.032 0.046 5.774 1 7.391 1.472" stroke-width="1"></path><path stroke="#000000" stroke-linecap="round" stroke-linejoin="round" d="M30.044 33.191c3.81 -0.161 8.594 0.8 10.509 1.3" stroke-width="1"></path></svg>