<svg xmlns="http://www.w3.org/2000/svg" fill="none" viewBox="0 0 48 48" height="48" width="48" id="Cat-Getting-Pointed-At-Hand-Drawn--Streamline-Memes.svg"><desc>Cat Getting Pointed At Hand Drawn Streamline Element: https://streamlinehq.com</desc><path fill="#000000" fill-rule="evenodd" d="M26.670144 15.4296C21.495744 12.385871999999999 21.800064 12.538079999999999 21.495696 12.69024C20.88696 12.994608 21.95232 16.79928 24.082944 19.23432C22.713264 21.517152 22.865423999999997 23.799984 23.474208 26.234976C22.561056 27.909072 23.474208 29.735376 23.930736 29.431008C24.235152 29.126592 23.017632 28.06128 24.082944 26.387184C24.235104 25.930656 22.865423999999997 22.886879999999998 24.996048 19.23432C25.300416000000002 18.777791999999998 24.387311999999998 18.625632 23.169839999999997 15.886176C22.865472 15.125279999999998 22.561056 14.212128 22.256687999999997 13.451184L26.411568 15.697008C26.670144 15.886176 26.822304 15.581807999999999 26.670144 15.4296Z" clip-rule="evenodd" stroke-width="1"></path><path fill="#000000" fill-rule="evenodd" d="M23.017584 14.820624C23.778528 16.038096 24.082895999999998 16.34256 25.756943999999997 17.407871999999998C26.061359999999997 17.560032 26.21352 17.255664 26.061312 17.103455999999998C25.604784 16.64688 25.148208 16.038144 24.539472 15.429359999999999C24.082895999999998 15.124991999999999 23.62632 14.820624 23.321952 14.516256C23.169792 14.211888 22.713216 14.516256 23.017584 14.820624Z" clip-rule="evenodd" stroke-width="1"></path><path fill="#000000" fill-rule="evenodd" d="M26.517984000000002 16.495104C28.800815999999998 14.973263999999999 33.823055999999994 14.668895999999998 37.018992 16.647312C37.32336 16.799471999999998 36.562416 16.799471999999998 43.86744 14.060111999999998C42.49776 20.147664 40.367136 20.299823999999997 40.823712 20.908559999999998C41.280288 21.365136 43.563072 18.473616 44.78064 13.603584C44.78064 13.299168 44.628432 13.14696 44.324064 13.14696C42.041184 14.060111999999998 39.758399999999995 14.668895999999998 37.32336 15.886368000000001C32.301168 12.84264 25.75704 15.73416 26.365776 16.495104H26.517984000000002Z" clip-rule="evenodd" stroke-width="1"></path><path fill="#000000" fill-rule="evenodd" d="M38.99736 17.712432C41.432352 15.886176 43.258608 15.125231999999999 43.1064 14.668655999999999C43.1064 14.516495999999998 42.95424 14.516495999999998 42.802032 14.516495999999998C36.714528 17.71248 37.77984 17.103744000000003 38.997312 18.777791999999998C39.758304 19.843103999999997 39.758304 20.147472 40.062672 19.995264C40.519248 19.995264 39.301728000000004 18.169007999999998 38.997312 17.712432Z" clip-rule="evenodd" stroke-width="1"></path><path fill="#000000" fill-rule="evenodd" d="M40.823712 20.7564C40.975871999999995 21.821711999999998 40.975871999999995 22.88712 40.975871999999995 23.648064C40.823712 24.713375999999997 40.671504 25.017695999999997 40.671504 25.62648C40.823712 26.539583999999998 41.432448 27.452735999999998 41.280288 28.213727999999996C41.280288 28.518096 41.584655999999995 28.670256 41.736816 28.36584C42.041184 27.604895999999997 41.736816 26.843951999999998 41.584655999999995 26.235215999999998C41.28024 24.713328 42.49776 24.409008 41.280288 20.60424C41.12808 20.299872 40.671504 20.452032 40.823712 20.7564Z" clip-rule="evenodd" stroke-width="1"></path><path fill="#000000" fill-rule="evenodd" d="M25.148304 20.908272C25.604832000000002 21.517008 25.604832000000002 21.517008 26.670144 21.821375999999997C26.97456 21.973584 27.12672 21.517008 26.974511999999997 21.364848C26.365776 20.756111999999998 26.365776 20.603903999999996 25.452672 20.451696C25.148304 20.451696 24.996096 20.756064 25.148304 20.908272Z" clip-rule="evenodd" stroke-width="1"></path><path fill="#000000" fill-rule="evenodd" d="M31.083552 21.97392C33.062016 21.669552 31.996704 21.97392 34.127376 21.212975999999998C34.431743999999995 21.212975999999998 34.279536 20.7564 34.127376 20.7564C32.45328 20.7564 32.148863999999996 20.908559999999998 31.083552 21.517295999999998C30.627024 21.669503999999996 30.779184 21.97392 31.083552 21.97392Z" clip-rule="evenodd" stroke-width="1"></path><path fill="#000000" fill-rule="evenodd" d="M26.365776 23.648064C27.12672 24.561168 26.97456 25.169904 28.03992 24.56112C28.344288 24.408959999999997 28.648656 24.104592 28.953024 23.952384C29.105231999999997 23.952384 29.105184 23.800223999999996 29.105184 23.648064C28.953024 23.343695999999998 28.344288 23.648016 27.735504 23.952384C27.431088 23.648016 27.12672 23.495856 26.822352 23.343647999999998C26.517984000000002 23.039279999999998 26.213616 23.343695999999998 26.365776 23.648064Z" clip-rule="evenodd" stroke-width="1"></path><path fill="#000000" fill-rule="evenodd" d="M26.670144 26.691743999999996C27.431088 25.626431999999998 28.952976 26.691696 30.322656 27.757008C30.627024 27.909215999999997 30.779232 27.604848 30.627024 27.452688C30.018288 26.843951999999998 29.257392 25.930799999999998 28.192079999999997 25.626431999999998C27.431136 25.322064 26.670144 25.626431999999998 26.213568 26.539536C26.061408 26.691743999999996 26.517936 26.996112 26.670144 26.691743999999996Z" clip-rule="evenodd" stroke-width="1"></path><path fill="#000000" fill-rule="evenodd" d="M27.126672 24.25656C26.822304 25.017504 26.822304 25.017552 27.126672 25.930656C27.126672 26.235024 27.583296 26.235024 27.583296 25.930656C27.735456 25.017552 27.887663999999997 25.017504 27.583296 24.25656C27.583296 23.952191999999997 27.126672 23.952191999999997 27.126672 24.25656Z" clip-rule="evenodd" stroke-width="1"></path><path fill="#000000" fill-rule="evenodd" d="M31.996704 25.473936C32.148911999999996 25.473936 36.562368 24.560784 36.866735999999996 24.560784C37.171104 24.560784 37.171104 24.104256 36.866735999999996 24.104256C34.736112 23.952048 33.518592 24.256464 31.844495999999996 25.01736C31.540128 25.169567999999998 31.692335999999997 25.626096 31.996704 25.473936Z" clip-rule="evenodd" stroke-width="1"></path><path fill="#000000" fill-rule="evenodd" d="M33.366384 26.691504C34.127328 26.995872 33.97512 26.995872 35.040432 26.995872C35.344848 26.995872 35.497008 26.691504 35.19264 26.539344C34.279488 26.082768 34.127328 26.08272 33.366384 26.234928C33.06196799999999 26.234928 33.06196799999999 26.691504 33.366384 26.691504Z" clip-rule="evenodd" stroke-width="1"></path><path fill="#000000" fill-rule="evenodd" d="M25.452672 24.256464C24.2352 23.49552 24.082991999999997 23.49552 22.713312 23.343312C22.408943999999998 23.191152 22.256736 23.647679999999998 22.561103999999997 23.799888C24.235152 24.712992 24.235152 24.560831999999998 25.300463999999998 24.712992C25.452672 24.8652 25.75704 24.408624 25.452672 24.256464Z" clip-rule="evenodd" stroke-width="1"></path><path fill="#000000" fill-rule="evenodd" d="M24.843984 25.017744C23.93088 24.865584 24.083087999999996 24.865584 22.865568 25.169952C22.5612 25.169952 22.5612 25.62648 22.865568 25.62648C23.93088 25.778688 23.93088 25.778688 24.843984 25.47432C25.148352 25.47432 25.148352 25.017744 24.843984 25.017744Z" clip-rule="evenodd" stroke-width="1"></path><path fill="#000000" fill-rule="evenodd" d="M25.604832000000002 28.517712C27.735504 30.191760000000002 30.627072 29.887392 33.062064 28.82208C33.366479999999996 28.669919999999998 33.214223999999994 28.365503999999998 32.909856 28.365503999999998C30.93144 28.974239999999998 27.583296 29.126496 25.75704 28.061183999999997C25.604832000000002 28.061183999999997 25.300463999999998 28.365503999999998 25.604832000000002 28.517712Z" clip-rule="evenodd" stroke-width="1"></path><path fill="#000000" fill-rule="evenodd" d="M12.364464 29.58336C38.845296 30.192096 33.975264 29.887728 42.954336 29.735568C47.36784 29.735568 47.519999999999996 29.887728 47.519999999999996 29.58336C47.519999999999996 29.278992 47.519999999999996 29.278944 42.954336 29.278944H12.364464C12.060096 29.126783999999997 12.060096 29.58336 12.364464 29.58336Z" clip-rule="evenodd" stroke-width="1"></path><path fill="#000000" fill-rule="evenodd" d="M46.150272 34.605551999999996C44.476175999999995 31.105199999999996 39.758351999999995 31.866144 30.170448 31.257408C24.996048 30.95304 19.66944 30.496415999999996 15.712559999999998 34.605551999999996C14.038511999999999 36.279599999999995 14.038511999999999 38.258016 16.473504 39.171168C18.29976 39.932112000000004 20.278223999999998 39.779951999999994 22.25664 39.779951999999994C40.823664 40.08432 40.519296 40.23647999999999 42.193343999999996 39.779951999999994C45.693695999999996 38.866752 46.606848 35.214288 45.845904 35.214288C45.38928 35.214288 45.845904 35.518656 45.38928 36.431808000000004C44.780544 37.649280000000005 43.715232 38.714591999999996 42.041184 39.171168C39.910512 39.779951999999994 19.060704 38.8668 18.908544 38.8668C11.299104 38.105856 17.538863999999997 32.018304 24.843888 31.713936C25.300416000000002 31.713936 39.149567999999995 32.170463999999996 39.301728000000004 32.170463999999996C41.888976 32.322672 44.476175999999995 32.47488 45.693695999999996 34.757712C45.845856000000005 35.062127999999994 46.302431999999996 34.90992 46.150272 34.605551999999996Z" clip-rule="evenodd" stroke-width="1"></path><path fill="#000000" fill-rule="evenodd" d="M21.191375999999998 35.670432C20.887008 35.213856 20.887008 34.909487999999996 20.887008 34.300752C20.7348 33.692015999999995 20.582592 33.235392 21.039168 33.235392C21.343535999999997 33.235392 21.647951999999997 33.235392 22.104528 33.387552C23.01768 33.387552 23.169839999999997 32.778816 25.300463999999998 34.60511999999999C25.604832000000002 34.75728 25.75704 34.45296 25.604832000000002 34.300752C23.474208 32.17008 23.01768 32.778816 22.256736 32.626656C21.800112 32.626656 21.495744 32.474448 20.887008 32.474448C19.821696 32.778816 19.973856 33.69192 20.278223999999998 34.60511999999999C20.430432 35.061648 20.430432 35.518224000000004 20.887008 35.974752C21.039168 36.12696 21.343535999999997 35.82259199999999 21.191375999999998 35.670432Z" clip-rule="evenodd" stroke-width="1"></path><path fill="#000000" fill-rule="evenodd" d="M27.88776 38.866464C28.192128 38.866464 28.344336 38.562096 28.039968000000002 38.409888C26.822400000000002 37.953312 26.822400000000002 36.279312 24.996192 36.583679999999994C24.539616 36.279312 23.778671999999997 34.757424 23.017727999999998 35.822736L22.865568 35.670528C21.952464 34.909584 21.648048 35.213952 21.039264 35.974895999999994C20.43048 35.670528 20.43048 35.36616 19.517376 35.518368C18.604271999999998 35.670528 17.386751999999998 33.692112 16.32144 35.518368C15.408287999999999 36.888048 17.082383999999998 38.10552 18.604271999999998 38.562096C19.821792 38.866512 21.191471999999997 38.866512 22.408992 38.866512C22.713359999999998 38.866512 27.735599999999998 39.475296 27.88776 38.866512ZM21.952416 35.974895999999994C21.191424 37.040208 21.343632 37.040208 20.12616 36.431472C19.669583999999997 36.279312 19.365216 36.583679999999994 18.756431999999997 36.279264C18.299903999999998 36.127103999999996 17.691119999999998 35.670528 17.386751999999998 35.518368C17.082383999999998 35.518368 16.778016 35.822688 16.778016 36.127103999999996C16.778016 36.431472 17.386751999999998 36.888048 17.691119999999998 37.040208C18.452064 37.496784 19.213008 37.648944 20.12616 37.801151999999995C26.670288 38.562096 25.757136 38.409888 27.431232 38.409888C26.670288 37.953312 26.365872 36.888 25.45272 36.888C25.300559999999997 36.888 24.996143999999997 37.040208 24.843984 36.888C24.387407999999997 36.735839999999996 24.08304 36.127056 23.626511999999998 35.974895999999994C23.017727999999998 37.040208 22.256784 35.974895999999994 21.952416 35.974895999999994Z" clip-rule="evenodd" stroke-width="1"></path><path fill="#000000" fill-rule="evenodd" d="M37.932047999999995 34.300896C37.323263999999995 33.54 36.105792 33.539952 35.19264 34.605264C35.04048 34.757472 35.344848 35.214048 35.497056 34.909679999999994C35.953584 34.605264 36.56231999999999 34.300896 37.018896 34.605264C37.323263999999995 34.909631999999995 37.323263999999995 35.214 37.77984 35.214C38.388576 35.214 38.99736 34.300896 39.301776 34.605264C39.453936 34.757472 39.453984 34.757472 39.606144 34.909679999999994C40.21488 35.36620799999999 41.127984 33.844368 41.58456 34.909679999999994C41.736768 35.214048 42.041136 35.061840000000004 42.041136 34.757472C41.736768 33.539952 40.823616 33.996528 40.062672 34.14873599999999C39.910512 33.996528 39.758351999999995 33.844319999999996 39.606144 33.692112C38.997408 33.539952 38.236464 34.14873599999999 37.932047999999995 34.300896Z" clip-rule="evenodd" stroke-width="1"></path><path fill="#000000" fill-rule="evenodd" d="M33.518592 35.061744C33.82296 36.127056 34.583904000000004 35.213904 35.04048 35.518271999999996C35.344848 35.67048 35.19264 36.127056 35.19264 36.583632C35.19264 37.04016 35.801376 37.04016 36.105743999999994 37.192367999999995C36.41016 37.344528000000004 36.257952 37.64889599999999 36.56231999999999 37.953312C36.866687999999996 38.409839999999996 37.77984 37.953312 37.932 38.866416C37.932 39.170832000000004 38.388576 39.170832000000004 38.388576 38.866416C38.388576 38.25768 38.084208 37.953264 37.627632 37.64889599999999C37.475471999999996 37.64889599999999 37.260288 37.64889599999999 37.171056 37.496688C37.171056 37.344528000000004 37.018896 37.04016 37.018896 36.887952C36.71448 36.43142399999999 36.56231999999999 36.583584 36.105743999999994 36.279216C36.105743999999994 35.974847999999994 36.257952 35.67048 35.953584 35.213904C35.801376 34.757328 35.19264 34.605168 34.88827199999999 34.605168C34.583904000000004 34.605168 34.431695999999995 34.757328 34.279536 34.757328C33.82296 33.844224 32.148863999999996 34.757375999999994 32.301024 35.061744C32.453232 35.67048 32.909856 34.909535999999996 33.518592 35.061744Z" clip-rule="evenodd" stroke-width="1"></path><path fill="#000000" fill-rule="evenodd" d="M27.583247999999998 34.453295999999995C27.278831999999998 33.84456 26.517888 33.6924 25.909152 33.996767999999996C25.300368 34.301136 25.300368 34.605504 25.148208 34.605504C24.691632 34.453295999999995 23.930688 34.757712 23.474112 35.670815999999995C23.321952 35.975184 23.778528 36.127392 23.930688 35.823024C24.235056 35.214288 24.691632 35.06208 24.996 35.06208C25.148208 35.06208 25.300368 35.214288 25.452576 35.06208C25.909152 34.757712 26.061312 34.301136 26.670095999999997 34.453295999999995C27.126672 34.605504 26.974511999999997 35.062032 27.43104 35.21424C27.887616 35.518608 28.496352 34.453295999999995 29.105088 34.453295999999995C29.257296 34.453295999999995 29.105088 35.21424 29.561663999999997 35.21424H30.170399999999997C30.322608 35.822976000000004 30.322608 35.975184 31.23576 35.975184C31.996655999999998 35.975184 31.23576 36.43176 31.996655999999998 36.888287999999996C32.301024 37.040496 32.605391999999995 37.040496 32.605391999999995 37.497071999999996C32.453232 38.41017599999999 33.214223999999994 38.105808 33.518592 38.562384C30.322608 38.714544 28.191983999999998 37.953647999999994 28.191983999999998 38.562384C28.191983999999998 38.714544 28.344144 38.714591999999996 28.344144 38.714591999999996C31.844448 38.714591999999996 35.344848 40.08432 34.127328 38.105856C33.975168 37.80144 33.670752 37.649232 33.366384 37.497071999999996C33.366384 36.888287999999996 33.062016 36.279552 32.453232 36.127392C32.453232 35.975184 32.453232 35.823024 32.301024 35.670815999999995C31.996655999999998 35.06208 31.235711999999996 35.21424 31.083552 35.21424C30.779184 33.996767999999996 30.01824 34.605504 29.866032 34.453295999999995C29.409456 33.387935999999996 28.191983999999998 33.692352 27.583247999999998 34.453295999999995Z" clip-rule="evenodd" stroke-width="1"></path><path fill="#000000" fill-rule="evenodd" d="M37.77984 38.714064C34.279536 38.714064 34.431743999999995 38.714016 34.431743999999995 39.01848C34.431743999999995 39.322848 34.583904000000004 39.322848 36.562368 39.475055999999995C38.997408 39.627216000000004 40.06272 39.779424 41.888976 39.322848C43.563024 38.866272 43.715184 37.648751999999995 42.802080000000004 37.192175999999996C41.127984 36.279072 37.932047999999995 37.040016 37.77984 38.71411199999999ZM38.236416 38.714064C39.453936 38.714064 41.58456 38.714064 42.497712 37.95312C42.345504 37.192175999999996 38.540784 37.344384 38.236416 38.714064Z" clip-rule="evenodd" stroke-width="1"></path><path fill="#000000" fill-rule="evenodd" d="M37.627776 35.974752C37.32340799999999 35.822544 37.019040000000004 35.366015999999995 36.866831999999995 35.670432V35.974752C37.1712 36.27912 37.1712 36.735696000000004 37.627776 36.735696000000004C38.084351999999996 36.735696000000004 38.693088 36.12696 39.45408 36.431328C40.214976 36.735696000000004 39.910607999999996 37.34448 40.214976 37.192272C40.671552 37.192272 40.367183999999995 36.12696 39.758448 35.82259199999999C38.99745599999999 35.366063999999994 37.932144 35.670384 37.627776 35.974752Z" clip-rule="evenodd" stroke-width="1"></path><path fill="#000000" fill-rule="evenodd" d="M41.12808 35.822496C41.584655999999995 35.36592 42.041184 35.51808 42.49776 35.213712C43.106496 35.061504 43.563072 34.604976 44.019648 34.604976C44.171808 34.604976 44.324016 34.757183999999995 44.476223999999995 34.909344C44.9328 35.061552 45.389376 34.909344 45.237168 35.213712C44.932751999999994 36.126816 43.563072 36.88776 42.802127999999996 37.192175999999996C42.49776 37.344336 42.649968 37.648703999999995 42.954336 37.648703999999995C43.410912 37.496496 43.86744 37.344336 44.476223999999995 37.039968C45.54158399999999 36.431231999999994 46.606848 35.365871999999996 45.845904 34.452768C45.541536 34.148399999999995 45.085007999999995 34.300608 44.9328 34.148399999999995C44.628384000000004 33.99624 44.628384000000004 33.844032 44.171856 33.844032C43.410912 33.844032 42.954336 34.300560000000004 42.193392 34.604976C41.584655999999995 34.909344 41.12808 34.909344 40.671504 35.51808C40.671504 35.822448 40.97592 36.126864000000005 41.12808 35.822496Z" clip-rule="evenodd" stroke-width="1"></path><path fill="#000000" fill-rule="evenodd" d="M2.32008 26.539583999999998C3.385392 26.843951999999998 4.298496 27.452688 3.5375520000000003 28.213631999999997C3.080976 28.974624 1.8635039999999998 29.58336 1.10256 30.039888C0.798192 30.192096 0.950352 30.648671999999998 1.2547199999999998 30.496512C5.516016 28.974624 5.516016 26.539536 2.32008 26.08296C2.167872 26.08296 2.015664 26.539583999999998 2.32008 26.539583999999998Z" clip-rule="evenodd" stroke-width="1"></path><path fill="#000000" fill-rule="evenodd" d="M4.602816 26.539583999999998C6.58128 27.757056 5.059392 28.822416 4.754976 29.431152C3.994032 30.496464 5.059392 34.453392 5.059392 36.584016C5.059392 38.258064 2.167776 39.171216 0.6458879999999999 39.627792C0.34152 39.627792 0.49372799999999994 40.084368 0.798096 40.084368C7.646592 38.71464 5.820336 36.431808000000004 5.36376 31.409567999999997C5.2116 30.039888 5.36376 30.039935999999997 5.515968 29.58336C5.820336 29.126783999999997 6.276912 28.670256 6.276912 28.061424C6.276912 27.14832 5.668128 26.539536 4.754976 26.235167999999998C4.602816 26.083007999999996 4.298448 26.387376 4.602816 26.539583999999998Z" clip-rule="evenodd" stroke-width="1"></path><path fill="#000000" fill-rule="evenodd" d="M3.6896639999999996 13.450848C3.385296 13.146431999999999 2.9287680000000003 12.385536 2.3199840000000003 12.689904C2.015616 12.842064 1.863408 13.146431999999999 1.55904 13.146431999999999C1.102464 13.146431999999999 0.798096 12.842064 0.6458879999999999 13.146431999999999C0.6458879999999999 13.29864 0.645936 13.450848 0.798096 13.450848C1.40688 13.755215999999999 1.711248 13.907376 2.3199840000000003 13.450848C2.6243519999999996 13.29864 2.6243519999999996 13.29864 2.77656 13.450848C3.385296 14.211744 3.841872 14.51616 4.450608 13.450848C4.602816 13.29864 4.450608 13.29864 4.602816 13.29864C5.059392 13.907376 5.059392 14.51616 5.820336 14.211744C6.73344 15.581424 2.015616 21.668976 1.102464 27.756576C1.102464 27.908735999999998 1.102464 28.060943999999996 1.254672 28.060943999999996C1.7111999999999998 28.213151999999997 1.254672 27.45216 2.77656 23.799647999999998C5.059392 18.47304 7.7987519999999995 15.124896 6.276912 13.755215999999999C5.972496 13.450848 5.820336 13.603007999999999 5.515968 13.603007999999999C5.36376 13.29864 5.059392 12.994272 4.907232 12.842112C4.14624 12.233328 3.841872 13.450848 3.6896639999999996 13.450848ZM3.6896639999999996 13.450848C3.6896639999999996 13.603007999999999 3.6896639999999996 13.603007999999999 3.6896639999999996 13.450848Z" clip-rule="evenodd" stroke-width="1"></path><path fill="#000000" fill-rule="evenodd" d="M1.102464 23.191104C2.9287199999999998 22.886736 2.3199840000000003 22.886736 3.841872 22.43016C4.14624 22.43016 3.994032 21.973584 3.6896639999999996 21.973584C2.167776 21.973584 1.863408 22.278 0.950256 22.734576C0.798096 22.886736 0.9503039999999999 23.343312 1.102464 23.191104Z" clip-rule="evenodd" stroke-width="1"></path><path fill="#000000" fill-rule="evenodd" d="M3.5376 25.778015999999997C3.6898079999999998 24.560544 3.8419679999999996 24.560496 3.5376 22.277712C3.5376 21.973296 3.081072 21.973296 3.081072 22.277712C2.928864 23.95176 2.7767039999999996 23.951808 3.081072 25.778015999999997C3.2332319999999997 26.082383999999998 3.6898079999999998 26.082383999999998 3.5376 25.778015999999997Z" clip-rule="evenodd" stroke-width="1"></path><path fill="#000000" fill-rule="evenodd" d="M11.755583999999999 11.168064C10.538112 11.472432 5.972448 11.7768 4.146144 11.168064C6.124608 10.71144 9.016176 10.863648 10.99464 11.015856C11.299056 11.015856 11.299056 10.559232 10.99464 10.559232C9.77712 10.407072 5.515872 9.798288 3.3851999999999998 10.407072C3.23304 10.559232 2.624256 10.559232 2.776464 11.168064C3.3851999999999998 12.842112 9.929328 12.233328 11.755583999999999 11.624592C12.516528 11.320224 12.820896 11.168064 12.059952 10.71144C11.755583999999999 10.71144 11.451215999999999 11.015856 11.755583999999999 11.168064Z" clip-rule="evenodd" stroke-width="1"></path><path fill="#000000" fill-rule="evenodd" d="M9.320592 9.341759999999999C7.4943360000000006 9.189551999999999 5.972448 8.733023999999999 3.689616 9.03744C1.1024159999999998 9.341807999999999 1.1024159999999998 9.950543999999999 1.254624 12.537744C1.254624 12.842112 1.711152 12.842112 1.711152 12.537744C1.711152 9.798335999999999 2.0155679999999996 9.950543999999999 3.841824 9.798335999999999C5.363712 9.646175999999999 7.6465440000000005 9.646175999999999 9.320592 9.646175999999999C9.62496 9.798335999999999 9.777168 9.341759999999999 9.320592 9.341759999999999Z" clip-rule="evenodd" stroke-width="1"></path><path fill="#000000" fill-rule="evenodd" d="M12.668783999999999 11.777280000000001C12.668783999999999 12.538224 12.060048 33.387984 11.75568 34.757712C11.451312 35.823024 10.538112 36.43176 9.625008 36.736128C7.494384 37.344912 5.972496 36.888384 5.972496 37.344912C5.972496 37.497119999999995 6.1247039999999995 37.497071999999996 6.276864 37.497071999999996C8.711856 37.344912 11.90784 37.497119999999995 12.516624 34.90992C12.973151999999999 33.235823999999994 13.581888 19.69104 13.125359999999999 11.777280000000001C13.125359999999999 11.320656 12.668783999999999 11.472864 12.668783999999999 11.777280000000001Z" clip-rule="evenodd" stroke-width="1"></path><path fill="#000000" fill-rule="evenodd" d="M9.929376 34.301184C9.929376 34.453344 8.711856 34.90992 7.950959999999999 35.06208C6.429072 35.366496 6.1247039999999995 35.06208 6.1247039999999995 35.366448C5.972496 36.127392 10.081536 35.670815999999995 10.84248 34.605504C11.146896 33.996767999999996 10.69032 33.387984 10.081536 33.235776C9.016224 32.779247999999995 7.342176 33.083616 6.276864 33.083616C6.1247039999999995 33.083616 5.972496 33.235776 5.972496 33.235776C5.820336 33.996767999999996 9.32064 33.387984 9.929376 34.301184Z" clip-rule="evenodd" stroke-width="1"></path><path fill="#000000" fill-rule="evenodd" d="M11.907936 15.886223999999999C7.951055999999999 11.624975999999998 0.34166399999999997 21.364944 12.212352 26.84376C12.364512 26.84376 12.51672 26.843808 12.51672 26.6916C12.668928 26.235024 11.907983999999999 26.387184 9.929471999999999 24.713136C6.885744 22.278143999999998 5.211647999999999 18.625632 8.103216 16.038384C9.168527999999998 15.125279999999998 10.386047999999999 15.125231999999999 11.451407999999999 16.190544C11.755776 16.49496 11.755776 16.799376 12.060144 16.647168C12.51672 16.495008000000002 12.355151999999999 15.903792 12.507311999999999 14.990687999999999C12.659519999999999 14.229743999999998 12.982992 14.453808 12.821088 14.05992C12.821088 13.90776 12.060144 14.212128 11.907936 15.886223999999999Z" clip-rule="evenodd" stroke-width="1"></path><path fill="#000000" fill-rule="evenodd" d="M46.91112 4.167599999999999C39.453888 3.711024 35.19264 3.8632320000000004 28.344144 3.711024C23.77848 3.558864 19.8216 3.406656 17.995344 7.667952C16.777824 10.407312 17.386608 11.624832 18.451919999999998 17.255808C20.278128 26.843664 19.8216 27.604608 20.430336 27.4524C20.582544 27.4524 20.582544 27.300192 20.582544 27.148031999999997C17.843183999999997 9.189791999999999 17.690976 10.255104 18.756288 7.820111999999999C20.430336 4.015391999999999 24.235056 4.31976 28.496352 4.31976C30.626976 4.31976 45.237072 4.319807999999999 47.063328 4.4719679999999995C47.215536 4.624175999999999 47.215488 4.167599999999999 46.91112 4.167599999999999Z" clip-rule="evenodd" stroke-width="1"></path><path fill="#000000" fill-rule="evenodd" d="M27.126768 43.736736C28.344288 40.236432 33.975264 44.345471999999994 41.736864000000004 44.345471999999994C41.889072 44.345471999999994 42.041231999999994 44.193312 42.041231999999994 44.193312C42.041231999999994 43.736736 41.736864000000004 44.193264 38.540928 43.584528C33.06216 42.519216 30.322752 40.845167999999994 28.03992 42.062639999999995C27.278976 42.519216 26.365824 43.736736 26.822400000000002 43.888943999999995C26.97456 43.888943999999995 26.97456 43.736736 27.126816 43.736736Z" clip-rule="evenodd" stroke-width="1"></path><path fill="#000000" fill-rule="evenodd" d="M39.301728000000004 40.388735999999994C37.323215999999995 41.14968 37.475424000000004 40.997472 35.040432 42.51935999999999C34.736064 42.67152 35.040432 43.128096 35.19264 42.975888C37.475424000000004 42.06278399999999 37.475424000000004 42.06278399999999 39.453888 40.845264C39.758304 40.693104 39.606095999999994 40.236528 39.301728000000004 40.388735999999994Z" clip-rule="evenodd" stroke-width="1"></path><path fill="#000000" fill-rule="evenodd" d="M40.97592 42.975359999999995C40.671552 42.518831999999996 40.367183999999995 42.062256 40.367183999999995 41.453520000000005C40.367183999999995 40.540368 41.889072 40.083839999999995 42.802175999999996 40.083839999999995C44.019695999999996 40.083839999999995 45.085055999999994 41.301359999999995 46.150368 41.910096C46.454736 42.062256 46.606944 41.757887999999994 46.454736 41.60568C45.389424 40.844736 44.476272 39.475055999999995 42.954384 39.322896C40.82375999999999 39.170688 38.38872 40.844784 40.82375999999999 43.279776C40.82375999999999 43.584143999999995 41.128128 43.279728 40.97592 42.975359999999995Z" clip-rule="evenodd" stroke-width="1"></path><path fill="#000000" fill-rule="evenodd" d="M47.21568 38.866896C46.759104 38.562528 46.150368 38.562528 45.693792 38.714688C44.932896 39.019056 44.476272 39.62784 44.019695999999996 40.084416000000004C43.715328 40.236624 44.019695999999996 40.6932 44.324064 40.388832C44.932848 39.932207999999996 46.302527999999995 39.019056 47.063472 39.171264C47.36784 39.475632 47.519999999999996 39.019104 47.21568 38.866896Z" clip-rule="evenodd" stroke-width="1"></path></svg>