<svg xmlns="http://www.w3.org/2000/svg" fill="none" viewBox="0 0 48 48" height="48" width="48" id="Cat-Hand-Drawn--Streamline-Memes.svg"><desc>Cat Hand Drawn Streamline Element: https://streamlinehq.com</desc><path fill="#000000" fill-rule="evenodd" d="M6.24576 10.0272c1.8696 1.09008 4.83024 2.95968 6.0767999999999995 4.67376 0.15552 0.31152 0.6225599999999999 0 0.31104 -0.312 -1.8696 -2.8041599999999995 -3.4271999999999996 -3.7392 -6.23184 -4.82928 -0.312 -0.156 -0.46752 0.31152 -0.156 0.46752Z" clip-rule="evenodd" stroke-width="1"></path><path fill="#000000" fill-rule="evenodd" d="M23.69568 12.36336c0.31152 -0.93456 1.8696 -4.67376 2.9601599999999997 -6.0758399999999995 0.15552 -0.312 -0.156 -0.46752 -0.312 -0.312 -1.8696 1.87008 -2.64816 3.7392 -3.11568 6.23232 0 0.31152 0.46752 0.46752 0.46752 0.15552Z" clip-rule="evenodd" stroke-width="1"></path><path fill="#000000" fill-rule="evenodd" d="M25.097759999999997 12.51888c1.7135999999999998 -3.11568 6.85488 -9.659519999999999 8.257439999999999 -6.38784 0.77904 2.0256 -0.312 5.764799999999999 -0.156 8.257439999999999 0 1.0905599999999998 1.55808 1.7135999999999998 1.55808 4.98576 0 0.31152 0.46752 0.31152 0.46752 0 0 -3.5836799999999998 -1.40256 -4.0512 -1.40256 -4.98576 -0.15552 -2.4926399999999997 0.93504 -4.829759999999999 0.62352 -7.3224 -0.312 -2.80464 -2.1811199999999995 -3.11616 -4.0512 -1.8696 -2.1811199999999995 1.55808 -4.20624 4.829759999999999 -5.4528 7.166399999999999 -0.46703999999999996 0.156 0 0.46752 0.156 0.156Z" clip-rule="evenodd" stroke-width="1"></path><path fill="#000000" fill-rule="evenodd" d="M10.92 16.5696c4.9852799999999995 -3.8947200000000004 14.021759999999999 -5.4528 19.47456 -0.93456 0.312 0.156 0.46752 -0.156 0.312 -0.312 -5.764799999999999 -5.1408000000000005 -14.333759999999998 -3.8947200000000004 -20.09808 0.93504 -0.156 0.156 0.15552 0.46752 0.31152 0.312Z" clip-rule="evenodd" stroke-width="1"></path><path fill="#000000" fill-rule="evenodd" d="M31.796639999999996 5.975999999999999c-2.8041599999999995 1.24608 -3.7392 4.51776 -4.20624 7.63392 0 0.31152 0.46752 0.46752 0.46752 0.15552 0.62304 -2.33664 1.8696 -5.920319999999999 3.8947200000000004 -7.3224 0.312 -0.156 0.156 -0.62304 -0.156 -0.46752Z" clip-rule="evenodd" stroke-width="1"></path><path fill="#000000" fill-rule="evenodd" d="M31.0176 10.49424c-0.62304 0.46703999999999996 -0.62304 0.46703999999999996 -0.93456 1.4016 -0.15552 0.312 0.156 0.46799999999999997 0.312 0.312 0.77856 -0.46752 0.77856 -0.62304 0.93456 -1.4020799999999998 0.15552 -0.312 -0.156 -0.62352 -0.312 -0.312Z" clip-rule="evenodd" stroke-width="1"></path><path fill="#000000" fill-rule="evenodd" d="M31.641119999999997 12.51936c-0.62304 0 -0.46752 0 -0.93456 0.46752 -0.312 0.156 0 0.62304 0.15552 0.46752 0.62304 0 0.62304 0 0.93456 -0.46752 0.312 -0.156 0 -0.62304 -0.15552 -0.46752Z" clip-rule="evenodd" stroke-width="1"></path><path fill="#000000" fill-rule="evenodd" d="M32.10864 14.54496c-0.312 -0.312 -0.46752 -0.156 -0.77904 0 -0.312 0 -0.312 0.46703999999999996 0 0.46703999999999996 0.46752 0.312 0.46752 0.156 0.77904 0 0.31152 0 0.31152 -0.46703999999999996 0 -0.46703999999999996Z" clip-rule="evenodd" stroke-width="1"></path><path fill="#000000" fill-rule="evenodd" d="M4.06464 9.2472c-2.64816 0.46752 -4.20624 1.7135999999999998 -3.8947200000000004 5.29728 0 0.46752 0.77904 5.6088000000000005 1.55808 7.32288 0.31152 0.77856 1.8696 2.9601599999999997 2.33664 2.33664 0.312 -0.46703999999999996 -0.77856 -0.46703999999999996 -1.7135999999999998 -2.64864 -0.46752 -1.4016 -0.62304 -2.8041599999999995 -0.93456 -4.362239999999999C0.7929599999999999 13.142399999999999 -0.14159999999999998 10.64976 4.06464 9.7152c0.46752 0 0.312 -0.46752 0 -0.46752Z" clip-rule="evenodd" stroke-width="1"></path><path fill="#000000" fill-rule="evenodd" d="M5.4672 22.3344c-2.64864 3.8952 -3.5836799999999998 8.56944 -1.8696 12.931679999999998 -2.0256 2.1811199999999995 -3.11616 4.829759999999999 -3.5836799999999998 7.634399999999999 0 0.15552 0 0.31152 0.156 0.31152 0.46752 0.15552 0.15552 -1.0905599999999998 1.7135999999999998 -4.20672 1.55808 -3.11616 2.80464 -3.11616 2.49312 -3.7392 -0.77904 -2.0256 -1.09104 -4.20672 -0.77904 -6.38784 0.62304 -4.9852799999999995 2.64816 -6.0758399999999995 2.1811199999999995 -6.54336 -0.156 -0.156 -0.312 -0.156 -0.312 0Z" clip-rule="evenodd" stroke-width="1"></path><path fill="#000000" fill-rule="evenodd" d="M35.0688 19.53024c2.9601599999999997 2.49312 2.8041599999999995 3.8952 3.11568 5.6088000000000005 0.312 1.55808 0.62352 3.42768 0.62352 4.98576 0 0.312 0.77856 0.77904 2.1811199999999995 2.4926399999999997 1.4016 2.0256 1.0905599999999998 2.64864 1.5576 2.80464 2.80464 1.24608 4.674239999999999 4.362239999999999 4.98576 7.166399999999999 0 0.312 0.46752 0.312 0.46752 0 -0.156 -3.27168 -2.1811199999999995 -6.38736 -4.829759999999999 -7.7899199999999995 -0.62352 -2.0256 -1.8696 -3.5831999999999997 -3.27168 -4.9852799999999995 0 -1.7135999999999998 -0.46752 -3.27168 -0.77904 -4.98576 -0.46752 -2.1811199999999995 -0.46752 -3.27168 -3.5836799999999998 -5.920319999999999 -0.46703999999999996 0 -0.77904 0.46752 -0.46703999999999996 0.62304Z" clip-rule="evenodd" stroke-width="1"></path><path fill="#000000" fill-rule="evenodd" d="M14.5032 26.3856c-0.93456 0.62304 -3.27168 1.7135999999999998 -4.51824 2.4926399999999997 -1.24608 0.62304 -2.4926399999999997 1.55808 -3.7392 2.1811199999999995C4.2206399999999995 32.1504 2.19504 32.928960000000004 0.16992 33.864c-0.312 0.15552 -0.156 0.62304 0.15552 0.46703999999999996 4.36272 -1.8696 5.4528 -1.4020799999999998 14.489279999999999 -7.4784 0.156 -0.15552 0 -0.62304 -0.31152 -0.46703999999999996Z" clip-rule="evenodd" stroke-width="1"></path><path fill="#000000" fill-rule="evenodd" d="M11.232 30.591839999999998c-2.1816 1.40256 -1.87008 1.09104 -4.674239999999999 3.42768 -0.312 0.156 0 0.62352 0.31152 0.312 2.4926399999999997 -1.55808 2.4926399999999997 -1.40256 4.67376 -3.42768 0.156 -0.156 -0.15552 -0.46752 -0.31152 -0.312Z" clip-rule="evenodd" stroke-width="1"></path><path fill="#000000" fill-rule="evenodd" d="M29.304 24.98304c5.9208 1.0905599999999998 13.2432 3.27168 17.91696 7.010879999999999 0.312 0.156 0.46752 -0.156 0.312 -0.312 -5.4528 -4.82928 -11.06208 -6.23136 -18.228959999999997 -7.166399999999999 -0.31152 -0.156 -0.31152 0.312 0 0.46752Z" clip-rule="evenodd" stroke-width="1"></path><path fill="#000000" fill-rule="evenodd" d="M32.10864 28.0992c0.46752 0.312 1.7135999999999998 0.93504 2.3371199999999996 1.40256 0.46703999999999996 0.312 2.9601599999999997 1.55808 3.5831999999999997 1.8696 0.312 0.15552 0.46752 -0.312 0.312 -0.46752 -1.55856 -1.0905599999999998 -2.80464 -2.0256 -4.51872 -2.64864 -1.4016 -0.62304 -1.7135999999999998 -0.62304 -1.8696 -0.46752 0 0.156 0 0.312 0.156 0.312Z" clip-rule="evenodd" stroke-width="1"></path><path fill="#000000" fill-rule="evenodd" d="M10.608 23.73648c-1.4016 2.1811199999999995 -0.15552 3.7392 -0.46703999999999996 5.14128 -0.15552 0.312 0.312 0.46752 0.46752 0.156 0.62304 -1.4020799999999998 -0.156 -3.27168 0.46752 -5.14128 0 -0.156 -0.312 -0.46752 -0.46752 -0.156Z" clip-rule="evenodd" stroke-width="1"></path><path fill="#000000" fill-rule="evenodd" d="M2.0395199999999996 42.43296c3.27168 -0.46703999999999996 4.51824 -4.67376 4.51824 -4.829759999999999 0.46703999999999996 -0.62304 1.86912 -0.77904 2.4926399999999997 -2.9601599999999997 0.15552 -0.31152 -0.312 -0.46752 -0.46752 -0.15552 -0.77904 2.0256 -2.0256 1.7135999999999998 -2.64864 2.64816 -0.31152 0.46752 -0.46703999999999996 0.93504 -0.62304 1.40256 -0.62304 1.24608 -2.0256 2.9601599999999997 -3.4271999999999996 3.4271999999999996 -0.312 0 -0.156 0.46752 0.15552 0.46752Z" clip-rule="evenodd" stroke-width="1"></path><path fill="#000000" fill-rule="evenodd" d="M16.840320000000002 12.98688c-1.0905599999999998 0.77904 -1.7135999999999998 1.24608 -2.3371199999999996 2.8041599999999995 -0.156 0.312 0.156 0.46752 0.46752 0.312 0.93456 -1.24656 0.46752 -0.312 2.33664 -2.64864 0 -0.312 -0.31152 -0.62352 -0.46703999999999996 -0.46752Z" clip-rule="evenodd" stroke-width="1"></path><path fill="#000000" fill-rule="evenodd" d="M14.97072 13.76592c-1.24656 -2.9601599999999997 -2.3371199999999996 -4.98576 -4.98576 -7.166399999999999 -0.15552 -0.156 -0.46703999999999996 0.15552 -0.31152 0.31152 2.49312 2.64816 4.674239999999999 7.3224 5.14128 7.166399999999999 0.156 0 0.156 -0.15552 0.156 -0.31152Z" clip-rule="evenodd" stroke-width="1"></path><path fill="#000000" fill-rule="evenodd" d="M21.9816 12.831359999999998c0.156 0.312 0.312 0.77904 0.62304 1.24656 0.46752 0.62304 0.77904 1.0905599999999998 1.0905599999999998 1.7135999999999998 0.156 0.312 0.62352 0.156 0.46752 -0.156 -0.46752 -1.5576 -0.77904 -2.0256 -1.7135999999999998 -2.9601599999999997 -0.312 -0.31152 -0.62304 -0.15552 -0.46752 0.156Z" clip-rule="evenodd" stroke-width="1"></path><path fill="#000000" fill-rule="evenodd" d="M28.36944 20.46528c0.62304 0.77904 1.7135999999999998 1.24656 2.1811199999999995 2.0256 0.62304 1.24608 0.46752 3.27168 0.93456 4.67376 1.09104 3.11616 3.7392 5.14128 7.01136 6.07632 1.0905599999999998 2.0256 2.64816 3.7392 4.9852799999999995 3.27168 0.312 0 0.156 -0.46752 0 -0.46752 -2.0256 0.312 -3.4271999999999996 -1.4020799999999998 -4.20672 -3.27168 -0.15552 -0.312 -2.0251200000000003 -0.46752 -4.20624 -2.1811199999999995 -3.11616 -2.49312 -2.9601599999999997 -5.29728 -3.27168 -6.85536 -0.62352 -2.64864 -1.8696 -2.33664 -2.80464 -3.4271999999999996 -0.46752 -0.312 -0.77904 -0.156 -0.62304 0.15552Z" clip-rule="evenodd" stroke-width="1"></path><path fill="#000000" fill-rule="evenodd" d="M19.17744 21.555359999999997c0 0.46752 1.0905599999999998 1.24656 1.55808 1.87008 0.15552 0.15552 0.31152 0.15552 0.31152 0.15552 0.31152 0 0.31152 -0.312 0.62304 -0.93456 0.46752 -0.93504 0.62304 -1.09104 0.46752 -1.40256 -0.156 -0.15552 -0.156 -0.31152 -0.156 -0.46703999999999996 0.156 -0.312 0.312 0.46703999999999996 0.77904 0.31152 0.46752 -0.156 0.77904 -0.46752 1.0905599999999998 -0.62352 0.62352 -0.46703999999999996 -1.0905599999999998 -1.4016 -1.8696 -1.5576 -0.31152 -0.156 -0.46752 0.31152 -0.15552 0.46703999999999996 0.46703999999999996 0.156 0.93456 0.46752 1.24608 0.77904 -0.31152 0.156 -0.15552 0.156 -0.46703999999999996 0.156 -0.62352 -0.93504 -2.0256 0 -1.40256 1.0905599999999998 -0.31152 0.62304 -0.31152 0.46752 -0.46703999999999996 0.93456l-0.93504 -0.93456c0.156 -0.77904 -0.62304 -1.24656 -1.24608 -0.62304l-0.312 0.31152c-0.31152 -0.156 0.62352 -2.0256 2.3371199999999996 -2.0256 0.312 0 0.312 -0.46752 0 -0.46752 -2.64864 -0.15552 -4.362239999999999 3.11616 -2.1811199999999995 3.27216 0.46752 0 0.46752 0 0.77904 -0.312Z" clip-rule="evenodd" stroke-width="1"></path><path fill="#000000" fill-rule="evenodd" d="M21.67008 25.29504c0 -1.0905599999999998 0 -1.0905599999999998 -0.62352 -2.4926399999999997 0 -0.312 -0.46703999999999996 -0.156 -0.46703999999999996 0.156 0.15552 1.7135999999999998 0.15552 1.4016 0.62304 2.4926399999999997 0.156 0.312 0.62304 0.15552 0.46752 -0.156Z" clip-rule="evenodd" stroke-width="1"></path><path fill="#000000" fill-rule="evenodd" d="M15.749759999999998 32.928960000000004c1.7135999999999998 1.24656 2.8041599999999995 -2.64864 4.829759999999999 -5.764799999999999 0.93456 -1.4016 1.0905599999999998 -1.5576 2.1811199999999995 -0.62304 2.80464 2.1811199999999995 3.7392 5.29728 5.14128 3.8952l0.312 -0.312c0.15552 -0.31152 -0.312 -0.46703999999999996 -0.46752 -0.15552 -0.93504 1.0905599999999998 -1.24656 -0.62304 -3.11616 -2.64864 -1.24656 -1.4020799999999998 -2.8041599999999995 -2.9601599999999997 -4.0512 -1.55808 -1.24608 1.24656 -3.2712 6.23232 -3.8947200000000004 6.69936 -0.62304 0.46752 -0.77904 -0.15552 -1.0905599999999998 0.156 0 0.156 0.156 0.31152 0.156 0.31152Z" clip-rule="evenodd" stroke-width="1"></path><path fill="#000000" fill-rule="evenodd" d="M23.8512 18.43968c0.46752 -2.0256 1.8696 -3.27168 4.0512 -2.9601599999999997 0.77856 0.156 0.93456 0.46752 1.09008 0.156 0.62352 -0.77904 -5.1408000000000005 -2.64864 -5.6088000000000005 2.64864 0 0.46703999999999996 0.46752 0.46703999999999996 0.46752 0.15552Z" clip-rule="evenodd" stroke-width="1"></path><path fill="#000000" fill-rule="evenodd" d="M10.608 19.21872c0.93504 -1.0905599999999998 2.3376 -1.4020799999999998 3.42816 -0.93456 2.0256 0.77856 1.8696 2.1811199999999995 2.33664 2.0256 0.46752 -0.312 -0.77904 -1.87008 -1.24608 -2.1816 -2.80464 -2.4926399999999997 -5.4528 0.77904 -4.98576 1.0905599999999998 0.156 0.156 0.312 0 0.46752 0Z" clip-rule="evenodd" stroke-width="1"></path><path fill="#000000" fill-rule="evenodd" d="M12.478079999999999 18.595200000000002c-2.0256 0.62352 -3.5836799999999998 4.0512 0 4.20672 3.11568 0.156 4.67376 -3.11616 3.7392 -3.11616 -0.156 0 -0.312 0.156 -0.312 0.156 -0.15552 2.1811199999999995 -5.4528 2.9601599999999997 -4.829759999999999 0.93456 0.62352 -2.0256 1.8696 -1.7135999999999998 1.55808 -2.1811199999999995l-0.15552 0Z" clip-rule="evenodd" stroke-width="1"></path><path fill="#000000" fill-rule="evenodd" d="M12.16608 22.1784c-0.31152 -0.31152 -0.15552 -1.0905599999999998 0.156 -1.4020799999999998 0.62304 -0.62304 1.8696 -0.62304 2.1811199999999995 0.312 0.312 0.93456 -2.1811199999999995 1.7135999999999998 -2.64864 0.93456l0.312 0.15552Z" clip-rule="evenodd" stroke-width="1"></path><path fill="#000000" fill-rule="evenodd" d="M23.38368 18.595200000000002c0.77904 1.24656 2.80464 1.87008 4.51824 1.24656 0.77904 -0.31152 2.3371199999999996 -1.4016 1.8696 -1.7135999999999998 -0.46752 -0.312 -0.31152 0.62304 -2.1811199999999995 1.0905599999999998 -1.24656 0.312 -3.11616 0 -3.8947200000000004 -0.77904 0 -0.31152 -0.46752 -0.15552 -0.312 0.156Z" clip-rule="evenodd" stroke-width="1"></path><path fill="#000000" fill-rule="evenodd" d="M25.7208 16.102559999999997c1.4020799999999998 -0.31152 2.80464 0.156 3.5831999999999997 1.4020799999999998 0.156 0.312 0.62352 0 0.46752 -0.15552 -0.77904 -1.7135999999999998 -2.33664 -2.4926399999999997 -4.20624 -1.55808 -0.312 0 -0.156 0.46752 0.15552 0.312Z" clip-rule="evenodd" stroke-width="1"></path><path fill="#000000" fill-rule="evenodd" d="M28.05792 19.374719999999996c0.62304 -1.0905599999999998 -1.55808 -2.0256 -2.49312 -0.77904 -0.46703999999999996 0.62304 -0.31152 1.0905599999999998 0.46752 1.24656 1.7135999999999998 0.15552 2.64864 -1.0905599999999998 2.0256 -0.46752Z" clip-rule="evenodd" stroke-width="1"></path><path fill="#000000" fill-rule="evenodd" d="M22.91664 27.00864c-1.7135999999999998 -0.46752 -2.9601599999999997 0.77904 -4.0512 2.1811199999999995 -0.15552 0.156 0.156 0.46752 0.312 0.312 0.77904 -0.77952 1.5576 -1.40256 2.64864 -1.71408 1.7135999999999998 -0.312 2.64864 0.93456 2.9601599999999997 0.62304 0.46703999999999996 -0.31152 -1.24656 -1.24608 -1.8696 -1.4020799999999998Z" clip-rule="evenodd" stroke-width="1"></path><path fill="#000000" fill-rule="evenodd" d="M4.06464 11.7408c2.96064 -0.156 2.80464 5.14128 6.0767999999999995 5.4528 0.31104 0 0.31104 -0.46752 0 -0.46752 -2.64912 -0.46703999999999996 -2.3376 -6.23184 -6.23232 -5.4528 -0.156 0 -0.156 0.46752 0.15552 0.46752Z" clip-rule="evenodd" stroke-width="1"></path><path fill="#000000" fill-rule="evenodd" d="M4.68816 15.324c0.62304 0.46703999999999996 0.46752 0.46703999999999996 1.7135999999999998 0.62304 0.312 0.156 0.46752 -0.31152 0.156 -0.46752 -0.93504 -0.62304 -0.93504 -0.62304 -1.7135999999999998 -0.62304 -0.312 -0.156 -0.46752 0.312 -0.156 0.46752Z" clip-rule="evenodd" stroke-width="1"></path><path fill="#000000" fill-rule="evenodd" d="M4.06464 17.661119999999997c1.0905599999999998 0.31152 0.93504 0.15552 2.0256 0 0.31152 0 0.31152 -0.46752 0 -0.46752 -1.24656 -0.31152 -1.4020799999999998 -0.15552 -2.0256 0 -0.31152 0 -0.31152 0.46752 0 0.46752Z" clip-rule="evenodd" stroke-width="1"></path><path fill="#000000" fill-rule="evenodd" d="M5.1552 20.46528c1.40256 -0.62352 1.24656 -0.62352 2.0256 -1.40256 0.312 -0.15552 0 -0.62304 -0.156 -0.46703999999999996 -1.4016 0.46703999999999996 -1.5576 0.77904 -2.0256 1.4016 -0.46703999999999996 0.156 -0.15552 0.624 0.156 0.46799999999999997Z" clip-rule="evenodd" stroke-width="1"></path></svg>