<svg xmlns="http://www.w3.org/2000/svg" fill="none" viewBox="0 0 48 48" height="48" width="48" id="Chubby-Bubble-Girl-1-Hand-Drawn--Streamline-Memes.svg"><desc>Chubby Bubble Girl 1 Hand Drawn Streamline Element: https://streamlinehq.com</desc><path fill="#000000" fill-rule="evenodd" d="M22.456848 11.706240000000001C20.920032 10.015728 18.768383999999998 10.476816 18.46104 12.628368C18.153647999999997 15.394703999999999 21.842111999999997 18.007296 22.764192 16.00944C22.917888 15.702048 22.456848 15.548399999999999 22.303152 15.855744C21.842111999999997 16.624176 20.920032 16.00944 20.305248 15.394703999999999C18.153647999999997 13.396799999999999 19.690559999999998 10.015728 21.995807999999997 12.167376C22.456848 12.167376 22.764192 11.859936000000001 22.456848 11.706240000000001Z" clip-rule="evenodd" stroke-width="1"></path><path fill="#000000" fill-rule="evenodd" d="M20.76624 12.167232C21.073584 12.474576 21.22728 13.550352 21.534672 14.011391999999999C21.842015999999997 14.47248 22.456751999999998 15.087167999999998 22.610447999999998 14.779824C22.764096 14.472432 22.456751999999998 14.626176 22.149359999999998 13.857744C21.995711999999997 13.396656 21.842015999999997 12.32088 20.919936 11.706095999999999C20.76624 11.552447999999998 20.612544 12.013535999999998 20.76624 12.167232Z" clip-rule="evenodd" stroke-width="1"></path><path fill="#000000" fill-rule="evenodd" d="M21.22728 14.165087999999999C21.073584 13.857695999999999 20.919936 13.243008 21.534672 13.089312C21.842015999999997 13.089312 21.842015999999997 12.628224 21.534672 12.628224C21.073584 12.628224 20.612544 12.781872 20.458896 13.396608C20.3052 14.165087999999999 21.22728 14.779824 21.380976 14.472432C21.380976 14.472432 21.22728 14.318783999999999 21.22728 14.165087999999999Z" clip-rule="evenodd" stroke-width="1"></path><path fill="#000000" fill-rule="evenodd" d="M27.528336 5.405136H27.067296C26.298864 5.712528 25.991519999999998 6.327215999999999 25.991519999999998 7.095648C22.764096 9.400896 22.610496 13.243056 23.378880000000002 13.08936C23.993616 13.08936 22.917792 12.167232 24.454656 9.861984C25.069391999999997 8.939856 25.837824 8.171472 26.759904 7.710384C27.220992 7.40304 26.606256 6.63456 27.37464 6.327215999999999C27.37464 6.17352 27.83568 6.327264 27.83568 6.1735679999999995C28.143072 6.0198719999999994 28.604112 5.251488 29.987327999999998 5.097792C31.831488 4.7904 32.59992 6.1735679999999995 33.060959999999994 6.4809600000000005C33.368351999999994 6.634608 33.829392 6.942 33.983088 6.634608C33.983088 6.327264 33.675696 6.4809600000000005 33.368351999999994 6.1735679999999995C32.907312 5.866224 31.985184 4.32936 29.833584 4.483056C28.911504 4.32936 27.83568 4.790448 27.528336 5.405136ZM27.528336 5.405136C27.528336 5.251488 27.528336 5.251488 27.528336 5.405136Z" clip-rule="evenodd" stroke-width="1"></path><path fill="#000000" fill-rule="evenodd" d="M10.930416 16.777392C11.391456 16.162656 12.006191999999999 15.701616 12.620928000000001 15.394271999999997C14.004095999999999 14.472096 14.004095999999999 14.011055999999998 14.772528 12.935279999999999C15.387264 12.0132 16.309392 11.70576 17.077776 10.937376C17.538863999999997 10.629984 17.999904 10.015296000000001 17.692512 9.861648C17.385167999999997 9.707952 17.38512 10.015296000000001 16.770384 10.630032C15.848256000000001 11.398464 14.926176 11.552112 14.157744 12.627936C13.38936 13.550016 13.696704 13.857359999999998 12.159888 14.933184C9.700944 16.777344 10.77672 17.238432 10.930416 16.777392Z" clip-rule="evenodd" stroke-width="1"></path><path fill="#000000" fill-rule="evenodd" d="M11.852543999999998 14.011344C12.92832 13.089264 13.235664 12.013487999999999 14.15784 11.09136C15.07992 10.322975999999999 16.155696 10.169328 17.077776 9.2472C19.229424 6.7882560000000005 18.307247999999998 6.17352 23.225184000000002 3.8682719999999997C23.83992 3.5608799999999996 24.608303999999997 3.09984 25.376736 2.946144C26.14512 2.792448 27.067247999999996 3.253488 27.989328 3.253488C29.065104 3.253488 29.98728 2.946144 31.063055999999996 3.253488C31.83144 3.5608799999999996 32.599872 4.329263999999999 33.522 4.790352C33.98304 5.097696 34.597775999999996 5.097744 35.05881599999999 5.405088C36.59568 6.019824 37.671408 8.171376 36.749328 9.554544C36.595631999999995 9.861936 36.903072 10.015584 37.05672 9.861936C38.286192 8.171424 37.056672 5.712432 35.212512 4.790352C34.75142399999999 4.636656 34.136736 4.482959999999999 33.829344 4.175616C32.907264 3.5608799999999996 32.292528 2.946144 31.3704 2.4850559999999997C30.294576 2.024016 29.218847999999998 2.3314079999999997 28.143024 2.3314079999999997C27.220943999999996 2.3314079999999997 26.452512 1.8703679999999998 25.376736 2.024016C24.454656 2.177712 23.686224 2.6388 22.917792 2.946144C17.692512 5.25144 18.61464 6.173471999999999 16.463088 8.632464C15.848352 9.400848 14.618879999999999 9.70824 13.696752 10.476671999999999C12.774624 11.398751999999998 12.46728 12.628224 11.391504 13.396608C11.237808 13.857695999999999 11.545151999999998 14.16504 11.852543999999998 14.011344Z" clip-rule="evenodd" stroke-width="1"></path><path fill="#000000" fill-rule="evenodd" d="M28.142928 20.005104C29.526096 22.156655999999998 31.06296 22.464 32.44608 22.002959999999998C32.753472 21.849311999999998 32.599776 21.541919999999998 32.292432 21.541919999999998C31.062911999999997 21.849311999999998 29.3724 20.466144 28.45032 19.697712C28.296624 19.544064 27.989231999999998 19.851408 28.142928 20.005104Z" clip-rule="evenodd" stroke-width="1"></path><path fill="#000000" fill-rule="evenodd" d="M15.541056000000001 14.319023999999999C14.157888 15.85584 14.157888 15.394799999999998 13.082063999999999 16.163183999999998C12.159984 16.777967999999998 12.77472 16.931615999999998 12.928416 16.777919999999998C14.004192 16.009536 14.772623999999999 16.470624 16.309487999999998 14.626368C16.616832 14.165327999999999 17.077872 13.550592 17.692608 13.089552C18 13.089552 17.53896 12.167424 15.541056000000001 14.319023999999999Z" clip-rule="evenodd" stroke-width="1"></path><path fill="#000000" fill-rule="evenodd" d="M5.551583999999999 39.98414399999999C6.16632 38.600975999999996 6.934704 37.371503999999995 7.395791999999999 35.988336C8.010480000000001 33.990432 6.012624000000001 32.607263999999994 7.395791999999999 30.916704C7.54944 30.60936 8.010480000000001 30.455664 8.317872 30.14832C8.625216 29.533584 8.164176 28.918847999999997 7.54944 28.765151999999997C6.473664 28.611504 4.783152 30.609408 2.016864 31.377840000000003C0.787392 31.685184 0.48 31.53144 0.48 31.83888C0.48 31.992576 0.633696 31.992576 0.787392 31.992576C4.475808 31.685184 6.473664 29.379888 7.242096 29.379888C7.395791999999999 29.379888 7.703136000000001 29.533584 7.54944 29.68728C7.242096 29.994623999999998 6.62736 30.148367999999998 6.16632 31.377840000000003C5.705279999999999 32.76096 6.319968 33.683088 6.62736 34.605168C6.7810559999999995 35.680992 5.858928 37.371456 4.9368479999999995 39.67675199999999C4.322112 41.05992 4.168416000000001 42.596736 3.707376 43.979856C3.246288 45.670368 2.6315999999999997 45.670415999999996 3.09264 45.977807999999996C3.707376 46.438848 4.783152 41.367264 5.551583999999999 39.984096Z" clip-rule="evenodd" stroke-width="1"></path><path fill="#000000" fill-rule="evenodd" d="M0.9410399999999999 17.853216C2.3241599999999996 17.545824 4.168368 18.314304 5.705184 18.006912C8.93256 17.392128 12.467328 16.623791999999998 15.387264 18.160608C16.155696 18.467951999999997 16.463088 15.855312 17.999951999999997 16.623791999999998C18.614687999999997 16.931136000000002 19.383072 17.853216 21.380976 19.236384C25.069344 21.695376 26.145215999999998 20.004815999999998 27.067296 32.760576C27.37464 36.60264 26.145215999999998 38.600544 26.298864 41.827872C26.298864 42.903696 26.45256 43.979519999999994 26.45256 45.055296C26.45256 45.208943999999995 26.606256 45.208943999999995 26.606256 45.36264C27.067296 45.36264 26.759856 44.594256 26.759856 41.827872C26.759856 39.830016 27.220992 38.446847999999996 27.528336 36.295296C27.989376 33.221568 27.528336 31.531056 27.37464 28.764768C26.759904 18.929039999999997 24.761999999999997 21.080592 19.536768 16.777440000000002C19.229424 16.470095999999998 18.768383999999998 16.162656 18.307247999999998 15.855312C16.924128 15.08688 16.155696 16.009007999999998 15.387264 17.23848C12.159936 16.009007999999998 8.932608 16.777440000000002 5.551536 17.392176C4.168368 17.699568 0.326256 16.777440000000002 0.633648 17.699568C0.787296 17.853264 0.787344 17.853216 0.9410399999999999 17.853216Z" clip-rule="evenodd" stroke-width="1"></path><path fill="#000000" fill-rule="evenodd" d="M10.315728 18.468384C11.852640000000001 19.697855999999998 10.008431999999999 22.464192 8.164176 27.535728C8.164176 27.689424 8.164176 27.84312 8.317872 27.84312C8.625216 27.996816 8.471568 27.996816 9.854688 25.076832C10.930463999999999 22.925231999999998 12.621024 19.236816 10.623119999999998 18.007344C10.315728 17.853696 10.008384 18.314736 10.315728 18.468384Z" clip-rule="evenodd" stroke-width="1"></path><path fill="#000000" fill-rule="evenodd" d="M13.081968 22.31064C14.926176 22.77168 16.46304 22.31064 17.846159999999998 22.156944C19.690416 22.003248 19.844064 22.464288 19.997712 22.156944C20.151408 21.695904000000002 18.307199999999998 21.388512 17.846159999999998 21.388512C16.309344 21.388512 14.465136 21.849552 13.235664 21.695856C12.774624 21.849552 12.774624 22.31064 13.081968 22.31064Z" clip-rule="evenodd" stroke-width="1"></path><path fill="#000000" fill-rule="evenodd" d="M15.620448 18.13392C16.696224 17.21184 18.540384 21.053904 19.308816 22.283375999999997C22.843584 28.430736 26.531952 27.201312 25.763568 35.192879999999995C25.763568 35.500271999999995 26.224608 35.500271999999995 26.224608 35.192879999999995C26.839344 29.660256 25.917216 28.738176 22.99728 25.664447999999997C19.462512 21.976079999999996 19.462559999999996 20.131872 17.464608 18.13392C16.849872 17.519184 16.081488 17.058144 15.466752 17.826576C15.15936 17.980223999999996 15.466752 18.287616 15.620399999999998 18.13392Z" clip-rule="evenodd" stroke-width="1"></path><path fill="#000000" fill-rule="evenodd" d="M30.909264 31.992384C30.448223999999996 31.223951999999997 29.833488 31.223951999999997 29.372448 31.377647999999997C29.065008 30.609215999999996 27.989231999999998 30.455519999999996 27.528192 31.377647999999997C27.374496 31.531296 27.374496 31.838688 27.528192 31.992384C27.681888 32.146032 27.835584 31.838688 27.989231999999998 31.531296C28.142928 31.377647999999997 28.45032 31.3776 28.603968 31.684943999999998C28.757664 31.838639999999998 28.603968 31.992384 28.757664 32.299728C29.3724 32.760768 29.679744 31.377647999999997 30.29448 32.60712C30.448176 32.760768 30.601872 33.06816 31.062911999999997 32.60712C30.909215999999997 32.760768 31.523999999999997 31.992335999999998 31.985039999999994 33.221808C31.985039999999994 33.5292 32.44608 33.375504 32.44608 33.06816C32.292432 31.838688 31.523999999999997 31.684992 30.909264 31.992384ZM29.372448 31.684943999999998C29.526144 31.684943999999998 29.526144 31.684943999999998 29.372448 31.684943999999998Z" clip-rule="evenodd" stroke-width="1"></path><path fill="#000000" fill-rule="evenodd" d="M29.372543999999998 35.834543999999994C29.679935999999998 35.98824 30.140976 36.91032 30.909408 36.44928C31.063103999999996 36.44928 31.063103999999996 36.295584 31.216799999999996 36.295584C32.13888 37.217664 33.060959999999994 36.141935999999994 32.59992 35.988288C32.292576 35.834592 32.292576 36.295632 31.985184 36.141935999999994C31.677840000000003 36.141935999999994 31.524143999999996 35.219808 30.909408 35.527151999999994L30.448368 35.834543999999994C30.140976 35.98824 29.98728 35.373504 29.526239999999998 35.219808C28.757808 34.912416 28.604112 35.834543999999994 28.450464 35.527151999999994C28.182864 35.22 28.010927999999996 34.286976 27.682032 34.451376C27.067296 34.297728 27.835728 37.217712 29.372543999999998 35.834543999999994Z" clip-rule="evenodd" stroke-width="1"></path><path fill="#000000" fill-rule="evenodd" d="M29.372495999999998 23.693807999999997C30.14088 25.538016 30.14088 29.533823999999996 30.14088 31.53168C30.14088 31.839072 30.601968 31.839072 30.601968 31.53168C30.909312 28.611696 31.216704 26.152752 29.67984 23.540111999999997C29.526191999999998 23.232768 29.2188 23.386464 29.372495999999998 23.693807999999997Z" clip-rule="evenodd" stroke-width="1"></path><path fill="#000000" fill-rule="evenodd" d="M34.136688 22.156512C34.290383999999996 27.228047999999998 31.063055999999996 31.377551999999998 33.214608 37.678608C33.98304 40.137504 35.36616 42.289055999999995 35.8272 44.748C35.8272 44.901695999999994 35.980896 44.901695999999994 36.134592 44.901695999999994C36.903023999999995 44.748 34.75142399999999 39.983855999999996 33.98304 37.371168C33.060912 34.451184000000005 33.214608 32.606976 33.829344 29.3796C35.519856 20.312255999999998 34.136736 21.84912 34.136736 22.156512Z" clip-rule="evenodd" stroke-width="1"></path><path fill="#000000" fill-rule="evenodd" d="M36.595631999999995 27.228479999999998C35.36616 29.226335999999996 34.75142399999999 31.070543999999998 34.597775999999996 34.75896C34.597775999999996 35.066352 35.05881599999999 35.066352 35.05881599999999 34.75896C35.36616 32.453712 36.441936 28.765296 36.903023999999995 27.382175999999998C37.056672 27.074783999999998 36.735648 27.000912 36.595631999999995 27.228479999999998Z" clip-rule="evenodd" stroke-width="1"></path><path fill="#000000" fill-rule="evenodd" d="M35.980944 33.068256C35.67359999999999 36.295632 37.210463999999995 37.6788 37.825199999999995 42.1356C38.28624 45.362976 37.825199999999995 45.516624 38.28624 45.67032C38.439936 45.67032 38.593632 45.516624 38.593632 45.516624C39.20832 38.600832000000004 36.442032 36.44928 36.595728 33.221952C36.442032 32.760864 35.980944 32.760864 35.980944 33.068256Z" clip-rule="evenodd" stroke-width="1"></path><path fill="#000000" fill-rule="evenodd" d="M33.368256 14.318496C33.829296 14.62584 33.829296 14.318496 34.13664 14.1648C34.44408 14.1648 34.44408 13.703759999999999 34.13664 13.703759999999999C33.521952 13.396367999999999 33.522 13.703759999999999 33.214608 13.857456C33.060912 14.011104 33.060864 14.318496 33.368256 14.318496Z" clip-rule="evenodd" stroke-width="1"></path><path fill="#000000" fill-rule="evenodd" d="M31.216656 11.091168C30.755568 11.244864 30.755568 12.013295999999999 31.216656 12.32064C31.523999999999997 12.474336 31.831343999999994 12.32064 31.985039999999994 12.166991999999999C32.138735999999994 11.39856 31.523999999999997 10.783824 31.216656 11.091168Z" clip-rule="evenodd" stroke-width="1"></path><path fill="#000000" fill-rule="evenodd" d="M36.441984 14.780208C37.364112 13.550688 37.05672 12.936 36.749376 12.167568C36.59568 11.860223999999999 37.364112 10.784448 36.288336 8.479199999999999C35.980944 7.864464 34.751472 6.020207999999999 34.290432 6.481247999999999C34.136736 6.634944 34.290432 6.78864 34.290432 6.78864C35.67359999999999 8.018112 36.288336 10.169664000000001 36.13464 11.245488C35.980944 11.706528 35.827248 11.860223999999999 35.980944 12.167615999999999C36.13464 12.628656 36.441984 12.936 36.13464 13.704431999999999C35.519904 14.933904 35.212559999999996 14.165472 35.980944 15.702287999999998C36.749376 17.392799999999998 35.67359999999999 19.237056 34.597823999999996 20.620223999999997C32.13888 23.847552 30.755663999999996 23.693856 28.296768 22.464384C26.759904 21.695952 22.303055999999998 18.929664 21.995711999999997 17.239152C21.995711999999997 16.778064 20.3052 17.085504 23.686224 20.005488C25.069344 21.234959999999997 26.298864 22.15704 27.989376 22.925472C29.372543999999998 23.693856 30.755663999999996 24.308591999999997 32.292576 23.540208C34.136736 22.771776 36.903072 19.5444 37.05672 17.239152C37.210415999999995 16.47072 36.903072 15.702287999999998 36.441984 14.780208Z" clip-rule="evenodd" stroke-width="1"></path><path fill="#000000" fill-rule="evenodd" d="M31.063008 16.162992C31.063008 16.385136 30.909312 16.975056 30.601968 17.08512C30.294576 17.238816 30.601968 17.699855999999997 30.909312 17.546159999999997C31.524048 17.172383999999997 31.615823999999996 16.777728 31.524048 16.31664C31.524048 15.855599999999999 31.063008 15.855648 31.063008 16.16304Z" clip-rule="evenodd" stroke-width="1"></path><path fill="#000000" fill-rule="evenodd" d="M31.3704 16.777632C31.063055999999996 16.777632 31.063055999999996 17.23872 31.3704 17.23872C31.985135999999997 17.23872 31.831488 17.085024 32.138832 17.699759999999998C32.446175999999994 18.314543999999998 32.753567999999994 18.929232 33.522 18.929232C33.98304 18.929232 34.597775999999996 18.775584 34.44408 17.699759999999998C35.451216 16.89408 35.022335999999996 15.550512000000001 34.136688 15.855552000000001C33.98304 16.009248 33.98304 15.240815999999999 33.060912 15.701856000000001C32.348832 16.10712 31.940544 16.777632 31.3704 16.777632ZM33.675648 16.316544C33.368304 16.316544 33.060912 16.777632 32.446175999999994 16.931328C32.907264 17.392367999999998 33.214608 18.1608 33.829344 18.007103999999998C33.98304 18.007103999999998 33.829344 17.546063999999998 33.829344 17.392367999999998C33.829344 16.931328 34.136736 17.085024 34.290383999999996 16.470288C33.675648 16.623984 33.675648 16.623984 33.675648 16.316544Z" clip-rule="evenodd" stroke-width="1"></path><path fill="#000000" fill-rule="evenodd" d="M34.597728 10.938C33.829296 11.552783999999999 33.982991999999996 11.860128 34.290335999999996 12.62856C34.751376 13.396944 35.673552 13.857983999999998 34.75142399999999 14.780111999999999C34.44408 14.933808 34.751376 15.394848 35.058768 15.087456C35.36616 14.933808 35.673552 14.626415999999999 35.8272 14.319071999999998C36.288288 13.396944 35.212464000000004 12.62856 34.905072000000004 12.013824C34.597728 11.552783999999999 35.36616 11.245344 35.058768 10.938C34.905072000000004 10.784304 34.751376 10.784304 34.597728 10.938Z" clip-rule="evenodd" stroke-width="1"></path><path fill="#000000" fill-rule="evenodd" d="M35.519904 11.091072C35.865024 11.436191999999998 36.07344 11.952048 36.441984 12.320592C36.59568 12.627984 36.903072 12.47424 36.903072 12.166896C36.903072 11.398464 36.562896 10.997855999999999 35.827296 10.630032C35.519904 10.476384 35.212559999999996 10.937424 35.519904 11.091072Z" clip-rule="evenodd" stroke-width="1"></path><path fill="#000000" fill-rule="evenodd" d="M29.526239999999998 7.863744C30.140928 7.710048 31.831488 7.863791999999999 32.446224 8.478527999999999C32.59992 8.785919999999999 33.060959999999994 8.478527999999999 32.753616 8.171183999999998C32.13888 7.0953599999999994 30.755663999999996 6.480672 29.218847999999998 7.4027519999999996C29.065151999999998 7.556448 29.218847999999998 8.017439999999999 29.526239999999998 7.863744Z" clip-rule="evenodd" stroke-width="1"></path><path fill="#000000" fill-rule="evenodd" d="M31.985135999999997 10.937712C31.524096 8.632464 27.835728 10.322975999999999 28.604112 11.09136C29.065151999999998 11.552496 30.140928 12.320832 30.755663999999996 12.474528000000001C31.83144 12.781872 32.446175999999994 12.013487999999999 31.985135999999997 10.937712ZM31.063055999999996 11.859839999999998C30.909359999999996 11.859839999999998 29.833584 10.937759999999999 29.679888 10.784063999999999C31.677792 9.400896 32.138832 12.32088 31.063055999999996 11.859839999999998Z" clip-rule="evenodd" stroke-width="1"></path><path fill="#000000" fill-rule="evenodd" d="M37.364112 19.083167999999997C34.597775999999996 19.390608 35.058864 22.156848 37.05672 21.849456C37.978848 21.695807999999996 38.747232 20.773728 38.747232 20.005343999999997C38.747232 18.929568 37.671456 18.92952 37.364112 19.083167999999997ZM37.517712 19.544255999999997C35.8272 20.005296 35.8272 21.234768 36.903072 21.081072C37.825152 21.081072 38.747232 19.544255999999997 37.517712 19.544255999999997Z" clip-rule="evenodd" stroke-width="1"></path><path fill="#000000" fill-rule="evenodd" d="M43.511424 19.390223999999996C45.201935999999996 18.468096 43.972464 16.623936 41.667216 17.39232C40.1304 17.853407999999998 39.515616 18.929184 40.898832 19.54392C41.820912 20.00496 43.357727999999994 19.54392 43.511424 19.390223999999996ZM43.665119999999995 18.468144C43.818768 18.007103999999998 41.974608 17.699712 40.898832 18.621792C40.59144 18.775488 43.204032 19.851312 43.665119999999995 18.468144Z" clip-rule="evenodd" stroke-width="1"></path><path fill="#000000" fill-rule="evenodd" d="M37.978752 21.388272C37.364016 22.003007999999998 37.517712 22.464048 37.978752 22.77144C37.825056 23.078784000000002 37.825056 23.232480000000002 37.978752 23.539824C38.593487999999994 24.308256 39.669312 24.000912 40.284048 24.308256C40.745087999999996 24.615648 40.745087999999996 25.230336 40.591392 25.691424C40.437695999999995 25.998768 40.437695999999995 25.998768 40.437695999999995 26.152511999999998C40.591392 26.459856 41.667168 26.613504 42.128208 26.459808C43.511376 26.152464 43.484832 25.345488 43.99464 24.050592C44.183808 23.570064 43.950768 23.26584 43.79712 23.112191999999997C43.643423999999996 22.958495999999997 43.643423999999996 23.112191999999997 43.950768 22.804799999999997C44.258207999999996 22.343712 44.258207999999996 21.728976 43.950768 21.267936C44.565552 20.653200000000002 44.10446399999999 20.038464 43.489728 19.577423999999997C41.64552 18.194256 36.902976 20.312496 37.978752 21.388272ZM43.489728 20.806943999999998C43.643423999999996 20.653247999999998 43.643423999999996 20.653200000000002 43.489728 20.499503999999998C42.567648 19.423727999999997 39.976656 20.005104 38.900879999999994 20.927184C39.208271999999994 20.927184 41.513472 20.312496 41.97456 20.773536C42.281904 21.080927999999997 41.97456 21.388272 41.820864 21.388272C41.052431999999996 21.541968 39.208271999999994 21.541968 38.593536 22.156703999999998C39.36192 22.617744 40.130352 21.849311999999998 41.667168 22.156703999999998C42.128208 22.310399999999998 41.97456 22.77144 41.667168 22.77144C40.130352 22.77144 40.437695999999995 22.925088 39.515616 22.925088C39.054528 22.925088 38.747136000000005 22.903296 38.747136000000005 23.078784000000002C38.633088 23.813472 40.130352 23.386176 40.898784 23.847216C41.667168 24.308256 41.584944 25.0044 41.2776 25.772831999999998C41.584992 25.926527999999998 42.134783999999996 25.926527999999998 42.442175999999996 25.772831999999998C43.219968 25.383936 43.282704 25.163328 43.45032 24.38424C43.45032 24.076848 43.604016 23.70288 43.45032 23.395535999999996C43.296624 23.241839999999996 42.567648 22.958448 43.489728 22.497408C43.740432 22.372032 43.895664 22.116768 43.79712 21.882672C43.643423999999996 21.728976 42.721343999999995 21.267984000000002 43.489728 20.806943999999998Z" clip-rule="evenodd" stroke-width="1"></path><path fill="#000000" fill-rule="evenodd" d="M36.44184 21.695664C35.827152 24.15456 35.366063999999994 24.615648 36.134544 25.230432C37.517712 26.459856 41.359776000000004 26.613552 41.20608 25.845072C41.052384 25.537728 40.89873599999999 25.845072 39.515568 25.691424C38.593487999999994 25.537728 37.364016 25.076687999999997 36.902976 24.769295999999997C36.288239999999995 24.308256 36.74928 24.769295999999997 36.902976 21.849311999999998C36.902976 21.541968 36.44184 21.388223999999997 36.44184 21.695664Z" clip-rule="evenodd" stroke-width="1"></path><path fill="#000000" fill-rule="evenodd" d="M39.669408 10.322832C40.284144 9.5544 41.82096 10.169184 42.743088 10.630224C43.972559999999994 11.398655999999999 43.665216 10.937616 42.43574399999999 16.931279999999997C42.43574399999999 17.238671999999998 42.74304 17.392272 42.896736 17.084928C43.357775999999994 15.394416 44.587295999999995 12.167039999999998 44.279951999999994 10.937567999999999C43.972559999999994 10.01544 40.437792 8.171327999999999 39.054672 9.861839999999999C38.900976 10.169184 38.900976 10.630224 38.747279999999996 10.78392C37.056768 19.697568 37.056768 19.390176 37.36416 19.390176C37.517807999999995 19.543872 37.671504 19.54392 39.669408 10.322832Z" clip-rule="evenodd" stroke-width="1"></path><path fill="#000000" fill-rule="evenodd" d="M38.59368 26.152511999999998C38.439983999999995 27.381984 37.978944 29.072496 38.901024 30.301968C39.362064 30.916656 39.9768 31.377792 40.591536000000005 31.53144C41.974703999999996 31.685136 44.433648 29.687231999999998 44.74104 28.304064C45.048384 26.920896 44.126256 25.845072 43.818864 24.769295999999997C43.665216 24.461952 43.357824 24.615648 43.357824 24.922991999999997C43.665216 25.998768 44.4336 27.074592 44.126256 28.150368C43.818864 29.072496 41.667311999999995 30.916704 40.745232 30.763055999999995C40.284144 30.763055999999995 39.823103999999994 30.30192 39.51576 29.994576C38.747328 29.072496 39.05472 27.535584 39.05472 26.30616C39.05472 25.998768 38.593632 25.845119999999998 38.593632 26.152511999999998Z" clip-rule="evenodd" stroke-width="1"></path><path fill="#000000" fill-rule="evenodd" d="M37.9788 25.845263999999997C36.74928 28.150512 37.825056 29.687376 39.82296 31.070496C40.130352 31.224192 40.284048 30.916896 40.130352 30.7632C38.747184 29.53368 37.825104 27.996864 38.43984 26.152655999999997C38.43984 25.691616 37.9788 25.53792 37.9788 25.845263999999997Z" clip-rule="evenodd" stroke-width="1"></path><path fill="#000000" fill-rule="evenodd" d="M43.664975999999996 24.46176C45.048096 25.38384 46.12392 26.767008 46.585007999999995 28.457568C47.353392 31.377551999999998 46.12387199999999 32.607023999999996 44.12601599999999 34.297535999999994C43.203936 35.06592 42.281808 35.988048 41.359728 36.756432000000004C39.97656 37.678608 38.943839999999994 38.491728 37.714368 39.721152C37.560672000000004 39.87484799999999 37.868064 40.182192 38.021712 40.028496000000004C38.943839999999994 39.106415999999996 40.437647999999996 38.139599999999994 41.667072 37.371168C42.742848 36.756432000000004 43.664975999999996 35.834351999999996 44.587056000000004 35.06592C46.431264 33.529104 47.66088 32.299631999999995 47.507039999999996 29.840736C47.353344 27.842783999999998 46.12392 25.691232 43.818672 24.154415999999998C43.664975999999996 24.000719999999998 43.357583999999996 24.308064 43.664975999999996 24.46176Z" clip-rule="evenodd" stroke-width="1"></path><path fill="#000000" fill-rule="evenodd" d="M35.980944 12.935664C36.13464 13.08936 36.288336 13.243008 36.441984 13.396656C36.441984 13.704048 36.90312 13.704048 36.90312 13.396656S36.903072 12.78192 36.749376 12.474576C36.13464 11.552496 35.058864 12.62832 35.36620799999999 12.935664C35.36620799999999 13.243056 35.67359999999999 12.781968 35.980944 12.935664Z" clip-rule="evenodd" stroke-width="1"></path></svg>