<svg xmlns="http://www.w3.org/2000/svg" fill="none" viewBox="0 0 48 48" height="48" width="48" id="Chubby-Bubble-Girl--Streamline-Memes.svg"><desc>Chubby Bubble Girl Streamline Element: https://streamlinehq.com</desc><path stroke="#000000" stroke-linecap="round" stroke-linejoin="round" d="M34.943 9.76c3.52 1.067 4.314 3.398 4.289 5.108 -0.02 1.369 -0.471 2.223 -0.694 2.48 0.306 0.628 0.734 2.191 0 3.421 -0.918 1.537 -1.389 1.587 -1.81 2.008 -0.422 0.422 -0.447 1.438 -2.182 1.438 -1.736 0 -3.471 -1.09 -5.231 -2.652" stroke-width="1"></path><path stroke="#000000" stroke-linecap="round" stroke-linejoin="round" d="M38.997 12.989c0.478 -1.873 -1.136 -3.288 -2.65 -3.986 -1.515 -0.697 -2.67 -0.857 -2.97 -1.674" stroke-width="1"></path><path stroke="#000000" stroke-linecap="round" stroke-linejoin="round" d="M32.52 8.445c-1.793 0.319 -2.73 0.16 -4.045 0s-2.232 0.419 -2.83 1.036" stroke-width="1"></path><path stroke="#000000" stroke-linecap="round" stroke-linejoin="round" d="M27.658 9.68c-1.634 0.898 -2.97 1.415 -3.487 2.392 -0.518 0.977 -0.558 1.813 -1.634 2.092 -1.076 0.28 -1.355 0.797 -1.475 1.017" stroke-width="1"></path><path stroke="#000000" stroke-linecap="round" stroke-linejoin="round" d="M22.317 15.62c-0.657 1.255 -1.733 1.494 -2.212 2.869" stroke-width="1"></path><path stroke="#000000" stroke-linecap="round" stroke-linejoin="round" d="M33.577 9.9a6.7 6.7 0 0 0 -4.165 3.487 6.655 6.655 0 0 0 -0.578 2.212c-0.2 -0.498 -0.805 -1.482 -1.634 -1.434 -1.037 0.06 -1.654 1.195 -1.355 2.41 0.299 1.216 1.494 2.173 2.53 1.376" stroke-width="1"></path><path stroke="#000000" stroke-linecap="round" stroke-linejoin="round" d="M37.71 19.282c0.167 -0.247 0.4 -0.841 0 -1.242 -0.5 -0.5 -1.29 -0.135 -1.579 0.154 -0.289 0.289 -0.376 0.405 -1.184 0.703 0.471 0.385 0.722 1.175 1.232 1.415 0.51 0.241 0.876 0.03 1.02 -0.077" stroke-width="1"></path><path stroke="#000000" stroke-linecap="round" stroke-linejoin="round" d="M36.937 14.816c0.43 0.64 1.034 0.739 1.28 1.256 0.198 0.414 0.054 0.74 0 0.937" stroke-width="1"></path><path stroke="#000000" stroke-linecap="round" stroke-linejoin="round" d="M36.839 16.516a0.858 0.858 0 0 0 -0.334 0.185" stroke-width="1"></path><path stroke="#000000" stroke-linecap="round" stroke-linejoin="round" d="M33.548 14.348c0.715 -0.801 1.886 -0.887 2.095 0" stroke-width="1"></path><path stroke="#000000" stroke-linecap="round" stroke-linejoin="round" d="M35.205 14.078c0.006 0.292 -0.025 0.392 -0.045 0.539" stroke-width="1"></path><path stroke="#000000" stroke-linecap="round" stroke-linejoin="round" d="M35.54 12.597c-0.606 -0.439 -1.612 -0.336 -2.141 0" stroke-width="1"></path><path stroke="#000000" stroke-linecap="round" stroke-linejoin="round" d="M37.992 14.132c0.49 -0.155 0.852 0.073 1.097 0.232" stroke-width="1"></path><path stroke="#000000" stroke-linecap="round" stroke-linejoin="round" d="M28.157 20.549c-1.142 -0.955 -2.874 -2.181 -3.597 -2.676 -0.314 0.302 -1.002 1.03 -1.248 1.537 2.007 1.139 2.48 1.872 3.249 3.304 0.769 1.433 3.179 4.367 4.262 5.66 1.083 1.292 1.292 3.947 1.048 5.834 -0.196 1.509 -0.547 4.937 -0.699 6.462" stroke-width="1"></path><path stroke="#000000" stroke-linecap="round" stroke-linejoin="round" d="M29.39 21.625c2.031 2.76 2.587 4.926 2.836 6.555" stroke-width="1"></path><path stroke="#000000" stroke-linecap="round" stroke-linejoin="round" d="M23.368 19.402c-2.828 -0.585 -4.523 -0.292 -6.62 0 -2.096 0.293 -4.17 1.22 -5.779 1.658 -1.287 0.351 -2.227 1.642 -2.535 2.243 -0.456 0.195 -1.405 0.683 -1.56 1.073 -0.196 0.488 0.487 3.51 2.291 4.34a33.72 33.72 0 0 0 1.804 -0.341c0.309 0.227 1.395 0.614 3.267 0.34 2.34 -0.34 1.196 -0.292 2.513 -0.34 1.053 -0.04 2.096 -0.44 2.486 -0.634 -0.21 0.341 -0.672 1.326 -0.828 2.535 -0.195 1.512 -0.293 3.56 -0.634 4.876 -0.273 1.054 -1.447 3.788 -2 5.023" stroke-width="1"></path><path stroke="#000000" stroke-linecap="round" stroke-linejoin="round" d="M43.734 18.715c0.316 -1.18 0.97 -3.648 1.068 -4.075 0.121 -0.534 -2.208 -2.013 -3.833 -1.091a209.526 209.526 0 0 0 -0.898 5.748c-0.12 0.922 -0.897 4.9 -1.043 5.313 -0.145 0.412 0.607 0.97 1.723 1.116 0.892 0.116 1.552 -0.032 1.77 -0.121" stroke-width="1"></path><path stroke="#000000" stroke-linecap="round" stroke-linejoin="round" d="M44.303 26.083c0.032 -0.83 0.687 -1.933 0.815 -3.035 0.102 -0.882 -0.33 -1.678 -0.559 -1.965 0.07 -0.288 0.131 -0.917 -0.176 -1.135 -0.383 -0.271 -1.645 -0.24 -1.98 0.144a0.748 0.748 0 0 0 -0.112 0.815c-0.288 0.064 -0.879 0.08 -1.07 0.495 -0.155 0.334 -0.144 1.007 0.19 1.15 -0.35 0.607 -0.462 1.374 0.209 1.518 0.67 0.144 1.182 0.351 1.517 0.591" stroke-width="1"></path><path stroke="#000000" stroke-linecap="round" stroke-linejoin="round" d="M41.46 22.552c1.054 -0.08 1.837 0.176 2.172 0.384" stroke-width="1"></path><path stroke="#000000" stroke-linecap="round" stroke-linejoin="round" d="M42.259 20.923c0.498 -0.064 0.92 0.037 1.07 0.096" stroke-width="1"></path><path stroke="#000000" stroke-linecap="round" stroke-linejoin="round" d="M40.76 25.84c-0.018 1.683 0.366 3.164 0.714 3.584 0.347 0.421 0.86 0.421 1.518 0.092 0.658 -0.33 1.5 -0.567 1.865 -1.445 0.366 -0.878 0.439 -1.316 0.31 -1.774" stroke-width="1"></path><path stroke="#000000" stroke-linecap="round" stroke-linejoin="round" d="M37.89 22.274c0.175 0.659 0.938 0.945 1.298 1.006" stroke-width="1"></path><path stroke="#000000" stroke-linecap="round" stroke-linejoin="round" d="M44.83 24.6c2.163 0.656 2.688 3.18 2.425 4.818 -0.262 1.64 -2.524 2.655 -3.376 3.442 -0.682 0.63 -2.229 2.25 -3.18 3.245" stroke-width="1"></path><path stroke="#000000" stroke-linecap="round" stroke-linejoin="round" d="M37.586 23.945c-1.77 3.474 -1.475 6.686 -1.246 9.177 0.23 2.492 2.164 4.753 2.295 7.54" stroke-width="1"></path><path stroke="#000000" stroke-linecap="round" stroke-linejoin="round" d="M38.831 27.32c-0.885 2.623 -0.459 6.523 0 7.638 0.46 1.114 1.54 2.917 1.672 3.77 0.105 0.681 0.197 1.573 0.23 1.933" stroke-width="1"></path><path stroke="#000000" stroke-linecap="round" stroke-linejoin="round" d="M8.751 23.64c0.31 2.137 1.235 3.253 1.568 3.68" stroke-width="1"></path><path stroke="#000000" stroke-linecap="round" stroke-linejoin="round" d="M34.049 16.672c0.348 1.203 -0.292 2.326 -1.029 2.738" stroke-width="1"></path><path stroke="#000000" stroke-linecap="round" stroke-linejoin="round" d="M5.69 25.529c-1.11 0.533 -3.2 1.28 -4.225 2.069 -1.024 0.79 -0.896 1.899 -0.448 1.984 0.359 0.068 0.718 -0.128 0.854 -0.235 0.05 0.22 0.32 0.649 1.002 0.598 0.683 -0.051 2.262 -0.846 2.966 -1.238 0.391 0.114 1.344 0.226 2.027 -0.234" stroke-width="1"></path><path stroke="#000000" stroke-linecap="round" stroke-linejoin="round" d="M1.85 29.326c0.32 -0.853 1.28 -1.45 2.09 -1.728" stroke-width="1"></path></svg>