<svg xmlns="http://www.w3.org/2000/svg" fill="none" viewBox="0 0 48 48" height="48" width="48" id="Computer-Guy-Meme--Streamline-Memes.svg"><desc>Computer Guy Meme Streamline Element: https://streamlinehq.com</desc><path stroke="#000000" stroke-linecap="round" stroke-linejoin="round" d="m0.875 38.148 2.086 -2.407h7.766l1.413 -0.577 2.31 2.054 -2.76 0.93H0.875Z" stroke-width="1"></path><path stroke="#000000" stroke-linecap="round" stroke-linejoin="round" d="m2.993 35.709 1.733 -12.292h7.285l1.348 3.948 -1.123 7.766" stroke-width="1"></path><path stroke="#000000" stroke-linecap="round" stroke-linejoin="round" d="m12.075 23.481 -1.444 12.196 1.091 2.375" stroke-width="1"></path><path stroke="#000000" stroke-linecap="round" stroke-linejoin="round" d="M3.699 30.381 0.586 20.145v-3.627l1.283 -1.316h15.085l3.915 17.138 -1.22 1.124 -6.964 0.417" stroke-width="1"></path><path stroke="#000000" stroke-linecap="round" stroke-linejoin="round" d="m0.746 16.581 14.763 0.385 3.884 16.4" stroke-width="1"></path><path stroke="#000000" stroke-linecap="round" stroke-linejoin="round" d="M0.682 20.111h13.062l3.081 12.164h-3.744" stroke-width="1"></path><path stroke="#000000" stroke-linecap="round" stroke-linejoin="round" d="m16.697 32.34 2.76 1.123" stroke-width="1"></path><path stroke="#000000" stroke-linecap="round" stroke-linejoin="round" d="m13.84 20.08 1.798 -3.114 1.22 -1.508" stroke-width="1"></path><path stroke="#000000" stroke-linecap="round" stroke-linejoin="round" d="m0.586 36.24 1.758 0" stroke-width="1"></path><path stroke="#000000" stroke-linecap="round" stroke-linejoin="round" d="M21.016 34.824h2.086l2.857 0.975v0.94h-9.622" stroke-width="1"></path><path stroke="#000000" stroke-linecap="round" stroke-linejoin="round" d="M23.169 34.925v1.68" stroke-width="1"></path><path stroke="#000000" stroke-linecap="round" stroke-linejoin="round" d="M43.101 25.647c2.42 3.657 2.779 8.516 2.656 10.488" stroke-width="1"></path><path stroke="#000000" stroke-linecap="round" stroke-linejoin="round" d="M43.639 26.656c0.202 3.126 -0.908 7.764 -2.454 10.016 -1.344 -8.067 -4.706 -14.42 -8.974 -14.453 -4.27 -0.034 -5.11 8.269 -2.79 14.453 4.813 -2.527 9.22 -7.394 10.823 -9.512" stroke-width="1"></path><path stroke="#000000" stroke-linecap="round" stroke-linejoin="round" d="M47.202 14.992c-0.706 -3.462 -5.367 -7.42 -11.899 -6.487 -2.753 0.393 -5.445 1.008 -7.092 4.336 -1.647 3.328 -1.883 8.605 1.647 12.638 3.53 4.034 10.084 2.353 13.176 0 3.092 -2.352 4.874 -7.025 4.168 -10.487Z" stroke-width="1"></path><path stroke="#000000" stroke-linecap="round" stroke-linejoin="round" d="M26.33 17.397c1.702 0.412 3.431 0.696 4.515 -0.388" stroke-width="1"></path><path stroke="#000000" stroke-linecap="round" stroke-linejoin="round" d="M34.535 16.656c0 0.703 0.8 0.849 1.935 0.615 0.909 -0.188 3.234 -0.917 4.283 -1.258 0.439 1.14 0.831 3.54 -1.11 4.007 -2.425 0.585 -4.308 0.264 -4.618 -2.398" stroke-width="1"></path><path stroke="#000000" stroke-linecap="round" stroke-linejoin="round" d="M30.243 18.053c0.49 1.239 -0.052 3.045 -2.813 2.348" stroke-width="1"></path><path stroke="#000000" stroke-linecap="round" stroke-linejoin="round" d="m36.941 18.436 0 0.345" stroke-width="1"></path><path stroke="#000000" stroke-linecap="round" stroke-linejoin="round" d="M33.263 16.64c-0.114 0.796 0.09 1.25 0.204 1.5" stroke-width="1"></path><path stroke="#000000" stroke-linecap="round" stroke-linejoin="round" d="M32.035 17.169c0.023 0.267 -0.05 0.7 -0.089 0.884" stroke-width="1"></path><path stroke="#000000" stroke-linecap="round" stroke-linejoin="round" d="M31.78 24.185c0.81 -0.517 1.292 -0.138 1.568 0.155" stroke-width="1"></path><path stroke="#000000" stroke-linecap="round" stroke-linejoin="round" d="m32.564 36.276 7.357 0" stroke-width="1"></path><path stroke="#000000" stroke-linecap="round" stroke-linejoin="round" d="M26.038 36.276h1.943" stroke-width="1"></path><path stroke="#000000" stroke-linecap="round" stroke-linejoin="round" d="m0.746 39.634 46.61 0" stroke-width="1"></path><path stroke="#000000" stroke-linecap="round" stroke-linejoin="round" d="M42.798 36.364h4.616" stroke-width="1"></path><path stroke="#000000" stroke-linecap="round" stroke-linejoin="round" d="m28.357 18.968 0 0.178" stroke-width="1"></path></svg>