<svg xmlns="http://www.w3.org/2000/svg" fill="none" viewBox="0 0 48 48" height="48" width="48" id="Computer-Guy-Meme-Hand-Drawn--Streamline-Memes.svg"><desc>Computer Guy Meme Hand Drawn Streamline Element: https://streamlinehq.com</desc><path fill="#000000" fill-rule="evenodd" d="M39.593856 4.90008C37.491456 4.218192 36.150624 3.72408 30.950208 4.794768C29.420688 5.100672 28.01136 5.559552 26.787744 6.477264C23.116896 9.536304 21.434447999999996 16.41912 23.116896 20.548848C25.564128 26.972831999999997 33.517632 30.949584 39.788688 27.431711999999997C41.471184 26.514 42.847775999999996 24.98448 44.071391999999996 23.455008C46.660224 20.218896 48.313824 15.51312 47.130384 11.37168C46.365648 8.924448 43.459584 6.171359999999999 41.012304 5.10072C40.7064 4.947744 40.553472 5.406575999999999 40.859376 5.559552C41.930016 6.018383999999999 42.847775999999996 6.630192 43.76544 7.547904C49.586736 13.369104 45.578976 22.487232 39.482831999999995 26.666976C33.670607999999994 29.878943999999997 26.328912 26.055168 24.034656000000002 20.090016C22.505136 16.113263999999997 24.034656000000002 9.689232 27.3996 6.78312C29.082095999999996 5.406575999999999 34.129439999999995 4.64184 36.423744 4.794768C37.494431999999996 4.947744 38.412144 5.100672 39.482831999999995 5.406575999999999C39.788688 5.559552 39.992399999999996 5.029344 39.593856 4.90008Z" clip-rule="evenodd" stroke-width="1"></path><path fill="#000000" fill-rule="evenodd" d="M28.623264 15.04296C28.623264 15.195888 27.858528 16.419503999999996 27.705552 16.572480000000002C27.399648 16.725407999999998 27.705503999999998 17.18424 28.011456 16.878384C28.679184 16.451616 29.048544 15.910847999999998 29.082095999999996 15.04296C29.082095999999996 14.890032 28.705583999999998 14.782896 28.623264 15.04296Z" clip-rule="evenodd" stroke-width="1"></path><path fill="#000000" fill-rule="evenodd" d="M29.999904 15.042672C29.999904 15.348527999999998 29.999904 15.548736 30.102048 15.957360000000001C30.254976 16.569119999999998 30.611711999999997 17.031024 31.376447999999996 17.183952C31.682304000000002 17.336879999999997 31.835327999999997 16.878048 31.529376 16.725071999999997C31.070543999999998 16.419168 30.76464 15.654431999999998 30.458736 14.889695999999999C30.30576 14.583791999999999 29.999904 14.736768 29.999904 15.042672Z" clip-rule="evenodd" stroke-width="1"></path><path fill="#000000" fill-rule="evenodd" d="M31.529232 15.042767999999999C32.14104 17.031119999999998 34.588271999999996 16.11336 36.7296 15.348624C37.494336000000004 15.04272 38.717999999999996 14.583887999999998 39.941615999999996 13.97208C40.24752 13.819104 40.094544 13.360272 39.78864 13.5132C37.800288 14.277983999999998 35.353055999999995 14.889791999999998 34.129392 15.195647999999998C33.211728 15.5016 32.293968 15.654576 31.835136 14.736816C31.835136 14.583887999999998 31.376303999999998 14.736816 31.529232 15.042767999999999Z" clip-rule="evenodd" stroke-width="1"></path><path fill="#000000" fill-rule="evenodd" d="M32.59992 15.96024C32.294016 20.395871999999997 38.717999999999996 20.5488 40.400496 16.724975999999998C41.165232 15.195504 40.553424 13.36008 39.941615999999996 13.513056C39.482783999999995 13.818959999999999 40.706352 14.430767999999999 39.788688 16.41912C38.259167999999995 19.325232 33.0588 19.47816 33.0588 15.96024C33.0588 15.807312 32.59992 15.654384 32.59992 15.96024Z" clip-rule="evenodd" stroke-width="1"></path><path fill="#000000" fill-rule="evenodd" d="M35.877408 16.434144C35.658912 16.352975999999998 35.2968 16.565472 35.203151999999996 16.896288C35.05017599999999 17.20224 35.590512 17.725344 36.049392000000005 17.41944C36.616032 17.04168 36.45768 16.509216 35.877408 16.434144C36.030336 16.434144 36.030336 16.434144 35.877408 16.434144Z" clip-rule="evenodd" stroke-width="1"></path><path fill="#000000" fill-rule="evenodd" d="M28.470288 22.384511999999997C29.999807999999998 20.549088 31.835232 19.784352 33.51768 21.619776C33.670704 21.925632 34.129487999999995 21.619728 33.823632 21.313823999999997C33.058896 20.243184 31.529327999999996 19.478448 30.305711999999996 19.93728C29.387999999999998 20.39616 28.623264 21.313823999999997 28.164384000000002 22.078608C27.85848 22.384511999999997 28.317311999999998 22.537488 28.470288 22.384511999999997Z" clip-rule="evenodd" stroke-width="1"></path><path fill="#000000" fill-rule="evenodd" d="M31.682256 22.38432C32.44704 22.38432 32.44704 22.690223999999997 32.599968 22.38432C32.752896 22.078415999999997 31.988159999999997 21.772512 31.682256 21.619536C30.611615999999998 21.313632 29.693856 22.231391999999996 29.999807999999998 22.537247999999998C30.152735999999997 22.8432 30.458688 22.38432 31.682256 22.38432Z" clip-rule="evenodd" stroke-width="1"></path><path fill="#000000" fill-rule="evenodd" d="M22.352159999999998 14.430432C23.4228 15.04224 24.646416 15.959951999999998 26.023007999999997 15.959951999999998C27.552528 15.806975999999999 27.858432 14.43048 27.3996 14.277552C26.787744 14.124576 27.552528 15.807024 24.49344 14.736336C22.352111999999998 13.9716 22.352111999999998 13.818672000000001 22.199184 14.124576C22.199184 14.277504 22.352159999999998 14.430432 22.352159999999998 14.430432Z" clip-rule="evenodd" stroke-width="1"></path><path fill="#000000" fill-rule="evenodd" d="M22.96392 17.796048C23.269824 18.101903999999998 23.881584 18.560784 24.493392 18.560784C27.0936 18.866736 27.399552 15.348768 26.634815999999997 15.348768C26.175936 15.348768 26.634815999999997 16.266527999999997 25.870032 17.18424C25.258224 17.948976000000002 23.881632 17.796048 23.116847999999997 17.337168000000002C22.96392 17.337168000000002 22.658016 17.643072 22.96392 17.796048Z" clip-rule="evenodd" stroke-width="1"></path><path fill="#000000" d="M24.034656000000002 16.878336C24.34056 17.184192 24.95232 16.878336 24.95232 16.572432C24.95232 16.419503999999996 24.799391999999997 16.266527999999997 24.646464 16.113504C24.22992 15.846816 23.483136 16.326767999999998 24.034656000000002 16.878336Z" stroke-width="1"></path><path fill="#000000" fill-rule="evenodd" d="M41.012304 26.361119999999996C43.918368 29.42016 44.83608 34.467600000000004 45.294912 38.59728C45.294912 38.903231999999996 45.753792000000004 38.903231999999996 45.753792000000004 38.59728C45.294912 33.549839999999996 45.141984 29.573088 41.31816 26.055215999999998C41.012256 25.749264 40.706352 26.055215999999998 41.012304 26.361119999999996Z" clip-rule="evenodd" stroke-width="1"></path><path fill="#000000" fill-rule="evenodd" d="M39.361343999999995 37.860912C38.749536 31.742831999999996 38.192544 24.0852 32.90592 20.854512C30.152831999999997 19.172016 26.787888 19.324991999999998 22.658160000000002 22.842864C22.505184 22.995791999999998 22.505184 22.99584 22.658160000000002 23.148767999999997C22.964064 23.454672 23.116992 22.995791999999998 24.340656 22.078128C29.23512 18.56016 35.200272 20.395632000000003 37.3416 30.337584C38.106336 33.702528 38.565216 39.82056 38.565216 39.973535999999996C38.718144 40.279439999999994 39.024048 40.279439999999994 39.177023999999996 39.973535999999996C41.624256 36.149711999999994 42.641231999999995 30.851663999999996 41.723472 26.416031999999998C41.723472 26.110176 41.26464 26.263104 41.26464 26.569056C41.723472 30.175535999999997 41.022912 33.631488 39.361343999999995 37.860912Z" clip-rule="evenodd" stroke-width="1"></path><path fill="#000000" fill-rule="evenodd" d="M22.63656 22.893887999999997C18.965711999999996 27.176544 19.271568 33.294672 21.107039999999998 38.495039999999996C21.259968 38.800944 21.792768 38.29824 21.792768 37.992336C20.416176 33.556751999999996 20.189328 26.717712 22.942463999999998 23.199792C23.24832 22.893887999999997 22.942463999999998 22.74096 22.636512 22.893887999999997Z" clip-rule="evenodd" stroke-width="1"></path><path fill="#000000" fill-rule="evenodd" d="M21.554688 38.753375999999996C27.06096 35.235504 28.754496 32.989344 32.57832 28.706688C32.731248 28.55376 32.425344 28.247856 32.272368 28.400784C29.672208 31.153919999999996 24.292607999999998 35.689631999999996 21.233568 37.983936C20.774736 38.136864 21.248784 38.906352 21.55464 38.753375999999996Z" clip-rule="evenodd" stroke-width="1"></path><path fill="#000000" fill-rule="evenodd" d="M15.163343999999999 38.1384C17.457648 38.291376 16.998768 38.444351999999995 20.822592 38.1384C21.128496 38.1384 21.128496 37.679616 20.822592 37.679616C18.069456 37.52663999999999 17.91648 37.373664 15.163343999999999 37.679616C14.857487999999998 37.679616 14.857487999999998 38.1384 15.163343999999999 38.1384Z" clip-rule="evenodd" stroke-width="1"></path><path fill="#000000" fill-rule="evenodd" d="M23.26992 38.138591999999996C31.835232 38.597471999999996 33.058848000000005 38.138591999999996 38.718047999999996 38.291616C39.023951999999994 38.291616 39.023951999999994 37.832736000000004 38.718047999999996 37.832736000000004C29.693856 37.373855999999996 29.540927999999997 37.679808 23.26992 37.679808C22.963967999999998 37.679808 22.963967999999998 38.138591999999996 23.26992 38.138591999999996Z" clip-rule="evenodd" stroke-width="1"></path><path fill="#000000" fill-rule="evenodd" d="M40.232639999999996 38.326944000000005C41.609232 38.632848 41.30328 38.47987199999999 42.832848 38.326944000000005C43.138704 38.326944000000005 43.138704 37.868064 42.832848 37.868064C41.30332799999999 37.56216 40.997423999999995 37.715087999999994 40.232639999999996 37.868064C39.926736 37.868064 39.926736 38.326944000000005 40.232639999999996 38.326944000000005Z" clip-rule="evenodd" stroke-width="1"></path><path fill="#000000" fill-rule="evenodd" d="M42.804624 38.13816C37.298351999999994 41.350176 40.204416 39.667728 34.851071999999995 43.338576C34.545168 43.491552 34.851071999999995 43.950384 35.15702399999999 43.797408000000004C40.357392 40.891344 41.428079999999994 39.820704 43.110527999999995 38.59704C43.263456 38.291184 43.110527999999995 37.985232 42.804624 38.13816Z" clip-rule="evenodd" stroke-width="1"></path><path fill="#000000" fill-rule="evenodd" d="M42.9708 38.138112C42.817872 39.82056 42.817872 39.973487999999996 43.276704 42.267792C43.276704 42.573696 43.735583999999996 42.573696 43.735583999999996 42.267792C43.735583999999996 39.82056 43.888512 40.432415999999996 43.429632 38.138112C43.429632 37.832207999999994 42.9708 37.832207999999994 42.9708 38.138112Z" clip-rule="evenodd" stroke-width="1"></path><path fill="#000000" fill-rule="evenodd" d="M3.386208 14.889552C4.762752 14.889552 7.210031999999999 15.195407999999999 14.398751999999998 15.501359999999998C14.704655999999998 15.501359999999998 14.704655999999998 15.04248 14.398751999999998 15.04248C9.963168 14.583599999999999 8.892479999999999 14.12472 3.2332319999999997 14.430624C3.080304 14.430624 3.080304 14.889552 3.386208 14.889552Z" clip-rule="evenodd" stroke-width="1"></path><path fill="#000000" fill-rule="evenodd" d="M14.398655999999999 16.877904C14.398655999999999 34.826784 14.220191999999999 17.590656 14.373168 34.874208C13.302527999999999 35.638992 13.302527999999999 35.638992 12.843648 35.791968C11.925936 35.944896 10.855248 35.638943999999995 11.008224 36.250752C11.008224 36.403776 11.161200000000001 36.403776 11.314128 36.403776C11.925936 36.2508 12.384768 36.403776 12.996576 36.403776C13.608384 36.2508 13.761408 36.250752 14.832047999999999 35.486016C15.443856 35.18016 14.857536 18.560351999999998 14.857536 17.03088C14.857536 16.572 14.398655999999999 16.572 14.398655999999999 16.877904Z" clip-rule="evenodd" stroke-width="1"></path><path fill="#000000" fill-rule="evenodd" d="M8.76888 21.898464C11.521968 17.768736 11.521968 17.768736 12.133776 17.46288C13.204464 16.851024 14.886911999999999 16.545167999999997 14.581055999999998 16.086288C14.581055999999998 15.933359999999999 14.428128 15.933359999999999 14.275103999999999 15.933359999999999C11.522016 17.309904 11.674944 15.168575999999998 8.31 21.59256C8.157024 21.898511999999997 8.615904 22.204368 8.76888 21.898464Z" clip-rule="evenodd" stroke-width="1"></path><path fill="#000000" fill-rule="evenodd" d="M2.927184 17.03064C5.068512 17.03064 8.433456 17.336544 10.727711999999999 17.489472C9.810048 24.066432 10.421856 29.878656 10.421856 35.996688C10.421856 36.30264 10.880688 36.30264 10.880688 35.996688C11.033663999999998 33.396527999999996 11.033663999999998 24.52536 11.186592 22.689888C11.492496 17.336544 11.798399999999999 17.03064 11.492496 16.724736C11.186592 16.265856 3.8448959999999994 16.418832 2.927184 16.418832C2.62128 16.57176 2.62128 17.03064 2.927184 17.03064Z" clip-rule="evenodd" stroke-width="1"></path><path fill="#000000" fill-rule="evenodd" d="M2.162496 21.619487999999997C4.609728 22.078368 5.833343999999999 21.92544 7.974672 22.231295999999997C7.515791999999999 26.666928 7.821744 29.725967999999998 8.127600000000001 34.008672C8.127600000000001 35.079312 9.351263999999999 35.69112 10.268975999999999 36.302976C10.574879999999999 36.455904 10.727808 36.149952 10.574879999999999 35.997023999999996C9.963071999999999 35.538144 8.892384 34.926336 8.892384 34.1616C8.892384 27.737616 8.739408 27.12576 8.892384 24.372624C9.04536 21.925392 9.198288 21.619487999999997 8.739456 21.46656C6.751056 21.313584 4.150896 21.313584 2.6213759999999997 21.160656C2.0095680000000002 21.160656 1.856592 21.619487999999997 2.162496 21.619487999999997Z" clip-rule="evenodd" stroke-width="1"></path><path fill="#000000" fill-rule="evenodd" d="M2.9233919999999998 36.578496C4.305696 36.664848 5.848224 36.89664 10.722288 36.355056C11.027807999999999 36.340272 11.005632 35.88196799999999 10.700111999999999 35.89675199999999C10.089023999999998 35.926272 8.088239999999999 35.716559999999994 6.102144 35.812464C5.032704 35.864112 3.359568 36.098016 3.054048 36.1128C2.595696 36.134927999999995 2.617824 36.593232 2.9233919999999998 36.578496Z" clip-rule="evenodd" stroke-width="1"></path><path fill="#000000" fill-rule="evenodd" d="M2.4684959999999996 38.597376C4.30392 38.597376 9.198383999999999 38.90328 11.339712 39.056208V40.432751999999994C7.974768 40.432751999999994 5.37456 40.432751999999994 2.31552 40.585728C2.009616 40.585728 2.009616 41.044608000000004 2.31552 41.044608000000004C11.49264 41.044608000000004 12.104448 41.656416 12.104448 40.89168C12.104448 39.209184 12.257424 38.4444 11.645616 38.4444C8.280624 37.98552 5.37456 38.005296 2.4684959999999996 38.005296C2.31552 37.852368 2.1625919999999996 38.597376 2.4684959999999996 38.597376Z" clip-rule="evenodd" stroke-width="1"></path><path fill="#000000" fill-rule="evenodd" d="M11.492592 38.750016C12.716208 38.597088 13.633968 38.750016 14.704607999999999 38.750016S15.62232 38.59704 15.62232 39.208848C15.62232 39.5148 15.775296 39.5148 14.398703999999999 39.973632C11.951472 40.891344 11.798544 40.738416 11.798544 41.1972C11.798544 41.350176 11.951472 41.350176 12.1044 41.350176C16.998912 40.126608 16.69296 40.279536 16.234128 38.291136C16.081152 37.832304 15.469344 37.985232 14.704607999999999 37.985232C13.480944 37.985232 12.410352 38.13816 11.339664 38.444112C11.186736 38.291184 11.339664 38.750016 11.492592 38.750016Z" clip-rule="evenodd" stroke-width="1"></path><path fill="#000000" fill-rule="evenodd" d="M1.397712 24.831888C2.315424 24.831888 3.386112 24.984816 4.456752 24.984816C2.9272319999999996 28.196832 1.397712 32.632416 0.48 35.844384C0.48 35.99736 0.48 36.150288 0.632976 36.150288C0.9388799999999999 36.303264 0.7859039999999999 36.303264 2.162496 32.632464C5.374464 24.373008 5.5274399999999995 24.678912 5.2215359999999995 24.525935999999998C5.06856 24.220031999999996 5.2215359999999995 24.37296 1.397712 24.37296C1.091808 24.37296 1.091808 24.831888 1.397712 24.831888Z" clip-rule="evenodd" stroke-width="1"></path><path fill="#000000" fill-rule="evenodd" d="M2.4684 39.056400000000004C2.7743519999999995 37.985712 3.386112 36.609168 4.609728 32.479487999999996C5.833392 28.655663999999998 5.5274399999999995 29.879279999999998 5.374511999999999 24.678912C5.374511999999999 24.525935999999998 5.221583999999999 24.525888 5.068607999999999 24.525888C4.762703999999999 24.525888 4.91568 24.525935999999998 4.762703999999999 27.737904C4.609776 30.94992 2.9272799999999997 33.397152 1.8566399999999998 39.056400000000004C2.0095680000000002 39.209328 2.3154719999999998 39.362304 2.4684 39.056400000000004Z" clip-rule="evenodd" stroke-width="1"></path><path fill="#000000" fill-rule="evenodd" d="M8.586384 34.467696C6.598032 34.314672 6.903936 34.161744 3.6919199999999996 34.620624C3.3860159999999997 34.620624 3.3860159999999997 35.079504 3.6919199999999996 35.079504C6.139151999999999 35.232431999999996 6.139151999999999 35.232479999999995 8.586384 34.926528C8.892288 34.926528 8.892288 34.467696 8.586384 34.467696Z" clip-rule="evenodd" stroke-width="1"></path></svg>