<svg xmlns="http://www.w3.org/2000/svg" fill="none" viewBox="0 0 48 48" height="48" width="48" id="Confused-Black-Girl--Streamline-Memes.svg"><desc>Confused Black Girl Streamline Element: https://streamlinehq.com</desc><path stroke="#000000" stroke-linecap="round" stroke-linejoin="round" d="M42.166 12.906c2.074 2.557 1.736 5.161 1.591 7.621 -0.144 2.46 -0.386 3.907 -0.53 5.403 -0.145 1.495 -1.061 4.293 -2.46 5.257 -1.4 0.965 -2.22 2.412 -3.763 2.557 -1.543 0.144 -3.376 0.048 -4.823 -0.724 -1.158 -0.617 -1.962 -1.479 -2.219 -1.833" stroke-width="1"></path><path stroke="#000000" stroke-linecap="round" stroke-linejoin="round" d="M28.516 19.57c-0.488 -0.523 -1.43 -1.22 -2.092 -0.732 -0.662 0.488 -0.907 2.79 -0.697 4.01 0.209 1.22 1.046 2.162 2.057 1.918" stroke-width="1"></path><path stroke="#000000" stroke-linecap="round" stroke-linejoin="round" d="M27.122 18.664c0.139 -1.57 0.209 -3.069 0.244 -4.429 0.035 -1.36 1.22 -3.73 2.929 -4.916 1.756 -1.219 5.544 -1.674 8.194 -0.872 2.4 0.726 3.383 2.266 3.662 3.417" stroke-width="1"></path><path stroke="#000000" stroke-linecap="round" stroke-linejoin="round" d="M28.546 13.513c1.279 -1.426 3.983 -2.41 6.467 -2.68 2.483 -0.27 4.843 0.295 5.95 1.107" stroke-width="1"></path><path stroke="#000000" stroke-linecap="round" stroke-linejoin="round" d="M34.179 8.003c0.142 -1.51 1.085 -2.335 2.311 -2.24 0.982 0.075 1.479 0.975 1.604 1.415" stroke-width="1"></path><path stroke="#000000" stroke-linecap="round" stroke-linejoin="round" d="M32.198 8.404c-0.92 -1.156 -2.43 -1.156 -3.279 -0.637 -0.85 0.52 -1.698 1.628 -1.392 2.43" stroke-width="1"></path><path stroke="#000000" stroke-linecap="round" stroke-linejoin="round" d="M34.391 4.513c1.486 -1.25 4.718 -0.543 5.543 2.854" stroke-width="1"></path><path stroke="#000000" stroke-linecap="round" stroke-linejoin="round" d="M34.438 4.536c0.142 -1.297 0.496 -2.547 0.897 -3.16" stroke-width="1"></path><path stroke="#000000" stroke-linecap="round" stroke-linejoin="round" d="M26.041 9.513c0.024 -2.028 0.755 -3.231 1.958 -3.868 0.963 -0.51 1.88 -0.511 2.217 -0.448 -0.18 -0.228 -0.674 -0.727 -1.203 -0.897" stroke-width="1"></path><path stroke="#000000" stroke-linecap="round" stroke-linejoin="round" d="M31.349 4.654c0.235 -2.005 1.415 -2.925 2.618 -3.538" stroke-width="1"></path><path stroke="#000000" stroke-linecap="round" stroke-linejoin="round" d="M34.514 21.476c1.531 -0.255 2.887 0.08 3.382 0.623" stroke-width="1"></path><path fill="#000000" d="M34.985 21.552c0.126 1.327 1.383 1.376 1.844 0.344a5.829 5.829 0 0 0 -1.844 -0.344Z" stroke-width="1"></path><path fill="#000000" d="M40.892 22.775c0.408 1.266 1.278 1.099 1.342 0.019a3.036 3.036 0 0 0 -1.342 -0.02Z" stroke-width="1"></path><path stroke="#000000" stroke-linecap="round" stroke-linejoin="round" d="M40.796 22.794c0.785 -0.364 1.78 -0.098 2.088 0.14" stroke-width="1"></path><path stroke="#000000" stroke-linecap="round" stroke-linejoin="round" d="M34.127 20.015c1.466 -0.663 3.514 -0.302 4.096 0" stroke-width="1"></path><path stroke="#000000" stroke-linecap="round" stroke-linejoin="round" d="M40.774 20.999c0.964 -0.273 2.035 -0.007 2.45 0.16" stroke-width="1"></path><path stroke="#000000" stroke-linecap="round" stroke-linejoin="round" d="M40.56 24.75c0.602 0.702 0.843 1.546 0.522 1.927" stroke-width="1"></path><path stroke="#000000" stroke-linecap="round" stroke-linejoin="round" d="M37.721 25.718c0.523 -0.049 1.145 0.321 1.386 0.783" stroke-width="1"></path><path stroke="#000000" stroke-linecap="round" stroke-linejoin="round" d="M35.628 29.607c0.313 0.544 1.25 1.398 2.617 1.584 1.477 0.202 2.257 0.12 2.45 -0.336 0.191 -0.456 0.266 -1.057 -1.03 -1.249 -1.038 -0.153 -2.28 -0.059 -2.672 -0.139" stroke-width="1"></path><path stroke="#000000" stroke-linecap="round" stroke-linejoin="round" d="M36.109 28.526c1.395 -0.622 2.97 -0.883 3.966 -0.566 0.53 0.168 0.82 0.633 0.718 1.006" stroke-width="1"></path><path stroke="#000000" stroke-linecap="round" stroke-linejoin="round" d="M25.675 22.184c-0.49 1.896 -1.864 3.27 -2.55 3.597 -0.55 0.261 -3.325 1.308 -4.644 1.798" stroke-width="1"></path><path stroke="#000000" stroke-linecap="round" stroke-linejoin="round" d="M5.556 46.829c-2.022 -3.86 -1.777 -7.66 0 -11.09 1.777 -3.432 2.39 -4.657 4.534 -5.515 1.716 -0.686 5.535 -1.797 7.23 -2.267 0.43 1.143 1.692 3.921 3.31 5.882" stroke-width="1"></path><path stroke="#000000" stroke-linecap="round" stroke-linejoin="round" d="M16.112 44.698c-2.138 -1.695 -4.791 -2.654 -5.381 -4.57 -0.59 -1.916 -0.81 -3.575 0 -3.76 0.649 -0.147 1.155 0.43 1.327 0.738 0.27 -0.123 0.884 -0.243 1.179 0.258 0.368 0.627 0.81 1.732 1.364 2.543 0.442 0.649 0.945 1.106 1.142 1.253 -0.123 -0.762 -0.221 -2.462 0.369 -3.17 0.737 -0.884 1.363 -0.073 1.621 0.222 0.206 0.235 0.233 1.375 0.221 1.916 0.307 -1.02 1.091 -3.199 1.77 -3.76 0.677 -0.56 1.117 -0.478 1.252 -0.368 0.16 -0.65 0.693 -1.798 1.548 -1.179 0.855 0.62 0.037 2.985 -0.479 4.09 0.43 0.627 1.128 2.168 0.48 3.318 -0.65 1.15 -1.057 1.806 -1.18 1.99l0.295 1.069c-0.492 0.172 -1.88 0.479 -3.502 0.479 -0.739 0 -1.43 -0.332 -1.43 -0.48" stroke-width="1"></path><path stroke="#000000" stroke-linecap="round" stroke-linejoin="round" d="M12.036 37.121c-0.36 0.421 -0.27 1.594 0 2.586" stroke-width="1"></path><path stroke="#000000" stroke-linecap="round" stroke-linejoin="round" d="M20.968 36.095c0.501 0.465 0.215 1.538 -0.125 2.576 -0.272 0.83 -0.674 1.753 -0.84 2.11" stroke-width="1"></path><path stroke="#000000" stroke-linecap="round" stroke-linejoin="round" d="m21.578 45.466 0.709 1.182" stroke-width="1"></path><path stroke="#000000" stroke-linecap="round" stroke-linejoin="round" d="M35.712 33.932c2.553 2.221 3.83 4.727 4.35 7.563 0.415 2.27 0.96 4.538 1.18 5.39" stroke-width="1"></path><path stroke="#000000" stroke-linecap="round" stroke-linejoin="round" d="M24.036 37.099c2.363 2.41 6.192 3.12 9.785 0.945 -0.605 -1.21 -0.725 -2.773 -0.709 -3.403" stroke-width="1"></path><path stroke="#000000" stroke-linecap="round" stroke-linejoin="round" d="M32.316 33.196c-0.957 0.58 -1.567 1.268 -1.752 1.538" stroke-width="1"></path><path stroke="#000000" stroke-linecap="round" stroke-linejoin="round" d="M29.74 19.25c-0.03 -1.443 0.74 -3.507 1.128 -4.36 0.476 -0.012 1.533 0.114 1.954 0.715" stroke-width="1"></path><path stroke="#000000" stroke-linecap="round" stroke-linejoin="round" d="M40.638 12.862c-2.405 -0.15 -6.087 -0.677 -8.868 0.977" stroke-width="1"></path><path stroke="#000000" stroke-linecap="round" stroke-linejoin="round" d="M7.04 46.715c1.945 -2.549 4.084 -2.851 5.099 -3.067" stroke-width="1"></path></svg>