<svg xmlns="http://www.w3.org/2000/svg" fill="none" viewBox="0 0 48 48" height="48" width="48" id="Confused-Nick-Young--Streamline-Memes.svg"><desc>Confused Nick Young Streamline Element: https://streamlinehq.com</desc><path stroke="#000000" stroke-linecap="round" stroke-linejoin="round" d="M21.443 24.276c3.256 -0.851 3.63 -3.01 3.271 -4.122 -0.088 -0.274 -0.419 -0.31 -0.647 -0.137 -1.726 1.299 -4.688 2.295 -7.233 2.168 -0.318 -0.016 -0.577 0.245 -0.443 0.534 0.467 1.01 1.923 2.375 5.052 1.557Z" stroke-width="1"></path><path stroke="#000000" stroke-linecap="round" stroke-linejoin="round" d="m19.63 21.94 0.589 2.56" stroke-width="1"></path><path stroke="#000000" stroke-linecap="round" stroke-linejoin="round" d="m22.063 21.156 0.812 2.578" stroke-width="1"></path><path stroke="#000000" stroke-linecap="round" stroke-linejoin="round" d="M16.458 28.563c1.8 0.633 3.759 1.462 5.693 0.987 2.402 -0.59 4.542 -3.638 5.74 -5.686 0.703 -1.201 0.808 -2.64 0.438 -3.99L24.95 7.543C23.71 3.006 19.014 0.294 14.465 1.484a8.398 8.398 0 0 0 -5.99 10.367l3.37 12.3c0.282 1.033 0.831 1.974 1.619 2.673l2.156 5.345C11.432 34.44 2.858 39.857 2.058 43.357a29.018 29.018 0 0 0 -0.62 3.721" stroke-width="1"></path><path stroke="#000000" stroke-linecap="round" stroke-linejoin="round" d="m24.243 10.584 -0.957 -0.22a0.5 0.5 0 0 0 -0.43 0.1l-1.97 1.627a0.428 0.428 0 0 1 -0.274 0.104c-0.472 -0.004 -1.123 -0.208 -0.838 -1.031" stroke-width="1"></path><path stroke="#000000" stroke-linecap="round" stroke-linejoin="round" d="m11.774 13.856 0.716 -0.657a0.5 0.5 0 0 1 0.425 -0.123l2.538 0.447a0.43 0.43 0 0 0 0.29 -0.043c0.407 -0.234 0.866 -0.729 0.199 -1.302" stroke-width="1"></path><path stroke="#000000" stroke-linecap="round" stroke-linejoin="round" d="m13.312 16.262 3.044 -0.797" stroke-width="1"></path><path stroke="#000000" stroke-linecap="round" stroke-linejoin="round" d="m21.376 13.89 3.045 -0.796" stroke-width="1"></path><path stroke="#000000" stroke-linecap="round" stroke-linejoin="round" d="m19.6 14.552 0.657 1.505a0.61 0.61 0 0 0 0.247 0.268c0.802 0.487 1.756 1.867 -0.818 2.54" stroke-width="1"></path><path stroke="#000000" stroke-linecap="round" stroke-linejoin="round" d="m8.797 12.984 1.79 -4.273a0.494 0.494 0 0 1 0.224 -0.245c3.72 -1.967 6.076 -2.56 10.474 -2.738a0.51 0.51 0 0 1 0.33 0.105l3.65 2.823" stroke-width="1"></path><path stroke="#000000" stroke-linecap="round" d="M9.781 16.64a1.85 1.85 0 0 0 -0.453 0.061c-1.122 0.293 -1.72 1.667 -1.336 3.068 0.383 1.402 1.604 2.3 2.726 2.006 0.146 -0.038 0.282 -0.094 0.41 -0.166" stroke-width="1"></path><path stroke="#000000" stroke-linecap="round" d="M27.516 16.906c0.147 0 0.386 -0.05 0.531 -0.089 1.122 -0.294 1.72 -1.667 1.337 -3.068 -0.384 -1.402 -1.604 -2.3 -2.726 -2.006a2.373 2.373 0 0 0 -0.486 0.194" stroke-width="1"></path><path stroke="#000000" stroke-linecap="round" stroke-linejoin="round" d="M27.727 24.14c0.416 1.021 1.668 2.995 2.98 3.692 11.134 5.915 15.005 6.504 15.855 18.986" stroke-width="1"></path><path stroke="#000000" stroke-linecap="round" stroke-linejoin="round" d="M15.5 32.234c0 9.438 13.701 0.476 14.82 -4.64" stroke-width="1"></path><path stroke="#000000" stroke-linecap="round" stroke-linejoin="round" d="m20.297 29.031 0.564 2.059" stroke-width="1"></path><path stroke="#000000" stroke-linecap="round" stroke-linejoin="round" d="m22.625 28.39 0.604 2.007" stroke-width="1"></path><path stroke="#000000" stroke-linecap="round" stroke-linejoin="round" d="m24.75 27.016 0.801 1.754" stroke-width="1"></path><path stroke="#000000" stroke-linecap="round" stroke-linejoin="round" d="M35.863 4.62a2.092 2.092 0 1 1 2.788 1.973 1.045 1.045 0 0 0 -0.697 0.986v0.702" stroke-width="1"></path><path stroke="#000000" stroke-linecap="round" stroke-linejoin="round" d="M29.755 4.62a2.09 2.09 0 1 1 2.789 1.973 1.045 1.045 0 0 0 -0.697 0.986v0.702" stroke-width="1"></path><path stroke="#000000" stroke-linecap="round" stroke-linejoin="round" d="M42.13 4.62a2.092 2.092 0 1 1 2.788 1.973 1.046 1.046 0 0 0 -0.697 0.986v0.702" stroke-width="1"></path><path fill="#000000" fill-rule="evenodd" d="M23.129 12.945a1.125 1.125 0 1 0 0 2.25 1.125 1.125 0 0 0 0 -2.25Z" clip-rule="evenodd" stroke-width="1"></path><path fill="#000000" fill-rule="evenodd" d="M14.834 15.465a1.125 1.125 0 1 0 0 2.25 1.125 1.125 0 0 0 0 -2.25Z" clip-rule="evenodd" stroke-width="1"></path><path fill="#000000" fill-rule="evenodd" d="M31.846 9.568a1.125 1.125 0 1 0 0 2.249 1.125 1.125 0 0 0 0 -2.25Z" clip-rule="evenodd" stroke-width="1"></path><path fill="#000000" fill-rule="evenodd" d="M37.954 9.568a1.125 1.125 0 1 0 0 2.249 1.125 1.125 0 0 0 0 -2.25Z" clip-rule="evenodd" stroke-width="1"></path><path fill="#000000" fill-rule="evenodd" d="M44.221 9.568a1.125 1.125 0 1 0 0 2.249 1.125 1.125 0 0 0 0 -2.25Z" clip-rule="evenodd" stroke-width="1"></path></svg>