<svg xmlns="http://www.w3.org/2000/svg" fill="none" viewBox="0 0 48 48" height="48" width="48" id="Confused-Black-Girl-Hand-Drawn--Streamline-Memes.svg"><desc>Confused Black Girl Hand Drawn Streamline Element: https://streamlinehq.com</desc><path fill="#000000" fill-rule="evenodd" d="M28.779072 18.539376c-0.9125759999999999 -0.9125759999999999 -2.281488 -0.304224 -2.88984 0.912528 -1.3688639999999999 3.0419519999999998 1.06464 6.23592 3.0419039999999997 5.019168 0.304176 -0.152112 0.000048 -0.608352 -0.304176 -0.45628799999999997 -1.520928 0.760512 -3.193968 -1.6730399999999999 -2.1293279999999997 -4.258655999999999 0.304224 -0.9125759999999999 1.2167519999999998 -1.368912 1.8251519999999999 -0.912624 0.45628799999999997 0.304176 0.6084 -0.15201599999999998 0.45628799999999997 -0.304128Z" clip-rule="evenodd" stroke-width="1"></path><path fill="#000000" fill-rule="evenodd" d="M42.92395199999999 12.911904c1.673088 3.0419039999999997 1.064688 5.17128 1.064688 6.388032 0 1.2167519999999998 0.608352 1.6730399999999999 -0.6084 3.4981919999999995 -1.5209759999999999 2.28144 0.304176 4.4107199999999995 -2.28144 6.9963359999999994 -0.45628799999999997 0.45628799999999997 -2.585616 2.4336 -3.193968 2.889888 -1.5209759999999999 0.9125759999999999 -6.083856 -0.000048 -7.909008 -3.3461279999999998 -0.6084 -1.064688 -0.45628799999999997 -1.521024 -0.9125759999999999 -1.368912 -0.152112 0 -0.152112 0.152112 -0.152112 0.304224 1.977264 5.323344 7.3006079999999995 6.23592 9.277872 5.01912 0.608352 -0.45628799999999997 2.88984 -2.433456 3.3461279999999998 -2.889744 2.889792 -2.88984 0.912528 -5.019168 2.281392 -7.148543999999999 1.3688639999999999 -2.1293279999999997 0.6084 -2.889792 0.6084 -3.954432 0 -1.3688639999999999 0.6084 -3.346176 -1.3688639999999999 -6.540192 -0.152112 -0.245856 -0.304176 0.000048 -0.152112 0.15216Z" clip-rule="evenodd" stroke-width="1"></path><path fill="#000000" fill-rule="evenodd" d="M25.658208 21.97656c-3.49824 5.323344 -7.3006079999999995 4.258704 -7.148543999999999 5.17128 0 0.152112 0.152112 0.152064 0.304224 0.152064 3.9544799999999998 -0.760512 5.01912 -1.06464 7.30056 -5.019168 0 -0.304176 -0.304176 -0.45628799999999997 -0.45624 -0.304176Z" clip-rule="evenodd" stroke-width="1"></path><path fill="#000000" fill-rule="evenodd" d="M32.885664 32.532384c-0.6084 0.304176 -3.194016 1.3688639999999999 -3.4981919999999995 3.3461279999999998 0 0.304176 0.304176 0.45633599999999996 0.45624 0.15216 0.45628799999999997 -1.3688639999999999 3.802416 -2.737776 3.3461279999999998 -3.3461279999999998 0 -0.304224 -0.152112 -0.304272 -0.304176 -0.15216Z" clip-rule="evenodd" stroke-width="1"></path><path fill="#000000" fill-rule="evenodd" d="M19.348992 30.706944c0 1.064688 -0.304176 1.064592 0 1.368816 0.6084 0.760464 1.2167519999999998 1.5209759999999999 1.977216 2.129376 0.152112 0.152064 0.45633599999999996 -0.152112 0.304224 -0.304224 -0.608352 -0.6084 -1.06464 -1.368912 -1.520928 -2.129376 0.608352 -2.28144 -0.9125759999999999 -4.867056 -1.3688639999999999 -4.56288 -0.45628799999999997 0.152112 0.608352 1.064736 0.608352 3.498288Z" clip-rule="evenodd" stroke-width="1"></path><path fill="#000000" fill-rule="evenodd" d="M22.999344 36.030336c1.8251519999999999 1.8251519999999999 3.802416 3.346032 6.388032 3.6502079999999997 4.410768 0.304224 6.540095999999999 -2.585616 3.6503039999999998 -6.844272 -0.152112 -0.304224 -0.6084 0 -0.304224 0.304176 1.977264 3.194016 1.064688 6.083807999999999 -3.193968 5.779632 -3.6503039999999998 -0.304176 -6.083856 -3.4981919999999995 -6.388032 -3.0419039999999997 -0.152112 -0.152112 -0.152112 0.000048 -0.152112 0.15216Z" clip-rule="evenodd" stroke-width="1"></path><path fill="#000000" fill-rule="evenodd" d="M40.946784 21.581184c-0.304224 0.9125759999999999 -0.45628799999999997 1.6729919999999998 0 2.585568 0.152064 0.304176 0.45624 0.152112 0.45624 -0.152064 -0.152064 -0.45628799999999997 0.152112 -0.760464 0 -2.28144 0 -0.45628799999999997 -0.45624 -0.45624 -0.45624 -0.152064Z" clip-rule="evenodd" stroke-width="1"></path><path fill="#000000" fill-rule="evenodd" d="M38.665296 23.862576c-1.06464 -0.304224 -1.977264 1.064592 -1.2167519999999998 1.825056 0.152064 0.304176 0.6084 0.000096 0.45628799999999997 -0.304128 -0.152112 -0.45628799999999997 0.6084 -1.064688 0.760464 -1.064688 0.304224 0 0.304224 -0.45624 0 -0.45624Z" clip-rule="evenodd" stroke-width="1"></path><path fill="#000000" fill-rule="evenodd" d="M38.513232 25.840127999999996c0.45628799999999997 0 0.760416 0.45628799999999997 1.06464 0.760512 0.608352 0.608352 1.3688639999999999 0.45624 1.977264 0 1.3688639999999999 -0.9125759999999999 0.304176 -2.4335519999999997 -0.152112 -2.28144 -0.152112 0.152064 0 0.304176 0.152112 0.760464 0.152064 0.45628799999999997 -0.152112 0.608352 -0.45633599999999996 0.912528 -1.2167519999999998 0.760464 -1.520928 -1.064592 -2.889792 -0.6083040000000001 -0.152112 0.152064 0 0.608352 0.304224 0.45624Z" clip-rule="evenodd" stroke-width="1"></path><path fill="#000000" fill-rule="evenodd" d="M40.794624 29.186064c-2.1293279999999997 -0.45628799999999997 -2.585616 -0.304224 -4.714944 -0.15216 -0.304224 0 -0.304224 0.45628799999999997 0 0.45628799999999997 3.194016 0.45628799999999997 3.4981919999999995 0.15216 4.714944 0.15216 0.304224 0.152064 0.304224 -0.304176 0 -0.45628799999999997Z" clip-rule="evenodd" stroke-width="1"></path><path fill="#000000" fill-rule="evenodd" d="M35.92752 28.88208c-0.152112 0 -0.152064 0.45388799999999996 -0.152064 0.6083040000000001 -0.152112 0.304176 0.304176 0.45633599999999996 0.45628799999999997 0.15216 0.07608 -0.15216 0.304176 -0.304224 0.304176 -0.6084 -0.152112 -0.304224 -0.6084 -0.45628799999999997 -0.6084 -0.152064Z" clip-rule="evenodd" stroke-width="1"></path><path fill="#000000" fill-rule="evenodd" d="M40.490447999999994 30.706944c-0.608352 0.152064 -2.4335039999999997 0.45624 -3.3460799999999997 0.152064 -0.304176 -0.152112 -0.45628799999999997 0.304176 -0.152112 0.45624 1.2168 0.760512 2.4335519999999997 0.760512 3.802416 -0.152064 0.152112 -0.304176 0 -0.608352 -0.304224 -0.45624Z" clip-rule="evenodd" stroke-width="1"></path><path fill="#000000" fill-rule="evenodd" d="M38.209103999999996 21.277151999999997c-1.3688639999999999 -0.304176 -1.8251519999999999 -0.45633599999999996 -3.802416 -0.15216 -0.304176 0 -0.304176 0.45638399999999996 0 0.45638399999999996 1.673088 0.152112 1.673088 0.304128 3.802416 0.152064 0.304176 0 0.304176 -0.45628799999999997 0 -0.45628799999999997Z" clip-rule="evenodd" stroke-width="1"></path><path fill="#000000" fill-rule="evenodd" d="M43.988735999999996 22.037904c-0.6084 -0.152064 -0.760512 -0.304176 -1.977264 0 -0.304176 0 -0.304176 0.45628799999999997 0 0.45628799999999997 0.9125759999999999 0.152112 1.064688 0.304176 1.977264 0 0.304176 0 0.304176 -0.45628799999999997 0 -0.45628799999999997Z" clip-rule="evenodd" stroke-width="1"></path><path fill="#000000" fill-rule="evenodd" d="M35.31912 21.124703999999998c-0.45628799999999997 -0.304176 -1.3688639999999999 0.608448 -0.760512 1.368912 0.304224 0.45628799999999997 1.064688 0.304224 1.2167519999999998 -0.152064 0.45628799999999997 -0.45628799999999997 0.000048 -1.216848 -0.45624 -1.216848Z" clip-rule="evenodd" stroke-width="1"></path><path fill="#000000" fill-rule="evenodd" d="M42.315456 22.037423999999998c-0.304176 -0.304176 -1.3688639999999999 0.608352 -0.760464 1.368816 0.304176 0.304224 0.912528 0.15216 1.06464 -0.152064 0.304176 -0.760464 0.000048 -1.2167519999999998 -0.304176 -1.2167519999999998Z" clip-rule="evenodd" stroke-width="1"></path><path fill="#000000" fill-rule="evenodd" d="M26.893392 18.5052c1.06464 -2.129376 0.608352 -1.3688639999999999 1.06464 -2.4335039999999997 0.152064 -0.304224 -0.152064 -0.45633599999999996 -0.304176 -0.304224 -0.9125759999999999 0.9125759999999999 -1.064688 1.5209759999999999 -1.064688 2.585664 -0.152112 0.304176 0.152112 0.45624 0.304224 0.152064Z" clip-rule="evenodd" stroke-width="1"></path><path fill="#000000" fill-rule="evenodd" d="M29.0832 17.474832c-0.6084 -1.064688 -1.06464 -2.4335519999999997 -1.06464 -3.650352 -0.152112 -2.889792 2.281392 -4.867056 5.01912 -5.627568 5.019168 -1.3688639999999999 8.061072 -0.456192 9.73416 4.2588 0.152064 0.304176 0.45628799999999997 0.15201599999999998 0.45628799999999997 -0.15216 -1.5209759999999999 -4.7149920000000005 -4.258704 -6.540095999999999 -10.342512 -5.019168 -3.194016 0.9125759999999999 -5.945904 3.3460799999999997 -5.641728 6.540095999999999 0.152112 1.3688639999999999 0.7321920000000001 2.5716479999999997 1.340592 3.7883999999999998 0 0.45628799999999997 0.49871999999999994 0.166128 0.49871999999999994 -0.138048Z" clip-rule="evenodd" stroke-width="1"></path><path fill="#000000" fill-rule="evenodd" d="M28.018511999999998 14.888831999999999c1.3688639999999999 -5.019168 11.255087999999999 -6.996383999999999 13.68864 -4.258655999999999 0.152112 0.152064 0.152064 0.152064 0.304176 0 0.608352 -0.45628799999999997 -2.4335519999999997 -3.194064 -8.365296 -1.368912 -3.0419039999999997 0.9125759999999999 -5.323344 2.585664 -6.083807999999999 5.475503999999999 0 0.45628799999999997 0.45628799999999997 0.45624 0.45628799999999997 0.152064Z" clip-rule="evenodd" stroke-width="1"></path><path fill="#000000" fill-rule="evenodd" d="M29.235263999999997 16.10616c0.304176 0.9125759999999999 0.608352 1.216848 1.3688639999999999 1.673136 0.152064 0.152064 0.6084 -0.152112 0.304176 -0.304224 -0.44136 -0.692256 -0.8532959999999999 -1.082544 -1.368816 -1.673136 -0.156672 -0.26592 -0.45633599999999996 0.000048 -0.304224 0.304224Z" clip-rule="evenodd" stroke-width="1"></path><path fill="#000000" fill-rule="evenodd" d="M29.995776 15.193439999999999c0.152112 0.6084 0.622992 0.9125759999999999 1.064688 1.2167519999999998 0.152112 0.152112 0.45628799999999997 -0.152112 0.304176 -0.304176 -0.45628799999999997 -0.6084 -0.5616 -0.76512 -0.9125759999999999 -1.2167519999999998 -0.304176 -0.304224 -0.760464 0 -0.45628799999999997 0.304176Z" clip-rule="evenodd" stroke-width="1"></path><path fill="#000000" fill-rule="evenodd" d="M30.756240000000002 13.976736c0.304176 0.47510399999999997 0.5346719999999999 0.8545919999999999 1.064688 1.2167519999999998 0.152064 0.152112 0.608352 -0.152112 0.304176 -0.304176 -0.304176 -0.589248 -0.617376 -0.9125759999999999 -1.064688 -1.2167519999999998 -0.152064 -0.152112 -0.6084 0 -0.304176 0.304176Z" clip-rule="evenodd" stroke-width="1"></path><path fill="#000000" fill-rule="evenodd" d="M31.516704 12.912144c0.304224 0.5315519999999999 0.64152 0.835104 1.064688 1.064688 0.152112 0.152112 0.6084 -0.152112 0.304176 -0.304224 -0.304176 -0.456576 -0.586368 -0.7059359999999999 -1.06464 -1.064688 -0.152112 -0.152064 -0.45628799999999997 0.152112 -0.304224 0.304224Z" clip-rule="evenodd" stroke-width="1"></path><path fill="#000000" fill-rule="evenodd" d="M32.885568 12.151679999999999c0.172512 0.424752 0.476064 0.912528 0.912624 1.216704 0.152064 0.304224 0.6084 0 0.304176 -0.304176 -0.13358399999999998 -0.44443199999999994 -0.5347200000000001 -0.912528 -0.9125759999999999 -1.2167519999999998 -0.152064 -0.152112 -0.45628799999999997 0.152112 -0.304224 0.304224Z" clip-rule="evenodd" stroke-width="1"></path><path fill="#000000" fill-rule="evenodd" d="M34.710864 11.695392c0 0.371328 0.14692799999999998 0.902544 0.45628799999999997 1.2167519999999998 0.152112 0.304224 0.45628799999999997 0.152064 0.45628799999999997 -0.152112 0 -0.4548 -0.152112 -0.760464 -0.45628799999999997 -1.2167519999999998 -0.153792 -0.230736 -0.45628799999999997 -0.152064 -0.45628799999999997 0.152112Z" clip-rule="evenodd" stroke-width="1"></path><path fill="#000000" fill-rule="evenodd" d="M36.53592 11.5428c0 0.6084 -0.152064 0.45633599999999996 0.304224 1.064688 0.152064 0.304224 0.45624 0.15216 0.45624 -0.15201599999999998 0 -0.6084 0.152112 -0.76056 -0.304176 -1.216848 -0.34559999999999996 -0.26688 -0.45628799999999997 0.152112 -0.45628799999999997 0.304176Z" clip-rule="evenodd" stroke-width="1"></path><path fill="#000000" fill-rule="evenodd" d="M38.361168 11.543136c0 0.304176 0 0.708048 0.152112 1.064688 0 0.304176 0.45624 0.152112 0.45624 -0.152064 0 -0.378 0 -0.6816 -0.152112 -1.064688 0 -0.304176 -0.45624 -0.15216 -0.45624 0.152064Z" clip-rule="evenodd" stroke-width="1"></path><path fill="#000000" fill-rule="evenodd" d="M39.882144 11.695151999999998c0 0.219792 -0.000048 0.67512 0.152112 0.912528 0 0.304224 0.45624 0.304224 0.45624 0 0 -0.304176 0 -0.606 -0.152112 -0.912528 -0.152064 -0.45628799999999997 -0.45624 -0.304176 -0.45624 0Z" clip-rule="evenodd" stroke-width="1"></path><path fill="#000000" fill-rule="evenodd" d="M41.098848000000004 11.846976c-0.000048 0.15470399999999998 0 0.620928 0.152064 1.064688 0 0.304224 0.45633599999999996 0.304224 0.45633599999999996 0 0.07824 -0.335376 0 -0.8991359999999999 -0.152112 -1.064688 0 -0.304176 -0.45628799999999997 -0.304176 -0.45628799999999997 0Z" clip-rule="evenodd" stroke-width="1"></path><path fill="#000000" fill-rule="evenodd" d="M42.619824 13.063775999999999c0.108864 -0.444 0.13056 -0.953568 0 -1.368816 0 -0.304224 -0.45628799999999997 -0.152112 -0.45628799999999997 0 0.000048 0.39355199999999996 0 0.760464 0 1.2167519999999998 0 0.45628799999999997 0.45628799999999997 0.45624 0.45628799999999997 0.152064Z" clip-rule="evenodd" stroke-width="1"></path><path fill="#000000" fill-rule="evenodd" d="M32.885664 7.588752c-1.6730399999999999 -2.8898352 -5.171232 -0.45633599999999996 -4.106544 1.2167519999999998 0.152064 0.304176 0.608352 0 0.45624 -0.152064 -0.45628799999999997 -1.064688 1.8252 -2.4335519999999997 3.3461279999999998 -0.760512 0.152112 0.304224 0.45628799999999997 0 0.304176 -0.304176Z" clip-rule="evenodd" stroke-width="1"></path><path fill="#000000" fill-rule="evenodd" d="M30.148031999999997 5.002896c-1.8251519999999999 -0.3042 -3.802416 0.304176 -3.954528 1.977216 0 0.304176 0.45628799999999997 0.304176 0.45628799999999997 0 0.152112 -0.760464 1.064688 -1.06464 1.6730399999999999 -1.2167519999999998 0.45628799999999997 -0.152112 1.2168 -0.304224 1.673088 -0.304224 0.45628799999999997 0 0.45628799999999997 -0.45624 0.152112 -0.45624Z" clip-rule="evenodd" stroke-width="1"></path><path fill="#000000" fill-rule="evenodd" d="M27.714336 7.132224c-0.304176 0.152112 -0.45628799999999997 0.304128 -0.608352 0.6083040000000001 -0.304176 0.45628799999999997 -0.304176 1.216848 0 1.673136 0.152064 0.304176 0.608352 -0.000048 0.45624 -0.304224 -0.152064 -0.304176 0.45628799999999997 -1.368912 0.6084 -1.673088 0.152112 -0.304224 -0.304176 -0.6083040000000001 -0.45628799999999997 -0.304128Z" clip-rule="evenodd" stroke-width="1"></path><path fill="#000000" fill-rule="evenodd" d="M28.77912 3.9386016c0.304176 -0.1520976 1.977216 -0.30413759999999995 2.4335039999999997 0.1521504 0.152112 0.1520976 0.6084 -0.152112 0.304224 -0.30420959999999997 -0.6084 -0.7604784 -1.8251519999999999 -1.0647263999999999 -2.88984 -0.1521504 -0.304176 0 -0.152064 0.4563072 0.152112 0.30420959999999997Z" clip-rule="evenodd" stroke-width="1"></path><path fill="#000000" fill-rule="evenodd" d="M31.364784 1.3524144c0 0.9125711999999999 0 1.0647072 0.6084 2.129376 0.152064 0.30419039999999997 0.45628799999999997 0.1521312 0.45628799999999997 -0.1520592 -0.152112 -1.2167664 0 -0.9126096 -0.608352 -2.129376 -0.152112 -0.3041952 -0.608448 -0.152136 -0.45633599999999996 0.1520592Z" clip-rule="evenodd" stroke-width="1"></path><path fill="#000000" fill-rule="evenodd" d="M32.58144 0.7441199999999999c0.152112 0.15209279999999997 0.608352 1.8251472 0.608352 2.2814351999999998 0 0.30419039999999997 0.45628799999999997 0.30419039999999997 0.45628799999999997 0 0.304176 -1.2167664 0 -1.977264 -0.6084 -2.58564624 -0.304176 -0.15209616 -0.608352 0.00001824 -0.45624 0.30421104Z" clip-rule="evenodd" stroke-width="1"></path><path fill="#000000" fill-rule="evenodd" d="M34.55856 0.28799088c0 0.54678672 -0.06144 1.64379312 -0.304176 2.12928432 -0.152112 0.6083856 -0.152112 0.7604784 0 0.7604784 0.304176 0.1520976 0.760464 -0.9125903999999999 0.760464 -1.064688 0.304176 -0.7604784 0.152112 -1.2166896 -0.152064 -1.82507472 0 -0.20693999999999999 -0.304224 -0.304191792 -0.304224 0Z" clip-rule="evenodd" stroke-width="1"></path><path fill="#000000" fill-rule="evenodd" d="M35.01503999999999 7.4364c0.6084 -2.4335519999999997 3.3461279999999998 -1.977264 3.49824 -0.760464 0 0.152064 0.152064 0.152112 0.304176 0.152112 0.760464 0 -0.45628799999999997 -2.4334992 -2.4335039999999997 -1.977216 -1.673088 0.45628799999999997 -1.977264 2.585616 -1.5209759999999999 2.7377279999999997l0.152064 -0.15216Z" clip-rule="evenodd" stroke-width="1"></path><path fill="#000000" fill-rule="evenodd" d="M35.014992 3.938232c0.760464 -0.9125759999999999 2.4335519999999997 -1.064616 3.194016 -0.608328 0.760464 0.45628799999999997 0.6084 0.9125039999999999 0.9125759999999999 1.0645968 1.2167519999999998 0.3041952 1.8251519999999999 1.0646832 1.8251519999999999 1.8251472 0 0.304224 0.45628799999999997 0.304224 0.45628799999999997 0 0 -1.06464 -0.9125759999999999 -1.9771872 -1.977216 -2.4334752 -1.2168 -3.1940112 -5.627568 -0.30422879999999997 -4.867103999999999 0.1520592l0.45628799999999997 0Z" clip-rule="evenodd" stroke-width="1"></path><path fill="#000000" fill-rule="evenodd" d="M40.338336 7.2841439999999995c0.304224 -0.760464 0.152112 -1.3688639999999999 -0.45624 -1.8251519999999999 -0.152112 -0.304176 -0.6084 0 -0.304224 0.304224 0.152112 0.152064 0.152112 0.45624 0.152112 0.912528 0 0.152112 0.152112 0.45633599999999996 0.152112 0.6084 -0.152112 0.152112 0.304176 0.304224 0.45624 0Z" clip-rule="evenodd" stroke-width="1"></path><path fill="#000000" fill-rule="evenodd" d="M34.25448 19.756079999999997c0.9125759999999999 -0.152112 3.3461279999999998 -0.304224 4.56288 0 0.304224 0.152064 0.45633599999999996 -0.304176 0.152112 -0.45628799999999997 -1.977216 -0.9125759999999999 -3.3460799999999997 -0.760464 -4.867007999999999 0 -0.304224 0 -0.15216 0.45628799999999997 0.15201599999999998 0.45628799999999997Z" clip-rule="evenodd" stroke-width="1"></path><path fill="#000000" fill-rule="evenodd" d="M42.467712 20.364912c0.152064 0.152112 0.45628799999999997 0.304224 0.760464 0.304224 0.304176 0.152064 0.9125759999999999 0.304176 1.2167519999999998 0.304176 0.304176 0.152112 0.45628799999999997 -0.152112 0.304224 -0.304176 -0.760512 -0.760512 -1.368912 -0.9125759999999999 -2.129376 -0.760512 -0.304224 0 -0.45628799999999997 0.45628799999999997 -0.152064 0.45628799999999997Z" clip-rule="evenodd" stroke-width="1"></path><path fill="#000000" fill-rule="evenodd" d="M28.474847999999998 22.494096c-0.152112 -0.304176 0.152064 -0.608352 0.45624 -0.760464 0.152112 -0.152112 0.152112 -0.608352 0.152112 -0.912528 -0.304176 -2.28144 -2.28144 -2.129424 -2.4335519999999997 -0.45638399999999996 0 0.304224 0.304224 0.45633599999999996 0.45633599999999996 0.15216 0.152112 -0.304176 0.6084 -0.760464 0.9125759999999999 -0.45628799999999997 0.304176 0.304224 0.304176 0.912528 0.45628799999999997 1.368816 -0.45628799999999997 0.45628799999999997 -0.6084 1.064688 -0.152112 1.5209759999999999 0 0 0.304176 -0.152064 0.152112 -0.45628799999999997Z" clip-rule="evenodd" stroke-width="1"></path><path fill="#000000" fill-rule="evenodd" d="M19.044864 26.904912c-2.889792 0.304176 -1.6730399999999999 0.152064 -0.760464 3.954432 0 0.304224 0.45628799999999997 0.152112 0.45628799999999997 0 -0.152064 -3.194016 -0.9125759999999999 -3.041856 -0.45628799999999997 -3.193968 0.9125759999999999 -0.304176 1.064688 -0.304224 1.064688 -0.6084 0 -0.152112 -0.152112 -0.152064 -0.304224 -0.152064Z" clip-rule="evenodd" stroke-width="1"></path><path fill="#000000" fill-rule="evenodd" d="M17.676096 27.664848c-0.9125759999999999 -0.152112 -1.06464 0.152064 -1.8251519999999999 0.608352 -0.304176 0.152064 -0.152112 0.608352 0.152064 0.45624 1.3688639999999999 -0.152064 1.064688 -0.304128 1.8252 -0.6083040000000001 0.152064 -0.152112 0.152064 -0.45628799999999997 -0.152112 -0.45628799999999997Z" clip-rule="evenodd" stroke-width="1"></path><path fill="#000000" fill-rule="evenodd" d="M19.044912 31.162992c-0.45628799999999997 -0.45628799999999997 -2.889792 -3.49824 -3.4981919999999995 -3.194064 -3.3461279999999998 0.9125759999999999 -7.148496 1.368912 -9.12576 4.410816 -0.9125759999999999 1.3688639999999999 -2.2814256 4.867056 -2.5856208 5.779632 -1.0646688 3.0419039999999997 -0.3042 4.71504 0.6083759999999999 7.756944 0 0.152112 0.15209279999999997 0.152064 0.30418559999999994 0.152064 0.7604832 -0.152112 -1.8251328 -3.194016 -0.1520784 -7.6047839999999995C7.485648 30.554592 9.006624 30.858768 15.698832 28.72944c0.45628799999999997 0.304176 0.760464 0.6084 1.2167519999999998 1.064688 1.8251519999999999 1.6730399999999999 1.8251039999999998 2.1293279999999997 2.1293279999999997 1.977216 0.152064 -0.304176 0.152064 -0.45624 0 -0.608352Z" clip-rule="evenodd" stroke-width="1"></path><path fill="#000000" fill-rule="evenodd" d="M35.775456 33.445056c3.6503039999999998 5.019168 4.56288 6.540144 4.56288 12.928176 0 0.304176 0.45628799999999997 0.304176 0.45628799999999997 0 0 -2.4335519999999997 0.304224 -5.17128 -0.760464 -7.604832 -0.9125759999999999 -2.4335039999999997 -2.585616 -3.9544799999999998 -3.9544799999999998 -5.627568 0 -0.152064 -0.45633599999999996 0.15216 -0.304224 0.304224Z" clip-rule="evenodd" stroke-width="1"></path><path fill="#000000" fill-rule="evenodd" d="M13.083263999999998 35.447807999999995c1.2167519999999998 2.129376 0.760464 1.368912 2.28144 3.3461279999999998 0.152112 0.304224 0.608352 0 0.45628799999999997 -0.304176 -0.9125759999999999 -1.977264 -1.2168 -2.129376 -2.28144 -3.3461279999999998 -0.152112 -0.152112 -0.6084 0.152112 -0.45628799999999997 0.304176Z" clip-rule="evenodd" stroke-width="1"></path><path fill="#000000" fill-rule="evenodd" d="M14.48208 45.003792000000004c-1.5209759999999999 -1.6730399999999999 -1.977216 -0.912528 -4.106592 -3.954432 -1.2167519999999998 -1.8251519999999999 -1.064688 -4.410816 -0.304176 -4.10664 0.9125759999999999 0.45628799999999997 0.9125759999999999 2.737776 1.8251519999999999 4.10664 0.152112 0.304176 0.608352 -0.000048 0.45628799999999997 -0.304224 -0.45628799999999997 -0.760464 -0.6084 -2.129376 -0.9125759999999999 -2.889888 -0.760464 -2.585616 -2.585616 -1.977168 -2.7377279999999997 -0.30407999999999996 -0.304176 2.7377279999999997 1.6730399999999999 5.323295999999999 4.106592 6.692159999999999 0.608352 0.304176 1.064688 0.608448 1.3688639999999999 0.912624 0.304176 0.45628799999999997 0.608352 -0.000048 0.304176 -0.15216Z" clip-rule="evenodd" stroke-width="1"></path><path fill="#000000" fill-rule="evenodd" d="M17.980320000000003 42.114624c-0.304224 -1.8251519999999999 0.45628799999999997 -3.650352 0 -4.867103999999999 -0.9125759999999999 -1.8251519999999999 -2.737776 -0.6084 -2.737776 3.4981919999999995 -1.520928 -1.8251519999999999 -1.520928 -3.9544799999999998 -2.889792 -4.258655999999999 -2.4335519999999997 -0.6084 -1.520928 5.627568 1.977264 7.148496 0.304176 0.152112 0.45624 -0.304272 0.152064 -0.45633599999999996 -3.802416 -1.6730399999999999 -3.4981919999999995 -9.429888 -1.2167519999999998 -4.106544 0.45628799999999997 1.2168 1.06464 2.28144 2.1293279999999997 3.0419519999999998 0.304176 0.304176 0.760464 -0.000048 0.760464 -0.304224 -0.152064 -1.3688639999999999 0.000048 -2.737776 0.45633599999999996 -3.954528 0.152112 -0.45628799999999997 0.304176 -0.760464 0.760464 -0.45628799999999997 0.304224 0.45628799999999997 0.304176 0.608448 0.304176 0.912624 0.152112 0.9125759999999999 -0.304176 4.258704 0.304224 4.106592l0 -0.304176Z" clip-rule="evenodd" stroke-width="1"></path><path fill="#000000" fill-rule="evenodd" d="M13.72152 38.920032c0.9125759999999999 0.6084 1.2168 0.45628799999999997 1.977264 0.45628799999999997 0.304176 0.152112 0.45628799999999997 -0.304176 0.152112 -0.45628799999999997 -1.064688 -0.608352 -1.5209759999999999 -0.45624 -1.977264 -0.45624 -0.304224 -0.152112 -0.45628799999999997 0.304176 -0.152112 0.45624Z" clip-rule="evenodd" stroke-width="1"></path><path fill="#000000" fill-rule="evenodd" d="M18.13224 42.418176c0 -1.8251519999999999 0.45628799999999997 -3.954432 1.5209759999999999 -5.475408 0.6084 -0.9125759999999999 0.760464 -0.608352 0.912528 -0.152064 0.304224 1.2168 -1.06464 4.258655999999999 -0.608352 4.410768 0.304176 0.152064 0.304176 -0.152112 0.9125759999999999 -2.28144 0.304176 -0.760512 0.45628799999999997 -1.3688639999999999 0.304224 -2.28144 -0.152112 -1.2168 -1.3688639999999999 -1.6730399999999999 -2.4335519999999997 -0.152064 -1.3688639999999999 1.8251519999999999 -1.368912 3.80232 -1.2168 5.931648 0.152112 0.304224 0.6084 0.304224 0.6084 0Z" clip-rule="evenodd" stroke-width="1"></path><path fill="#000000" fill-rule="evenodd" d="M17.523936 47.589504c1.2167519999999998 -0.304176 2.281392 -0.304176 3.8023679999999995 -1.8251519999999999 0.760464 -0.760464 1.2168 -1.977216 1.064688 -3.193968 -0.152112 -0.6084 -0.760464 -1.9773119999999997 -0.608352 -2.4336 0.304176 -1.2167519999999998 0.760416 -2.281344 1.06464 -3.346032 1.2167519999999998 -3.802416 -0.6084 -3.802416 -1.2167519999999998 -2.88984 -0.6084 0.760464 -0.6084 1.6730399999999999 -0.760464 2.585616 0 0.304224 0.45624 0.304176 0.45624 0.152064 0.6084 -2.585616 1.368912 -2.889792 1.368912 -2.28144 0.152112 1.3688639999999999 -0.9125759999999999 3.194016 -1.5209759999999999 5.779632 -0.45628799999999997 1.5209759999999999 1.8251519999999999 3.194016 -0.152112 5.323344 -1.3688639999999999 1.3688639999999999 -2.1293279999999997 1.368912 -3.4981919999999995 1.8252 -0.45628799999999997 0 -0.304224 0.45628799999999997 0 0.304176Z" clip-rule="evenodd" stroke-width="1"></path><path fill="#000000" fill-rule="evenodd" d="M12.200688 43.4832c-2.28144 0.304224 -3.9544799999999998 0.9125759999999999 -5.475455999999999 3.0419519999999998 -0.152064 0.152064 0.152112 0.45628799999999997 0.304176 0.304176 1.3688639999999999 -1.3688639999999999 3.3461279999999998 -2.28144 5.323392 -2.88984 0.304176 0 0.152112 -0.45628799999999997 -0.152112 -0.45628799999999997Z" clip-rule="evenodd" stroke-width="1"></path><path fill="#000000" fill-rule="evenodd" d="M37.296383999999996 24.927215999999998c-1.6730399999999999 0.152112 -2.73768 1.064736 -3.193968 2.737776 -0.152112 0.304224 0.304176 0.45628799999999997 0.45624 0.152064 0.6084 -1.2167519999999998 1.8251519999999999 -2.12928 2.88984 -2.433456 0.304176 0 0.152064 -0.45638399999999996 -0.152112 -0.45638399999999996Z" clip-rule="evenodd" stroke-width="1"></path><path fill="#000000" fill-rule="evenodd" d="M41.251008 26.295936c0 0.152112 0 0.304224 0.152112 0.608448 0.152112 0.304176 0.304176 0.45628799999999997 0.45628799999999997 0.760464 0 0.304176 0.45628799999999997 0.15201599999999998 0.45628799999999997 -0.15216 0 -0.760464 -0.152064 -1.064592 -0.608352 -1.368816 -0.152112 -0.304176 -0.6084 0 -0.45633599999999996 0.152064Z" clip-rule="evenodd" stroke-width="1"></path></svg>