<svg xmlns="http://www.w3.org/2000/svg" fill="none" viewBox="0 0 48 48" height="48" width="48" id="Confused-Nick-Young-Hand-Drawn--Streamline-Memes.svg"><desc>Confused Nick Young Hand Drawn Streamline Element: https://streamlinehq.com</desc><path fill="#000000" fill-rule="evenodd" d="M7.186032 44.139359999999996c0.961728 -4.968719999999999 5.930496 -8.97576 10.578672000000001 -10.899168 0.32054399999999994 2.4042239999999997 2.083632 3.0454079999999997 4.487856 2.724816 3.2056799999999996 -0.32054399999999994 4.16736 -1.4425919999999999 6.571584 -3.0454079999999997 0.801408 -0.480816 2.2439519999999997 -1.602768 2.7247679999999996 -2.564448 10.418351999999999 0.641136 13.143168 4.00704 15.38712 12.662256 0 0.320592 0.480864 0.16027199999999997 0.480864 -0.16027199999999997 -1.9233599999999997 -8.975807999999999 -5.12904 -12.662303999999999 -16.028208 -13.463712 -0.320592 0 -0.320592 0.320592 -0.641184 0.641136 -0.480816 0.641136 -1.7630879999999998 1.602816 -2.4042239999999997 2.083632 -2.4042239999999997 1.602816 -3.3659039999999996 2.564544 -6.250992 2.8851359999999997 -4.968768 0.641136 -2.724816 -3.365952 -4.16736 -2.8851359999999997 -4.968768 2.08368 -10.25808 6.571631999999999 -11.21976 11.860944 0 0.32054399999999994 0.480864 0.32054399999999994 0.480864 0.16022399999999998Z" clip-rule="evenodd" stroke-width="1"></path><path fill="#000000" fill-rule="evenodd" d="M18.566016 32.278368c0.16027199999999997 -4.4879039999999994 0.16022399999999998 -2.4042239999999997 -0.480912 -7.21272 0 -0.32054399999999994 -0.480816 -0.32054399999999994 -0.480816 0 -0.16027199999999997 4.808496 0.16027199999999997 5.449584 0.32054399999999994 7.21272 0.16027199999999997 0.32054399999999994 0.641184 0.32054399999999994 0.641184 0Z" clip-rule="evenodd" stroke-width="1"></path><path fill="#000000" fill-rule="evenodd" d="M29.144688 26.348304c0.16027199999999997 1.7630879999999998 0.801408 3.205632 2.5644959999999997 3.8467679999999995 0.320592 0.16027199999999997 0.480864 -0.320592 0.16032 -0.480864 -0.9616799999999999 -0.641136 -1.9233599999999997 -2.4042239999999997 -2.2439519999999997 -3.5261759999999995 -0.16027199999999997 -0.320592 -0.641136 -0.16027199999999997 -0.480864 0.16027199999999997Z" clip-rule="evenodd" stroke-width="1"></path><path fill="#000000" fill-rule="evenodd" d="M30.587231999999997 20.737968c-0.16027199999999997 3.04536 -2.08368 6.250992 -3.0454079999999997 7.0524000000000004 -2.5644959999999997 2.08368 -4.929072 0.5076 -7.333296 -1.736352 -0.16027199999999997 -0.16027199999999997 -0.680784 0.29375999999999997 -0.520512 0.454032 2.724816 2.564544 5.449632 4.32768 8.33472 1.923408 1.282224 -0.9616799999999999 2.88504 -4.006991999999999 3.045312 -7.6934879999999986 0 -0.16032 -0.480816 -0.320592 -0.480816 0Z" clip-rule="evenodd" stroke-width="1"></path><path fill="#000000" fill-rule="evenodd" d="M30.907872 17.852928000000002c0.641136 -0.641136 0.9616799999999999 -2.08368 0.801408 -2.885088 -0.16027199999999997 -0.801408 -0.80136 -1.1219999999999999 -1.282224 -0.9616799999999999 -0.16027199999999997 -1.1219999999999999 0.9616799999999999 -4.968768 -1.282272 -7.693535999999999 -3.526224 -4.1673456 -11.860896 -2.724816 -14.104848 0.6410879999999999 -1.602816 2.4042719999999997 -1.1219999999999999 5.28936 -0.320592 8.014128 -0.801408 -0.16027199999999997 -1.4424959999999998 0.641136 -1.602816 1.442544 -0.480816 1.9233599999999997 1.1219999999999999 4.808447999999999 2.4042719999999997 4.00704 0.32054399999999994 2.2439519999999997 0.641136 3.365952 2.08368 4.808496 0.16027199999999997 0.16027199999999997 0.6410879999999999 -0.16032 0.32054399999999994 -0.320592 -1.602816 -1.602816 -1.602816 -2.88504 -1.9233599999999997 -5.128991999999999 0 -0.320592 -0.320592 -0.320592 -0.480864 -0.16032 -0.480864 0.641136 -0.801408 0.320592 -1.282272 -0.480816 -1.282224 -1.923408 -0.32054399999999994 -4.00704 0.801408 -3.205632 0.320592 0.16027199999999997 0.641136 -0.000048 0.641136 -0.480912 -1.442544 -5.128991999999999 -1.4424959999999998 -9.13608 3.686496 -10.578624 3.0454079999999997 -0.801408 6.892128 -0.641112 9.13608 1.763136 2.08368 2.4042239999999997 0.9616799999999999 5.128991999999999 1.442544 7.853808000000001 0 0.32054399999999994 0.480864 0.320592 0.641136 0.16027199999999997 0.16032 -0.480816 0.480864 -0.16022399999999998 0.480864 0.320592 0.16027199999999997 0.641136 -0.16027199999999997 2.08368 -0.641136 2.4042239999999997 -0.32054399999999994 0.320592 0 1.7630879999999998 0.16027199999999997 3.5261759999999995 0 0.16032 0.16027199999999997 0.16032 0.32054399999999994 0.16032 0.480864 0 0 -1.602816 0 -3.205632Z" clip-rule="evenodd" stroke-width="1"></path><path fill="#000000" fill-rule="evenodd" d="M15.681023999999999 15.4488c1.282272 -1.121952 1.923408 -3.5261759999999995 2.2439519999999997 -5.289312 2.2439519999999997 -0.9616799999999999 8.815584 -1.7630879999999998 10.258128 -1.7630879999999998 0.32054399999999994 0.801408 1.7630879999999998 4.16736 2.243904 3.526224 0.16032 -0.32054399999999994 -0.16027199999999997 -0.320592 -0.6410879999999999 -1.1219999999999999 -0.641136 -1.282272 -0.961728 -2.88504 -1.28232 -2.88504 -1.602816 -0.320592 -11.21976 0.80136 -11.380032 2.083632 -0.16027199999999997 1.602816 -0.6410879999999999 4.167312 -1.7630879999999998 5.289312 -0.16027199999999997 0 0.16027199999999997 0.480816 0.32054399999999994 0.16027199999999997Z" clip-rule="evenodd" stroke-width="1"></path><path fill="#000000" fill-rule="evenodd" d="M25.137503999999996 15.609072000000001c-0.16027199999999997 1.442544 -0.0276 1.403568 0.613536 2.846112 0.330384 0.253008 0.480816 0.16027199999999997 0.480816 -0.16032 -0.16027199999999997 -2.08368 -0.132624 -1.243248 -0.61344 -2.846112 0 -0.32054399999999994 -0.480912 -0.16027199999999997 -0.480912 0.16032Z" clip-rule="evenodd" stroke-width="1"></path><path fill="#000000" fill-rule="evenodd" d="M26.081376 19.26552c-0.480816 0.480864 -1.923408 0.801456 -2.5644959999999997 0.320592 -0.320592 -0.16027199999999997 -0.480864 0.16032 -0.320592 0.320592 0.801408 0.9616799999999999 2.885088 0.801408 3.526224 -0.16027199999999997 0.641136 -0.961728 -0.641136 -1.763136 -0.801408 -1.442544 -0.320592 0.16027199999999997 0.641136 0.480816 0.16027199999999997 0.961632Z" clip-rule="evenodd" stroke-width="1"></path><path fill="#000000" fill-rule="evenodd" d="M18.405791999999998 15.288528c1.442544 -1.923408 4.808447999999999 0.641136 5.449584 -0.641136 0.16027199999999997 -0.32054399999999994 0.16027199999999997 -1.4424959999999998 -0.320592 -1.282224 -0.480816 0.16027199999999997 0.16032 1.1219999999999999 -0.480816 0.9616799999999999 -1.9233599999999997 -0.801408 -4.00704 -1.282224 -4.968768 0.641136 -0.32054399999999994 0.320592 0.16032 0.6410879999999999 0.320592 0.32054399999999994Z" clip-rule="evenodd" stroke-width="1"></path><path fill="#000000" d="M24.817104 13.52568c0.32054399999999994 0 0.16027199999999997 0.32054399999999994 0.6410879999999999 0.641136 2.885088 -2.724816 4.16736 -0.641184 4.007088 -0.480912 0 0.16032 -0.16032 0.16032 -0.320592 0 -1.442544 -1.4424959999999998 -3.04536 1.763136 -4.007088 0.961728 -0.32054399999999994 -0.16027199999999997 -0.80136 -1.121952 -0.32049599999999995 -1.121952Z" stroke-width="1"></path><path fill="#000000" fill-rule="evenodd" d="M21.13056 22.020191999999998c1.602816 0.16027199999999997 1.7630879999999998 0 3.526224 -0.480816 0.32054399999999994 0 0.32054399999999994 -0.480912 0 -0.480912 -2.4042719999999997 0 -2.08368 0.000048 -3.365952 0.480912 -0.480864 0 -0.480864 0.480816 -0.16027199999999997 0.480816Z" clip-rule="evenodd" stroke-width="1"></path><path fill="#000000" fill-rule="evenodd" d="M25.939056 21.218448c2.2439519999999997 0.16032 1.763136 -0.16027199999999997 3.04536 -0.16027199999999997 0.320592 0 0.480816 -0.480816 0.16027199999999997 -0.480816 -1.442544 -0.480864 -2.08368 -0.16027199999999997 -3.04536 0.16027199999999997 -0.480864 0.16027199999999997 -0.480864 0.641136 -0.16027199999999997 0.480816Z" clip-rule="evenodd" stroke-width="1"></path><path fill="#000000" fill-rule="evenodd" d="M28.824144 21.859631999999998c-0.16027199999999997 -1.121952 0.16027199999999997 1.1219999999999999 -7.0524000000000004 0.801408 -1.282272 0 0.16022399999999998 3.686496 4.327584 2.564544 2.2439519999999997 -0.641136 3.04536 -2.08368 2.724816 -3.365952Zm-0.480864 0.320592c0 0.480864 -0.320592 1.121952 -0.801456 1.442544 -1.282224 0.9616799999999999 -4.167312 1.282224 -5.289263999999999 -0.320592 0 0 3.205632 0.480864 6.09072 -1.121952Z" clip-rule="evenodd" stroke-width="1"></path><path fill="#000000" fill-rule="evenodd" d="M25.297871999999998 26.829072c0.961728 0.16027199999999997 1.763136 0 2.564544 -0.801408 0.32054399999999994 -0.16027199999999997 0 -0.641136 -0.320592 -0.320592 -0.480816 0.320592 -2.4042239999999997 0.641136 -2.4042239999999997 0.961728l0.16027199999999997 0.16027199999999997Z" clip-rule="evenodd" stroke-width="1"></path><path fill="#000000" fill-rule="evenodd" d="M18.40584 16.250016c-0.320592 0 -0.320592 0.480864 0 0.480864 1.282272 0 2.083632 0.32054399999999994 3.686448 -0.320592 0.16032 0 0.320592 -0.16032 0.320592 -0.320592 0 -0.9616799999999999 -0.641136 -0.6410879999999999 -0.480864 -0.32054399999999994 -0.32054399999999994 0.480864 -0.6410879999999999 -0.32054399999999994 -3.5261759999999995 0.480864Z" clip-rule="evenodd" stroke-width="1"></path><path fill="#000000" fill-rule="evenodd" d="M19.2072 17.211888c0.480816 1.121952 2.243904 -0.16032 1.4424959999999998 -0.961728 -0.801408 -0.801408 -1.9233599999999997 0.16032 -1.4424959999999998 0.961728Z" clip-rule="evenodd" stroke-width="1"></path><path fill="#000000" fill-rule="evenodd" d="M26.259503999999996 15.288288c0 0.801408 0.80136 0.641136 1.282224 0.641136 1.1219999999999999 -0.32054399999999994 0.961728 -0.480816 1.923408 -0.801408 0.32054399999999994 -0.16027199999999997 0.16027199999999997 -0.480864 -0.16027199999999997 -0.480864 -2.4042719999999997 0.480864 -2.2439519999999997 0.641136 -2.4042719999999997 0.641136 0 0 -0.16027199999999997 0 -0.16027199999999997 -0.16027199999999997 -0.16027199999999997 -0.32054399999999994 -0.480816 -0.16032 -0.480816 0.16027199999999997Z" clip-rule="evenodd" stroke-width="1"></path><path fill="#000000" fill-rule="evenodd" d="M27.541776 15.12792c-1.121952 0.801408 0.16032 2.083632 1.1219999999999999 1.282224 0.801408 -0.9616799999999999 -0.480864 -1.9233599999999997 -1.1219999999999999 -1.282224Z" clip-rule="evenodd" stroke-width="1"></path><path fill="#000000" fill-rule="evenodd" d="M35.716224 13.044479999999998c0.32054399999999994 -1.923408 2.4042719999999997 -1.763136 2.885088 -0.641136 0.320592 1.282272 -1.763136 1.442544 -1.282272 3.526224 0 0.32054399999999994 0.480864 0.16027199999999997 0.480864 -0.16027199999999997 -0.32054399999999994 -1.442544 0.9616799999999999 -1.4425919999999999 1.442544 -2.564544 0.480864 -0.801408 -0.16027199999999997 -2.2439519999999997 -1.442544 -2.564544 -2.4042239999999997 -0.641136 -3.04536 2.4042719999999997 -2.4042239999999997 2.564544 0.16027199999999997 0 0.32054399999999994 0 0.32054399999999994 -0.16027199999999997Z" clip-rule="evenodd" stroke-width="1"></path><path fill="#000000" fill-rule="evenodd" d="M37.960271999999996 16.730832c-0.16032 -0.16032 -0.801408 -0.000048 -0.9616799999999999 0.32049599999999995 -0.32054399999999994 0.320592 -0.16027199999999997 0.961728 0.641136 1.1219999999999999 0.9616799999999999 0 1.121952 -1.4424959999999998 0.32054399999999994 -1.4424959999999998Z" clip-rule="evenodd" stroke-width="1"></path><path fill="#000000" fill-rule="evenodd" d="M40.524672 12.40296c0.320592 -1.1219999999999999 1.923408 -1.282272 2.2439519999999997 0 0.16027199999999997 0.6410879999999999 -0.6410879999999999 0.80136 -1.121952 1.4424959999999998 -0.32054399999999994 0.641136 -0.16027199999999997 1.282272 0 1.923408 0 0.320592 0.480816 0.16027199999999997 0.480816 0 0 -0.480816 -0.16027199999999997 -1.121952 0.16032 -1.4424959999999998 0.32054399999999994 -0.480864 1.9233599999999997 -0.801456 1.282224 -2.4042719999999997 -0.32054399999999994 -0.801408 -1.282224 -1.282272 -2.2439519999999997 -0.9616799999999999 -0.9616799999999999 0.32054399999999994 -1.602768 1.602816 -1.121952 1.7630879999999998 0.16032 -0.16027199999999997 0.32054399999999994 -0.32054399999999994 0.32054399999999994 -0.32054399999999994Z" clip-rule="evenodd" stroke-width="1"></path><path fill="#000000" fill-rule="evenodd" d="M42.127488 16.410287999999998c-0.16027199999999997 -0.32054399999999994 -0.641136 0 -0.9616799999999999 0.480864 -0.16027199999999997 0.480816 0 1.121952 0.9616799999999999 0.9616799999999999 0.801456 -0.480816 0.801456 -1.282224 0 -1.442544Zm-0.16027199999999997 0.480864c0.16027199999999997 0 0.16027199999999997 0 0 0Z" clip-rule="evenodd" stroke-width="1"></path><path fill="#000000" fill-rule="evenodd" d="M44.852399999999996 11.762495999999999c1.282272 -1.121952 2.4042239999999997 -0.320592 2.4042239999999997 0.32054399999999994 0 0.9616799999999999 -1.923408 0.641136 -1.282272 3.365952 0 0.32054399999999994 0.480864 0.16027199999999997 0.480864 -0.16032 -0.32054399999999994 -1.9233599999999997 0.641136 -1.602816 1.282224 -2.4042239999999997 0.48096 -0.641136 0.32064 -1.7630879999999998 -0.6410879999999999 -2.2439519999999997 -1.602816 -0.801408 -3.0454079999999997 0.801456 -2.724816 1.1219999999999999 0.16027199999999997 0.16032 0.320592 0.16032 0.480864 0Z" clip-rule="evenodd" stroke-width="1"></path><path fill="#000000" fill-rule="evenodd" d="M46.294895999999994 16.090176c-0.16032 -0.16027199999999997 -0.801456 0.000048 -0.961728 0.480864 -0.16027199999999997 0.320592 -0.16027199999999997 0.9616799999999999 0.801408 1.121952 1.282272 0 0.961728 -1.7630879999999998 0.16032 -1.602816Z" clip-rule="evenodd" stroke-width="1"></path><path fill="#000000" fill-rule="evenodd" d="M0.45418559999999997 23.783472c0.9616944 -1.763136 2.724816 -1.1219999999999999 2.724816 -0.320592s-0.8014368 0.9616799999999999 -1.2822864 1.602816c-0.48084479999999996 0.641136 -0.48082559999999996 1.442544 -0.48082559999999996 2.08368 0 0.320592 0.48082559999999996 0.320592 0.48082559999999996 0 0.3205632 -2.5644959999999997 1.1219952 -1.602864 1.923408 -2.885088 0.3205632 -0.641136 0.3205824 -1.602816 -0.4808304 -2.08368 -2.0836656000000002 -1.442544 -3.8467728 1.442544 -3.20564256 1.763136 0.16028208 0 0.1602528 -0.16027199999999997 0.32053536 -0.16027199999999997Z" clip-rule="evenodd" stroke-width="1"></path><path fill="#000000" fill-rule="evenodd" d="M5.102208 23.462928c1.282272 -1.4424959999999998 2.564544 -0.801408 2.564544 -0.16027199999999997 0 0.320592 -0.32054399999999994 0.480912 -0.641136 0.641184 -1.121952 0.801408 -0.9616799999999999 1.923312 -0.801408 3.365856 0 0.16032 0.16032 0.16032 0.320592 0.16032 0.480864 0 0.16027199999999997 -0.480864 0.32054399999999994 -1.763136 0.16027199999999997 -0.801408 0.480816 -0.9616799999999999 0.801408 -1.282224 2.5644959999999997 -1.7630879999999998 -0.801408 -4.648175999999999 -2.8850688 -1.442544 -0.3205632 0.320592 0.1602528 0.641136 0.3205248 0.480816Z" clip-rule="evenodd" stroke-width="1"></path><path fill="#000000" fill-rule="evenodd" d="M10.231392 23.462448c0.801408 -1.282272 1.923408 -0.480864 1.923408 0.16027199999999997 0 1.1219999999999999 -1.602816 0.801456 -1.602816 3.526224 0 0.320592 0.480816 0.320592 0.480816 0 0.16027199999999997 -1.9233599999999997 1.1219999999999999 -1.602816 1.763136 -2.5644959999999997 1.121952 -1.602816 -1.1219999999999999 -3.365952 -2.4042719999999997 -2.083728 -1.121952 0.961728 -0.32054399999999994 1.282272 -0.16027199999999997 0.961728Z" clip-rule="evenodd" stroke-width="1"></path><path fill="#000000" fill-rule="evenodd" d="M2.2172016 28.110816c-0.1602816 -0.480816 -1.9233657599999998 -0.16027199999999997 -1.2822384 1.1219999999999999 0.320568 0.9616799999999999 1.6027871999999999 0.641136 1.7630687999999999 -0.16027199999999997 0 -0.480864 -0.1602624 -0.801456 -0.4808304 -0.961728Z" clip-rule="evenodd" stroke-width="1"></path><path fill="#000000" fill-rule="evenodd" d="M6.544944 28.271328c-0.16027199999999997 -0.641136 -2.0836943999999997 0.16032 -1.282272 1.28232 0.480816 0.801408 1.602816 0.480816 1.7630879999999998 -0.320592 0 -0.480864 0.000048 -0.801456 -0.480816 -0.961728Z" clip-rule="evenodd" stroke-width="1"></path><path fill="#000000" fill-rule="evenodd" d="M11.032656 28.431264c0 -0.32054399999999994 -0.480816 -0.32054399999999994 -0.9616799999999999 -0.32054399999999994 -1.121952 0.32054399999999994 -0.9616799999999999 1.923408 0.320592 1.923408 0.801408 -0.16032 1.121952 -1.1219999999999999 0.6410879999999999 -1.602864Z" clip-rule="evenodd" stroke-width="1"></path><path fill="#000000" fill-rule="evenodd" d="M24.015696 28.59216c-0.32054399999999994 0.641136 -0.32054399999999994 0.641136 0 1.763136 0 0.32054399999999994 0.480864 0.32054399999999994 0.480864 0 0.32054399999999994 -0.9616799999999999 0.32054399999999994 -0.9616799999999999 0 -1.763136 0 -0.32054399999999994 -0.480864 -0.32054399999999994 -0.480864 0Z" clip-rule="evenodd" stroke-width="1"></path><path fill="#000000" fill-rule="evenodd" d="M25.458239999999996 28.431744c-0.16027199999999997 0.641136 -0.32054399999999994 0.961728 0.320592 1.923408 0 0.320592 0.480816 0.16027199999999997 0.480816 -0.16027199999999997 0 -1.1219999999999999 0.16027199999999997 -0.801456 -0.32054399999999994 -1.763136 0 -0.32054399999999994 -0.480864 -0.32054399999999994 -0.480864 0Z" clip-rule="evenodd" stroke-width="1"></path><path fill="#000000" fill-rule="evenodd" d="M26.90064 27.951119999999996c0 0.641136 -0.16022399999999998 0.801408 0.480912 1.7630879999999998 0.16027199999999997 0.32054399999999994 0.480816 0.16032 0.480816 -0.16027199999999997 -0.16027199999999997 -0.801408 0.16027199999999997 -0.801408 -0.480816 -1.7630879999999998 -0.16032 -0.32054399999999994 -0.641184 -0.16027199999999997 -0.480912 0.16027199999999997Z" clip-rule="evenodd" stroke-width="1"></path></svg>