<svg xmlns="http://www.w3.org/2000/svg" fill="none" viewBox="0 0 48 48" height="48" width="48" id="Crying-Jordan--Streamline-Memes.svg"><desc>Crying Jordan Streamline Element: https://streamlinehq.com</desc><path stroke="#000000" stroke-linecap="round" stroke-linejoin="round" d="M28.766 10.934c3.16 0.703 4.752 0.782 6.75 -0.535" stroke-width="1"></path><path stroke="#000000" stroke-linecap="round" stroke-linejoin="round" d="M23.047 42.442s0.535 -0.946 4.793 0c6.683 1.485 8.88 -1.145 9.394 -2.63 0.444 -1.282 3.57 -4.73 3.167 -17.257m-0.167 -3.189a98.444 98.444 0 0 0 -0.313 -3.468C36.808 -6.282 11.646 -0.622 10.49 10.824c-0.206 2.033 -0.313 5.17 -0.24 8.082" stroke-width="1"></path><path stroke="#000000" stroke-linecap="round" stroke-linejoin="round" d="m10.813 28.281 0.384 3.085c0.475 3.447 9.412 14.909 13.662 14.759 3.001 -0.106 4.235 -1.625 4.985 -3.375" stroke-width="1"></path><path stroke="#000000" stroke-linecap="round" stroke-linejoin="round" d="M30.61 34.969s0.666 -0.38 2.687 0c1.366 0.256 3.125 -0.407 3.125 -0.407" stroke-width="1"></path><path stroke="#000000" stroke-linecap="round" stroke-linejoin="round" d="M12.672 19.5C7.343 15.688 6.25 29.25 14 29.25" stroke-width="1"></path><path stroke="#000000" stroke-linecap="round" stroke-linejoin="round" d="M27.36 13.5c4.477 0.82 6.731 0.912 9.562 -0.625" stroke-width="1"></path><path stroke="#000000" stroke-linecap="round" stroke-linejoin="round" d="M30.172 22.66c-0.56 0.294 -4.469 1.559 -6.875 -0.344 1.11 -0.691 4.765 -4.628 6.875 0.344Z" stroke-width="1"></path><path stroke="#000000" stroke-linecap="round" stroke-linejoin="round" d="M40.39 22.187c-2.374 0.438 -4.846 -0.222 -5.5 -0.875 0.454 -1.375 4.422 -3.156 5.735 -1.469" stroke-width="1"></path><path stroke="#000000" stroke-linecap="round" stroke-linejoin="round" d="M31.319 28.67c-0.405 1.06 -0.355 1.474 0.708 1.52 1.063 0.046 4.1 -0.092 4.151 -1.29 0.051 -1.198 -1.873 -2.995 -1.923 -4.837" stroke-width="1"></path><path stroke="#000000" stroke-linecap="round" stroke-linejoin="round" d="M24.922 17.835c0.912 -0.988 2.075 -0.995 4.375 0" stroke-width="1"></path><path stroke="#000000" stroke-linecap="round" stroke-linejoin="round" d="M39.75 15.938c-1.125 -0.72 -4.234 1.625 -4.234 1.625" stroke-width="1"></path><path stroke="#000000" stroke-linecap="round" d="M26.984 25.5c-1.27 0.672 -1.22 3.032 -0.406 4.028 1.503 1.837 -0.174 4.133 0 6.222" stroke-width="1"></path><path stroke="#000000" stroke-linecap="round" d="M37.115 24.248c0 1.377 1.057 1.94 1.338 3.47 0.281 1.532 -0.306 3.013 1.412 4.467" stroke-width="1"></path><path stroke="#000000" stroke-linecap="round" stroke-linejoin="round" d="M36.922 40.594c0.175 0 4.885 2 6.281 2.875" stroke-width="1"></path><path stroke="#000000" stroke-linecap="round" stroke-linejoin="round" d="M10.906 29.313c-0.312 0.187 -4.547 1.187 -6.11 4.437" stroke-width="1"></path><path stroke="#000000" stroke-linecap="round" stroke-linejoin="round" d="M10.969 29.469c-0.313 0.312 -3.36 2.343 -2.172 5.656 0.95 2.65 3.229 9.188 4.25 12.125" stroke-width="1"></path><path stroke="#000000" stroke-linecap="round" stroke-linejoin="round" d="M13.688 27.375c0.124 1.274 1.137 4.484 2.437 6.625" stroke-width="1"></path><path fill="#000000" fill-rule="evenodd" d="M38.49 19.337a1.336 1.336 0 1 0 0 2.672 1.336 1.336 0 0 0 0 -2.672Z" clip-rule="evenodd" stroke-width="1"></path><path fill="#000000" fill-rule="evenodd" d="M27.43 20.533a1.336 1.336 0 1 0 0 2.671 1.336 1.336 0 0 0 0 -2.67Z" clip-rule="evenodd" stroke-width="1"></path></svg>