<svg xmlns="http://www.w3.org/2000/svg" fill="none" viewBox="0 0 48 48" height="48" width="48" id="Crying-Jordan-Hand-Drawn--Streamline-Memes.svg"><desc>Crying Jordan Hand Drawn Streamline Element: https://streamlinehq.com</desc><path fill="#000000" fill-rule="evenodd" d="M26.06736 22.31664c1.0943999999999998 -0.62544 2.03328 -1.40736 3.12816 -1.56384 1.56432 -0.31296 2.50272 0.9384 2.50272 2.34624 0 0.31296 0.46896 0.31296 0.46896 0 0.31296 -2.03328 -1.0943999999999998 -3.5976 -3.12816 -3.28464 -1.40736 0.31296 -2.34624 1.25136 -3.28464 2.03328 -0.15648 0.31296 0.15648 0.62544 0.31296 0.46896Z" clip-rule="evenodd" stroke-width="1"></path><path fill="#000000" fill-rule="evenodd" d="M38.26752 21.534719999999997c0.7823999999999999 -2.6592 2.50224 -2.6592 2.9716799999999997 -1.40736 0.15648 0.31248 0.46943999999999997 0.156 0.46943999999999997 -0.15648 -0.31296 -2.03328 -2.6592 -2.03328 -3.5976 -0.15648 -0.15648 0.31296 -0.46943999999999997 1.72032 -0.15648 1.72032 0.15648 0.31296 0.31296 0.15648 0.31296 0Z" clip-rule="evenodd" stroke-width="1"></path><path fill="#000000" fill-rule="evenodd" d="M23.095679999999998 14.18352c2.34624 0.78192 4.22304 -1.4078399999999998 6.72528 -1.56432 1.5647999999999997 0 3.28464 0.46943999999999997 5.00544 0.15648 1.56384 -0.31296 2.34624 -1.56432 3.5976 -1.8768 0.31248 0 0.15648 -0.46943999999999997 -0.15648 -0.46943999999999997 -1.4078399999999998 0.31296 -2.18976 1.4078399999999998 -3.5976 1.56432 -2.9716799999999997 0.31248 -4.22304 -1.4078399999999998 -8.13312 0.78192 -1.09488 0.62544 -2.1902399999999997 1.25136 -3.4415999999999998 0.9384 -0.156 0 -0.31248 0.46943999999999997 0 0.46943999999999997Z" clip-rule="evenodd" stroke-width="1"></path><path fill="#000000" fill-rule="evenodd" d="M24.816 16.52976c1.8768 0.46943999999999997 3.4411199999999997 -0.46896 5.16144 -0.78192 1.25136 -0.31248 2.50272 0 3.7540799999999996 -0.15648 2.34624 -0.15648 3.4411199999999997 -1.56384 5.16144 -2.18976 0.15648 0 0.15648 -0.15648 0.15648 -0.31248 -0.15648 -0.62592 -2.18976 0.78192 -3.7536 1.40736 -2.03376 0.7823999999999999 -3.5976 -0.15648 -5.630879999999999 0.46943999999999997 -1.25136 0.31296 -2.34624 0.9384 -3.4415999999999998 1.0943999999999998 -1.25088 0.31296 -1.56384 -0.156 -1.72032 0.15696 0.15648 0.156 0.31296 0.15648 0.31296 0.31248Z" clip-rule="evenodd" stroke-width="1"></path><path fill="#000000" fill-rule="evenodd" d="M25.598399999999998 19.03248c2.9712 -0.31296 5.943359999999999 -1.56432 7.663679999999999 -0.31296l0.31296 0c0.31296 -0.46896 -1.8768 -2.03328 -5.78736 -0.9384 -0.78192 0.31296 -1.56384 0.62592 -2.34576 0.7823999999999999 -0.31296 0 -0.15648 0.46896 0.156 0.46896Z" clip-rule="evenodd" stroke-width="1"></path><path fill="#000000" fill-rule="evenodd" d="M37.79808 18.09456c1.09488 -0.7823999999999999 2.50272 -1.4078399999999998 3.91056 -1.25136 0.31248 0 0.46896 -0.46943999999999997 0.15648 -0.46943999999999997 -1.8768 -0.62544 -3.28464 0 -4.37952 1.25136 -0.31296 0.31296 0 0.62544 0.31248 0.46943999999999997Z" clip-rule="evenodd" stroke-width="1"></path><path fill="#000000" fill-rule="evenodd" d="M30.60336 34.67328c-0.15648 0.62592 -0.15648 0.46943999999999997 0 1.25136 0 0.31296 0.46896 0.31296 0.46896 0 0.31296 -0.62544 0.31296 -0.7823999999999999 0 -1.4078399999999998 0 -0.156 -0.46896 -0.156 -0.46896 0.15648Z" clip-rule="evenodd" stroke-width="1"></path><path fill="#000000" fill-rule="evenodd" d="M14.805599999999998 19.50192c-2.18976 -2.03328 -4.37952 -1.4078399999999998 -5.00496 1.25136 -1.72032 6.4128 4.37952 10.32288 5.474399999999999 6.8822399999999995 0.15648 -0.31296 -0.31296 -0.46943999999999997 -0.46943999999999997 -0.15648 -0.62544 1.56384 -2.34576 0.62544 -3.28464 -0.62592 -2.34576 -3.12816 -1.0943999999999998 -10.47936 2.97216 -7.03824 0.15648 0.31248 0.46896 0 0.31248 -0.31296Z" clip-rule="evenodd" stroke-width="1"></path><path fill="#000000" fill-rule="evenodd" d="M14.49312 25.601760000000002c-0.15648 -0.31248 -0.31296 -1.25136 0.156 -1.56384 0.31296 -0.15648 0 -0.62592 -0.31248 -0.31296 -0.9384 0.46943999999999997 -1.25136 1.56432 -0.15648 2.34624 0.15648 0 0.46896 -0.31296 0.31248 -0.46943999999999997Z" clip-rule="evenodd" stroke-width="1"></path><path fill="#000000" fill-rule="evenodd" d="M14.80608 23.72496c0 -1.56432 -0.31296 -3.12816 -1.7207999999999999 -3.5976 -0.9384 -0.31248 -1.56432 0.15648 -1.8768 0.9384 -0.31296 0.9384 -0.15648 2.18976 0.15648 2.8156799999999995 0.156 0.31248 0.46896 0.15648 0.46896 -0.15648 -0.31248 -0.7823999999999999 -0.15648 -3.12816 1.09488 -2.6592 0.9384 0.31296 1.4078399999999998 1.8768 1.4078399999999998 2.8156799999999995 0 0.156 0.46943999999999997 0.15648 0.46943999999999997 -0.15648Z" clip-rule="evenodd" stroke-width="1"></path><path fill="#000000" fill-rule="evenodd" d="M12.30336 18.56304c-0.62592 -4.22304 0.15648 -9.540959999999998 3.28464 -12.8256C18.403200000000002 2.60928 23.72112 0.576 27.94416 1.0449599999999999 32.9496 1.67088 38.424 6.83232 39.83184 10.5864c0.156 0.31248 0.46896 0.15648 0.46896 -0.15648C38.89296 6.2063999999999995 33.41904 0.88896 28.10064 0.10656c-4.536 -0.62544 -10.0104 1.56432 -12.98208 4.84896 -3.12816 3.4411199999999997 -3.9100800000000002 8.75904 -3.12816 13.451039999999999 -0.15648 0.46943999999999997 0.31296 0.46943999999999997 0.31296 0.15648Z" clip-rule="evenodd" stroke-width="1"></path><path fill="#000000" fill-rule="evenodd" d="M39.98784 11.99424c0.46943999999999997 4.06656 0.7823999999999999 3.5976 1.25136 4.69248 0.46943999999999997 0.9384 0 1.72032 0.46943999999999997 1.72032 0.46896 0 0.31248 -1.72032 0.15648 -2.18976 -0.46943999999999997 -1.09488 0 0.62544 -1.4078399999999998 -4.22304 -0.15648 -0.46943999999999997 -0.62592 -0.31296 -0.46943999999999997 0Z" clip-rule="evenodd" stroke-width="1"></path><path fill="#000000" fill-rule="evenodd" d="M41.86464 23.72448c0.62592 6.4128 -0.9384 8.44656 -2.34624 12.513119999999999 -0.9384 2.8152 -0.78192 5.31792 -3.59712 6.4128 -2.6592 0.9384 -7.1952 0.46943999999999997 -10.0104 -0.62544 -6.56928 -2.8156799999999995 -5.474399999999999 -7.977119999999999 -6.4128 -7.66416 -0.15648 0 -0.15648 0.15648 -0.15648 0.31248 0.7823999999999999 3.28464 1.8768 6.10032 6.25632 8.1336 3.5976 1.56432 8.2896 1.72032 10.63584 0.7823999999999999 3.28512 -1.25184 3.12864 -4.06704 4.06704 -6.88272 1.4078399999999998 -4.06656 2.8152 -6.4128 2.03328 -12.8256 0 -0.62544 -0.46943999999999997 -0.46896 -0.46943999999999997 -0.15648Z" clip-rule="evenodd" stroke-width="1"></path><path fill="#000000" d="M37.172639999999994 19.50144c-0.9388799999999999 1.25136 -1.09488 1.8768 -0.46943999999999997 3.5976 0.31296 0.78192 0.46943999999999997 1.56384 0.9384 2.18976 0.46943999999999997 0.9384 1.56432 1.40736 1.09488 2.34624 -0.31248 1.0943999999999998 -1.8768 2.03328 -2.9716799999999997 1.72032 -0.62544 -0.15648 -1.25136 -0.9384 -2.03328 -0.7823999999999999 -0.9384 0.15648 -0.9384 1.8768 0.62544 1.5647999999999997 0.31296 0 0.15648 -0.46943999999999997 -0.15648 -0.46943999999999997 -0.78192 0.15648 -0.78192 -0.46943999999999997 -0.46896 -0.46943999999999997s1.25136 0.7823999999999999 1.72032 0.9384c1.56432 0.46943999999999997 3.4415999999999998 -0.62544 3.91056 -2.03328 0.62544 -1.56384 -0.7823999999999999 -2.18976 -1.7207999999999999 -3.9100800000000002 -0.15648 -0.46943999999999997 -0.78192 -1.8768 -0.9384 -2.34624 -0.15648 -0.46943999999999997 -0.15648 -0.7823999999999999 0.15648 -1.25136 0.31296 -0.7823999999999999 0.62544 -0.9384 0.31296 -1.09488Z" stroke-width="1"></path><path fill="#000000" fill-rule="evenodd" d="M32.323679999999996 26.69616c-1.72032 0.7823999999999999 -2.03328 2.6592 -0.9384 3.5976 0.46943999999999997 0.46896 1.7207999999999999 0.62544 1.7207999999999999 0.156 0 -0.46896 -0.62592 0 -1.25136 -0.62544 -0.62592 -0.62544 0 -2.18976 0.7823999999999999 -2.6592 0.312 -0.156 -0.00048 -0.62544 -0.31344 -0.46896Z" clip-rule="evenodd" stroke-width="1"></path><path fill="#000000" fill-rule="evenodd" d="M31.072799999999997 35.456160000000004c2.34576 -0.46943999999999997 0.78192 0.156 6.88176 -1.09536 0.7823999999999999 -0.156 0.7823999999999999 0.62592 0.46943999999999997 1.09536 -0.15648 0.156 0.15648 0.46896 0.31248 0.31248 0.7823999999999999 -0.7823999999999999 0.62592 -2.34624 -0.9384 -2.18976 -0.62544 0 -7.3511999999999995 1.09488 -7.19472 1.7207999999999999 0.31296 0.15648 0.46943999999999997 0.15648 0.46943999999999997 0.15648Z" clip-rule="evenodd" stroke-width="1"></path><path fill="#000000" fill-rule="evenodd" d="M35.921279999999996 35.4552c-0.324 0.3264 -0.62544 0.62592 -0.9384 1.09536 -0.15648 0.156 0.15648 0.62544 0.31296 0.31248 0.7262399999999999 -0.51264 0.82224 -0.76896 1.0943999999999998 -1.25136 0.15648 -0.15648 -0.31248 -0.46896 -0.46896 -0.15648Z" clip-rule="evenodd" stroke-width="1"></path><path fill="#000000" fill-rule="evenodd" d="M37.01616 35.4552c0 0.15648 -0.056639999999999996 0.33024 -0.056639999999999996 0.48672 0 0.31248 0.056639999999999996 0.45167999999999997 0.056639999999999996 0.6081599999999999 0 0.31296 0.46943999999999997 0.31296 0.46943999999999997 0 0.13344 -0.62544 0 -0.7531199999999999 0 -1.0943999999999998 0 -0.31296 -0.46943999999999997 -0.31296 -0.46943999999999997 0Z" clip-rule="evenodd" stroke-width="1"></path><path fill="#000000" fill-rule="evenodd" d="M26.22384 24.193920000000002c0 0.9384 0.7823999999999999 1.56384 1.72032 1.25088 0 1.25136 0.62592 1.7207999999999999 -0.31248 2.8156799999999995 -2.03376 2.34624 0.156 2.8152 0.62544 3.4411199999999997 0.31296 0.46896 -0.31296 1.4078399999999998 -0.7823999999999999 1.8768 -0.156 0.31296 0.15696 0.46943999999999997 0.31296 0.31296 0.62592 -0.7823999999999999 0.62592 -0.7823999999999999 0.7823999999999999 -1.09488 0.9384 -1.7207999999999999 -1.09488 -1.8768 -1.25136 -2.8152 0 -0.9388799999999999 1.56384 -1.25184 1.4078399999999998 -2.97216 0 -0.7823999999999999 -0.31296 -1.40736 0 -2.18976 0.156 -0.46896 0.62544 -0.7823999999999999 0.156 -1.0943999999999998 -0.46896 -0.31296 -0.62544 0.312 -1.25088 0.78192 -0.31296 0.156 -0.62592 0.31248 -0.7823999999999999 0 -0.15648 -0.46943999999999997 0.31296 -0.7823999999999999 -0.156 -1.09536 -0.31296 -0.156 -0.46943999999999997 0.15648 -1.09536 0 -0.31248 -0.156 0 -0.62544 0.31296 -0.78192 0.9384 -0.31296 0.9384 0.62592 1.8768 0.31296 0.31296 0 0.46943999999999997 -0.15648 0.62592 -0.15648 0.31248 0 0.46896 0.46943999999999997 0.9384 0.31296 0.62544 0 1.09488 -1.09488 1.8768 -0.46943999999999997 0.15648 0 0.15648 0.31296 0.15648 0.46943999999999997 0 0.31248 0.46943999999999997 0.31248 0.46943999999999997 0 0 -0.31296 0 -0.62592 -0.31296 -0.7823999999999999 -0.9384 -0.9384 -1.8768 0.31296 -2.18976 0.31296 -0.15648 0 -0.62544 -0.31296 -0.7823999999999999 -0.31296 -0.46896 -0.156 -0.93792 0.31296 -1.25088 0.15648 -0.31296 -0.15648 -0.7823999999999999 -0.78192 -1.7207999999999999 -0.31248 -1.0943999999999998 0.31248 -0.9384 2.03328 0.62592 2.03328Z" clip-rule="evenodd" stroke-width="1"></path><path fill="#000000" fill-rule="evenodd" d="M31.69824 23.41152c-0.62592 0.46943999999999997 -2.18976 0.62592 -2.03328 2.34624 0 0.46943999999999997 0.31248 1.09488 0.15648 1.56432 -0.15648 0.46896 -0.62592 0.9384 -0.9388799999999999 1.56384 -0.46896 1.09488 0.31296 1.56432 0.62592 2.03328 0 0.15648 0.15648 0.15648 0.31296 0.15648 0.31248 -0.15648 -0.15648 -0.62544 -0.31296 -1.0943999999999998 -0.46943999999999997 -0.7823999999999999 0.9384 -1.4078399999999998 1.0943999999999998 -2.34672 0.31344 -1.0943999999999998 -0.62544 -2.03328 0.15696 -2.8152 0.46896 -0.46896 1.56384 -0.7823999999999999 1.25088 -1.25136 0 -0.31248 -0.156 -0.31296 -0.31248 -0.15648Z" clip-rule="evenodd" stroke-width="1"></path><path fill="#000000" fill-rule="evenodd" d="M39.83184 21.22224c-0.15648 -0.156 -0.15648 -0.62544 -0.7823999999999999 -0.62544 -0.46896 0 -0.7823999999999999 0.31296 -1.0943999999999998 0.62544 -0.9388799999999999 0.9388799999999999 -0.46943999999999997 2.34624 0.62544 2.6592 0.78192 0.9384 0.156 1.4078399999999998 0.31248 2.18976 0 0.31296 0.31296 0.9384 0.62592 0.7823999999999999 0.31248 -0.15696 -0.15648 -0.31296 0 -0.9388799999999999 0.15648 -0.62544 0.46896 -1.0943999999999998 0.15648 -1.8768 -0.15648 -0.31296 -0.46943999999999997 -0.9384 -0.7823999999999999 -0.9384 -0.46896 0 -0.62544 -0.7823999999999999 -0.31248 -1.09488 0.156 -0.15648 0.31248 -0.46943999999999997 0.62544 -0.46943999999999997 0.31296 0 0.62592 1.25136 1.56432 0 0.46896 -0.62544 0.46896 -0.9384 0.9384 -0.15648 0.15648 0.31296 0.46896 0.15648 0.46896 -0.15648 -1.0943999999999998 -2.18976 -1.8768 -0.156 -2.34624 0Zm0 0c0.156 0 0.156 0 0 0Z" clip-rule="evenodd" stroke-width="1"></path><path fill="#000000" fill-rule="evenodd" d="M40.61376 22.78656s-0.46943999999999997 -0.15648 -0.62592 0c-0.31296 0.46896 0.31296 0.62544 0.46943999999999997 1.8768 0 1.0943999999999998 -0.46943999999999997 2.18976 -0.15648 3.28464 0.15648 0.46896 0.46896 0.9384 0.62544 1.40736 0 0.15648 0.15648 0.15696 0.31296 0.15696 0.46896 -0.15648 0 -0.9388799999999999 -0.31296 -1.7207999999999999 -0.31248 -1.25136 0.7823999999999999 -2.6592 0.15648 -4.22304 0.15648 0 0.15648 -0.15648 0.31296 -0.15648 1.25136 1.09488 3.28464 -1.4078399999999998 0.7823999999999999 -2.50272 -0.31344 -0.156 -0.46943999999999997 0.31296 -0.15696 0.46943999999999997 0.62592 0.46896 1.09488 1.4078399999999998 0.15648 1.56384 -0.15648 0 -0.15648 -0.156 -0.62544 -0.46896 -0.46943999999999997 -0.15648 -0.7823999999999999 0 -0.9384 0.31296Z" clip-rule="evenodd" stroke-width="1"></path><path fill="#000000" fill-rule="evenodd" d="M38.605439999999994 38.48016c0 0.13104000000000002 -0.13104000000000002 0.39359999999999995 -0.26256 0.5241600000000001 -0.13104000000000002 0.13104000000000002 -0.6552 0.78672 -0.91728 0.39359999999999995 -0.13104000000000002 -0.13104000000000002 0 -0.39359999999999995 -0.13104000000000002 -0.52464 -0.13104000000000002 -0.39359999999999995 -0.52464 -0.9177599999999999 -1.0488 -0.7862399999999999 -0.78672 0.26208000000000004 -0.78672 1.57296 -1.3108799999999998 2.0976 -1.0488 1.0483200000000001 -4.5883199999999995 0.7862399999999999 -5.11248 -1.04928 -0.13104000000000002 -0.5241600000000001 -0.13104000000000002 -1.17936 -0.13104000000000002 -1.83504 0.13104000000000002 -4.32576 2.0976 -3.9326399999999997 4.32576 -4.8504 0.26208000000000004 -0.13104000000000002 0.78672 -0.26208000000000004 0.78672 -0.6552 0.26208000000000004 -0.78672 -0.9177599999999999 -0.26208000000000004 -1.17984 -0.13104000000000002 -2.35968 0.7862399999999999 -4.4568 1.83504 -4.8504 4.4568 -0.26208000000000004 1.83504 -0.13104000000000002 3.67056 -0.6552 4.32576 -0.52464 0.65568 -2.35968 1.17984 -4.32576 0.39359999999999995 3.8015999999999996 3.01488 10.74912 3.27696 13.108799999999999 1.83504 2.22816 -1.3104 2.3592 -3.67056 2.8833599999999997 -5.8991999999999996 0.26256 -0.91728 0.7871999999999999 -1.83504 0.7871999999999999 -2.75232 0 -1.3108799999999998 -1.4424 -2.4912 -3.01536 -2.7528 -0.52464 -0.13104000000000002 -1.17984 -0.65568 -1.4419199999999999 0.13104000000000002 -0.39359999999999995 1.0483200000000001 2.22816 -0.13104000000000002 3.67008 2.3592 0.9177599999999999 1.704 -0.7862399999999999 3.27744 -1.17936 4.71936Z" clip-rule="evenodd" stroke-width="1"></path><path fill="#000000" fill-rule="evenodd" d="M38.34288 38.479679999999995c-0.13104000000000002 0.13104000000000002 -0.26208000000000004 0.65568 -0.6552 0.78672 -0.26208000000000004 -1.57344 -1.3108799999999998 -1.704 -1.96656 -0.9177599999999999 -0.7862399999999999 1.0488 -0.13104000000000002 1.704 -1.83504 2.22864 -1.17984 0.26208000000000004 -3.27696 -0.13104000000000002 -3.5395199999999996 -1.3108799999999998 -0.13104000000000002 -0.52464 -0.13104000000000002 -1.17984 -0.13104000000000002 -1.704 0.26256 -3.93312 1.704 -3.5395199999999996 4.06368 -4.45728 1.4419199999999999 -0.5241600000000001 1.3108799999999998 -1.57296 0.65568 -1.83504 -0.65568 -0.13104000000000002 -3.01488 0.7862399999999999 -3.67056 1.17984 -3.67056 2.0976 -2.7528 5.7676799999999995 -3.27696 7.47168 -0.26256 0.78672 -1.17984 0.9177599999999999 -1.96656 1.0488 -1.704 0.13104000000000002 -2.22816 -0.6552 -2.6217599999999996 -0.13104000000000002 -0.6552 1.17984 6.81648 4.32576 12.059999999999999 3.14592 3.8015999999999996 -0.91728 4.06368 -4.19472 4.71936 -6.816 0.39359999999999995 -1.57344 1.57296 -3.27744 -0.39359999999999995 -4.98192 -0.5241600000000001 -0.5241600000000001 -1.3104 -0.91728 -2.0976 -1.0483200000000001 -0.39263999999999993 0 -0.9168 -0.26256 -1.3104 -0.26256 -0.5241600000000001 0.13152 -0.78672 0.78672 -0.5241600000000001 1.17984 0.39311999999999997 0.39359999999999995 2.4902399999999996 0.13104000000000002 3.67008 1.96656 0.9177599999999999 1.57296 -1.17984 3.53904 -1.17984 4.4568ZM30.08448 34.416c-2.22816 3.01488 0.65568 7.34112 -4.32576 7.34112 2.0976 1.0483200000000001 4.7188799999999995 1.57296 7.0785599999999995 1.57296 4.98144 0 5.5056 -2.0976 6.554399999999999 -6.03024 -0.7862399999999999 1.3108799999999998 -0.6552 2.0976 -1.57296 2.35968 -0.26208000000000004 0.13104000000000002 -0.5241600000000001 0 -0.6552 -0.26208000000000004 0 -0.13104000000000002 0 -0.52464 -0.39359999999999995 -0.9177599999999999 -0.26208000000000004 -0.26208000000000004 -0.6552 0 -0.7862399999999999 0.26208000000000004 -0.39359999999999995 0.78672 -0.39359999999999995 1.57344 -1.3108799999999998 1.96656 -1.96656 0.9177599999999999 -5.11248 0.26208000000000004 -5.243519999999999 -2.22864 0 -1.17984 0.13104000000000002 -3.01488 0.6552 -4.06368Zm10.093919999999999 0c0.13104000000000002 -1.3104 -1.3108799999999998 -2.49072 -2.6217599999999996 -2.7528 -0.52464 -0.13104000000000002 -1.0488 -0.5241600000000001 -1.17984 -0.13104000000000002 0.13104000000000002 0 0.39359999999999995 0 0.5241600000000001 0.13104000000000002 1.96656 0.39359999999999995 3.1464 1.704 3.27744 2.7528Zm-5.7676799999999995 -2.49072c-0.26256 0 -1.4424 0.52464 -2.0976 0.78672 0.9177599999999999 -0.26208000000000004 1.83504 -0.52464 2.0976 -0.78672Z" clip-rule="evenodd" stroke-width="1"></path><path fill="#000000" fill-rule="evenodd" d="M28.7616 20.651999999999997c-0.432 0 -0.972 2.0524799999999996 0.54048 2.16048 2.16048 0.216 1.83648 -3.45696 -0.54048 -2.1609599999999998Z" clip-rule="evenodd" stroke-width="1"></path><path fill="#000000" fill-rule="evenodd" d="M39.31679999999999 19.806720000000002c-0.56448 0.564 -0.08064 1.53168 0.40319999999999995 1.12848 0.48384 -0.40319999999999995 0.08064 -1.45104 -0.48384 -1.0483200000000001l0.08064 -0.08016Z" clip-rule="evenodd" stroke-width="1"></path><path fill="#000000" fill-rule="evenodd" d="M38.99424 19.726079999999996c-0.56448 0.56448 -0.32256 1.53216 0.24192 1.69344 0.48384 0.16128 0.96768 -0.32256 1.0483200000000001 -0.72576 0.08064 -0.96768 -0.88704 -1.6127999999999998 -1.29024 -0.96768Z" clip-rule="evenodd" stroke-width="1"></path><path fill="#000000" fill-rule="evenodd" d="M12.61584 28.41696c0.15648 5.6304 1.09488 9.85392 8.603039999999998 15.484799999999998 1.56384 1.0943999999999998 3.12816 2.50224 5.00496 2.8152 2.18976 0.31296 4.22304 -1.0943999999999998 5.6304 -2.8152 0.15696 -0.15648 -0.156 -0.46943999999999997 -0.31248 -0.31296 -1.25136 1.4078399999999998 -3.28464 2.8152 -5.16144 2.50224 -1.7207999999999999 -0.31248 -3.28464 -1.72032 -4.536 -2.8152 -7.1952 -5.474399999999999 -8.2896 -9.697439999999999 -8.60256 -14.85888 -0.15648 -0.31296 -0.62592 -0.31296 -0.62592 0Z" clip-rule="evenodd" stroke-width="1"></path><path fill="#000000" fill-rule="evenodd" d="M1.35456 40.14816c4.22304 -1.56432 3.9100800000000002 -3.4415999999999998 5.474399999999999 -5.3184 4.69248 -5.786879999999999 6.25632 -3.9100800000000002 6.25632 -4.536 0 -0.62544 -2.9716799999999997 -0.78192 -6.8822399999999995 4.06704 -1.40736 1.72032 -1.25136 3.12816 -3.59712 4.69248 -1.25136 0.9384 -1.7207999999999999 0.78192 -1.56432 1.0943999999999998 0.15648 0 0.31296 0.15696 0.31296 0Z" clip-rule="evenodd" stroke-width="1"></path><path fill="#000000" fill-rule="evenodd" d="M38.89344 41.08656c2.18976 1.40736 3.44064 1.72032 5.474399999999999 3.5976 2.18976 2.03328 2.34576 2.50224 2.50224 2.1892799999999997 0.15648 -0.15648 0.15648 -0.15648 0 -0.31248 -1.25136 -1.4078399999999998 -2.34624 -3.28464 -4.84848 -4.536 -0.9384 -0.46943999999999997 -2.03328 -0.7823999999999999 -2.97216 -1.25136 -0.31248 -0.15648 -0.46896 0.31296 -0.156 0.31296Z" clip-rule="evenodd" stroke-width="1"></path><path fill="#000000" fill-rule="evenodd" d="M11.677439999999999 31.232639999999996c-1.72032 1.56432 -1.72032 3.5976 -1.25136 5.78736 0.7823999999999999 3.4411199999999997 2.03376 6.8822399999999995 4.06704 9.85392 0 0.15648 0.15648 0.15648 0.31296 0 0.62544 -0.31296 -1.4078399999999998 -1.09488 -3.4415999999999998 -10.1664 -0.46896 -1.8768 -0.62544 -3.91056 0.7823999999999999 -5.3184 0 0 -0.31296 -0.31248 -0.46943999999999997 -0.15648Z" clip-rule="evenodd" stroke-width="1"></path><path fill="#000000" fill-rule="evenodd" d="M25.598399999999998 47.81231999999999c0.9384 -0.62592 2.1892799999999997 -0.31296 3.2841599999999995 0.15648 0.31296 0.156 0.46943999999999997 -0.31296 0.15648 -0.46943999999999997 -1.40736 -0.9384 -2.6592 -1.4078399999999998 -3.7536 0 -0.31296 0.15648 0 0.46943999999999997 0.31248 0.31296Z" clip-rule="evenodd" stroke-width="1"></path><path fill="#000000" fill-rule="evenodd" d="M33.575039999999994 43.43232c-0.46896 1.8768 -0.31248 0.46943999999999997 -0.78192 3.7540799999999996 0 0.31296 0.31296 0.46896 0.46943999999999997 0.15648 0.62544 -1.7207999999999999 0.78192 -2.03328 0.78192 -3.7536 0 -0.31296 -0.46943999999999997 -0.46943999999999997 -0.46943999999999997 -0.15696Z" clip-rule="evenodd" stroke-width="1"></path><path fill="#000000" fill-rule="evenodd" d="M36.85968 42.6504c0.15648 0.46943999999999997 0.31296 1.25136 0.46943999999999997 1.8768 0.31248 1.09536 0.62544 2.03376 0.9384 2.8156799999999995 0 0.31296 0.46896 0.15648 0.46896 -0.15648 -0.31248 -2.6592 -0.46896 -3.28464 -1.40736 -4.84848 -0.15648 -0.15648 -0.46943999999999997 0.156 -0.46943999999999997 0.31248Z" clip-rule="evenodd" stroke-width="1"></path><path fill="#000000" fill-rule="evenodd" d="M5.73408 35.4552c-2.34624 3.91056 -3.7536 5.94384 -1.09488 12.04416 0 0.156 0.15648 0.156 0.31296 0.156 0.62544 -0.31248 -2.03376 -3.7536 -0.31296 -8.91552 0.31296 -1.0943999999999998 0.9384 -2.03328 1.4078399999999998 -3.12816 0.31248 -0.15648 -0.15648 -0.46896 -0.31296 -0.15648Z" clip-rule="evenodd" stroke-width="1"></path><path fill="#000000" fill-rule="evenodd" d="M12.928799999999999 32.17104c-0.78192 1.09488 -1.25136 1.4078399999999998 -2.18976 3.7536 -0.15648 0.31296 0.31296 0.46943999999999997 0.46943999999999997 0.15648 1.25136 -1.72032 1.4078399999999998 -1.72032 2.18976 -3.7536 0 -0.15648 -0.31296 -0.31296 -0.46943999999999997 -0.15648Z" clip-rule="evenodd" stroke-width="1"></path></svg>