<svg xmlns="http://www.w3.org/2000/svg" fill="none" viewBox="0 0 48 48" height="48" width="48" id="Derp-Face--Streamline-Memes.svg"><desc>Derp Face Streamline Element: https://streamlinehq.com</desc><path stroke="#000000" stroke-linecap="round" stroke-linejoin="round" d="M13.436 47C6.533 42.854 1.847 34.771 1.847 25.479 1.847 11.959 11.765 1 24 1s22.153 10.96 22.153 24.479c0 9.292 -4.686 17.375 -11.589 21.521" stroke-width="1"></path><path stroke="#000000" stroke-linecap="round" stroke-linejoin="round" d="M24.782 13.119a6.776 6.776 0 1 0 13.552 0 6.776 6.776 0 1 0 -13.552 0" stroke-width="1"></path><path stroke="#000000" stroke-linecap="round" stroke-linejoin="round" d="M7.06 18.722a6.776 6.776 0 1 0 13.552 0 6.776 6.776 0 1 0 -13.552 0" stroke-width="1"></path><path stroke="#000000" stroke-linecap="round" stroke-linejoin="round" d="M19.048 33.839c0 2.866 3.653 5.707 7.225 4.313" stroke-width="1"></path><path fill="#000000" fill-rule="evenodd" d="M9.46 16.722a1.25 1.25 0 1 0 0 2.5 1.25 1.25 0 0 0 0 -2.5Z" clip-rule="evenodd" stroke-width="1"></path><path fill="#000000" fill-rule="evenodd" d="M34.25 8.623a1.25 1.25 0 1 0 0 2.5 1.25 1.25 0 0 0 0 -2.5Z" clip-rule="evenodd" stroke-width="1"></path></svg>