<svg xmlns="http://www.w3.org/2000/svg" fill="none" viewBox="0 0 48 48" height="48" width="48" id="Derp-Face-Hand-Drawn--Streamline-Memes.svg"><desc>Derp Face Hand Drawn Streamline Element: https://streamlinehq.com</desc><path fill="#000000" fill-rule="evenodd" d="M8.771904 45.334896C4.078752000000001 40.395216 1.4374559999999998 33.129936 1.1444159999999999 26.736767999999998C-0.029232 9.882384 18.453599999999998 -4.066752 36.64296 7.5572159999999995C43.683887999999996 11.916384 46.112064 20.3436 46.699104 28.480512C46.992672 33.420624 44.563967999999996 41.266896 40.163424 44.173008C39.869904 44.463215999999996 40.163424 44.753952 40.456944 44.753952C45.150575999999994 41.847840000000005 47.791391999999995 33.710879999999996 47.497872 28.480031999999998C46.911264 20.052864 44.270928 11.335007999999998 37.229568 6.6855839999999995C18.747168000000002 -5.22912 -0.90936 8.719584 0.5573279999999999 26.736767999999998C0.5573279999999999 32.955408 2.448336 40.485072 8.478816 45.625583999999996C8.771904 45.916272 9.065423999999998 45.625583999999996 8.771904 45.334896Z" clip-rule="evenodd" stroke-width="1"></path><path fill="#000000" fill-rule="evenodd" d="M9.945552 16.856544C7.011647999999999 18.018383999999998 4.6648320000000005 20.3436 4.371312 23.540399999999998C3.7847519999999997 29.061456 9.945552 33.420624 14.932704 31.676879999999997C25.201488 28.189823999999998 21.387024 13.659695999999999 11.999279999999999 16.27512C11.70576 16.27512 11.70576 16.856544 11.999279999999999 16.856544C20.506896 14.822064 23.7456 27.56232 14.650943999999999 30.75864C10.843056 32.024016 4.720848 28.720416 5.014368 23.779823999999998C5.307887999999999 20.874192 7.305216 18.600288 9.652464 17.728176C10.532112 17.147232 10.239071999999998 16.565807999999997 9.945552 16.856544Z" clip-rule="evenodd" stroke-width="1"></path><path fill="#000000" fill-rule="evenodd" d="M31.655327999999997 9.881951999999998C28.721472 10.753584 26.374656 12.788064 25.494528 15.403488000000001C23.73432 20.634288 28.721472 25.865136 34.002144 25.5744C42.80328 24.702288 44.270928 11.044272 33.709103999999996 10.17264C33.415583999999996 10.17264 33.415583999999996 10.753584 33.709103999999996 10.753584C43.390368 11.625696 41.630112 24.121344 34.002144 24.702288C29.30808 24.992976 24.907487999999997 20.3436 26.080655999999998 15.984384C26.667695999999996 13.369008 29.014991999999996 11.335007999999998 31.654895999999997 10.753584C32.241935999999995 10.17264 32.241935999999995 9.881951999999998 31.654895999999997 9.881951999999998Z" clip-rule="evenodd" stroke-width="1"></path><path fill="#000000" fill-rule="evenodd" d="M16.106832 35.163456C16.399872000000002 39.522624 20.800416000000002 42.428735999999994 24.907967999999997 40.684992C25.201007999999998 40.394304 24.907967999999997 40.103567999999996 24.6144 40.103567999999996C21.093984 41.557103999999995 17.599872 38.804832 16.719744 35.31729599999999C16.719744 34.701552 16.106352 34.873248000000004 16.106352 35.163456Z" clip-rule="evenodd" stroke-width="1"></path><path fill="#000000" d="M7.721951999999999 21.356352C7.374816 21.528528 6.569472 22.879008 8.106288000000001 23.640144C8.874431999999999 24.020688 9.643056 24.020688 10.411248 23.25912C12.332351999999998 21.356352 9.197616 19.88496 7.721951999999999 21.356352Z" stroke-width="1"></path><path fill="#000000" d="M34.882751999999996 12.20712C34.002144 12.497328 33.709103999999996 13.659695999999999 34.002624000000004 14.531808C34.589232 16.27512 36.64296 15.984431999999998 36.936048 14.24112V14.237808C36.936048 13.977696 36.968496 13.537391999999999 36.629808 12.88968C36.182928 12.035423999999999 35.283504 12.082944 34.882272 12.20712Z" stroke-width="1"></path></svg>