<svg xmlns="http://www.w3.org/2000/svg" fill="none" viewBox="0 0 48 48" height="48" width="48" id="Disappointed-Fan--Streamline-Memes.svg"><desc>Disappointed Fan Streamline Element: https://streamlinehq.com</desc><path stroke="#000000" stroke-linecap="round" stroke-linejoin="round" d="M28.148 21.07c0.313 3.23 -0.571 4.024 0.429 11.524 1 7.5 0.592 7.562 0.571 10.312" stroke-width="1"></path><path stroke="#000000" stroke-linecap="round" stroke-linejoin="round" d="M45.352 27.984c-1.213 1.513 -2.416 1.954 -4.36 3.594" stroke-width="1"></path><path stroke="#000000" stroke-linecap="round" stroke-linejoin="round" d="M46.422 33.727c-1.313 -0.427 -4.267 -1.375 -5.617 -1.375" stroke-width="1"></path><path stroke="#000000" stroke-linecap="round" stroke-linejoin="round" d="m40.813 37.656 -2.391 -2.75" stroke-width="1"></path><path stroke="#000000" stroke-linecap="round" stroke-linejoin="round" d="M7.46 39.57c0.154 -0.052 2.135 -1.775 3.11 -2.718" stroke-width="1"></path><path stroke="#000000" stroke-linecap="round" stroke-linejoin="round" d="m3.969 36.36 4.86 -2.313" stroke-width="1"></path><path stroke="#000000" stroke-linecap="round" stroke-linejoin="round" d="M0.858 31.25c2.214 0.273 6.986 0.515 7.11 0.54" stroke-width="1"></path><path stroke="#000000" stroke-linecap="round" stroke-linejoin="round" d="M4.313 26.617c1.086 1.368 4.229 3.498 5.046 3.852" stroke-width="1"></path><path stroke="#000000" stroke-linecap="round" stroke-linejoin="round" d="M7.805 23.898c1.476 1.788 4.579 4.497 5.303 5.04" stroke-width="1"></path><path stroke="#000000" stroke-linecap="round" stroke-linejoin="round" d="m11.523 21.39 3.993 4.133" stroke-width="1"></path><path stroke="#000000" stroke-linecap="round" stroke-linejoin="round" d="M23.385 8.687s0.476 -0.407 0.704 -0.463c0.462 -0.113 0.755 -0.017 1.441 0.103" stroke-width="1"></path><path stroke="#000000" stroke-linecap="round" stroke-linejoin="round" d="M26.2 11.501c0.411 0.275 1.149 0.343 1.767 0 0 -0.068 -0.213 -0.629 -0.258 -0.755" stroke-width="1"></path><path stroke="#000000" d="M20.625 8.181a5.828 5.828 0 0 1 11.636 -0.676l0.218 3.749c0.104 1.799 -0.621 3.593 -2.213 4.437 -0.979 0.52 -2.152 0.983 -3.306 1.05 -1.154 0.067 -2.373 -0.257 -3.406 -0.66 -1.679 -0.655 -2.606 -2.352 -2.711 -4.151l-0.218 -3.749Z" stroke-width="1"></path><path stroke="#000000" stroke-linecap="round" stroke-linejoin="round" d="M25.95 13.897c0.867 -0.346 1.393 -0.35 2.362 -0.137" stroke-width="1"></path><path stroke="#000000" stroke-linecap="round" stroke-linejoin="round" d="M28.038 8.203c0.32 -0.149 1.16 -0.588 2.03 -0.233" stroke-width="1"></path><path stroke="#000000" stroke-linecap="round" stroke-linejoin="round" d="M16.26 40.204c-1.033 -4.11 -2.325 -8.409 -2.842 -10.897a0.375 0.375 0 0 0 -0.04 -0.111c-0.785 -1.354 -5.174 1.859 -5.513 2.768 -0.024 0.064 -0.009 0.127 0.019 0.19 0.307 0.692 2.362 5.164 4.889 7.044 0.047 0.035 0.1 0.06 0.157 0.076l3.65 1.02a0.5 0.5 0 0 1 0.338 0.647l-1.095 3.136a0.5 0.5 0 0 1 -0.418 0.332l-2.277 0.248a0.5 0.5 0 0 1 -0.455 -0.2l-1.593 -2.142a0.509 0.509 0 0 0 -0.116 -0.112c-3.94 -2.748 -6.381 -4.986 -9.329 -8.384 -1.247 -1.438 -1.24 -3.573 0.124 -4.9 4.608 -4.482 12.53 -10.071 18.725 -11.55a0.49 0.49 0 0 0 0.264 -0.163c0.445 -0.533 1.027 -1.324 1.143 -1.901" stroke-width="1"></path><path stroke="#000000" stroke-linecap="round" stroke-linejoin="round" d="M37.219 35.844c0.111 -0.13 -0.784 -3.094 -0.676 -5.325a0.456 0.456 0 0 1 0.585 -0.411c1.121 0.301 3.642 1.034 3.989 1.61 0.045 0.075 0.017 0.165 -0.031 0.239 -0.29 0.45 -1.482 2.165 -3.867 3.887Zm0 0 0.078 3.888a0.5 0.5 0 0 0 0.908 0.279l0.776 -1.096a0.511 0.511 0 0 1 0.124 -0.123c3.783 -2.622 4.92 -2.641 7.194 -4.926 1.342 -1.35 1.312 -3.516 0.011 -4.907 -4.073 -4.356 -10.227 -9.597 -16.008 -11.802a0.47 0.47 0 0 1 -0.201 -0.144c-0.348 -0.433 -0.195 -0.492 -0.312 -1.076" stroke-width="1"></path><path stroke="#000000" stroke-linecap="round" stroke-linejoin="round" d="m24.458 8.173 0.113 1.041" stroke-width="1"></path><path stroke="#000000" stroke-linecap="round" stroke-linejoin="round" d="m28.575 7.98 0.114 1.04" stroke-width="1"></path><path stroke="#000000" stroke-linecap="round" stroke-linejoin="round" d="M22.796 15.75c0 2.625 0.926 2.947 2.937 4.188 -0.625 10.5 -2.375 20.5 -3.827 24.843h-3.375" stroke-width="1"></path><path stroke="#000000" stroke-linecap="round" stroke-linejoin="round" d="m30.438 17.21 3.53 27.571h3.688l-0.328 -3.531" stroke-width="1"></path><path stroke="#000000" stroke-linecap="round" stroke-linejoin="round" d="M15.266 19.328c0.458 3 0.815 9.24 -1.485 10.39l-0.25 0.11" stroke-width="1"></path><path stroke="#000000" stroke-linecap="round" stroke-linejoin="round" d="m23.17 42.906 10.557 0" stroke-width="1"></path><path stroke="#000000" stroke-linecap="round" stroke-linejoin="round" d="M37.172 20.953c-1.282 2.986 -1.24 4.883 -0.594 9.094" stroke-width="1"></path><path stroke="#000000" stroke-linecap="round" stroke-linejoin="round" d="M25.61 21.906c1.437 -0.25 5.171 -1.434 4.921 -3.984" stroke-width="1"></path><path stroke="#000000" stroke-linecap="round" stroke-linejoin="round" d="M32.36 9.18c0.312 -1.458 2.417 -1.371 2.528 -0.066 0.111 1.305 -1.466 2.602 -2.333 3.261" stroke-width="1"></path><path stroke="#000000" stroke-linecap="round" stroke-linejoin="round" d="M20.719 9.906c-0.373 -1.443 -2.335 -1.228 -2.392 0.08 -0.056 1.308 1.685 2.602 2.58 3.225" stroke-width="1"></path><path stroke="#000000" stroke-linecap="round" stroke-linejoin="round" d="m12.79 39.227 -1.946 2.882" stroke-width="1"></path><path stroke="#000000" stroke-linecap="round" stroke-linejoin="round" d="M15.42 23.469c-0.156 0.156 -12.03 6.25 -11.937 7.594 0.075 1.075 4.236 6.335 8.298 9.648" stroke-width="1"></path><path stroke="#000000" stroke-linecap="round" stroke-linejoin="round" d="M39.805 22.93c-0.867 1.445 -2.84 4.612 -3.5 5.297" stroke-width="1"></path><path stroke="#000000" stroke-linecap="round" stroke-linejoin="round" d="M42.43 25.172c-0.32 1.458 -2.226 4.243 -3.985 5.312" stroke-width="1"></path><path stroke="#000000" stroke-linecap="round" stroke-linejoin="round" d="M36.233 24.719c0.156 0.031 8.063 5.25 8.281 7 0.175 1.4 -2.444 2.773 -4.944 4.523" stroke-width="1"></path><path stroke="#000000" stroke-linecap="round" stroke-linejoin="round" d="M23.586 37.797c2.594 0 9.01 0.425 9.484 0" stroke-width="1"></path><path stroke="#000000" stroke-linecap="round" stroke-linejoin="round" d="M25.29 25.656c1.823 0.125 5.478 0.4 6.296 0.625" stroke-width="1"></path><path stroke="#000000" stroke-linecap="round" stroke-linejoin="round" d="M24.546 31.938c1.527 0.062 6.333 0.218 7.829 0.437" stroke-width="1"></path></svg>