<svg xmlns="http://www.w3.org/2000/svg" fill="none" viewBox="0 0 48 48" height="48" width="48" id="Disappointed-Fan-Hand-Drawn--Streamline-Memes.svg"><desc>Disappointed Fan Hand Drawn Streamline Element: https://streamlinehq.com</desc><path fill="#000000" fill-rule="evenodd" d="M28.62576 22.60512c0.9311999999999999 0.31056 1.24128 0.31056 2.7926399999999996 0 0.31056 0 0.31056 -0.46559999999999996 0 -0.46559999999999996 -1.7064 -0.15504 -1.08576 -0.31008 -2.7926399999999996 0 -0.31008 0 -0.31008 0.46559999999999996 0 0.46559999999999996Z" clip-rule="evenodd" stroke-width="1"></path><path fill="#000000" fill-rule="evenodd" d="M27.53952 25.397759999999998c1.70688 0.46559999999999996 2.01696 0.31056 3.72384 0.15504 0.31008 0 0.31008 -0.46559999999999996 0 -0.46559999999999996 -2.48256 -0.31008 -2.01696 -0.31008 -3.72384 -0.15504 -0.15504 0 -0.31008 0.46559999999999996 0 0.46559999999999996Z" clip-rule="evenodd" stroke-width="1"></path><path fill="#000000" fill-rule="evenodd" d="M27.53952 28.50096c1.8623999999999998 0.46559999999999996 2.48256 0.31008 4.49952 0 0.31056 0 0.31056 -0.46559999999999996 0 -0.46559999999999996 -4.03392 -0.15504 -2.3270399999999998 -0.15504 -4.344 0 -0.46559999999999996 0 -0.46559999999999996 0.46559999999999996 -0.15552 0.46559999999999996Z" clip-rule="evenodd" stroke-width="1"></path><path fill="#000000" fill-rule="evenodd" d="M27.22944 31.913759999999996c1.86192 0.46559999999999996 2.7926399999999996 0.46559999999999996 5.7408 0 0.31008 0 0.31008 -0.46559999999999996 0 -0.46559999999999996 -0.9311999999999999 0 -2.01744 -0.15456 -3.41376 -0.15456l-2.3270399999999998 0c-0.31056 0.15504 -0.31056 0.62064 0 0.62064Z" clip-rule="evenodd" stroke-width="1"></path><path fill="#000000" fill-rule="evenodd" d="M26.91888 35.01744c2.7926399999999996 0.46559999999999996 3.5687999999999995 0.15504 6.36144 0 0.31008 0 0.31008 -0.46559999999999996 0 -0.46559999999999996 -4.654559999999999 -0.15552 -4.654559999999999 0 -6.36144 0 -0.31008 0 -0.31008 0.46559999999999996 0 0.46559999999999996Z" clip-rule="evenodd" stroke-width="1"></path><path fill="#000000" fill-rule="evenodd" d="M25.98816 38.58576c3.1031999999999997 0.46559999999999996 4.49952 0.15504 7.60272 -0.31008 0.31008 0 0.31008 -0.46559999999999996 0 -0.46559999999999996 -8.06832 0.31056 -7.757759999999999 0.15504 -7.757759999999999 0.46559999999999996 0 0.15504 0 0.31008 0.15504 0.31008Z" clip-rule="evenodd" stroke-width="1"></path><path fill="#000000" fill-rule="evenodd" d="M29.091359999999998 20.27808c0.77568 1.86192 -0.15504 4.18896 -0.15504 6.2063999999999995 -0.15552 2.63712 0.62064 4.96464 0.62064 7.4472 0 2.6376 -0.46559999999999996 4.96464 0 7.602239999999999 0 0.31056 0.46559999999999996 0.15504 0.46559999999999996 -0.15504 -0.46559999999999996 -2.172 0.15456 -5.120159999999999 0.31008 -7.4472 0 -1.70688 -0.31056 -3.41328 -0.46559999999999996 -5.120159999999999 -0.46559999999999996 -4.03392 0.31008 -4.49952 0.15504 -6.82704 -0.31008 -2.6376 -1.0862399999999999 -2.172 -0.9311999999999999 -1.7064Z" clip-rule="evenodd" stroke-width="1"></path><path fill="#000000" fill-rule="evenodd" d="m28.7808 10.1928 0.77568 0c0.46559999999999996 0 0.77616 -0.15504 1.0862399999999999 -0.15504 0.31008 0 0.31008 -0.46559999999999996 0 -0.46559999999999996 -0.9311999999999999 -0.31008 -1.3968 -0.31008 -2.172 0.15504 -0.15552 0 0 0.46559999999999996 0.31008 0.46559999999999996Z" clip-rule="evenodd" stroke-width="1"></path><path fill="#000000" fill-rule="evenodd" d="M28.47072 9.10656c0.9311999999999999 0 0.46559999999999996 0.15504 2.01696 -0.31056 0.31008 0 0.31008 -0.46559999999999996 0 -0.46559999999999996 -1.0862399999999999 -0.15504 -1.24128 -0.15504 -2.1724799999999997 0.31056 -0.31008 0 -0.15504 0.46559999999999996 0.15552 0.46559999999999996Z" clip-rule="evenodd" stroke-width="1"></path><path fill="#000000" fill-rule="evenodd" d="M25.05744 10.658399999999999c0.31008 0 2.172 0 2.3270399999999998 -0.31056 0 -0.31008 -0.77568 -0.46559999999999996 -0.9311999999999999 -0.46559999999999996l-0.7752 0c-1.5518399999999999 0.46559999999999996 -0.9311999999999999 0.9311999999999999 -0.62064 0.77616Z" clip-rule="evenodd" stroke-width="1"></path><path fill="#000000" fill-rule="evenodd" d="M31.10832 6.3139199999999995c-0.46559999999999996 -0.77568 -0.77568 -1.24128 -1.55136 -1.86192 -2.32752 -1.55136 -5.89584 -0.9311999999999999 -7.29216 1.3968 -0.77616 1.2408 -0.46559999999999996 2.7926399999999996 -0.15552 4.18896 -1.7064 0.62064 -0.62064 4.03392 0.9311999999999999 4.03392 0.15504 0.62064 0.46559999999999996 1.24128 1.08576 1.7064 0.9311999999999999 0.77568 3.5687999999999995 1.5518399999999999 5.120159999999999 0.77568 1.24128 -0.62016 2.172 -2.172 2.48256 -3.4128 0.31008 -1.24128 -0.15504 -2.48256 -0.31056 -3.72384 -0.15504 -0.9311999999999999 0 -1.70688 -0.15504 -2.79312 0 -0.31008 -0.46559999999999996 -0.15504 -0.46559999999999996 0.15552 0.15552 0.77568 0 1.7064 0 2.6376 0.15552 2.01696 0.77616 3.25824 -0.46559999999999996 4.96464 -1.08576 1.5518399999999999 -2.172 2.01696 -4.49904 1.24128 -1.3968 -0.46559999999999996 -1.70688 -0.9311999999999999 -2.172 -2.48256 -0.15552 -0.15504 -0.31056 -0.31008 -0.62064 -0.31008 -0.62064 0.31008 -1.3968 -1.70688 -0.9311999999999999 -2.32752 0.15504 -0.31008 0.46559999999999996 0 0.77568 -0.31008 0.31056 -0.46559999999999996 -0.31008 -1.0862399999999999 -0.31008 -2.7926399999999996 0 -3.5687999999999995 5.20272 -4.44768 7.219199999999999 -2.12016 0.77616 0.77568 0.91248 1.03392 1.0036800000000001 1.0872 0.25728 0.15023999999999998 0.37632 -0.0528 0.31056 -0.0528Z" clip-rule="evenodd" stroke-width="1"></path><path fill="#000000" fill-rule="evenodd" d="M31.72896 10.03824c0.15504 -0.15552 0.46559999999999996 -0.31056 0.62016 -0.15552 0.31056 0.31056 0.15552 1.3968 0 2.01696 -0.31008 0.9311999999999999 -0.77568 0.77568 -0.62064 1.0862399999999999 0.31056 0.46559999999999996 1.70688 -0.9311999999999999 1.70688 -2.6376 -0.15504 -1.24128 -1.0862399999999999 -1.55136 -1.7064 -1.0862399999999999l-0.31056 0.31056c-0.31008 0.46559999999999996 0 0.77568 0.31056 0.46559999999999996Z" clip-rule="evenodd" stroke-width="1"></path><path fill="#000000" fill-rule="evenodd" d="M28.93584 12.05472c-0.15504 0.15504 -0.15504 -0.15552 -0.46559999999999996 0.15504 -0.15504 0.15504 -0.31008 0.31008 -0.46512 0.15504 -0.62064 -0.31008 -0.31008 -0.15504 -0.77568 -0.15504h-0.15504v-0.15504c0.15504 -0.31056 -0.31056 -0.46559999999999996 -0.46559999999999996 -0.15552 -0.31056 1.0862399999999999 0.62064 0.9311999999999999 0.77568 1.0862399999999999 0.62064 0.46559999999999996 1.0862399999999999 0.15504 1.55136 -0.31008 0.77616 -0.15552 0.62064 -0.9311999999999999 0.15552 -1.24128 -0.31056 -0.15552 -0.46559999999999996 0.15504 -0.31056 0.31008 0.15504 0 0.15504 0.15504 0.15504 0.31056Zm0.15552 0.62064c-0.15552 0.15504 -0.31056 0 0 0Z" clip-rule="evenodd" stroke-width="1"></path><path fill="#000000" fill-rule="evenodd" d="M26.6088 14.53728c0.31008 0 0.9311999999999999 0 1.24128 -0.15552 0.62064 0 1.3963199999999998 -0.15504 2.01696 -0.15504 0.31008 0 0.31008 -0.46559999999999996 0 -0.46559999999999996 -1.5518399999999999 -0.46559999999999996 -2.32752 -0.15504 -3.41328 0.31056 -0.31056 0.15504 -0.15504 0.46559999999999996 0.15504 0.46559999999999996Z" clip-rule="evenodd" stroke-width="1"></path><path fill="#000000" fill-rule="evenodd" d="M27.69456 15.468c0.62064 0.15552 0.46559999999999996 0.31056 1.3968 -0.15504 0.31008 0 0.31008 -0.46559999999999996 0 -0.46559999999999996 -0.62064 -0.15504 -0.77616 -0.31008 -1.3968 0.15552 -0.46559999999999996 0 -0.31008 0.46559999999999996 0 0.46559999999999996Z" clip-rule="evenodd" stroke-width="1"></path><path fill="#000000" fill-rule="evenodd" d="m24.12624 9.41664 1.24128 0c0.62064 0 1.3968 -0.15504 1.8623999999999998 -0.31008 0.31008 0 0.31008 -0.46559999999999996 0 -0.46559999999999996 -1.70688 -0.31008 -2.328 -0.15504 -3.25872 0.31008 -0.31008 0.15552 -0.15504 0.62064 0.15504 0.46559999999999996Z" clip-rule="evenodd" stroke-width="1"></path><path fill="#000000" fill-rule="evenodd" d="M25.36752 10.1928c-0.15504 0.15504 -0.15504 0.15504 -0.15504 0.31008 -0.15552 0.62064 0.93072 0.9311999999999999 1.2408 0.31056 0.31056 -0.62064 -0.31008 -1.3968 -1.08576 -0.62064Zm0.62064 0.15504c-0.15552 0.15504 -0.15552 0 0 0Z" clip-rule="evenodd" stroke-width="1"></path><path fill="#000000" fill-rule="evenodd" d="M29.86704 9.882719999999999c0 -0.31056 -0.31056 -0.15552 -0.62064 -0.15552 -0.15552 0 -0.15552 0.15552 -0.31056 0.15552 -0.31008 0.46559999999999996 0.15504 0.9311999999999999 0.62064 0.77568 0.62064 -0.15504 0.62064 -0.62064 0.31056 -0.77568Zm-0.15504 0.15504c0 0.15504 0 0.15504 0 0v0.15504l0 -0.15504Zm-0.31056 0c0 0.15504 0 0.15504 0 0 0.15504 0.15504 0 0.15504 0 0Z" clip-rule="evenodd" stroke-width="1"></path><path fill="#000000" fill-rule="evenodd" d="M30.487679999999997 14.692799999999998c-0.31056 2.48208 -0.77568 5.11968 -2.32752 5.89536 -0.31008 0.15552 0 0.62064 0.15504 0.46559999999999996 2.48256 -0.9311999999999999 2.63808 -3.8784 2.63808 -6.36096 0 -0.31056 -0.31056 -0.31056 -0.46559999999999996 0Z" clip-rule="evenodd" stroke-width="1"></path><path fill="#000000" fill-rule="evenodd" d="M15.90336 30.98304c-0.15504 -0.15504 -0.46559999999999996 -0.31056 -0.77568 -0.9311999999999999 -0.62064 -1.39584 0 -2.0164799999999996 -1.5518399999999999 -0.93072 -0.46559999999999996 0.31056 1.5518399999999999 6.672 3.5687999999999995 9.92976 0 0.15504 0.15504 0.15552 0.31008 0.15552 0.62064 -0.31056 -1.24128 -0.9311999999999999 -3.41328 -9.61968l0.15504 -0.15504c0.15504 0.62064 0.31056 1.24128 0.77568 1.7064 2.6376 2.94816 2.32752 -8.06784 1.5518399999999999 -11.94672 7.29216 -3.25824 4.344 -0.46559999999999996 6.050879999999999 -3.56832 0.15504 -0.15552 0.31008 -0.46559999999999996 0.46559999999999996 -0.62064l0.31008 0.31008c3.25824 3.8788799999999997 1.70688 2.32752 4.49952 3.72384 0.15504 1.86192 -0.15504 4.03392 -1.0862399999999999 5.585279999999999 -0.15504 0.46559999999999996 0.77568 10.5504 -1.86192 15.20496 -0.31008 0.62064 0.31056 1.3968 0.31056 2.01744 0 0.31008 0.46559999999999996 0.15504 0.46559999999999996 0 -0.15552 -0.62064 -0.62064 -1.24128 -0.31056 -1.70688 2.32752 -4.03392 2.172 -11.79168 2.172 -15.20496 1.5518399999999999 -2.6376 1.3968 -6.2063999999999995 0.9311999999999999 -6.51648 -0.9311999999999999 -0.46559999999999996 -2.01696 -0.62064 -2.6376 -1.3968 -2.48256 -3.2577599999999998 -3.25824 -4.18896 -4.654559999999999 -0.46512 -1.86192 0.46559999999999996 -3.5687999999999995 1.24128 -5.2752 2.01696 -0.62064 0.31056 0.15504 0.77568 0.46559999999999996 4.96512 0.15504 2.48208 -0.15552 6.981599999999999 -0.46559999999999996 7.4472Z" clip-rule="evenodd" stroke-width="1"></path><path fill="#000000" fill-rule="evenodd" d="M30.487679999999997 17.951040000000003c1.3963199999999998 3.8784 0.15504 6.050879999999999 0.46559999999999996 7.602239999999999 0.46559999999999996 2.48256 1.7064 3.72384 2.63712 11.636639999999998 0.15552 1.2408 0.46559999999999996 2.7926399999999996 0.15552 4.03392 0 0.31008 0.46559999999999996 0.31008 0.46559999999999996 0 0.31008 -1.5518399999999999 0 -7.757759999999999 -1.24176 -12.25728 -0.31008 -1.24128 -0.93072 -2.48256 -1.08576 -3.72384 -0.31056 -1.2408 0.77568 -3.7233599999999996 -0.77568 -7.602239999999999 -0.31056 -0.15504 -0.77568 0 -0.62064 0.31056Z" clip-rule="evenodd" stroke-width="1"></path><path fill="#000000" fill-rule="evenodd" d="M30.696 16.23264c2.17344 4.34688 6.09936 4.34688 6.564959999999999 4.9675199999999995 1.3963199999999998 1.3963199999999998 0 10.394879999999999 -0.46559999999999996 12.567359999999999 -0.62064 2.7926399999999996 0.77568 5.43024 0.46559999999999996 8.22288 0 0.31056 0.46559999999999996 0.31056 0.46559999999999996 0 0.46559999999999996 -2.6376 -0.9311999999999999 -5.585279999999999 -0.31056 -8.06784 0.77568 -2.6376 2.172 -11.4816 0.31056 -13.343039999999998 -0.9311999999999999 -1.0862399999999999 -3.7948799999999996 -0.1632 -6.72 -4.657439999999999 0 -0.42863999999999997 -0.46559999999999996 0 -0.31056 0.31056Z" clip-rule="evenodd" stroke-width="1"></path><path fill="#000000" fill-rule="evenodd" d="m40.10688 31.759200000000003 -0.31008 0.77568c0 0.15504 -0.15504 0.46559999999999996 -0.15504 0.62064 -0.15552 0.46559999999999996 -1.24128 0.77568 -1.5518399999999999 1.3968 -0.15504 0.3096 -0.15504 0.62016 -0.31008 0.7752 -0.31056 0.31056 -0.77568 0.62064 -1.0862399999999999 0.9311999999999999 -0.15504 0.15504 0.15552 0.46559999999999996 0.31056 0.31008 0.46559999999999996 -0.46559999999999996 0.77568 -0.46559999999999996 1.24128 -0.9311999999999999 0.31008 -0.31008 0.31008 -0.77568 0.46559999999999996 -0.93072 0.46512 -0.31008 0.93072 -0.46559999999999996 1.39584 -1.08576 0.15552 -0.31056 0.15552 -0.62064 0.31056 -0.9311999999999999 0.77568 -1.86192 0.9311999999999999 -1.7064 -0.77568 -1.86192 -0.62064 0 -1.24128 -0.31008 -1.70688 -0.62016 -0.31008 -0.15552 -0.46559999999999996 0.15504 -0.31008 0.31008 0.77568 0.77568 1.55136 1.0862399999999999 2.48208 1.24128Z" clip-rule="evenodd" stroke-width="1"></path><path fill="#000000" fill-rule="evenodd" d="M37.93488 21.2088c1.55136 0.46559999999999996 1.24128 1.3968 2.3270399999999998 2.1724799999999997 1.8623999999999998 1.2408 4.189439999999999 1.86144 5.2752 4.344 0.31056 0.77568 0.15552 0.9311999999999999 1.0862399999999999 1.55136 0.9311999999999999 0.46559999999999996 0.15504 1.24128 0.15504 2.01696 0 0.62064 0.31056 1.24128 -0.15504 1.70688 -0.46559999999999996 0.31008 -0.62064 0.46559999999999996 -0.9311999999999999 0.9311999999999999 -0.15456 0.46559999999999996 -0.31008 0.93072 -1.7064 2.48208 -2.172 2.1724799999999997 -2.7926399999999996 1.70688 -3.25824 2.01696 -0.77568 0.31056 -1.7064 2.1724799999999997 -2.48256 2.32752 -0.31008 0.15504 -0.62016 -0.31056 -0.77568 0 -0.15504 0.31008 0.31056 0.62064 0.77568 0.46559999999999996 0.9311999999999999 -0.15552 2.1724799999999997 -2.1724799999999997 2.79312 -2.32752 0.62064 -0.15504 1.24128 0.15504 3.4128 -2.01696 1.8623999999999998 -1.70688 1.70688 -2.172 2.01744 -2.7926399999999996 0.31008 -0.46559999999999996 1.0862399999999999 -0.46559999999999996 1.24128 -1.5518399999999999 0.15504 -0.77568 -0.31056 -0.46559999999999996 0.15504 -1.86192 0.62064 -1.86144 -1.0862399999999999 -2.01696 -1.24128 -2.6376 -0.46559999999999996 -1.2408 -0.9311999999999999 -2.172 -2.6376 -3.2577599999999998 -1.24128 -0.77616 -3.25824 -1.5518399999999999 -3.72384 -2.1724799999999997 -0.46559999999999996 -0.46559999999999996 -0.77568 -1.0862399999999999 -1.3963199999999998 -1.3963199999999998 -1.3963199999999998 -0.9311999999999999 -1.08576 -0.15504 -0.93072 0Z" clip-rule="evenodd" stroke-width="1"></path><path fill="#000000" fill-rule="evenodd" d="M37.003679999999996 37.81008c0.46559999999999996 1.0862399999999999 0.77616 1.3968 0.77616 1.5518399999999999 0.15504 0.46559999999999996 0.15504 0.62016 0.31008 0.62016 0.31056 0 0.31056 -0.77568 0.31056 -1.08576 -0.15552 -0.62064 -0.62064 -0.9311999999999999 -0.9311999999999999 -1.24128 -0.31008 -0.31056 -0.62064 0 -0.46559999999999996 0.15504Z" clip-rule="evenodd" stroke-width="1"></path><path fill="#000000" fill-rule="evenodd" d="M38.24496 35.6376c1.0862399999999999 0.15504 2.1724799999999997 1.5518399999999999 2.32752 2.172 0.15504 0.46559999999999996 -0.31056 0.62064 -0.15504 0.9311999999999999 0.31008 0.31008 0.62064 -0.31056 0.77568 -0.77568 0.15504 -1.0862399999999999 -0.9311999999999999 -2.94816 -2.94816 -2.79312 -0.31008 0 -0.31008 0.46559999999999996 0 0.46559999999999996Z" clip-rule="evenodd" stroke-width="1"></path><path fill="#000000" fill-rule="evenodd" d="M40.41744 31.75872c0.9311999999999999 0 1.86192 0.15504 2.7926399999999996 -0.46559999999999996 0.46559999999999996 -0.31008 0.77616 -0.77568 1.0862399999999999 -1.08576 0.31008 -0.31056 0.77568 -0.46559999999999996 0.62064 0 -0.15504 0.62064 -0.62064 0.46559999999999996 -0.46559999999999996 0.77568 0.15504 0.46559999999999996 1.24128 -0.31008 1.0862399999999999 -1.0862399999999999 -0.15504 -0.77568 -1.0862399999999999 -0.62064 -1.86192 -0.15504 -1.0862399999999999 0.9311999999999999 -0.15504 0.9311999999999999 -3.41328 1.70688 -0.31056 -0.15504 -0.15504 0.31008 0.15504 0.31008Z" clip-rule="evenodd" stroke-width="1"></path><path fill="#000000" fill-rule="evenodd" d="M40.88304 23.3808c-0.31056 1.3963199999999998 -1.24128 3.2577599999999998 -2.6376 4.654559999999999 -0.15504 0.15504 0 0.62016 0.31008 0.31008 2.32752 -1.55136 2.7926399999999996 -3.1031999999999997 2.7926399999999996 -4.96464 0 -0.31056 -0.46559999999999996 -0.31056 -0.46559999999999996 0Z" clip-rule="evenodd" stroke-width="1"></path><path fill="#000000" fill-rule="evenodd" d="M43.209599999999995 24.6216c-0.3096 2.1724799999999997 -1.86144 4.8096 -3.8784 6.050879999999999 -0.31008 0.15552 0 0.62064 0.15504 0.46559999999999996 2.48256 -1.08576 4.03392 -3.25824 4.03392 -6.51648 0.15552 -0.15504 -0.31008 -0.31008 -0.31008 0Z" clip-rule="evenodd" stroke-width="1"></path><path fill="#000000" fill-rule="evenodd" d="M45.5376 27.104159999999997c-0.77616 1.3968 -0.62064 1.5518399999999999 -0.9311999999999999 2.01696 -0.15504 0.31056 0.15504 0.46559999999999996 0.31056 0.31056 0.77568 -0.62064 0.9311999999999999 -1.24128 0.9311999999999999 -2.1724799999999997 0.15456 -0.46559999999999996 -0.31056 -0.46559999999999996 -0.31056 -0.15504Z" clip-rule="evenodd" stroke-width="1"></path><path fill="#000000" fill-rule="evenodd" d="M43.98576 29.74224c0.15504 0.15552 0.46559999999999996 -0.15504 0.31056 -0.31008 -1.3968 -1.3968 -2.48256 -2.6376 -4.34448 -3.72384 -1.3968 -0.9311999999999999 -1.70688 -1.08576 -1.86192 -0.9311999999999999 -0.15504 0.31056 0.31056 0.62112 5.89584 4.96512Z" clip-rule="evenodd" stroke-width="1"></path><path fill="#000000" fill-rule="evenodd" d="M40.727999999999994 36.5688c2.0164799999999996 -1.08576 3.4128 -2.172 4.344 -4.18896 0.15504 -0.31056 -0.31056 -0.46559999999999996 -0.46559999999999996 -0.15504 -1.24128 2.01696 -4.49952 3.8784 -4.18896 4.344 0 0.15504 0.15504 0.15504 0.31008 0Z" clip-rule="evenodd" stroke-width="1"></path><path fill="#000000" fill-rule="evenodd" d="M40.10688 33.31056c1.5518399999999999 0.15504 3.8788799999999997 1.2408 4.03392 3.10272 0 0.31056 0.46559999999999996 0.31056 0.46559999999999996 0 0 -2.01696 -1.70688 -3.72384 -4.49952 -3.56832 -0.31008 0 -0.31008 0.46559999999999996 0 0.46559999999999996Z" clip-rule="evenodd" stroke-width="1"></path><path fill="#000000" fill-rule="evenodd" d="M9.85248 34.241279999999996c0.15504 -2.48208 -3.1031999999999997 -2.3270399999999998 -1.24128 -2.172 0.15504 0 0.62064 0.15504 0.77568 0 0.9311999999999999 -0.9311999999999999 2.172 -0.9311999999999999 3.25824 -1.70688 0.9311999999999999 -0.62064 1.7064 -1.55136 2.7926399999999996 -2.01696 0.31008 -0.15504 0 -0.62064 -0.15504 -0.46559999999999996 -1.0862399999999999 0.62112 -1.70688 1.3968 -2.79312 2.01744 -1.2408 0.62064 -2.3270399999999998 0.62064 -3.4128 1.7064 -0.15552 0 -0.31056 -0.15504 -0.31056 -0.15504 -1.86192 0 -2.01696 0.77568 -1.5518399999999999 0.9311999999999999 0.77616 0.31008 1.3968 0.46559999999999996 1.8623999999999998 0.93072 0.46512 0.62064 -0.15552 1.24128 0.31008 1.3963199999999998 0.62064 0.31056 1.24128 0.15504 1.3963199999999998 0.77568 0.46559999999999996 1.24128 -1.70688 2.6376 -3.1031999999999997 2.94816 -1.24128 0.31008 -1.86192 -0.77568 -2.6376 -1.8623999999999998C3.336 34.70736 0.38784 32.690400000000004 1.00848 30.052799999999998c0.62064 -2.94816 6.672 -5.7408 10.240319999999999 -8.06784 1.55136 -0.9311999999999999 2.7926399999999996 -2.48256 4.654559999999999 -2.48256 0.31008 0 0.31008 -0.46559999999999996 0 -0.46559999999999996 -2.1724799999999997 0 -3.41328 1.5518399999999999 -4.96512 2.48256C6.74928 24.00144 0.85344 26.48352 0.07776 29.89728c-0.62064 3.10272 2.6376 5.43024 4.18896 7.13664 1.0862399999999999 1.0862399999999999 1.70688 2.48256 3.41328 2.01744 1.86192 -0.46559999999999996 4.18896 -2.1724799999999997 3.5687999999999995 -4.03392 0 -0.62064 -0.77616 -0.62064 -1.3968 -0.77616Zm-0.77616 -2.7926399999999996c0.15552 0 0.15552 -0.15504 0 0Z" clip-rule="evenodd" stroke-width="1"></path><path fill="#000000" fill-rule="evenodd" d="m3.64608 30.67344 0.31056 0c0.77568 0 1.7064 0.31008 2.48208 0.62016 0.31056 0.15552 0.46559999999999996 -0.31008 0.31056 -0.46559999999999996 -0.62064 -0.46512 -1.70688 -1.39584 -2.94816 -0.93072 -1.3963199999999998 0.46559999999999996 -0.62064 1.5518399999999999 0.62064 1.70688 0.31056 0 0.31056 -0.46559999999999996 0 -0.46559999999999996 -0.31008 -0.15504 -0.62064 -0.31008 -0.77568 -0.46559999999999996Zm0 0c-0.15504 0 -0.15504 0 0 0Z" clip-rule="evenodd" stroke-width="1"></path><path fill="#000000" fill-rule="evenodd" d="M5.0424 25.86288c1.24128 2.32752 2.32752 4.03392 4.654559999999999 5.58576 0.15504 0.15504 0.46559999999999996 -0.15552 0.31056 -0.31056 -1.0862399999999999 -1.08576 -4.344 -5.43024 -4.49952 -5.585279999999999 -0.31008 -0.15552 -0.62064 0 -0.46559999999999996 0.31008Z" clip-rule="evenodd" stroke-width="1"></path><path fill="#000000" fill-rule="evenodd" d="M7.83504 23.84592c1.24128 2.6376 2.6376 4.03392 4.8096 5.89584 0.15552 0.15504 0.62112 -0.15504 0.31056 -0.31056 -4.344 -4.49904 -4.654559999999999 -6.050879999999999 -5.11968 -5.89584l0 0.31056Z" clip-rule="evenodd" stroke-width="1"></path><path fill="#000000" fill-rule="evenodd" d="M10.93824 22.13952c0.62064 2.48256 1.70688 4.49952 3.72384 5.89584 0.31008 0.15504 0.46559999999999996 -0.15504 0.31008 -0.31008 -1.3963199999999998 -1.24128 -3.10272 -4.8096 -3.56832 -5.7408 0 -0.31056 -0.46559999999999996 -0.15504 -0.46559999999999996 0.15504Z" clip-rule="evenodd" stroke-width="1"></path><path fill="#000000" fill-rule="evenodd" d="M13.01712 20.559839999999998c0.62064 2.172 1.7064 3.1031999999999997 3.56832 4.344 0.31056 0.15552 0.46559999999999996 -0.15504 0.31056 -0.31008 -0.9311999999999999 -0.9311999999999999 -2.79312 -2.94768 -3.41376 -4.18896 -0.15504 -0.31056 -0.62064 -0.15504 -0.46559999999999996 0.15504Z" clip-rule="evenodd" stroke-width="1"></path><path fill="#000000" fill-rule="evenodd" d="M4.88736 30.206879999999998c1.3968 -1.7064 4.8096 -3.4128 7.757759999999999 -6.515999999999999 1.08576 -1.0862399999999999 2.172 -2.6376 3.7233599999999996 -2.48256 0.31056 0 0.31056 -0.46559999999999996 0 -0.46559999999999996 -1.86144 -0.15504 -3.10272 1.0862399999999999 -4.344 2.32752 -1.3968 1.3963199999999998 -2.6376 2.172 -4.344 3.7233599999999996 -4.5 3.72384 -2.94816 3.5687999999999995 -2.79312 3.41328Z" clip-rule="evenodd" stroke-width="1"></path><path fill="#000000" fill-rule="evenodd" d="M16.679039999999997 24.156959999999998c-4.18896 2.172 -4.03392 3.25824 -6.82656 5.7408 -1.70688 1.55136 -2.01696 1.39584 -1.8623999999999998 1.7064 0.46559999999999996 0.9311999999999999 5.7408 -4.49952 6.2063999999999995 -4.96512a100.7208 100.7208 0 0 1 2.79312 -2.172c0.15504 0 0 -0.46559999999999996 -0.31056 -0.31008Z" clip-rule="evenodd" stroke-width="1"></path><path fill="#000000" fill-rule="evenodd" d="M2.24976 34.55184c3.25824 -1.24128 3.1031999999999997 -1.24128 4.18896 -1.70688 0.31056 0 0.15552 -0.46559999999999996 -0.15504 -0.46559999999999996 -2.172 0.31056 -2.94768 0.77616 -4.344 1.70688 -0.15552 0.15552 0 0.62064 0.31008 0.46559999999999996Z" clip-rule="evenodd" stroke-width="1"></path><path fill="#000000" fill-rule="evenodd" d="M4.42176 36.5688c1.8623999999999998 -0.46559999999999996 2.79312 -0.9311999999999999 5.120159999999999 -2.48256 0.31008 -0.15504 0 -0.62064 -0.31008 -0.46559999999999996 -2.1724799999999997 1.0862399999999999 -0.46559999999999996 0 -4.96512 2.48256 -0.31008 0.15504 -0.15504 0.46559999999999996 0.15504 0.46559999999999996Z" clip-rule="evenodd" stroke-width="1"></path><path fill="#000000" fill-rule="evenodd" d="M10.47264 34.70688C9.69696 35.79264 7.68 37.343999999999994 5.81808 37.809599999999996c-0.31008 0 -0.15504 0.46559999999999996 0 0.46559999999999996 2.1724799999999997 -0.15552 4.03392 -1.24176 4.96512 -3.25872 0.31008 -0.31008 -0.15504 -0.62064 -0.31056 -0.31008Z" clip-rule="evenodd" stroke-width="1"></path><path fill="#000000" fill-rule="evenodd" d="M9.542399999999999 37.809599999999996c-0.62112 -0.62016 -2.94816 -2.9471999999999996 -3.1031999999999997 -3.10272 -2.01744 -2.172 -1.8623999999999998 -2.48256 -2.1724799999999997 -2.32752 -0.15504 0 -0.15504 0.15552 0 0.31056 1.3968 2.6376 2.94816 4.03392 4.96512 5.43024 0.15504 0.31056 0.46559999999999996 -0.15504 0.31008 -0.31008Z" clip-rule="evenodd" stroke-width="1"></path><path fill="#000000" fill-rule="evenodd" d="M7.83504 39.05088c0.62064 0.77568 1.5518399999999999 2.32752 2.79312 2.6376 0.77568 0.15504 2.01696 -0.46559999999999996 2.6376 -0.9311999999999999 1.08576 -0.93072 1.2408 -2.01696 0 -3.10272 -0.46559999999999996 -0.46559999999999996 -1.24128 -0.77568 -1.70688 -1.0862399999999999 -0.15504 -0.15504 -0.31008 0 -0.31008 0 -0.46559999999999996 0.46559999999999996 2.7926399999999996 1.70688 2.01696 3.1031999999999997 -0.31056 0.46559999999999996 -1.24128 1.0862399999999999 -1.8623999999999998 1.24128 -0.46512 0.15504 -0.77568 0.15504 -1.7064 -0.46559999999999996 -1.3963199999999998 -1.0862399999999999 -1.55136 -1.86192 -1.86192 -1.55136 -0.15504 -0.15504 -0.15504 0 0 0.15504Z" clip-rule="evenodd" stroke-width="1"></path><path fill="#000000" fill-rule="evenodd" d="M12.64512 40.6032c0.31008 0.15504 0.46559999999999996 -0.15552 0.31008 -0.31056 -1.7064 -1.86192 -1.55136 -1.55136 -2.7926399999999996 -2.48208 -0.31008 -0.31056 -1.3968 0.31008 2.48256 2.7926399999999996Z" clip-rule="evenodd" stroke-width="1"></path><path fill="#000000" fill-rule="evenodd" d="m18.540960000000002 39.672000000000004 0 -0.46559999999999996c-0.15552 -0.46559999999999996 -0.62064 -0.77568 -1.24128 -0.77568 -0.9311999999999999 0 -1.55136 0.46559999999999996 -2.32752 0.62064 -0.77568 0 -0.9311999999999999 -0.62064 -1.24128 -0.31056 -0.31008 0.31056 0.62064 0.77568 0.9311999999999999 0.77568 0.9311999999999999 0.15552 1.70688 -0.31008 2.48256 -0.31008 0.31008 0 0.62064 0.15504 0.62064 0.31008l0 0.62064c0.15504 0.46559999999999996 0.62016 0.31056 0.62016 0.62064 -0.15504 0.31056 -0.31008 0.46559999999999996 -0.31008 0.77568 0 0.31056 0.15504 0.9311999999999999 -1.0862399999999999 1.70688 -2.3270399999999998 1.3968 -2.48208 -0.46559999999999996 -5.11968 -2.172l-0.31056 0c-0.15504 0.31008 0.15504 0.31008 0.9311999999999999 1.08576 0.77568 0.77568 1.2408 1.3968 1.86144 1.8623999999999998 1.5518399999999999 1.08576 4.189439999999999 -0.31056 4.49952 -1.8623999999999998v-0.62064c0.15504 -0.31008 0.46559999999999996 -0.62064 0.31056 -1.24128 0 -0.31008 -0.31056 -0.46559999999999996 -0.62064 -0.62016Z" clip-rule="evenodd" stroke-width="1"></path><path fill="#000000" fill-rule="evenodd" d="M21.48864 17.32944c0.62064 2.01696 1.5518399999999999 3.56832 4.344 5.43024 0.31056 0.15504 0.46559999999999996 -0.15504 0.31056 -0.31008 -1.70688 -1.5518399999999999 -3.41328 -3.72384 -4.18896 -5.120159999999999 -0.15504 -0.46559999999999996 -0.46559999999999996 -0.31056 -0.46559999999999996 0Z" clip-rule="evenodd" stroke-width="1"></path><path fill="#000000" fill-rule="evenodd" d="m32.50464 18.26064 0 1.24128 0 1.70688c0 0.31008 0.46559999999999996 0.46559999999999996 0.46559999999999996 0.15504 0.62064 -1.55136 0.46559999999999996 -2.172 0 -3.1031999999999997 -0.15552 -0.31008 -0.62064 -0.31008 -0.46559999999999996 0Z" clip-rule="evenodd" stroke-width="1"></path><path fill="#000000" fill-rule="evenodd" d="M18.38544 24.311519999999998c4.344 -0.31056 4.189439999999999 -0.46559999999999996 7.44768 -1.0862399999999999 0.31008 0 0.31008 -0.46559999999999996 0 -0.46559999999999996 -3.72384 0.15552 -4.65504 0.46559999999999996 -7.44768 1.0862399999999999 -0.46559999999999996 0 -0.31008 0.46559999999999996 0 0.46559999999999996Z" clip-rule="evenodd" stroke-width="1"></path><path fill="#000000" fill-rule="evenodd" d="M33.28032 22.60512c2.48256 0.31056 3.41328 0 4.49952 0.15504 0.31008 0 0.46559999999999996 -0.31008 0.15504 -0.46559999999999996 -1.86192 -0.62016 -2.94768 -0.46512 -4.49952 -0.15504 -0.46559999999999996 0 -0.46559999999999996 0.46559999999999996 -0.15504 0.46559999999999996Z" clip-rule="evenodd" stroke-width="1"></path><path fill="#000000" fill-rule="evenodd" d="M19.781760000000002 27.7248c4.189439999999999 0 4.8096 -0.46559999999999996 7.29216 -0.46559999999999996 0.31056 0 0.31056 -0.46512 0 -0.46512 -3.10272 -0.31008 -4.96464 0.15504 -7.29216 0.46559999999999996 -0.31008 0 -0.31008 0.46559999999999996 0 0.46559999999999996Z" clip-rule="evenodd" stroke-width="1"></path><path fill="#000000" fill-rule="evenodd" d="M18.696 31.759200000000003c4.96464 0 4.49952 -0.31056 7.9128 -0.46559999999999996 0.31008 0 0.31008 -0.46559999999999996 0 -0.46559999999999996 -3.56832 -0.31008 -5.43024 0.15552 -7.9128 0.46559999999999996 -0.31056 0.15504 -0.31056 0.62064 0 0.46559999999999996Z" clip-rule="evenodd" stroke-width="1"></path><path fill="#000000" fill-rule="evenodd" d="M16.98912 35.7936c5.120159999999999 0.31008 6.36144 -0.15552 9.3096 -0.31056 0.31008 0 0.31008 -0.46559999999999996 0 -0.46559999999999996 -6.672 -0.15504 -6.05136 0.15504 -9.3096 0.31056 -0.31008 0 -0.31008 0.46559999999999996 0 0.46559999999999996Z" clip-rule="evenodd" stroke-width="1"></path><path fill="#000000" fill-rule="evenodd" d="M20.24736 39.98208c2.32752 0.31008 2.6376 0 4.18896 0 0.31056 0 0.31056 -0.46559999999999996 0 -0.46559999999999996 -2.172 -0.31008 -2.7926399999999996 -0.15504 -4.18896 0 -0.31008 0 -0.31008 0.46559999999999996 0 0.46559999999999996Z" clip-rule="evenodd" stroke-width="1"></path><path fill="#000000" fill-rule="evenodd" d="M32.50464 26.483999999999998c3.1031999999999997 0.15504 3.1031999999999997 0 5.120159999999999 -0.15504 0.31008 0 0.31008 -0.46559999999999996 0 -0.46559999999999996 -2.48256 -0.46559999999999996 -3.5687999999999995 -0.15504 -5.120159999999999 0.15504 -0.31056 0 -0.31056 0.46559999999999996 0 0.46559999999999996Z" clip-rule="evenodd" stroke-width="1"></path><path fill="#000000" fill-rule="evenodd" d="M37.77984 29.27664c-1.3968 -0.31056 -1.70688 -0.46559999999999996 -3.8788799999999997 0 -0.31056 0 -0.31056 0.46559999999999996 0 0.46559999999999996 2.48256 0.15504 1.24128 0.31008 3.8784 0 0.31056 0 0.31056 -0.46559999999999996 0 -0.46559999999999996Z" clip-rule="evenodd" stroke-width="1"></path><path fill="#000000" fill-rule="evenodd" d="M37.1592 33.465599999999995c-0.9311999999999999 -0.15504 -0.9311999999999999 -0.31008 -2.32752 0.15552 -0.31008 0 -0.31008 0.46559999999999996 0 0.46559999999999996 1.24128 0.15504 1.0862399999999999 0.15504 2.1724799999999997 -0.15552 0.46559999999999996 0 0.46559999999999996 -0.46559999999999996 0.15504 -0.46559999999999996Z" clip-rule="evenodd" stroke-width="1"></path><path fill="#000000" fill-rule="evenodd" d="M37.003679999999996 37.96512c-0.77568 -0.15504 -0.77568 -0.15504 -1.86144 0.15504 -0.31056 0 -0.31056 0.46559999999999996 0 0.46559999999999996 1.08576 0.15504 0.9311999999999999 0.15504 1.86192 -0.15504 0.31008 0 0.31008 -0.46559999999999996 0 -0.46559999999999996Z" clip-rule="evenodd" stroke-width="1"></path></svg>