<svg xmlns="http://www.w3.org/2000/svg" fill="none" viewBox="0 0 48 48" height="48" width="48" id="Doge--Streamline-Memes.svg"><desc>Doge Streamline Element: https://streamlinehq.com</desc><path stroke="#000000" stroke-linecap="round" stroke-linejoin="round" d="M18.261 7.816c-4.65 1.826 -9.132 3.819 -10.96 6.06 -1.826 2.242 -5.562 8.47 -4.898 16.44 0.665 7.97 6.725 15.775 17.685 15.775 10.96 0 16.771 -4.4 20.424 -8.967" stroke-width="1"></path><path stroke="#000000" stroke-linecap="round" stroke-linejoin="round" d="M14.15 9.45c0.107 -2.963 1.165 -6.72 1.641 -7.355 0.476 -0.635 1.746 0.477 3.228 1.535 1.185 0.846 2.646 2.504 3.228 3.228 2.345 0.158 7.83 0.687 11.006 1.534 2.54 -2.222 3.862 -5.133 5.767 -5.186 1.905 -0.052 2.91 1.27 3.916 4.286 0.804 2.413 0.688 6.791 0.529 8.678 0.794 1.57 2.508 5.747 3.016 9.895 0.508 4.149 0.212 13.677 0 17.923" stroke-width="1"></path><path stroke="#000000" stroke-linecap="round" stroke-linejoin="round" d="M2.919 34.2c-0.994 2.045 -1.534 5.478 -1.68 6.94" stroke-width="1"></path><path stroke="#000000" stroke-linecap="round" stroke-linejoin="round" d="M20.187 21.716c0.912 -2.061 1.95 -3.171 3.742 -3.301 1.441 -0.104 2.958 1.463 3.55 2.246 -0.304 0.959 -1.886 3.415 -3.988 3.03" stroke-width="1"></path><path stroke="#000000" stroke-linecap="round" stroke-linejoin="round" d="M10.34 18.015c0.572 -1.106 1.699 -1.925 2.681 -1.802 0.786 0.099 1.386 1.304 1.556 1.802 -0.19 1.065 -1.048 3.042 -2.948 2.436" stroke-width="1"></path><path stroke="#000000" stroke-linecap="round" stroke-linejoin="round" d="M9.23 26.462c-0.624 -1.11 -1.208 -0.305 -1.422 0.237 -0.215 -0.745 -0.136 -2.336 1.895 -2.742 2.031 -0.406 4.096 0.914 4.874 1.625 -0.496 1.41 -2.017 4.17 -4.13 3.926 -1.218 -0.14 -2.105 -1.453 -2.547 -2.564" stroke-width="1"></path><path stroke="#000000" stroke-linecap="round" stroke-linejoin="round" d="M11.43 26.645c0.479 -0.573 1.439 0 1.927 0.992" stroke-width="1"></path><path stroke="#000000" stroke-linecap="round" stroke-linejoin="round" d="M6.984 31.216c1.022 0.477 2.47 0.199 3.066 0" stroke-width="1"></path><path stroke="#000000" stroke-linecap="round" stroke-linejoin="round" d="M9.922 29.64c0.426 1.96 0.299 1.96 1.662 2.556 1.363 0.596 3.237 1.15 4.685 1.32 1.158 0.136 3.095 -0.34 3.918 -0.596" stroke-width="1"></path><path stroke="#000000" stroke-linecap="round" stroke-linejoin="round" d="M4.948 17.674c1.456 -2.052 3.284 -2.686 4.292 -1.903" stroke-width="1"></path><path stroke="#000000" stroke-linecap="round" stroke-linejoin="round" d="M8.008 20.473c0.12 1.731 0.846 2.96 1.194 3.358" stroke-width="1"></path><path stroke="#000000" stroke-linecap="round" stroke-linejoin="round" d="M14.858 25.63c3.138 -0.548 6.126 1.178 8.48 1.335 2.353 0.157 4.424 -2.336 7.718 -4.14 3.296 -1.805 10.005 -2.058 12.123 4.14" stroke-width="1"></path><path stroke="#000000" stroke-linecap="round" stroke-linejoin="round" d="M15.9 28.392c0.137 0.157 0.113 0.134 0.113 0.134" stroke-width="1"></path><path stroke="#000000" stroke-linecap="round" stroke-linejoin="round" d="M16.303 30.596c0.136 0.156 0.113 0.134 0.113 0.134" stroke-width="1"></path><path stroke="#000000" stroke-linecap="round" stroke-linejoin="round" d="M18.222 29.15c0.137 0.157 0.114 0.135 0.114 0.135" stroke-width="1"></path><path stroke="#000000" stroke-linecap="round" stroke-linejoin="round" d="M40.376 16.7c-0.734 -0.785 -2.689 -2.635 -4.633 -3.76 0.455 -3 1.822 -6.266 3 -6.911" stroke-width="1"></path><path fill="#000000" d="M11.713 18.41a1.219 1.643 0 1 0 2.438 0 1.219 1.643 0 1 0 -2.438 0" stroke-width="1"></path><path fill="#000000" d="M22.789 20.929a2.121 2.019 0 1 0 4.242 0 2.121 2.019 0 1 0 -4.242 0" stroke-width="1"></path></svg>