<svg xmlns="http://www.w3.org/2000/svg" fill="none" viewBox="0 0 48 48" height="48" width="48" id="Doge-Hand-Drawn--Streamline-Memes.svg"><desc>Doge Hand Drawn Streamline Element: https://streamlinehq.com</desc><path fill="#000000" fill-rule="evenodd" d="M17.728319999999997 8.130239999999999c-1.83984 0.6691199999999999 -8.5296 3.34512 -10.20192 4.849919999999999C3.1776 16.9944 0.16704 26.5272 0.33455999999999997 31.54464c0.16704 2.34144 1.0031999999999999 4.51584 2.0068799999999998 6.5232C1.50528 40.241279999999996 0.5015999999999999 42.749759999999995 0 45.0912c0 0.33455999999999997 0.5015999999999999 0.33455999999999997 0.5015999999999999 0.16751999999999997 0.50208 -2.34144 1.50528 -5.01744 2.50896 -7.02432C3.1776 37.56576 0.16704 34.38816 1.3377599999999998 28.032c0.83664 -4.68288 3.67968 -12.87792 8.028 -15.386879999999998 0.83616 -0.5015999999999999 5.184959999999999 -2.50848 6.02112 -2.84304 2.50848 -1.17072 2.676 -1.0031999999999999 2.50848 -1.3377599999999998 0 -0.33455999999999997 -0.16704 -0.33455999999999997 -0.16704 -0.33455999999999997Z" clip-rule="evenodd" stroke-width="1"></path><path fill="#000000" fill-rule="evenodd" d="M14.21616 9.9696c-0.16751999999999997 -2.0063999999999997 0.33455999999999997 -8.696639999999999 1.83984 -8.5296 1.17072 0 4.68288 5.01792 5.352 5.85408 0.33408 0.33455999999999997 0.33408 0 6.187679999999999 0.66864 9.53328 1.1712 3.51216 2.0073600000000003 10.53696 -3.51216 1.67232 -1.3377599999999998 2.84304 -0.16704 3.6792 1.83984 1.3382399999999999 3.51216 0.5015999999999999 6.68976 0.16751999999999997 10.20192 -0.33455999999999997 3.1776 2.676 5.51952 3.34464 8.36256 0.83616 3.51216 0.83616 7.358879999999999 1.1712 11.03856 0.33408 2.676 0.83568 6.3552 1.0031999999999999 8.696639999999999 0 0.33455999999999997 0.5015999999999999 0.33455999999999997 0.5015999999999999 0 -0.16704 -2.676 -0.5015999999999999 -5.8536 -0.83616 -8.696639999999999 -0.33455999999999997 -3.8467199999999995 -0.33455999999999997 -7.358879999999999 -1.17072 -11.03856 -0.6691199999999999 -2.84304 -3.51216 -5.352 -3.1776 -8.19504 0.33455999999999997 -3.8467199999999995 1.17072 -7.02432 -0.16751999999999997 -10.704 -1.0031999999999999 -2.676 -2.84304 -4.0137599999999996 -5.18448 -2.34144 -8.36256 6.857279999999999 1.67232 3.51216 -15.553920000000002 3.01056 -0.83616 -1.1712 -4.3488 -6.02112 -5.8536 -6.02112 -2.34144 0 -2.50896 7.02432 -2.3419199999999996 9.36576 0 0.33455999999999997 0.50208 0.33455999999999997 0.50208 0Z" clip-rule="evenodd" stroke-width="1"></path><path fill="#000000" fill-rule="evenodd" d="M16.056 14.82c-0.16848 0.744 -0.33455999999999997 1.6727999999999998 -0.50208 2.676 -0.16704 0.33455999999999997 0.33455999999999997 0.50208 0.50208 0.16751999999999997 0.66864 -1.1712 0.66864 -1.83984 0.5015999999999999 -2.8435200000000003 0 -0.34559999999999996 -0.40752 -0.30624 -0.5015999999999999 0Z" clip-rule="evenodd" stroke-width="1"></path><path fill="#000000" fill-rule="evenodd" d="M18.56448 16.82736c-0.28319999999999995 0.38880000000000003 -0.79344 1.0847999999999998 -1.17072 1.83984 -0.16704 0.33408 0.33455999999999997 0.5015999999999999 0.5015999999999999 0.33455999999999997 0.7415999999999999 -0.7415999999999999 1.0656 -1.35648 1.1712 -1.6727999999999998 0.16704 -0.5015999999999999 -0.33455999999999997 -0.83616 -0.50208 -0.5015999999999999Z" clip-rule="evenodd" stroke-width="1"></path><path fill="#000000" fill-rule="evenodd" d="M26.0904 21.8448c0.16751999999999997 0 0.16751999999999997 -0.33455999999999997 0 -0.5015999999999999 -3.51216 -2.8435200000000003 -4.68288 -3.01056 -7.02432 0.83616 -0.16704 0.16751999999999997 0 0.5015999999999999 0.16751999999999997 0.6691199999999999 2.50848 1.67232 5.18448 1.17072 6.8568 -1.0031999999999999Zm-0.5015999999999999 -0.16704c-3.34512 -2.50896 -3.8467199999999995 -2.0068799999999998 -5.5190399999999995 0.6691199999999999 2.0063999999999997 1.0031999999999999 4.0137599999999996 0.83616 5.5190399999999995 -0.6691199999999999Z" clip-rule="evenodd" stroke-width="1"></path><path fill="#000000" fill-rule="evenodd" d="M11.87472 16.82688c-0.83616 -0.6691199999999999 -1.83984 -0.5015999999999999 -2.50896 0.33455999999999997 -1.83984 2.0068799999999998 -0.6691199999999999 4.1808000000000005 1.1712 4.0137599999999996 2.17392 -0.5015999999999999 2.50848 -3.01008 1.3377599999999998 -4.348319999999999Zm0.16704 2.34144c-0.16704 -0.16704 0 -0.83616 -0.5015999999999999 -1.50528 -0.50208 -0.5015999999999999 -1.1712 -0.5015999999999999 -1.83984 0.33455999999999997 -1.17072 1.50528 -0.16704 2.676 0.83616 2.50896 1.1712 -0.50208 1.50528 -1.3382399999999999 1.50528 -1.3382399999999999Z" clip-rule="evenodd" stroke-width="1"></path><path fill="#000000" fill-rule="evenodd" d="M11.080319999999999 20.16c1.0031999999999999 0.16799999999999998 1.8393599999999999 -1.67184 0.5015999999999999 -2.8425599999999998 -0.83616 0 -1.83984 2.50848 -0.5015999999999999 2.84304Z" clip-rule="evenodd" stroke-width="1"></path><path fill="#000000" fill-rule="evenodd" d="M8.171999999999999 29.7864c-0.12096 3.61056 6.239039999999999 6.203519999999999 11.424 3.02592 0.2184 -0.13440000000000002 0.30672 -0.264 0.30672 -0.43152 -0.33455999999999997 -0.5015999999999999 -1.0036800000000001 0.83616 -4.3488 0.83616 -1.3377599999999998 0 -2.676 -0.33455999999999997 -4.0137599999999996 -0.83616 -1.3382399999999999 -0.5015999999999999 -2.24016 -1.1932800000000001 -2.5747199999999997 -2.6985599999999996 -0.33455999999999997 -0.16751999999999997 -0.79344 -0.2304 -0.79344 0.10415999999999999Z" clip-rule="evenodd" stroke-width="1"></path><path fill="#000000" fill-rule="evenodd" d="M9.0312 31.71168c0.33455999999999997 -0.16704 0 -0.6691199999999999 -0.33455999999999997 -0.33455999999999997 -0.66864 0.33455999999999997 -2.50848 0.6691199999999999 -2.6755199999999997 1.0031999999999999 0.16704 0.33503999999999995 1.67232 0.83664 3.01008 -0.66864Z" clip-rule="evenodd" stroke-width="1"></path><path fill="#000000" fill-rule="evenodd" d="M14.383199999999999 28.53456c-0.18816 0.27696 -0.40703999999999996 0.70896 -0.5015999999999999 1.3382399999999999 -0.16751999999999997 0.33455999999999997 0.33455999999999997 0.5015999999999999 0.5015999999999999 0.16704 0.288 -0.46847999999999995 0.44976 -0.80784 0.50208 -1.3382399999999999 0.029759999999999998 -0.3024 -0.33455999999999997 -0.33408 -0.50208 -0.16704Z" clip-rule="evenodd" stroke-width="1"></path><path fill="#000000" fill-rule="evenodd" d="M15.553920000000002 30.876479999999997c-0.27408 0.3744 -0.58128 0.79536 -0.66864 1.3377599999999998 -0.16751999999999997 0.33455999999999997 0.33408 0.5015999999999999 0.5015999999999999 0.16704 0.3408 -0.39359999999999995 0.6691199999999999 -1.1308799999999999 0.6691199999999999 -1.3377599999999998 0 -0.33455999999999997 -0.33455999999999997 -0.5015999999999999 -0.50208 -0.16751999999999997Z" clip-rule="evenodd" stroke-width="1"></path><path fill="#000000" fill-rule="evenodd" d="M12.37632 30.039839999999998c-0.31776 0.5347200000000001 -0.59856 0.90384 -0.6691199999999999 1.50528 -0.16704 0.33455999999999997 0.33455999999999997 0.50208 0.50208 0.16751999999999997 0.5015999999999999 -0.6691199999999999 0.5692799999999999 -1.0415999999999999 0.66864 -1.50528 0 -0.33455999999999997 -0.26976 -0.39936 -0.5015999999999999 -0.16751999999999997Z" clip-rule="evenodd" stroke-width="1"></path><path fill="#000000" fill-rule="evenodd" d="M15.21936 26.36016c2.50896 -0.33455999999999997 4.6833599999999995 1.0031999999999999 7.358879999999999 0.66864 3.01056 -0.33455999999999997 4.51584 -3.1776 7.19184 -3.6792 2.1744 -0.50208 4.51584 -0.50208 6.3552 0.16704 3.3455999999999997 1.0031999999999999 6.02112 4.0137599999999996 6.857279999999999 5.686559999999999 1.1712 2.50848 -1.0031999999999999 4.68288 -0.33455999999999997 5.01744 0.16751999999999997 0 0.33455999999999997 0 0.33455999999999997 -0.16751999999999997 0.6691199999999999 -1.67232 1.3382399999999999 -3.1776 0.50208 -5.184C42.647999999999996 26.861279999999997 39.972 23.8512 36.2928 22.68c-2.1744 -0.6691199999999999 -4.51584 -0.83616 -6.857279999999999 -0.16704 -2.84304 0.66864 -4.51536 3.34464 -7.1913599999999995 3.8467199999999995 -2.50896 0.33408 -4.51584 -0.83664 -7.19184 -0.50208 -0.16704 0 -0.16704 0.50208 0.16704 0.50208Z" clip-rule="evenodd" stroke-width="1"></path><path fill="#000000" fill-rule="evenodd" d="M5.8536 17.83056c0.33455999999999997 0 0.50208 0.6691199999999999 0.50208 1.1712 0 1.8393599999999999 -0.50208 1.67232 1.3377599999999998 4.1808000000000005 0 0.16751999999999997 0.16704 0.16751999999999997 0.33455999999999997 0 0.33455999999999997 -0.16704 -0.16751999999999997 -0.6691199999999999 -0.6691199999999999 -1.83984 -0.5015999999999999 -1.50528 0.16751999999999997 -2.1744 -0.16704 -3.34464 -0.50208 -1.50528 -1.83984 -1.50528 -2.8435200000000003 -0.33455999999999997 -0.66864 1.0031999999999999 -0.83616 1.17072 -0.66864 1.3377599999999998 0.5015999999999999 0.50208 1.17072 -1.17072 2.1744 -1.17072Z" clip-rule="evenodd" stroke-width="1"></path><path fill="#000000" fill-rule="evenodd" d="M22.3032 22.3464c-0.13776 -0.8256 0.27503999999999995 -1.6512 0.9628799999999998 -2.064 0.6883199999999999 -0.4128 1.51344 0.4128 2.064 0.96336 0.27503999999999995 0.27503999999999995 0.68784 0.4128 -0.13776 1.10064 -0.8256 0.68784 -3.02688 0.9628799999999998 -2.88912 0Z" clip-rule="evenodd" stroke-width="1"></path><path fill="#000000" fill-rule="evenodd" d="M2.1744 37.39872c2.676 4.8504 8.864159999999998 9.19872 16.557599999999997 9.86784 9.70032 1.0031999999999999 19.0656 -4.01424 21.742079999999998 -8.5296 0.16704 -0.33455999999999997 -0.33455999999999997 -0.50208 -0.50208 -0.33455999999999997 -1.8393599999999999 3.01056 -5.8536 5.18448 -9.19824 6.3552 -12.54384 4.51584 -24.25104 -1.0031999999999999 -28.097759999999997 -7.693439999999999 -0.16704 -0.16704 -0.6691199999999999 0.16751999999999997 -0.5015999999999999 0.33455999999999997Z" clip-rule="evenodd" stroke-width="1"></path><path fill="#000000" fill-rule="evenodd" d="M8.028 35.89296c0.83616 0.83616 1.67232 1.3382399999999999 3.1776 1.3382399999999999 0.33455999999999997 0 0.33455999999999997 -0.50208 0 -0.50208 -0.6691199999999999 -0.16704 -3.01056 -1.3377599999999998 -3.34512 -1.17072 0.16704 0 0.16751999999999997 0.16751999999999997 0.16751999999999997 0.33455999999999997Z" clip-rule="evenodd" stroke-width="1"></path><path fill="#000000" fill-rule="evenodd" d="M9.0072 25.58832c-3.46272 0 -1.73136 6.785279999999999 1.9473600000000002 2.48784 0.43296 -0.45215999999999995 0.64944 -0.9047999999999999 0.43296 -1.58304 -0.43296 -0.67872 -1.73136 -0.9047999999999999 -2.3808 -0.9047999999999999Z" clip-rule="evenodd" stroke-width="1"></path><path fill="#000000" fill-rule="evenodd" d="M9.0072 25.36272c-1.51488 -0.22655999999999998 -3.02976 1.58304 -1.9478399999999998 3.61824 1.73136 3.16656 6.92496 -2.0352 3.6787199999999998 -3.3926399999999997 -0.64896 -0.22559999999999997 -1.2984 -0.22559999999999997 -1.73088 -0.22559999999999997Zm0 0.45215999999999995c0.64896 0.22559999999999997 1.73136 0.22559999999999997 1.9473600000000002 0.9047999999999999 0.43296 0.67824 -1.51488 2.48784 -2.5968 2.26128 -0.86544 -0.22559999999999997 -1.51488 -2.94 0.64944 -3.16608Z" clip-rule="evenodd" stroke-width="1"></path><path fill="#000000" fill-rule="evenodd" d="M38.9688 5.955839999999999c-1.0031999999999999 1.3382399999999999 -3.67968 3.8467199999999995 -2.676 6.02112 0.6691199999999999 1.50528 3.1776 3.8467199999999995 3.6792 4.3488 0.16751999999999997 0.16655999999999999 0.33455999999999997 0.16655999999999999 0.33455999999999997 0 0.33455999999999997 -0.16799999999999998 0 -0.33503999999999995 -1.67232 -2.3419199999999996 -2.1744 -2.676 -2.0068799999999998 -3.1776 -1.0031999999999999 -4.849919999999999 1.17024 -2.1744 2.17392 -3.01056 1.67232 -3.1776 -0.16751999999999997 -0.16799999999999998 -0.33455999999999997 -0.16799999999999998 -0.33455999999999997 0Z" clip-rule="evenodd" stroke-width="1"></path><path fill="#000000" fill-rule="evenodd" d="M15.72144 4.11648c0.33455999999999997 1.0031999999999999 0.33455999999999997 1.67232 1.50528 4.1808000000000005 0.16704 0.33455999999999997 0.66864 0.16751999999999997 0.5015999999999999 -0.16704 -0.5015999999999999 -2.0068799999999998 -0.33455999999999997 -2.50848 -1.50528 -4.3488 -0.16751999999999997 -0.16704 -0.6691199999999999 0 -0.5015999999999999 0.33503999999999995Z" clip-rule="evenodd" stroke-width="1"></path></svg>