<svg xmlns="http://www.w3.org/2000/svg" fill="none" viewBox="0 0 48 48" height="48" width="48" id="Drake-Hotline-Bling-No-Hand-Drawn--Streamline-Memes.svg"><desc>Drake Hotline Bling No Hand Drawn Streamline Element: https://streamlinehq.com</desc><path fill="#000000" fill-rule="evenodd" d="M6.222192 17.062128c0.167232 2.675712 2.3412479999999998 3.511872 4.515264 4.6824959999999995 0.83616 0.5016959999999999 0.668928 0.5016959999999999 1.0033919999999998 0.83616 0.5016959999999999 0.5016959999999999 0.668928 0.334416 1.0033919999999998 0.501648 1.0033919999999998 0.668928 1.8395519999999999 1.67232 3.34464 0.83616 0.334464 -0.167232 1.50504 -1.003344 1.1705759999999998 -1.337808 -0.334464 -0.334464 -0.501648 0.334464 -1.50504 0.83616 -1.505088 0.668928 -2.174016 -0.6688799999999999 -3.010176 -1.003344 -0.167232 -0.167232 -0.501744 -0.167328 -0.668928 -0.167328 -0.167232 -0.167232 -0.334464 -0.334368 -0.5016959999999999 -0.668832 -0.668928 -0.668928 -2.3412479999999998 -1.170672 -3.6791039999999997 -2.341296 -1.337856 -1.337856 -1.1706239999999999 -2.173968 -1.1706239999999999 -2.675664 -0.167232 -0.334464 -0.5016959999999999 -0.334512 -0.83616 -0.6689759999999999 -0.5016959999999999 -0.334464 -2.0067888 -4.515312 -2.1740208 -4.849775999999999 -0.8361552 -3.010128 0.334464 -5.685791999999999 2.5084847999999997 -7.859783999999999C9.566832 -0.16268928 11.908079999999998 1.0079136 11.908079999999998 0.33898512000000003c0 -1.67231472 -13.2113088 2.84289648 -8.0271312 13.54573488 0.334464 0.83616 0.8361504 2.3412479999999998 1.5050832 2.8429439999999997 0.5016959999999999 0.334464 0.668928 0.334464 0.83616 0.334464Z" clip-rule="evenodd" stroke-width="1"></path><path fill="#000000" fill-rule="evenodd" d="M13.580544 1.007952c2.3412479999999998 0.668928 5.351376 3.8463839999999996 5.351376 6.5220959999999994 0 0.334464 0.501744 0.334464 0.501744 0 0.167232 -3.5118864000000003 -2.50848 -6.689304 -5.8531200000000005 -7.023768 -0.167232 0 -0.334464 0.501672 0 0.501672Z" clip-rule="evenodd" stroke-width="1"></path><path fill="#000000" fill-rule="evenodd" d="M11.239248 5.356176c0 2.174016 -1.1706239999999999 2.50848 -0.668928 2.8429439999999997 0.668928 0.5016959999999999 1.337856 1.1705759999999998 1.8395519999999999 1.839504 0.334464 0.5016959999999999 1.0033919999999998 -0.6689759999999999 2.3412479999999998 -0.6689759999999999 1.0033919999999998 0 1.337856 0.836256 1.67232 0.501792 0.334464 -0.5016959999999999 -1.0033919999999998 -1.0034399999999999 -1.67232 -1.0034399999999999 -0.668928 0 -1.337808 0.334512 -2.006736 0.6689759999999999 -0.5016959999999999 -0.5016959999999999 -0.836208 -1.0034399999999999 -1.5051359999999998 -1.5051359999999998 1.337856 -2.3412479999999998 0.5016959999999999 -5.853047999999999 -0.334416 -5.685816 -0.668928 0.167232 -0.000048 1.1706 -1.170672 3.8463119999999997 -1.0033919999999998 2.675712 -3.344592 4.6824 -6.1875312 4.849632 -0.334464 0 -0.334464 0.501792 0 0.501792 4.0135632 -0.167232 6.6892272 -2.675712 7.692619199999999 -6.187584Z" clip-rule="evenodd" stroke-width="1"></path><path fill="#000000" fill-rule="evenodd" d="M16.925088 9.536832c1.505088 -2.675712 3.511872 0 2.50848 2.50848 -0.334464 0.668928 -1.0033919999999998 0.83616 -1.337856 0.334464 -0.167232 -0.334464 -0.668928 -0.000048 -0.5016959999999999 0.334416 0.5016959999999999 1.0033919999999998 2.0067839999999997 0.836208 2.50848 -0.334416 1.8395519999999999 -3.6791039999999997 -2.3412479999999998 -6.689328 -3.6791039999999997 -3.010224 -0.167232 0.334464 0.334464 0.501744 0.5016959999999999 0.16727999999999998Z" clip-rule="evenodd" stroke-width="1"></path><path fill="#000000" fill-rule="evenodd" d="M7.058447999999999 16.058736c0.668928 0.668928 0.6689759999999999 0.668928 0.6689759999999999 2.0067839999999997 0 0.5016959999999999 -0.16727999999999998 1.505088 0.334416 2.174016 0.668928 1.0033919999999998 1.5051359999999998 0.334464 2.174064 0 0.334464 -0.167232 -0.000048 -0.668928 -0.16727999999999998 -0.5016959999999999 -1.0033919999999998 0.334464 -1.337856 0.501792 -1.337856 -0.668832 0 -2.0067839999999997 0.334464 -2.50848 -1.1705759999999998 -3.34464 -0.334464 -0.334464 -0.6689759999999999 0.167136 -0.501744 0.334368Z" clip-rule="evenodd" stroke-width="1"></path><path fill="#000000" fill-rule="evenodd" d="M10.403136 18.065327999999997c0.167232 0 0.334464 0.334464 0.334464 0.5016959999999999 0.167232 0.167232 0.334464 0.334512 0.5016959999999999 0.6689759999999999 0 0.167232 0 0.334464 0.167232 0.334464 0.5016959999999999 0 0.5016959999999999 -1.337856 -0.167232 -1.67232 -1.0033919999999998 -0.668928 -1.337856 -0.000048 -0.83616 0.167184Z" clip-rule="evenodd" stroke-width="1"></path><path fill="#000000" fill-rule="evenodd" d="M6.222384 17.062416c0.5016959999999999 0.5016959999999999 1.1706239999999999 0.334416 1.505088 -0.16727999999999998 0.334464 -0.167232 0 -0.668928 -0.334464 -0.5016959999999999l-0.668928 0s-0.334464 0.16727999999999998 -0.5016959999999999 0.16727999999999998c0 -0.167232 -0.334464 0.334464 0 0.5016959999999999Z" clip-rule="evenodd" stroke-width="1"></path><path fill="#000000" fill-rule="evenodd" d="M6.222336 15.891792c0.5016959999999999 0.334464 0.334464 0.334416 1.1706239999999999 0.167184 0.334464 0 0.5016959999999999 -0.334416 0.167232 -0.501648 -0.668928 -0.5016959999999999 -0.668928 -0.501648 -1.1706239999999999 -0.167232 -0.5016959999999999 0 -0.5016959999999999 0.5016959999999999 -0.167232 0.5016959999999999Z" clip-rule="evenodd" stroke-width="1"></path><path fill="#000000" fill-rule="evenodd" d="M8.3964 15.556944c1.67232 0.5016959999999999 2.508432 -1.337856 4.515216000000001 -3.010176 0.334464 -0.167232 0.000048 -0.668928 -0.334416 -0.334464 -3.177408 1.8395519999999999 -3.010176 3.010128 -4.1808000000000005 3.010128 -0.167232 -0.167232 -0.334464 0.16727999999999998 0 0.334512Z" clip-rule="evenodd" stroke-width="1"></path><path fill="#000000" fill-rule="evenodd" d="M10.235904 15.557184c0.5016959999999999 0.5016959999999999 1.1706239999999999 0.501744 1.67232 0.16727999999999998 0.668928 -0.334464 1.003344 -1.0033919999999998 1.337808 -1.67232 0.167232 -0.334464 -0.167232 -0.5016959999999999 -0.334464 -0.334464 -0.5016959999999999 0.5016959999999999 -1.67232 1.505088 -2.3412479999999998 1.337856 -0.334464 -0.167232 -0.6688799999999999 0.334416 -0.334416 0.501648Z" clip-rule="evenodd" stroke-width="1"></path><path fill="#000000" fill-rule="evenodd" d="M11.40648 22.0788c1.337856 0.5016959999999999 2.3412479999999998 -0.167232 3.34464 -1.337856 0.167232 -0.167232 0 -0.668928 -0.334416 -0.334464 -0.5016959999999999 0.334464 -2.341296 1.1706239999999999 -3.010224 1.1706239999999999 -0.167232 -0.167232 -0.334464 0.334464 0 0.5016959999999999Z" clip-rule="evenodd" stroke-width="1"></path><path fill="#000000" fill-rule="evenodd" d="M17.395728000000002 22.857888c-0.6959519999999999 -2.117328 0.41759999999999997 -2.823072 3.0623519999999997 -5.363855999999999 -0.417552 -1.693824 -1.8095519999999998 -2.9641919999999997 -2.923152 -4.09344 1.2528 3.1054079999999997 -1.391952 3.1054079999999997 -1.113552 6.351935999999999 -1.8095519999999998 -0.8469599999999999 -1.391952 -1.411536 -5.5679039999999995 0.7057439999999999 -0.8351999999999999 0.423456 -0.9743999999999998 0.282288 -0.41759999999999997 0.5646239999999999 1.8095519999999998 -0.846912 3.340752 -1.5527039999999999 4.175904 -1.411536 1.5312 0.423456 1.8095999999999999 1.653888 1.321056 2.702016 -0.5568 0.846912 -1.5142079999999998 0.345072 -1.5142079999999998 0.062736 0 -0.282288 0.1392 -0.423456 0 -0.282288 -0.2784 0.141168 -0.974352 0.7057439999999999 -1.113552 0.846912 0.41759999999999997 0.423456 1.167552 0.9052319999999999 1.7243519999999999 1.0464 0.5567519999999999 0.423456 1.948704 -0.282336 2.366304 -1.1292479999999998Z" clip-rule="evenodd" stroke-width="1"></path><path fill="#000000" fill-rule="evenodd" d="M14.61168 22.434336c0 -0.141168 0.1392 -0.282336 0 -0.5646239999999999 -0.1392 -0.141168 -0.278352 -0.141168 -0.417552 0 -0.2784 0.141168 -1.252752 0.846912 -1.252752 1.1292 0 0.282336 0.835152 0.8469599999999999 0.974352 0.9881280000000001 0.6959519999999999 0.423456 1.252752 0.564576 2.087952 0.28224 0.8351999999999999 -0.282288 1.531152 -0.9880319999999999 1.531152 -1.270368 0.2784 -0.423456 -1.113552 -1.1292 1.5312 -3.811152 1.392 -1.411536 1.6703999999999999 -1.411536 1.6703999999999999 -1.693824 -0.41759999999999997 -1.834992 -1.6703999999999999 -3.1054079999999997 -3.0623519999999997 -4.375775999999999 -0.2784 -0.282288 -0.8351999999999999 0 -0.696 0.423456 0.9743999999999998 2.681952 -1.2528 2.96424 -1.2528 5.363855999999999 -1.391952 -0.846912 -1.9487519999999998 -0.5646239999999999 -5.289504 1.1292479999999998 -0.8351999999999999 0.423456 -0.974352 0.423456 -1.113552 0.7057439999999999 0 0.282336 0.278352 0.423456 0.5567519999999999 0.5646239999999999 0.5568 0.282288 3.340752 -1.693824 4.175952 -1.411536 0.5568 0.141168 1.113552 0.423456 1.391952 0.846912 0.41759999999999997 0.5646239999999999 0.470592 1.2130079999999999 0.19214399999999998 1.538112 -0.310464 0.521856 -0.888144 0.29688000000000003 -1.0273439999999998 0.15576Zm2.5056 0.423408c-0.696 -2.1172799999999996 0.696 -3.387648 2.923152 -5.363808 -0.2784 -1.1292479999999998 -1.1136 -1.97616 -1.9487999999999996 -2.823072 0 2.823072 -1.670352 2.258448 -1.391952 5.081519999999999 0 0.282336 -0.2784 0.5646239999999999 -0.696 0.423456 -0.1392 0 0 0.000048 0.1392 0.282336 0.5568 0.705792 0.2784 1.5527039999999999 -0.1392 2.258448 -0.696 0.98808 -1.8095519999999998 0.423504 -2.087952 0l-0.41759999999999997 0.282288c0.1392 0.141168 0.41759999999999997 0.282288 0.5568 0.5646239999999999 1.252752 0.846912 2.505552 0 3.0623519999999997 -0.705792Z" clip-rule="evenodd" stroke-width="1"></path><path fill="#000000" fill-rule="evenodd" d="M20.102592 15.055055999999999c0.83616 0.167232 1.672272 2.174016 2.3412 3.34464 0.167232 0.334464 0.668928 0.000048 0.5016959999999999 -0.167184 -0.5016959999999999 -1.0033919999999998 -1.0033919999999998 -2.174016 -1.505088 -2.8429439999999997 -1.1706239999999999 -1.67232 -2.508432 -1.170672 -2.173968 0.167184 0.668928 2.3412479999999998 2.675664 4.180751999999999 2.006736 8.027088 0 0.334464 0.334512 0.501744 0.501744 0.16727999999999998 0.334464 -1.505088 0.5016959999999999 -2.675712 0 -4.013567999999999 0 -1.0033919999999998 -1.67232 -4.515264 -1.67232 -4.6824959999999995Z" clip-rule="evenodd" stroke-width="1"></path><path fill="#000000" fill-rule="evenodd" d="M21.105887999999997 10.540176c1.337856 0.668928 0.501648 3.177456 2.006736 6.0204 0.167232 0.334464 0.6689759999999999 0.167136 0.501744 -0.167328 -1.1706239999999999 -2.50848 -0.16727999999999998 -3.17736 -1.0034399999999999 -5.184144 -0.668928 -1.8395519999999999 -2.173968 -1.8395519999999999 -2.3412 -0.83616 -0.334464 1.0033919999999998 0.167184 3.8462879999999995 0.501648 4.84968 0 0.334464 0.5016959999999999 0.16727999999999998 0.5016959999999999 -0.167184 -0.167232 -0.668928 -0.501648 -4.6824959999999995 -0.167184 -4.515264Z" clip-rule="evenodd" stroke-width="1"></path><path fill="#000000" fill-rule="evenodd" d="M22.276464 8.532864c1.1706239999999999 0.83616 1.1706239999999999 7.692767999999999 2.3412479999999998 7.191072 0.334464 -0.167232 0.000048 -0.334512 -0.167184 -1.5051359999999998 -0.334464 -1.505088 -0.000048 -3.177408 -0.6689759999999999 -5.01696 -0.668928 -2.0067839999999997 -2.174016 -1.839504 -2.174016 -0.501648 0 0.334464 0.000048 0.668928 0.16727999999999998 1.67232 0 0.334464 0.501648 0.334464 0.501648 0 0 -0.668928 -0.167232 -1.505184 0 -1.8396479999999997Z" clip-rule="evenodd" stroke-width="1"></path><path fill="#000000" fill-rule="evenodd" d="M24.116112 11.041727999999999c0 -0.334464 0.334464 -2.3412479999999998 0.5016959999999999 -2.174016 0.83616 0.83616 0.000048 5.685887999999999 2.174016 9.197759999999999 0.167232 0.334464 0.5016959999999999 0.668928 0.83616 1.1706239999999999 0 0.167232 0.167232 0.167184 0.334464 0.167184 0.668928 -0.334464 -0.668928 -0.334416 -1.505088 -4.347983999999999 -0.83616 -3.8463359999999995 -0.334464 -5.518655999999999 -1.337856 -6.522048 -0.501648 -0.5016959999999999 -1.0033919999999998 -0.334464 -1.337856 0.334464 -0.167232 0.334464 -0.167184 0.83616 -0.167184 2.174016 0 0.334464 0.501648 0.334464 0.501648 0Z" clip-rule="evenodd" stroke-width="1"></path><path fill="#000000" fill-rule="evenodd" d="M24.785135999999998 27.263232c1.67232 -3.010176 4.013567999999999 -3.344592 4.515264 -6.020303999999999 0.334464 -1.337856 0 -2.508432 0.167232 -3.8462879999999995 0.167232 -1.0033919999999998 0.668928 -2.3412479999999998 0 -3.34464s-1.67232 -0.501792 -2.174016 0.334368c-0.668928 1.1706239999999999 -0.334464 2.5085279999999996 -0.334464 3.5119199999999995 0 0.334464 0.5016959999999999 0.334464 0.5016959999999999 0 0 -1.1706239999999999 0 -2.341296 0.5016959999999999 -3.177456 0.167184 -0.334464 0.668928 -0.668928 1.0033919999999998 -0.334464 0.334464 0.668928 -0.16727999999999998 2.0067839999999997 -0.16727999999999998 2.8429439999999997 -0.167232 1.1706239999999999 0.000048 2.5085279999999996 -0.167184 3.679152 -0.334464 1.672272 -1.67232 2.675664 -2.8429439999999997 3.8462879999999995 -0.668928 0.668928 -0.836112 1.337856 -1.337808 2.0067839999999997 -0.167232 0.5016959999999999 0.167184 0.83616 0.334416 0.5016959999999999Z" clip-rule="evenodd" stroke-width="1"></path><path fill="#000000" fill-rule="evenodd" d="M25.955616 19.236192c-0.5016959999999999 1.0033919999999998 -0.668928 2.006736 0 3.511824 0.167232 0.334464 0.5016959999999999 0.16727999999999998 0.5016959999999999 -0.167184 -0.167232 -1.1706239999999999 0.167184 -3.511824 -0.16727999999999998 -3.511824 -0.167232 -0.167232 -0.334416 -0.000048 -0.334416 0.167184Z" clip-rule="evenodd" stroke-width="1"></path><path fill="#000000" fill-rule="evenodd" d="M18.430176 4.5196176c5.8531200000000005 -2.8429392 11.037263999999999 -2.8430016 14.8836 2.3411664 3.511872 4.6824959999999995 1.50504 7.525488 2.173968 7.692719999999999 0.668928 0.167232 1.170672 -4.348032 -1.50504 -8.194367999999999 -1.67232 -2.3412576 -4.1808000000000005 -4.180824 -6.8565119999999995 -4.515288 -3.34464 -0.5016912 -5.853071999999999 0.8362415999999999 -8.863247999999999 2.1740928 -0.334464 0.167232 0 0.5016768 0.167232 0.5016768Z" clip-rule="evenodd" stroke-width="1"></path><path fill="#000000" fill-rule="evenodd" d="M26.959104 10.874448c1.8395519999999999 -1.1706239999999999 4.013567999999999 -2.8428959999999996 3.6791039999999997 -5.184144 -0.334464 -2.0067936 -2.675712 -2.842968 -4.6824959999999995 -2.842968 -1.0033919999999998 0 -2.173968 0.33443999999999996 -3.17736 0.501672 -0.167232 0 -0.16727999999999998 0.16725120000000002 -0.16727999999999998 0.3344832 0.167232 0.5016959999999999 0.83616 -0.1672944 3.34464 -0.1672944 4.013567999999999 0.167232 5.8531200000000005 3.0102192 0.83616 6.8565552 -0.5016959999999999 0.334464 -0.167232 0.668928 0.167232 0.5016959999999999Z" clip-rule="evenodd" stroke-width="1"></path><path fill="#000000" fill-rule="evenodd" d="M29.467488 16.895184c3.6791039999999997 -2.8428959999999996 5.8531200000000005 -2.3412 9.030528 -0.167184 2.675712 1.8395519999999999 5.5186079999999995 4.515264 7.35816 6.68928 0.167232 0.334464 0.6689759999999999 -0.000048 0.334512 -0.334464 -2.50848 -3.177408 -8.027135999999999 -9.197712 -12.040704 -9.03048 -2.0067839999999997 0.167232 -3.511872 1.1705759999999998 -5.01696 2.3412 -0.167232 0.334464 0 0.6688799999999999 0.334464 0.501648Z" clip-rule="evenodd" stroke-width="1"></path><path fill="#000000" fill-rule="evenodd" d="M6.5568 17.898239999999998c-1.337856 2.3412 -1.672368 2.8429439999999997 -0.334512 5.351424C4.38276 26.928767999999998 0.8709168 31.94568 1.53984 36.293712c0.668928 4.84968 6.8565119999999995 13.211087999999998 12.709632 7.358111999999999 0 4.1808000000000005 -0.167232 4.34808 0.167232 4.34808s0.167184 -0.000048 0.334416 -5.18424c0 -0.334464 -0.334416 -0.501648 -0.501648 -0.167184 -1.0033919999999998 1.0033919999999998 -2.174016 2.006832 -3.511872 2.341296 -3.8463359999999995 0.668928 -7.859904 -5.01696 -8.361600000000001 -8.696064 -0.5016959999999999 -4.013567999999999 2.675712 -9.030528 4.515264 -12.876864 0.167232 -0.334464 -1.0033919999999998 -1.50504 -1.0033919999999998 -2.675664 0 -1.337856 1.337856 -2.50848 1.0033919999999998 -2.8429439999999997 -0.167232 -0.167232 -0.167232 0 -0.334464 0Z" clip-rule="evenodd" stroke-width="1"></path><path fill="#000000" fill-rule="evenodd" d="M18.43008 38.467824c2.174016 -1.0033919999999998 5.01696 -4.013567999999999 5.8531200000000005 -6.68928 3.6791039999999997 -1.67232 3.34464 -5.351376 1.67232 -6.856464 -0.668928 -0.5016959999999999 -1.0033919999999998 0.83616 -1.8395519999999999 1.67232 -0.334464 -0.334464 -0.668928 -0.6689759999999999 -1.0033919999999998 -1.0034399999999999 -1.8395519999999999 -2.3412479999999998 -1.1706239999999999 -3.8463359999999995 -3.34464 -1.67232 -0.5016959999999999 0.5016959999999999 -1.0033919999999998 1.0034399999999999 -1.337856 1.5051359999999998 -0.5016959999999999 -0.167232 -0.83616 -0.167232 -1.337856 0 -1.505088 0.334464 -6.354768 4.6824959999999995 -7.859856 6.187584 -2.0067839999999997 -0.334464 -3.6791039999999997 0.501648 -5.3514384 1.839504 -0.167232 0.167232 -0.167232 0.16727999999999998 0 0.334512 0.5016959999999999 0.5016959999999999 2.0067984 -2.174064 5.3514384 -1.5051359999999998 0.5016959999999999 0.167232 -0.83616 0.334512 6.354768 -5.184144 0.83616 -0.5016959999999999 1.67232 -1.337856 2.50848 -0.83616 0.668928 0.334464 1.0033919999999998 -1.170672 2.8429439999999997 -2.341296 0.668928 1.337856 2.675712 4.34808 3.511872 3.5119199999999995 0.5016959999999999 -0.5016959999999999 0.6688799999999999 -1.0033919999999998 1.003344 -1.505088 0.668928 1.0033919999999998 0.836208 2.508432 0.16727999999999998 3.511824 -0.5016959999999999 0.83616 -1.337856 1.337808 -2.174016 1.672272 -0.5016959999999999 0.167232 -0.167232 1.5051359999999998 -2.3412 4.013616 -2.174016 2.675712 -3.010224 2.341296 -3.679152 3.177456 -1.0033919999999998 1.337856 -2.173968 3.010176 -3.17736 4.1808000000000005 -0.167232 0.167232 0.167184 0.5015999999999999 0.334416 0.334368 1.67232 -1.337856 3.511872 -3.8462879999999995 3.8463359999999995 -4.347983999999999Z" clip-rule="evenodd" stroke-width="1"></path><path fill="#000000" fill-rule="evenodd" d="M18.597503999999997 25.925184c0.334464 2.675712 1.67232 4.515264 4.013567999999999 5.518655999999999 0.334464 0.167232 0.5016959999999999 -0.334464 0.167232 -0.5016959999999999 -1.67232 -1.1706239999999999 -3.177408 -3.511824 -3.6791039999999997 -5.184144 -0.167232 -0.167232 -0.668928 -0.16727999999999998 -0.5016959999999999 0.167184Z" clip-rule="evenodd" stroke-width="1"></path><path fill="#000000" fill-rule="evenodd" d="M11.740896 29.604575999999998c-0.167232 4.180751999999999 2.0067839999999997 7.358111999999999 5.1841919999999995 8.528736 0.334464 0.167232 0.501648 -0.334416 0.167184 -0.501648 -2.675712 -1.1706239999999999 -4.84968 -5.1841919999999995 -4.84968 -8.027088 0 -0.334464 -0.5016959999999999 -0.334464 -0.5016959999999999 0Z" clip-rule="evenodd" stroke-width="1"></path><path fill="#000000" fill-rule="evenodd" d="M8.730624 26.092416c1.0033919999999998 2.0067839999999997 1.5051359999999998 2.341296 3.177456 4.013616 0.167232 0.167232 0.6688799999999999 0 0.334416 -0.334464 -2.3412479999999998 -3.177408 -1.1705759999999998 -1.8395519999999999 -3.17736 -3.8463359999999995 -0.167232 -0.5016959999999999 -0.501744 -0.16727999999999998 -0.334512 0.167184Z" clip-rule="evenodd" stroke-width="1"></path><path fill="#000000" fill-rule="evenodd" d="M20.437008 17.563584c-4.1808000000000005 2.50848 -4.347983999999999 6.020303999999999 -1.839504 7.1909279999999995 0.334464 0.167232 0.83616 0.334464 0.83616 0 0.167232 -0.334464 -0.16727999999999998 -0.334416 -0.6689759999999999 -0.501648 -2.3412479999999998 -1.505088 -0.5016959999999999 -4.515264 1.8395519999999999 -6.187584 0.5016959999999999 -0.167232 0.167232 -0.668928 -0.167232 -0.5016959999999999Z" clip-rule="evenodd" stroke-width="1"></path><path fill="#000000" fill-rule="evenodd" d="M13.915007999999998 24.08568c0.83616 0.83616 1.170672 1.3377599999999998 2.842992 2.006688 0.334464 0.167232 0.5016959999999999 -0.334464 0.167232 -0.501648 -1.337856 -1.0033919999999998 -0.836208 -0.836208 -2.8429439999999997 -2.006832 0 0 -0.334512 0.33455999999999997 -0.16727999999999998 0.501792Z" clip-rule="evenodd" stroke-width="1"></path><path fill="#000000" fill-rule="evenodd" d="M9.399648 23.584176c1.8395519999999999 1.8395519999999999 4.01352 2.6757599999999995 5.184144 4.013616 0.167232 0.334464 0.668928 -0.000048 0.334464 -0.334512 -1.672272 -2.174016 -4.013567999999999 -3.1773119999999997 -5.1841919999999995 -4.013472 -0.334464 -0.167232 -0.501648 0.167136 -0.334416 0.334368Z" clip-rule="evenodd" stroke-width="1"></path><path fill="#000000" fill-rule="evenodd" d="M22.611072 33.785328c0.167232 1.67232 0.5016959999999999 7.023695999999999 0.5016959999999999 8.19432 0.167232 5.68584 -0.334464 5.68584 0.167232 5.853071999999999 0.167232 0 0.334512 -0.167184 0.334512 -0.167184 0.668928 -6.522048 0.501648 -8.696016 -0.501744 -13.880208 -0.167232 -0.334464 -0.5016959999999999 -0.334464 -0.5016959999999999 0Z" clip-rule="evenodd" stroke-width="1"></path><path fill="#000000" fill-rule="evenodd" d="M23.781551999999998 31.277231999999998c0.5016959999999999 6.020352 0.5016959999999999 9.030528 3.010176 16.221504 0.167232 0.334464 0.5016959999999999 0.167136 0.5016959999999999 -0.167328 -2.0067839999999997 -6.522 -2.675712 -16.38864 -3.177408 -16.38864 -0.334464 0.167184 -0.5016959999999999 0.167232 -0.334464 0.334464Z" clip-rule="evenodd" stroke-width="1"></path><path fill="#000000" fill-rule="evenodd" d="M38.330735999999995 18.734543999999996c-2.675664 3.34464 -4.013567999999999 9.532224 -1.8395519999999999 15.552527999999999 1.8395519999999999 5.01696 5.518655999999999 8.863344 9.364991999999999 12.375168 0.167232 0.167232 0.5016959999999999 -0.167232 0.334464 -0.334464C39.668639999999996 40.307424 34.651632 32.781984 36.491184000000004 23.918687999999996c0.334464 -1.8395519999999999 1.0034399999999999 -3.511872 2.174064 -5.016912 0.334464 -0.167232 -0.000048 -0.5016959999999999 -0.334512 -0.167232Z" clip-rule="evenodd" stroke-width="1"></path><path fill="#000000" fill-rule="evenodd" d="M27.12624 46.49476799999999c4.1808000000000005 -1.003344 8.528832 -1.50504 13.211327999999998 -5.5186079999999995 0.334464 -0.167232 0 -0.668928 -0.334464 -0.334464 -4.515264 3.6791039999999997 -13.378511999999999 5.01696 -13.211279999999999 5.685887999999999 0.167232 0.167232 0.334416 0.167184 0.334416 0.167184Z" clip-rule="evenodd" stroke-width="1"></path><path fill="#000000" fill-rule="evenodd" d="M14.416751999999999 46.160495999999995c3.17736 0.836112 5.853071999999999 1.337856 9.03048 0.334464 0.334464 0 0.167232 -0.5016959999999999 -0.167232 -0.5016959999999999 -2.174016 0.5016959999999999 -6.68928 0 -8.696064 -0.334464 -0.5016959999999999 0 -0.501648 0.5016959999999999 -0.167184 0.5016959999999999Z" clip-rule="evenodd" stroke-width="1"></path><path fill="#000000" fill-rule="evenodd" d="M24.952271999999997 36.460944c2.50848 -0.5016959999999999 6.522048 -0.6688799999999999 11.371728 -3.17736 0.334464 -0.167232 0.16727999999999998 -0.6689759999999999 -0.167184 -0.501744 -3.177408 1.50504 -11.539007999999999 2.842992 -11.371775999999999 3.5119199999999995 0 0.167232 0 0.334416 0.167232 0.167184Z" clip-rule="evenodd" stroke-width="1"></path><path fill="#000000" fill-rule="evenodd" d="M20.604143999999998 37.129728c1.0033919999999998 0.167232 1.0033919999999998 0.334464 2.675712 0 0.334464 0 0.334464 -0.5016959999999999 0 -0.5016959999999999 -1.337856 -0.167232 -1.337856 -0.334464 -2.675712 0 -0.334464 0 -0.334464 0.5016959999999999 0 0.5016959999999999Z" clip-rule="evenodd" stroke-width="1"></path></svg>