<svg xmlns="http://www.w3.org/2000/svg" fill="none" viewBox="0 0 48 48" height="48" width="48" id="Drake-Hotline-Bling-Yes-Hand-Drawn--Streamline-Memes.svg"><desc>Drake Hotline Bling Yes Hand Drawn Streamline Element: https://streamlinehq.com</desc><path fill="#000000" fill-rule="evenodd" d="M28.293408 3.476736C22.800096 3.171552 21.579311999999998 7.749312 21.274128 13.09008C21.121536 14.768592 20.816304 16.599696 21.884496 18.125615999999997C24.936384 22.703424 28.140815999999997 22.703376 31.192704000000003 19.346352C32.718624 17.667839999999998 32.718624 17.210112 33.1764 15.226415999999999C33.1764 14.921231999999998 32.871168 14.768592 32.718624 15.073776C32.260799999999996 16.90488 32.260799999999996 17.362655999999998 30.887520000000002 18.888575999999997C27.682992 22.093007999999998 25.088928 21.330144 22.647456 17.515296C21.731904 16.141968 22.189728 14.463456 22.189728 12.937536C22.342271999999998 9.122736 22.800048 4.850064 26.614895999999998 3.934512C27.225264 3.7819199999999995 27.835632 3.629376 28.446 3.781968C28.598544 4.087152000000001 28.598591999999996 3.6293279999999997 28.293408 3.476736Z" clip-rule="evenodd" stroke-width="1"></path><path fill="#000000" fill-rule="evenodd" d="M33.939312 12.937728C34.397088 8.665104 33.023759999999996 5.460672 29.208911999999998 3.782112C28.903727999999997 3.62952 28.751184 4.087296 29.056368 4.239888C32.260799999999996 5.765808 33.481536000000006 9.275424 33.176352 12.78504C33.176352 13.548 33.634128 13.548096 33.939312 13.70064C34.854864 14.768832 33.328944 17.057712000000002 32.413392 16.752527999999998C32.108208 16.599936 31.955568 17.057664 32.260752000000004 17.210303999999997C33.786719999999995 17.820672 36.22819199999999 13.85328 33.939312 12.937728Z" clip-rule="evenodd" stroke-width="1"></path><path fill="#000000" fill-rule="evenodd" d="M21.579311999999998 12.17424C20.358576 11.869055999999999 19.443024 13.547568 20.358576 15.22608C20.66376 15.836448 21.57936 16.446816000000002 21.731904 15.989088C21.731904 15.836448 21.731904 15.683856 21.579311999999998 15.683856C20.816352000000002 15.378671999999998 20.511167999999998 12.784559999999999 21.579311999999998 12.784559999999999C21.731904 12.631968 21.884496 12.17424 21.579311999999998 12.17424Z" clip-rule="evenodd" stroke-width="1"></path><path fill="#000000" fill-rule="evenodd" d="M23.410463999999997 10.495823999999999C24.631248 11.106191999999998 25.699392 10.495871999999999 26.004576 9.580271999999999C26.157168000000002 9.275088 25.699392 9.122495999999998 25.546799999999998 9.427679999999999C25.089024 9.885408 23.868239999999997 10.190591999999999 23.410463999999997 10.190591999999999C23.257872 10.038048 23.10528 10.343232 23.410463999999997 10.495823999999999Z" clip-rule="evenodd" stroke-width="1"></path><path fill="#000000" fill-rule="evenodd" d="M31.039968000000002 10.953504C31.345152000000002 10.953504 31.345152000000002 10.495728 31.039968000000002 10.495728C30.58224 10.495728 29.056272 9.427632 28.751088 9.580176C28.445904000000002 10.038 29.819231999999996 11.41128 31.039968000000002 10.953504Z" clip-rule="evenodd" stroke-width="1"></path><path fill="#000000" fill-rule="evenodd" d="M24.173424 14.921231999999998S24.02088 15.073872 24.02088 15.226415999999999C24.02088 15.379056 24.173424 15.378959999999998 24.173424 15.531551999999998C24.173424 15.836736 24.631248 15.836736 24.631248 15.531551999999998C24.936431999999996 15.226367999999999 24.936431999999996 15.073776 24.631248 14.768592C24.478608 14.615952 24.02088 14.616048 24.173424 14.921231999999998Z" clip-rule="evenodd" stroke-width="1"></path><path fill="#000000" fill-rule="evenodd" d="M29.056272 16.142208C29.361455999999997 15.837024 29.361455999999997 15.989567999999998 29.361455999999997 15.379248C29.514048 15.074064 29.056272 14.921472 28.903679999999998 15.226656C28.445904000000002 15.531888 28.445904000000002 15.531888 28.445904000000002 15.989616C28.598448 16.142256 28.903679999999998 16.294752 29.056272 16.142208Z" clip-rule="evenodd" stroke-width="1"></path><path fill="#000000" fill-rule="evenodd" d="M24.631152 15.379104C25.851888 14.310911999999998 27.835584 14.768735999999999 29.05632 15.684288C29.208911999999998 15.836879999999999 29.514096 15.531647999999999 29.361504 15.379104C27.835584 13.700543999999999 25.699248 13.242767999999998 24.325968 15.073872C24.020784 15.226464 24.325968 15.531647999999999 24.631152 15.379104Z" clip-rule="evenodd" stroke-width="1"></path><path fill="#000000" fill-rule="evenodd" d="M23.105231999999997 9.275616C23.563007999999996 8.81784 24.020832 8.207472 24.6312 8.207472C25.546751999999998 8.054879999999999 25.851936 8.512656 26.004527999999997 8.207472C26.15712 7.749695999999999 25.088928 7.444512 24.6312 7.444512C23.410416 7.291919999999999 22.95264 8.512656 22.647456 9.123071999999999C22.494864 9.275664 22.95264 9.5808 23.105231999999997 9.275616Z" clip-rule="evenodd" stroke-width="1"></path><path fill="#000000" fill-rule="evenodd" d="M29.056511999999998 8.664768C29.66688 8.512175999999998 30.277247999999997 8.512224 30.887615999999998 8.817407999999999C31.955759999999998 9.427776 31.803168000000003 10.038192 32.260896 9.885551999999999C32.71872 9.580368 31.1928 6.833616 29.361696 7.901807999999999C28.446096 8.512175999999998 28.903872 8.817359999999999 29.056511999999998 8.664768Z" clip-rule="evenodd" stroke-width="1"></path><path fill="#000000" fill-rule="evenodd" d="M26.462352 12.784896C23.105328 13.090128 23.25792 14.616048 22.342367999999997 16.599792C22.189776000000002 17.057519999999997 21.732 16.59984 21.732 16.752384C21.732 16.905024 22.49496 17.973167999999998 22.647552 18.278352C23.715695999999998 19.651632 24.936431999999996 21.330192 26.920175999999998 21.330192C30.887568 21.177599999999998 33.17644799999999 16.141968 32.260896 16.29456C31.650527999999994 16.447152 31.04016 16.752336 30.429792 15.836783999999998C30.124608 15.379007999999999 30.124608 14.76864 29.972015999999996 14.310863999999999C29.666832 14.310863999999999 28.446096 12.632352 26.462352 12.784896ZM27.225312 13.395311999999999C24.93648 13.242767999999998 24.02088 14.15832 23.410512 16.142015999999998C23.410512 16.294608 23.25792 16.599792 23.25792 16.904975999999998C23.410559999999997 17.362752 24.326112 17.667935999999997 24.78384 17.667935999999997C25.394208 17.667935999999997 25.699392 16.752336 25.699392 16.599792C25.546848 16.294608 24.631296 15.989424000000001 25.394208 15.684239999999999C25.852032 15.531647999999999 26.920175999999998 15.531647999999999 27.377904 15.989472C27.530544 16.294656 27.22536 16.447152 27.072719999999997 16.599792C26.767536 17.820528 28.293456 18.278256 29.209007999999997 17.057519999999997C30.429792 15.531600000000001 28.903823999999997 13.700496 27.225312 13.395311999999999Z" clip-rule="evenodd" stroke-width="1"></path><path fill="#000000" fill-rule="evenodd" d="M25.851888 12.327216C26.309616 12.632447999999998 26.462256 12.632447999999998 26.6148 12.632447999999998C26.76744 12.632447999999998 26.76744 12.479808 26.6148 12.327216C26.157071999999996 10.801296 24.936288 11.869488 25.394064 12.174672L25.546704 12.327216H25.851888Z" clip-rule="evenodd" stroke-width="1"></path><path fill="#000000" d="M28.446047999999998 12.174672C28.446047999999998 12.327264 28.239503999999997 12.387024 28.239503999999997 12.387024C27.836688 12.531312 27.807119999999998 12.496896 27.377904 12.47976C27.225312 12.632399999999999 26.920128 12.174624 27.225312 12.022032L27.530496 11.716847999999999C27.83568 11.564207999999999 28.293456 11.564207999999999 28.293456 11.716847999999999C28.293456 11.716847999999999 28.446047999999998 11.716896 28.446047999999998 11.86944V12.174672Z" stroke-width="1"></path><path fill="#000000" fill-rule="evenodd" d="M25.241519999999998 10.953983999999998C24.478512 11.259216 24.32592 11.869632 24.631103999999997 12.174816C24.783696 12.48 25.241519999999998 12.937824 25.546704 12.632592V12.327407999999998C25.394064 12.174768 25.546704 11.869584 25.546704 11.716992C25.546704 11.564400000000001 25.546656 11.411807999999999 25.699248 11.259216C25.699248 11.106624 25.546704 10.80144 25.241519999999998 10.953983999999998Z" clip-rule="evenodd" stroke-width="1"></path><path fill="#000000" fill-rule="evenodd" d="M28.598544 11.564448V12.022224C28.598544 12.174816 28.598495999999997 12.480048 28.445952 12.63264C28.293312 12.63264 28.293359999999996 12.785231999999999 28.293359999999996 12.937872C28.598544 13.395599999999998 29.514096 12.48 29.208911999999998 11.717039999999999C28.903727999999997 10.801487999999999 28.293359999999996 11.259264 28.598544 11.564448Z" clip-rule="evenodd" stroke-width="1"></path><path fill="#000000" fill-rule="evenodd" d="M28.140815999999997 37.199999999999996C27.835632 37.657824 27.835632 38.115551999999994 28.140815999999997 38.420736C28.446 38.87856 28.903776 38.87856 29.056368 39.031152C28.751184 41.625264 32.871168 40.40448 33.939312 41.01484799999999C34.244496 41.16744 34.397088 41.625216 34.549679999999995 41.472624C34.854864 41.320032 34.397088 40.862255999999995 34.091904 40.557072C32.718576 39.64152 29.514143999999998 40.709759999999996 29.666736 38.878608C29.819328 38.26824 28.446 38.26824 28.598591999999996 37.810416C29.056368 37.047456 29.208911999999998 36.894912 28.446 36.589728C26.614848 35.368992 31.497840000000004 35.521488 33.786719999999995 36.131856C34.091904 36.284496 34.244496 35.826672 33.939312 35.674127999999996C27.988176 33.53784 26.309663999999998 35.979312 28.140815999999997 37.200048Z" clip-rule="evenodd" stroke-width="1"></path><path fill="#000000" fill-rule="evenodd" d="M31.192656 40.709184C31.497840000000004 45.89736 37.143792000000005 44.676672 36.22819199999999 39.641087999999996C36.22819199999999 39.488496 36.380784 39.183264 36.380784 39.030719999999995C36.533376 38.267712 36.22824 37.96248 35.923055999999995 37.657295999999995V36.894336C35.770416 36.131376 35.312639999999995 35.67359999999999 34.549631999999995 35.368416C34.244448 35.215776 34.091904 35.673696 34.397088 35.82624C36.0756 36.589248 35.160048 37.35216 35.312639999999995 37.80998399999999C35.465232 38.115168 35.617824 38.267712 35.617824 38.572896C35.617824 38.725536 35.312639999999995 39.183264 35.312639999999995 39.335904C35.160048 39.793679999999995 35.465232 40.403999999999996 35.312639999999995 41.319552C34.702272 43.913616 31.955568 43.761072 31.497840000000004 40.556592C31.650384 40.403999999999996 31.192656 40.403952 31.192656 40.709184Z" clip-rule="evenodd" stroke-width="1"></path><path fill="#000000" fill-rule="evenodd" d="M32.108304000000004 35.673455999999995C32.413487999999994 35.368272 36.991248 29.722368 37.296432 30.637919999999998C37.449024 31.858703999999996 34.244544 34.30017599999999 34.702368 35.826096C34.854912 36.13128 35.160096 35.97864 35.160096 35.673455999999995C34.854912 34.605312 38.059439999999995 32.316432 38.211984 30.943151999999998C38.211984 30.332784 37.9068 29.569776 37.14384 29.722416C35.61792 30.027599999999996 32.718672 34.30008 31.955663999999995 35.368272C31.497936 35.673455999999995 31.80312 35.826048 32.108304000000004 35.673455999999995Z" clip-rule="evenodd" stroke-width="1"></path><path fill="#000000" fill-rule="evenodd" d="M33.634128 37.199568C32.87112 36.894383999999995 32.413392 36.589248 31.192608 36.741792C30.887423999999996 36.741792 30.887423999999996 37.199568 31.192608 37.199568C32.413392 37.504751999999996 31.803023999999997 37.657343999999995 33.634128 37.657343999999995C33.786719999999995 37.657343999999995 33.939312 37.199568 33.634128 37.199568Z" clip-rule="evenodd" stroke-width="1"></path><path fill="#000000" fill-rule="evenodd" d="M33.786816 38.87856C33.023856 38.573375999999996 32.718672 38.268144 31.497936 38.573328C31.192752 38.573328 31.192752 39.031104 31.497936 39.031104C32.566032 39.336287999999996 32.108304000000004 39.336287999999996 33.634223999999996 39.336287999999996C33.939408 39.336287999999996 34.092 38.87856 33.786816 38.87856Z" clip-rule="evenodd" stroke-width="1"></path><path fill="#000000" fill-rule="evenodd" d="M30.887423999999996 35.063807999999995C29.514096 34.148256 29.666687999999997 33.232656 28.598495999999997 32.927472C27.072623999999998 32.469648 26.157071999999996 34.45344 27.682992 35.826719999999995C27.835584 35.97935999999999 28.293359999999996 35.674127999999996 27.988176 35.521536000000005C27.225167999999996 34.605984 27.682992 33.537792 28.445952 33.842976C28.903727999999997 33.99552 29.05632 34.300799999999995 29.361504 34.758576C29.666687999999997 35.063759999999995 30.277055999999998 35.521488 30.734832 35.67408C31.040016 35.67408 31.192608 35.216352 30.887423999999996 35.063759999999995Z" clip-rule="evenodd" stroke-width="1"></path><path fill="#000000" fill-rule="evenodd" d="M21.579407999999997 17.362704C21.426768 21.482736 21.731952 22.093103999999997 18.985343999999998 25.602768C18.832704 25.755359999999996 18.832704 26.060496 18.985343999999998 26.213088C22.800144 29.875296 25.394208 29.112384 28.903823999999997 27.739008C29.056464 27.739008 29.056464 27.586512 29.056464 27.433871999999997C28.751279999999998 26.51832 25.089024 30.638303999999998 19.900896 25.755312C22.49496 22.093103999999997 22.037135999999997 21.177504 22.037135999999997 17.362704C22.037135999999997 17.057519999999997 21.579407999999997 17.057519999999997 21.579407999999997 17.362704Z" clip-rule="evenodd" stroke-width="1"></path><path fill="#000000" fill-rule="evenodd" d="M31.802928 18.278495999999997C31.345152000000002 19.651776 31.497792 19.95696 31.650335999999996 21.330336C31.650335999999996 21.63552 32.10816 21.63552 32.10816 21.330336C32.413343999999995 19.346591999999998 32.413343999999995 19.804416 32.260704 18.278495999999997C32.260704 17.973263999999997 31.802928 17.973263999999997 31.802928 18.278495999999997Z" clip-rule="evenodd" stroke-width="1"></path><path fill="#000000" fill-rule="evenodd" d="M32.565935999999994 19.499039999999997C32.718576 20.567135999999998 31.650384 20.719728 29.971872 23.924159999999997C28.751136 26.365632 27.988176 30.485664 28.140768 33.079727999999996C28.140768 33.384912 28.598544 33.384912 28.598544 33.079727999999996C28.598544 30.943440000000002 29.666736 25.602719999999998 32.108208 21.78792C32.718576 21.02496 33.32889599999999 20.414544 33.023712 19.346352C32.87112 19.19376 32.565935999999994 19.193856 32.565935999999994 19.499039999999997Z" clip-rule="evenodd" stroke-width="1"></path><path fill="#000000" fill-rule="evenodd" d="M32.108208 17.973263999999997C33.786672 18.43104 34.854816 19.956912 34.854816 21.635472C34.854816 21.940655999999997 35.16 21.940655999999997 35.923008 22.398432C36.68592 22.85616 36.83856 23.161392 36.991104 23.008847999999997C37.296288 22.703616 35.922959999999996 21.635472 35.617776 21.482879999999998C35.922959999999996 17.820672 32.108208 17.210256 32.108208 17.66808C31.802976 17.820672 31.955568 17.973263999999997 32.108208 17.973263999999997Z" clip-rule="evenodd" stroke-width="1"></path><path fill="#000000" fill-rule="evenodd" d="M33.96384 26.195088C34.924223999999995 24.829439999999998 35.404368 23.805263999999998 35.404368 21.58608C35.404368 21.244704 34.924176 21.244704 34.924176 21.58608C34.604064 22.951776 33.163536 26.024447999999996 33.483647999999995 26.365872C33.803808 26.365872 33.96384 26.365776 33.96384 26.195088Z" clip-rule="evenodd" stroke-width="1"></path><path fill="#000000" fill-rule="evenodd" d="M35.923152 17.97312C36.380928 18.278304 36.838704 18.583536 37.296479999999995 19.041263999999998C39.585359999999994 21.787968 35.465328 25.144944 32.413536 26.976048C32.108352 27.12864 32.413487999999994 27.586512 32.56608 27.433871999999997C34.549776 26.365776 36.53352 25.450127999999996 37.9068 23.466431999999998C38.974992 21.940512000000002 39.127584 20.109455999999998 37.754256 18.736079999999998C37.296479999999995 18.278304 36.686063999999995 17.97312 36.228336 17.667935999999997C35.770512 17.515296 35.617968 17.820528 35.923152 17.97312Z" clip-rule="evenodd" stroke-width="1"></path><path fill="#000000" fill-rule="evenodd" d="M34.092 16.294416C38.669807999999996 17.209968 40.043136 18.888479999999998 40.653504 21.940368C41.111231999999994 24.687024 40.958688 26.975904 38.517216000000005 28.349231999999997C37.9068 28.654415999999998 37.296432 28.807056 36.53352 29.11224C36.228336 29.264784 36.38088 29.569968 36.686063999999995 29.569968C37.449072 29.417376 38.059439999999995 29.264832 38.822399999999995 28.959647999999998C41.569055999999996 27.586319999999997 42.026832 24.99216 41.569055999999996 21.940368C40.958688 17.667744 38.36457599999999 16.599648 34.397183999999996 15.989279999999999C33.786816 15.684095999999998 33.786816 16.141776 34.092 16.294416Z" clip-rule="evenodd" stroke-width="1"></path><path fill="#000000" fill-rule="evenodd" d="M20.663808 15.226272C17.459376 16.599648 16.23864 19.193664000000002 13.949712 21.482543999999997C12.2712 23.161103999999998 7.235615999999999 24.076704 9.371951999999999 28.196687999999998C10.134864 29.722655999999997 11.813424 31.095935999999995 13.034159999999998 31.706304C13.339343999999999 31.858943999999997 13.491935999999999 31.553759999999997 14.254896 30.943392C15.933408 32.621855999999994 17.306736 34.758144 17.917151999999998 36.894431999999995C18.069744 37.199616 18.374928 37.04702399999999 18.374928 36.74184C17.76456 34.147776 16.23864 31.858895999999998 14.56008 30.180383999999997C14.254896 29.8752 13.644528000000001 30.485519999999998 13.186752 30.790703999999998C12.118608 30.180336 10.745232 28.959552 10.134864 27.738816C8.303759999999999 24.381839999999997 12.576384 23.924016 14.56008 21.940368C16.696368 19.65144 17.917151999999998 16.904784 20.968992 15.531408C20.968992 15.531408 20.816399999999998 15.073728 20.663808 15.226272Z" clip-rule="evenodd" stroke-width="1"></path><path fill="#000000" fill-rule="evenodd" d="M19.595568 25.450224C16.085856 29.265024 15.933312 29.265024 16.085904 29.570207999999997C17.154096 31.096175999999996 18.222192 33.385056 18.527376 36.2844C19.137743999999998 41.777712 17.30664 43.608768 17.917008 43.761359999999996C18.069647999999997 43.761359999999996 18.222192 43.761408 18.222192 43.608816C20.053296 38.878416 19.900751999999997 33.23251199999999 17.001455999999997 29.417712C18.0696 28.196928 18.9852 26.976143999999998 20.053296 25.755408C20.205936 25.450224 19.748112 25.145039999999998 19.595568 25.450224Z" clip-rule="evenodd" stroke-width="1"></path><path fill="#000000" fill-rule="evenodd" d="M8.913984 30.790656C7.540655999999999 33.537312 7.388064 35.97888 8.76144 38.878175999999996C8.913984 39.18336 9.219168 39.030719999999995 9.219168 38.725536C8.303616 36.5892 8.456208 33.232224 9.371808 30.943344C9.524352 30.63816 9.066576 30.485472 8.913984 30.790656Z" clip-rule="evenodd" stroke-width="1"></path><path fill="#000000" fill-rule="evenodd" d="M8.608896 39.030719999999995C8.608896 39.335904 8.456304 40.251456000000005 8.303711999999999 40.556639999999994C8.15112 41.777423999999996 8.303711999999999 42.845616 8.303711999999999 43.913712000000004C8.303711999999999 44.218944 8.761536 44.218944 8.761536 43.913712000000004C8.761536 40.098912 9.371903999999999 39.641087999999996 9.219264 38.725536C9.219264 38.420352 6.6251999999999995 36.28411199999999 6.472656 33.232224C6.472656 32.92704 6.014832 32.92704 6.014832 33.232224C6.167472 35.826288 7.235568 37.810032 8.608896 39.030719999999995Z" clip-rule="evenodd" stroke-width="1"></path><path fill="#000000" fill-rule="evenodd" d="M8.914176 26.212752000000002C4.031232 29.722416 2.963088 34.147583999999995 0.521568 37.96243199999999C0.368976 38.267616 0.674208 38.420255999999995 0.8268 38.267616C3.726048 33.994992 5.862336 29.112095999999998 9.066816 26.670624C9.524544 26.365439999999996 9.21936 25.907567999999998 8.914176 26.212799999999998Z" clip-rule="evenodd" stroke-width="1"></path><path fill="#000000" fill-rule="evenodd" d="M39.8904 27.73872C43.247423999999995 30.638016 45.99408 33.842496 47.062272 43.3032C47.062272 43.60843199999999 47.519999999999996 43.60843199999999 47.519999999999996 43.3032C47.062272 38.267663999999996 46.604448 33.53736 43.094832 29.722559999999998C42.17928 28.806959999999997 41.263728 28.196592 40.348176 27.433632C40.042992 27.128448 39.73776 27.433535999999997 39.8904 27.73872Z" clip-rule="evenodd" stroke-width="1"></path><path fill="#000000" fill-rule="evenodd" d="M36.22819199999999 39.030672C40.65336 43.913616 39.89044799999999 42.998016 40.500816 43.761024C40.65336 44.066207999999996 41.111184 43.76112 40.806 43.455935999999994C39.432624000000004 41.167008 38.211887999999995 40.09881599999999 36.380736 38.725488C36.380736 38.572848 36.0756 38.87808 36.22819199999999 39.030672Z" clip-rule="evenodd" stroke-width="1"></path><path fill="#000000" fill-rule="evenodd" d="M40.348271999999994 35.978975999999996C38.974944 37.962672 38.822352 38.878271999999996 38.517168 41.167151999999994C38.517168 41.472336 38.822352 41.624880000000005 38.974944 41.319696C38.974944 41.167103999999995 40.806048000000004 36.436752 40.806048000000004 36.28416C40.958639999999995 35.978975999999996 40.500864 35.673792 40.348271999999994 35.978975999999996Z" clip-rule="evenodd" stroke-width="1"></path><path fill="#000000" fill-rule="evenodd" d="M29.971872 40.404432C29.514048 42.998496 31.955568 45.134736 34.39704 44.066592C34.702224 43.913999999999994 34.549631999999995 43.456272 34.244448 43.608816C32.260752000000004 44.219184 30.4296 42.235536 30.4296 40.404432C30.4296 40.099247999999996 29.971872 40.099247999999996 29.971872 40.404432Z" clip-rule="evenodd" stroke-width="1"></path><path fill="#000000" fill-rule="evenodd" d="M29.209007999999997 39.94608C28.446047999999998 41.472 28.293456 42.692783999999996 29.361648 44.37134399999999C29.514192 44.676528 29.972015999999996 44.523936 29.819376 44.218751999999995C29.361648 42.998016 29.514192 41.014272 29.819376 40.251264C29.666832 39.793487999999996 29.361648 39.640896 29.209007999999997 39.946031999999995Z" clip-rule="evenodd" stroke-width="1"></path><path fill="#000000" fill-rule="evenodd" d="M21.121584000000002 17.210064C19.900847999999996 17.667792 19.137888 17.972976 18.069744 19.498896C17.917151999999998 19.651488 18.222336 19.956671999999998 18.374976 19.804128C18.985343999999998 19.346304 19.137888 19.346304 21.274224 17.667792C21.579407999999997 17.5152 21.426768 17.057423999999997 21.121584000000002 17.210064Z" clip-rule="evenodd" stroke-width="1"></path><path fill="#000000" fill-rule="evenodd" d="M9.677088 37.962911999999996C14.102255999999999 39.183648 15.475584 39.031056 19.443024 39.183648C19.748207999999998 39.183648 19.748207999999998 38.725871999999995 19.443024 38.725871999999995C18.527472 38.725871999999995 10.440047999999999 37.657776 9.677088 37.505136C9.371903999999999 37.505136 9.371903999999999 37.962911999999996 9.677088 37.962911999999996Z" clip-rule="evenodd" stroke-width="1"></path><path fill="#000000" fill-rule="evenodd" d="M26.920175999999998 43.608768C27.072719999999997 40.862112 27.377904 38.115456 27.683087999999998 36.589584C27.835728 36.2844 27.377904 36.131712 27.225312 36.436896C26.157216 39.336144 26.309759999999997 41.014752 26.462352 43.456272C26.462352 43.913999999999994 26.920175999999998 43.913951999999995 26.920175999999998 43.608768Z" clip-rule="evenodd" stroke-width="1"></path><path fill="#000000" fill-rule="evenodd" d="M29.361455999999997 40.099152C28.293263999999997 39.488783999999995 28.598448 39.641279999999995 27.22512 39.488735999999996C26.919935999999996 39.336096 26.767391999999997 39.79392 27.072576 39.946464C28.140672 40.55683199999999 28.293263999999997 40.55688 29.208816 40.55688C29.513999999999996 40.55688 29.66664 40.099152 29.361455999999997 40.099152Z" clip-rule="evenodd" stroke-width="1"></path></svg>