<svg xmlns="http://www.w3.org/2000/svg" fill="none" viewBox="0 0 48 48" height="48" width="48" id="Drake-Hotline-Bling-No--Streamline-Memes.svg"><desc>Drake Hotline Bling No Streamline Element: https://streamlinehq.com</desc><path stroke="#000000" stroke-linecap="round" stroke-linejoin="round" d="M5.39 15.38c-2.472 -3.482 -2.94 -9.035 0.453 -11.799C9.7 0.854 15.761 -1.02 18.573 6.851" stroke-width="1"></path><path fill="#000000" fill-rule="evenodd" d="M10.637 21.222a4.225 4.225 0 0 1 -0.685 -0.345c0.764 -0.546 2.126 -1.308 3.374 -1.52 1.145 -0.195 1.576 -0.078 2.434 0.428 -0.549 -0.324 0.166 -2.237 0.82 -3.988 0.5 -1.335 0.964 -2.577 0.805 -2.947 1.577 0.966 2.045 2.045 2.687 4.217l-3.25 3.968 -0.194 2.5c-2.261 0.667 -3.348 -0.085 -4.238 -0.926 0.69 -0.138 2.618 -0.552 2.808 -1.075 0.2 -0.55 0.188 -1 -0.843 -1.343 -1.031 -0.343 -3.155 1.125 -3.155 1.125l0.597 0.717c-0.357 -0.341 -0.72 -0.644 -1.16 -0.81Z" clip-rule="evenodd" stroke-width="1"></path><path stroke="#000000" stroke-linecap="round" d="M7.982 16.224c0 0.187 -0.34 3.308 0.593 3.717 0.778 0.34 1.85 -0.384 2.281 -1.718" stroke-width="1"></path><path stroke="#000000" stroke-linecap="round" d="M10.419 15.037c0.87 -0.028 1.312 -0.257 2.03 -0.969" stroke-width="1"></path><path stroke="#000000" stroke-linecap="round" d="M4.483 15.264s2.409 0.49 2.343 -0.544" stroke-width="1"></path><path stroke="#000000" stroke-linecap="round" stroke-linejoin="round" d="M17.198 23.346c-4.249 1.562 -4.749 -1.437 -6.56 -2.124 -0.514 -0.195 -1.277 -0.75 -1.857 -1.222" stroke-width="1"></path><path stroke="#000000" stroke-linecap="round" stroke-linejoin="round" d="M6.451 16.974c0.5 1 0.956 1.707 1.612 2.338" stroke-width="1"></path><path stroke="#000000" stroke-linecap="round" stroke-linejoin="round" d="M11.614 12.412c-1.316 0.407 -2.29 2.062 -2.701 2.062l-0.623 0" stroke-width="1"></path><path stroke="#000000" stroke-linecap="round" stroke-linejoin="round" d="M16.219 9.25c0.854 -0.854 2.928 -1.553 3.665 0.976 0.875 2.999 -0.187 4.186 -1.062 3.936" stroke-width="1"></path><path fill="#000000" fill-rule="evenodd" d="M9.702 7.977c0.245 -1.306 0.383 -3.03 0.24 -4.49a0.5 0.5 0 0 0 -0.996 0.097c0.184 1.874 -0.137 4.235 -0.501 5.328a0.523 0.523 0 0 0 -0.004 0.012c-1.484 1.04 -3.434 1.707 -4.833 1.74C2.55 7.63 4.89 1.51 12.48 1.321c4.26 -0.105 6.81 4.874 7.03 7.342 -1.5 -1.187 -2.667 0.281 -3.218 1.03 -0.631 0.391 -5.623 -1.154 -6.59 -1.717Z" clip-rule="evenodd" stroke-width="1"></path><path stroke="#000000" stroke-linecap="round" stroke-linejoin="round" d="M11.887 22.066c0.552 -0.302 1.806 -0.919 2.156 -0.969" stroke-width="1"></path><path stroke="#000000" stroke-linecap="round" stroke-linejoin="round" d="M21.078 22.953c-0.604 -2.374 -1.363 -6.642 -1.662 -7.541 -0.375 -1.125 0.093 -2.25 1.03 -1.25 0.75 0.8 1.5 2.812 1.687 3.395" stroke-width="1"></path><path stroke="#000000" stroke-linecap="round" stroke-linejoin="round" d="M21.009 14.912c-0.458 -1.77 -1.2 -5.298 -0.5 -5.248 0.875 0.062 1.75 3.31 2.312 5.248" stroke-width="1"></path><path stroke="#000000" stroke-linecap="round" stroke-linejoin="round" d="M21.759 11.413c-0.459 -1.25 -0.488 -3.911 0.312 -3.811 1 0.125 2.062 5.498 2.124 6.872" stroke-width="1"></path><path stroke="#000000" stroke-linecap="round" stroke-linejoin="round" d="M23.82 12.006c0 -1.312 -0.624 -3.405 0.375 -3.342 1 0.062 2.03 8.403 2.905 9.653" stroke-width="1"></path><path stroke="#000000" stroke-linecap="round" stroke-linejoin="round" d="M26.683 17.406c0.01 -1.666 0.866 -4.337 1.616 -4.181 1.545 0.322 1 7.154 -0.75 9.622a89.952 89.952 0 0 1 -3.299 4.372" stroke-width="1"></path><path stroke="#000000" stroke-linecap="round" stroke-linejoin="round" d="M7.576 21.097c-3.561 1.187 -6.31 11.834 -6.56 13.433 -0.313 2 4.123 9.372 9.371 8.997 5.249 -0.375 16.495 -15.307 15.12 -15.432 -1.1 -0.1 -3.415 -3.457 -4.436 -5.123L7.576 31.655" stroke-width="1"></path><path stroke="#000000" stroke-linecap="round" stroke-linejoin="round" d="M30.756 14.912c2.998 -0.625 5.185 -2.374 4.873 -5.686 -0.737 -7.81 -12.095 -6.706 -16.76 -5.373 6.263 -0.375 15.485 0.375 7.638 5.873" stroke-width="1"></path><path stroke="#000000" stroke-linecap="round" stroke-linejoin="round" d="M22.766 32.86c-0.1 0.75 0.055 9.397 -0.008 13.541m-8.184 0.312v-5.276" stroke-width="1"></path><path stroke="#000000" stroke-linecap="round" stroke-linejoin="round" d="M23.531 31.813c0.604 4.456 2.251 13.863 3.35 14.713" stroke-width="1"></path><path stroke="#000000" stroke-linecap="round" stroke-linejoin="round" d="M33.875 13.578c0.562 0.125 11 6.832 13.125 10.33" stroke-width="1"></path><path stroke="#000000" stroke-linecap="round" stroke-linejoin="round" d="M35.691 31.281c2.395 4.186 7.898 13.146 10.747 15.495" stroke-width="1"></path></svg>