<svg xmlns="http://www.w3.org/2000/svg" fill="none" viewBox="0 0 48 48" height="48" width="48" id="Flork-In-Love-Hand-Drawn--Streamline-Memes.svg"><desc>Flork In Love Hand Drawn Streamline Element: https://streamlinehq.com</desc><path fill="#000000" fill-rule="evenodd" d="M2.4406608 47.607887999999996c-0.26835359999999997 -3.5089439999999996 -0.1932192 -7.057632 0.1288032 -10.584864 0.171744 -1.7571359999999998 0.397176 -3.507888 0.6869952 -5.245728 0.2898192 -1.744272 0.6440351999999999 -3.4756799999999997 1.0626624 -5.182416 0.6869904 -2.8724160000000003 1.5672144 -5.739456 2.7050064000000003 -8.488464 1.137792 -2.746848 2.533248 -5.37672 4.315104 -7.762896 0.075168 -0.104112 0.064368 -0.25329599999999997 -0.04296 -0.33383999999999997 -0.10732799999999999 -0.07939199999999999 -0.25756799999999996 -0.059039999999999995 -0.332688 0.04512 -1.8677279999999998 2.3797439999999996 -3.3705119999999997 5.010624 -4.5834719999999995 7.776815999999999 -1.21296 2.761872 -2.1361488 5.657904 -2.887536 8.557152 -0.42935999999999996 1.728192 -0.8050752 3.478944 -1.0948943999999998 5.2468319999999995 -0.2790864 1.7614560000000001 -0.4937184 3.53904 -0.6225263999999999 5.3219520000000005 -0.2468832 3.570144 -0.182424 7.158576 0.1932672 10.693296 0.0107376 0.13094399999999998 0.1287984 0.226512 0.2576112 0.21470399999999998 0.1395408 -0.011807999999999999 0.2360928 -0.127776 0.2146272 -0.257664Z" clip-rule="evenodd" stroke-width="1"></path><path fill="#000000" fill-rule="evenodd" d="M22.7388 2.0826048C25.272048 1.3441007999999999 27.966288 0.79344 30.649824 0.6989808c2.6620319999999995 -0.093384 5.302608 0.2629776 7.77144 1.3589232 0.686976 0.304848 1.352496 0.68268 1.9965600000000001 1.104528 0.6440159999999999 0.42399839999999994 1.2558239999999998 0.8941776 1.82472 1.39224 0.407904 0.35208 0.783648 0.726672 1.137888 1.125984 0.343488 0.397152 0.654768 0.819024 0.93384 1.272 1.191504 1.9127999999999998 0.70848 3.7043039999999996 -0.7728 5.221056 -1.21296 1.241904 -3.0699840000000003 2.3035200000000002 -5.248991999999999 3.119328 -5.538767999999999 2.0641439999999998 -13.224336 2.543952 -18.344496 0.105168 -0.11807999999999999 -0.05687999999999999 -0.257664 -0.008591999999999999 -0.32208000000000003 0.10948799999999999 -0.053663999999999996 0.11807999999999999 0 0.26088 0.11807999999999999 0.31776 5.2060319999999995 2.5911839999999997 13.106304 2.2562879999999996 18.816864 0.212544 2.329296 -0.835152 4.293552 -1.9579199999999999 5.592384 -3.2675039999999997 1.781856 -1.809744 2.31864 -3.972672 0.901776 -6.272976 -0.30057599999999995 -0.49483199999999994 -0.6441600000000001 -0.9563999999999999 -1.03056 -1.38792 -0.375696 -0.4293408 -0.7836 -0.8286672 -1.21296 -1.2054335999999999 -0.611856 -0.5206031999999999 -1.2558239999999998 -1.0132847999999999 -1.932048 -1.451232 -0.676272 -0.4411728 -1.395456 -0.8276207999999999 -2.1360959999999998 -1.141056C36.156432 0.21593231999999998 33.386976000000004 -0.1189656 30.617568 0.035604767999999995 27.891119999999997 0.18802848 25.153968 0.8159808 22.599263999999998 1.6285488c-0.12878399999999998 0.0375696 -0.193248 0.17067359999999998 -0.16104000000000002 0.2962608 0.04296 0.12559199999999998 0.171792 0.19644 0.30057599999999995 0.1577952Z" clip-rule="evenodd" stroke-width="1"></path><path fill="#000000" fill-rule="evenodd" d="M25.679855999999997 9.576047999999998c0 -0.023615999999999998 -0.010752 -0.047231999999999996 -0.021504 -0.069744 -0.053663999999999996 -0.119184 -0.193248 -0.171744 -0.311328 -0.11807999999999999 -0.12878399999999998 0.030048000000000002 -0.25761599999999996 0.07084800000000001 -0.3864 0.12129599999999999 -0.096624 0.03864 -0.182496 0.095568 -0.268368 0.15350399999999997 -0.30052799999999996 0.21359999999999998 -0.354144 0.47337599999999996 -0.34344 0.682704 0 0.183552 0.096624 0.35097599999999995 0.24686399999999997 0.489456 0.128832 0.12878399999999998 0.32203200000000004 0.226464 0.525984 0.269424 0.160992 0.035424000000000004 0.332688 0.046128 0.48297599999999996 0.011807999999999999 0.23615999999999998 -0.053663999999999996 0.429456 -0.159936 0.52608 -0.341376 0.096624 -0.179232 0.171744 -0.42504 -0.010752 -0.7416959999999999 -0.04291199999999999 -0.07728 -0.085872 -0.151344 -0.15028799999999998 -0.21576 -0.085872 -0.083712 -0.171744 -0.162096 -0.268368 -0.225408 0 -0.005376 -0.010752 -0.011807999999999999 -0.021455999999999996 -0.016128Z" clip-rule="evenodd" stroke-width="1"></path><path fill="#000000" d="M38.49648 7.8521279999999996c-0.053663999999999996 -0.10732799999999999 -0.17164799999999997 -0.159936 -0.289728 -0.11807999999999999 -0.12878399999999998 0.021455999999999996 -0.257712 0.05687999999999999 -0.375792 0.101952 -0.096624 0.033312 -0.182496 0.08481599999999999 -0.268368 0.13958399999999999 -0.33273600000000003 0.221088 -0.3864 0.49804800000000005 -0.375648 0.7212959999999999 0 0.187872 0.10732799999999999 0.361776 0.25761599999999996 0.507744 0.139536 0.134208 0.343488 0.23721599999999998 0.558192 0.285552 0.171744 0.039695999999999995 0.354192 0.053663999999999996 0.515184 0.021455999999999996 0.24691199999999996 -0.050448 0.46161599999999997 -0.16104000000000002 0.558192 -0.35102399999999995 0.214032 -0.372384 0.044303999999999996 -0.772704 -0.214608 -1.07232 -0.053663999999999996 -0.064416 -0.107376 -0.126672 -0.182544 -0.17495999999999998 -0.053663999999999996 -0.046175999999999995 -0.118128 -0.066576 -0.182496 -0.0612Z" stroke-width="1"></path><path fill="#000000" fill-rule="evenodd" d="M39.795311999999996 15.056832c1.48128 3.0076799999999997 2.5868640000000003 6.143135999999999 3.456336 9.351551999999998 0.5796 2.134992 1.051872 4.302192 1.416816 6.49728 0.364944 2.181168 0.633312 4.387055999999999 0.815808 6.61008 0.25761599999999996 3.313632 0.343488 6.66048 0.24686399999999997 10.007376 -0.010752 0.13094399999999998 0.096672 0.24259199999999997 0.22550399999999998 0.24791999999999997 0.12878399999999998 0.005376 0.24686399999999997 -0.096576 0.24686399999999997 -0.227568 0.1932 -3.366192 0.23620799999999997 -6.738815999999999 0.04296 -10.080335999999999 -0.12878399999999998 -2.252016 -0.364992 -4.489008 -0.719232 -6.697007999999999 -0.364944 -2.2284 -0.8479679999999999 -4.42776 -1.48128 -6.58104 -0.944592 -3.2309279999999996 -2.221872 -6.352416 -3.82128 -9.345072 -0.064416 -0.116976 -0.204 -0.163152 -0.32208000000000003 -0.103056 -0.11807999999999999 0.059039999999999995 -0.160992 0.202896 -0.10728 0.319872Z" clip-rule="evenodd" stroke-width="1"></path><path fill="#000000" fill-rule="evenodd" d="M8.301359999999999 37.101456c2.0072639999999997 2.57616 5.495952 5.446464 8.039952 8.226576 0.676224 0.741744 1.277232 1.477008 1.771008 2.197296 0.064416 0.105168 0.193248 0.159936 0.32208000000000003 0.14169600000000002 0.12878399999999998 -0.01824 0.225408 -0.10632 0.26832 -0.226512 0.686976 -2.05128 1.3417919999999999 -3.9157919999999997 2.028768 -5.768496 0.686976 -1.852704 1.4061119999999998 -3.6936 2.22192 -5.696592 0.07511999999999999 -0.185664 0.000096 -0.397104 -0.17164799999999997 -0.49694400000000005 -0.923136 -0.536688 -2.554752 -1.759296 -3.7784159999999996 -3.0613439999999996 -0.8372639999999999 -0.885552 -1.502832 -1.7893919999999999 -1.502832 -2.5397279999999998 0 -1.616544 0.858672 -2.9700960000000003 2.0823840000000002 -3.7343519999999994 1.223664 -0.766416 2.8123679999999998 -0.94032 4.240031999999999 -0.17928 0.5044799999999999 0.270528 0.976704 0.60864 1.406064 0.9940319999999999 0.42935999999999996 0.39071999999999996 0.815904 0.8286239999999999 1.159392 1.2945119999999999 0.085872 0.106272 0.203856 0.17064 0.332688 0.17495999999999998 0.139536 0.004272 0.268416 -0.051551999999999994 0.343536 -0.152448 0.343488 -0.396096 0.697632 -0.775008 1.094784 -1.130304 0.3864 -0.353136 0.794352 -0.68376 1.223712 -0.984288 1.373952 -0.9703679999999999 2.801616 -1.022976 3.9179519999999997 -0.48518399999999995 1.21296 0.585024 2.050224 1.85376 2.050224 3.3425759999999998 0 0.932784 -0.622512 1.9343039999999998 -1.43832 2.874576 -1.21296 1.396512 -2.908944 2.6395199999999996 -4.0252799999999995 3.27816 -0.15028799999999998 0.085872 -0.225456 0.266256 -0.171792 0.43367999999999995 0.386448 1.229088 0.7836 2.3947679999999996 1.191504 3.53688 0.944592 2.684592 1.9320959999999998 5.235024 2.9411039999999997 8.16864 0.032208 0.110544 0.12878399999999998 0.19104000000000002 0.24686399999999997 0.207168 0.11807999999999999 0.01608 0.225456 -0.034367999999999996 0.30057599999999995 -0.130992 1.7496479999999999 -2.577216 4.712304 -5.595648 6.902064 -8.409023999999999 0.601104 -0.7685759999999999 1.137792 -1.521024 1.588608 -2.245584 0.075168 -0.111648 0.042864 -0.258672 -0.075216 -0.32736000000000004 -0.10732799999999999 -0.06979199999999999 -0.25751999999999997 -0.035424000000000004 -0.32193599999999994 0.07511999999999999 -0.450816 0.707376 -0.9876479999999999 1.440528 -1.588752 2.188704 -2.0823840000000002 2.6222879999999997 -4.851743999999999 5.416368 -6.665808 7.869119999999999 -0.901632 -2.707152 -1.8033119999999998 -5.108352 -2.6620319999999995 -7.627632 -0.364944 -1.049808 -0.719136 -2.121072 -1.062672 -3.242784 1.170048 -0.694512 2.790864 -1.9052639999999998 3.9930719999999997 -3.2567039999999996 0.9660479999999999 -1.0959359999999998 1.642368 -2.2928159999999997 1.653072 -3.386592 0.021455999999999996 -1.8237119999999998 -1.009056 -3.3779999999999997 -2.4903839999999997 -4.101456 -1.3632 -0.661248 -3.102096 -0.635472 -4.7765759999999995 0.5399039999999999 -0.461568 0.320928 -0.901632 0.6730079999999999 -1.309536 1.0497599999999998 -0.28982399999999997 0.25872 -0.558192 0.530304 -0.815808 0.8104319999999999 -0.30052799999999996 -0.35635199999999995 -0.611856 -0.695568 -0.955344 -1.005792 -0.48302399999999995 -0.43363199999999996 -1.0089599999999999 -0.813648 -1.577856 -1.118496 -1.728192 -0.9177599999999999 -3.63888 -0.714864 -5.109456 0.210432 -1.459824 0.9156 -2.4796319999999996 2.538576 -2.4796319999999996 4.47072 0 0.9091679999999999 0.7299359999999999 2.0534399999999997 1.7496479999999999 3.120384 1.1592959999999999 1.227984 2.694336 2.3775839999999997 3.68184 2.995872 -0.74064 1.8967199999999997 -1.4061599999999999 3.6549599999999995 -2.039472 5.422847999999999 -0.601104 1.6788 -1.180752 3.367296 -1.7604 5.192064 -0.440112 -0.564576 -0.9338879999999999 -1.135632 -1.4705759999999999 -1.7099039999999999 -2.5654559999999997 -2.738256 -6.0861600000000005 -5.550576 -8.125632 -8.092416 -0.085872 -0.103056 -0.23620799999999997 -0.12129599999999999 -0.332832 -0.039743999999999995 -0.10732799999999999 0.0816 -0.11807999999999999 0.230784 -0.04296 0.33383999999999997Z" clip-rule="evenodd" stroke-width="1"></path><path fill="#000000" fill-rule="evenodd" d="M14.534592 5.412576c-0.311856 -0.06235199999999999 -0.6311519999999999 -0.060143999999999996 -0.9430559999999999 0.003696 -0.33412800000000004 0.069072 -0.638544 0.226512 -0.8984159999999999 0.460416 -0.5123519999999999 0.48187199999999997 -0.6534719999999999 1.136784 -0.5124 1.7360159999999998 0.141072 0.5880960000000001 0.571728 1.113072 1.173168 1.38408 0.653424 0.271776 1.299456 0.157392 1.782096 -0.21609599999999998 0.445536 -0.347472 0.75 -0.906624 0.764832 -1.52664 0 -0.32150399999999996 -0.059376 -0.6051839999999999 -0.17817599999999997 -0.8583839999999999 -0.12624 -0.24576 -0.297024 -0.46703999999999996 -0.534624 -0.660816 -0.096528 -0.08913599999999999 -0.24508800000000003 -0.083904 -0.33417600000000003 0.012624 -0.08913599999999999 0.09576 -0.08169599999999999 0.24576 0.014832 0.335616 0.155952 0.162624 0.267312 0.338592 0.341568 0.5316479999999999 0.06681599999999999 0.1812 0.074304 0.37795199999999995 0.052031999999999995 0.5947680000000001 -0.051983999999999995 0.398016 -0.282192 0.73512 -0.586656 0.937824 -0.274752 0.18264 -0.6236639999999999 0.231696 -0.9652319999999999 0.065328 -0.3564 -0.15964799999999998 -0.601488 -0.472224 -0.698016 -0.816 -0.10396799999999999 -0.341568 -0.074256 -0.721776 0.193056 -1.0269599999999999 0.148512 -0.17596799999999999 0.33412800000000004 -0.303696 0.549456 -0.37944 0.230208 -0.08241599999999999 0.47519999999999996 -0.12028799999999999 0.72024 -0.106176 0.13368000000000002 0.01632 0.252432 -0.07574399999999999 0.267312 -0.20568 0.014832 -0.129936 -0.074208 -0.24873599999999998 -0.20784 -0.26582399999999995Z" clip-rule="evenodd" stroke-width="1"></path><path fill="#000000" fill-rule="evenodd" d="M10.521696 11.082192000000001c-0.00912 0.046368 -0.018192 0.09182399999999999 -0.018192 0.13819199999999998 -0.045456 0.2964 -0.063696 0.5954879999999999 -0.036432 0.8982239999999999 0.127296 1.384512 0.945504 2.3327039999999997 1.9454879999999999 2.6563679999999996 0.999984 0.322704 2.2000319999999998 0.039984 3.109152 -1.1064 0.390912 -0.49272 0.5817599999999999 -1.020912 0.645408 -1.5718079999999999 0.009072 -0.085488 0.018192 -0.170928 0.018192 -0.25819200000000003 0.100032 0.075456 0.199968 0.142704 0.309072 0.202704 0.781824 0.42455999999999994 1.681824 0.32999999999999996 2.40912 -0.097248 0.709104 -0.41726399999999997 1.2363359999999999 -1.1490719999999999 1.327248 -1.9691039999999997 0.090912 -0.7899839999999999 -0.236352 -1.5699839999999998 -0.781824 -2.184576 -0.19089599999999998 -0.22272 -0.418176 -0.4236 -0.6636 -0.59544 0.19089599999999998 -0.06633599999999999 0.363696 -0.15456 0.527328 -0.271824 1.236384 -0.8808959999999999 1.3999679999999999 -2.4136415999999996 0.8544959999999999 -3.6518256 -0.5454720000000001 -1.2218255999999998 -1.763664 -2.1390911999999997 -3.2182079999999997 -1.8209087999999998 -0.31819200000000003 0.06999839999999999 -0.618192 0.18364319999999998 -0.8999999999999999 0.3300048 -0.263664 0.142728 -0.52728 0.3154416 -0.772704 0.5072639999999999 -0.29092799999999996 0.2236368 -0.5545439999999999 0.47728799999999993 -0.800016 0.75456 -0.21820799999999999 0.24454559999999997 -0.418176 0.5072639999999999 -0.5818559999999999 0.7818096 -0.07271999999999999 -0.2500032 -0.14543999999999999 -0.49728 -0.236352 -0.7372799999999999 -0.099984 -0.2454576 -0.218112 -0.4827072 -0.363552 -0.706344 -0.572736 -0.8609136000000001 -1.445568 -1.1736384 -2.2546559999999998 -1.0454544000000001 -0.7908959999999999 0.12454559999999998 -1.545456 0.6827184000000001 -1.927248 1.5972672 -0.27273600000000003 0.6400032 -0.290832 1.2672767999999999 -0.145392 1.8691152 0.090912 0.386352 0.254544 0.76272 0.463632 1.124544 -0.618144 0.06633599999999999 -1.227312 0.31272 -1.7364 0.691776 -0.6999839999999999 0.520944 -1.19088 1.290048 -1.227216 2.1809279999999998 -0.045456 1.044576 0.454464 1.818192 1.1908320000000001 2.2491359999999996 0.709104 0.41726399999999997 1.65456 0.504528 2.5272959999999998 0.17817599999999997 0.118176 -0.042768 0.22727999999999998 -0.09 0.33638399999999996 -0.143664ZM13.98528 4.2849167999999995c-0.018192 0.09181919999999999 -0.090864 0.16909439999999998 -0.181776 0.19181759999999998 -0.127296 0.03 -0.254496 -0.0490896 -0.29087999999999997 -0.1763616 -0.08179199999999999 -0.35000159999999997 -0.17279999999999998 -0.6990911999999999 -0.309168 -1.0299984 -0.090912 -0.210912 -0.19089599999999998 -0.4136496 -0.32726399999999994 -0.6045552 -0.45451199999999997 -0.654552 -1.118112 -0.8972736 -1.745376 -0.7872768 -0.618192 0.1090944 -1.1819039999999998 0.5627232 -1.46376 1.2799968 -0.209088 0.5127311999999999 -0.20904 1.0127376 -0.090864 1.4900111999999999 0.13636800000000002 0.49820159999999997 0.400032 0.9699936 0.718224 1.4118336 0.07271999999999999 0.104544 0.08184000000000001 0.24455999999999997 0.018192 0.35635199999999995 -0.063648 0.11184000000000001 -0.19089599999999998 0.17543999999999998 -0.318144 0.16363199999999997 -0.645456 -0.058176 -1.3364639999999999 0.17543999999999998 -1.8818879999999998 0.5936159999999999 -0.5182079999999999 0.401856 -0.890928 0.9800639999999999 -0.9091199999999999 1.6527839999999998 -0.027264 0.724512 0.327312 1.2617759999999998 0.8363999999999999 1.5536159999999999 0.52728 0.29908799999999996 1.218144 0.343632 1.8636 0.09547199999999999 0.19089599999999998 -0.073632 0.372816 -0.16636800000000002 0.5364479999999999 -0.27638399999999996 0.172704 -0.11001599999999999 0.32726399999999994 -0.23817599999999997 0.463632 -0.383616 0.13636800000000002 -0.13368000000000002 0.345408 -0.158208 0.5090399999999999 -0.060912 0.15456 0.09815999999999998 0.236448 0.293616 0.17279999999999998 0.473616 -0.10910399999999999 0.363648 -0.209136 0.731856 -0.263664 1.1064 -0.027312 0.233616 -0.036384 0.46814399999999995 -0.01824 0.70632 0.100032 0.9918239999999999 0.6545759999999999 1.690032 1.372752 1.918224 0.700032 0.22363199999999997 1.527312 -0.02184 2.163648 -0.830016 0.28180799999999995 -0.353616 0.418224 -0.733632 0.463632 -1.1291039999999999 0.045456 -0.42542399999999997 -0.009072 -0.8672639999999999 -0.118176 -1.31544 -0.045456 -0.19727999999999998 0.045456 -0.40180799999999994 0.22727999999999998 -0.49180799999999997 0.181824 -0.09 0.409056 -0.041856 0.5363519999999999 0.116352 0.172704 0.225456 0.354528 0.46271999999999996 0.5636159999999999 0.667248 0.127296 0.117312 0.254592 0.22363199999999997 0.40008 0.30547199999999997 0.499968 0.277296 1.0817759999999998 0.19636800000000001 1.55448 -0.075456 0.49094399999999994 -0.28180799999999995 0.872784 -0.76728 0.936432 -1.327296 0.07271999999999999 -0.5636159999999999 -0.172752 -1.1172479999999998 -0.5545439999999999 -1.5626879999999999 -0.400032 -0.466368 -0.9545759999999999 -0.820032 -1.500048 -0.9427679999999999 -0.19089599999999998 -0.041808 -0.31824 -0.221808 -0.300048 -0.41726399999999997 0.027264 -0.195456 0.19094399999999997 -0.343632 0.39096 -0.34180799999999995 0.254544 0.004512 0.52728 0.0018239999999999999 0.7908959999999999 -0.043632 0.236352 -0.040032 0.463632 -0.110928 0.6636 -0.24816 0.963648 -0.6545759999999999 1.063632 -1.8355104 0.663648 -2.7936959999999997 -0.400032 -0.9772751999999999 -1.336368 -1.7454432 -2.500032 -1.5218064 -0.263616 0.0518208 -0.5181119999999999 0.1427184 -0.754512 0.2608992 -0.24542399999999998 0.1218192 -0.481824 0.2718192 -0.709104 0.4390944 -0.27273600000000003 0.1981824 -0.5181119999999999 0.4227264 -0.7453919999999999 0.6700031999999999 -0.22727999999999998 0.247272 -0.43641599999999997 0.5163599999999999 -0.61824 0.7990896 -0.054528 0.0872736 -0.15456 0.1281984 -0.24547199999999997 0.1081968Z" clip-rule="evenodd" stroke-width="1"></path></svg>