<svg xmlns="http://www.w3.org/2000/svg" fill="none" viewBox="0 0 48 48" height="48" width="48" id="Flork-In-Love--Streamline-Memes.svg"><desc>Flork In Love Streamline Element: https://streamlinehq.com</desc><path stroke="#000000" stroke-linecap="round" stroke-linejoin="round" d="M1.5649 46.9973C1.2523 37.7038 2.7712 23.267 8.7728 13.1205M16.8327 18.2C22.5824 19.328 35.2723 18.845 40.7595 16.6194C48.4484 13.5021 47.081 8.1549 44.1466 5.3324C40.4491 1.7781 35.1165 1.1383 28.9216 1.1393C23.2263 1.1393 18.682 2.8632 15.0284 5.7704" stroke-width="1"></path><path stroke="#000000" stroke-linecap="round" stroke-linejoin="round" d="M40.4125 16.818C41.76 20.7696 43.8246 40.6142 43.556 46.8708" stroke-width="1"></path><path stroke="#000000" stroke-linecap="round" stroke-linejoin="round" d="M7.049 31.904L16.769 46.9158C20.0442 45.2379 21.1805 40.4626 20.7394 39.5479L15.5114 34.5415C13.3225 32.4733 14.1933 28.8112 17.0788 27.9496C18.418 27.5498 19.8688 27.8948 20.8847 28.8546L22.8113 30.6506L24.6826 28.8525C26.8393 26.7839 30.4265 27.8258 31.1396 30.7278C31.4705 32.0747 31.0578 33.4957 30.0569 34.4558L24.808 39.483C24.3668 40.3967 25.5032 45.1731 28.7784 46.8509L38.4994 31.8392" stroke-width="1"></path><path stroke="#000000" stroke-linejoin="round" d="M13.9485 5.093C13.8883 5.276 13.8142 5.4543 13.7269 5.6261C14.167 5.601 14.628 5.6585 15.0838 5.808C16.793 6.3694 17.7872 8.0159 17.3053 9.4857C16.8934 10.7402 15.5386 11.4615 14.0876 11.2953C14.1451 11.4573 14.1931 11.6266 14.2297 11.8012C14.5987 13.5617 13.6704 15.2458 12.1557 15.5625C10.642 15.8803 9.1157 14.7095 8.7477 12.9491C8.7088 12.7651 8.6837 12.5785 8.6724 12.3908C8.5524 12.5355 8.4217 12.6711 8.2815 12.7964C6.9413 13.9955 5.0178 14.0331 3.986 12.8801C2.9552 11.728 3.2051 9.8213 4.5453 8.6211C4.6839 8.4974 4.8314 8.3838 4.9864 8.2814C3.7842 7.5402 3.1643 6.1969 3.5647 4.9748C4.0477 3.505 5.8248 2.7691 7.534 3.3294C7.8905 3.4465 8.2167 3.6116 8.5041 3.8113C8.5345 3.6566 8.5742 3.5008 8.6254 3.3451C9.1868 1.6359 10.8333 0.6417 12.3031 1.1247C13.7729 1.6066 14.5088 3.3827 13.9475 5.093Z" stroke-width="1"></path><path fill="#000000" d="M7.5591 7.351C6.9644 9.1617 8.5528 10.9371 10.4183 10.5468C11.284 10.3657 11.9874 9.7364 12.2634 8.8961C12.8581 7.0854 11.2696 5.31 9.4042 5.7003C8.5385 5.8814 7.8351 6.5107 7.5591 7.351" stroke-width="1"></path><path fill="#000000" fill-rule="evenodd" d="M38.5998 8.6274C37.3726 8.6274 36.6055 9.9559 37.2192 11.0187C37.5039 11.512 38.0302 11.8159 38.5998 11.8159C39.827 11.8159 40.594 10.4873 39.9804 9.4245C39.6956 8.9313 39.1693 8.6274 38.5998 8.6274Z" clip-rule="evenodd" stroke-width="1"></path><path fill="#000000" fill-rule="evenodd" d="M22.8552 10.2216C21.628 10.2216 20.861 11.5502 21.4746 12.613C21.7594 13.1062 22.2857 13.4101 22.8552 13.4101C24.0824 13.4101 24.8495 12.0816 24.2358 11.0188C23.9511 10.5255 23.4248 10.2216 22.8552 10.2216Z" clip-rule="evenodd" stroke-width="1"></path></svg>