<svg xmlns="http://www.w3.org/2000/svg" fill="none" viewBox="0 0 48 48" height="48" width="48" id="Gavin--Streamline-Memes.svg"><desc>Gavin Streamline Element: https://streamlinehq.com</desc><path stroke="#000000" stroke-linecap="round" stroke-linejoin="round" d="M26.169 33.203c-0.996 0.884 -3.498 2.728 -5.542 3.036 -2.554 0.386 -4.336 -0.482 -7.131 -3.47 -3.83 -4.093 -2.91 -6.465 -2.91 -7.81 0 -1.98 0.385 -5.359 0 -9.713 0 -1.478 0.623 -2.715 0.934 -3.149" stroke-width="1"></path><path stroke="#000000" stroke-linecap="round" stroke-linejoin="round" d="M15.973 25.11c-0.76 0.197 -1.294 1.322 -0.984 2.053" stroke-width="1"></path><path stroke="#000000" stroke-linecap="round" stroke-linejoin="round" d="M10.508 21.253c-1.35 -3.422 -1.397 -7.084 -0.916 -9.83 0.386 -2.198 1.575 -4.032 2.12 -4.675 0.707 -1.124 2.66 -3.46 4.82 -3.806 1.686 -1.398 5.01 -2.699 9.492 -0.916C30.506 3.81 32 6.604 33.204 7.81c1.205 1.204 1.301 5.638 1.012 7.854 -0.231 1.773 -0.77 3.373 -1.012 3.951" stroke-width="1"></path><path stroke="#000000" stroke-linecap="round" stroke-linejoin="round" d="M11.954 12c1.349 -0.346 2.746 -2.103 3.276 -2.939 0.932 0.659 3.46 1.966 6.12 1.928 3.325 -0.048 4.144 -1.012 5.06 0 0.915 1.012 2.265 3.132 1.542 5.638 1.465 1.619 1.702 4.85 1.638 6.264" stroke-width="1"></path><path stroke="#000000" stroke-linecap="round" stroke-linejoin="round" d="M30.747 25.59c0.192 -1.446 1.06 -3.277 1.83 -3.807" stroke-width="1"></path><path stroke="#000000" stroke-linecap="round" stroke-linejoin="round" d="M29.012 34.119c-1.06 -0.771 -1.06 -0.868 -0.916 -1.494 0.116 -0.501 1.14 -3.582 1.639 -5.06 0.401 0.53 1.61 1.022 3.228 -1.253 2.024 -2.843 2.892 -7.276 0.53 -7.083" stroke-width="1"></path><path stroke="#000000" stroke-linecap="round" stroke-linejoin="round" d="M15.225 9.036c-0.987 -0.74 -0.768 -2.385 0 -3.18" stroke-width="1"></path><path stroke="#000000" stroke-linecap="round" stroke-linejoin="round" d="M12.132 21.828c0.421 -1.113 1.023 -1.293 1.61 -1.233 0.586 0.06 1.549 0.737 2.075 1.504" stroke-width="1"></path><path stroke="#000000" stroke-linecap="round" stroke-linejoin="round" d="M20.286 22.251c0.52 -0.336 0.487 -1.898 2.2 -1.965 1.37 -0.053 2.485 0.874 2.872 1.344" stroke-width="1"></path><path stroke="#000000" stroke-linecap="round" stroke-linejoin="round" d="M12.132 18.605c1.31 0 2.58 -0.605 3.272 -1.275" stroke-width="1"></path><path stroke="#000000" stroke-linecap="round" stroke-linejoin="round" d="M20.812 17.446c0.854 0.785 2.703 0.872 4.02 1.16" stroke-width="1"></path><path fill="#000000" d="M13.635 22.414c-0.998 -0.056 -1.016 -1.145 -0.517 -1.589 0.498 -0.332 1.034 0 1.292 0.167 0.259 0.166 0.222 1.477 -0.775 1.422Z" stroke-width="1"></path><path fill="#000000" d="M22.348 22.413c-1.135 -0.062 -1.156 -1.295 -0.589 -1.796 0.568 -0.376 1.178 0 1.472 0.188 0.295 0.188 0.253 1.671 -0.883 1.608Z" stroke-width="1"></path><path stroke="#000000" stroke-linecap="round" stroke-linejoin="round" d="M16.339 27.05c0.549 0.31 0.363 0.563 1.336 0.645 1.259 0.105 1.3 -0.89 2.237 -0.762" stroke-width="1"></path><path stroke="#000000" stroke-linecap="round" stroke-linejoin="round" d="M20.061 24.903c1.026 0.55 1.503 1.575 1.289 2.267" stroke-width="1"></path><path stroke="#000000" stroke-linecap="round" stroke-linejoin="round" d="M23.055 27.315c1.252 0.13 2.173 1.086 2.476 1.548" stroke-width="1"></path><path stroke="#000000" stroke-linecap="round" stroke-linejoin="round" d="M14.533 26.967c-0.641 0.067 -1.28 1.009 -1.52 1.47" stroke-width="1"></path><path stroke="#000000" stroke-linecap="round" stroke-linejoin="round" d="M14.364 29.91c1.845 0.906 2.55 0.839 4.194 0.805 1.644 -0.034 2.953 -0.235 4.497 -1.007" stroke-width="1"></path><path stroke="#000000" stroke-linecap="round" stroke-linejoin="round" d="M1.75 46.84c1.237 -4.454 2.722 -7.382 5.155 -8.908 1.947 -1.22 5.705 -3.23 7.341 -4.083" stroke-width="1"></path><path stroke="#000000" stroke-linecap="round" stroke-linejoin="round" d="M28.681 31.952c2.763 2.145 7.3 3.918 9.28 4.495 1.98 0.578 6.64 4.95 8.29 10.311" stroke-width="1"></path><path stroke="#000000" stroke-linecap="round" stroke-linejoin="round" d="M14.081 36.117c0.165 2.599 3.093 6.187 8.702 5.445 5.61 -0.743 7.012 -3.382 7.424 -6.517" stroke-width="1"></path><path stroke="#000000" stroke-linecap="round" stroke-linejoin="round" d="M25.136 23.493c0.396 -0.246 0.752 -0.534 1.476 -0.602" stroke-width="1"></path><path stroke="#000000" stroke-linecap="round" stroke-linejoin="round" d="M17.088 17.908c-0.083 0.365 -0.25 0.544 -0.324 0.589" stroke-width="1"></path><path stroke="#000000" stroke-linecap="round" stroke-linejoin="round" d="M18.632 18.026c0.025 0.093 0.109 0.318 0.25 0.47" stroke-width="1"></path><path stroke="#000000" stroke-linecap="round" stroke-linejoin="round" d="M15.932 31.822c0.726 0.633 1.203 1.044 2.932 0.978 2.018 -0.078 3.02 -1.024 3.311 -1.293" stroke-width="1"></path></svg>