<svg xmlns="http://www.w3.org/2000/svg" fill="none" viewBox="0 0 48 48" height="48" width="48" id="Gavin-Hand-Drawn--Streamline-Memes.svg"><desc>Gavin Hand Drawn Streamline Element: https://streamlinehq.com</desc><path fill="#000000" fill-rule="evenodd" d="M17.748479999999997 17.50896c0 0.46896 -0.31248 1.7193599999999998 -0.7814399999999999 2.18832 -0.31248 0.156 0 0.62496 0.312 0.312 0.78192 -0.46847999999999995 1.25088 -1.24992 0.9384 -2.6568 0 -0.156 -0.46896 -0.156 -0.46896 0.15648Z" clip-rule="evenodd" stroke-width="1"></path><path fill="#000000" fill-rule="evenodd" d="M18.52992 18.91584c0.156 0.7814399999999999 0.46896 1.0943999999999998 1.2504 1.2504 0.312 0.15648 0.46847999999999995 -0.31248 0.156 -0.46896 -0.156 -0.156 -0.46896 -0.46847999999999995 -0.46896 -0.62496 -0.156 -0.15648 -0.312 -0.31248 -0.46847999999999995 -0.31248 -0.15648 -0.31248 -0.62544 0 -0.46896 0.156Z" clip-rule="evenodd" stroke-width="1"></path><path fill="#000000" fill-rule="evenodd" d="M20.56176 17.822400000000002c1.09392 1.4064 2.96928 0.93744 4.0632 1.09344 1.0943999999999998 0.15648 1.2504 0.7814399999999999 1.4064 0.46896 0.31296 -0.31248 -0.93744 -1.0943999999999998 -1.5623999999999998 -1.2504 -1.2504 -0.31248 -2.6568 0 -3.5947199999999997 -0.62496 -0.31248 -0.15648 -0.62544 0.156 -0.31248 0.31248Z" clip-rule="evenodd" stroke-width="1"></path><path fill="#000000" fill-rule="evenodd" d="M16.49808 17.665439999999997c-1.2504 1.4064 -1.7193599999999998 1.0943999999999998 -2.6568 1.0943999999999998 -0.7814399999999999 0 -1.5628799999999998 0 -2.03184 0.62496 -0.15648 0.31248 0.156 0.46896 0.31248 0.31248 0.7814399999999999 -0.7814399999999999 2.34432 0.62544 3.7512 -0.46896 0.312 -0.156 1.24992 -1.24992 0.93744 -1.5628799999999998 0 -0.156 -0.156 -0.156 -0.31248 0Z" clip-rule="evenodd" stroke-width="1"></path><path fill="#000000" fill-rule="evenodd" d="M25.0944 21.886079999999996c-0.15648 0.312 -1.40688 0.62496 -1.7193599999999998 0.7814399999999999 -0.31248 0 -0.15648 0.46847999999999995 0.156 0.46847999999999995 1.7193599999999998 -0.156 3.1257599999999996 -0.7814399999999999 2.03184 -2.03184 -1.5628799999999998 -1.5628799999999998 -3.43824 -0.7814399999999999 -4.21968 1.0943999999999998 -0.15648 0.312 0.31248 0.46847999999999995 0.46896 0.156 1.2504 -2.5008 3.43824 -0.46896 3.28176 -0.46896Z" clip-rule="evenodd" stroke-width="1"></path><path fill="#000000" fill-rule="evenodd" d="M22.67232 21.20736c-0.9576 0.82128 0.13679999999999998 2.18976 1.2316799999999999 1.50528 1.09488 -0.8208 -0.13679999999999998 -2.32608 -1.2316799999999999 -1.50528Z" clip-rule="evenodd" stroke-width="1"></path><path fill="#000000" fill-rule="evenodd" d="M13.21584 21.88512c1.0943999999999998 -1.24992 2.03184 -0.93744 2.81328 0.31296 0.15648 0.312 0.62544 0 0.46896 -0.15648 -1.7193599999999998 -4.3761600000000005 -7.34544 1.4064 -1.2504 1.0943999999999998 0.31248 0 0.31248 -0.46943999999999997 0 -0.46943999999999997 -0.46847999999999995 -0.156 -1.71888 -0.312 -2.03184 -0.7814399999999999Z" clip-rule="evenodd" stroke-width="1"></path><path fill="#000000" fill-rule="evenodd" d="M14.363999999999999 21.01296c-0.93792 0.31248 -0.46896 2.03184 0.7814399999999999 1.5628799999999998 0.62544 -0.31248 0.7814399999999999 -1.0943999999999998 0.31248 -1.4064 -0.46847999999999995 -0.31248 -0.93744 -0.31296 -1.09392 -0.15648Z" clip-rule="evenodd" stroke-width="1"></path><path fill="#000000" fill-rule="evenodd" d="M14.63472 30.6432c0.033600000000000005 -0.11807999999999999 0.54288 -1.93584 -0.14928 -1.1812799999999999 -0.43008 0.3648 -0.6662399999999999 0.62208 -0.34463999999999995 1.2019199999999999 -0.043199999999999995 0.15023999999999998 0.408 0.27936 0.4939199999999999 -0.021119999999999996Z" clip-rule="evenodd" stroke-width="1"></path><path fill="#000000" fill-rule="evenodd" d="M14.153759999999998 30.16896c3.75072 2.5008 10.47168 0.62496 10.002719999999998 -0.15648 -0.15648 -0.31248 -0.31248 0 -1.4064 0.31248 -2.1887999999999996 0.46896 -6.252 0.62544 -8.28384 -0.46896 -0.31248 -0.31248 -0.46896 0.15648 -0.31248 0.31248Z" clip-rule="evenodd" stroke-width="1"></path><path fill="#000000" fill-rule="evenodd" d="M23.68752 29.856479999999998c0 0.11615999999999999 0.20063999999999999 0.34224 0.31248 0.46896 0.15648 0.31248 0.62544 0 0.31248 -0.31248 -0.0912 -0.19296 -0.16992 -0.31728 -0.46896 -0.46896 -0.1248 -0.09696 -0.312 0.15648 -0.156 0.31248Z" clip-rule="evenodd" stroke-width="1"></path><path fill="#000000" fill-rule="evenodd" d="M21.96816 27.043200000000002c0.62544 0.46896 1.0943999999999998 1.2504 2.34432 2.34432 0.31296 0.31248 0.7814399999999999 0.62496 0.93792 1.0943999999999998 0 0.312 0.46896 0.312 0.46896 0 0 -0.78192 -1.5628799999999998 -3.1262399999999997 -3.43824 -3.90768 -0.31296 -0.15648 -0.46896 0.31248 -0.31296 0.46896Z" clip-rule="evenodd" stroke-width="1"></path><path fill="#000000" fill-rule="evenodd" d="M15.247679999999999 26.88672c-0.93744 0.62496 -2.18784 1.2504 -2.03184 2.96928 0 0.31248 0.46896 0.31248 0.46896 0 0.31248 -1.09392 2.34432 -2.5008 1.87536 -2.96928 0 -0.15648 -0.156 -0.15648 -0.312 0Z" clip-rule="evenodd" stroke-width="1"></path><path fill="#000000" fill-rule="evenodd" d="M16.967039999999997 28.293599999999998c0.62496 0.46896 1.2504 0.62496 2.03184 0 0.7814399999999999 -0.7814399999999999 0.31248 -0.15648 1.2504 -0.46896 0.62496 -0.15648 0.7814399999999999 -0.62496 0.312 -0.7814399999999999 -0.46847999999999995 -0.15648 -1.4064 0.15648 -1.7184 0.31248 -0.31296 0.15648 -0.78192 0.62544 -1.25088 0.31248 -0.312 -0.156 -0.62496 -0.62496 -1.09392 -0.62496 -0.31248 0 -0.31248 0.31248 -0.46896 0 0 -0.31248 0 -0.62496 0.31248 -0.93792 0.15648 -0.156 0.15648 -0.156 0 -0.312 -0.312 -0.31296 -1.09392 0.62496 -0.93744 1.5623999999999998 0.31248 0.62544 1.0943999999999998 1.2504 1.5628799999999998 0.93792Z" clip-rule="evenodd" stroke-width="1"></path><path fill="#000000" fill-rule="evenodd" d="M21.65568 26.418239999999997c0.156 0.93792 -0.93792 1.7193599999999998 -1.2504 1.7193599999999998 -0.46896 -0.15648 -0.62496 0.7814399999999999 0.7814399999999999 0.46847999999999995 0.62496 -0.156 1.2504 -0.93744 1.0943999999999998 -1.71888 -0.31296 -1.2504 -0.78192 -0.7814399999999999 -0.62544 -0.46896Z" clip-rule="evenodd" stroke-width="1"></path><path fill="#000000" fill-rule="evenodd" d="M16.967039999999997 20.7912c0 0.15648 0.31248 1.7193599999999998 0.31248 1.87536 0 0.7814399999999999 -0.31248 0.93792 0 1.0943999999999998 0.31248 0.312 0.7814399999999999 -0.62544 0.7814399999999999 -1.2504 0.15648 -1.0943999999999998 -0.62496 -2.18832 -0.93792 -2.03184 -0.156 0 -0.156 0.156 -0.156 0.31248Z" clip-rule="evenodd" stroke-width="1"></path><path fill="#000000" fill-rule="evenodd" d="M10.71552 14.852640000000001c-0.15648 2.5008 -0.46896 1.5628799999999998 0 8.752320000000001 0.312 4.84512 0.312 7.34592 3.9072 10.627679999999998 1.71888 1.5628799999999998 3.5947199999999997 3.43824 5.939039999999999 2.6568 0.31248 -0.156 0.156 -0.46847999999999995 -0.15648 -0.46847999999999995 -2.03184 0.62496 -3.75072 -1.2504 -5.3136 -2.6572799999999996 -3.4387199999999996 -3.28176 -3.28224 -5.62608 -3.5952 -10.15872 -0.46847999999999995 -5.62656 -0.62496 -4.68864 -0.312 -8.59584 0 -0.31248 -0.46896 -0.31248 -0.46896 -0.15648Z" clip-rule="evenodd" stroke-width="1"></path><path fill="#000000" fill-rule="evenodd" d="M20.87424 36.88943999999999c6.4079999999999995 -2.5008 9.53376 -2.96928 10.315199999999999 -8.59584 0 -0.31248 -0.46896 -0.31248 -0.46896 0 -0.7814399999999999 4.21968 -2.6568 4.68864 -6.4079999999999995 6.564 -3.5947199999999997 1.7193599999999998 -3.75072 1.7193599999999998 -3.5947199999999997 2.03184 0 0 0 0.15648 0.15648 0Z" clip-rule="evenodd" stroke-width="1"></path><path fill="#000000" fill-rule="evenodd" d="M15.71664 31.731840000000002c2.5008 3.9072 7.032959999999999 0.7814399999999999 6.4079999999999995 0.156 -0.15648 -0.156 -0.15648 -0.156 -0.31248 0 -1.0943999999999998 0.93792 -2.81328 1.4064 -4.22016 0.62544 -0.46896 -0.31248 -1.09392 -0.62544 -1.5628799999999998 -1.0943999999999998 -0.156 -0.156 -0.46896 0.15648 -0.31248 0.31296Z" clip-rule="evenodd" stroke-width="1"></path><path fill="#000000" fill-rule="evenodd" d="M13.21584 23.91696c0.7814399999999999 0.62544 1.5628799999999998 0.46896 2.34432 0 0.31296 -0.156 0.15648 -0.46896 -0.156 -0.46896l-1.2504 0 -0.7814399999999999 0c-0.31248 0 -0.46896 0.46896 -0.15648 0.46896Z" clip-rule="evenodd" stroke-width="1"></path><path fill="#000000" fill-rule="evenodd" d="M21.81216 23.76096c0.93744 0.7814399999999999 2.03184 0.62496 3.1257599999999996 0 0.31248 -0.15648 0.156 -0.62544 -0.15648 -0.46896 -0.46896 0.15648 -2.18784 0.15648 -2.6568 0 -0.31248 -0.15648 -0.46896 0.31248 -0.31248 0.46896Z" clip-rule="evenodd" stroke-width="1"></path><path fill="#000000" fill-rule="evenodd" d="M15.71664 7.19424c0.31248 2.81328 2.6568 4.84512 5.1575999999999995 3.7512 0.31248 -0.15648 0.156 -0.62496 -0.15648 -0.46896 -2.03184 0.7814399999999999 -4.0632 -1.5628799999999998 -4.53216 -3.43824 0 -0.15648 -0.46896 -0.15648 -0.46896 0.156Z" clip-rule="evenodd" stroke-width="1"></path><path fill="#000000" fill-rule="evenodd" d="M19.62384 9.85104c1.7193599999999998 1.0943999999999998 3.28224 1.4064 5.1575999999999995 0.62544 0.31248 -0.15648 0.15648 -0.46896 -0.15648 -0.46896 -1.4064 0.31248 -4.0632 -0.31248 -4.84464 -0.62544 -0.15648 -0.156 -0.46896 0.31296 -0.15648 0.46896Z" clip-rule="evenodd" stroke-width="1"></path><path fill="#000000" fill-rule="evenodd" d="M23.843999999999998 9.0696c0.62496 0.62544 1.09392 0.93792 2.34432 0.93792 0.312 0 0.312 -0.46896 0 -0.46896 -0.31248 -0.15648 -0.7814399999999999 -0.31248 -1.2504 -0.62496 -0.15648 -0.15648 -0.7814399999999999 -0.15648 -0.93792 -0.31296 -0.156 -0.156 -0.46896 0.31296 -0.156 0.46896Z" clip-rule="evenodd" stroke-width="1"></path><path fill="#000000" fill-rule="evenodd" d="M16.02912 8.28816c-0.31248 1.71888 -1.5628799999999998 3.9072 -3.28224 5.00112 -0.312 0.15648 0 0.62496 0.15648 0.46896 2.18784 -0.93792 3.43824 -2.81328 3.43824 -5.3136 0.15648 -0.31296 -0.31248 -0.46943999999999997 -0.31248 -0.15648Z" clip-rule="evenodd" stroke-width="1"></path><path fill="#000000" fill-rule="evenodd" d="M13.21584 11.5704c-0.312 0.62496 -1.87536 2.6568 -2.6568 3.28176 -0.31248 0.15648 0 0.62544 0.31248 0.31248 1.7193599999999998 -0.93744 2.34432 -1.87536 2.81328 -3.43824 0 -0.31248 -0.31248 -0.46896 -0.46896 -0.156Z" clip-rule="evenodd" stroke-width="1"></path><path fill="#000000" fill-rule="evenodd" d="M15.56016 34.8576c-0.93744 6.72096 8.752320000000001 11.4096 14.0664 5.15808 2.34432 -2.6572799999999996 2.34432 -5.939039999999999 1.87536 -5.939039999999999 -0.62496 0 0.62544 2.18784 -2.34432 5.47008C24 45.016799999999996 15.247679999999999 40.641119999999994 16.029600000000002 34.8576c0 -0.15648 -0.46943999999999997 -0.31248 -0.46943999999999997 0Z" clip-rule="evenodd" stroke-width="1"></path><path fill="#000000" fill-rule="evenodd" d="M32.59632 21.7296c0.46847999999999995 -0.46943999999999997 1.09392 -1.0943999999999998 1.71888 -1.25088 0.93792 -0.31248 1.7193599999999998 0.7814399999999999 1.7193599999999998 1.7193599999999998 0 2.5008 -3.5952 6.87648 -4.68864 5.3136 -0.15648 -0.312 -0.62544 0 -0.31296 0.31296 1.56336 2.18784 5.939039999999999 -2.5008 5.939039999999999 -5.62656 0 -1.4064 -1.2504 -2.96976 -2.6568 -2.34432 -0.7814399999999999 0.31248 -1.4064 1.09392 -1.87536 1.5628799999999998 -0.31248 0.31248 0 0.62496 0.15648 0.31248Z" clip-rule="evenodd" stroke-width="1"></path><path fill="#000000" fill-rule="evenodd" d="M31.657919999999997 26.26176c1.0943999999999998 -0.46847999999999995 0.78192 -1.24992 0.93792 -2.03136 0.15648 -0.62544 0.62544 -1.7193599999999998 1.2504 -2.03184 0.7814399999999999 -0.46896 1.2504 1.09392 0.62496 1.5628799999999998 -0.156 0.156 0.15648 0.62496 0.31296 0.31248 1.09392 -0.93792 0.46847999999999995 -3.43824 -1.2504 -2.6568 -0.93792 0.46896 -1.5628799999999998 1.71888 -1.7193599999999998 2.6568 0 0.46896 0.15648 0.93792 0 1.2504 -0.15648 0.46896 -0.62496 0.46896 -0.46896 0.7814399999999999 0 0.156 0.15648 0.156 0.31248 0.156Z" clip-rule="evenodd" stroke-width="1"></path><path fill="#000000" fill-rule="evenodd" d="M26.500799999999998 10.94544c2.03136 1.4064 3.28176 3.9072 2.5008 6.4079999999999995 -0.15648 0.31248 0.312 0.46896 0.46847999999999995 0.156 1.2504 -2.5008 0.31248 -5.3136 -2.6568 -7.032959999999999 -0.31248 -0.156 -0.62544 0.31248 -0.31248 0.46896Z" clip-rule="evenodd" stroke-width="1"></path><path fill="#000000" fill-rule="evenodd" d="M30.408 18.9168c0.62496 -0.15648 0.7814399999999999 -0.46896 0.93744 -1.0943999999999998 0.15648 -0.31248 -0.156 -0.46896 -0.312 -0.31248 -0.93792 0.7814399999999999 -0.62544 0.46896 -0.93792 0.93744 -0.31248 0.31296 0 0.62544 0.312 0.46896Z" clip-rule="evenodd" stroke-width="1"></path><path fill="#000000" fill-rule="evenodd" d="M31.369919999999997 20.42592c0.62544 -0.15648 0.7814399999999999 -0.46896 0.93792 -1.0943999999999998 0.156 -0.312 -0.15648 -0.46847999999999995 -0.31248 -0.312 -0.93792 0.78096 -0.62544 0.46847999999999995 -0.93792 0.93744 -0.31248 0.31248 0 0.62496 0.31248 0.46896Z" clip-rule="evenodd" stroke-width="1"></path><path fill="#000000" fill-rule="evenodd" d="M14.935199999999998 3.44352c-2.96928 1.0943999999999998 -4.06368 3.1257599999999996 -3.75072 4.84512 0 0.312 0.46847999999999995 0.312 0.46847999999999995 0 0 -1.7193599999999998 2.03184 -3.5952 3.5952 -4.3761600000000005 0.156 -0.15648 0 -0.62544 -0.31296 -0.46896Z" clip-rule="evenodd" stroke-width="1"></path><path fill="#000000" fill-rule="evenodd" d="M12.2784 7.19376c-2.6568 3.28224 -3.9072 7.189439999999999 -1.7193599999999998 10.784159999999998 0.15648 0.31248 0.62496 0 0.46896 -0.31248 -1.7193599999999998 -2.96928 -0.15648 -7.5024 1.7193599999999998 -10.15872 0 -0.31296 -0.31296 -0.62544 -0.46896 -0.31296Z" clip-rule="evenodd" stroke-width="1"></path><path fill="#000000" fill-rule="evenodd" d="M10.871999999999998 20.32272c-0.78192 -0.15648 -1.56336 0.62496 -1.56336 1.71888 0.15648 1.5628799999999998 0.7814399999999999 2.6568 1.5628799999999998 3.9072 0.15648 0.31248 0.62544 0 0.46896 -0.156 -0.62496 -1.4064 -2.03184 -4.84512 -0.62496 -4.84512 0.46847999999999995 -0.156 0.46847999999999995 -0.62496 0.156 -0.62496Z" clip-rule="evenodd" stroke-width="1"></path><path fill="#000000" fill-rule="evenodd" d="M15.247679999999999 3.912C18.06096 0.0048 25.56288 0.16128 29.78304 2.97456c0.156 0.156 4.0632 2.96928 4.0632 2.96928 1.0943999999999998 0.93792 1.7193599999999998 2.18832 2.03184 3.4387199999999996 0.46896 2.6568 -0.93792 3.1257599999999996 -0.31248 3.43824 0.7814399999999999 0.46896 2.34432 -4.53264 -1.2504 -7.5024 -0.15648 -0.156 -3.5947199999999997 -2.8128 -4.06368 -3.12528 -4.53216 -3.1257599999999996 -12.19056 -3.1257599999999996 -15.31632 1.4064 -0.15648 0.31248 0.15648 0.62544 0.31248 0.31248Z" clip-rule="evenodd" stroke-width="1"></path><path fill="#000000" fill-rule="evenodd" d="M34.94016 10.63248c0.15648 1.0943999999999998 -0.156 2.6568 -0.93744 3.5952 -0.15648 0.156 0.156 0.62496 0.312 0.312 1.40688 -1.09392 1.7193599999999998 -2.34432 1.0943999999999998 -4.0632 -0.15648 -0.15648 -0.62496 0 -0.46896 0.156Z" clip-rule="evenodd" stroke-width="1"></path><path fill="#000000" fill-rule="evenodd" d="M35.7216 11.7264c0.31248 2.6572799999999996 0.15648 6.252 -1.71888 8.12736 -0.15648 0.15648 0.156 0.46896 0.312 0.31248 2.6572799999999996 -2.34432 2.6572799999999996 -5.1575999999999995 1.87584 -8.59584 0 -0.15648 -0.46896 -0.15648 -0.46896 0.156Z" clip-rule="evenodd" stroke-width="1"></path><path fill="#000000" fill-rule="evenodd" d="M28.845119999999998 32.66928c-0.15648 1.87536 1.4064 2.03184 2.6568 2.5008 0.31248 0.15648 0.46896 -0.31248 0.15648 -0.46896 -1.0943999999999998 -0.62496 -2.03184 -0.93744 -2.34432 -2.03184 0 -0.312 -0.46896 -0.312 -0.46896 0Z" clip-rule="evenodd" stroke-width="1"></path><path fill="#000000" fill-rule="evenodd" d="M15.0912 34.38912c-3.75072 2.18784 -7.8144 2.8128 -10.94016 7.9704 -1.09392 1.7193599999999998 -1.87536 3.5952 -2.6568 5.31408 0 0.15648 0 0.31248 0.156 0.31248 0.78192 0.31296 1.7193599999999998 -5.78256 7.97088 -9.68976 1.7193599999999998 -1.0943999999999998 3.7512 -2.18832 5.78304 -3.4387199999999996 0.31248 -0.312 0 -0.62496 -0.31248 -0.46847999999999995Z" clip-rule="evenodd" stroke-width="1"></path><path fill="#000000" fill-rule="evenodd" d="M31.345439999999996 34.701119999999996c1.4064 0.46896 4.06368 1.5628799999999998 5.62656 2.18832 4.53264 1.71888 6.4079999999999995 2.8128 9.0648 10.94016 0.15648 0.31248 0.46896 0.15648 0.46896 -0.15648 -2.6568 -9.2208 -4.3761600000000005 -10.4712 -15.003839999999999 -13.440959999999999 -0.31248 -0.156 -0.46896 0.31296 -0.15648 0.46896Z" clip-rule="evenodd" stroke-width="1"></path></svg>