<svg xmlns="http://www.w3.org/2000/svg" fill="none" viewBox="0 0 48 48" height="48" width="48" id="Grumpy-Cat--Streamline-Memes.svg"><desc>Grumpy Cat Streamline Element: https://streamlinehq.com</desc><path stroke="#000000" stroke-linecap="round" stroke-linejoin="round" d="M30.387 22.206a4.602 4.602 0 0 0 9.156 -0.943l-9.156 0.943Z" stroke-width="1"></path><path stroke="#000000" stroke-linecap="round" stroke-linejoin="round" d="M17.106 22.206a4.602 4.602 0 0 1 -9.156 -0.943l9.156 0.943Z" stroke-width="1"></path><path stroke="#000000" stroke-linecap="round" stroke-linejoin="round" d="M21.52 17.427c0 12.59 -8.2 12.645 -7.86 17.584 0 3.425 6.84 6.32 9.965 6.327 3.203 0.006 10.525 -2.745 10.525 -6.328 0.34 -4.938 -8.16 -4.896 -8.16 -17.486" stroke-width="1"></path><path stroke="#000000" stroke-linecap="round" stroke-linejoin="round" d="M4.58 32.368a16.003 16.003 0 0 1 -1.138 -5.927c0 -6.107 7.323 -13.148 12.89 -16.71 2.345 -0.822 4.902 -0.425 7.58 -0.425s5.235 -0.397 7.58 0.424c6.272 4.326 12.89 10.943 12.89 16.712 0 2.076 -0.4 4.07 -1.138 5.926m-31.712 8.397c3.438 2.297 7.727 3.66 12.38 3.66 4.652 0 8.942 -1.363 12.38 -3.66" stroke-width="1"></path><path stroke="#000000" stroke-linecap="round" stroke-linejoin="round" d="M6.844 18.25c-2.895 -4.849 -4.265 -8.008 -5.488 -13.116a0.977 0.977 0 0 1 1.197 -1.173c5.54 1.419 9.12 2.817 13.666 5.82" stroke-width="1"></path><path stroke="#000000" stroke-linecap="round" stroke-linejoin="round" d="M40.953 18.344c2.896 -4.85 4.434 -8.088 5.687 -13.21a0.973 0.973 0 0 0 -1.193 -1.172c-5.551 1.43 -9.198 2.893 -13.744 5.897" stroke-width="1"></path><path stroke="#000000" stroke-linecap="round" stroke-linejoin="round" d="M17.117 32.165c-2.103 -1.103 -6.686 -1.822 -9.992 -1.415" stroke-width="1"></path><path stroke="#000000" stroke-linecap="round" stroke-linejoin="round" d="M16.573 34.372c-2.429 -0.424 -10.44 -0.976 -13.54 2.208" stroke-width="1"></path><path stroke="#000000" stroke-linecap="round" stroke-linejoin="round" d="M15.16 36.622c-2.32 0.495 -7.33 1.986 -8.81 3.99" stroke-width="1"></path><path stroke="#000000" stroke-linecap="round" stroke-linejoin="round" d="M30.795 32.165c1.939 -1.103 7.281 -1.977 10.33 -1.57" stroke-width="1"></path><path stroke="#000000" stroke-linecap="round" stroke-linejoin="round" d="M31.339 34.372c2.428 -0.424 10.44 -0.976 13.539 2.208" stroke-width="1"></path><path stroke="#000000" stroke-linecap="round" stroke-linejoin="round" d="M30.49 22.189c-0.607 0 -2.836 -0.102 -1.924 -2.533" stroke-width="1"></path><path stroke="#000000" stroke-linecap="round" stroke-linejoin="round" d="M32.752 36.622c2.32 0.495 7.33 1.986 8.81 3.99" stroke-width="1"></path><path stroke="#000000" stroke-linecap="round" stroke-linejoin="round" d="M20.91 29.534c0.12 0.16 1.998 2.077 2.717 2.077 0.719 0 2.596 -1.917 2.716 -2.077" stroke-width="1"></path><path stroke="#000000" stroke-linecap="round" stroke-linejoin="round" d="M18.46 36.626s2.938 -3.09 5.217 -3.09c2.28 0 5.269 3.09 5.269 3.09" stroke-width="1"></path><path stroke="#000000" stroke-linecap="round" stroke-linejoin="round" d="m23.677 31.611 0 1.925" stroke-width="1"></path><path stroke="#000000" stroke-linecap="round" stroke-linejoin="round" d="M17.002 22.189c0.608 0 2.837 -0.102 1.925 -2.533" stroke-width="1"></path><path stroke="#000000" stroke-linecap="round" stroke-linejoin="round" d="M36.156 13.328c2.505 -2.7 8.113 -8.212 10.256 -8.734" stroke-width="1"></path><path stroke="#000000" stroke-linecap="round" stroke-linejoin="round" d="M11.453 13.438C8.948 10.736 3.405 5.116 1.261 4.594" stroke-width="1"></path><path stroke="#000000" stroke-linecap="round" stroke-linejoin="round" d="M34.716 21.91v2.025" stroke-width="1"></path><path stroke="#000000" stroke-linecap="round" stroke-linejoin="round" d="M12.435 21.91v2.025" stroke-width="1"></path></svg>