<svg xmlns="http://www.w3.org/2000/svg" fill="none" viewBox="0 0 48 48" height="48" width="48" id="Grumpy-Cat-Hand-Drawn--Streamline-Memes.svg"><desc>Grumpy Cat Hand Drawn Streamline Element: https://streamlinehq.com</desc><path fill="#000000" fill-rule="evenodd" d="M8.15328 5.220479999999999c6.37536 2.3908799999999997 9.2448 7.1726399999999995 9.72288 6.694559999999999 0.15936 -0.15936 0.15936 -0.15936 0 -0.31872 -2.7095999999999996 -3.0287999999999995 -5.89776 -5.5785599999999995 -9.563519999999999 -7.0127999999999995 -0.15936 -0.15984 -0.47808 -0.3192 -0.7968 -0.15984 -0.7968 0.31872 0.63744 2.86896 0.7968 4.143839999999999 0.15936 3.34752 -0.7968 6.375839999999999 0.7968 9.40416 -4.46256 6.05664 -7.0127999999999995 15.300959999999998 -1.27488 20.241600000000002 0.15936 5.7383999999999995 -0.31872 7.651199999999999 0.15936 7.651199999999999 0.31872 0 0.15936 -0.3192 0.31872 -1.7534399999999999 0.15936 -6.05664 0.31872 -6.05664 0 -6.215999999999999 -5.419199999999999 -5.100479999999999 -2.86896 -13.70736 1.5936 -19.60464 0.47856 -0.47808 -0.7968 -0.95616 -0.95616 -3.98448 -0.15936 -2.0721600000000002 0.3192 -5.100479999999999 0 -6.694559999999999 -0.15936 -0.7968 -0.47808 -1.5936 -0.7968 -2.3904Z" clip-rule="evenodd" stroke-width="1"></path><path fill="#000000" fill-rule="evenodd" d="M14.19504 14.62464c4.3152 -3.34704 11.558399999999999 -3.1872 16.79808 -1.91232 0.30816 0 0.46224 -0.31872 0.15408 -0.47808 -6.16416 -1.5936 -12.3288 -2.0721600000000002 -17.26032 2.0716799999999997 -0.30816 0.15936 0 0.47856 0.30816 0.31872Z" clip-rule="evenodd" stroke-width="1"></path><path fill="#000000" fill-rule="evenodd" d="M30.467519999999997 13.668479999999999C33.81456 10.9584 35.568 4.2648 37.79904 3.1487999999999996c2.7095999999999996 -1.43424 3.6657599999999997 12.11328 3.5063999999999997 15.30144 0 0.31872 0.47856 0.31872 0.47856 0 0.31872 -4.781759999999999 -0.3192 -18.170399999999997 -4.4630399999999995 -16.098239999999997 -2.7095999999999996 1.43424 -4.143839999999999 8.447519999999999 -7.17216 10.99776 -0.15936 0.15936 0.15936 0.47808 0.31872 0.31872Z" clip-rule="evenodd" stroke-width="1"></path><path fill="#000000" fill-rule="evenodd" d="M41.94336 16.218239999999998c4.46256 7.491359999999999 4.78128 18.9672 5.5785599999999995 28.21152 0 0.31872 0.47808 0.31872 0.47808 0 -0.7968 -10.0416 -0.15936 -19.444799999999997 -5.5785599999999995 -28.37088 -0.31872 -0.31872 -0.63744 -0.15936 -0.47808 0.15936Z" clip-rule="evenodd" stroke-width="1"></path><path fill="#000000" fill-rule="evenodd" d="M11.1816 23.710079999999998c-0.15936 -0.31872 -1.1155199999999998 0 -1.43424 0.7968 -0.47808 1.116 0.15936 3.18768 1.5936 4.30368 4.30368 3.02832 8.9256 -3.8255999999999997 2.7095999999999996 -5.419199999999999 -0.47808 0 -2.86896 -0.15936 -2.86896 0.31872Zm0.15936 0.15936c0 0.47808 -0.63744 0 -0.95616 0.95616 -0.31872 0.95664 0.31872 2.7095999999999996 1.5936 3.5068799999999998 3.18816 2.0716799999999997 6.85392 -2.7095999999999996 2.0721600000000002 -4.1443200000000004 -1.9127999999999998 -0.63744 -2.5502399999999996 0 -2.7095999999999996 -0.31872Z" clip-rule="evenodd" stroke-width="1"></path><path fill="#000000" fill-rule="evenodd" d="M34.7712 23.55024c-1.7534399999999999 -1.43424 -6.694559999999999 -0.47808 -7.9694400000000005 1.116 -1.116 1.27488 -0.95664 2.86896 0.47808 4.143839999999999 4.46256 3.5068799999999998 10.20048 -3.5063999999999997 7.49088 -5.25984Zm-0.15984 0.3192c-2.2310399999999997 -1.5936 -10.5192 1.1155199999999998 -6.69408 4.3031999999999995 3.5063999999999997 2.86896 8.60688 -2.86896 6.69408 -4.3031999999999995Z" clip-rule="evenodd" stroke-width="1"></path><path fill="#000000" fill-rule="evenodd" d="M17.55744 30.08544c0.31872 1.27488 1.27488 0.7968 2.2310399999999997 1.5936 0.7968 0.6379199999999999 1.27536 0.3192 2.2315199999999997 -0.15936 0.63744 -0.47808 1.27536 -0.15936 1.9127999999999998 -0.47808 0.47808 -0.15936 1.27488 -0.7968 0.7968 -1.1155199999999998 -0.31872 -0.15936 -0.31872 0.31872 -0.95616 0.47808 -0.6379199999999999 0.15936 -1.27536 -0.15936 -1.9127999999999998 0.15936 -0.47808 0.15936 -0.7968 0.47808 -1.1155199999999998 0.63744 -0.15936 0 -0.6379199999999999 -0.31872 -0.95664 -0.47808 -0.63744 -0.31872 -0.95616 -0.15936 -1.43424 -0.31872s-0.47808 -0.7968 -0.7968 -0.63744c0 0 -0.15984 0.15936 0 0.31872Z" clip-rule="evenodd" stroke-width="1"></path><path fill="#000000" fill-rule="evenodd" d="M20.58528 34.38816c1.116 0.6379199999999999 4.6224 3.9849599999999996 5.897279999999999 4.30368 0.95664 0.31872 2.3908799999999997 -0.31872 2.7095999999999996 -1.5936 0.47808 -1.27536 -0.15936 -3.5068799999999998 -1.75296 -4.781759999999999 -0.31872 -0.31872 -1.9127999999999998 -1.116 -2.0721600000000002 -0.63744 -0.15936 0.47808 0.47808 0.31872 1.7534399999999999 1.1155199999999998 1.27488 0.95616 1.75296 2.5502399999999996 1.5936 3.6657599999999997 -0.15936 1.27536 -1.27488 1.7534399999999999 -2.0721600000000002 1.43472 -1.1155199999999998 -0.47808 -5.1 -4.6224 -6.05664 -4.4630399999999995 -0.63744 0 -1.5936 1.27536 -1.91232 1.5936 -0.7968 0.6379199999999999 -2.3908799999999997 2.232 -3.0287999999999995 2.3908799999999997 -1.1155199999999998 0.15984 -1.91232 -1.27488 -1.75296 -2.54976 0.15936 -1.116 1.1155199999999998 -2.0721600000000002 2.0721600000000002 -2.86896 0.15936 -0.15936 -0.15936 -0.6379199999999999 -0.31872 -0.3192 -0.95664 0.95664 -2.0721600000000002 1.7534399999999999 -2.3908799999999997 3.18816 -0.31872 1.5936 0.95616 3.6657599999999997 2.5502399999999996 3.34704 1.1155199999999998 -0.31872 3.98448 -3.34704 4.78128 -3.8255999999999997Z" clip-rule="evenodd" stroke-width="1"></path><path fill="#000000" fill-rule="evenodd" d="M16.644 36.93456c2.2315199999999997 4.30368 9.563519999999999 1.116 9.084959999999999 0.47808 -0.15936 -0.31872 -0.31872 0 -0.95616 0.15936 -2.3904 0.95664 -6.37536 1.27536 -7.65072 -0.95616 -0.15936 -0.15936 -0.63744 0.15936 -0.47808 0.31872Z" clip-rule="evenodd" stroke-width="1"></path><path fill="#000000" fill-rule="evenodd" d="M12.883199999999999 24.23088c-1.23072 2.50848 0.6158399999999999 4.05216 1.2316799999999999 2.8944 0.76944 -1.15776 0 -4.05216 -1.2311999999999999 -2.8944Z" clip-rule="evenodd" stroke-width="1"></path><path fill="#000000" fill-rule="evenodd" d="M12.114239999999999 25.38864c-0.30816 1.35072 0.3072 2.31552 1.23072 2.50848 2.00112 0.38592 1.8470399999999998 -3.8591999999999995 0.30816 -4.24512 -0.9235199999999999 -0.19296 -1.38528 0.77184 -1.53888 1.73664Zm0.92304 -1.15776c-0.76944 1.9295999999999998 0.30768 3.08736 0.6158399999999999 2.70144 0.61536 -0.77184 0.30768 -3.2803199999999997 -0.6158399999999999 -2.70144 0.1536 0 0.1536 0 0 0Z" clip-rule="evenodd" stroke-width="1"></path><path fill="#000000" fill-rule="evenodd" d="M29.321279999999998 27.13728c0.42768 0.77184 1.4256 0.77184 1.99584 0.19296 1.4256 -1.35072 0.14207999999999998 -5.01696 -1.56816 -3.2803199999999997 -0.14256 -0.38592 -1.28304 1.3512 -0.42719999999999997 3.08736Z" clip-rule="evenodd" stroke-width="1"></path><path fill="#000000" fill-rule="evenodd" d="M29.748959999999997 23.66448c-0.42768 0 -0.85536 1.15776 -0.99792 1.73664 -0.14256 1.15776 0.14256 2.50848 1.4256 2.70144 3.4209599999999996 0.57888 2.13792 -6.7536 -0.42768 -4.43808Zm1.28304 3.47328c0.85488 -0.9647999999999999 0.42719999999999997 -4.05216 -0.85536 -3.08736 -1.56816 0.9647999999999999 -0.57024 4.43808 0.85536 3.08736Z" clip-rule="evenodd" stroke-width="1"></path><path fill="#000000" fill-rule="evenodd" d="M27.59856 19.56528c1.27488 -2.7095999999999996 1.1155199999999998 -2.7095999999999996 1.43472 -3.34704 0.15936 -0.31872 -0.15984 -0.47808 -0.3192 -0.31872 -1.1155199999999998 1.27488 -1.27488 2.0721600000000002 -1.43424 3.5063999999999997 -0.31872 0.31872 0.15936 0.47808 0.31872 0.15936Z" clip-rule="evenodd" stroke-width="1"></path><path fill="#000000" fill-rule="evenodd" d="M28.873920000000002 20.841119999999997c1.1155199999999998 -0.15984 0.95616 -0.15984 1.91232 -0.7968 0.31872 -0.15984 0.15936 -0.6384 -0.15936 -0.47856 -1.27488 0.15936 -1.1155199999999998 0.31872 -1.9127999999999998 0.7968 -0.31872 0.15936 0 0.6379199999999999 0.15984 0.47856Z" clip-rule="evenodd" stroke-width="1"></path><path fill="#000000" fill-rule="evenodd" d="M17.07888 19.88448c-0.47808 -0.95664 -0.63744 -1.5936 -1.91232 -2.5502399999999996 -0.15936 -0.15936 -0.47856 0.15936 -0.3192 0.31872 0.7968 1.1155199999999998 0.3192 0.7968 1.9127999999999998 2.3904 0 0.3192 0.47808 0.15984 0.31872 -0.15888Z" clip-rule="evenodd" stroke-width="1"></path><path fill="#000000" fill-rule="evenodd" d="M15.963359999999998 21.47808c-0.47808 -0.47808 -0.47808 -0.47808 -1.43424 -0.47808 -0.3192 -0.15936 -0.47856 0.31872 -0.15936 0.47808 0.63744 0.47808 0.63744 0.47808 1.43424 0.47808 0.47808 0 0.47808 -0.47808 0.15936 -0.47808Z" clip-rule="evenodd" stroke-width="1"></path><path fill="#000000" fill-rule="evenodd" d="M32.858399999999996 35.82336c2.0721600000000002 -0.47808 5.897279999999999 -4.143839999999999 6.37536 -7.0127999999999995 0.63744 -3.0287999999999995 -1.5936 -6.215999999999999 -4.4630399999999995 -7.332 -0.31872 -0.15936 -0.47808 0.31872 -0.15936 0.47808 2.3908799999999997 1.116 4.30368 3.9849599999999996 3.8255999999999997 6.694559999999999 -0.47808 2.3904 -3.9849599999999996 6.215999999999999 -5.5785599999999995 6.69408 -0.47808 0.15936 -0.31872 0.63744 0 0.47808Z" clip-rule="evenodd" stroke-width="1"></path><path fill="#000000" fill-rule="evenodd" d="M20.26656 31.679519999999997c-0.15936 0.95616 -0.34944 0.6974400000000001 0.12864 2.4508799999999997 0 0.31872 0.47808 0.31872 0.47808 0 0.15936 -1.43472 0.34991999999999995 -1.01664 -0.12816 -2.4508799999999997 0 -0.3192 -0.47856 -0.3192 -0.47856 0Z" clip-rule="evenodd" stroke-width="1"></path><path fill="#000000" fill-rule="evenodd" d="M7.19712 27.69408c-0.7968 4.3031999999999995 1.91232 8.28816 6.05664 7.8096 0.31872 0 0.31872 -0.47808 0 -0.47808 -3.5063999999999997 0.3192 -5.897279999999999 -3.6657599999999997 -5.5785599999999995 -7.17216 0 -0.47808 -0.47808 -0.47808 -0.47808 -0.15936Z" clip-rule="evenodd" stroke-width="1"></path><path fill="#000000" fill-rule="evenodd" d="M13.253759999999998 35.18544C9.588000000000001 34.8672 6.0816 33.910560000000004 0.18384 34.8672c-0.31872 0 -0.15936 0.47808 0 0.47808 4.4630399999999995 -0.63744 13.22928 0.7968 13.22928 0.15984 0.15936 -0.15984 0 -0.3192 -0.15936 -0.3192Z" clip-rule="evenodd" stroke-width="1"></path><path fill="#000000" fill-rule="evenodd" d="M13.253759999999998 36.62016c-1.5936 0 -1.7534399999999999 0 -3.34704 0.63744 -0.31872 0 -0.15936 0.47808 0.15936 0.47808 2.2310399999999997 -0.15936 1.91232 -0.15936 3.34704 -0.63744 0.15936 0 0.15936 -0.47808 -0.15936 -0.47808Z" clip-rule="evenodd" stroke-width="1"></path><path fill="#000000" fill-rule="evenodd" d="M28.87344 36.4608c2.86896 -0.47808 10.0416 -1.1155199999999998 13.8672 -0.15888 0.31824 0 0.47759999999999997 -0.3192 0.15888 -0.47856 -5.100479999999999 -1.43424 -9.084959999999999 -1.1155199999999998 -14.025599999999999 0.15936 -0.47856 0.15936 -0.3192 0.6379199999999999 0 0.47808Z" clip-rule="evenodd" stroke-width="1"></path><path fill="#000000" fill-rule="evenodd" d="M29.032799999999998 37.73616c2.232 1.1155199999999998 0.15936 0.31872 4.781759999999999 2.2310399999999997 0.31872 0.15936 0.47808 -0.31872 0.15936 -0.47808 -1.9127999999999998 -1.27488 -2.5502399999999996 -1.75296 -4.781759999999999 -2.2315199999999997 -0.15936 -0.15936 -0.47808 0.31872 -0.15936 0.47808Z" clip-rule="evenodd" stroke-width="1"></path><path fill="#000000" fill-rule="evenodd" d="M9.90672 7.29264c0.15936 0.15936 -0.47808 -0.95616 3.6657599999999997 7.0127999999999995 0.15936 0.3192 0.63744 0.15984 0.47808 -0.15888 -1.1155199999999998 -3.0287999999999995 -1.75296 -4.6224 -3.8255999999999997 -7.1726399999999995 0 -0.15936 -0.47759999999999997 0.15936 -0.31824 0.31872Z" clip-rule="evenodd" stroke-width="1"></path><path fill="#000000" fill-rule="evenodd" d="M39.23376 8.40864c0.31872 2.5502399999999996 0.15936 5.73792 0 7.9694400000000005 -1.5936 -1.27536 -3.8255999999999997 -2.2315199999999997 -5.897279999999999 -2.7095999999999996 2.3904 -3.02832 3.98448 -11.47584 5.419199999999999 -6.85344 0.15936 0.31872 0.15936 0.7968 0.47808 0.63744 0.31872 0 0.15936 -0.47808 0 -0.7968 -0.31872 -0.7968 -0.63744 -1.9127999999999998 -1.43472 -1.7534399999999999 -1.91232 0.31872 -3.1872 6.215999999999999 -5.419199999999999 8.76624 -0.15936 0.31872 -0.15936 0.63744 0.3192 0.63744 2.2310399999999997 0.31872 5.1 1.5936 6.69408 3.18768 0.31872 0.31872 0.63744 0 0.63744 -0.31872 0.15936 -3.1872 0 -6.05664 -0.31872 -8.9256 0 -0.31872 -0.47808 -0.15936 -0.47808 0.15936Z" clip-rule="evenodd" stroke-width="1"></path><path fill="#000000" fill-rule="evenodd" d="M15.963359999999998 25.14432c1.75296 1.91232 3.02832 1.43424 3.34704 0 0.31872 -1.43472 0 -2.7095999999999996 0 -4.1443200000000004 0 -0.31872 -0.47808 -0.31872 -0.47808 0 -0.3192 3.5063999999999997 0.15936 6.05664 -2.5502399999999996 3.8255999999999997 -0.15936 -0.15936 -0.47808 0.15888 -0.31872 0.31872Z" clip-rule="evenodd" stroke-width="1"></path><path fill="#000000" fill-rule="evenodd" d="M20.74464 22.115519999999997c0.3192 -2.86896 1.9127999999999998 -7.0127999999999995 2.3908799999999997 -3.98448 0.31872 1.27488 0 2.70912 -0.15936 3.98448 0 0.31872 0.31872 0.47808 0.47856 0.15936 0.31872 -1.27488 0.7968 -2.7095999999999996 0.63744 -4.3031999999999995 -0.47808 -2.86944 -3.5068799999999998 -2.7095999999999996 -3.6662399999999997 4.143839999999999 -0.15936 0.31872 0.31872 0.31872 0.31872 0Z" clip-rule="evenodd" stroke-width="1"></path><path fill="#000000" fill-rule="evenodd" d="M22.17936 24.18816c-0.15936 1.91232 1.5936 3.1872 3.98448 1.75296 0.7968 -0.47808 1.43472 -1.27488 2.232 -1.75296 0.15888 0 0.15888 -0.15936 0.15888 -0.3192 -0.31872 -0.47808 -3.02832 2.0721600000000002 -4.46256 1.9127999999999998 -0.7968 -0.15936 -1.27536 -0.7968 -1.27536 -1.43424 -0.15936 -0.47808 -0.63744 -0.47808 -0.63744 -0.15936Z" clip-rule="evenodd" stroke-width="1"></path></svg>