<svg xmlns="http://www.w3.org/2000/svg" fill="none" viewBox="0 0 48 48" height="48" width="48" id="Intolerant-Face-Hand-Drawn--Streamline-Memes.svg"><desc>Intolerant Face Hand Drawn Streamline Element: https://streamlinehq.com</desc><path fill="#000000" fill-rule="evenodd" d="M23.668319999999998 2.43696c-5.4144 0 -13.26432 1.62432 -17.324640000000002 5.68464C-0.96528 15.430559999999998 -2.31888 30.5904 4.17792 38.71056c5.4144 6.4967999999999995 17.324640000000002 7.8504 25.71648 6.22608C39.097919999999995 43.312799999999996 44.78256 36.816 47.21904 27.612c0.81216 -3.7895999999999996 1.3536 -7.8504 -0.27071999999999996 -11.36928 -4.33104 -9.20352 -14.07648 -13.80576 -23.279999999999998 -13.80576Zm-11.91072 2.9779199999999997C-0.42384 10.558079999999999 -2.31888 29.23632 4.989599999999999 37.898399999999995c6.49728 7.57968 26.52864 9.74544 35.732639999999996 0.27071999999999996 4.60176 -4.872 7.03824 -12.722399999999999 6.76752 -17.595359999999996C46.6776 8.39232 28.5408 -1.62336 11.7576 5.41488Z" clip-rule="evenodd" stroke-width="1"></path><path fill="#000000" fill-rule="evenodd" d="M9.37008 17.04768c2.1657599999999997 1.0823999999999998 3.74064 1.0896 6.1771199999999995 1.63104 4.60176 0.81216 8.66256 2.9779199999999997 11.91072 -3.24816v-0.27071999999999996c-0.5414399999999999 -0.27071999999999996 -0.5414399999999999 0.81216 -2.4364799999999995 2.436 -2.7072 2.1657599999999997 -5.143199999999999 0.81216 -9.20352 0.27071999999999996 -1.8950399999999998 -0.27071999999999996 -4.33104 -0.5414399999999999 -6.2256 -1.3536 -0.54192 -0.27024 -0.7632 0.5347200000000001 -0.22224 0.5347200000000001Z" clip-rule="evenodd" stroke-width="1"></path><path fill="#000000" fill-rule="evenodd" d="M30.43584 21.3864c4.33104 1.0823999999999998 11.098559999999999 2.7072 13.26432 -0.27071999999999996 2.16528 -2.7072 0.5414399999999999 -2.9779199999999997 0.5414399999999999 -2.1657599999999997 0 0.5414399999999999 -0.5414399999999999 1.3536 -1.0828799999999998 1.8950399999999998 -1.3536 1.3536 -3.51936 1.3536 -5.4144 1.0823999999999998 -4.33104 -0.27071999999999996 -5.812799999999999 -0.88608 -7.166399999999999 -1.1568 -0.41952 -0.08399999999999999 -0.4128 0.6158399999999999 -0.14207999999999998 0.6158399999999999Z" clip-rule="evenodd" stroke-width="1"></path><path fill="#000000" fill-rule="evenodd" d="M9.6456 16.753439999999998c-2.4364799999999995 4.33104 1.40256 8.98752 6.00432 9.258239999999999 2.97744 0.27071999999999996 6.12336 -2.46048 6.6648 -4.89696 0 -0.27024 -0.5414399999999999 -0.54096 -0.5414399999999999 0 -0.5414399999999999 2.1657599999999997 -3.24816 4.0608 -5.95536 4.0608 -3.7895999999999996 -0.27071999999999996 -7.579199999999999 -3.7900799999999997 -5.68464 -7.8504 0.27071999999999996 -0.5414399999999999 -0.48768 -0.8423999999999999 -0.48768 -0.57168Z" clip-rule="evenodd" stroke-width="1"></path><path fill="#000000" fill-rule="evenodd" d="M30.25584 21.9216c-0.54096 3.51936 -0.09024 5.337599999999999 3.4286399999999997 6.42096 2.7072 1.0823999999999998 6.49632 0.62352 8.391359999999999 -1.54224 1.0828799999999998 -1.3536 1.0828799999999998 -2.9779199999999997 0.81216 -4.60176 0 -0.27071999999999996 -0.5414399999999999 -0.27071999999999996 -0.5414399999999999 0 1.3536 7.579199999999999 -8.932799999999999 6.2256 -10.82784 4.06032 -0.81216 -1.0828799999999998 -0.81216 -2.7072 -0.5414399999999999 -4.0608 0 -0.54096 -0.72144 -0.5471999999999999 -0.72144 -0.27647999999999995Z" clip-rule="evenodd" stroke-width="1"></path><path fill="#000000" fill-rule="evenodd" d="M19.06656 22.19808c2.7072 -0.81216 0.5414399999999999 -4.602239999999999 -1.62432 -3.51936 -2.7072 0.81216 -0.5414399999999999 4.0608 1.62432 3.51936Z" clip-rule="evenodd" stroke-width="1"></path><path fill="#000000" fill-rule="evenodd" d="M38.015519999999995 22.19856c-2.9779199999999997 0 -1.8950399999999998 4.0608 0.81216 3.51936 2.7072 -0.5414399999999999 1.89456 -4.0608 -0.81216 -3.51936Z" clip-rule="evenodd" stroke-width="1"></path><path fill="#000000" fill-rule="evenodd" d="M16.21152 33.9768c1.3536 -1.3536 2.58432 -0.9503999999999999 4.20864 -0.68016 2.7072 0.27071999999999996 5.143199999999999 0.81216 7.849919999999999 1.3536 1.62432 0.27071999999999996 3.24864 0.5414399999999999 3.7900799999999997 2.1657599999999997 0 0.27071999999999996 0.5414399999999999 0.27071999999999996 0.5414399999999999 -0.27071999999999996 -0.5414399999999999 -1.8950399999999998 -2.1657599999999997 -2.1657599999999997 -4.0608 -2.7072 -2.7072 -0.81216 -8.932799999999999 -1.8950399999999998 -11.098559999999999 -1.3536 -0.8481599999999999 0.21216 -2.1657599999999997 1.0828799999999998 -1.8950399999999998 1.62432 0.23759999999999998 0.16272 0.48623999999999995 0.08399999999999999 0.6643199999999999 -0.132Z" clip-rule="evenodd" stroke-width="1"></path><path fill="#000000" fill-rule="evenodd" d="M20.419679999999996 36.5448c2.1657599999999997 -0.81216 5.68464 -0.5414399999999999 7.03824 1.62432 0 0.27071999999999996 0.5414399999999999 0 0.5414399999999999 -0.27071999999999996 -1.3536 -2.97744 -4.8724799999999995 -3.5188800000000002 -7.579199999999999 -1.89456 -0.54192 0.27071999999999996 -0.27119999999999994 0.54096 0 0.54096Z" clip-rule="evenodd" stroke-width="1"></path><path fill="#000000" fill-rule="evenodd" d="M12.02832 29.778239999999997c-2.4364799999999995 1.3536 -3.7900799999999997 5.143199999999999 -1.8950399999999998 7.03824 0.27071999999999996 0.27071999999999996 0.5414399999999999 0 0.27071999999999996 -0.27071999999999996 -1.3536 -1.62432 0.5414399999999999 -5.14368 1.8950399999999998 -6.22608 0.69888 -0.49583999999999995 0 -0.81216 -0.27071999999999996 -0.5414399999999999Z" clip-rule="evenodd" stroke-width="1"></path><path fill="#000000" fill-rule="evenodd" d="M34.76688 33.2976c1.3536 1.0823999999999998 1.0828799999999998 4.872 -0.27071999999999996 5.95488 0 0 -0.27071999999999996 0.27071999999999996 0 0.27071999999999996 0.5414399999999999 0.5414399999999999 2.7072 -1.8950399999999998 1.8950399999999998 -4.8724799999999995 -0.27071999999999996 -1.0828799999999998 -1.18992 -2.2382400000000002 -1.62432 -1.8950399999999998 -0.22464 0.23568 -0.10464 0.39936 0 0.5414399999999999Z" clip-rule="evenodd" stroke-width="1"></path></svg>