<svg xmlns="http://www.w3.org/2000/svg" fill="none" viewBox="0 0 48 48" height="48" width="48" id="Intolerant-Face--Streamline-Memes.svg"><desc>Intolerant Face Streamline Element: https://streamlinehq.com</desc><path stroke="#000000" stroke-linecap="round" stroke-linejoin="round" d="M46.667 25.483C44.444 36.76 34.904 48.54 18.946 45.277 2.988 42.014 -0.627 25.937 1.596 14.66 3.819 3.384 14.86 0.487 27.276 3.026 39.69 5.564 48.89 14.207 46.667 25.483Z" stroke-width="1"></path><path stroke="#000000" stroke-linecap="round" stroke-linejoin="round" d="M10.41 31.822c-0.576 1.57 -0.327 3.142 0.393 4.45" stroke-width="1"></path><path stroke="#000000" stroke-linecap="round" stroke-linejoin="round" d="M33.573 36.275c0.202 1.66 -0.399 3.133 -1.399 4.243" stroke-width="1"></path><path stroke="#000000" stroke-linecap="round" stroke-linejoin="round" d="m9.667 18.47 10.418 2.214c3.547 0 3.558 -3.35 2.708 -4.251" stroke-width="1"></path><path stroke="#000000" stroke-linecap="round" stroke-linejoin="round" d="M10.351 18.413c-0.919 1.951 -0.495 5.3 3.329 6.093 3.824 0.794 6.174 -1.181 6.5 -3.498" stroke-width="1"></path><path stroke="#000000" stroke-linecap="round" stroke-linejoin="round" d="m27.405 21.742 10.418 2.215c3.547 0 3.558 -3.35 2.709 -4.251" stroke-width="1"></path><path stroke="#000000" stroke-linecap="round" stroke-linejoin="round" d="M28.09 21.686c-0.92 1.95 -0.496 5.299 3.328 6.093 3.824 0.793 6.175 -1.182 6.5 -3.498" stroke-width="1"></path><path stroke="#000000" stroke-linecap="round" stroke-linejoin="round" d="m15.925 34.886 1.382 -0.904 9.786 2.02 0.319 1.383" stroke-width="1"></path><path stroke="#000000" stroke-linecap="round" stroke-linejoin="round" d="m18.33 36.993 5.76 1.178" stroke-width="1"></path><path fill="#000000" fill-rule="evenodd" d="M33.884 22.75a1.25 1.25 0 1 0 0 2.5 1.25 1.25 0 0 0 0 -2.5Z" clip-rule="evenodd" stroke-width="1"></path><path fill="#000000" fill-rule="evenodd" d="M16.486 19.597a1.25 1.25 0 1 0 0 2.5 1.25 1.25 0 0 0 0 -2.5Z" clip-rule="evenodd" stroke-width="1"></path></svg>