<svg xmlns="http://www.w3.org/2000/svg" fill="none" viewBox="0 0 48 48" height="48" width="48" id="Joker-Face--Streamline-Memes.svg"><desc>Joker Face Streamline Element: https://streamlinehq.com</desc><path stroke="#000000" stroke-linecap="round" stroke-linejoin="round" d="M35.376 5.985a21.636 21.636 0 0 0 -12.218 -3.803c-10.918 0 -19.262 5.807 -19.262 17.89 0 12.085 9.85 25.746 20.945 25.746 2.56 0 4.35 -0.424 5.99 -1.237m8.784 -34.295a21.309 21.309 0 0 1 1.743 3.723" stroke-width="1"></path><path stroke="#000000" stroke-linecap="round" stroke-linejoin="round" d="M29.696 23.68c0 -4.325 3.125 -8.033 7.204 -8.033s7.204 3.708 7.204 8.034c0 1.438 -0.476 2.69 -0.81 3.573l-0.035 0.089c-0.38 1.005 -0.58 1.588 -0.58 2.174 0 0.585 0.2 1.17 0.58 2.174l0.034 0.089c0.335 0.883 0.81 2.135 0.81 3.573 0 4.325 -3.124 8.034 -7.203 8.034 -4.08 0 -7.204 -3.709 -7.204 -8.034 0 -1.438 0.475 -2.69 0.81 -3.573l0.034 -0.09c0.38 -1.004 0.58 -1.588 0.58 -2.173 0 -0.586 -0.2 -1.17 -0.58 -2.174 -0.01 -0.03 -0.022 -0.06 -0.034 -0.09 -0.335 -0.882 -0.81 -2.134 -0.81 -3.572Zm7.204 -4.227c-2.024 0 -3.713 1.863 -3.713 4.228 0 0.613 0.203 1.216 0.58 2.209l0.043 0.113c0.33 0.87 0.801 2.108 0.801 3.514 0 1.406 -0.47 2.643 -0.801 3.514 -0.015 0.038 -0.03 0.076 -0.043 0.113 -0.377 0.993 -0.58 1.595 -0.58 2.209 0 2.365 1.689 4.228 3.713 4.228s3.713 -1.863 3.713 -4.228c0 -0.614 -0.204 -1.216 -0.58 -2.21l-0.043 -0.112c-0.331 -0.871 -0.802 -2.108 -0.802 -3.514 0 -1.406 0.47 -2.643 0.802 -3.514l0.043 -0.113c0.376 -0.993 0.58 -1.596 0.58 -2.21 0 -2.364 -1.69 -4.227 -3.713 -4.227Z" clip-rule="evenodd" stroke-width="1"></path><path stroke="#000000" stroke-linecap="round" stroke-linejoin="round" d="M11.925 13.937a4.952 4.952 0 1 0 9.904 0 4.952 4.952 0 1 0 -9.904 0" stroke-width="1"></path><path stroke="#000000" stroke-linecap="round" stroke-linejoin="round" d="M29.722 10.913a4.952 4.952 0 1 0 9.904 0 4.952 4.952 0 1 0 -9.904 0" stroke-width="1"></path><path stroke="#000000" stroke-linecap="round" stroke-linejoin="round" d="M9.035 10.78c0.846 -2.168 5.761 -4.526 8.357 -3.913" stroke-width="1"></path><path stroke="#000000" stroke-linecap="round" stroke-linejoin="round" d="M39.655 5.023c-3.418 -2.514 -7.507 -1.96 -10.051 -1.163" stroke-width="1"></path><path stroke="#000000" stroke-linecap="round" stroke-linejoin="round" d="M31.375 18.594c-1.62 1.62 -4.414 3.411 -10.648 3.411" stroke-width="1"></path><path stroke="#000000" stroke-linecap="round" stroke-linejoin="round" d="M31.281 40.438c-1.62 -1.621 -4.32 -3.472 -10.554 -3.472" stroke-width="1"></path><path fill="#000000" fill-rule="evenodd" d="M35.572 7.427a1.25 1.25 0 1 0 0 2.5 1.25 1.25 0 0 0 0 -2.5Z" clip-rule="evenodd" stroke-width="1"></path><path fill="#000000" fill-rule="evenodd" d="M15.752 14.397a1.25 1.25 0 1 0 0 2.5 1.25 1.25 0 0 0 0 -2.5Z" clip-rule="evenodd" stroke-width="1"></path></svg>