<svg xmlns="http://www.w3.org/2000/svg" fill="none" viewBox="0 0 48 48" height="48" width="48" id="Joker-Face-Hand-Drawn--Streamline-Memes.svg"><desc>Joker Face Hand Drawn Streamline Element: https://streamlinehq.com</desc><path fill="#000000" fill-rule="evenodd" d="M36.06624 5.8751999999999995C32.282399999999996 1.5743999999999998 26.95008 1.23024 21.4464 0.88704c-1.548 0 -2.9241599999999996 -0.17231999999999997 -4.29984 0.17184C10.609919999999999 2.09088 3.90144 6.734399999999999 1.32144 13.0992 -0.3984 17.7432 -0.22655999999999998 23.075519999999997 0.6336 27.89184c2.064 11.351999999999999 11.18016 19.092480000000002 18.404159999999997 19.264319999999998 3.4401599999999997 0 6.880319999999999 -0.516 9.97632 -2.064 0.34415999999999997 -0.17184 0 -0.68784 -0.17184 -0.516 -3.096 1.548 -6.36432 1.89216 -9.804479999999998 1.89216 -6.707999999999999 -0.17231999999999997 -15.479999999999999 -7.740480000000001 -17.543999999999997 -18.7488C0.6336 23.075519999999997 0.46127999999999997 17.915519999999997 2.1811199999999995 13.44336 4.5888 7.4232 10.9536 2.95056 17.145599999999998 1.9185599999999998c1.37568 -0.17184 2.7518399999999996 -0.17184 4.128 -0.17184 5.16 0.17231999999999997 10.835999999999999 0.34415999999999997 14.276159999999999 4.47216 0.34415999999999997 0.17231999999999997 0.6883199999999999 -0.17184 0.516 -0.34368Z" clip-rule="evenodd" stroke-width="1"></path><path fill="#000000" fill-rule="evenodd" d="M10.609919999999999 14.47536c-4.300800000000001 1.89216 -4.98864 7.740480000000001 -1.5484799999999999 10.66464 1.89216 1.548 4.81632 1.8916799999999998 7.052639999999999 1.032 6.36384 -2.58 4.644 -14.964479999999998 -4.81632 -12.384479999999998 -0.34415999999999997 0.17184 -0.17184 0.516 0.17184 0.516 8.42832 -2.2363199999999996 9.804479999999998 8.77248 4.300319999999999 11.00832 -1.89216 0.68784 -4.644 0.516 -6.192 -0.86016 -3.096 -2.7518399999999996 -2.40816 -7.91232 1.20384 -9.46032 0.34368 -0.17184 0.17184 -0.68784 -0.17184 -0.516Z" clip-rule="evenodd" stroke-width="1"></path><path fill="#000000" d="M10.78176 23.935200000000002c-0.34415999999999997 -0.68784 -0.17184 -1.548 0.34415999999999997 -2.064 0.39119999999999994 -0.2976 1.31712 -0.54336 1.89216 0.86016 0.516 1.37616 -1.5484799999999999 2.23584 -2.2363199999999996 1.20384Z" stroke-width="1"></path><path fill="#000000" fill-rule="evenodd" d="M3.90144 15.335999999999999c2.2363199999999996 -3.6124799999999997 7.3968 -6.020639999999999 11.5248 -4.81632 0.34368 0.17184 0.51552 -0.34415999999999997 0.17184 -0.51648 -4.64448 -1.71984 -9.63264 0.34415999999999997 -12.04032 4.98864 -0.17231999999999997 0.51552 0.17184 0.68784 0.34368 0.34368Z" clip-rule="evenodd" stroke-width="1"></path><path fill="#000000" fill-rule="evenodd" d="M36.58224 6.04752c-3.612 -1.032 -6.87984 2.064 -6.53616 5.675999999999999 0.17231999999999997 2.064 1.72032 4.128 3.78432 4.98816 4.81584 2.064 8.084159999999999 -1.89216 7.224 -6.02016 -0.34368 -1.72032 -1.71984 -2.75232 -3.096 -3.78432 -0.34368 -0.17184 -0.516 0.17231999999999997 -0.34368 0.34415999999999997 1.37568 0.86016 2.40768 1.89216 2.7518399999999996 3.4401599999999997 0.516 2.58 -0.86016 5.33184 -3.612 5.675999999999999 -2.58 0.17231999999999997 -5.50416 -1.8916799999999998 -5.848319999999999 -4.81584 -0.34415999999999997 -3.096 2.40816 -5.848319999999999 5.50416 -4.98816 0.516 0 0.516 -0.516 0.17184 -0.516Z" clip-rule="evenodd" stroke-width="1"></path><path fill="#000000" d="M35.55072 9.4872c-0.6883199999999999 0.17231999999999997 -1.2043199999999998 -0.17184 -1.2043199999999998 -0.68784 -0.21936 -1.0968 0.768 -1.4385599999999998 1.20384 -1.37616 1.2043199999999998 0.17231999999999997 1.5484799999999999 1.72032 0 2.064Z" stroke-width="1"></path><path fill="#000000" fill-rule="evenodd" d="M30.39024 3.9825600000000003c3.2678399999999996 -2.23584 7.91232 -2.23584 10.492320000000001 0.86016 0.17184 0.17184 0.68784 0 0.34368 -0.34415999999999997 -3.096 -3.78432 -7.56816 -3.78432 -11.18016 -0.86016 -0.17184 0.17231999999999997 0.17231999999999997 0.6883199999999999 0.34415999999999997 0.34415999999999997Z" clip-rule="evenodd" stroke-width="1"></path><path fill="#000000" fill-rule="evenodd" d="M32.110079999999996 25.4832c0.34415999999999997 2.40816 2.2363199999999996 4.300800000000001 2.2363199999999996 6.70848 0 2.064 -1.89216 3.95616 -2.2363199999999996 6.192 -1.20384 7.224 9.11616 11.52432 14.10432 6.02016 2.58048 -2.7518399999999996 1.89216 -5.33184 0.86016 -8.771999999999998 -1.548 -5.16 -0.17184 -5.67648 0.17184 -10.32 0.6883199999999999 -12.38496 -16.34016 -9.116639999999999 -15.13632 0.17184Zm14.10432 -3.7838399999999996c1.2043199999999998 3.2678399999999996 0 6.192 -0.516 9.46032 -0.68784 5.16 4.300319999999999 9.46032 -1.032 13.58832 -2.7518399999999996 2.23584 -7.224 1.37616 -9.46032 -0.68784 -4.29984 -3.6124799999999997 -1.032 -8.08464 -0.34368 -9.63264 1.548 -3.95616 -1.37616 -5.84784 -1.89216 -8.94432 -1.032 -7.05216 10.664159999999999 -11.18016 13.244159999999999 -3.7838399999999996Z" clip-rule="evenodd" stroke-width="1"></path><path fill="#000000" fill-rule="evenodd" d="M41.570879999999995 19.979039999999998c-0.17231999999999997 -0.68784 -6.880319999999999 -0.17184 -6.02016 4.47216 0.516 2.40816 2.7518399999999996 4.300319999999999 2.064 7.91232 -0.516 2.9241599999999996 -4.81632 9.11616 0.68784 11.18016 2.064 0.6883199999999999 4.644 0.34415999999999997 6.02016 -1.37616 2.064 -2.58 0 -6.02016 -0.68784 -8.771999999999998 -0.6883199999999999 -2.9241599999999996 0.34368 -4.81632 0.516 -7.740480000000001 0.34368 -4.47216 -2.2363199999999996 -6.192 -2.58 -5.675999999999999Zm-0.17231999999999997 0.17184c-0.17184 0.34415999999999997 -1.548 -0.17184 -3.2678399999999996 0.516 -1.37616 0.516 -2.40816 1.89216 -2.064 3.4401599999999997 0.516 2.2363199999999996 2.92368 4.300319999999999 2.23584 8.256 -0.516 3.0964799999999997 -4.300319999999999 8.428799999999999 0.17184 10.14864 1.72032 0.68784 3.78432 0.34415999999999997 4.98816 -1.032 1.72032 -2.2363199999999996 -0.17184 -5.33232 -0.68784 -8.084159999999999 -0.68784 -3.096 0.34415999999999997 -4.98816 0.68784 -8.084159999999999 0.516 -4.47216 -1.8916799999999998 -4.81632 -2.064 -5.16Z" clip-rule="evenodd" stroke-width="1"></path><path fill="#000000" fill-rule="evenodd" d="M36.9264 17.91504c-3.7838399999999996 1.71984 -7.05216 4.47216 -9.632159999999999 5.33232 -1.548 0.516 -2.064 0.17184 -2.064 0.516 0 0.516 1.71984 0.17184 2.23584 0 3.6124799999999997 -0.86016 7.56816 -4.300319999999999 9.63264 -5.50416 0.34368 0 0.17184 -0.34415999999999997 -0.17231999999999997 -0.34415999999999997Z" clip-rule="evenodd" stroke-width="1"></path><path fill="#000000" fill-rule="evenodd" d="M39.67872 46.46832C32.97024 43.71648 32.7984 42.168 21.79008 40.79232c-0.17184 0 -0.34415999999999997 0 -0.34415999999999997 0.17184 -0.17184 0.68784 2.40816 -0.17184 11.696639999999999 3.612 4.128 1.72032 4.128 1.548 6.192 2.40816 0.516 0 0.68784 -0.34415999999999997 0.34415999999999997 -0.516Z" clip-rule="evenodd" stroke-width="1"></path></svg>