<svg xmlns="http://www.w3.org/2000/svg" fill="none" viewBox="0 0 48 48" height="48" width="48" id="Leo-Laughing-Hand-Drawn--Streamline-Memes.svg"><desc>Leo Laughing Hand Drawn Streamline Element: https://streamlinehq.com</desc><path fill="#000000" fill-rule="evenodd" d="M23.863823999999997 13.2348C23.863823999999997 14.594783999999999 24.01512 15.652559999999998 23.259456 16.256448000000002C22.956816 16.407744 23.259456 16.861728 23.4108 16.710383999999998C24.31728 16.407744 24.61944 15.501263999999999 24.61944 14.594783999999999C24.61944 14.141279999999998 24.468144 13.688303999999999 24.316799999999997 13.2348C24.316799999999997 12.93216 23.863775999999998 12.93216 23.863775999999998 13.2348Z" clip-rule="evenodd" stroke-width="1"></path><path fill="#000000" fill-rule="evenodd" d="M25.82808 16.105584C25.525439999999996 15.954288 24.618959999999998 14.896944 24.468144 14.443439999999999C24.468144 14.141279999999998 24.01464 14.292144 24.01464 14.443439999999999C24.01464 15.501263999999999 24.468144 16.256928 25.676783999999998 16.559088C25.979424 16.559088 26.13024 16.105584 25.82808 16.105584Z" clip-rule="evenodd" stroke-width="1"></path><path fill="#000000" fill-rule="evenodd" d="M25.52592 13.688303999999999C27.338928 17.163888 30.663168 14.292623999999998 32.325792 15.652559999999998C32.477088 15.803903999999998 32.778768 15.501263999999999 32.627952 15.3504C31.267967999999996 13.990464 28.245887999999997 15.199103999999998 26.885904 14.443919999999999C26.583264 14.292623999999998 26.281104 13.990464 25.978944 13.537439999999998C25.676783999999998 13.2348 25.374623999999997 13.537439999999998 25.52592 13.688736Z" clip-rule="evenodd" stroke-width="1"></path><path fill="#000000" fill-rule="evenodd" d="M22.654656 14.1408C21.748176 15.501263999999999 19.179119999999998 15.652559999999998 18.121776 16.559088C17.819135999999997 16.861248 17.214816 17.465568 17.516975999999996 17.616864C17.819616 17.768207999999998 17.668271999999998 17.314224 18.423936 17.012064C19.330416 16.559088 22.352496 16.559088 23.10816 14.292623999999998C23.259456 14.141279999999998 22.805519999999998 13.989984 22.654656 14.141279999999998Z" clip-rule="evenodd" stroke-width="1"></path><path fill="#000000" fill-rule="evenodd" d="M23.71248 18.221663999999997C23.410320000000002 20.488128 23.71248 20.488128 23.561183999999997 21.243312C23.410320000000002 21.545952 23.863823999999997 21.696768 24.01512 21.394607999999998C24.61944 20.185968 24.61944 19.430352 24.31728 18.221663999999997C24.165983999999998 17.767728 23.71248 17.919024 23.71248 18.221663999999997Z" clip-rule="evenodd" stroke-width="1"></path><path fill="#000000" fill-rule="evenodd" d="M23.561663999999997 23.962752000000002C24.31728 24.265392 25.072463999999997 23.962752000000002 25.52592 23.509776000000002C25.677264 23.811935999999996 25.82808 23.963231999999998 25.979424 23.811935999999996C26.281584 23.660592 26.13072 23.509296 25.82808 22.905407999999998C25.676783999999998 22.754112 25.525439999999996 22.754112 25.374623999999997 22.905407999999998C24.9216 23.358432 24.01464 23.509776000000002 23.410320000000002 23.056752C23.259024 22.905407999999998 22.957296 22.905407999999998 22.806 23.056752C22.503359999999997 22.602815999999997 22.806 22.300655999999996 22.503359999999997 22.300655999999996C22.050336 22.149312 22.050336 23.056272 22.20168 23.358432C22.654656 23.812416 23.259456 24.265392 23.561616 23.962752000000002Z" clip-rule="evenodd" stroke-width="1"></path><path fill="#000000" fill-rule="evenodd" d="M26.734607999999998 21.848112C26.885904 22.150271999999998 26.885904 22.603248 26.885904 22.905887999999997C26.885904 23.358912 26.885904 23.661072 26.432447999999997 23.812416C26.13024 23.812416 26.13024 24.265871999999998 26.432447999999997 24.265871999999998C27.792384 24.265871999999998 28.094544 22.603248 27.037247999999998 21.696768C27.037247999999998 21.394607999999998 26.583264 21.696768 26.734607999999998 21.848112Z" clip-rule="evenodd" stroke-width="1"></path><path fill="#000000" fill-rule="evenodd" d="M28.699344 27.89184C27.943727999999997 27.589679999999998 27.188064 27.136656 26.4324 26.985359999999996C25.979424 26.985359999999996 25.82808 27.136656 25.52592 27.136656C25.374623999999997 27.136656 25.072463999999997 26.834016000000002 24.61944 27.136656C24.468144 27.136656 24.9216 26.985359999999996 23.410320000000002 27.740976C22.806 28.043136 22.655136 29.705280000000002 25.374623999999997 29.554416C26.583744 29.554416 28.094544 29.554416 28.850208 28.949616C29.303664 28.647456 29.303664 28.345296 29.303664 28.043136C29.152368 28.043136 29.001023999999997 28.043136 28.699344 27.89184ZM26.281584 27.740496C25.978944 27.89184 25.82808 28.043136 25.374623999999997 28.043136C24.770304 28.043136 25.52592 27.740496 23.863775999999998 28.49664C23.863775999999998 28.7988 24.61944 28.7988 26.4324 28.7988C26.885904 28.7988 28.548047999999998 28.950096 28.699344 28.345296C27.94368 28.194 26.734560000000002 27.589679999999998 26.281584 27.740976Z" clip-rule="evenodd" stroke-width="1"></path><path fill="#000000" fill-rule="evenodd" d="M27.641567999999996 18.221183999999997C28.094544 17.918544 28.397184 17.767728 28.699344 17.616864C30.210144 18.069888 32.174927999999994 17.616864 32.023632 17.163408C31.872287999999998 16.860768 31.720992000000003 17.163408 30.512352 17.163408C27.943727999999997 17.012064 29.152368 16.105584 27.339408 17.919024C27.188064 18.070368 27.490704 18.372048 27.641567999999996 18.221183999999997Z" clip-rule="evenodd" stroke-width="1"></path><path fill="#000000" fill-rule="evenodd" d="M29.756687999999997 17.616864C29.605824 17.919503999999996 29.605824 18.221183999999997 29.907984 18.523343999999998C30.361488 18.977327999999996 31.117151999999997 18.523343999999998 31.117151999999997 17.919024C31.117151999999997 17.163408 30.059328 17.012544 29.756687999999997 17.616864Z" clip-rule="evenodd" stroke-width="1"></path><path fill="#000000" fill-rule="evenodd" d="M28.548047999999998 18.523823999999998C29.756687999999997 19.732463999999997 31.720992000000003 18.977327999999996 31.872287999999998 17.466047999999997C32.023632 17.163408 31.570128 17.012544 31.418832 17.314704C31.267488 17.617344 30.814511999999997 18.070368 30.210192 18.221663999999997C29.152368 18.523823999999998 28.548047999999998 17.919024 28.396703999999996 18.221663999999997C28.396703999999996 18.221663999999997 28.396703999999996 18.373008 28.548047999999998 18.523823999999998Z" clip-rule="evenodd" stroke-width="1"></path><path fill="#000000" fill-rule="evenodd" d="M32.023632 18.825984C32.174927999999994 18.523343999999998 31.720992000000003 18.372048 31.570128 18.523343999999998C31.267488 18.977327999999996 30.663648 19.279008 30.058847999999998 19.279008C28.548047999999998 19.430352 28.245887999999997 18.523343999999998 28.094544 18.825984C27.490223999999998 19.581167999999998 30.814511999999997 21.545952 32.023632 18.825984Z" clip-rule="evenodd" stroke-width="1"></path><path fill="#000000" fill-rule="evenodd" d="M32.136144 31.329599999999996C29.573232 35.006112 26.231471999999997 37.123152 22.888752 34.114752C21.551952 32.889552 20.660592 31.106879999999997 19.769232 29.546879999999998C20.549471999999998 29.7696 20.994912 28.5444 21.217632000000002 28.09848C22.108992 26.761680000000002 23.223072 25.647599999999997 24.783071999999997 25.20168C24.783071999999997 25.424879999999998 24.894192 25.75872 24.894192 25.98192C23.334672 26.538959999999996 21.440352 28.5444 21.663072 29.881199999999996C21.886272 31.106879999999997 23.445791999999997 31.998191999999996 24.559872000000002 32.332511999999994C26.008271999999998 32.777952 25.228512 30.772080000000003 26.008271999999998 30.995279999999998C26.342592 31.106879999999997 26.565312 31.552319999999995 26.788511999999997 31.886639999999996C27.456671999999998 33.000672 29.573711999999997 31.775039999999997 30.019152000000002 30.66096C30.465024 29.43576 29.907984 27.541439999999998 28.793472 26.873279999999998C28.236431999999997 26.42736 27.456671999999998 26.316239999999997 26.788511999999997 26.09304C25.673952 25.647599999999997 25.785552 25.09056 26.342592 24.978959999999997C27.122832 24.867839999999998 29.462111999999998 25.7592 30.576192 27.65304C31.133232 28.65552 31.133232 30.215519999999998 32.136144 31.329599999999996Z" clip-rule="evenodd" stroke-width="1"></path><path fill="#000000" fill-rule="evenodd" d="M32.247263999999994 31.106879999999997C30.910463999999997 29.658479999999997 31.579103999999997 27.65304 29.462063999999998 25.87032C28.682304000000002 25.20168 27.568272 24.644640000000003 26.899632 24.53352C25.785552 24.31032 25.116912 25.09056 25.897152 25.75872C26.899632 26.65008 28.793903999999998 26.09304 29.573664 28.4328C30.019104 29.7696 29.685263999999997 30.54984 28.905071999999997 31.106879999999997C28.571184 31.440719999999995 27.790992 31.775039999999997 27.345552 31.663919999999997C26.899632 31.552319999999995 26.899632 30.995279999999998 26.565312 30.66144C26.231471999999997 30.32664 25.785552 30.215519999999998 25.451232 30.54984C25.005792 30.883679999999995 25.117392 31.663919999999997 25.005792 31.775039999999997C24.783071999999997 31.886639999999996 22.331712 30.883679999999995 22.108992 29.658479999999997C21.886272 28.656 23.557392 26.761680000000002 25.005792 26.20464C25.340111999999998 26.09304 25.340111999999998 25.87032 25.228512 24.978959999999997C25.228512 24.75624 24.894192 24.53352 24.671471999999998 24.644640000000003C23.111952 25.09056 21.774672 26.09304 20.883792 27.764159999999997C20.660592 28.09848 20.326272 29.212559999999996 19.880831999999998 29.10144C19.546512 28.989839999999997 19.212191999999998 29.32368 19.434912 29.658479999999997C21.106512 32.220912 21.551952 34.003152 24.226032 35.340432C27.457104 36.899952 30.353424 34.449072 32.359344 31.440672C32.359344 31.329552000000003 32.359344 31.218431999999996 32.247744 31.106831999999997ZM31.913424 31.329120000000003C30.353424 29.546879999999998 31.244784 26.7612 27.568272 25.4244C27.233952 25.31328 26.565792 24.978959999999997 26.231471999999997 25.20216C26.454192 25.536 27.456671999999998 25.75872 28.348032 26.09304C30.465024 26.9844 31.467503999999998 30.103920000000002 29.462063999999998 31.775039999999997C28.905024 32.220912 28.013711999999998 32.77752 27.233952 32.555232000000004C26.453712 32.332032 26.342592 31.775039999999997 26.119872 31.440719999999995C25.785552 30.883679999999995 26.119872 32.109312 25.451232 32.555232000000004C24.448752 33.223392 18.432432 30.549792 23.000352 26.538959999999996C21.329231999999998 27.87576 21.217632000000002 29.43528 20.326272 29.7696L21.663552 32.109312C24.226032 36.120191999999996 28.014143999999998 36.677232 31.913424 31.329120000000003Z" clip-rule="evenodd" stroke-width="1"></path><path fill="#000000" fill-rule="evenodd" d="M19.179551999999997 18.976848C19.632576 18.674208 20.236896 18.372048 20.690399999999997 18.221183999999997C21.748176 17.767728 21.294719999999998 17.918544 22.050336 18.372528C22.352975999999998 18.523343999999998 22.806 18.825552000000002 22.956864 18.523343999999998C23.10816 18.220751999999997 22.805519999999998 18.372048 22.352543999999998 17.919024C21.89904 17.314224 21.89904 17.012064 21.446016 17.012064C20.236896 17.163408 19.632576 17.616864 18.726096000000002 18.523343999999998C18.726096000000002 18.825552000000002 19.028256 19.127712 19.179551999999997 18.976848Z" clip-rule="evenodd" stroke-width="1"></path><path fill="#000000" fill-rule="evenodd" d="M22.050336 18.523343999999998C22.654656 17.767728 21.143856 17.012064 20.841696 18.069888C20.690399999999997 18.825552000000002 21.59688 18.976848 22.050336 18.523343999999998Z" clip-rule="evenodd" stroke-width="1"></path><path fill="#000000" fill-rule="evenodd" d="M22.20168 18.977327999999996C22.50384 18.825984 22.20168 18.372528 22.050336 18.523343999999998C21.748176 18.674688 21.143856 18.674688 20.841696 18.674688C19.633056 18.523343999999998 19.783920000000002 18.070368 19.481711999999998 18.372528C18.877392 18.675168 20.388239999999996 20.336832 22.20168 18.977327999999996Z" clip-rule="evenodd" stroke-width="1"></path><path fill="#000000" fill-rule="evenodd" d="M21.143856 20.034192C20.690399999999997 20.336832 20.539536 20.336832 20.539536 20.487648C20.69088 20.789808 21.446016 20.487648 21.748176 20.487648C22.806 20.185008 23.259456 19.127712 22.956864 18.976368C22.806 18.825072 22.806 18.976368 21.143856 20.034192Z" clip-rule="evenodd" stroke-width="1"></path><path fill="#000000" fill-rule="evenodd" d="M36.556512 17.767728C36.556512 15.652559999999998 36.103536 13.83912 34.138752 12.932640000000001C34.743552 11.1192 34.290096000000005 8.248416 33.080928 6.888431999999999C31.418832 4.923696 29.454527999999996 5.528496 27.188064 6.585792C24.9216 7.643616 24.316799999999997 7.946256 22.50384 7.341456C21.143856 6.888431999999999 20.086032 6.283632 18.725616 7.039296C16.912656 8.097071999999999 16.761792 10.81752 16.459632 12.781343999999999C15.552672000000001 18.372528 16.610976 18.976848 17.063952 21.092447999999997C17.668271999999998 24.265392 16.761312 24.416736 19.783872 29.554416C19.935216 29.856576 20.388239999999996 29.554416 20.236896 29.251776C17.366112 24.265392 18.272592 24.114576 17.819616 20.941152C17.516975999999996 18.674688 16.459632 18.221183999999997 17.366112 12.932640000000001C17.668751999999998 11.270496 17.819616 8.550576 19.179072 7.794912C20.236896 7.190592 21.294719999999998 7.643616 22.352496 8.097071999999999C26.583744 9.6084 29.756687999999997 4.319328 32.627952 7.341456C33.836592 8.550576 34.138752 11.572656 33.534431999999995 12.932640000000001C33.080928 14.141279999999998 36.858672 12.32832 35.800896 20.034672C35.800896 20.488128 36.254832 20.487648 36.405696 20.185968C36.858672 18.674688 37.765632 15.954768 38.67216 15.652559999999998C38.9748 15.501263999999999 39.125616 15.954768 39.27647999999999 16.256928C39.729936 17.767728 38.37 21.394607999999998 37.010016 22.452431999999998C36.405696 22.905456 36.103536 22.603727999999997 36.103536 22.905456C36.103536 23.509776000000002 38.218656 23.208047999999998 39.57912 19.279008C39.880799999999994 18.372528 40.183440000000004 17.012544 39.880799999999994 16.106064C39.729456 15.501263999999999 39.27647999999999 14.896944 38.520815999999996 15.199103999999998C37.462992 15.501743999999999 36.858672 16.861248 36.556512 17.767728Z" clip-rule="evenodd" stroke-width="1"></path><path fill="#000000" fill-rule="evenodd" d="M32.325792 31.51872C36.556512 26.683632 37.161311999999995 26.683632 36.556512 22.905887999999997C36.556512 22.754592 36.405215999999996 22.754592 36.254352 22.754592C35.650031999999996 22.905887999999997 36.859152 24.719376 35.197008 26.834495999999998C34.441392 27.741456 34.139232 27.89232 33.232272 29.252256C32.779247999999995 29.856576 32.476608 30.460895999999998 32.023632 31.216559999999998C31.872287999999998 31.5192 32.174927999999994 31.820879999999995 32.325792 31.5192Z" clip-rule="evenodd" stroke-width="1"></path><path fill="#000000" fill-rule="evenodd" d="M34.290048 21.243312L33.383568 22.149792C32.929632 22.603248 32.476608 23.207616 32.174448 23.509776000000002C31.872287999999998 23.661072 32.174448 24.114095999999996 32.477088 23.812416C33.836592 23.207136 34.290048 22.451952 34.592208 21.394128C34.743552 21.091968 34.440912000000004 20.941152 34.289616 21.242831999999996Z" clip-rule="evenodd" stroke-width="1"></path><path fill="#000000" fill-rule="evenodd" d="M20.388239999999996 12.177024C21.2952 12.02568 21.89952 11.724 22.806 11.724C23.561663999999997 11.724 24.31728 11.875296 25.072463999999997 11.875296C26.13024 11.724 27.339408 11.42136 28.396703999999996 11.875296C28.699344 12.02616 28.850688 11.572656 28.548047999999998 11.42136C27.339408 10.817039999999999 26.281584 10.968335999999999 24.92112 11.1192C24.165983999999998 11.1192 23.410320000000002 10.967856 22.655136 11.1192C21.748176 11.270496 20.992559999999997 11.572656 20.08608 11.874816C19.934736 11.723519999999999 20.08608 12.177456000000001 20.38872 12.177456000000001Z" clip-rule="evenodd" stroke-width="1"></path><path fill="#000000" fill-rule="evenodd" d="M22.050336 12.932640000000001C23.561616 13.083984 23.259456 12.932640000000001 24.165936 12.932640000000001C24.468576 12.932640000000001 24.468576 12.479184 24.165936 12.479184C22.957296 12.177024 22.655136 12.32832 21.89952 12.479184C21.59688 12.479184 21.748176 12.933119999999999 22.050815999999998 12.933119999999999Z" clip-rule="evenodd" stroke-width="1"></path><path fill="#000000" fill-rule="evenodd" d="M24.468144 30.763536C25.22376 31.367904 26.13024 31.5192 26.885904 31.065743999999995C27.188064 30.9144 27.641567999999996 30.61224 27.943727999999997 30.9144C28.095024 31.065743999999995 28.396703999999996 30.763104 28.245887999999997 30.61224C27.490223999999998 29.705759999999998 26.281584 30.91488 24.618959999999998 30.31008C24.468144 30.158735999999998 24.165983999999998 30.61272 24.468144 30.763536Z" clip-rule="evenodd" stroke-width="1"></path><path fill="#000000" fill-rule="evenodd" d="M3.3134399999999995 42.247152C3.766416 41.189375999999996 7.8463199999999995 42.851952 9.055488 40.736352000000004C9.357648 40.132032 9.206784 39.527232 8.601984 39.074208C7.54416 38.469888 4.3712159999999995 38.620752 3.766416 38.620752C3.162096 38.772048 2.4064799999999997 39.074208 1.953456 39.376368C-0.313488 40.887216 0.593472 43.154112 1.046496 45.571439999999996C1.046496 45.722736 1.1978399999999998 45.722736 1.3491360000000001 45.722736C1.80216 45.722736 1.046496 43.909776 1.1978399999999998 42.247152C1.1978399999999998 41.038512 1.6512959999999999 40.434191999999996 2.557776 39.980687999999994C3.464256 39.527232 3.766416 39.376368 4.219919999999999 39.376368C5.42856 39.376368 9.055488 39.225072000000004 8.450688 40.282848C7.997663999999999 41.189375999999996 5.882064 41.189808 4.82424 41.189808C3.9177600000000004 41.189808 3.162096 41.189808 2.859936 41.944992C2.859936 42.398496 3.162576 42.549792 3.3134399999999995 42.247631999999996Z" clip-rule="evenodd" stroke-width="1"></path><path fill="#000000" fill-rule="evenodd" d="M3.61512 39.376368C6.788543999999999 34.389984 14.193167999999998 39.073727999999996 12.530591999999999 39.980687999999994C11.321904 40.585007999999995 10.02672 39.527232 8.666784 39.376368C8.364144 39.376368 8.364144 39.829871999999995 8.666784 39.829871999999995C10.02672 39.981168 11.321904 41.340672 12.832752 40.585007999999995C16.156992000000002 39.074208 7.090704 32.72736 3.162576 39.074208C3.01128 39.376368 3.464256 39.678528 3.6155999999999997 39.376368Z" clip-rule="evenodd" stroke-width="1"></path><path fill="#000000" fill-rule="evenodd" d="M5.579904 38.922912C5.579904 39.22555199999999 6.03288 39.074208 6.03288 38.771568C6.03288 38.318543999999996 6.33552 37.714223999999994 6.63768 37.260768C7.090704 36.052127999999996 6.184224 35.749968 5.42856 36.656448C4.82424 37.412064 4.82424 38.167728 5.126399999999999 38.772048C5.126399999999999 39.225072000000004 5.42904 39.225504 5.579904 38.923344ZM5.882064 36.958608C5.882064 36.807263999999996 5.882064 36.807263999999996 5.882064 36.958608C5.882064 36.807263999999996 5.73072 36.807263999999996 5.882064 36.958608Z" clip-rule="evenodd" stroke-width="1"></path><path fill="#000000" fill-rule="evenodd" d="M5.42856 37.713792000000005C6.03288 36.807263999999996 6.63768 35.749488 7.54416 35.295984C9.357648 34.389504 12.832752 35.598623999999994 14.344032 36.807263999999996C14.797488 37.260768 17.214816 37.865088 16.459632 38.469407999999994C16.156992000000002 38.772048 15.552672000000001 38.772048 15.099647999999998 38.772048C14.041872 38.772048 13.437071999999999 38.166768 13.286208 38.620703999999996C13.286208 38.772048 13.286208 38.922912 13.437504 38.922912C14.028623999999999 39.260495999999996 14.479247999999998 39.337104 14.948351999999998 39.375888C16.761792 39.527232 17.970432 38.318112 16.610447999999998 37.260288C16.006128 36.807263999999996 15.250511999999999 36.655968 14.797008 36.202943999999995C13.739664 35.447328 12.077568 34.540848 10.414944 34.238208C6.93936 33.633888 6.03288 35.598623999999994 4.975536 37.411632C4.82424 37.714223999999994 5.277696 38.015952 5.42856 37.714223999999994Z" clip-rule="evenodd" stroke-width="1"></path><path fill="#000000" fill-rule="evenodd" d="M8.299824 34.99430399999999C10.717583999999999 34.087343999999995 12.681887999999999 34.23864 15.099647999999998 35.145648C15.402287999999999 35.296464 17.215296 35.598623999999994 16.913136 35.900784C16.308336 36.505104 14.974368 36.1656 14.520864 36.1656C14.218703999999999 36.1656 14.218703999999999 36.619536 14.520864 36.619536C15.427824 36.7704 15.703968 37.10990399999999 16.762272 36.807263999999996C17.366112 36.655968 17.970912 36.202943999999995 17.668271999999998 35.598623999999994C17.366112 34.692144 16.006176 34.692144 15.401807999999999 34.540848C12.531024 33.332159999999995 10.717583999999999 33.483024 8.14896 34.692144C7.8463199999999995 34.692144 7.997663999999999 35.145168 8.300304 34.99430399999999Z" clip-rule="evenodd" stroke-width="1"></path><path fill="#000000" fill-rule="evenodd" d="M11.775407999999999 42.096336C11.472767999999999 42.851952 10.566288 44.816255999999996 9.659808 45.723215999999994C9.357168 45.87408 9.659808 46.327056 9.962447999999998 46.024896C11.473248 44.967552 12.077568 43.758432 12.228432 42.096336C12.379728 41.793696 11.926224 41.793696 11.775407999999999 42.096336Z" clip-rule="evenodd" stroke-width="1"></path><path fill="#000000" fill-rule="evenodd" d="M11.775407999999999 40.433712C11.624063999999999 41.340672 11.775407999999999 42.398496 12.379728 43.153632C13.286208 44.513616 14.797488 44.060592 15.250992 45.571439999999996C15.553151999999999 46.629216 15.250992 47.082719999999995 15.703968 47.082719999999995C15.855312 47.082719999999995 16.006608 46.931376 16.006608 46.931376C16.459632 42.096287999999994 12.682368 44.967071999999995 12.531024 40.434191999999996C12.228432 40.131552 11.775407999999999 40.131552 11.775407999999999 40.434191999999996Z" clip-rule="evenodd" stroke-width="1"></path><path fill="#000000" fill-rule="evenodd" d="M21.248832 37.537392C19.284527999999998 38.29305599999999 17.621952 37.537392 17.471087999999998 38.141712C17.471087999999998 38.29305599999999 17.471087999999998 38.444351999999995 17.622432 38.444351999999995C18.226752 38.595216 18.982367999999997 38.595216 19.586736 38.746032C22.759679999999996 38.897375999999994 23.515296 36.479568 18.075408 36.479568C17.773248 36.479568 17.773248 36.933071999999996 18.075408 36.933071999999996C20.191056 37.084368 19.888896 36.933071999999996 21.248832 37.537392Z" clip-rule="evenodd" stroke-width="1"></path><path fill="#000000" fill-rule="evenodd" d="M17.366112 35.598144C18.423936 35.598144 21.748176 36.202943999999995 22.352496 37.260288C22.655136 37.714223999999994 22.201199999999996 38.318112 22.050336 38.922912C21.597360000000002 40.433712 20.99304 42.247152 19.783872 43.304975999999996C18.726096000000002 44.36232 17.215296 44.36275199999999 16.912656 46.17576C16.912656 46.4784 17.366591999999997 46.4784 17.366591999999997 46.17576C17.668271999999998 44.36275199999999 19.783920000000002 45.117936 21.597360000000002 42.095856000000005C22.352496 40.887216 23.10816 38.468928 23.10816 38.015952C23.4108 35.749488 19.481232000000002 35.295984 17.215296 35.295984C17.063952 35.144688 17.063952 35.598623999999994 17.366591999999997 35.598623999999994Z" clip-rule="evenodd" stroke-width="1"></path><path fill="#000000" fill-rule="evenodd" d="M16.610496 17.767728C15.855312 16.710383999999998 15.855312 15.652559999999998 15.703968 14.292623999999998C15.552672000000001 13.53696 15.250511999999999 12.932640000000001 15.250511999999999 12.177024C15.250511999999999 11.42184 15.704447999999998 10.51488 16.006176 9.759696C17.063952 5.679792 17.366112 3.564192 25.52592 2.204208C31.419312 1.2977279999999998 32.023151999999996 1.750752 35.650031999999996 4.924128C36.707856 5.830655999999999 37.916495999999995 6.586271999999999 38.521296 7.794912C39.729936 10.061855999999999 39.427775999999994 12.479615999999998 39.57864 15.04824C39.57864 15.803903999999998 39.88128 16.559088 39.88128 17.163888C39.88128 17.919024 39.729936 18.674688 39.88128 19.430304C40.032576 20.488128 40.78776 21.545952 40.78776 22.603248C40.78776 23.510208 40.032095999999996 24.265392 40.032095999999996 25.172352C39.880799999999994 25.928016 40.334736 26.380992 40.4856 27.136656C40.4856 27.439296 40.939055999999994 27.439296 40.939055999999994 27.136656C40.939055999999994 26.532336 40.485119999999995 25.928016 40.636416 25.323695999999998C40.78776 24.416736 41.543375999999995 23.812416 41.543375999999995 22.754592C41.543375999999995 21.545952 40.636416 20.638992 40.636416 19.581647999999998C40.636416 18.825984 40.78776 18.070368 40.636416 17.314704C40.636416 16.559568 40.334256 15.803903999999998 40.334256 15.04824C40.18296 12.479184 40.4856 9.910559999999998 39.27647999999999 7.492751999999999C38.521296 6.132816 37.463472 5.377152000000001 36.254832 4.319807999999999C32.325312 0.995568 31.570128 0.390768 25.374623999999997 1.297248C22.654656 1.7511839999999999 20.237376 2.204208 18.121776 3.866352C16.006128 5.528496 15.855312 7.190592 15.401807999999999 9.6084C15.250511999999999 10.51488 14.552544 11.561328 14.703888 12.468288C14.703888 13.223952 15.250511999999999 13.916208 15.250511999999999 14.671872C15.553151999999999 16.031807999999998 15.099168 16.744416 16.006128 17.953103999999996C16.157472 18.255744 16.912656 17.919024 16.610447999999998 17.768207999999998Z" clip-rule="evenodd" stroke-width="1"></path><path fill="#000000" fill-rule="evenodd" d="M38.823456 23.510208C39.125616 24.719376 37.765632 26.230176 39.729936 27.741456C39.88128 27.892752 40.334256 27.590111999999998 40.032095999999996 27.438816C38.97432 26.079311999999998 39.729456 25.474991999999997 39.57864 24.265871999999998C39.27647999999999 22.755072 38.67216 23.208047999999998 38.823456 23.510208Z" clip-rule="evenodd" stroke-width="1"></path><path fill="#000000" fill-rule="evenodd" d="M37.312176 24.265871999999998C37.463472 25.172352 37.010016 26.985791999999996 38.521296 28.043616C38.672639999999994 28.19496 38.97432 27.89232 38.823456 27.740976C38.520815999999996 27.287951999999997 38.37 26.834975999999997 38.218656 26.230176C38.218656 25.928016 37.916495999999995 23.661551999999997 37.463472 23.812848C37.312176 24.115008 37.312176 24.115008 37.312176 24.265871999999998Z" clip-rule="evenodd" stroke-width="1"></path><path fill="#000000" fill-rule="evenodd" d="M36.405696 26.532336C36.254352 27.439296 36.405696 28.043616 37.161311999999995 28.647935999999998C37.312656 28.950575999999998 37.765632 28.647935999999998 37.463472 28.345296C37.312176 28.043616 37.312176 27.59016 37.160832 27.136656C37.010016 26.834495999999998 36.859152 26.532336 36.859152 26.381472C36.859152 26.078832 36.405696 26.230176 36.405696 26.532815999999997Z" clip-rule="evenodd" stroke-width="1"></path><path fill="#000000" fill-rule="evenodd" d="M17.41008 21.147312C17.712719999999997 23.111615999999998 18.165744 23.715936 19.223568 25.378511999999997C19.374864 25.680719999999997 19.827888 25.378511999999997 19.677024 25.227216C17.561424 20.542991999999998 18.165744 21.902928 17.863584 21.147312C17.71224 20.693807999999997 17.41008 20.845152 17.41008 21.147312Z" clip-rule="evenodd" stroke-width="1"></path><path fill="#000000" fill-rule="evenodd" d="M35.650031999999996 26.985791999999996C35.952672 29.10096 34.743552 30.461375999999998 33.383568 32.12352C30.663648 35.145168 30.663648 35.749968 29.454527999999996 37.260768C27.33936 39.678528 25.52592 39.527712 24.165936 38.016432C22.20168 35.900784 23.259456 34.238688 22.654656 34.087824C22.050336 34.087824 22.352496 37.412064 24.31728 39.074208C26.281584 40.585488 28.397184 39.678528 30.059328 37.865567999999996C30.965808 36.807744 31.721472 35.598623999999994 32.476608 34.692624C34.290048 32.274384 36.707856 30.31008 36.103536 27.136656C36.103536 26.532336 35.650031999999996 26.683632 35.650031999999996 26.985359999999996Z" clip-rule="evenodd" stroke-width="1"></path><path fill="#000000" fill-rule="evenodd" d="M39.88128 45.722736C40.183440000000004 43.758432 39.125616 42.398496 38.97432 40.434191999999996C38.822976000000004 38.167728 40.938576000000005 37.261248 38.218656 29.40312C40.4856 30.61224 42.752064 31.216559999999998 45.169824 31.51872C45.471984 31.51872 45.471984 31.065264 45.169824 31.065264C42.147743999999996 30.61224 39.88128 29.705759999999998 37.614336 28.345775999999997C37.312176 28.19448 37.010016 28.49712 37.010016 28.7988C40.032095999999996 37.412064 37.916495999999995 38.167728 38.067792 40.585007999999995C38.219136 42.398496 39.427775999999994 44.060592 39.125616 45.722736C39.427775999999994 45.87408 39.88128 46.025376 39.88128 45.722736Z" clip-rule="evenodd" stroke-width="1"></path><path fill="#000000" fill-rule="evenodd" d="M20.237376 30.9144C13.739712 34.99430399999999 14.948351999999998 34.238688 14.646192 34.389984C14.344032 34.54128 14.646192 34.99430399999999 14.797488 34.84344C17.668271999999998 33.785664 18.726096000000002 32.878704 20.539536 31.367904C20.69088 31.216559999999998 20.388239999999996 30.763536 20.236896 30.9144Z" clip-rule="evenodd" stroke-width="1"></path><path fill="#000000" fill-rule="evenodd" d="M20.99304 32.576063999999995C20.388239999999996 33.482544000000004 19.934736 34.087343999999995 19.934736 35.447328C19.934736 35.749488 20.38872 35.749488 20.38872 35.447328C20.539536 34.993824000000004 20.992559999999997 34.389504 21.446016 32.72736C21.597360000000002 32.576063999999995 21.143375999999996 32.273904 20.992559999999997 32.576063999999995Z" clip-rule="evenodd" stroke-width="1"></path><path fill="#000000" fill-rule="evenodd" d="M23.259456 39.527712C25.22376 44.211935999999994 29.455008 40.283328 31.570128 40.736352000000004C32.477088 41.038992 30.814463999999997 43.003248 28.397184 43.003248C26.583744 43.003248 25.072944 42.096287999999994 23.863775999999998 42.549312C22.806 42.851952 22.655136 44.060592 23.410320000000002 44.816255999999996C25.82808 47.68752 32.476608 43.305408 31.419264 45.421056C30.512304 47.234016 27.641088 46.176192 25.677264 46.025376C25.22376 46.025376 23.863775999999998 46.025376 24.01512 46.327535999999995C24.166415999999998 46.629696 24.31728 46.327535999999995 25.677264 46.478832C27.0372 46.629696 28.548047999999998 47.0832 29.907984 46.931855999999996C32.325792 46.629216 32.930112 44.211935999999994 31.267967999999996 44.060592C30.059328 43.909296 25.979424 46.025376 24.165936 44.363231999999996C23.71248 43.909296 23.561616 43.305456 24.31728 43.154112C25.22376 43.002816 26.885904 43.758911999999995 28.548047999999998 43.758911999999995C32.325792 43.758911999999995 34.290048 39.980687999999994 31.419264 39.829871999999995C29.001504 39.829871999999995 25.52592 43.154112 23.863775999999998 39.22555199999999C23.561136 39.074208 23.10816 39.22555199999999 23.259456 39.527712Z" clip-rule="evenodd" stroke-width="1"></path><path fill="#000000" fill-rule="evenodd" d="M21.59688 40.585007999999995C21.59688 42.096287999999994 21.143856 43.304975999999996 21.748176 46.024896C21.748176 46.327535999999995 22.20168 46.327535999999995 22.20168 46.024896C22.20168 44.060592 22.50384 43.154112 22.050336 40.585007999999995C22.050336 40.282848 21.59688 40.282848 21.59688 40.585007999999995Z" clip-rule="evenodd" stroke-width="1"></path><path fill="#000000" fill-rule="evenodd" d="M32.930112 45.571439999999996C33.987888 42.700655999999995 37.160832 39.829392 38.37 36.354288C39.125616 34.5408 39.125616 31.367423999999996 38.521296 31.51872C37.916495999999995 31.670063999999996 39.125616 32.878704 37.614336 36.052127999999996C36.254352 39.376368 33.836592 41.340672 32.325792 45.420576C32.477088 45.722736 32.778768 45.873599999999996 32.930112 45.571872Z" clip-rule="evenodd" stroke-width="1"></path><path fill="#000000" fill-rule="evenodd" d="M40.78728 41.189327999999996C39.125616 41.642832 39.427775999999994 43.304975999999996 40.334256 43.909296C40.032095999999996 44.967071999999995 41.241216 46.024896 42.449856 45.117936L42.752496 44.815776C42.90336 45.118416 43.20552 45.269712 43.50768 45.269712S43.961135999999996 44.967071999999995 43.659023999999995 44.815776C43.20504 44.664432 43.356384 44.211456 42.90336 44.211456C42.449856 44.211456 41.69424 45.118416 41.241216 44.514096C41.08992 44.36275199999999 41.08992 43.909296 41.08992 44.060112C41.08992 44.060112 41.08992 43.909296 41.241216 43.758432C41.392559999999996 43.455791999999995 41.241216 43.30449599999999 41.241216 43.30449599999999C40.938576000000005 43.002816 40.636416 43.30449599999999 40.4856 42.700607999999995C40.334256 42.247152 40.78776 41.944992 41.241216 41.793648C41.543375999999995 41.642352 41.543375999999995 41.491488 41.543375999999995 41.189327999999996C41.694720000000004 40.282848 42.298559999999995 39.829392 42.90336 40.131552C43.20552 40.282848 43.356384 39.829392 43.054704 39.678528C41.9964 39.225072000000004 40.78776 40.131552 40.78776 41.189327999999996Z" clip-rule="evenodd" stroke-width="1"></path><path fill="#000000" fill-rule="evenodd" d="M46.378463999999994 41.945471999999995C47.285424 42.851952 45.77414399999999 43.154112 45.62328 43.304975999999996C45.320688 43.60761599999999 45.471984 43.909296 45.471984 44.060592C45.320640000000004 44.514096 44.71632 44.664912 44.263344 44.664912C43.960704 44.664912 43.960704 45.118416 44.112 45.118416C45.77414399999999 45.571872 46.076304 44.060592 46.076304 43.758432C46.076304 43.758432 46.374191999999994 43.673807999999994 46.529807999999996 43.607136000000004C47.587584 43.154112 47.889744 41.944992 46.983264 41.189808C47.738448 40.434191999999996 46.983264 38.469888 45.320640000000004 39.074208C44.71632 38.016384 43.054224 39.22555199999999 43.50768 39.527232C43.659023999999995 39.678528 43.809839999999994 39.527232 44.112 39.225072000000004C44.71632 38.922912 44.71632 39.527712 44.867664 39.678528C45.01896 39.981168 45.622848 39.678528 45.77414399999999 39.678528C46.076784 39.678528 46.529807999999996 40.132032 46.227647999999995 40.736352000000004C46.076304 41.189808 45.77414399999999 41.49196799999999 46.378944 41.944992Z" clip-rule="evenodd" stroke-width="1"></path><path fill="#000000" fill-rule="evenodd" d="M44.7168 41.642832C44.516304 41.673072 44.451983999999996 41.605008 44.26286399999999 41.794128C44.112 41.944992 44.112 42.095856000000005 44.26286399999999 42.398016C44.26286399999999 42.851952 43.961184 43.002816 43.809839999999994 43.002816C43.20552 42.851471999999994 43.65854399999999 42.247152 42.752064 42.398016C42.449856 42.247152 42.752064 41.944992 42.90336 41.793696C43.20552 41.642352 42.90336 41.189375999999996 42.600719999999995 41.340672C41.69424 41.793696 41.845536 43.002816 42.90336 43.002816C43.50768 44.513616 45.32111999999999 43.607136000000004 45.169824 42.398016C46.681104 41.491488 45.32111999999999 39.376368 44.112 40.433712C43.809839999999994 40.585007999999995 44.112 41.038512 44.41464 40.736352000000004C44.867664 40.282368 45.471984 41.340672 44.71632 41.642832Z" clip-rule="evenodd" stroke-width="1"></path><path fill="#000000" fill-rule="evenodd" d="M41.543375999999995 45.118416C41.609616 45.394079999999995 41.746704 45.827712 41.9964 46.17576C42.147743999999996 46.4784 42.6012 46.327056 42.450384 46.024896C42.367152 45.640463999999994 42.239472 45.236639999999994 41.9964 44.96712C41.845104 44.664912 41.543375999999995 44.815776 41.543375999999995 45.118416Z" clip-rule="evenodd" stroke-width="1"></path><path fill="#000000" fill-rule="evenodd" d="M46.378463999999994 43.304975999999996C45.925439999999995 44.36275199999999 46.076304 44.36275199999999 46.227168 45.571439999999996C46.227168 45.87408 46.681104 45.87408 46.681104 45.571439999999996C47.134128 44.36275199999999 46.983264 44.211456 46.832448 43.304975999999996C46.832448 43.153632 46.378463999999994 43.002336 46.378463999999994 43.304975999999996Z" clip-rule="evenodd" stroke-width="1"></path></svg>