<svg xmlns="http://www.w3.org/2000/svg" fill="none" viewBox="0 0 48 48" height="48" width="48" id="Leo-Laughing--Streamline-Memes.svg"><desc>Leo Laughing Streamline Element: https://streamlinehq.com</desc><path stroke="#000000" stroke-linecap="round" stroke-linejoin="round" d="M16.6698 8.7095C14.7181 13.0665 15.1263 16.1523 15.6718 20.7362C16.2161 25.319 18.5296 30.8975 21.3388 33.1236C24.1491 35.3497 28.3358 34.1836 30.7743 31.3755C33.2129 28.5652 34.6435 26.1798 34.6966 23.2124C36.1382 22.6603 36.781 21.3315 36.9227 20.7351" stroke-width="1"></path><path stroke="#000000" stroke-linecap="round" stroke-linejoin="round" d="M15.0843 17.9646C13.3029 16.8616 13.3173 14.5724 13.5475 13.5644C13.335 12.77 13.0916 10.6181 13.813 8.3709C14.7136 5.5606 16.9928 3.2294 19.2189 3.4407C20.6506 2.5401 23.566 -0.9584 30.9857 2.5932C38.4064 6.1448 38.1951 11.4977 38.4064 14.0424C38.6188 16.5872 38.725 20.349 39.3612 21.6213C39.8702 22.6392 39.1488 23.7412 38.725 24.1661C38.9541 24.8908 39.2118 26.4453 38.4064 26.8691" stroke-width="1"></path><path stroke="#000000" stroke-linecap="round" stroke-linejoin="round" d="M19.2201 7.7347C22.453 9.0602 26.9052 7.311 28.7064 6.251C30.5099 5.19 31.0919 6.4093 31.3043 8.5302C31.4736 10.2253 31.5864 11.6039 31.6218 12.0818C32.4174 12.3463 34.0814 13.1617 34.3779 14.3068C34.6756 15.452 34.5018 17.3639 34.3779 18.176C34.6435 17.3816 35.4279 15.7064 36.4458 15.3679" stroke-width="1"></path><path stroke="#000000" stroke-linecap="round" stroke-linejoin="round" d="M17.3912 18.8442C18.4976 17.8573 19.5077 17.3993 20.0775 17.4347C20.5312 17.4634 21.1308 17.6338 21.372 17.7168" stroke-width="1"></path><path stroke="#000000" stroke-linecap="round" stroke-linejoin="round" d="M25.354 17.8927C25.9482 17.3063 26.6308 16.8472 27.194 16.8472C27.7583 16.8472 29.1191 17.2842 30.0397 17.5752" stroke-width="1"></path><path stroke="#000000" stroke-linecap="round" stroke-linejoin="round" d="M16.6731 16.2254C19.126 15.9465 19.4801 15.9222 20.4415 15.0614" stroke-width="1"></path><path stroke="#000000" stroke-linecap="round" stroke-linejoin="round" d="M24.7167 14.5812C25.8873 15.3281 25.8873 15.2838 27.7428 15.2174C29.2276 15.1654 29.8925 15.3281 30.0397 15.4166" stroke-width="1"></path><path stroke="#000000" stroke-linecap="round" stroke-linejoin="round" d="M20.166 11.0407C21.2536 10.8681 22.1919 11.2133 22.8347 11.189C23.4764 11.1646 24.1934 10.8924 25.354 11.0407" stroke-width="1"></path><path stroke="#000000" stroke-linecap="round" stroke-linejoin="round" d="M20.8089 12.7202C21.9706 12.7457 22.3656 13.0168 23.1799 12.8685C23.5959 12.7869 24.0176 12.7373 24.4412 12.7202" stroke-width="1"></path><path stroke="#000000" stroke-linecap="round" stroke-linejoin="round" d="M20.0388 17.5055V18.1384" stroke-width="1"></path><path stroke="#000000" stroke-linecap="round" stroke-linejoin="round" d="M28.0891 17.053V17.6869" stroke-width="1"></path><path stroke="#000000" stroke-linecap="round" stroke-linejoin="round" d="M22.5282 18.9261C22.4353 19.8931 22.2738 21.3901 22.0215 21.7121C21.767 22.0351 21.5148 22.3339 21.4915 22.8638" stroke-width="1"></path><path stroke="#000000" stroke-linecap="round" stroke-linejoin="round" d="M21.1928 27.8117C22.2549 27.0461 22.8967 27.2674 23.8836 27.2187C24.8716 27.1689 25.6373 26.65 27.3666 27.4156C26.477 28.5276 26.1562 29.021 24.3538 29.145C22.911 29.2434 22.2594 29.0354 22.1686 28.896" stroke-width="1"></path><path stroke="#000000" stroke-linecap="round" stroke-linejoin="round" d="M23.1025 23.8297C24.4257 23.9869 24.3859 22.9999 25.3529 23.3949" stroke-width="1"></path><path fill="#000000" stroke="#000000" stroke-linecap="round" stroke-linejoin="round" d="M24.938 25.3057L24.73 26.7529L27.0712 27.1025H27.2637C27.6288 27.3946 28.4398 28.3063 28.7695 29.6251C29.1811 31.2737 28.7695 32.2783 27.9154 32.6003C27.0612 32.9211 26.3077 32.5195 25.6649 31.5946C24.8926 31.9154 23.7088 31.8866 23.2131 31.8313C22.7484 32.3148 21.6508 33.0816 20.9616 32.2783C20.0997 31.2737 20.1981 29.9869 20.4792 28.8208C20.7038 27.8892 21.9097 27.2873 22.484 27.1025C22.349 26.6165 22.1732 26.1427 21.9584 25.6863C20.8188 26.3579 18.5374 28.0242 19.2322 30.726C19.7213 32.6291 21.3366 34.7279 22.7506 35.4902C24.1635 36.2515 25.7512 36.4639 27.7273 34.6881C29.9147 32.7231 30.1747 31.4552 30.2311 30.726C30.2864 29.9958 29.752 28.1282 28.7706 26.754C27.9851 25.6531 25.8718 25.4174 24.938 25.3046Z" stroke-width="1"></path><path stroke="#000000" stroke-linecap="round" stroke-linejoin="round" d="M34.7209 25.5358C35.0019 26.6301 35.5552 29.0022 35.5209 29.7424C35.4788 30.6685 32.0711 34.2013 30.7257 34.7069" stroke-width="1"></path><path stroke="#000000" stroke-linecap="round" stroke-linejoin="round" d="M35.3527 28.0607C37.456 30.2481 41.9569 30.7791 43.0511 31.3832C44.9287 32.4211 46.3217 34.0143 46.7012 34.926" stroke-width="1"></path><path stroke="#000000" stroke-linecap="round" stroke-linejoin="round" d="M2.7301 37.6422C2.7754 36.5247 3.3242 35.7713 4.0998 35.8852C4.0544 34.469 4.8522 33.5795 6.0858 33.4887C7.3184 33.3969 11.2439 33.762 12.1335 34.1271C13.0241 34.4923 14.0055 35.4061 13.6625 36.2736C13.3892 36.9673 12.8482 37.11 12.6125 37.0945C12.742 37.5592 12.8825 38.5827 12.4078 38.9666C11.8137 39.4457 11.0835 39.6968 9.2125 39.1491C7.7144 38.711 6.8537 38.5849 6.6102 38.5782C6.785 39.0119 6.9975 39.9834 6.4509 40.4038C5.7649 40.9294 4.5534 40.7866 3.6406 40.6262" stroke-width="1"></path><path stroke="#000000" stroke-linecap="round" stroke-linejoin="round" d="M2.7201 37.609C1.1955 37.9907 0.9908 39.7488 1.6646 41.5368C2.2045 42.9674 3.4924 44.3216 4.0688 44.8206" stroke-width="1"></path><path stroke="#000000" stroke-linecap="round" stroke-linejoin="round" d="M12.5794 37.1189C11.9089 36.2747 9.2999 35.7325 8.0796 35.5677" stroke-width="1"></path><path stroke="#000000" stroke-linecap="round" stroke-linejoin="round" d="M12.9212 34.1393C15.4295 34.0895 18.0838 34.3252 19.0983 34.4491C19.1603 35.4637 19.2466 37.8701 19.0983 39.3848C18.9114 41.279 16.9253 42.3024 16.2737 42.7063C15.6209 43.1101 15.6209 44.8483 15.7149 45.5608C15.8079 46.2756 17.1422 46.7723 18.8184 46.8033C16.5525 46.9892 13.3561 47.0512 11.5559 46.8033C13.511 46.5555 14.2246 46.3685 14.2246 45.344C14.2246 44.3205 14.7524 43.203 13.4169 42.4274C12.0837 41.6507 11.276 41.4958 10.8412 39.6647" stroke-width="1"></path><path stroke="#000000" stroke-linecap="round" stroke-linejoin="round" d="M11.1211 40.9681C10.8755 42.5691 9.093 44.7852 6.5406 45.1703" stroke-width="1"></path><path stroke="#000000" stroke-linecap="round" stroke-linejoin="round" d="M18.5164 29.7214C16.9508 30.4837 15.5357 31.6963 15.0245 32.2086" stroke-width="1"></path><path stroke="#000000" stroke-linecap="round" stroke-linejoin="round" d="M35.3626 30.5933C36.9846 32.6866 37.456 39.179 37.1417 44.3084" stroke-width="1"></path><path stroke="#000000" stroke-linecap="round" stroke-linejoin="round" d="M36.3573 33.1579C34.8913 37.5968 31.6285 43.0703 30.1791 45.251" stroke-width="1"></path><path stroke="#000000" stroke-linecap="round" stroke-linejoin="round" d="M21.3554 37.3048C21.5413 39.4058 21.6807 42.8136 22.2881 45.2875" stroke-width="1"></path><path stroke="#000000" stroke-linecap="round" stroke-linejoin="round" d="M15.0422 37.5426C16.0513 37.5426 17.8315 37.7197 18.9302 37.5426" stroke-width="1"></path></svg>