<svg xmlns="http://www.w3.org/2000/svg" fill="none" viewBox="0 0 48 48" height="48" width="48" id="Nervous-Pepe-Frog--Streamline-Memes.svg"><desc>Nervous Pepe Frog Streamline Element: https://streamlinehq.com</desc><path stroke="#000000" stroke-linecap="round" stroke-linejoin="round" d="m42.234 23.719 3.31 6.716M2.586 13.427 4.45 12.33C4.451 6.073 9.524 1 15.781 1c2.941 0 5.62 1.12 7.634 2.958a9.107 9.107 0 0 1 6.467 -2.684c4.34 0 9.082 2.775 10.014 6.831 3.26 3.194 4.118 5.714 4.323 7.739" stroke-width="1"></path><path stroke="#000000" stroke-linecap="round" stroke-linejoin="round" d="M42.58 34.625c2.9 -0.903 3.845 -2.572 2.9 -4.383 0 0 -3.609 2.611 -14.051 1.998 -4.652 -0.273 -15.852 -2.377 -19.659 -0.555 -2.845 1.362 -3.4 4.698 0.645 5.84 3.158 0.892 2.191 -0.773 17.081 0.892 4.435 0.385 9.231 0.42 12.697 -0.892 1.313 -0.496 2.449 -2.191 0.386 -2.9Z" stroke-width="1"></path><path stroke="#000000" stroke-linecap="round" stroke-linejoin="round" d="M42.773 34.496c-13.02 2.965 -17.532 -0.967 -28.747 0" stroke-width="1"></path><path stroke="#000000" stroke-linecap="round" stroke-linejoin="round" d="M28.904 19.06c0 2.986 -2.178 5.407 -7.41 5.407S9.772 20.897 9.959 19.06c0.186 -1.837 6.303 -5.408 11.535 -5.408s7.41 2.422 7.41 5.408Z" stroke-width="1"></path><path stroke="#000000" stroke-linecap="round" stroke-linejoin="round" d="M2.64 38.502c7.682 3.95 16.9 5.789 26.557 4.17 3.574 -0.599 6.657 -2.228 8.881 -4.219" stroke-width="1"></path><path stroke="#000000" stroke-linecap="round" stroke-linejoin="round" d="M32.438 41.828c2.527 0.548 5.327 2.965 5.823 5.172" stroke-width="1"></path><path stroke="#000000" stroke-linecap="round" stroke-linejoin="round" d="M11.801 10.466c4.006 -3.073 10.37 -2.855 15.028 -0.495 1.373 -1.886 7.873 -2.846 14.343 -0.487" stroke-width="1"></path><path stroke="#000000" stroke-linecap="round" stroke-linejoin="round" d="M22.792 3.43c1.244 1.206 3.53 3.732 3.003 6.102 1.836 0.884 3.688 3.135 3.103 6.928" stroke-width="1"></path><path stroke="#000000" stroke-linecap="round" stroke-linejoin="round" d="M28.356 21.427c0.372 -0.715 0.548 -1.518 0.548 -2.368 0 -0.816 -0.162 -1.59 -0.506 -2.284 2.268 -1.58 6.092 -3.124 9.532 -3.124 5.231 0 7.41 2.422 7.41 5.408 0 2.987 -2.179 5.408 -7.41 5.408 -3.38 0 -7.283 -1.49 -9.574 -3.04Z" stroke-width="1"></path><path stroke="#000000" stroke-linejoin="round" d="M6.55 19.93a2.191 2.191 0 1 1 -4.383 0c0 -1.211 2.191 -4.448 2.191 -4.448s2.192 3.237 2.192 4.447Z" stroke-width="1"></path><path fill="#000000" fill-rule="evenodd" d="M22.091 17.534a1.525 1.525 0 1 0 0 3.05 1.525 1.525 0 0 0 0 -3.05Z" clip-rule="evenodd" stroke-width="1"></path><path fill="#000000" fill-rule="evenodd" d="M39.91 17.534a1.525 1.525 0 1 0 0 3.05 1.525 1.525 0 0 0 0 -3.05Z" clip-rule="evenodd" stroke-width="1"></path></svg>