<svg xmlns="http://www.w3.org/2000/svg" fill="none" viewBox="0 0 48 48" height="48" width="48" id="Nervous-Pepe-Frog-Hand-Drawn--Streamline-Memes.svg"><desc>Nervous Pepe Frog Hand Drawn Streamline Element: https://streamlinehq.com</desc><path fill="#000000" fill-rule="evenodd" d="M31.492704000000003 12.941999999999998C24.166896 11.568432 22.030223999999997 12.78936 18.825216 14.620848C17.756832 15.231311999999999 16.383263999999997 15.841823999999999 15.620111999999999 16.91016C15.009647999999999 17.825855999999998 18.214656 18.436368 19.28304 18.894192C21.26712 19.809935999999997 23.251152 20.87832 25.23528 21.336143999999997C29.661264 22.40448 34.392528 20.725632 33.934656 16.45224C33.782016 14.926032 32.56104 13.247232 32.255808 13.705103999999999C31.950575999999998 14.162927999999999 33.324192 14.162927999999999 33.476831999999995 16.604879999999998C33.782064 20.572992 29.356032 21.794016 25.387871999999998 20.725632C23.403792 20.267808 21.572352 19.199424 19.588272 18.283727999999996C18.672576 17.825855999999998 17.4516 17.673216 16.535856 17.215343999999998C17.146368 16.45224 20.809248 14.468207999999999 20.96184 14.468207999999999C25.998336000000002 11.873664 31.492704000000003 14.162927999999999 31.645296 13.399823999999999C31.797984 13.094592 31.645296 12.941951999999999 31.492704000000003 12.941951999999999Z" clip-rule="evenodd" stroke-width="1"></path><path fill="#000000" fill-rule="evenodd" d="M33.324288 14.773632C35.155728 13.857887999999999 38.818608 13.094783999999999 40.955279999999995 12.942144C41.26056 12.942144 41.26056 12.48432 40.955279999999995 12.48432C38.055504 12.331679999999999 35.308319999999995 12.636911999999999 33.01896 14.315712C32.866367999999994 14.620992 33.01900799999999 14.926271999999999 33.324288 14.773632Z" clip-rule="evenodd" stroke-width="1"></path><path fill="#000000" fill-rule="evenodd" d="M42.93935999999999 13.400015999999999C43.855104 13.552655999999999 44.923392 13.857887999999999 45.533904 14.621039999999999C46.602287999999994 15.536736 47.212751999999995 17.520816 46.144368 18.589199999999998C45.381311999999994 19.352256 44.160335999999994 19.352208 43.091952 19.504848C40.80264 19.962719999999997 35.15568 20.878415999999998 33.476879999999994 18.894384C32.713727999999996 17.97864 32.255903999999994 21.946752 43.244592 20.267951999999998C44.465568 20.11536 45.839135999999996 19.962768 46.75488 19.199616C48.128304 17.826048 47.517984 15.384048 45.991728 14.16312C45.07608 13.400015999999999 44.064192 13.165007999999998 42.995856 13.012368C42.77764799999999 12.981168 42.634128 13.400015999999999 42.93935999999999 13.400015999999999Z" clip-rule="evenodd" stroke-width="1"></path><path fill="#000000" fill-rule="evenodd" d="M42.442032 15.604752C39.896112 15.92304 41.009952 18.628128 42.760272 18.469008C44.51064 18.150768 44.35152 15.28656 42.123839999999994 15.76392L42.442032 15.604752Z" clip-rule="evenodd" stroke-width="1"></path><path fill="#000000" fill-rule="evenodd" d="M42.282864 15.44568C39.418704 15.6048 40.373424 19.264608 42.760223999999994 18.787247999999998C45.147023999999995 18.628128 44.828832 15.12744 42.282864 15.44568ZM42.441984 15.923087999999998C40.532544 16.400448 41.646432 18.150768 42.919344 17.991647999999998C44.033232 17.832528 44.033232 15.763967999999998 42.441984 15.923087999999998Z" clip-rule="evenodd" stroke-width="1"></path><path fill="#000000" fill-rule="evenodd" d="M28.598399999999998 15.445296C26.052432 15.604464 26.529792 18.309552 28.280112 18.468671999999998C29.87136 18.786912 30.985199999999995 16.240896 28.598399999999998 15.445296Z" clip-rule="evenodd" stroke-width="1"></path><path fill="#000000" fill-rule="evenodd" d="M27.802704 15.286464C26.847984 15.445535999999997 26.211551999999998 16.559424 26.688912 17.673264C27.166272 19.105344 29.234783999999998 19.582704 30.030432 18.309696C30.985152000000003 16.718544 29.553072 14.968176 27.802704 15.286464ZM28.598352 15.763776C28.439184 15.763776 28.439184 15.763823999999998 27.961823999999996 15.922896C27.325343999999998 16.082016 27.007103999999998 16.718544 27.325343999999998 17.514143999999998C27.643631999999997 18.309696 28.757423999999997 18.627936 29.393952 17.991504C29.871312 17.195856 29.712144 16.241136 28.598352 15.763776C28.757423999999997 15.763776 28.757423999999997 15.763776 28.598352 15.763776Z" clip-rule="evenodd" stroke-width="1"></path><path fill="#000000" fill-rule="evenodd" d="M10.040688 14.529119999999999C5.309472 18.649872000000002 4.863023999999999 20.902704 3.336816 22.886832C2.4210719999999997 24.107808 1.426464 27.899279999999997 2.0369759999999997 31.562159999999995C2.4947999999999997 34.004112 3.8684160000000003 36.598656 6.6156 38.430144C12.567791999999999 42.398304 20.504064 44.077056 27.52464 42.398255999999996C31.798032000000003 41.48251199999999 36.07142399999999 38.735327999999996 39.734351999999994 36.44601599999999C40.039584 36.293424 39.7344 35.8356 39.581711999999996 35.988192C35.76624 38.124863999999995 31.645391999999998 40.872 27.52464 41.635104C20.656703999999998 43.00872 12.873024 41.32992 7.226063999999999 37.5144C4.78416 35.8356 3.563184 33.546240000000004 2.9527200000000002 31.104288C2.342208 27.899279999999997 3.1052639999999996 24.541584 3.8683680000000003 23.473247999999998C5.394623999999999 21.489168 5.947392 18.930671999999998 10.373376 14.962512C10.373376 14.809919999999998 10.193375999999999 14.22384 10.040688 14.529119999999999Z" clip-rule="evenodd" stroke-width="1"></path><path fill="#000000" fill-rule="evenodd" d="M30.119184 10.50024C29.66136 9.889728 28.745616 4.548 22.335504 4.090128C18.825263999999997 3.784896 15.620207999999998 5.6163359999999996 13.330943999999999 8.210880000000001C9.668016 12.331679999999999 9.362784 17.673408 9.973248 17.673408C10.12584 17.673408 10.12584 17.520768 10.12584 17.520768C10.12584 14.468399999999999 11.652047999999999 11.263295999999999 13.94136 8.821344C19.130496 3.327024 25.84584 4.39536 28.440383999999998 8.51616C28.898207999999997 9.279264 29.203536 10.19496 29.66136 10.958112C29.966592 11.415936 32.408496 11.263295999999999 32.103263999999996 13.400015999999999C32.103263999999996 13.705248000000001 32.561184000000004 13.705248000000001 32.561184000000004 13.400015999999999C32.713775999999996 11.568527999999999 31.645391999999998 10.958064 30.119184 10.500191999999998Z" clip-rule="evenodd" stroke-width="1"></path><path fill="#000000" fill-rule="evenodd" d="M45.228623999999996 13.705584C45.075984 12.026784000000001 43.549776 10.195248000000001 41.870928 10.347888C41.107872 8.821679999999999 40.192128 7.14288 38.66592 6.074544C35.918735999999996 4.090464 31.187472 4.700927999999999 28.592928 6.837648C28.440288 6.990288 28.592928 7.448111999999999 28.89816 7.14288C31.187472 5.31144 35.613456 4.853567999999999 38.208 6.685008C39.581568 7.6007039999999995 40.649952 9.43224 41.260464 10.805807999999999C41.260464 10.9584 41.565696 11.11104 41.718336 10.958448C43.091904 10.500576 44.31288 12.026784000000001 44.770752 13.705584C44.923344 14.010816 45.381216 13.858224 45.228623999999996 13.705584Z" clip-rule="evenodd" stroke-width="1"></path><path fill="#000000" fill-rule="evenodd" d="M31.645296 11.110415999999999C31.492656 11.110415999999999 31.492656 11.263056 31.492656 11.415695999999999C31.645296 11.720976 31.797984 11.415648 33.476784 11.263056C33.629424 11.263056 38.818512 10.805232 38.818512 10.805232C40.649952 10.652592 40.802544000000005 10.957824 40.802544000000005 10.652592C41.107824 9.889488 35.308224 9.88944 31.645296 11.110415999999999Z" clip-rule="evenodd" stroke-width="1"></path><path fill="#000000" fill-rule="evenodd" d="M28.592831999999998 10.195248000000001C23.403744 8.66904 18.977712 9.737376 16.077935999999998 12.026687999999998C15.772655999999998 12.179328 16.077935999999998 12.6372 16.383167999999998 12.331968C19.435584 10.195248000000001 25.082544 9.737376 28.44024 10.50048C28.745472 10.65312 28.898064 10.195248000000001 28.592831999999998 10.195248000000001Z" clip-rule="evenodd" stroke-width="1"></path><path fill="#000000" fill-rule="evenodd" d="M33.018912 20.726159999999997C32.255808 22.252367999999997 29.966496 23.168112 28.287648 23.473343999999997C27.982416 23.473343999999997 27.982416 23.931264 28.287648 23.931264C30.577008 23.931264 32.71368 23.16816 33.324192 20.878800000000002C33.443135999999996 20.432831999999998 33.171552 20.420976 33.018912 20.726159999999997Z" clip-rule="evenodd" stroke-width="1"></path><path fill="#000000" fill-rule="evenodd" d="M29.50872 23.320656C28.440383999999998 24.846864 24.319584 26.22048 23.40384 26.067888C23.098608000000002 26.067888 23.098608000000002 26.52576 23.40384 26.52576C24.472224 26.678352 27.219359999999998 26.06784 28.440336 25.152144C28.898207999999997 24.846912 30.271776 23.473343999999997 29.813903999999997 23.168112C29.661312 23.168112 29.50872 23.320656 29.50872 23.320656Z" clip-rule="evenodd" stroke-width="1"></path><path fill="#000000" fill-rule="evenodd" d="M26.303664 23.168112C24.777456 23.015472 19.588368 20.878752 18.672672000000002 20.878752C18.367392 20.878752 18.367392 21.336624 18.672672000000002 21.336624C18.672672000000002 21.336624 22.640784 23.015424 23.861712 23.473296C26.914175999999998 24.083807999999998 26.761584 23.168112 26.303664 23.168112Z" clip-rule="evenodd" stroke-width="1"></path><path fill="#000000" fill-rule="evenodd" d="M46.602239999999995 18.741456C46.297008 20.725535999999998 43.091952 23.167488 42.176207999999995 23.472768C41.10791999999999 23.930592 43.702464 25.151567999999997 44.618159999999996 29.119728C44.618159999999996 29.42496 45.076032 29.27232 45.076032 28.967088C44.770799999999994 27.1356 44.160335999999994 25.456799999999998 42.93935999999999 23.93064C44.465568 23.167488 46.90752 20.878224 47.060112 18.588863999999997C47.060112 18.588863999999997 46.602239999999995 18.436224 46.602239999999995 18.741456Z" clip-rule="evenodd" stroke-width="1"></path><path fill="#000000" fill-rule="evenodd" d="M40.80264 23.778048C38.971199999999996 23.625456 38.818608 23.625408 36.376656 24.08328C36.07142399999999 24.08328 36.07142399999999 24.541152 36.376656 24.541152C39.123792 24.541152 38.81856 24.541103999999997 40.80264 24.235871999999997C41.10791999999999 24.235871999999997 41.10791999999999 23.778048 40.80264 23.778048Z" clip-rule="evenodd" stroke-width="1"></path><path fill="#000000" fill-rule="evenodd" d="M34.545359999999995 23.625359999999997C37.292496 25.762032 36.834672 25.30416 37.292544 25.762032C37.445184 26.067264 37.90296 25.762032 37.597728 25.456799999999998C36.681984 24.083232 36.071568 23.625359999999997 34.697952 23.167488C34.39272 23.014848 34.24008 23.472768 34.545359999999995 23.625359999999997Z" clip-rule="evenodd" stroke-width="1"></path><path fill="#000000" fill-rule="evenodd" d="M43.702368 33.088032C45.228576000000004 32.172336 46.4496 30.646079999999998 44.923344 29.730336C44.007647999999996 29.272512 42.786672 29.577744 41.870928 29.882976C31.797984 32.93544 27.677135999999997 28.814591999999998 21.572304 28.814591999999998C18.97776 28.814591999999998 15.467471999999999 29.882928 15.467471999999999 32.47752C15.467471999999999 35.224655999999996 18.367247999999996 35.224703999999996 20.96184 35.224703999999996C26.76144 35.072112 32.255808 37.056192 38.055408 36.598271999999994C40.649952 36.445679999999996 44.465472 35.529984 43.702368 33.088032ZM43.244496 33.088032V32.782751999999995C44.465472 32.172287999999995 45.686448 30.798671999999996 44.618064 30.188208C43.855008 29.882928 42.786624 30.188256 42.023520000000005 30.493488C31.950527999999995 33.851088 27.524496 29.730336 21.419712 29.730336C19.282992 29.730336 16.077984 30.493488 16.077984 32.630112C16.077984 34.766831999999994 18.672528 34.614239999999995 20.8092 34.461648000000004C26.608848 34.309008 32.103215999999996 36.445679999999996 37.902768 36.14044799999999C40.192080000000004 35.987856 44.007647999999996 35.224703999999996 43.244496 33.088032Z" clip-rule="evenodd" stroke-width="1"></path><path fill="#000000" fill-rule="evenodd" d="M18.672528 32.47737599999999C25.082591999999998 30.951168 32.4084 35.68248 42.939264 32.935296C43.09185599999999 32.935296 43.091904 32.782607999999996 43.091904 32.630016000000005C42.939264 32.019552000000004 41.870928 33.240528 36.37656 33.087936C28.898111999999998 32.935296 24.472128 30.493343999999997 18.519888 32.019552000000004C18.367247999999996 32.172144 18.367247999999996 32.629968 18.672528 32.47737599999999Z" clip-rule="evenodd" stroke-width="1"></path><path fill="#000000" fill-rule="evenodd" d="M12.567648 32.324976C11.957232000000001 34.15636799999999 12.720287999999998 35.835215999999996 14.246495999999999 36.445679999999996C14.551775999999998 36.598319999999994 14.704416 36.140496 14.399136 35.987856C13.3308 35.224752 12.720287999999998 33.545904 12.872928 32.324976C13.02552 32.172336 12.567648 32.019744 12.567648 32.324976Z" clip-rule="evenodd" stroke-width="1"></path><path fill="#000000" fill-rule="evenodd" d="M6.462911999999999 37.056C2.6473919999999995 37.971695999999994 1.884288 40.413599999999995 0.5107200000000001 43.618703999999994C0.35808 43.923936 0.8159519999999999 44.076575999999996 0.9685439999999998 43.77134399999999C2.494752 41.024208 3.5631359999999996 38.73484799999999 6.615552 37.51387199999999C6.768192 37.51387199999999 6.615504 37.056 6.462911999999999 37.056Z" clip-rule="evenodd" stroke-width="1"></path><path fill="#000000" fill-rule="evenodd" d="M32.713775999999996 40.1088C33.324288 40.719264 36.987168 44.229552 37.292399999999994 43.92432C37.44504 43.771728 37.44504 43.619088 37.292399999999994 43.619088C36.834528 43.008576 36.376656 42.550799999999995 35.918783999999995 42.09288C35.460912 41.635056 33.019056 39.498336 32.713775999999996 39.956255999999996C32.561136 39.956255999999996 32.713775999999996 40.1088 32.713775999999996 40.1088Z" clip-rule="evenodd" stroke-width="1"></path><path fill="#000000" fill-rule="evenodd" d="M12.873071999999999 38.582496C18.52008 40.719167999999996 23.709168 41.940144 29.661408 40.261343999999994C29.966639999999998 40.108703999999996 29.813999999999997 39.80352 29.508767999999996 39.80352C24.624912000000002 41.02449599999999 17.146464 39.498191999999996 13.025664 38.124624C12.873071999999999 38.124624 12.72048 38.42990399999999 12.873071999999999 38.582496Z" clip-rule="evenodd" stroke-width="1"></path><path fill="#000000" fill-rule="evenodd" d="M7.989168 20.420831999999997C7.531296 21.031295999999998 6.920832 21.641807999999997 6.6156 22.557552C6.31032 23.473247999999998 6.46296 24.541584 7.226063999999999 24.846816C8.752272 25.304736000000002 9.668016 22.710192 9.057504 22.710192C8.752272 22.710192 8.904864 23.015424 8.446992 23.625887999999996C7.836576 24.694224 6.6156 24.388992 7.378703999999999 22.710192C7.989216000000001 21.336576 8.818272 20.50968 8.3604 20.357039999999998C8.308272 20.313216 8.0904 20.285951999999998 7.989168 20.420831999999997Z" clip-rule="evenodd" stroke-width="1"></path><path fill="#000000" fill-rule="evenodd" d="M13.483535999999999 13.094831999999998C13.178256 14.31576 11.95728 15.536736 11.652 16.910303999999996C11.041583999999999 18.894432 13.178256 19.810128 14.093952 18.13128C14.246592 17.826048 14.704464 16.757712 14.246592 16.757712C13.94136 16.757712 14.094 17.062991999999998 13.636128 17.673455999999998C13.025616 18.741792 11.957232000000001 18.283920000000002 12.415151999999999 17.215584C12.720384000000001 16.452431999999998 14.551823999999998 13.094831999999998 13.78872 12.942192C13.636128 12.942192 13.483488 12.94224 13.483488 13.094831999999998Z" clip-rule="evenodd" stroke-width="1"></path><path fill="#000000" fill-rule="evenodd" d="M16.841184 7.295472C16.535951999999998 7.6007039999999995 15.925488 8.058623999999998 15.467616000000001 8.516447999999999C15.162384 8.97432 15.009744 9.890063999999999 15.620207999999998 10.195296C16.841184 11.11104 18.367392 8.97432 17.756928 8.669088C17.451696 8.516496 17.451696 8.97432 16.993776 9.2796C16.535951999999998 9.737424 15.620207999999998 9.737424 16.230719999999998 8.669088C16.841184 7.753343999999999 17.451696 7.29552 16.993776 7.14288C17.146416 7.14288 16.993776 7.142832 16.841184 7.295472Z" clip-rule="evenodd" stroke-width="1"></path><path fill="#000000" fill-rule="evenodd" d="M35.766192 7.142256C35.766192 7.752767999999999 35.613504 8.21064 36.071376 8.668464C36.224016 8.973744 36.83448 9.278975999999998 37.292399999999994 9.278975999999998C38.971199999999996 9.278975999999998 37.902816 6.684432 37.444992 6.989663999999999C37.139759999999995 7.142256 37.444992 7.294896 37.597584 7.9054079999999995C37.597584 8.058 37.597584 8.515872 37.444992 8.515872C36.68184 8.515872 36.529247999999995 7.752767999999999 36.529247999999995 7.142256C36.224016 6.8370239999999995 35.766192 6.8370239999999995 35.766192 7.142256Z" clip-rule="evenodd" stroke-width="1"></path><path fill="#000000" fill-rule="evenodd" d="M6.463008 30.035328C6.157775999999999 30.493247999999998 6.005184 30.951071999999996 5.852544 31.408943999999998C5.699952 32.172048 5.852544 33.087792 6.463008 33.393024C7.226112 33.850848 8.141903999999998 32.935152 8.294496 32.172048C8.294496 31.866816 8.447087999999999 30.798479999999998 7.989264 30.798479999999998C7.683983999999999 30.798479999999998 7.836576 31.103664 7.683983999999999 31.866816C7.531344 32.32464 6.920928 33.087792 6.768288 32.629872C6.310415999999999 32.019408 6.615648 30.951071999999996 6.9208799999999995 30.340608C6.9208799999999995 29.882687999999998 6.615648 29.730096 6.463008 30.035376Z" clip-rule="evenodd" stroke-width="1"></path></svg>