<svg xmlns="http://www.w3.org/2000/svg" fill="none" viewBox="0 0 48 48" height="48" width="48" id="Not-Simply-Hand-Drawn--Streamline-Memes.svg"><desc>Not Simply Hand Drawn Streamline Element: https://streamlinehq.com</desc><path fill="#000000" fill-rule="evenodd" d="M15.634848 23.62248C16.6956 23.62248 17.453376 23.925887999999997 20.029776000000002 23.470992C20.333184 23.470992 20.333184 23.016576 20.029776000000002 23.016576C18.362688 23.016576 17.756784 22.713168 15.634848 23.168064C15.180432 23.168064 15.331872 23.62248 15.634848 23.62248Z" clip-rule="evenodd" stroke-width="1"></path><path fill="#000000" fill-rule="evenodd" d="M24.727632 22.258319999999998C25.485456 21.803904 28.516703999999997 20.591232 29.880384 20.136816C30.183791999999997 20.136816 30.183791999999997 19.681919999999998 29.728896 19.681919999999998C27.60744 19.985328 26.24328 20.288736 24.424704 21.803424C24.273216 22.106832 24.576192 22.41024 24.728112 22.258319999999998Z" clip-rule="evenodd" stroke-width="1"></path><path fill="#000000" fill-rule="evenodd" d="M25.788863999999997 23.925887999999997C26.243712 23.016576 27.001056 22.865136 28.517184 22.713168C30.638688 22.41024 31.093055999999997 22.561728 31.093055999999997 22.2588C31.093055999999997 22.107312 30.941615999999996 22.107312 30.790128 22.107312C28.668624 22.107312 25.788863999999997 21.652416 25.333968 23.925887999999997C25.402655999999997 24.077327999999998 25.637376 24.077327999999998 25.788863999999997 23.925887999999997Z" clip-rule="evenodd" stroke-width="1"></path><path fill="#000000" fill-rule="evenodd" d="M27.85248 24.412271999999998C29.368128 24.412271999999998 30.125951999999998 23.502527999999998 30.277392 22.593216C30.42888 22.290287999999997 29.974464 22.138848 29.822543999999997 22.441776C29.519568 23.048112 28.307375999999998 23.805936 27.70104 23.957376C27.549552 23.957376 27.549552 24.411792 27.85248 24.411792Z" clip-rule="evenodd" stroke-width="1"></path><path fill="#000000" fill-rule="evenodd" d="M27.179807999999998 22.406975999999997C26.731056 23.08056 27.741504 23.305439999999997 28.078272 22.856208C28.302672 22.631808 28.078272 22.406975999999997 27.85344 22.294991999999997C27.404688 22.182576 26.731056 22.631808 27.179807999999998 22.406975999999997Z" clip-rule="evenodd" stroke-width="1"></path><path fill="#000000" fill-rule="evenodd" d="M26.896176 22.898544C26.671776 23.684112 27.906575999999998 24.133343999999997 28.467791999999996 23.459712C28.80456 22.898064 28.467791999999996 22.336896 28.018559999999997 22.336896C27.457344 22.112496 26.671343999999998 22.561248 26.896176 22.898544ZM27.79464 22.898544H27.457344V23.010479999999998S27.681744 22.898544 27.794159999999998 22.898544Z" clip-rule="evenodd" stroke-width="1"></path><path fill="#000000" fill-rule="evenodd" d="M26.091791999999998 25.13808C26.394719999999996 25.744895999999997 26.849135999999998 26.047392 27.60744 25.895904C27.910368 25.895904 27.910368 25.441488 27.60744 25.441488C27.455952 25.441488 27.152544 25.13808 26.849616 24.98664C26.621471999999997 24.758495999999997 25.809072 24.572688 26.091791999999998 25.13808Z" clip-rule="evenodd" stroke-width="1"></path><path fill="#000000" fill-rule="evenodd" d="M18.059759999999997 27.411072C19.271952 28.168896 20.333184 27.259583999999997 21.242448 26.198832C21.393936 26.047392 21.091008 25.592496 20.93904 25.895904C20.484623999999997 26.198832 18.817536 27.108144 18.211199999999998 26.956656C17.908272 26.805168 17.756784 27.259583999999997 18.059759999999997 27.411072Z" clip-rule="evenodd" stroke-width="1"></path><path fill="#000000" fill-rule="evenodd" d="M19.272432 25.592496C18.665615999999996 25.743983999999998 17.756784 25.895424 17.150927999999997 25.592496C17.908272 24.531743999999996 19.575359999999996 24.380304 20.787599999999998 24.683232C21.091008 24.834672 21.242448 24.379824 20.93904 24.228336000000002C17.756784 22.864175999999997 15.634848 25.441008 16.392623999999998 25.895424C17.301935999999998 26.653247999999998 18.362688 26.50176 19.423872 25.895424C19.726848 25.895424 19.423872 25.441008 19.272432 25.592496Z" clip-rule="evenodd" stroke-width="1"></path><path fill="#000000" fill-rule="evenodd" d="M18.220128 24.494112C18.097824 25.10376 18.9516 25.10376 19.3176 24.860111999999997C19.561248 24.615935999999998 19.073424 24.372287999999998 18.9516 24.372287999999998C18.341952 24.372287999999998 17.610528 24.860111999999997 18.220128 24.494592Z" clip-rule="evenodd" stroke-width="1"></path><path fill="#000000" fill-rule="evenodd" d="M17.976 24.859631999999998C18.220128 25.835231999999998 20.170896 25.347407999999998 19.683552 24.494112C19.073424 23.396687999999997 17.122704 24.615935999999998 17.976 24.859631999999998ZM18.9516 24.737808C18.9516 24.860111999999997 18.9516 24.860111999999997 18.9516 24.737808Z" clip-rule="evenodd" stroke-width="1"></path><path fill="#000000" fill-rule="evenodd" d="M20.636112 23.77392C21.545376 24.834672 21.090528 27.108144 20.93904 28.471823999999998C20.787599999999998 29.2296 20.332704 30.138911999999998 21.241968 31.048175999999998C23.212463999999997 32.866752 23.818368 31.503072 25.334448 30.59376C25.940303999999998 30.290352 27.152544 29.835936 27.152544 28.774752C27.152544 28.320336 26.698127999999997 27.562511999999998 26.3952 27.865439999999996C26.091791999999998 28.168847999999997 26.698127999999997 28.168847999999997 26.698127999999997 28.774752C26.698127999999997 29.532576 25.636896 29.684496 25.03104 29.987423999999997C24.424704 30.290352 23.970288 30.896687999999997 23.363952 31.048175999999998C22.757616000000002 31.199664000000002 22.3032 30.745247999999997 21.999792 30.44184C21.545376 29.835936 21.848304 29.381088 21.999792 28.471776C22.151712 26.804688 22.454687999999997 24.531743999999996 21.242448 23.319072C20.787552 23.319072 20.484623999999997 23.62248 20.635632 23.77392Z" clip-rule="evenodd" stroke-width="1"></path><path fill="#000000" fill-rule="evenodd" d="M20.636112 32.715743999999994C20.787552 32.412816 20.93904 32.260847999999996 20.93904 31.806479999999997C21.090528 31.351583999999995 21.090528 30.897168 21.242448 30.59376C21.393936 30.290831999999998 20.93904 30.139391999999997 20.787599999999998 30.290831999999998C20.030256 31.200143999999998 20.030256 31.654992 20.181696 32.56430399999999C20.181696 33.018671999999995 20.636112 33.018671999999995 20.636112 32.715743999999994Z" clip-rule="evenodd" stroke-width="1"></path><path fill="#000000" fill-rule="evenodd" d="M29.274527999999997 28.926192C30.941615999999996 29.987423999999997 30.941615999999996 29.987423999999997 32.608703999999996 33.018192C32.760144 33.321168 33.06312 33.16968 33.06312 32.866752C32.608703999999996 31.654031999999997 32.608703999999996 30.593279999999996 31.396031999999998 29.532576C30.790128 28.926192 30.33528 28.926192 29.577455999999998 28.623264C29.12304 28.471823999999998 28.971552 28.926192 29.274527999999997 28.926192Z" clip-rule="evenodd" stroke-width="1"></path><path fill="#000000" fill-rule="evenodd" d="M19.878287999999998 14.07528C21.696863999999998 12.256224 24.121776 17.560896 25.182527999999998 19.076064C25.940352 20.136816 27.001056 21.349487999999997 28.213776 21.652464C28.668191999999998 21.803904 29.880864 21.652464 29.728896 21.198047999999996C29.425967999999997 20.591232 28.213776 22.562208000000002 25.788863999999997 18.621647999999997C25.03104 17.408976 24.273216 15.893375999999998 23.363952 14.681135999999999C22.3032 13.316976 20.636112 12.408144 19.575359999999996 13.620384C19.423872 13.923312000000001 19.726848 14.226719999999998 19.878287999999998 14.07528Z" clip-rule="evenodd" stroke-width="1"></path><path fill="#000000" fill-rule="evenodd" d="M22.758096 12.86256C25.940303999999998 14.07528 26.849616 17.712383999999997 29.274527999999997 20.137296C30.638688 21.501455999999997 32.608703999999996 22.107312 33.972384 20.894640000000003C34.275791999999996 20.743152 33.972384 20.288736 33.669456 20.591711999999998C32.457216 21.500976 30.790128 20.894640000000003 29.728896 19.6824C27.455952 17.257488 26.546688 13.771872 22.757616000000002 12.408192C22.606128 12.408192 22.454687999999997 12.71112 22.757616000000002 12.86256Z" clip-rule="evenodd" stroke-width="1"></path><path fill="#000000" fill-rule="evenodd" d="M25.788863999999997 13.014528C29.12304 13.620384 31.093055999999997 17.257488 34.57872 18.31824C34.57872 23.925407999999997 38.064384 26.199312 37.458048 29.836416C37.155072000000004 32.260847999999996 35.033615999999995 35.140656 37.003632 37.565087999999996C37.458048 38.171904 38.973648 39.232175999999995 39.125136 38.77776C39.277056 38.322911999999995 38.367792 38.62632 37.30656 37.262159999999994C35.336543999999996 34.53432 38.519232 31.654992 38.215824 28.320815999999997C37.761456 24.683712 35.185055999999996 23.168064 35.336543999999996 18.015311999999998C35.336543999999996 17.863872 35.185055999999996 17.712383999999997 35.033615999999995 17.560896C31.699392000000003 16.651632 29.577455999999998 13.014528 25.940784 12.408192C25.485936 12.559632 25.485936 12.86256 25.788863999999997 13.014047999999999Z" clip-rule="evenodd" stroke-width="1"></path><path fill="#000000" fill-rule="evenodd" d="M37.912416 21.803904C40.48881599999999 26.805168 39.88296 28.926672 39.428064 31.503552C38.973648 33.776496 38.973648 36.04992 41.095152 36.807263999999996C41.39807999999999 36.959232 41.550048 36.504336 41.24664 36.352848C39.428064 35.595072 39.730992 33.473568 40.185888 31.503072C40.943232 28.169328 41.39807999999999 26.653247999999998 38.367312 21.349487999999997C38.215824 21.349487999999997 37.760976 21.500976 37.912416 21.803904Z" clip-rule="evenodd" stroke-width="1"></path><path fill="#000000" fill-rule="evenodd" d="M36.548736 15.741888C38.215824 22.864656 42.762719999999995 24.077327999999998 43.065168 28.775232C43.217136 30.59376 41.550048 33.473088000000004 43.671983999999995 34.837248C43.97496 34.988735999999996 44.126400000000004 34.68576 43.97496 34.53384C42.913728 33.776496 43.217136 32.260847999999996 43.520064 31.048175999999998C44.884223999999996 25.289568 40.791743999999994 23.470992 38.367312 18.924623999999998C36.851712 16.196303999999998 37.15512 15.286992 36.700224 15.438959999999998C36.548736 15.590399999999997 36.397296 15.590399999999997 36.548736 15.741888Z" clip-rule="evenodd" stroke-width="1"></path><path fill="#000000" fill-rule="evenodd" d="M21.242448 8.467631999999998C20.636112 9.376896 20.181696 10.589136 21.242448 10.589136C21.091008 10.740624 20.93904 10.892544 20.787599999999998 11.195471999999999C20.636112 11.498399999999998 20.93904 11.649888 21.091008 11.498399999999998C21.848352 10.589136 23.061023999999996 10.286208 22.45512 9.679872C22.3032 9.528383999999999 22.151712 9.679872 22.000272 9.528383999999999C21.545376 9.528383999999999 21.393936 9.831311999999999 21.696863999999998 9.376944C22.30368 8.315712 22.758096 8.315712 22.606128 7.861296C22.454687999999997 7.558368 22.151712 7.558368 22.000272 7.558368C22.606128 6.6491039999999995 23.061023999999996 6.497136 22.757616000000002 6.345696C22.606128 6.194208 22.606128 6.194208 22.454687999999997 6.345696L21.545376 7.25496C21.09096 7.558368 20.788031999999998 8.315712 21.242448 8.467631999999998Z" clip-rule="evenodd" stroke-width="1"></path><path fill="#000000" fill-rule="evenodd" d="M23.8188 3.7692959999999998C27.60744 2.254128 30.486720000000002 4.52712 33.366527999999995 7.25496C34.881648 8.922047999999998 36.852144 10.437648 38.216304 12.407712C38.822207999999996 13.468463999999999 39.125136 14.529216 39.579983999999996 15.741888C40.0344 16.954079999999998 40.640736 17.863392 40.944143999999994 19.076064C41.247071999999996 20.591232 41.095631999999995 21.955392 41.247071999999996 23.77392C41.247071999999996 24.077327999999998 41.701488 24.077327999999998 41.701488 23.77392C41.701488 22.106832 42.004895999999995 20.591232 41.550048 19.076064C41.247071999999996 17.863392 40.640736 16.802639999999997 40.185888 15.590399999999997C38.670719999999996 11.195471999999999 39.276576 12.104783999999999 33.972384 6.8005439999999995C30.941615999999996 3.7692959999999998 27.75888 1.79928 23.66736 3.4663679999999997C23.363952 3.4663679999999997 23.515871999999998 3.920784 23.818848 3.7692959999999998Z" clip-rule="evenodd" stroke-width="1"></path><path fill="#000000" fill-rule="evenodd" d="M37.458048 17.408976C38.064384 16.348224 38.973648 17.712383999999997 39.276576 18.924623999999998C39.579552 20.591711999999998 39.276576 21.198047999999996 39.579552 21.198047999999996C39.731472 21.198047999999996 39.88296 21.04656 39.88296 21.04656C40.0344 19.6824 40.337328 17.863872 39.276576 16.80312C38.519232 16.045296 37.609488 16.045296 37.155072000000004 17.106047999999998C36.851664 17.409456 37.30656 17.560944 37.458048 17.409456Z" clip-rule="evenodd" stroke-width="1"></path><path fill="#000000" fill-rule="evenodd" d="M23.66688 3.6178079999999997C14.422608 3.1634399999999996 10.785504 14.22624 11.088432 23.167583999999998C11.088432 24.380304 11.23992 25.592496 11.23992 26.805168C11.23992 28.472304 10.027679999999998 32.563824000000004 10.936943999999999 32.412335999999996C11.23992 32.412335999999996 10.936943999999999 32.109407999999995 11.23992 30.59376C11.39184 29.381567999999998 11.846256 28.017408 11.846256 26.805168C11.997696 23.470992 11.39184 20.136816 12.907008 14.529648C14.422608 8.77056 17.756784 3.7692959999999998 23.66688 3.921216C23.970288 4.2241919999999995 23.970288 3.769776 23.66688 3.6178079999999997Z" clip-rule="evenodd" stroke-width="1"></path><path fill="#000000" fill-rule="evenodd" d="M18.817536 13.922832C10.482096 17.711904 15.180432 24.986159999999998 13.361856 30.138911999999998C13.209936 30.44184 13.664784 30.593328 13.816272 30.290352C16.089696 24.834672 11.846256 18.16632 19.120464 14.377728C19.271952 14.22624 19.120464 13.771392 18.817536 13.922832Z" clip-rule="evenodd" stroke-width="1"></path><path fill="#000000" fill-rule="evenodd" d="M16.6956 29.987423999999997C17.453376 30.896736 17.756784 32.108928 18.362688 33.3216C18.969023999999997 34.382352000000004 19.878287999999998 35.291664 20.484192 36.352416C21.393936 37.564608 21.848352 38.928768 22.909056 39.98952C25.940303999999998 43.020768 32.305296 41.959536 35.185055999999996 35.89752C35.336543999999996 35.594592 34.881648 35.443104 34.730208 35.74608C32.153808 41.050272 26.091791999999998 42.111024 23.515871999999998 39.383184C22.606128 38.32243199999999 21.999792 36.958752 21.090528 35.89752C20.484623999999997 34.988256 19.423872 34.078944 18.817536 33.018671999999995C18.211199999999998 31.957488 17.908272 30.745247999999997 16.998959999999997 29.835504C16.84752 29.532576 16.544112000000002 29.835504 16.695552 29.987423999999997Z" clip-rule="evenodd" stroke-width="1"></path><path fill="#000000" fill-rule="evenodd" d="M35.639472000000005 23.77392C35.487984 24.834672 33.972384 26.046912 34.27531199999999 27.562511999999998C34.27531199999999 28.017408 34.427279999999996 28.319855999999998 34.57872 28.774752C34.57872 28.926192 34.730208 28.926192 34.881648 28.926192C35.184624 28.926192 35.033136 28.471823999999998 35.033136 27.714C35.033136 26.804736000000002 35.79096 26.046912 36.093888 24.986159999999998C36.548736 23.319072 35.639472000000005 23.470512 35.639472000000005 23.77392Z" clip-rule="evenodd" stroke-width="1"></path><path fill="#000000" fill-rule="evenodd" d="M13.816272 23.622C14.1192 24.834672 14.422608 27.107664 16.089696 29.077679999999997C16.241184 29.381088 16.6956 29.077679999999997 16.392672 28.774752C15.483359999999998 27.410592 15.483359999999998 25.895424 14.1192 23.319072C14.1192 23.167583999999998 13.816272 23.470512 13.816272 23.622Z" clip-rule="evenodd" stroke-width="1"></path><path fill="#000000" fill-rule="evenodd" d="M15.028512 30.138911999999998C15.180432 35.746032 15.180432 33.927984 15.180432 35.140176C15.180432 35.443104 15.634848 35.443104 15.634848 35.140176C16.089696 32.411856 15.938256 31.654511999999997 15.483359999999998 29.987423999999997C15.483359999999998 29.684496 15.028944000000001 29.835983999999996 15.028944000000001 30.138911999999998Z" clip-rule="evenodd" stroke-width="1"></path><path fill="#000000" fill-rule="evenodd" d="M17.301935999999998 33.17016C16.999008 35.140176 17.301935999999998 34.837248 17.301935999999998 36.201408C17.301935999999998 36.504336 17.756784 36.504336 17.756784 36.201408C18.059759999999997 34.53432 18.059759999999997 34.230912000000004 17.756784 33.018671999999995C17.756784 32.867232 17.301935999999998 32.867232 17.301935999999998 33.17016Z" clip-rule="evenodd" stroke-width="1"></path><path fill="#000000" fill-rule="evenodd" d="M23.212463999999997 34.078944C24.424704 33.624576 24.8796 34.38192 28.062288 33.3216C28.819632 33.018192 29.728896 32.411856 30.33528 32.260416C31.244543999999998 31.957440000000002 31.547952000000002 32.260416 31.547952000000002 31.957440000000002C31.699439999999996 31.502591999999996 30.638208 31.654031999999997 30.183791999999997 31.654031999999997C29.425967999999997 31.806 28.516703999999997 32.260847999999996 27.75888 32.563344C24.576192 33.472608 22.606128 33.472608 22.909104 34.078944H23.212512Z" clip-rule="evenodd" stroke-width="1"></path><path fill="#000000" fill-rule="evenodd" d="M28.97112 32.412335999999996C30.183791999999997 31.806 30.941615999999996 31.806 30.789648 31.957440000000002C30.33528 32.412335999999996 29.880384 32.866752 29.577455999999998 33.473088000000004C27.910368 34.837248 28.061808 34.68576 26.546688 35.140176C26.394719999999996 35.140176 26.24328 35.140176 26.091791999999998 34.988688C25.940303999999998 34.837248 26.24328 34.837248 25.485456 34.837248C25.182527999999998 34.837248 24.728112 34.988688 24.728112 35.443104C25.182527999999998 36.04992 25.940303999999998 36.04992 26.698127999999997 35.897999999999996C25.03104 36.504336 24.273216 35.595072 23.66688 33.927984C24.727632 33.624576 24.273216 33.624576 25.940303999999998 33.473088000000004C25.333968 33.624576 24.576192 33.776496 23.970288 33.927984C24.879552 36.04944 29.880384 33.3216 30.183791999999997 32.260847999999996C30.032304 32.109407999999995 30.032304 31.957919999999994 28.97112 32.412335999999996Z" clip-rule="evenodd" stroke-width="1"></path><path fill="#000000" fill-rule="evenodd" d="M23.515439999999998 33.776496C23.66688 34.230912000000004 23.66688 34.837248 23.970288 35.291664C24.879552 36.807263999999996 26.546688 36.504336 28.061808 35.595072C29.728896 34.53384 30.33528 33.17016 30.790128 32.563824000000004C31.093055999999997 32.109407999999995 31.395984 31.957440000000002 31.244543999999998 31.806479999999997C30.789648 31.199664000000002 29.728896 33.776496 27.607391999999997 34.988688C26.546208 35.595072 25.182527999999998 36.04944 24.424704 34.988688C24.121776 34.53384 24.121776 34.23134399999999 23.970288 33.624576C23.818368 33.3216 23.363472 33.473088000000004 23.515392 33.776496Z" clip-rule="evenodd" stroke-width="1"></path><path fill="#000000" fill-rule="evenodd" d="M23.363952 32.867232C23.363952 33.17064 23.818848 33.17064 23.818848 32.867232C23.943936 32.630592 24.037584 32.232192 23.970288 31.957919999999994C23.757216 31.483776 23.200272 32.212416 23.363952 32.867232Z" clip-rule="evenodd" stroke-width="1"></path><path fill="#000000" fill-rule="evenodd" d="M22.606128 32.412816C22.398239999999998 32.758559999999996 22.413263999999998 33.270815999999996 22.454687999999997 33.625007999999994C22.454687999999997 33.927984 22.909056 33.927984 22.909056 33.625007999999994C23.092512 33.211536 23.061023999999996 32.802768 23.061023999999996 32.564256C23.003615999999997 32.148432 22.727952 32.172912 22.606128 32.412816Z" clip-rule="evenodd" stroke-width="1"></path><path fill="#000000" fill-rule="evenodd" d="M21.696863999999998 33.17016C21.393936 35.897999999999996 21.545376 35.595072 21.848352 38.171423999999995C21.848352 38.474351999999996 22.3032 38.474351999999996 22.3032 38.171423999999995C22.606128 35.291664 22.3032 34.837248 22.15176 33.17016C22.15176 32.866752 21.696863999999998 32.866752 21.696863999999998 33.17016Z" clip-rule="evenodd" stroke-width="1"></path><path fill="#000000" fill-rule="evenodd" d="M25.333968 31.502591999999996C25.485456 32.109407999999995 25.636896 31.957488 26.091312000000002 32.260416C26.24328 32.411856 26.546208 32.108928 26.394719999999996 31.957488C26.081903999999998 31.331856 25.415376 31.204847999999995 25.333968 31.502591999999996Z" clip-rule="evenodd" stroke-width="1"></path><path fill="#000000" fill-rule="evenodd" d="M26.546688 31.199664000000002C26.698127999999997 31.806 26.849616 31.654079999999997 27.455952 31.806C27.75888 31.957488 27.910368 31.654079999999997 27.75888 31.502591999999996C27.366576 30.979487999999996 26.779968 30.943295999999997 26.546688 31.199664000000002Z" clip-rule="evenodd" stroke-width="1"></path><path fill="#000000" fill-rule="evenodd" d="M27.910368 30.897168C28.213776 31.503072 28.365216 31.351583999999995 28.819632 31.503072C29.12304 31.654992 29.274527999999997 31.351583999999995 29.12304 31.200143999999998C28.586783999999998 30.485135999999997 27.867071999999997 30.55944 27.910368 30.897168Z" clip-rule="evenodd" stroke-width="1"></path><path fill="#000000" fill-rule="evenodd" d="M30.33528 31.048175999999998C30.638208 31.199664000000002 30.790128 30.896736 30.638208 30.745247999999997C30.522959999999998 30.4776 30.424656 30.412224 30.032304 30.290352C29.487599999999997 30.018479999999997 29.640479999999997 31.048175999999998 30.33528 31.048175999999998Z" clip-rule="evenodd" stroke-width="1"></path><path fill="#000000" fill-rule="evenodd" d="M23.970288 38.62632C23.66688 39.232656 23.515439999999998 39.53558399999999 23.818848 40.596336C23.818848 40.899744 24.273216 40.899744 24.273216 40.596336C24.424704 39.53558399999999 24.576192 39.838992 24.424704 38.62632C24.424704 38.474832 24.121776 38.323344 23.970288 38.62632Z" clip-rule="evenodd" stroke-width="1"></path><path fill="#000000" fill-rule="evenodd" d="M25.333968 39.232175999999995C25.333968 39.493248 25.169328 40.132032 25.333968 40.747344C25.333968 41.050752 25.788863999999997 41.050752 25.788863999999997 40.747344C25.953504 40.132032 25.788863999999997 39.623999999999995 25.788863999999997 39.232175999999995C25.788863999999997 38.928768 25.333968 38.928768 25.333968 39.232175999999995Z" clip-rule="evenodd" stroke-width="1"></path><path fill="#000000" fill-rule="evenodd" d="M26.698127999999997 39.53558399999999C26.698127999999997 40.132512 26.698127999999997 40.538928 26.849616 41.051232C26.849616 41.35416 27.304032 41.35416 27.304032 41.051232C27.455952 40.14192 27.455952 40.29340799999999 27.152544 39.53558399999999C27.001056 39.232175999999995 26.77248 39.23688 26.698127999999997 39.53558399999999Z" clip-rule="evenodd" stroke-width="1"></path><path fill="#000000" fill-rule="evenodd" d="M28.819632 40.747824C28.971552 41.051232 29.426448 40.899744 29.274527999999997 40.596336C29.12304 39.68707199999999 29.274527999999997 39.53558399999999 28.668143999999998 38.77776C27.971952 38.432976000000004 28.270656 40.089264 28.819632 40.747824Z" clip-rule="evenodd" stroke-width="1"></path><path fill="#000000" fill-rule="evenodd" d="M29.729376 38.62584C29.880864 39.686592000000005 30.032304 39.686592000000005 30.638208 40.444416000000004C30.790128 40.747824 31.245024 40.595856000000005 31.093055999999997 40.292928C30.790128 39.080687999999995 30.638688 38.928768 30.183791999999997 38.474351999999996C30.032304 38.171423999999995 29.577455999999998 38.322911999999995 29.728896 38.62584Z" clip-rule="evenodd" stroke-width="1"></path><path fill="#000000" fill-rule="evenodd" d="M31.093055999999997 37.868496C31.396031999999998 38.62584 31.396031999999998 38.62584 32.153808 39.080687999999995C32.305296 39.384096 32.760144 39.080687999999995 32.456736 38.77776C32.153808 37.868496 32.002368 37.868496 31.396031999999998 37.413599999999995C31.244543999999998 37.413599999999995 30.941615999999996 37.717008 31.093055999999997 37.868496Z" clip-rule="evenodd" stroke-width="1"></path><path fill="#000000" fill-rule="evenodd" d="M32.305296 36.807263999999996C32.608703999999996 37.370352 32.843424 37.588128 33.21456 37.868016C33.366527999999995 38.171423999999995 33.821376 37.868016 33.517967999999996 37.565087999999996C33.246528 37.104096 33.063072 36.807263999999996 32.608703999999996 36.504336C32.457216 36.352848 32.190048 36.5316 32.305296 36.807263999999996Z" clip-rule="evenodd" stroke-width="1"></path><path fill="#000000" fill-rule="evenodd" d="M33.283727999999996 36.122831999999995C33.435168 36.729167999999994 33.435168 36.729167999999994 34.192992 37.032144C34.819584 36.988848000000004 34.216512 36.138384 33.738576 35.819903999999994C33.435168 35.668416 33.13176 35.971391999999994 33.283727999999996 36.122831999999995Z" clip-rule="evenodd" stroke-width="1"></path><path fill="#000000" fill-rule="evenodd" d="M33.366048 34.231392C33.669456 35.140656 33.669456 35.140656 34.57872 36.04992C34.730208 36.352848 35.18457599999999 36.04992 34.881648 35.746512C34.487472 34.958112 33.596976 33.542256 33.366048 34.231392Z" clip-rule="evenodd" stroke-width="1"></path><path fill="#000000" fill-rule="evenodd" d="M1.3892639999999998 44.384448C1.5407520000000001 43.020288 1.086336 41.35368 1.237824 39.98952C1.5407520000000001 38.62535999999999 2.601984 37.26168 2.904912 35.897999999999996C3.056352 35.140176 3.2078399999999996 33.018192 3.9656639999999994 32.715264C4.723008 32.412335999999996 5.93568 32.866752 6.844944 33.018192C7.602768 33.17016 8.66352 32.866752 9.421344 33.018192C10.330607999999998 33.3216 10.634015999999999 34.53384 11.088432 35.443104C11.391359999999999 36.04944 12.300624 36.807263999999996 11.391359999999999 36.655344C10.634015999999999 36.503856 10.482096 36.04944 10.17912 36.352416C9.572784 36.958752 13.209936 38.019504 11.997696 35.897999999999996C11.846256 35.594592 11.54328 35.291184 11.54328 35.140176C10.936464 33.927504 10.785504 32.411856 8.966928 32.260416C8.360111999999999 32.260416 7.602768 32.412335999999996 6.996432 32.260416C6.390528 32.108928 5.4812639999999995 31.806 4.72344 31.806C2.298576 31.654511999999997 2.4500159999999997 33.927504 2.1470879999999997 35.746032C1.692192 37.565087999999996 0.48 38.77728 0.48 40.898784C0.48 42.111504 0.934416 43.323696 0.782928 44.384448C0.934416 44.53593599999999 1.3892639999999998 44.687856 1.3892639999999998 44.384448Z" clip-rule="evenodd" stroke-width="1"></path><path fill="#000000" fill-rule="evenodd" d="M9.724751999999999 36.200928C9.572784 36.200928 9.269856 36.504336 8.815488 36.504336C8.360591999999999 36.504336 7.906175999999999 36.352416 7.602768 36.200928C6.390576 35.443584 6.693504 34.988735999999996 5.93568 36.04944C5.632752 36.352416 5.178336 36.655823999999996 4.57152 36.655823999999996C4.268591999999999 36.655823999999996 4.420512 37.110192 4.57152 37.110192C5.3298239999999995 36.958752 5.93568 36.807263999999996 6.542016 36.049488C6.844992 36.352416 7.29936 36.655823999999996 7.754255999999999 36.958752C9.118416 37.716575999999996 10.634015999999999 36.504336 10.634015999999999 36.049488C10.634015999999999 35.746512 10.482576 35.595072 10.179168 35.443104L9.269856 34.68576C8.66352 34.230912000000004 8.209104 33.3216 6.996912 33.473088000000004C6.542016 33.624576 5.93568 33.776016 5.177856 34.079424C3.9656639999999994 34.53384 3.6627359999999998 34.382352000000004 3.2078399999999996 34.988735999999996C2.904912 35.443104 2.6015040000000003 36.04944 2.1470879999999997 36.504336C1.9955999999999998 36.655823999999996 1.9955999999999998 36.807263999999996 2.1470879999999997 36.807263999999996C2.4500159999999997 37.26168 3.056352 36.04992 3.511248 35.443104C3.814176 35.140176 3.9656639999999994 35.140176 5.177856 34.837248C6.542016 34.382352000000004 7.148352 33.927984 7.754255999999999 34.53384L8.66352 35.443104L9.724751999999999 36.200928Z" clip-rule="evenodd" stroke-width="1"></path><path fill="#000000" fill-rule="evenodd" d="M4.572 39.23169599999999C5.93616 38.928768 6.542016 37.564608 6.087167999999999 36.655344C5.93568 36.352416 5.632752 36.503856 5.632752 36.807263999999996C5.784192 37.413168 4.723488 38.62535999999999 4.4200800000000005 38.777328000000004C4.117103999999999 38.928768 4.268591999999999 39.23169599999999 4.572 39.23169599999999Z" clip-rule="evenodd" stroke-width="1"></path><path fill="#000000" fill-rule="evenodd" d="M6.239088000000001 32.109407999999995C6.996432 31.200143999999998 7.905695999999999 31.806479999999997 8.966928 32.109407999999995C9.724272 32.260847999999996 10.785504 32.260847999999996 11.391359999999999 32.564256C12.149184 33.018671999999995 12.604032 34.382832 12.907008 35.292096C13.058448 35.595072 13.361856 36.04944 13.513343999999998 36.352848C13.664784 36.958752 12.452592000000001 36.958752 12.149184 36.655823999999996C11.997696 36.504336 11.694768 36.807263999999996 11.846256 36.959232C12.6036 37.716575999999996 14.422608 37.565087999999996 14.27112 36.201408C14.119679999999999 35.746512 13.967711999999999 35.443584 13.816272 34.988688C13.513343999999998 34.079424 13.210367999999999 32.412335999999996 11.997696 31.806479999999997C11.088432 31.351583999999995 10.17912 31.503072 9.421344 31.351583999999995C8.057184 31.048656 6.996912 30.59424 6.239088000000001 31.806479999999997C5.6322719999999995 32.109407999999995 5.93568 32.412335999999996 6.239088000000001 32.109407999999995Z" clip-rule="evenodd" stroke-width="1"></path><path fill="#000000" fill-rule="evenodd" d="M9.118416 36.958752C9.118416 40.899264 6.693504 38.62584 10.482576 41.808528C11.997264 43.020768 13.664784 41.50512 14.270688 39.838511999999994C14.422608 39.535104 13.967759999999998 39.383664 13.816272 39.686592000000005C13.361856 40.747344 11.997696 42.111504 10.936943999999999 41.202192000000004C10.330607999999998 40.595856000000005 9.87576 40.141439999999996 9.269856 39.686592000000005C9.724272 38.77728 9.724272 37.868016 9.572832 36.958752C9.572832 36.655823999999996 9.118416 36.655823999999996 9.118416 36.958752Z" clip-rule="evenodd" stroke-width="1"></path><path fill="#000000" fill-rule="evenodd" d="M15.33192 36.958752S15.937775999999998 38.170944 16.089264 38.322911999999995C16.392672 38.62584 16.999008 38.77728 17.150448 39.080256C17.301935999999998 39.686592000000005 16.84704 40.141008 16.392623999999998 40.747344C16.089696 41.35368 15.937775999999998 41.808096 15.937775999999998 42.565872C15.634848 42.86928 15.180432 43.020768 14.877023999999999 43.930032C14.725536 44.233008 14.422608 44.990784 14.877023999999999 45.142272C15.179952 45.142272 15.028512 44.839344 15.331872 44.233008C15.634848 43.475663999999995 16.089264 43.475663999999995 16.392623999999998 43.172256C16.6956 43.020768 16.544112000000002 42.86928 16.6956 42.111504C16.999008 41.202192000000004 17.453376 40.898784 17.756352 40.141008C18.363167999999998 38.62584 16.999008 38.170944 16.6956 37.868016C16.544112000000002 37.716575999999996 15.938256 35.897999999999996 15.028512 36.200928C13.967759999999998 36.655344 13.058448 39.535104 15.33192 40.595856000000005C15.634848 40.747344 15.786288 40.292448 15.483359999999998 40.141008C14.1192 39.383664 14.725536 37.110192 15.33192 36.958752Z" clip-rule="evenodd" stroke-width="1"></path><path fill="#000000" fill-rule="evenodd" d="M12.604032 33.17064C13.210415999999999 33.018671999999995 13.513343999999998 33.927984 13.968192 34.53432C14.725536 35.595072 15.786767999999999 36.04992 15.786767999999999 36.201408C15.786767999999999 36.504336 15.483359999999998 36.504336 15.634848 36.807744C15.786767999999999 37.110672 16.241663999999997 36.656256 16.241663999999997 36.201408C16.241663999999997 35.746512 15.786767999999999 35.443584 15.180432 34.837248C14.574095999999999 34.231392 14.423088 33.927984 14.119679999999999 33.473088000000004C13.210415999999999 32.260896 11.998176 32.715743999999994 12.149664 33.018671999999995C12.452592000000001 33.17064 12.452592000000001 33.17064 12.604032 33.17064Z" clip-rule="evenodd" stroke-width="1"></path><path fill="#000000" fill-rule="evenodd" d="M13.664784 36.959232C13.967759999999998 37.413599999999995 14.1192 37.565087999999996 14.725536 37.262159999999994C15.028512 37.262159999999994 15.028512 36.807744 14.725536 36.807744C14.574095999999999 36.656256 14.422608 36.504336 14.271168 36.504336H13.816272C13.664784 36.352848 13.361856 36.807744 13.664784 36.959232Z" clip-rule="evenodd" stroke-width="1"></path><path fill="#000000" fill-rule="evenodd" d="M5.3298239999999995 41.960016C5.4812639999999995 41.50512 6.239088000000001 40.141008 5.78424 39.98952C5.4812639999999995 39.98952 5.4812639999999995 40.141008 5.3298239999999995 40.595856000000005C3.9656639999999994 42.86928 4.572 41.050752 6.390576 44.838863999999994C6.542016 45.142272 6.844944 44.990784 6.844944 44.687856C6.087599999999999 42.71736 5.4808319999999995 42.111504 5.3298239999999995 41.959536Z" clip-rule="evenodd" stroke-width="1"></path><path fill="#000000" fill-rule="evenodd" d="M29.425967999999997 41.051232C34.427279999999996 46.50691199999999 39.579983999999996 41.202672 44.580816 35.89848C46.247904 34.231392 47.309135999999995 31.957919999999994 45.33864 32.412816C44.732256 32.564256 43.97448 33.018671999999995 43.671504 33.32208C43.520064 33.32208 43.520064 33.473568 43.520064 33.625007999999994C43.671504 33.927984 44.126400000000004 33.32208 45.187152 33.018671999999995C45.49008 32.867232 45.793487999999996 32.867232 45.944495999999994 33.018671999999995C45.944495999999994 33.018671999999995 45.793487999999996 32.867232 45.944495999999994 32.867232C47.005728 33.018671999999995 39.428064 39.838511999999994 39.276576 39.99C35.185055999999996 43.475663999999995 32.153808 43.021248 29.880384 40.747824C29.577455999999998 40.44484799999999 29.274527999999997 40.747824 29.425967999999997 41.051232Z" clip-rule="evenodd" stroke-width="1"></path><path fill="#000000" fill-rule="evenodd" d="M42.004416 44.839776C43.368576000000004 44.23344 43.822992 44.082 45.641568 42.414912C45.944976 42.263424 45.641568 41.808528 45.33864 42.111936C43.671552 43.172688 44.126400000000004 42.71784 41.701488 44.536367999999996C41.550048 44.688336 41.701488 44.991264 42.004416 44.839776Z" clip-rule="evenodd" stroke-width="1"></path><path fill="#000000" fill-rule="evenodd" d="M20.636112 36.504336C21.090528 40.292928 19.726848 40.141439999999996 19.726848 41.808528C19.726848 42.566352 20.029776000000002 43.021248 20.181216 43.627103999999996C20.333184 44.23344 20.029776000000002 44.384927999999995 20.332704 44.536367999999996C20.636112 44.688336 20.787599999999998 43.930512 20.787599999999998 43.475663999999995C20.636112 42.566352 20.332704 42.111504 20.636112 41.202192000000004C21.242448 39.838032 22.000272 39.383664 21.090528 36.352416C20.93904 36.04992 20.484623999999997 36.201408 20.636112 36.504336Z" clip-rule="evenodd" stroke-width="1"></path><path fill="#000000" fill-rule="evenodd" d="M22.909056 39.53558399999999C22.757616000000002 40.747824 21.999792 41.5056 21.848352 42.86976C21.848352 43.475663999999995 22.15176 43.930512 22.3032 44.384927999999995C22.3032 44.688336 22.757616000000002 44.536848 22.757616000000002 44.23344C22.606128 42.86928 22.15176 43.779072 23.061023999999996 41.5056C23.970288 39.080735999999995 22.909536 39.080735999999995 22.909536 39.53558399999999Z" clip-rule="evenodd" stroke-width="1"></path><path fill="#000000" fill-rule="evenodd" d="M26.243712 41.35368C26.849616 43.172256 27.001056 43.020768 28.061808 44.53593599999999C28.213776 44.839344 28.668624 44.53593599999999 28.516703999999997 44.384448C27.60744 42.262944 27.304464 42.111504 26.698127999999997 41.202192000000004C26.394719999999996 40.898784 26.091791999999998 41.050272 26.24328 41.35368Z" clip-rule="evenodd" stroke-width="1"></path><path fill="#000000" fill-rule="evenodd" d="M43.822992 32.411856C44.884223999999996 31.957440000000002 46.096416 31.502591999999996 47.157168 31.957440000000002C47.460575999999996 32.108928 47.612064 31.806 47.460575999999996 31.502591999999996C46.096416 30.44184 44.884223999999996 30.896687999999997 43.671552 31.957440000000002C43.217136 32.108928 43.520064 32.563344 43.822992 32.411856Z" clip-rule="evenodd" stroke-width="1"></path></svg>