<svg xmlns="http://www.w3.org/2000/svg" fill="none" viewBox="0 0 48 48" height="48" width="48" id="Not-Simply--Streamline-Memes.svg"><desc>Not Simply Streamline Element: https://streamlinehq.com</desc><path fill="#000000" d="M18.239 24.665c0.719 1.543 2.507 0.668 2.045 -0.758a6.14 6.14 0 0 0 -2.045 0.758Z" stroke-width="1"></path><path fill="#000000" d="M27.328 22.04c0.451 1.9 2.663 1.33 2.472 -0.38a7.043 7.043 0 0 0 -2.472 0.38Z" stroke-width="1"></path><path stroke="#000000" stroke-linecap="round" stroke-linejoin="round" d="M14.79 22.334c1.501 5.092 2.52 7.558 3.484 9.112 0.965 1.555 3.645 6.593 5.146 8.147 1.5 1.555 4.502 2.787 6.485 2.412 1.983 -0.375 5.038 -3.216 6.7 -5.36" stroke-width="1"></path><path stroke="#000000" stroke-linecap="round" stroke-linejoin="round" d="M19.846 14.43c-2.913 0.422 -5.31 3.006 -5.216 6.671" stroke-width="1"></path><path stroke="#000000" stroke-linecap="round" stroke-linejoin="round" d="M25.807 2.61c-3.65 -0.695 -8.746 1.274 -11.758 7.935 -3.012 6.66 -1.97 11.12 -1.854 12.8 0.116 1.68 -0.463 3.128 -0.52 4.634 -0.059 1.506 0.52 3.07 0.52 4.055" stroke-width="1"></path><path stroke="#000000" stroke-linecap="round" stroke-linejoin="round" d="M27.081 2.552c3.707 -0.753 9.152 2.2 11.642 7.588 2.49 5.386 4.634 9.093 4.344 10.367 0.695 1.02 0.56 2.974 0.406 3.823 0.579 0.753 1.574 2.69 1.795 4.344 0.3 2.233 -0.058 4.923 -0.926 6.14" stroke-width="1"></path><path stroke="#000000" stroke-linecap="round" stroke-linejoin="round" d="M21.07 13.652c0.277 -1.292 1.8 -1.153 2.814 0.46 1.014 1.615 3.228 5.627 8.301 7.656" stroke-width="1"></path><path stroke="#000000" stroke-linecap="round" stroke-linejoin="round" d="M24.207 11.945c2.951 2.49 5.026 6.687 6.917 7.702" stroke-width="1"></path><path stroke="#000000" stroke-linecap="round" stroke-linejoin="round" d="M25.775 10.746c3.55 4.566 7.794 4.889 11.068 7.563 3.274 2.675 4.52 6.872 4.75 10.239a16.65 16.65 0 0 1 -0.969 6.825" stroke-width="1"></path><path stroke="#000000" stroke-linecap="round" stroke-linejoin="round" d="M36.083 17.818c-0.279 2.947 0.2 5.256 1.474 7.128 1.274 1.872 2.548 5.575 0.955 10.433" stroke-width="1"></path><path stroke="#000000" stroke-linecap="round" stroke-linejoin="round" d="M17.081 25.442c1.381 -1.409 2.237 -1.879 4.861 -1.299" stroke-width="1"></path><path stroke="#000000" stroke-linecap="round" stroke-linejoin="round" d="M25.807 23.37c1.298 -1.712 3.148 -2.761 5.827 -1.546" stroke-width="1"></path><path stroke="#000000" stroke-linecap="round" stroke-linejoin="round" d="M20.278 22.667c-1.22 0 -3.15 0.273 -3.964 0.51" stroke-width="1"></path><path stroke="#000000" stroke-linecap="round" stroke-linejoin="round" d="M25.076 22.046c0.707 -0.964 1.65 -1.693 2.121 -1.885" stroke-width="1"></path><path stroke="#000000" stroke-linecap="round" stroke-linejoin="round" d="M22.751 26.367c0.029 1.501 -0.176 3.86 0.141 4.542 0.41 0.88 1.487 1.004 2.151 0.649 0.664 -0.355 0.843 -0.83 1.479 -1.24" stroke-width="1"></path><path stroke="#000000" stroke-linecap="round" stroke-linejoin="round" d="M24.099 33.717c1.956 0 2.993 -0.165 4.289 -0.707 1.296 -0.542 2.474 -0.943 3.205 -1.108 0.07 1.815 -0.094 1.673 -1.956 2.875 -1.862 1.202 -3.512 0.778 -4.218 0.684 -0.566 -0.076 -0.943 -0.487 -1.061 -0.684" stroke-width="1"></path><path stroke="#000000" stroke-linecap="round" stroke-linejoin="round" d="m29.198 39.716 0.61 1.955" stroke-width="1"></path><path stroke="#000000" stroke-linecap="round" stroke-linejoin="round" d="m27.646 39.862 0.152 1.914" stroke-width="1"></path><path stroke="#000000" stroke-linecap="round" stroke-linejoin="round" d="m25.895 39.243 -0.272 1.641" stroke-width="1"></path><path stroke="#000000" stroke-linecap="round" stroke-linejoin="round" d="M23.94 38.173v1.602" stroke-width="1"></path><path stroke="#000000" stroke-linecap="round" stroke-linejoin="round" d="m30.495 39.243 1.135 1.775" stroke-width="1"></path><path stroke="#000000" stroke-linecap="round" stroke-linejoin="round" d="m32.005 38.299 1.243 1.487" stroke-width="1"></path><path stroke="#000000" stroke-linecap="round" stroke-linejoin="round" d="m34.043 36.611 0.94 1.6" stroke-width="1"></path><path stroke="#000000" stroke-linecap="round" stroke-linejoin="round" d="M28.683 30.687c2.553 -0.522 3.946 -0.755 4.41 0.493 0.371 0.998 1.857 3.723 2.553 4.961" stroke-width="1"></path><path stroke="#000000" stroke-linecap="round" stroke-linejoin="round" d="M22.939 32.544c-0.697 0.319 -0.987 1.015 -0.697 2.437 0.232 1.137 0.271 2.504 0.261 3.046" stroke-width="1"></path><path stroke="#000000" stroke-linecap="round" stroke-linejoin="round" d="M1.39 45.467c-0.382 -2.329 -0.556 -4.52 -0.452 -5.284 0.105 -0.765 1.495 -5.77 2.295 -7.022 0.64 -1.002 1.981 -0.858 2.572 -0.66 0.151 -0.383 0.765 -1.169 2.017 -1.252 1.564 -0.105 3.893 1.53 5.04 2.085 1.148 0.557 2.643 1.878 2.782 2.538 0.139 0.66 -0.174 1.252 -1.043 1.356 -0.696 0.084 -1.449 -0.197 -1.738 -0.348 -0.14 0.279 -0.598 0.828 -1.322 0.8 -0.723 -0.028 -3.012 -0.962 -4.067 -1.425 -0.36 0.243 -1.238 0.778 -1.877 0.973a16.003 16.003 0 0 1 -0.591 2.503" stroke-width="1"></path><path stroke="#000000" stroke-linecap="round" stroke-linejoin="round" d="M5.91 32.5c1.773 0.209 3.998 1.39 4.762 1.704 0.612 0.25 1.113 0.706 1.287 0.904" stroke-width="1"></path><path stroke="#000000" stroke-linecap="round" stroke-linejoin="round" d="M15.764 45.564c1.33 -2.352 3.042 -3.989 3.221 -5.318 0.18 -1.33 -0.613 -1.892 -1.15 -2.966 -0.43 -0.86 -1.015 -1.16 -1.253 -1.202" stroke-width="1"></path><path stroke="#000000" stroke-linecap="round" stroke-linejoin="round" d="M14.894 38.303a2.228 2.228 0 0 0 0 1.33c-0.315 0.75 -1.15 2.3 -1.968 2.505 -1.023 0.256 -1.765 -0.384 -2.608 -1.176 -0.675 -0.634 -0.861 -0.98 -0.87 -1.074 0.085 -0.324 0.271 -1.064 0.333 -1.432" stroke-width="1"></path><path stroke="#000000" stroke-linecap="round" stroke-linejoin="round" d="M45.386 31.838a6.188 6.188 0 0 0 1.706 -0.381m0 5.67c-1.706 0.975 -6.056 4.281 -7.065 7.518" stroke-width="1"></path><path stroke="#000000" stroke-linecap="round" stroke-linejoin="round" d="M19.352 44.904c2.052 -1.475 4.197 -2.478 5.013 -2.795" stroke-width="1"></path><path stroke="#000000" stroke-linecap="round" stroke-linejoin="round" d="M32.46 42.368c1.614 1.009 3.256 2.42 4.87 1.009 1.613 -1.412 3.255 -3.227 4.292 -3.774" stroke-width="1"></path><path stroke="#000000" stroke-linecap="round" stroke-linejoin="round" d="M26.814 42.743c1.268 0.783 2.41 2.074 2.823 2.622" stroke-width="1"></path><path stroke="#000000" stroke-linecap="round" stroke-linejoin="round" d="M14.523 13.286c2.14 -3.417 4.94 -3.994 6.793 -3.706" stroke-width="1"></path><path stroke="#000000" stroke-linecap="round" stroke-linejoin="round" d="M22.468 7.934c2.8 -1.112 7.905 -0.165 10.951 2.758 3.047 2.923 4.158 5.846 7.04 8.892" stroke-width="1"></path><path stroke="#000000" stroke-linecap="round" stroke-linejoin="round" d="M23.25 5.752c3.047 -1.894 6.258 -0.7 8.029 0.329" stroke-width="1"></path><path stroke="#000000" stroke-linecap="round" stroke-linejoin="round" d="M23.313 5.751c-1.08 -0.789 -2.863 -0.38 -3.448 0" stroke-width="1"></path><path stroke="#000000" stroke-linecap="round" stroke-linejoin="round" d="M14.734 26.648c-0.328 1.584 -0.137 3.497 0.328 5.655" stroke-width="1"></path><path stroke="#000000" stroke-linecap="round" stroke-linejoin="round" d="M14.88 39.632c0.419 0.73 1.372 1 2.11 0.775" stroke-width="1"></path></svg>