<svg xmlns="http://www.w3.org/2000/svg" fill="none" viewBox="0 0 48 48" height="48" width="48" id="Nyan-Cat--Streamline-Memes.svg"><desc>Nyan Cat Streamline Element: https://streamlinehq.com</desc><path stroke="#000000" stroke-linecap="round" stroke-linejoin="round" d="M40.126 22v-5.898h-1.682v-1.244H20.38v1.244h-1.316v14.992h1.316v1.572h13.237" stroke-width="1"></path><path stroke="#000000" stroke-linecap="round" stroke-linejoin="round" d="m37.388 19.173 0 -1.08h-1.245v-0.92H22.776v0.92h-0.974v11.095h0.974v1.163h5.43" stroke-width="1"></path><path stroke="#000000" stroke-linecap="round" stroke-linejoin="round" d="M43.782 32.666H33.105v-1.645h-1.901v-1.902H29.85v-4.826h1.17v-4.06h1.06v-0.767h3.035v1.243h1.536v1.316h5.631V20.71h1.5v-1.243h2.01v4.826H47v4.827h-1.792v1.902h-1.426v1.645Z" stroke-width="1"></path><path stroke="#000000" stroke-linecap="round" stroke-linejoin="round" d="M35.665 28.607v1.244h6.837v-1.5" stroke-width="1"></path><path stroke="#000000" stroke-linecap="round" stroke-linejoin="round" d="M39.084 29.85v-1.499" stroke-width="1"></path><path stroke="#000000" stroke-linecap="round" stroke-linejoin="round" d="M34.004 32.666v1.646h2.779v-1.646" stroke-width="1"></path><path stroke="#000000" stroke-linecap="round" stroke-linejoin="round" d="M39.723 32.666v1.646h2.78v-1.646" stroke-width="1"></path><path stroke="#000000" stroke-linecap="round" stroke-linejoin="round" d="M22.83 32.666v1.646h2.779v-1.646" stroke-width="1"></path><path stroke="#000000" stroke-linecap="round" stroke-linejoin="round" d="M17.601 33.891v-2.797h2.779v2.797h-2.779Z" stroke-width="1"></path><path stroke="#000000" stroke-linecap="round" stroke-linejoin="round" d="M34.092 26.596h1.61V25.28" stroke-width="1"></path><path stroke="#000000" stroke-linecap="round" stroke-linejoin="round" d="M42.32 26.596h1.608V25.28" stroke-width="1"></path><path stroke="#000000" stroke-linecap="round" stroke-linejoin="round" d="m39.084 26.724 1.042 0" stroke-width="1"></path><path stroke="#000000" stroke-linecap="round" stroke-linejoin="round" d="M19.064 24.658H16.24v1.097h-2.53v1.317h-1.52v3.071h3.256v-2.34h3.619" stroke-width="1"></path><path stroke="#000000" stroke-linecap="round" stroke-linejoin="round" d="M16.943 14.875h-5.236v-1.26H5.002v1.26H1" stroke-width="1"></path><path stroke="#000000" stroke-linecap="round" stroke-linejoin="round" d="M17.162 18.434h-5.455v-1.26H5.002v1.26H1.44" stroke-width="1"></path><path stroke="#000000" stroke-linecap="round" stroke-linejoin="round" d="M17.016 21.992h-5.309v-1.26H5.002v1.26H1.44" stroke-width="1"></path><path stroke="#000000" stroke-linecap="round" stroke-linejoin="round" d="M11.707 25.024v-0.734H5.002v1.26h-3.49" stroke-width="1"></path><path stroke="#000000" stroke-linecap="round" stroke-linejoin="round" d="M10.288 27.848H5.002v1.26H1.585" stroke-width="1"></path><path stroke="#000000" stroke-linecap="round" stroke-linejoin="round" d="M15.81 32.666h-4.103v-1.26H5.002v1.26H1.951" stroke-width="1"></path><path fill="#000000" d="M24 19.063h1v1h-1z" stroke-width="1"></path><path fill="#000000" d="M23.719 25.066h1v1h-1z" stroke-width="1"></path><path fill="#000000" d="M26.125 21.992h1v1h-1z" stroke-width="1"></path><path fill="#000000" d="M26.625 27.401h1v1h-1z" stroke-width="1"></path><path fill="#000000" d="M28.188 20.361h1v1h-1z" stroke-width="1"></path></svg>