<svg xmlns="http://www.w3.org/2000/svg" fill="none" viewBox="0 0 48 48" height="48" width="48" id="Nyan-Cat-Hand-Drawn--Streamline-Memes.svg"><desc>Nyan Cat Hand Drawn Streamline Element: https://streamlinehq.com</desc><path fill="#000000" fill-rule="evenodd" d="M38.240159999999996 14.134559999999999c-0.7852799999999999 -1.0992 -0.94224 -1.25616 -1.0992 -1.25616 -5.0256 0.31392 -12.09216 0 -20.10144 0 -0.15744 0 -0.3144 0 -1.25664 1.0992 -1.41312 1.5705599999999997 -1.57008 1.5705599999999997 -1.57008 1.88448 0.15696 4.24032 0.47087999999999997 10.0512 0.31392 14.7624 0 0.31392 0.47087999999999997 0.31392 0.47087999999999997 0 0.7852799999999999 -17.589119999999998 -1.41312 -13.03488 2.1984 -16.9608l11.93568 0c9.26544 -0.15744 7.538399999999999 -0.94224 8.794559999999999 0.62784 0.15696 0.47136 0.47087999999999997 0.15744 0.31392 -0.15696Z" clip-rule="evenodd" stroke-width="1"></path><path fill="#000000" fill-rule="evenodd" d="M38.55456 15.076799999999999c1.57008 1.4136 0.31392 -0.7847999999999999 0.94224 6.7536 0 0.31392 0.47087999999999997 0.31392 0.47087999999999997 0 0.15696 -5.49696 0.15696 -5.34 0.15696 -5.96784 0 -0.3144 -0.15696 -0.3144 -1.25616 -1.0992 -0.31392 -0.15744 -0.62832 0.15648 -0.31392 0.31392Z" clip-rule="evenodd" stroke-width="1"></path><path fill="#000000" fill-rule="evenodd" d="M45.3072 19.474079999999997c0.94224 1.5705599999999997 0.15744 4.3968 0.62832 4.7112 1.25616 0.7852799999999999 1.88448 2.8272 0.62832 5.33952 -1.728 3.29808 -4.08336 2.9841599999999997 -8.00928 2.9841599999999997 -3.9263999999999997 -0.15744 -7.06704 0.31392 -8.951999999999998 -2.9841599999999997 -0.62784 -1.25616 -1.0992 -2.82672 -0.4704 -4.08288 0.4704 -1.25664 1.41312 -1.0992 1.25616 -1.5705599999999997 -0.15744 -0.62832 -0.3144 -2.5128 -0.15744 -3.2976 0.15744 -1.09968 0.7852799999999999 -1.4136 1.88448 -0.94272 1.728 0.62832 2.8272 1.88448 4.08336 3.2976 0.15696 0.15744 0.31392 0.15744 1.25616 0 3.612 -0.15648 1.17264 0.1584 4.47072 -2.82576 0.7852799999999999 -0.62832 1.7087999999999999 -1.66032 2.65056 -1.1889599999999998 0.3144 0.15696 0.47136 -0.3144 0.15744 -0.47136 -1.88496 -0.7852799999999999 -4.2888 2.2752 -5.388 3.68832 -0.94224 0 -1.73328 0.16992 -2.83248 0.16992 -1.25664 -1.41312 -2.5128 -2.82672 -4.24032 -3.45504 -1.5705599999999997 -0.62784 -2.8272 -0.15696 -2.9841599999999997 1.5705599999999997 -0.15696 0.94224 0.15744 2.8272 0.15744 3.2976 -2.66976 1.88496 -1.5705599999999997 6.282239999999999 1.25616 8.32368 1.25616 0.94224 2.8272 1.0992 4.3968 1.25616 4.86864 0.15744 8.48064 0.3144 10.0512 -0.94224 2.8272 -2.1984 4.08336 -6.5952 1.25616 -8.48016 -0.15696 -1.5705599999999997 0.15744 -3.1411199999999995 -0.62784 -4.554239999999999 -0.31392 -0.31392 -0.62832 -0.15696 -0.47136 0.15696Z" clip-rule="evenodd" stroke-width="1"></path><path fill="#000000" fill-rule="evenodd" d="M30.70224 27.483359999999998c-0.94224 0.31392 -1.4136 2.66976 0.62784 2.82672 1.728 0.15696 2.0419199999999997 -0.7852799999999999 1.88496 -2.1984 0 -0.3144 -0.47136 -0.3144 -0.47136 0l0 0.9417599999999999c-0.15696 0.7852799999999999 -1.72752 0.47136 -1.72752 0.3144 -0.15696 -0.31392 -0.15696 -0.7852799999999999 0 -1.0992 0.31392 -0.47136 1.88448 -0.15744 1.88448 -0.47136 -0.15696 -0.62832 -1.88448 -0.47087999999999997 -2.1984 -0.31392Z" clip-rule="evenodd" stroke-width="1"></path><path fill="#000000" fill-rule="evenodd" d="M44.99328 27.48384c-1.0992 0 -2.1984 2.82672 0.7852799999999999 2.66976 1.41312 0 1.41312 -1.88448 1.0992 -2.35584 -0.3144 -0.47087999999999997 -0.94224 -0.47087999999999997 -1.4136 -0.47087999999999997 -0.31392 0 -0.31392 0.47087999999999997 0 0.47087999999999997 1.0992 0 0.94224 0.31392 0.7852799999999999 0.7852799999999999 0 0.31392 -0.15696 0.7852799999999999 -0.62784 0.7852799999999999 -0.3144 0 -0.6288 0 -0.94272 -0.15696 -0.47087999999999997 -0.15744 -0.15696 -1.25664 0.15744 -1.25664 0.47087999999999997 0 0.47087999999999997 -0.47087999999999997 0.15696 -0.47087999999999997Z" clip-rule="evenodd" stroke-width="1"></path><path fill="#000000" fill-rule="evenodd" d="M34.492799999999995 28.838399999999996c-0.15696 1.884 0.2928 1.7856 1.8628799999999999 1.9425599999999998 1.25616 0 4.08336 0 5.1825600000000005 -0.31392 0.47087999999999997 -0.15696 0.7852799999999999 -0.31392 0.94224 -0.62832 0.15696 -0.31392 0.31392 -1.0992 -0.15696 -1.0992 -0.47136 0 0.15696 1.0992 -0.94224 1.25616l-3.76944 0c-1.72752 0 -1.72752 0.15744 -2.04144 0.15744 -0.94224 0 -0.34559999999999996 -1.6032 -0.816 -1.6032 -0.12672 0 -0.23759999999999998 0 -0.2616 0.288Z" clip-rule="evenodd" stroke-width="1"></path><path fill="#000000" fill-rule="evenodd" d="M38.39712 28.58304c-0.15696 0.47087999999999997 -0.31392 0.7852799999999999 0 1.72752 0 0.31392 0.47136 0.31392 0.47136 0 0.15696 -0.7852799999999999 0.31392 -0.7852799999999999 0 -1.728 0 -0.31392 -0.47136 -0.31392 -0.47136 0Z" clip-rule="evenodd" stroke-width="1"></path><path fill="#000000" fill-rule="evenodd" d="M40.12464 26.384159999999998c-0.15696 -0.31392 -1.25616 -0.31392 -1.25616 0.62832 0 0.31392 0.31392 0.7852799999999999 0.94224 0.7852799999999999 1.25616 0 0.94224 -1.5705599999999997 0.31392 -1.4136Z" clip-rule="evenodd" stroke-width="1"></path><path fill="#000000" fill-rule="evenodd" d="M43.51872 25.24176c-2.2128 0 -2.0649599999999997 2.36016 -0.7372799999999999 2.36016 1.6223999999999998 0.14736 1.6223999999999998 -2.2128 0.7372799999999999 -2.36016Z" clip-rule="evenodd" stroke-width="1"></path><path fill="#000000" fill-rule="evenodd" d="M42.33888 25.0944c-0.73776 0.29519999999999996 -1.18032 1.18032 -0.88512 1.9176 0.29519999999999996 1.03296 1.47504 1.18032 2.2128 0.73776 1.47504 -0.7372799999999999 0.7372799999999999 -3.3926399999999997 -1.32768 -2.65536Zm0.44256 2.0654399999999997c1.32768 0.14736 1.32768 -1.47504 0.58992 -1.6223999999999998 -1.32768 -0.14784 -1.6223999999999998 1.6223999999999998 -0.5903999999999999 1.6223999999999998Z" clip-rule="evenodd" stroke-width="1"></path><path fill="#000000" fill-rule="evenodd" d="M34.94112 24.964799999999997c-2.2128 0 -2.0649599999999997 2.36016 -0.73776 2.36016 1.77024 0.14736 1.77024 -2.2128 0.73776 -2.36016Z" clip-rule="evenodd" stroke-width="1"></path><path fill="#000000" fill-rule="evenodd" d="M33.90864 24.81792c-0.73776 0.29472 -1.18032 1.17984 -0.88512 1.9176 0.29472 1.032 1.47504 1.17984 2.2128 0.7372799999999999 1.47504 -0.7372799999999999 0.7372799999999999 -3.3926399999999997 -1.32768 -2.65488Zm0.44208000000000003 2.0649599999999997c1.32768 0.14736 1.32768 -1.47504 0.5903999999999999 -1.6223999999999998 -1.32768 -0.14784 -1.6223999999999998 1.6223999999999998 -0.5903999999999999 1.6223999999999998Z" clip-rule="evenodd" stroke-width="1"></path><path fill="#000000" fill-rule="evenodd" d="M17.03904 32.352000000000004c-0.31392 -0.31392 -0.7847999999999999 -0.62832 -1.25616 -1.0992 -0.15696 -0.15744 -0.62832 0.15696 -0.31392 0.31392 1.88448 2.04144 0 1.4136 17.27472 1.25616 0.31392 0 0.31392 -0.47087999999999997 0 -0.47087999999999997 -2.8272 0 -6.7526399999999995 -0.31392 -11.77824 -0.15696 -1.4136 0 -3.9263999999999997 0.15696 -3.9263999999999997 0.15696Z" clip-rule="evenodd" stroke-width="1"></path><path fill="#000000" fill-rule="evenodd" d="M31.80144 32.66592c0.47136 1.25664 1.0992 2.5128 2.35584 2.8272 1.88448 0.47087999999999997 3.2976 -1.0992 2.04144 -2.8272 -0.15696 -0.31392 -0.62832 0 -0.47136 0.3144 0.6288 1.41312 -0.15696 2.1984 -1.41312 1.72752 -0.7852799999999999 -0.15744 -1.728 -1.4136 -2.1984 -2.1984 0 -0.3144 -0.47136 0 -0.3144 0.15648Z" clip-rule="evenodd" stroke-width="1"></path><path fill="#000000" fill-rule="evenodd" d="M38.240159999999996 32.979839999999996c0.7852799999999999 1.25616 1.5705599999999997 2.5128 2.9841599999999997 2.66976 1.88448 0.31392 2.6692799999999997 -1.88448 0.94224 -3.14064 -0.3144 -0.15744 -0.47136 0.15696 -0.3144 0.31392 1.5705599999999997 1.41312 0 3.76896 -3.2976 -0.15696 -0.15744 -0.15744 -0.47136 0.15696 -0.3144 0.31392Z" clip-rule="evenodd" stroke-width="1"></path><path fill="#000000" fill-rule="evenodd" d="M14.512799999999999 30.683999999999997c-0.94224 0.7852799999999999 -1.87104 1.668 -2.18496 2.7672 -0.47136 1.72752 1.88448 2.66976 3.2976 1.88448 1.0992 -0.62832 1.6377599999999999 -1.5504 2.42256 -2.4926399999999997 0.15744 -0.3144 -0.15696 -0.47136 -0.31392 -0.3144 -0.62832 0.7852799999999999 -1.3228799999999998 1.5504 -2.2655999999999996 2.02176 -0.7847999999999999 0.31392 -2.35536 0 -2.1984 -1.0992 0.15696 -0.94224 0.9283199999999999 -1.82448 1.7135999999999998 -2.60976 0 0 -0.31392 -0.3144 -0.47087999999999997 -0.15744Z" clip-rule="evenodd" stroke-width="1"></path><path fill="#000000" fill-rule="evenodd" d="M20.808 32.50944c-2.04144 1.88448 -0.15648 3.45504 1.57104 2.98368 1.41312 -0.47087999999999997 1.884 -1.72752 2.51232 -2.66976 0.15696 -0.31392 -0.15696 -0.47087999999999997 -0.31392 -0.31392 -0.7852799999999999 0.94224 -1.25616 1.88448 -2.35584 2.1984 -0.62784 0.15696 -1.57008 -0.15696 -1.41312 -0.7852799999999999 0 -0.31392 0.31392 -0.7847999999999999 0.47087999999999997 -1.0992 0 -0.31392 -0.31392 -0.62832 -0.47087999999999997 -0.31392Z" clip-rule="evenodd" stroke-width="1"></path><path fill="#000000" fill-rule="evenodd" d="M18.45264 30.624959999999998c-0.31392 -0.3144 -1.41312 -1.4136 -1.72752 -1.5705599999999997 0 -9.108479999999998 -0.15696 -9.893759999999999 0 -11.621279999999999 0.47136 -0.47136 0.94224 -1.0992 1.25664 -1.5705599999999997 0.47087999999999997 -0.62832 0.47087999999999997 -0.47087999999999997 1.25616 -0.47087999999999997 16.176000000000002 -0.3144 16.01856 0.15696 16.01856 -0.3144 0 -0.15696 -0.15696 -0.15696 -0.15696 -0.15696 -21.35808 0.15696 -15.076799999999999 -1.5705599999999997 -19.00224 2.04144 -0.3144 0.3144 -0.3144 1.25664 -0.15744 7.852799999999999 0.15744 5.4959999999999996 -0.47087999999999997 4.23984 2.0419199999999997 6.4382399999999995 0.47087999999999997 0.47136 3.612 0 9.108479999999998 0.15744 2.82672 0 2.98368 0.31392 2.98368 -0.15744 0.31392 -0.94224 -9.579839999999999 -0.31392 -11.6208 -0.62784Z" clip-rule="evenodd" stroke-width="1"></path><path fill="#000000" fill-rule="evenodd" d="M35.72736 15.70512c2.35584 3.612 1.5705599999999997 0.94224 1.728 3.9263999999999997 0 0.9417599999999999 0.15696 1.72704 0.31392 2.6692799999999997 0 0.15744 0.15696 0.15744 0.31392 0.15744 0.31392 0 0.15696 -0.15744 0.31392 -4.71168 0 -0.47087999999999997 -1.25616 -1.25616 -2.35536 -2.35536 -0.15744 -0.15696 -0.62832 0.15696 -0.3144 0.31392Z" clip-rule="evenodd" stroke-width="1"></path><path fill="#000000" fill-rule="evenodd" d="M18.99984 18.75024c-0.15456 0.33455999999999997 0.20736 0.64464 0.4584 0.45887999999999995 0.54336 -0.40224 0.93312 -0.94848 1.1472 -1.37616 0.47663999999999995 -0.95376 -1.3872 -0.17279999999999998 -1.6056000000000001 0.91728Z" clip-rule="evenodd" stroke-width="1"></path><path fill="#000000" fill-rule="evenodd" d="M26.304959999999998 16.33344c-0.26784 0.15888 -0.62832 0.47087999999999997 -0.94224 1.25616 -0.15696 0.3144 0.15696 0.47136 0.31392 0.31392 0.46175999999999995 -0.31392 0.8481599999999999 -0.73296 1.03872 -1.1515199999999999 0.31392 -0.31392 -0.25344 -0.73296 -0.4104 -0.41856Z" clip-rule="evenodd" stroke-width="1"></path><path fill="#000000" fill-rule="evenodd" d="M30.388319999999997 16.176000000000002c-0.39359999999999995 0.39359999999999995 -0.7852799999999999 0.6288 -1.0992 1.25664 -0.15744 0.31392 0.15696 0.47087999999999997 0.31392 0.31392 0.59808 -0.48623999999999995 0.9071999999999999 -0.76896 1.0992 -1.25616 0.15696 -0.15696 -0.15696 -0.47136 -0.31392 -0.31392Z" clip-rule="evenodd" stroke-width="1"></path><path fill="#000000" fill-rule="evenodd" d="M35.09952 18.846239999999998c-0.21408 0.14736 -0.43392 0.36047999999999997 -0.6288 0.7852799999999999 -0.15648 0.15696 0.15744 0.47136 0.3144 0.31392 0.5908800000000001 -0.19679999999999997 0.9782399999999999 -1.43136 0.3144 -1.0992Z" clip-rule="evenodd" stroke-width="1"></path><path fill="#000000" fill-rule="evenodd" d="M25.12128 21.67776c-0.15696 0.31392 0.15696 0.47087999999999997 0.31392 0.31392 0.7852799999999999 -0.47087999999999997 0.94224 -0.8884799999999999 0.94224 -1.0992 -0.16032 -0.79152 -0.88224 0.03792 -1.25616 0.7852799999999999Z" clip-rule="evenodd" stroke-width="1"></path><path fill="#000000" fill-rule="evenodd" d="M25.519679999999997 25.284959999999998c-0.15696 0.31392 0.15696 0.47087999999999997 0.31392 0.31392 0.47136 -0.47087999999999997 0.7852799999999999 -0.6648 0.7852799999999999 -1.0992 -0.26928 -0.6806399999999999 -0.9686399999999998 0 -1.0992 0.7852799999999999Z" clip-rule="evenodd" stroke-width="1"></path><path fill="#000000" fill-rule="evenodd" d="M20.7144 22.496159999999996c-0.15696 0.3144 0.31392 0.47136 0.47087999999999997 0.3144 0.6288 -0.62832 0.6288 -0.62832 0.6288 -1.25664 -0.2064 -0.87072 -0.98304 0.24192 -1.09968 0.94224Z" clip-rule="evenodd" stroke-width="1"></path><path fill="#000000" fill-rule="evenodd" d="M18.76656 25.59888c-0.47087999999999997 0.31392 -0.62832 0.31392 -0.7852799999999999 1.25616 -0.15696 0.3144 0.15744 0.47136 0.47136 0.3144 0.62832 -0.47136 0.62832 -0.47136 0.7852799999999999 -1.0992 0.15696 -0.47136 -0.3144 -0.6288 -0.47136 -0.47136Z" clip-rule="evenodd" stroke-width="1"></path><path fill="#000000" fill-rule="evenodd" d="M19.68432 29.444159999999997c-0.15744 0.3144 0.15696 0.47136 0.47087999999999997 0.3144 0.47136 -0.47136 0.62832 -0.47136 0.62832 -1.0992 -0.1992 -0.78 -0.92976 -0.06432 -1.0992 0.7847999999999999Z" clip-rule="evenodd" stroke-width="1"></path><path fill="#000000" fill-rule="evenodd" d="M23.16384 28.74c-0.15696 0.31392 0.15744 0.47087999999999997 0.3144 0.31392 0.7852799999999999 -0.62832 0.9105599999999999 -0.97776 0.7852799999999999 -1.25616 -0.27696 -0.6144 -0.7852799999999999 -0.10368 -1.0992 0.94224Z" clip-rule="evenodd" stroke-width="1"></path><path fill="#000000" fill-rule="evenodd" d="M8.088000000000001 27.01248c-1.0992 0.94224 -1.728 2.1984 -0.7852799999999999 3.2976 1.0992 1.25664 2.66976 0.47136 3.76896 -0.62832 0.94224 -0.7847999999999999 1.25616 -1.25616 2.1984 -1.25616 1.25664 -0.15696 1.70016 0.15696 1.70016 -0.31392 0 -0.15696 -0.15696 -0.15696 -0.31392 -0.15696l-1.38624 0c-1.88448 0.15696 -2.35536 1.57008 -3.9263999999999997 2.1984 -1.72704 0.7852799999999999 -3.45456 -1.72752 2.19888 -4.24032 2.66976 -1.25616 3.6124799999999997 -0.31392 3.6124799999999997 -0.94224 0 -0.7852799999999999 -3.6124799999999997 -0.94224 -7.06752 2.0419199999999997Z" clip-rule="evenodd" stroke-width="1"></path><path fill="#000000" fill-rule="evenodd" d="M0.864 12.8784c2.82672 0.15696 4.23984 1.72752 9.26544 1.72752 1.25616 0 2.1984 -0.15696 3.9263999999999997 -0.31392 0.15648 0 0.15648 -0.15744 0.15648 -0.3144 0 -0.62832 -3.2976 0.47136 -8.95152 -1.0992 -5.65344 -1.25616 -4.7112 0 -4.3968 0Z" clip-rule="evenodd" stroke-width="1"></path><path fill="#000000" fill-rule="evenodd" d="M12.64176 17.43264c-5.65344 0.62784 -8.008799999999999 -1.4136 -11.6208 -1.5705599999999997 -0.3144 0 -0.3144 0.47087999999999997 0 0.47087999999999997 3.2976 0.3144 5.33952 2.8272 11.77824 1.5705599999999997 0.31392 0 0.15696 -0.47087999999999997 -0.15744 -0.47087999999999997Z" clip-rule="evenodd" stroke-width="1"></path><path fill="#000000" fill-rule="evenodd" d="M0.5496 19.3176c2.35584 0.15696 3.612 1.72752 8.00928 1.88448 1.0992 0 1.88448 -0.15696 3.76896 -0.15696 0.15696 0 0.15696 -0.15696 0.15696 -0.15696 0 -0.62832 -3.14064 0.31392 -8.3232 -1.25664 -4.554239999999999 -1.57008 -3.9263999999999997 -0.31392 -3.612 -0.31392Z" clip-rule="evenodd" stroke-width="1"></path><path fill="#000000" fill-rule="evenodd" d="M1.0209599999999999 23.08608c2.1984 0.15696 2.82672 0.62832 4.3968 1.0992 2.0419199999999997 0.62832 3.612 0.31392 5.1825600000000005 0.31392 0.15744 0 0.15696 -0.15696 0.3144 -0.15696 0 -0.31392 -0.3144 -0.15696 -2.8272 -0.31392 -3.2976 -0.31392 -3.45456 -1.5705599999999997 -7.06656 -1.25616 -0.3144 -0.15744 -0.15744 0.31392 0 0.31392Z" clip-rule="evenodd" stroke-width="1"></path><path fill="#000000" fill-rule="evenodd" d="M0.70656 26.541119999999996c1.88448 0.31392 5.1825600000000005 2.04144 5.49648 1.25616 0 -0.31392 -0.15696 -0.15696 -1.5705599999999997 -0.7847999999999999 -4.08288 -1.88496 -4.554239999999999 -0.47136 -3.9263999999999997 -0.47136Z" clip-rule="evenodd" stroke-width="1"></path><path fill="#000000" fill-rule="evenodd" d="M0.2352 30.31056c1.88496 0.15696 3.29808 1.41312 5.49696 1.41312 0.94224 0 1.41312 0 1.41312 -0.31392s-0.31392 -0.15696 -1.41312 -0.31392c-1.728 -0.15744 -3.2976 -1.4136 -5.49648 -1.25664 -0.3144 0 -0.3144 0.47136 0 0.47136Z" clip-rule="evenodd" stroke-width="1"></path><path fill="#000000" fill-rule="evenodd" d="M10.914719999999999 30.78192c0.47087999999999997 0.15696 0.82704 0.0624 1.25616 0 0.52608 -0.35856 -0.4871999999999999 -0.8558399999999999 -1.25616 -0.47136 -0.3144 0 -0.3144 0.47136 0 0.47136Z" clip-rule="evenodd" stroke-width="1"></path><path fill="#000000" fill-rule="evenodd" d="M0.864 33.60864c2.51232 0.15696 4.08288 1.41312 7.224 1.41312 0.94224 0 1.72704 -0.15696 2.66976 -0.15696 0.15696 0 0.15696 -0.15696 0.15696 -0.31392 0 -0.62832 -1.4136 0.31392 -6.1248 -0.7852799999999999 -4.86864 -1.4136 -4.397279999999999 -0.15696 -3.9263999999999997 -0.15696Z" clip-rule="evenodd" stroke-width="1"></path></svg>