<svg xmlns="http://www.w3.org/2000/svg" fill="none" viewBox="0 0 48 48" height="48" width="48" id="Picard-Facepalm-Hand-Drawn--Streamline-Memes.svg"><desc>Picard Facepalm Hand Drawn Streamline Element: https://streamlinehq.com</desc><path fill="#000000" fill-rule="evenodd" d="M22.700688 25.231104C23.009231999999997 25.076783999999996 23.935008 25.539648 24.397872 25.693967999999998C25.786944 26.465424 25.940784 27.082559999999997 26.249807999999998 26.773968C26.404128 26.619696 26.249807999999998 26.465424 26.249807999999998 26.465424C25.478352 25.848239999999997 23.780688 24.151056 22.546368 24.61392C21.620639999999998 24.922512 22.237775999999997 25.848239999999997 22.85496 26.619696C23.626416 27.391151999999998 23.935008 27.700224 24.552144 28.625951999999998C25.3236 30.323135999999998 25.3236 31.094592 27.021264 32.329392C29.798976 34.180896 29.335632 33.40944 31.033776 37.11336C31.187568000000002 37.421471999999994 31.49616 37.267151999999996 31.49616 36.95856C30.107568 33.40944 30.879023999999998 34.180896 27.638928 31.712207999999997C26.095536 30.477456 26.095536 29.860272 25.32408 28.31736C24.552623999999998 26.774447999999996 23.317823999999998 26.311103999999997 22.700688 25.231104Z" clip-rule="evenodd" stroke-width="1"></path><path fill="#000000" fill-rule="evenodd" d="M22.85496 22.916255999999997C23.472095999999997 22.144799999999996 27.484128 25.848239999999997 27.79272 25.385376C27.947039999999998 25.231104 27.79272 25.076783999999996 27.79272 25.076783999999996C26.404128 23.996304 25.015487999999998 22.144799999999996 23.009231999999997 21.990528C22.083503999999998 22.144799999999996 21.929232 22.916255999999997 22.392096 23.687712C22.85496 24.304848 23.163552 24.613439999999997 24.08928 25.385376C24.244032 25.539648 24.552623999999998 25.231104 24.398352 25.076783999999996C23.780688 24.459168 23.317823999999998 23.996304 23.009231999999997 23.224848C22.85496 23.070528 22.85496 22.916255999999997 22.85496 22.916255999999997Z" clip-rule="evenodd" stroke-width="1"></path><path fill="#000000" fill-rule="evenodd" d="M26.095536 23.687712C25.632672 23.224848 25.32408 22.761983999999998 24.706896 22.144799999999996C23.935439999999996 21.218591999999997 22.546368 19.984271999999997 23.780688 20.292864C24.552144 20.601408 25.941215999999997 21.835728 27.484128 23.070528C28.410336 23.841984 28.564656 24.150575999999997 28.718928 23.841984C28.873248 23.687712 28.564656 23.379119999999997 27.79272 22.607664C26.712672 21.527184 24.861216 19.67568 23.780688 19.366608C22.546368 19.058495999999998 21.774912 20.138544 22.546368 21.064752C22.700688 21.372864 24.08928 22.607664 24.552623999999998 23.070528C25.32408 23.841984 25.478352 24.150575999999997 25.786944 23.996304C26.249807999999998 23.996304 26.249807999999998 23.841984 26.095536 23.687712Z" clip-rule="evenodd" stroke-width="1"></path><path fill="#000000" fill-rule="evenodd" d="M25.941215999999997 20.91C25.786944 20.601408 25.169808 19.829952 25.32408 19.521408C26.249807999999998 19.212816 31.650912 23.687712 32.113344 24.305328C32.267616 24.459168 32.730959999999996 24.150575999999997 32.421935999999995 23.996304C31.341887999999997 22.607664 27.484128 19.058495999999998 25.632672 18.904224C24.08976 19.058495999999998 24.552144 19.984271999999997 25.478352 21.218591999999997C25.786944 21.372864 26.095536 21.064752 25.941264 20.91Z" clip-rule="evenodd" stroke-width="1"></path><path fill="#000000" fill-rule="evenodd" d="M36.58824 34.181328C34.582464 30.786 35.353919999999995 29.243087999999997 35.1996 27.545423999999997C34.891008 25.693967999999998 33.811008 26.156831999999998 35.045328 23.533392C36.125376 21.219072 33.348144 20.601408 32.113344 23.841984C31.959024 24.151056 32.421935999999995 24.305328 32.576207999999994 23.996736C33.193824 22.453872 34.428144 21.836208 34.582464 22.299072C34.891056 22.761983999999998 33.656687999999995 23.996304 33.656687999999995 25.384895999999998C33.656687999999995 26.311103999999997 34.273872 26.928288 34.273872 27.699744C34.582464 29.397408 33.811008 30.940752 36.125376 34.489439999999995C36.43391999999999 34.64375999999999 36.742992 34.489439999999995 36.58824 34.180848Z" clip-rule="evenodd" stroke-width="1"></path><path fill="#000000" fill-rule="evenodd" d="M33.96528 21.681455999999997C34.736736 21.372864 35.045328 21.527184 35.045328 21.218591999999997C35.045328 20.755728 33.96528 20.91 33.656687999999995 21.064272C32.421887999999996 21.372864 31.804752 22.607184 31.959024 22.761504C32.267616 22.915775999999997 32.421887999999996 22.29864 33.96528 21.681455999999997Z" clip-rule="evenodd" stroke-width="1"></path><path fill="#000000" fill-rule="evenodd" d="M25.169808 17.361312C27.79272 19.213296 27.175584 18.44184 28.873248 19.367568C29.181791999999998 19.521839999999997 29.336112 19.213296 29.181791999999998 19.058976C27.638928 17.669904 26.867472 17.361312 25.478352 16.898448000000002C25.015487999999998 16.898448000000002 24.861216 17.20704 25.169808 17.361312Z" clip-rule="evenodd" stroke-width="1"></path><path fill="#000000" fill-rule="evenodd" d="M26.712672 16.280832C28.255584 17.515151999999997 27.79272 17.052287999999997 29.490384 17.978016C29.798976 18.132768 29.953248 17.823744 29.798976 17.669424C28.410336 16.435104 28.101312 16.435104 27.021264 15.97224C26.5584 15.663647999999998 26.404128 16.126511999999998 26.712672 16.280832Z" clip-rule="evenodd" stroke-width="1"></path><path fill="#000000" fill-rule="evenodd" d="M23.009231999999997 18.595632000000002C26.404128 4.399056 44.149871999999995 7.33104 38.594448 20.755728C38.440175999999994 21.064752 38.90304 21.219072 39.05736 20.91048C45.075599999999994 7.022448 26.404128 2.547552 22.546368 18.44088C22.546368 18.749951999999997 23.009231999999997 18.904224 23.009231999999997 18.595632000000002Z" clip-rule="evenodd" stroke-width="1"></path><path fill="#000000" fill-rule="evenodd" d="M37.82304 21.836208C39.211632 20.91 39.365952 21.372864 39.365952 22.144799999999996C39.365952 23.53344 37.82304 24.613439999999997 37.051584 25.539648C36.43391999999999 26.311103999999997 35.816784 26.619696 35.816784 25.848239999999997C35.816784 25.539216 35.045328 25.539648 35.353919999999995 26.311103999999997C35.816784 27.23688 36.896784000000004 26.774016 37.514448 26.00256C38.440175999999994 25.076783999999996 39.520224 24.459647999999998 39.983088 22.916255999999997C40.445952 21.373344 39.520224 19.367088 37.514448 21.373344C37.360128 21.681935999999997 37.66872 21.990528 37.82304 21.836208Z" clip-rule="evenodd" stroke-width="1"></path><path fill="#000000" fill-rule="evenodd" d="M36.742992 24.61392C37.051584 24.305328 38.440175999999994 22.608144 38.594448 22.608144C38.748768 22.762415999999998 38.748768 22.916736 39.05736 22.916736C39.520224 22.762415999999998 38.748768 21.064752 37.051584 22.916736C35.816784 24.768192 36.588671999999995 24.922512 36.742992 24.61392Z" clip-rule="evenodd" stroke-width="1"></path><path fill="#000000" fill-rule="evenodd" d="M38.131584 23.996304C38.748768 23.379119999999997 38.440175999999994 22.607664 37.82304 22.453392C37.514448 22.299072 37.360128 22.761983999999998 37.66872 22.916255999999997C37.82304 23.070528 37.66872 23.224848 37.66872 23.379119999999997C37.66872 23.379119999999997 37.82304 23.687712 37.82304 23.841984C37.514448 23.996304 37.977312 24.150575999999997 38.131584 23.996304Z" clip-rule="evenodd" stroke-width="1"></path><path fill="#000000" fill-rule="evenodd" d="M36.125376 26.619696C34.736736 28.471632 35.508191999999994 27.700224 34.891008 28.780223999999997C34.736736 29.088815999999998 35.045328 29.243087999999997 35.1996 29.088815999999998C36.279648 28.163088 36.43391999999999 27.700224 36.58872 26.774447999999996C36.58872 26.465424 36.125376 26.311103999999997 36.125376 26.619696Z" clip-rule="evenodd" stroke-width="1"></path><path fill="#000000" fill-rule="evenodd" d="M39.983568 16.281312C36.4344 18.44184 35.971056 22.14528 36.4344 22.14528C36.897264 22.14528 37.360128 21.836688 37.66872 21.682416C40.137840000000004 20.293296 39.365952 16.898448000000002 39.983088 16.281312Z" clip-rule="evenodd" stroke-width="1"></path><path fill="#000000" fill-rule="evenodd" d="M22.392096 26.773968C22.237775999999997 27.391151999999998 22.546368 27.854016 22.700688 28.316879999999998S22.700688 29.242655999999997 22.85496 29.859792C23.163552 30.94032 24.397872 31.866048000000003 25.632191999999996 31.711775999999997C25.941264 31.711775999999997 25.941264 31.248863999999998 25.632191999999996 31.248863999999998C24.860736 31.248863999999998 23.935008 30.477456 23.780688 29.551199999999998C23.626416 29.088336 23.780688 28.625472 23.472144 28.162608C23.317823999999998 27.545423999999997 23.009231999999997 27.545423999999997 23.009231999999997 27.082559999999997C23.009231999999997 26.773968 23.009231999999997 26.464944 22.700688 26.464944C22.521935999999997 26.439984 22.452768 26.53032 22.392096 26.773968Z" clip-rule="evenodd" stroke-width="1"></path><path fill="#000000" fill-rule="evenodd" d="M21.157776 24.76776C18.534336 24.459168 14.985216 23.224848 12.207504 24.150575999999997C9.893136 24.922032 7.732608 26.928288 6.034944 28.625472C5.726351999999999 28.779743999999997 4.646304 28.162608 4.029167999999999 29.242655999999997C3.8748479999999996 29.551199999999998 3.720576 30.014063999999998 3.720576 30.323135999999998C1.868592 30.014543999999997 1.2514560000000001 30.631728 0.48 32.328912C0.48 32.483183999999994 0.48 32.637504 0.634272 32.637504C1.097184 32.791776 0.9428639999999999 32.02032 1.7143199999999998 31.248863999999998C2.177184 30.786 2.6405279999999998 30.786 3.411984 30.786C3.8748479999999996 30.94032 4.18344 31.094592 4.337712 30.786C4.646304 30.168864 4.646304 29.396928 5.1091679999999995 29.243087999999997H6.1896960000000005C6.806831999999999 29.088336 7.732608 27.854016 10.046975999999999 26.156831999999998C11.898912 24.767712 13.441823999999999 24.304848 15.910943999999997 24.459168C19.923455999999998 24.767712 21.46632 25.539168 21.46632 24.922032C21.46632 24.767712 21.312048 24.767712 21.157776 24.767712Z" clip-rule="evenodd" stroke-width="1"></path><path fill="#000000" fill-rule="evenodd" d="M3.566304 32.483232C5.263488 33.100368 6.806831999999999 33.25464 8.812607999999999 32.637504C9.12168 32.637504 8.966928 32.174640000000004 8.658336 32.174640000000004C7.886880000000001 32.328912 7.115424 32.328912 6.343967999999999 32.174640000000004C3.411984 32.02032 3.257712 31.866048000000003 3.257712 32.174640000000004C3.411984 32.328912 3.411984 32.483232 3.566256 32.483232Z" clip-rule="evenodd" stroke-width="1"></path><path fill="#000000" fill-rule="evenodd" d="M10.51032 29.55168C8.658336 37.11288 10.201248 32.02032 5.57208 39.272928C5.41776 39.58152 5.726351999999999 39.735792 5.880624 39.58152C7.732608 36.95856 9.429791999999999 35.72424 9.893136 34.798032C10.664591999999999 33.25512 10.664591999999999 31.248863999999998 10.818864 29.706C10.973184 29.397408 10.510271999999999 29.243087999999997 10.510271999999999 29.55168Z" clip-rule="evenodd" stroke-width="1"></path><path fill="#000000" fill-rule="evenodd" d="M37.051584 28.008767999999996C41.52647999999999 30.94032 43.378416 30.786 44.921328 32.483664C46.46424 34.026576 47.081376 36.95856 46.92710399999999 38.3472C46.92710399999999 38.656224 47.853312 39.118656 47.39044799999999 36.032832C46.46424 30.014543999999997 42.297936 30.631728 37.360128 27.700176C37.051584 27.545904 36.742992 27.854496 37.051584 28.008767999999996Z" clip-rule="evenodd" stroke-width="1"></path><path fill="#000000" fill-rule="evenodd" d="M10.664112 25.230624C13.133712 26.156352000000002 16.373807999999997 28.779743999999997 19.768656 30.322656C20.694432 30.785567999999998 24.243551999999998 32.02032 24.397872 31.403183999999996C24.397872 30.785567999999998 23.780688 31.557455999999995 20.077247999999997 29.705519999999996C16.836672 28.162608 14.830896 26.310624 10.818864 24.921552C10.664591999999999 24.76776 10.510271999999999 25.076304 10.664591999999999 25.230624Z" clip-rule="evenodd" stroke-width="1"></path><path fill="#000000" fill-rule="evenodd" d="M35.508191999999994 32.638416C40.292159999999996 34.335648 46.001376 34.181328 46.618992 36.495696C46.618992 36.804288 47.081376 36.650016 47.081376 36.341423999999996C46.30992 33.100848 38.440175999999994 33.100848 35.662464 32.17511999999999C35.353919999999995 32.020799999999994 35.1996 32.483664 35.508191999999994 32.637984Z" clip-rule="evenodd" stroke-width="1"></path><path fill="#000000" fill-rule="evenodd" d="M30.570432 35.72424C28.409904 37.57574399999999 29.336112 39.119136 33.811008 36.804288C34.891008 36.187104 36.742992 35.10710399999999 37.051584 34.027056C37.205856000000004 33.564192 36.897264 33.100848 36.125376 33.100848C35.816784 33.100848 35.816784 33.563712 36.125376 33.563712C38.748768 33.717984 30.261839999999996 37.730495999999995 30.107568 37.267151999999996C29.953248 37.267151999999996 30.107568 37.11288 30.261839999999996 36.95856C30.724704 36.187104 31.187568000000002 36.032832 31.033295999999996 35.72424C30.724704 35.569968 30.570432 35.569968 30.570432 35.72424Z" clip-rule="evenodd" stroke-width="1"></path><path fill="#000000" fill-rule="evenodd" d="M29.181791999999998 36.032352C28.101312 36.958127999999995 28.255584 37.883856 29.02704 39.118176C29.181359999999998 39.427248 29.644656 39.118176 29.490384 38.964336C29.336112 38.34672 29.181791999999998 37.730016 29.336112 37.112399999999994C29.490384 36.340944 29.644703999999997 36.340944 29.490384 36.186672C29.490384 35.87808 29.336112 35.87808 29.181791999999998 36.032352Z" clip-rule="evenodd" stroke-width="1"></path><path fill="#000000" fill-rule="evenodd" d="M36.897264 33.2556C37.66872 33.409872 37.514448 34.181328 38.90304 36.95904C39.983088 39.119136 40.13736 39.42768 40.29168 39.273407999999996C40.445952 39.273407999999996 40.445952 39.119136 40.445952 38.964816C39.520224 36.804288 38.59449599999999 32.637984 36.897264 32.792256C36.742512 32.792256 36.58824 33.2556 36.897264 33.2556Z" clip-rule="evenodd" stroke-width="1"></path><path fill="#000000" fill-rule="evenodd" d="M13.287552 33.40896C11.59032 33.100368 13.441823999999999 31.557455999999995 15.448080000000001 31.403183999999996C18.225744 31.248863999999998 19.460112 32.637504 25.32408 33.100368C25.632672 33.100368 25.632672 32.637504 25.32408 32.637504C19.460064 32.02032 15.293759999999999 28.934064 12.670368 31.711775999999997C11.74464 32.637504 11.898912 33.563232 13.133232 33.871824C13.596575999999999 33.871824 13.596096 33.40896 13.287552 33.40896Z" clip-rule="evenodd" stroke-width="1"></path><path fill="#000000" fill-rule="evenodd" d="M19.614384 34.952304C21.928752 35.106624000000004 24.552144 35.72376 29.953248 34.64375999999999C30.261839999999996 34.64375999999999 30.107568 34.180848 29.953248 34.180848C27.63888 34.489439999999995 24.552144 34.180848 19.614384 34.489439999999995C19.305791999999997 34.489439999999995 19.305791999999997 34.952304 19.614384 34.952304Z" clip-rule="evenodd" stroke-width="1"></path></svg>