<svg xmlns="http://www.w3.org/2000/svg" fill="none" viewBox="0 0 48 48" height="48" width="48" id="Picard-Facepalm--Streamline-Memes.svg"><desc>Picard Facepalm Streamline Element: https://streamlinehq.com</desc><path stroke="#000000" stroke-linecap="round" stroke-linejoin="round" d="M37.22 32.428c-0.95 -1.047 -3.158 -7.243 -3.097 -9.066 0.06 -1.822 1.943 -3.705 1.215 -4.677 -0.73 -0.972 -2.278 0.85 -2.886 2.248 -2.202 -1.993 -7.046 -6.59 -8.716 -5.163 -0.579 0.941 2.915 3.31 4.191 4.282 -1.336 -0.608 -5.156 -4.373 -6.196 -3.097m0 0c-1.04 1.276 1.055 2.381 4.07 4.403 -1.493 -0.972 -4.046 -2.997 -4.98 -1.792 -1.06 1.367 3.507 3.371 4.418 4.1 -1.26 -0.638 -3.69 -2.673 -4.419 -1.64 -0.729 1.032 5.619 7.35 9.263 10.205 0.438 0.923 0.507 2.601 0.669 3.492M21.73 16.955c0.83 -3.596 2.431 -8.83 5.406 -11.269 3.5 -2.867 8.14 -1.72 10.023 -0.79 2.51 1.317 6.475 5.65 2.247 12.453l-0.182 0.395" stroke-width="1"></path><path stroke="#000000" stroke-linecap="round" stroke-linejoin="round" d="M37.403 18.32c2.065 -1.396 3.584 -0.06 2.065 2.309 -1.091 1.702 -2.43 2.612 -3.462 2.733" stroke-width="1"></path><path stroke="#000000" stroke-linecap="round" stroke-linejoin="round" d="M27.502 30.059c-0.936 0.162 -2.649 0.957 -4.9 -0.592 -1.58 -1.087 -1.742 -4.247 -1.627 -6.648" stroke-width="1"></path><path stroke="#000000" stroke-linecap="round" stroke-linejoin="round" d="M31.966 18.078c0.486 -0.577 1.337 -1.762 2.946 -1.488" stroke-width="1"></path><path stroke="#000000" stroke-linecap="round" stroke-linejoin="round" d="M25.801 13.097c0.77 0.648 2.673 1.992 4.13 2.187" stroke-width="1"></path><path stroke="#000000" stroke-linecap="round" stroke-linejoin="round" d="M36.871 23.104c0.04 0.685 0.544 2.27 2.05 3.068 1.507 0.798 5.548 2.994 8.079 4.227v13.737" stroke-width="1"></path><path stroke="#000000" stroke-linecap="round" stroke-linejoin="round" d="M20.942 22.087c-2.597 -0.628 -10.09 -1.349 -11.116 -1.154 -1.026 0.194 -4.205 3.24 -7.41 5.83m8.709 -5.845L5.756 43.103" stroke-width="1"></path><path stroke="#000000" stroke-linecap="round" stroke-linejoin="round" d="M30.843 44.136c0.182 -2.369 -1.823 -8.14 -1.823 -8.14 4.058 -0.417 5.864 -1.817 9.112 -4.251l2.004 8.625" stroke-width="1"></path><path stroke="#000000" stroke-linecap="round" stroke-linejoin="round" d="M37.16 24.137c-0.503 1.236 -1.982 2.999 -2.172 3.098" stroke-width="1"></path><path stroke="#000000" stroke-linecap="round" stroke-linejoin="round" d="M6.728 23.12c2.485 0.601 7.543 3.374 11.342 4.753" stroke-width="1"></path><path stroke="#000000" stroke-linecap="round" stroke-linejoin="round" d="M46.985 34.235c-0.831 -0.934 -3.634 -2.033 -6.318 -2.82" stroke-width="1"></path><path stroke="#000000" stroke-linecap="round" stroke-linejoin="round" d="M37.403 18.29c0 -2.43 -1.045 -3.468 -0.608 -4.829 0.547 -1.7 3.523 -1.883 4.495 -1.883" stroke-width="1"></path><path stroke="#000000" stroke-linecap="round" d="M2.72 26.339c-1.736 -4.454 -1.782 -7.155 0.242 -10.56 0.34 -0.573 0.971 -0.9 1.637 -0.9l17.649 0" stroke-width="1"></path><path stroke="#000000" stroke-linecap="round" d="M40.44 15.405h1.252c0.759 0 1.46 0.428 1.763 1.124 1.96 4.516 1.54 7.842 -0.707 11.662" stroke-width="1"></path></svg>