<svg xmlns="http://www.w3.org/2000/svg" fill="none" viewBox="0 0 48 48" height="48" width="48" id="Pointing-At-Cat-Meme-Hand-Drawn--Streamline-Memes.svg"><desc>Pointing At Cat Meme Hand Drawn Streamline Element: https://streamlinehq.com</desc><path fill="#000000" fill-rule="evenodd" d="M17.119152 30.925199999999997C16.503792 30.46368 16.196112 29.694432 15.888432000000002 29.232864C15.426863999999998 28.617503999999997 15.734592 28.155983999999997 16.042224 27.540623999999998C16.965312 25.848336 18.04224 26.002128 18.811488 25.694447999999998C20.196096 25.232879999999998 19.580688000000002 25.232928 20.657616 25.232928C21.580704 25.386816 20.965343999999998 26.771328 20.503776 27.694416C20.811456 28.309776 21.119135999999997 28.771344 20.965296 29.386703999999998C20.657616 27.540575999999998 19.888416 27.540623999999998 19.734527999999997 28.155983999999997C19.580688000000002 28.463711999999997 19.734527999999997 28.925231999999998 19.734527999999997 29.232864C19.734527999999997 30.309792 18.503808 31.386719999999997 15.734592 28.925231999999998C16.042224 29.848271999999998 16.503792 30.46368 17.119152 30.925152ZM16.965312 26.771424C18.19608 26.925264 19.119168 26.925216 20.196047999999998 26.155967999999998C20.657616 25.848288 20.811456 25.848336 20.349936 25.694447999999998C19.888416 25.694447999999998 19.273007999999997 26.002128 18.19608 26.309855999999996C17.888399999999997 26.309855999999996 17.27304 26.463696 16.965312 26.771424Z" clip-rule="evenodd" stroke-width="1"></path><path fill="#000000" fill-rule="evenodd" d="M14.811504 9.541248C17.58072 9.233568 20.042256 11.848944 20.965343999999998 14.771951999999999C21.273024 15.848927999999999 21.426864 16.925856 21.734543999999996 17.848896C22.042271999999997 18.771984 22.349904 19.541232 22.657632 20.464271999999998C22.965359999999997 21.541199999999996 22.657632 21.84888 23.1192 21.84888C23.888399999999997 21.84888 22.657632 18.771935999999997 22.503791999999997 17.695055999999997C22.349904 16.771968 22.196112 15.848880000000001 21.888432 14.92584C20.811456 10.464336 17.58072 8.618208 14.811504 9.079728C14.503824 9.079728 14.503824 9.541248 14.811504 9.541248Z" clip-rule="evenodd" stroke-width="1"></path><path fill="#000000" fill-rule="evenodd" d="M22.811328 22.618176C22.657536 23.848944 22.042128 26.002799999999997 22.811328 28.310496C22.965215999999998 28.618176 23.272848 28.464336 23.272848 28.156608C22.965215999999998 26.46432 23.580575999999997 25.233551999999996 23.272848 22.618176C23.272848 22.310496 22.811328 22.310496 22.811328 22.618176Z" clip-rule="evenodd" stroke-width="1"></path><path fill="#000000" fill-rule="evenodd" d="M18.6576 25.3872C18.349919999999997 25.3872 18.04224 25.54104 17.734560000000002 25.54104C16.042224 25.848767999999996 15.119183999999999 27.694895999999996 15.119183999999999 28.464143999999997C15.119183999999999 29.233344 16.042224 30.617952 16.349904 30.925631999999997C18.19608 33.079488 21.888384 30.925631999999997 21.119135999999997 28.617984C20.811456 27.387216 20.503776 28.002623999999997 20.811456 27.233375999999996C21.119135999999997 26.310336 21.404112 25.291056 20.481023999999998 24.983424C19.883136 24.93672 19.219632 25.246703999999998 18.6576 25.3872ZM20.042208000000002 27.694895999999996C19.888368 27.387216 21.119135999999997 25.54104 20.349936 25.3872L19.973568 25.402272C19.78296 25.499328000000002 19.435776 25.614624 18.811488 25.848767999999996C17.888399999999997 26.002608 16.965312 26.002608 16.196112 27.541103999999997C15.888383999999999 28.156464 15.734543999999998 28.464143999999997 16.042224 28.925711999999997C16.503744 29.541072 16.965312 30.464112 17.734560000000002 30.771791999999998C18.965328 31.233311999999998 20.349936 30.156432 20.503776 29.387231999999997C20.503776 28.771776 20.349936 28.156415999999997 20.042208000000002 27.694895999999996Z" clip-rule="evenodd" stroke-width="1"></path><path fill="#000000" fill-rule="evenodd" d="M17.734560000000002 16.925184C17.426832 18.771312 17.119152 17.694384 18.04224 19.386672C18.196032 19.694399999999998 18.6576 20.309759999999997 18.965328 20.925168C19.119168 21.232848 19.426848 21.079007999999998 19.426848 20.771328C19.11912 19.386672 18.811488 18.771359999999998 18.349919999999997 18.155952C18.50376 16.309776 17.734560000000002 16.463664 17.734560000000002 16.925184Z" clip-rule="evenodd" stroke-width="1"></path><path fill="#000000" fill-rule="evenodd" d="M19.73448 21.38736C20.293248 21.657504 20.04216 22.156608 19.58064 22.618128C18.81144 23.541168 18.349872 23.233535999999997 18.349872 23.695055999999997C18.503712 24.156624 19.58064 23.695055999999997 19.888368 23.387327999999997C21.580608 22.310448 20.04216 20.772 19.58064 21.079679999999996C19.465535999999997 21.195887999999997 19.560864000000002 21.362304 19.73448 21.38736Z" clip-rule="evenodd" stroke-width="1"></path><path fill="#000000" fill-rule="evenodd" d="M17.888352 23.079456C17.536656 22.92744 17.177519999999998 23.050368 16.811472 23.233344C16.503744 23.387184 16.657584 23.848751999999998 16.965312 23.694912000000002C17.328336 23.513375999999997 17.495136 23.541023999999997 17.734560000000002 23.541023999999997C18.196032 23.541023999999997 18.196032 23.079456 17.888352 23.079456Z" clip-rule="evenodd" stroke-width="1"></path><path fill="#000000" fill-rule="evenodd" d="M16.196016 21.84864C15.426768 22.310208 15.426768 23.233296 16.042128 23.694815999999996C16.196016 24.002496 16.657536 23.694815999999996 16.349808 23.387088C16.06728 23.185008 16.191792 22.255488 16.503648 22.156368C16.657536 22.002480000000002 16.349856 21.694799999999997 16.196016 21.84864Z" clip-rule="evenodd" stroke-width="1"></path><path fill="#000000" fill-rule="evenodd" d="M14.811504 27.23352C14.811504 27.079679999999996 15.734592 24.002736 15.734592 23.848896C16.042224 23.079648 16.196112 22.772015999999997 15.888432000000002 22.772015999999997C15.734592 22.772015999999997 15.580704 22.772015999999997 15.580704 22.925856C14.349936 24.618143999999997 14.196143999999999 26.002752 14.196143999999999 27.387407999999997C14.196143999999999 27.387407999999997 14.657663999999999 27.541199999999996 14.811504 27.23352Z" clip-rule="evenodd" stroke-width="1"></path><path fill="#000000" fill-rule="evenodd" d="M18.965328 18.463728C19.580688000000002 18.002208 21.119135999999997 16.77144 21.426864 17.540688C21.580704 17.848368 21.888384 17.694528 21.888384 17.386799999999997C21.734543999999996 16.77144 21.119135999999997 16.46376 20.349936 16.6176C19.426848 16.77144 19.11912 17.540688 18.6576 18.156048C18.349919999999997 18.463776 18.6576 18.771408 18.965328 18.463728Z" clip-rule="evenodd" stroke-width="1"></path><path fill="#000000" fill-rule="evenodd" d="M21.426864 17.541168C21.272976 17.848848 20.657616 18.156527999999998 20.349936 18.156527999999998C19.734527999999997 18.464256 19.580688000000002 18.31032 19.580688000000002 18.618047999999998C19.580688000000002 18.925728 20.503776 18.925728 20.811456 18.925728C21.888432 18.771888 22.196064 17.541168 21.888384 17.38728C21.580704 17.233439999999998 21.426864 17.38728 21.426864 17.541168Z" clip-rule="evenodd" stroke-width="1"></path><path fill="#000000" fill-rule="evenodd" d="M20.196047999999998 17.233488C19.426848 17.695008 20.196047999999998 18.464256 20.657567999999998 18.002736C21.272976 17.541168 20.657616 16.771919999999998 20.042208000000002 17.387327999999997L20.196047999999998 17.233488Z" clip-rule="evenodd" stroke-width="1"></path><path fill="#000000" fill-rule="evenodd" d="M14.811456 18.92544C13.426848 17.694719999999997 12.042288 18.617808 10.657632 19.694736000000002C10.503791999999999 19.848528 10.503839999999999 20.002416 10.503839999999999 20.156256C10.65768 20.463887999999997 11.1192 20.463936 12.042288 20.463936C13.119216 20.463936 13.426848 20.310048000000002 13.426848 20.156256C13.426848 19.848528 13.119216 20.002416 12.042288 19.848575999999998C11.888399999999999 19.848575999999998 11.734559999999998 19.848528 12.34992 19.540896C13.119216 19.079328 13.734576 18.92544 14.503776 19.387008C14.657615999999999 19.540847999999997 14.965296 19.233168 14.811456 18.92544Z" clip-rule="evenodd" stroke-width="1"></path><path fill="#000000" fill-rule="evenodd" d="M13.273007999999999 18.771888C12.503759999999998 19.079568 12.965328 20.002703999999998 13.580735999999998 19.848816C14.349936 19.694975999999997 13.888416 18.618047999999998 13.119216 18.925728L13.273007999999999 18.771888Z" clip-rule="evenodd" stroke-width="1"></path><path fill="#000000" fill-rule="evenodd" d="M13.273007999999999 8.92536C11.888352 8.463792 10.657632 9.233039999999999 10.042271999999999 10.463808C9.580704 11.694576 9.426863999999998 13.079184 9.119184 14.309952C8.503824 18.925344 7.426895999999999 18.617568 6.811535999999999 21.540671999999997C6.657648 22.156032 6.3499680000000005 24.156048 6.965376 24.00216C7.119167999999999 24.00216 7.119167999999999 23.848368 7.119167999999999 23.694528C6.657648 21.386832 9.119184 18.925296 9.734544 15.848399999999998C10.196112 13.233023999999999 10.196112 8.463792 13.119168 9.38688C13.426848 9.38688 13.580687999999999 9.079199999999998 13.273007999999999 8.92536Z" clip-rule="evenodd" stroke-width="1"></path><path fill="#000000" fill-rule="evenodd" d="M7.734528000000001 12.002448C8.196095999999999 18.617808 5.42688 20.310048000000002 6.19608 24.002352C7.273008 28.310064 10.657632 29.694623999999997 11.426832000000001 31.23312C11.58072 31.540799999999997 12.04224 31.386911999999995 11.888352 31.07928C11.426832000000001 30.002352 10.349904 29.233055999999998 9.580704 28.463856C5.42688 23.848511999999996 7.273056 21.233183999999998 8.042256 18.156239999999997C8.503776 16.002432 8.503824 14.310144 8.196095999999999 12.156288C8.196095999999999 11.694768 7.734528000000001 11.694768 7.734528000000001 12.002448Z" clip-rule="evenodd" stroke-width="1"></path><path fill="#000000" fill-rule="evenodd" d="M21.272928 15.079488C19.58064 15.694848 18.96528 16.617936 18.81144 16.617936C18.81144 16.617936 18.349872 16.310208 18.503712 16.002576C19.119072 15.387215999999999 20.196 14.771759999999999 21.119088 14.925647999999999L21.272928 15.079488Z" clip-rule="evenodd" stroke-width="1"></path><path fill="#000000" fill-rule="evenodd" d="M14.965392 16.92552C13.426943999999999 16.002432 10.042368 17.2332 10.196208 17.540927999999997C10.350048 17.694768 10.042368 17.540927999999997 11.580815999999999 17.387088000000002C13.426943999999999 17.2332 14.042304 17.694768 14.503872 17.540927999999997C14.65776 17.540927999999997 15.11928 17.07936 14.965392 16.92552Z" clip-rule="evenodd" stroke-width="1"></path><path fill="#000000" fill-rule="evenodd" d="M10.349904 6.463679999999999C8.503776 6.3098399999999994 6.811535999999999 6.309888 5.119199999999999 8.309856C2.5038240000000003 11.23296 1.580736 15.386736 0.657648 18.463631999999997C0.657648 18.617472 0.657648 18.771312 0.811536 18.771312C1.426896 18.9252 3.580752 8.002175999999999 8.503776 7.0790880000000005C9.119184 6.9252 9.580704 6.9252 10.196064 7.0790880000000005C10.657632 6.9252 10.657632 6.6175679999999995 10.349904 6.463728000000001Z" clip-rule="evenodd" stroke-width="1"></path><path fill="#000000" fill-rule="evenodd" d="M11.580767999999999 6.463679999999999C14.657711999999998 5.232959999999999 16.19616 6.0022079999999995 18.042288 8.156064C20.196096 10.617552 23.734560000000002 17.232912 24.349919999999997 19.694447999999998C24.965328 22.155983999999997 23.426832 24.156 24.811439999999997 25.848288C24.96528 26.00208 25.426848 25.848239999999997 25.119168 25.54056C24.503808 24.771312 24.6576 23.694432 24.811439999999997 22.771344C25.273007999999997 20.155967999999998 24.96528 18.61752 23.1192 14.925215999999999C21.734543999999996 12.155999999999999 18.811488 6.463679999999999 15.580704 5.54064C14.196143999999999 5.07912 12.657696 5.540688 11.273088 6.0022079999999995C11.119247999999999 6.156048 11.426928 6.463679999999999 11.580767999999999 6.463679999999999Z" clip-rule="evenodd" stroke-width="1"></path><path fill="#000000" fill-rule="evenodd" d="M6.811535999999999 9.232944C5.119199999999999 12.002112 3.580752 15.694464000000002 2.196144 19.848288C1.1192639999999998 22.925184 1.888464 23.386703999999998 1.426944 25.540512C1.1192639999999998 27.07896 0.503856 27.232896 0.811536 27.386688C1.2731039999999998 27.694367999999997 1.734624 26.15592 1.888464 25.694399999999998C2.350032 23.694432 1.734624 23.232864 2.811552 20.155967999999998C5.2730879999999996 13.232928 6.042288 11.23296 6.965376 9.540624C7.273056 9.232944 6.965376 8.925216 6.811535999999999 9.232944Z" clip-rule="evenodd" stroke-width="1"></path><path fill="#000000" fill-rule="evenodd" d="M4.503839999999999 28.463568C4.65768 29.848176 4.19616 30.925152 2.811552 31.232783999999995C2.503872 31.386624 2.657712 31.694303999999995 2.965392 31.694303999999995C6.965376 30.771264000000002 4.811568 25.232832 3.8884800000000004 25.540512C3.42696 25.694399999999998 3.7346399999999997 26.155872 3.7346399999999997 27.386688C3.8884800000000004 30.617423999999996 0.811584 31.232783999999995 0.965424 31.694303999999995C1.2731039999999998 32.155871999999995 4.04232 30.617376 4.503839999999999 28.463568Z" clip-rule="evenodd" stroke-width="1"></path><path fill="#000000" fill-rule="evenodd" d="M0.657648 33.848208C1.734576 33.848208 2.657616 33.694416000000004 3.734544 33.232848C3.888384 34.309776 4.6576319999999996 35.232864 5.580672 35.386704C6.349919999999999 37.232831999999995 8.042208 38.771328 9.888384 38.00208C10.196064 37.84824 10.042224 37.54056 9.734544 37.54056C8.196095999999999 38.15592 6.811488 36.309791999999995 6.349919999999999 34.77134399999999C6.349919999999999 34.617504 6.19608 34.463616 6.04224 34.463616C5.580672 34.309824 5.27304 34.002095999999995 4.965312 33.694416000000004C4.349952 32.771328 4.6576319999999996 32.309808 4.349952 32.002128C3.8884319999999994 31.848239999999997 3.888384 32.309808 2.503776 32.771328C0.965328 33.232896000000004 0.657648 32.925168 0.657648 33.386688C0.34996799999999995 33.848256 0.503808 33.848208 0.657648 33.848208Z" clip-rule="evenodd" stroke-width="1"></path><path fill="#000000" fill-rule="evenodd" d="M8.196095999999999 35.69448C8.965344 36.771408 9.734544 38.925216 9.888432 40.77134399999999C9.888432 41.079024 10.349904 41.079024 10.349904 40.77134399999999C10.657632 38.617488 10.196064 36.9252 8.657615999999999 35.386751999999994C8.349984000000001 35.232912 8.042256 35.540592 8.196095999999999 35.69448Z" clip-rule="evenodd" stroke-width="1"></path><path fill="#000000" fill-rule="evenodd" d="M11.888352 35.387184C12.04224 34.156416 11.734511999999999 32.925648 11.119152 31.69488C10.965311999999999 31.3872 10.503791999999999 31.3872 10.349904 31.69488C9.580704 33.694896 7.888416 34.156416 8.503776 34.617984C9.888384 35.848704 10.965264 37.694880000000005 11.272991999999999 39.387168C11.272991999999999 39.69484799999999 11.734511999999999 39.69484799999999 11.734511999999999 39.387168C11.426832000000001 37.540992 10.811472 35.848752 9.272976 34.310303999999995C9.888384 33.694896 10.349904 33.233376 10.657632 32.617968C11.119152 33.387216 11.426832000000001 34.310303999999995 11.272991999999999 35.233392C11.426832000000001 35.694912 11.888352 35.694863999999995 11.888352 35.387184Z" clip-rule="evenodd" stroke-width="1"></path><path fill="#000000" fill-rule="evenodd" d="M5.27304 31.695024C7.273008 32.310432 9.580704 30.618143999999997 7.888416 29.079696C7.734528000000001 28.925856 7.273008 29.233488 7.580688 29.387376C8.042256 30.002736 7.734528000000001 30.464304 6.965328 30.771935999999997C6.503807999999999 30.925823999999995 5.8884 31.233504 5.42688 31.233504C5.119152 31.233504 4.965312 31.695024 5.272992 31.695024Z" clip-rule="evenodd" stroke-width="1"></path><path fill="#000000" fill-rule="evenodd" d="M12.04224 31.848815999999996C12.81144 33.233424 13.734528000000001 35.8488 13.580687999999999 37.84881599999999C13.580687999999999 38.156496 14.042207999999999 38.156544 14.042207999999999 38.002656C14.657615999999999 35.541168 14.042207999999999 33.694992 12.503759999999998 31.694975999999997C12.349872 31.233455999999997 11.888352 31.541136 12.04224 31.848815999999996Z" clip-rule="evenodd" stroke-width="1"></path><path fill="#000000" fill-rule="evenodd" d="M13.580784 32.925696C14.503824 33.694944 14.965392 34.156464 16.965359999999997 34.617984C17.273087999999998 34.771823999999995 17.426879999999997 34.310303999999995 17.1192 34.156464C16.503792 33.848735999999995 15.88848 33.387168 15.119232 33.079536C14.657711999999998 32.771808 14.196143999999999 32.618016 13.734624 32.464176C13.580784 32.310288 13.426943999999999 32.771856 13.580784 32.925696Z" clip-rule="evenodd" stroke-width="1"></path><path fill="#000000" fill-rule="evenodd" d="M16.811567999999998 32.463696C17.734656 33.079055999999994 18.811536 33.232896000000004 19.888464 32.463696C20.196144 32.309808 20.042304 31.848288 19.734576 32.002176C18.965376 32.156015999999994 17.426928 32.156015999999994 17.1192 32.002176C16.811567999999998 31.848288 16.50384 32.309808 16.811567999999998 32.463696Z" clip-rule="evenodd" stroke-width="1"></path><path fill="#000000" fill-rule="evenodd" d="M0.811536 40.463567999999995C2.657664 39.07896 4.81152 38.15592 6.965328 39.07896C7.426895999999999 39.232848 7.580688 40.15584 7.888416 40.771248C8.042256 41.078928000000005 8.503776 40.771296 8.349936 40.617408000000005C8.042256 39.848208 8.196095999999999 39.07896 7.426895999999999 38.617391999999995C4.9653599999999996 37.232831999999995 2.657664 38.30976 0.657648 40.309728C0.4704 40.463567999999995 0.619104 40.607904 0.811536 40.463567999999995Z" clip-rule="evenodd" stroke-width="1"></path><path fill="#000000" fill-rule="evenodd" d="M4.965408 42.156576C6.042336 41.695007999999994 8.042304 41.23344 9.426912 41.848848000000004C9.734592 42.002688 9.888432 41.541168 9.580752 41.387328000000004C8.196143999999999 40.310447999999994 6.350016 40.3104 4.657728 41.69496C4.35 41.848848000000004 4.657728 42.310368000000004 4.965408 42.156576Z" clip-rule="evenodd" stroke-width="1"></path><path fill="#000000" fill-rule="evenodd" d="M8.042256 43.694976C12.34992 38.925791999999994 21.119135999999997 32.771952 22.811424 30.002736C23.272992 29.233488 23.580671999999996 28.156608 24.196032 27.541248C24.811391999999998 26.92584 25.73448 26.46432 26.349839999999997 25.848959999999998C28.657584 23.848944 31.119072 21.695088 34.042128 21.079728C34.349856 21.079728 34.965216 21.233568 35.426784 21.387407999999997C36.042144 21.387407999999997 36.657503999999996 21.233568 37.119072 21.233568C38.503679999999996 21.233568 41.272896 22.156655999999998 42.965184 22.156655999999998C43.580543999999996 22.156655999999998 44.503632 21.848927999999997 45.118992 22.156655999999998C45.734448 22.310496 45.118992 23.387424 44.811311999999994 23.695104C42.811344 25.079712 38.503679999999996 23.541216 37.734432 24.771984C37.580592 25.079663999999998 37.88827199999999 25.233551999999996 38.196 25.079663999999998C38.81136 24.156672 43.119072 25.848959999999998 45.27288 24.310464C46.04208 23.695104 46.65744 22.156655999999998 45.580512 21.695088C44.811311999999994 21.38736 43.88827199999999 21.695088 43.272864 21.695088C41.580576 21.695088 38.81136 20.772048 37.272912 20.618208C36.657503999999996 20.618208 36.042144 20.772 35.580576 20.772C34.965216 20.772 34.65753599999999 20.46432 33.888336 20.46432C30.811391999999998 21.079728 28.196016 23.233535999999997 25.73448 25.387344000000002C24.965232 26.002752 24.196032 26.31048 23.426832 27.079679999999996C21.888384 28.772015999999997 23.119104 28.772015999999997 19.888368 31.848864C15.426863999999998 36.002688 11.734559999999998 38.771952 7.426895999999999 43.38729599999999C7.580736 43.541136 7.888464 43.848864 8.042256 43.694976Z" clip-rule="evenodd" stroke-width="1"></path><path fill="#000000" fill-rule="evenodd" d="M35.272896 22.156272C36.195983999999996 23.694719999999997 37.58064 26.771568 37.88827199999999 27.694608C38.042159999999996 28.310064 38.196 28.617696 37.73448 29.233103999999997C37.42675199999999 29.540784 37.119072 29.848511999999996 36.657552 29.694672C36.349824000000005 29.540831999999998 36.195983999999996 29.386992 36.042144 29.540831999999998C35.888304 29.848511999999996 36.195983999999996 30.002352 36.503712 30.002352C37.58064 30.463872 39.272928 29.386992 38.65752 27.386975999999997C38.196 25.694688 37.119072 23.694719999999997 35.580624 21.848544C35.426784 21.540864 34.965264 21.848544 35.272896 22.156272Z" clip-rule="evenodd" stroke-width="1"></path><path fill="#000000" fill-rule="evenodd" d="M33.119136 23.848656C34.19601599999999 25.079424 36.503712 29.079407999999997 35.580672 30.310176C35.426832 30.617856 34.965312 30.771743999999998 34.657584 30.617904C34.503744 30.617904 34.349903999999995 30.617856 34.349903999999995 30.771695999999995C33.888384 31.540944 37.73448 32.002511999999996 36.196031999999995 27.540960000000002C35.734511999999995 26.156352000000002 35.119104 25.079424 33.426816 23.540976C33.119136 23.233296 32.811456 23.540927999999997 33.119136 23.848656Z" clip-rule="evenodd" stroke-width="1"></path><path fill="#000000" fill-rule="evenodd" d="M31.580592 25.541232C32.657472 26.92584 34.965216 31.079664 33.426719999999996 31.848864C31.426751999999997 32.925792 30.657552 28.310447999999997 29.888303999999998 28.771968C29.734464 28.771968 29.734464 28.925856 29.734464 29.079696C30.349823999999998 30.156624 31.272911999999998 33.84888 33.7344 32.618112C36.195935999999996 31.387344 33.7344 27.387407999999997 31.734431999999998 25.2336C31.580544 25.079712 31.272911999999998 25.387392 31.580592 25.541232Z" clip-rule="evenodd" stroke-width="1"></path><path fill="#000000" fill-rule="evenodd" d="M30.657504 23.848176C30.965232 24.002015999999998 31.119024 24.617376 31.426751999999997 25.540464C31.426751999999997 25.848192 31.888319999999997 25.694352 31.888319999999997 25.386624C31.888319999999997 24.925104 32.042112 24.463584 31.73448 24.002015999999998C31.580592 23.694384 31.119072 23.386656 30.811391999999998 23.386656C30.657504 23.232816 30.349823999999998 23.694336 30.657504 23.848176Z" clip-rule="evenodd" stroke-width="1"></path><path fill="#000000" fill-rule="evenodd" d="M32.349888 22.464288C32.503727999999995 22.618176 32.503727999999995 22.925856 32.65752 22.925856C32.811408 23.233584 33.119088 23.541216 33.119088 23.695104C33.119088 24.002784 33.580656 23.848944 33.580656 23.541216C33.580656 22.772015999999997 33.426816 22.156655999999998 32.65752 22.002768C32.349888 22.002768 32.196 22.310448 32.349888 22.464288Z" clip-rule="evenodd" stroke-width="1"></path><path fill="#000000" fill-rule="evenodd" d="M29.888256 28.77144C29.656655999999998 28.812672 29.426736 28.895615999999997 29.272896 29.079168C28.965215999999998 29.233007999999998 29.272896 29.694528 29.426736 29.540688C29.611919999999998 29.457216 29.888256 29.367839999999998 30.042144 29.23296C30.349823999999998 29.07912 30.195983999999996 28.6176 29.888256 28.77144Z" clip-rule="evenodd" stroke-width="1"></path><path fill="#000000" fill-rule="evenodd" d="M27.273024 30.002592C28.042224 31.3872 29.580671999999996 31.541088 30.811488 31.079519999999995C31.119120000000002 30.92568 30.965279999999996 30.618 30.6576 30.618C29.734560000000002 30.77184 28.196112 30.310271999999998 27.580704 29.694912000000002C27.426816 29.541072 26.965296 29.848704 27.273024 30.002592Z" clip-rule="evenodd" stroke-width="1"></path><path fill="#000000" fill-rule="evenodd" d="M19.426848 46.463856C25.888319999999997 36.617712 24.811439999999997 37.079280000000004 26.965248 34.002336C28.965263999999998 31.079327999999997 30.042144 31.23312 29.734512 30.7716C29.426783999999998 30.310031999999996 27.119135999999997 32.771615999999995 26.50368 33.540864C24.50376 36.156240000000004 22.811424 40.310016000000005 19.11912 46.156175999999995C18.811488 46.463808 19.273007999999997 46.771536000000005 19.426848 46.463856Z" clip-rule="evenodd" stroke-width="1"></path><path fill="#000000" fill-rule="evenodd" d="M38.042112 26.464176C38.965152 26.310336 40.04208 26.310336 40.811327999999996 26.618016C41.272848 26.771904 41.426688 27.233375999999996 41.119007999999994 27.541103999999997C40.5036 28.156464 39.272831999999994 27.848831999999998 38.349744 28.310351999999998C38.042112 28.464192 38.195952 28.925711999999997 38.503632 28.771824C38.965152 28.617984 39.888239999999996 28.771824 40.5036 28.617984C41.426688 28.464143999999997 42.042047999999994 27.694895999999996 41.888208 26.925696C41.426688 25.07952 37.426656 25.694928 37.580543999999996 26.310336C37.734384 26.464176 37.888224 26.464176 38.042112 26.464176Z" clip-rule="evenodd" stroke-width="1"></path><path fill="#000000" fill-rule="evenodd" d="M16.349904 15.848448C16.503744 16.156128 16.503744 17.386944 16.042224 17.540736C15.734543999999998 17.540736 15.888383999999999 18.002256 16.196112 18.002256C17.272992 18.002256 17.734560000000002 16.309919999999998 16.811472 15.54072C16.503744 15.233039999999999 16.042224 15.540768000000002 16.349904 15.848448Z" clip-rule="evenodd" stroke-width="1"></path><path fill="#000000" fill-rule="evenodd" d="M35.272943999999995 12.310128C35.426832 13.079327999999999 35.119104 14.617824 34.811423999999995 15.233184C34.657584 15.540911999999999 35.119152 15.694703999999998 35.272943999999995 15.540864000000001C36.196031999999995 14.463935999999999 36.50375999999999 13.387056 35.8884 12.156288C35.580672 11.848607999999999 35.119152 12.0024 35.272943999999995 12.310128Z" clip-rule="evenodd" stroke-width="1"></path><path fill="#000000" fill-rule="evenodd" d="M35.119007999999994 17.079264C35.426736 17.694672 35.888256 17.694672 36.503616 17.233103999999997C36.657455999999996 17.079311999999998 36.503616 17.233103999999997 36.657455999999996 17.233103999999997C37.119023999999996 17.540831999999998 37.734384 15.848544 35.888256 16.617744L35.734368 16.463904C35.272848 16.002384 34.81128 16.156223999999998 34.65744 16.310015999999997C34.65744 16.925472 34.965168 17.233103999999997 35.119007999999994 17.079264Z" clip-rule="evenodd" stroke-width="1"></path><path fill="#000000" fill-rule="evenodd" d="M35.119104 20.002464C34.657584 19.848575999999998 34.19601599999999 19.540943999999996 33.888336 19.387055999999998C34.65753599999999 19.079376 35.580624 18.925487999999998 36.657552 20.002464C36.811392 20.310144 37.272912 20.002464 36.96528 19.694784C36.349824000000005 18.771696 35.426784 18.156336 34.19601599999999 18.310176C33.580656 18.464016 33.272928 18.617856 32.811456 18.925535999999997C32.503727999999995 19.079424 32.503727999999995 19.387055999999998 32.657568000000005 19.694784C33.272928 20.002464 33.888336 20.310144 34.811376 20.463984C35.272896 20.463984 35.426832 20.002464 35.119104 20.002464Z" clip-rule="evenodd" stroke-width="1"></path><path fill="#000000" fill-rule="evenodd" d="M32.349791999999994 12.617904C32.965152 12.002495999999999 33.888239999999996 12.002543999999999 34.65744 12.925632C34.81128 13.233312 35.2728 12.925583999999999 35.11896 12.617904C33.734352 9.694848 31.118975999999996 12.156336 31.580544 12.771792C32.042063999999996 13.233312 32.503584 13.233312 33.118992 13.387152C33.426672 13.540944 33.580512 13.079424 33.272831999999994 12.925632C33.118944 12.925632 32.657424 12.771744 32.349791999999994 12.617904Z" clip-rule="evenodd" stroke-width="1"></path><path fill="#000000" fill-rule="evenodd" d="M41.426736 13.695072C40.503648 12.464304 39.27288 12.156576 37.88827199999999 13.079664000000001C37.119072 13.541184 38.65752 14.618112 39.580608 14.771951999999999C39.888239999999996 14.92584 40.042176 14.464272 39.734448 14.31048C39.426719999999996 14.156591999999998 38.965199999999996 13.848912 38.81136 13.541231999999999C40.503648 12.925823999999999 41.272896 14.310432 41.580576 14.002752C41.580576 14.002752 41.580527999999994 13.848912 41.426736 13.695072Z" clip-rule="evenodd" stroke-width="1"></path><path fill="#000000" fill-rule="evenodd" d="M33.580704 11.848847999999998C32.811504 12.310367999999999 33.426864 13.233504 34.042224 12.925775999999999C34.503744 12.618096 34.042224 11.695056 33.580704 12.156528V11.848847999999998Z" clip-rule="evenodd" stroke-width="1"></path><path fill="#000000" fill-rule="evenodd" d="M39.888192 13.233456C39.118992 13.541136 39.580512 14.310384 40.04208 14.156543999999998C40.65744 14.002704 40.65744 12.925775999999999 39.888192 13.233456Z" clip-rule="evenodd" stroke-width="1"></path><path fill="#000000" fill-rule="evenodd" d="M32.042016 10.617792H34.349759999999996C35.2728 10.771631999999999 35.11896 11.2332 35.42664 11.079312C35.888208 10.771631999999999 34.657392 9.387024 32.657376 9.848592C31.888176 10.002384 31.734336000000003 10.156272 31.734336000000003 10.310111999999998C31.734336000000003 10.463904 31.888224 10.617792 32.042016 10.617792Z" clip-rule="evenodd" stroke-width="1"></path><path fill="#000000" fill-rule="evenodd" d="M38.657616 11.694479999999999C39.734544 11.3868 41.272991999999995 12.30984 42.042192 13.07904C42.19608 13.232928 42.6576 13.079088 42.34992 12.771408C41.426832 11.3868 39.888384 10.309871999999999 38.349888 11.23296C38.042256 11.3868 38.349888 11.84832 38.657616 11.694479999999999Z" clip-rule="evenodd" stroke-width="1"></path><path fill="#000000" fill-rule="evenodd" d="M38.503632 4.618224C35.580576 3.079776 33.426767999999996 5.079792 32.042112 7.8490079999999995C31.272911999999998 9.387456 30.965184 10.925904 30.503664 12.464352C29.888303999999998 14.15664 28.965215999999998 15.541295999999997 28.503648 17.233584C28.042128 19.079712 28.042128 21.387407999999997 27.426768 22.925856C27.272928 23.233584 27.734447999999997 23.387376 27.888288 23.079696000000002C28.657536 21.079728 28.503648 19.233552 29.119056 17.387472C29.580575999999997 15.695136 30.503664 14.310528 31.272911999999998 12.618192C32.042112 10.464383999999999 33.58056 2.464416 38.349744 4.772112C38.503632 5.233631999999999 38.811311999999994 4.772064 38.503632 4.618224Z" clip-rule="evenodd" stroke-width="1"></path><path fill="#000000" fill-rule="evenodd" d="M24.6576 15.694799999999999C25.119168 14.002512 27.734496 6.310224 29.119152 4.925616C30.349872 3.694848 32.042159999999996 2.9256480000000002 33.734448 2.4640799999999996C35.734463999999996 1.84872 37.4268 1.69488 39.119088 2.9256480000000002C39.426719999999996 3.079536 39.580608 2.771808 39.426719999999996 2.6179680000000003C37.734432 1.07952 35.888352 1.23336 33.580656 1.84872C28.657632 3.079488 27.734496 4.925616 26.349888 8.61792C25.11912 12.002495999999999 24.6576 13.694783999999999 24.19608 15.694799999999999C24.19608 16.002527999999998 24.6576 16.002527999999998 24.6576 15.694799999999999Z" clip-rule="evenodd" stroke-width="1"></path><path fill="#000000" fill-rule="evenodd" d="M39.118992 4.1562719999999995L38.811264 4.310112C38.503632 4.463951999999999 38.657472 4.925472 38.965104 4.771631999999999C39.272831999999994 4.617792 39.888192 4.617792 40.04208 4.1562719999999995C40.19592 3.8485439999999995 39.734351999999994 3.540864 39.580512 3.387024C39.272831999999994 3.079344 39.272783999999994 3.079344 39.426624 3.079344C39.734351999999994 3.079344 39.734351999999994 2.617824 39.426624 2.617824C37.888176 2.463936 38.042063999999996 3.387024 39.118992 4.1562719999999995Z" clip-rule="evenodd" stroke-width="1"></path><path fill="#000000" fill-rule="evenodd" d="M40.196064 3.387024C44.349888 4.463951999999999 45.426816 8.925455999999999 46.965264 13.387008C47.119104 13.694688 47.426832 13.540848 47.426832 13.233168C46.042176 8.156255999999999 45.580656 4.1562719999999995 40.349903999999995 2.9255519999999997C40.042224 2.771664 39.888336 3.233184 40.196064 3.387024Z" clip-rule="evenodd" stroke-width="1"></path><path fill="#000000" fill-rule="evenodd" d="M40.349807999999996 5.541312C42.811344 7.2336 42.965184 9.695184 43.119023999999996 12.618192C43.119023999999996 13.07976 43.118975999999996 13.38744 42.965136 13.84896C42.042096 16.464336 42.503616 15.079728 42.349776 17.079743999999998C42.195983999999996 18.618192 40.349807999999996 20.61816 40.811327999999996 20.92584C40.965168 20.92584 41.11905599999999 20.92584 41.11905599999999 20.772C41.426688 20.15664 41.888256 19.387392 42.349776 18.772032C43.272864 17.079743999999998 42.965184 16.618176000000002 43.119023999999996 15.541248C43.426704 14.464368 43.88827199999999 14.002799999999999 43.88827199999999 12.618192C43.734432 9.233616 43.426704 6.92592 40.657488 5.079792C40.349807999999996 5.079792 40.042128 5.387472 40.349807999999996 5.541312Z" clip-rule="evenodd" stroke-width="1"></path><path fill="#000000" fill-rule="evenodd" d="M28.503648 17.848319999999998C28.04208 19.386816 28.195967999999997 20.463744000000002 29.119056 21.848352C29.272896 22.156079999999996 29.734416 21.848352 29.580528 21.540624C29.119056 20.617583999999997 28.965168 18.463776 28.965168 17.848319999999998C29.119056 17.694528 28.657487999999997 17.694528 28.503648 17.848319999999998Z" clip-rule="evenodd" stroke-width="1"></path><path fill="#000000" fill-rule="evenodd" d="M30.042191999999996 32.002751999999994C31.119072 35.387328000000004 29.119104 36.002688 28.042175999999998 38.310384C26.811408 41.0796 29.119152 42.77184 29.272992 44.002656C29.426783999999998 44.618016 28.965263999999998 44.771856 29.272992 44.925743999999995C29.580624 45.079584 29.734512 44.310288 29.734512 43.848768C29.580624 42.31032 27.580655999999998 40.92576 28.657584 38.618016C29.734512 36.310368000000004 31.73448 35.695007999999994 30.349872 31.695024C30.349872 31.541184 29.888352 31.695024 30.042191999999996 32.002751999999994Z" clip-rule="evenodd" stroke-width="1"></path><path fill="#000000" fill-rule="evenodd" d="M25.580544 37.848768C23.426736 42.310272 28.195967999999997 44.002607999999995 26.657472 45.694896C26.503632 45.848735999999995 26.811312 46.310303999999995 26.965152 46.002624000000004C29.272848 44.002607999999995 24.811296 42.156432 26.042111999999996 38.002608C26.195952 37.694928 25.734384 37.541039999999995 25.580544 37.848768Z" clip-rule="evenodd" stroke-width="1"></path><path fill="#000000" fill-rule="evenodd" d="M38.042159999999996 29.8488C33.888287999999996 35.079552 34.65753599999999 40.771775999999996 33.580608 46.15636799999999C33.580608 46.464048 33.888287999999996 46.617936 34.042128 46.310208C35.426736 40.464096 35.426784 34.310303999999995 38.349791999999994 30.15648C38.503679999999996 29.848751999999998 38.195952 29.541119999999996 38.042159999999996 29.8488Z" clip-rule="evenodd" stroke-width="1"></path><path fill="#000000" fill-rule="evenodd" d="M30.349872 37.694592C30.657552 38.92536 30.965232 42.30998399999999 30.965232 43.540752C31.119072 46.309968 30.965232 46.30992 31.426799999999997 46.30992C31.580640000000002 46.30992 31.580640000000002 46.15608 31.73448 46.15608C31.888319999999997 43.079184 32.042159999999996 41.079215999999995 30.811439999999997 37.540752C30.657552 37.23312 30.349872 37.386911999999995 30.349872 37.694592Z" clip-rule="evenodd" stroke-width="1"></path><path fill="#000000" fill-rule="evenodd" d="M35.888304 34.464C32.965199999999996 36.464016 32.503632 38.925551999999996 30.811343999999995 38.156304C30.503664 38.002464 30.349823999999998 38.463984 30.657456 38.617824C32.81136 40.00243199999999 34.349807999999996 36.925536 36.195935999999996 34.92552C36.349776 34.617887999999994 36.195935999999996 34.310159999999996 35.888304 34.464Z" clip-rule="evenodd" stroke-width="1"></path><path fill="#000000" fill-rule="evenodd" d="M42.965136 27.23304C47.888256 30.002304 47.119007999999994 30.463824 47.426688 30.156143999999998C47.888256 29.848415999999997 46.50359999999999 28.617696 46.19592 28.310015999999997C45.118992 27.386975999999997 44.195952 27.079248 42.965136 26.77152C42.965136 26.617728 42.811344 27.079248 42.965136 27.23304Z" clip-rule="evenodd" stroke-width="1"></path><path fill="#000000" fill-rule="evenodd" d="M44.349791999999994 13.38744C44.503632 16.618223999999998 45.58056 18.925872 44.349791999999994 21.079728V21.387407999999997C44.81136 21.695135999999998 46.19592 19.387392 45.27288 15.695136C45.118992 14.925936 44.811311999999994 14.15664 44.657472 13.38744C44.811311999999994 13.07976 44.349791999999994 13.07976 44.349791999999994 13.38744Z" clip-rule="evenodd" stroke-width="1"></path></svg>