<svg xmlns="http://www.w3.org/2000/svg" fill="none" viewBox="0 0 48 48" height="48" width="48" id="Pop-Cat-Hand-Drawn--Streamline-Memes.svg"><desc>Pop Cat Hand Drawn Streamline Element: https://streamlinehq.com</desc><path fill="#000000" fill-rule="evenodd" d="M17.292528 9.530256C15.730608 7.499807999999999 11.981855999999999 4.37592 11.044272 3.751056C8.545824 2.032752 7.296048 2.8139999999999996 6.514848 5.15664C6.04632 6.562752 4.9528799999999995 18.902352 4.9528799999999995 20.307935999999998C4.797072 24.525744 3.0782879999999997 29.350751999999996 5.1087359999999995 32.1624C6.358464 33.880176 5.265072 32.959728 2.297568 47.174016C2.297568 47.329824 2.297568 47.48616 2.453376 47.48616C2.9224319999999997 47.642016 2.858544 47.494512 4.419936 41.715312C5.826048 36.717312 6.514848 33.740975999999996 6.671184 33.116112C6.826992 32.334863999999996 5.265072 31.866335999999997 5.109264 28.58664C5.109264 27.493247999999998 6.514848 6.406368 7.607711999999999 4.37592C7.920432000000001 3.751056 8.233103999999999 3.5947199999999997 8.857968 3.751056C9.638688 3.906864 10.73208 4.531728 11.356464 5.15664C17.292528 9.8424 16.51128 10.779984 17.292528 10.467312C17.761056 10.311456 21.041279999999997 8.749536 24.633647999999997 8.28048C29.007264 7.499807999999999 29.787984 8.749008 30.100655999999997 8.124672C31.349903999999995 4.531776 33.224543999999995 1.8764159999999999 34.005264000000004 1.095696C34.47432 1.407888 35.098656 2.189136 35.411376000000004 2.657664C36.816959999999995 4.531776 36.660576 4.844447999999999 36.973296 4.68864C37.129104 4.68864 37.129104 4.531776 37.129104 4.37592C36.81744 3.751056 36.03624 2.50128 35.254992 1.5642239999999998C34.1616 0.15864 33.849408 0.314496 33.38088 0.93936C31.974815999999997 2.8139999999999996 30.725568 4.219584 29.632175999999998 7.499807999999999C25.883423999999998 6.562752 21.040751999999998 7.968336 17.292528 9.530783999999999Z" clip-rule="evenodd" stroke-width="1"></path><path fill="#000000" fill-rule="evenodd" d="M36.816959999999995 4.687584C37.754016 6.250031999999999 37.910351999999996 8.28048 37.910351999999996 10.154592C37.910351999999996 10.623119999999998 39.16008 10.467312 41.50272 13.278479999999998C44.78294399999999 17.339904 45.564192 22.494239999999998 44.002224 27.336384C41.971247999999996 33.584112 38.066688 35.615088 38.37888 36.395808C39.315935999999994 39.988176 39.784464 43.112064 40.72152 47.017151999999996C40.72152 47.329824 41.190576 47.173488 41.190576 46.861296C40.409327999999995 43.424735999999996 39.940799999999996 39.832367999999995 39.1596 36.395808C49.312896 27.024192 46.501248 13.747008000000001 38.535216 9.998256C38.535216 7.967807999999999 38.222544 6.093696 37.285488 4.531776C36.973296 4.063248 36.660576 4.37592 36.816959999999995 4.687584Z" clip-rule="evenodd" stroke-width="1"></path><path fill="#000000" fill-rule="evenodd" d="M33.536736 14.371872C17.448336 12.49776 8.857488 32.178528 25.883423999999998 34.990224C27.757536 35.302367999999994 29.787984 35.458752 31.662624 34.990224C35.411376000000004 34.05264 39.16008 30.928752 41.190576 27.648576C44.939280000000004 22.025712 41.50272 16.090176 35.098656 14.684592C34.456128 14.54328 34.300272 15.218015999999999 35.098656 15.410735999999998C39.628128 16.504128 42.944688 20.25912 41.538576 24.945408C40.445712 28.381488 35.879903999999996 32.959247999999995 31.349903999999995 34.05264C26.039232 35.302367999999994 17.202672 32.608079999999994 17.983392000000002 25.579152C18.608256 19.799951999999998 24.663263999999998 14.216064 33.410495999999995 15.15312C34.32888 15.251807999999999 34.27017599999999 14.457072 33.536736 14.371872Z" clip-rule="evenodd" stroke-width="1"></path><path fill="#000000" fill-rule="evenodd" d="M25.414896 15.777984C30.569184 15.465791999999999 37.129631999999994 18.433296000000002 39.628608 21.557184C41.815439999999995 24.36888 40.722047999999994 25.774943999999998 41.346911999999996 25.930799999999998C41.50272 25.930799999999998 41.659056 25.774943999999998 41.659056 25.774943999999998C42.283968 19.526736 32.911823999999996 14.528208 25.414896 15.309455999999999C25.102176 15.309455999999999 25.102176 15.777984 25.414896 15.777984Z" clip-rule="evenodd" stroke-width="1"></path><path fill="#000000" fill-rule="evenodd" d="M38.260416 10.999728C34.614528 10.036704 34.089408 10.987248 36.56395199999999 11.550335999999998C39.667584 12.233904 39.563184 11.162303999999999 37.840752 10.919232L38.260416 10.999728Z" clip-rule="evenodd" stroke-width="1"></path><path fill="#000000" fill-rule="evenodd" d="M34.693487999999995 10.314576C34.395888 10.432512000000001 34.430687999999996 10.789871999999999 34.50912 11.067791999999999C35.497056 12.221424 40.209888 12.51336 39.09984 11.161248C38.68896 10.643904000000001 35.62900799999999 9.880848 34.693487999999995 10.314576ZM38.671296 11.516544L38.627663999999996 11.596032L38.671296 11.516544ZM35.943264 10.99296C37.657392 11.6724 39.597984 11.519664 37.709328 11.157119999999999C37.5 11.116608 36.870432 10.995552 35.943264 10.99296ZM35.401488 10.712976C35.445119999999996 10.633536 35.235264 10.593504 35.401488 10.712976Z" clip-rule="evenodd" stroke-width="1"></path><path fill="#000000" fill-rule="evenodd" d="M20.213279999999997 12.607344C15.509328000000002 13.428048 15.555024 15.70056 17.709647999999998 15.433056C20.019552 14.9604 22.449984 12.464544 20.213279999999997 12.607344Z" clip-rule="evenodd" stroke-width="1"></path><path fill="#000000" fill-rule="evenodd" d="M20.286 12.277536C18.36984 12.464496 15.270912 13.508064 16.022496 15.085056C17.021376 17.036544 22.320624 14.032703999999999 21.331104 12.53568C21.165936 12.286368 20.441856 12.072336 20.286 12.277536ZM20.533776 12.651504C20.377968 12.856704 19.73592 12.767855999999998 18.232704 13.57872C17.755343999999997 13.739712 16.490015999999997 14.470032 16.97568 14.76456C17.7912 15.557231999999999 22.376208 12.794352 20.533776 12.652032Z" clip-rule="evenodd" stroke-width="1"></path><path fill="#000000" fill-rule="evenodd" d="M10.73208 5.312976C7.451904 3.282 7.764048 9.530256 7.920432000000001 13.279008C7.920432000000001 14.216064 8.07624 15.621647999999999 8.857488 16.090656C10.419936 17.027712 12.762576 13.903872 14.012303999999999 12.49776C14.793023999999999 11.560704 15.886415999999999 11.092175999999998 14.637215999999999 9.061727999999999C13.855967999999999 7.811951999999999 12.762576 7.030752 11.512799999999999 6.250031999999999C11.201136 6.0942240000000005 11.044272 6.562224 11.200656 6.71856C12.294048 7.499807999999999 13.38744 8.28048 14.012303999999999 9.37392C14.94936 10.93584 14.168159999999999 11.092175999999998 13.38744 12.029232C12.60624 12.966288 10.107216 15.93432 9.169632 15.465791999999999C8.701632 15.15312 8.701632 13.903872 8.701632 13.434816C8.545296 9.998783999999999 7.764576000000001 4.37592 10.419936 5.93784C10.7316 5.93784 11.044272 5.468783999999999 10.7316 5.312976Z" clip-rule="evenodd" stroke-width="1"></path><path fill="#000000" fill-rule="evenodd" d="M31.037760000000002 13.590624C30.569231999999996 13.434816 28.3824 12.654096 28.226063999999997 13.122623999999998C28.226063999999997 13.434816 28.3824 13.434816 29.319456 13.903343999999999C29.787984 14.216016 30.256511999999997 14.371872 30.881376000000003 14.371872C31.662624 14.528208 32.13115199999999 13.122623999999998 31.81896 12.185039999999999C31.81896 11.872895999999999 31.349903999999995 12.029232 31.349903999999995 12.185039999999999C31.506287999999998 12.809952 31.194096000000002 13.278479999999998 31.037760000000002 13.591152000000001Z" clip-rule="evenodd" stroke-width="1"></path><path fill="#000000" fill-rule="evenodd" d="M28.694592 7.968336C29.319456 8.124672 29.944319999999998 8.437344 30.725568 8.5932C31.974815999999997 8.905871999999999 33.068208 9.061727999999999 33.849408 9.218064C34.1616 9.37392 34.317935999999996 8.905871999999999 34.005264000000004 8.749536C31.349903999999995 7.656144 30.569231999999996 7.656144 28.694592 7.499807999999999C28.3824 7.343951999999999 28.3824 7.81248 28.694592 7.968336Z" clip-rule="evenodd" stroke-width="1"></path></svg>