<svg xmlns="http://www.w3.org/2000/svg" fill="none" viewBox="0 0 48 48" height="48" width="48" id="Questioner-Hand-Drawn--Streamline-Memes.svg"><desc>Questioner Hand Drawn Streamline Element: https://streamlinehq.com</desc><path fill="#000000" fill-rule="evenodd" d="M13.979856 3.780336C6.640032 7.528319999999999 6.483888 12.837983999999999 6.171552 14.868144C4.766016 21.583296 6.327696 29.234928 11.481168 33.763776C15.073008 36.887088 26.628816 39.385728 34.906128 34.700736C36.623472 33.763776 38.185104 32.358239999999995 39.746784 30.952751999999997C42.71395199999999 28.297919999999998 42.71395199999999 28.297919999999998 43.18243199999999 22.675967999999997C43.49476799999999 17.054447999999997 42.55776 11.432495999999999 38.341296 7.684512C36.935808 6.435167999999999 35.686464 4.873488 34.280976 3.780336C32.719296 2.687184 30.532991999999997 2.218656 28.81512 1.4378399999999998C24.910992 -0.43617599999999995 20.226 0.6570239999999999 16.478496 2.843328C16.166159999999998 2.9995199999999995 16.478496 3.4679999999999995 16.790831999999998 3.311856C20.382672 1.125504 24.910992 0.032352 28.658976 1.9063199999999998C30.220655999999998 2.687184 32.563152 3.311856 33.96864 4.248816C35.374128 5.185824 36.623472 6.903648 38.02896 8.152992C41.933136 11.744831999999999 42.870096000000004 17.210639999999998 42.55776 22.519776C42.401616 24.081456 42.55776 26.111615999999998 41.776944 27.517104C41.152272 29.078784 36.311136 32.982912 34.749456 33.763776C26.628816 38.292576 15.541488000000001 35.793936 12.262032 32.982912C7.2642240000000005 28.610256 5.702544 21.27048 6.952368 14.868144C7.264704 12.994128 7.264704 7.840656 14.448336 4.092672C14.448336 4.092672 14.292192 3.624144 13.979856 3.780336Z" clip-rule="evenodd" stroke-width="1"></path><path fill="#000000" fill-rule="evenodd" d="M26.004144 4.717344C26.628816 5.810496 27.565824 7.9967999999999995 27.721968 9.246144C27.721968 9.55848 28.190496 9.55848 28.190496 9.246144C28.502831999999998 7.215984 27.87816 5.810496 26.472672 4.405008C26.160336 4.248816 25.848 4.405008 26.004144 4.717344Z" clip-rule="evenodd" stroke-width="1"></path><path fill="#000000" fill-rule="evenodd" d="M25.067135999999998 11.900976C19.913664 8.309136 14.604 13.618799999999998 18.820512 16.898304C21.631488 19.084608 27.409632 15.336623999999999 25.379472 12.369456C25.223328 12.057167999999999 24.7548 12.369456 25.067135999999998 12.681792C26.628816 15.024287999999999 21.631488 17.991456 19.445184 16.273632C16.16568 13.618799999999998 20.69448 9.55848 24.910992 12.369456C25.067135999999998 12.525647999999999 25.379472 12.213312 25.067135999999998 11.900976Z" clip-rule="evenodd" stroke-width="1"></path><path fill="#000000" fill-rule="evenodd" d="M17.883504 8.933328C19.132848 8.464848 20.069855999999998 9.245664 22.880831999999998 10.963487999999998C24.7548 12.056639999999998 24.910992 12.056639999999998 25.067135999999998 11.900496C25.067135999999998 11.744304 25.067135999999998 11.588159999999998 24.910992 11.588159999999998C23.349311999999998 10.651152 20.69448 8.308656 18.976656 8.308656C18.508176 8.308656 17.415024 8.464848 17.72736 8.933328H17.883504Z" clip-rule="evenodd" stroke-width="1"></path><path fill="#000000" fill-rule="evenodd" d="M28.502831999999998 10.651152C28.502831999999998 10.338816 28.034304 10.338816 28.034304 10.651152C28.034304 11.119632 27.721968 11.744304 27.097296 12.212832C26.628816 12.681312 26.31648 12.525168 26.31648 12.837504000000001C26.628816 13.462128 29.127456 12.993648 28.502831999999998 10.651152Z" clip-rule="evenodd" stroke-width="1"></path><path fill="#000000" fill-rule="evenodd" d="M29.439792 3.780336C29.752128 5.02968 29.908319999999996 5.4981599999999995 29.283647999999996 6.278976C28.971312 6.435167999999999 29.283647999999996 6.903648 29.595983999999998 6.591311999999999C30.220655999999998 6.278976 30.532991999999997 5.810496 30.532991999999997 5.02968C30.532991999999997 4.405008 30.220655999999998 4.092672 29.752128 3.4679999999999995C29.752128 3.311856 29.439792 3.624192 29.439792 3.780336Z" clip-rule="evenodd" stroke-width="1"></path><path fill="#000000" fill-rule="evenodd" d="M30.376799999999996 8.152512C32.250816 7.215503999999999 32.563152 9.089471999999999 33.031632 8.620992C33.187824 8.4648 33.187824 8.4648 33.031632 8.308656C32.563152 7.3716479999999995 31.93848 6.590832 30.845328 7.059311999999999C30.532991999999997 7.215503999999999 29.752128 7.683983999999999 29.908319999999996 7.996319999999999C30.220655999999998 8.308656 30.376799999999996 8.308656 30.376799999999996 8.152512Z" clip-rule="evenodd" stroke-width="1"></path><path fill="#000000" fill-rule="evenodd" d="M34.905648 7.528319999999999C34.43712 6.435167999999999 34.280976 5.96664 34.749456 5.342016C34.905648 5.185824 34.593312 4.717344 34.43712 5.02968C33.656304 5.654351999999999 33.500112 6.278976 33.812447999999996 7.0598399999999994C33.9888 7.392336 34.260768 7.664304 34.593312 7.840656C34.593312 7.9967999999999995 35.061792 7.684463999999999 34.9056 7.528319999999999Z" clip-rule="evenodd" stroke-width="1"></path><path fill="#000000" fill-rule="evenodd" d="M29.752128 8.933808C28.971312 9.714672 28.190496 10.651632 27.87816 11.900976C27.87816 12.213312 28.034304 12.525647999999999 28.34664 12.681792C30.689135999999998 15.18048 32.87544 12.525647999999999 34.593312 11.432495999999999C34.9056 11.276304 34.593312 10.807824 34.280976 10.963968C31.93848 12.213312 30.689135999999998 13.931135999999999 28.658976 11.744831999999999C28.971312 10.651632 29.439792 9.714672 30.064464 9.09C30.376799999999996 9.09 30.064464 8.621472 29.752128 8.933808Z" clip-rule="evenodd" stroke-width="1"></path><path fill="#000000" fill-rule="evenodd" d="M24.442512 18.616128C24.28632 18.928463999999998 24.28632 19.084608 24.130176 19.396943999999998C24.28632 21.895632 26.160336 20.490144 26.941152 20.958624C27.253488 21.114767999999998 27.409632 21.73944 27.87816 22.051776C28.502831999999998 22.832591999999998 30.064464 23.144928 31.469951999999996 22.207967999999997C32.563152 21.427104 33.500112 19.865472 32.875488 18.616128C32.40696 17.522976 31.93848 17.522976 31.313807999999998 15.648959999999997C30.689135999999998 13.774992 30.845328 13.150319999999999 30.376799999999996 13.306464C30.220655999999998 13.306464 30.220655999999998 13.462655999999999 30.220655999999998 13.618799999999998C31.313807999999998 18.303791999999998 31.157663999999997 16.898304 32.094623999999996 18.772271999999997C33.187824 20.958624 29.752128 23.301119999999997 28.190496 21.114767999999998C26.472672 18.616128 25.067135999999998 21.73944 24.598656 19.396943999999998C24.598656 19.2408 24.754848 18.928463999999998 24.754848 18.772271999999997C24.910992 18.459936 24.442512 18.303791999999998 24.442512 18.616128Z" clip-rule="evenodd" stroke-width="1"></path><path fill="#000000" fill-rule="evenodd" d="M34.43712 12.525647999999999C31.157615999999997 13.462128 31.313807999999998 18.147119999999997 35.9988 17.522447999999997C38.965968000000004 17.053967999999998 40.215264 12.368976 35.061792 12.525168C34.749456 12.525168 34.749456 12.993648 35.061792 12.993648C39.434448 12.993648 37.872768 16.429295999999997 35.842608 16.741632C32.094623999999996 17.210160000000002 31.93848 13.930656 34.43712 13.149792C34.749456 12.837504000000001 34.749456 12.368976 34.43712 12.525168Z" clip-rule="evenodd" stroke-width="1"></path><path fill="#000000" fill-rule="evenodd" d="M21.631488 24.081936C22.880831999999998 25.643615999999998 23.505504 26.268288 22.880831999999998 28.454112C22.256159999999998 30.95328 21.163007999999998 31.734096 21.631488 31.89024H21.943824C25.379472 27.049104 23.505504 25.33128 21.943824 23.7696C21.787679999999998 23.457264000000002 21.475344 23.7696 21.631488 24.081936Z" clip-rule="evenodd" stroke-width="1"></path><path fill="#000000" fill-rule="evenodd" d="M27.409632 26.580095999999998C27.409632 26.423952 27.565824 26.736288 27.721968 26.736288C28.971312 27.204767999999998 29.127456 27.517104 30.532991999999997 26.736288C30.845279999999995 26.580095999999998 30.689135999999998 26.423952 30.845279999999995 26.736288C31.157615999999997 27.204767999999998 31.469951999999996 27.985584 31.626143999999996 28.297919999999998C31.93848 28.766448 32.719296 29.078784 32.719296 28.610256C32.719296 28.297919999999998 32.250816 28.454112 32.094623999999996 27.985584C31.782287999999998 27.360912 31.469951999999996 25.486943999999998 30.532944 25.79928C30.532944 25.79928 29.752128 26.26776 29.595983999999998 26.26776C28.81512 26.580095999999998 27.721968 25.174608 26.941152 26.111615999999998C26.31648 26.736288 25.691807999999998 28.141776 25.067135999999998 28.297919999999998C24.598656 28.454112 24.130128 28.297919999999998 24.130128 28.610256C24.130128 28.766448 24.28632 28.766448 24.442463999999998 28.766448C25.223328 28.766448 25.691807999999998 28.922591999999998 26.472624 27.985584C26.941152 27.204767999999998 27.253488 26.580095999999998 27.409632 26.580095999999998Z" clip-rule="evenodd" stroke-width="1"></path><path fill="#000000" fill-rule="evenodd" d="M21.475344 12.837456C21.319152 12.212832 19.913664 13.305984 20.382144 14.555328C20.850672 15.960816 23.036976 15.492287999999999 23.036976 13.930656C22.880831999999998 12.681312 21.475344 12.212832 21.475344 12.837456Z" clip-rule="evenodd" stroke-width="1"></path><path fill="#000000" fill-rule="evenodd" d="M23.81784 27.673776C25.379472 27.361439999999998 25.223328 25.487423999999997 26.31648 24.394271999999997C26.784959999999998 23.925791999999998 27.565824 24.081936 28.502831999999998 24.081936C28.81512 24.081936 28.81512 23.613456 28.502831999999998 23.613456C26.472672 23.301119999999997 25.535664 22.988784000000003 24.598656 25.79976C24.442463999999998 26.268288 24.442463999999998 26.736767999999998 24.28632 26.89296C23.973983999999998 27.361439999999998 23.505504 27.205247999999997 23.661648 27.517584C23.505504 27.673776 23.661648 27.829919999999998 23.81784 27.673776Z" clip-rule="evenodd" stroke-width="1"></path><path fill="#000000" fill-rule="evenodd" d="M31.93848 24.081456C32.563152 24.081456 32.40696 25.174608 32.563152 26.26776C32.719296 28.141776 33.812447999999996 27.36096 33.343968 27.048624C33.031632 26.736288 33.500112 25.955423999999997 33.187776 24.706128C32.875488 23.769119999999997 32.40696 23.456784 31.782287999999998 23.612928C31.626143999999996 23.612928 31.626143999999996 24.081456 31.93848 24.081456Z" clip-rule="evenodd" stroke-width="1"></path><path fill="#000000" fill-rule="evenodd" d="M35.842608 13.774992C35.686464 13.462655999999999 34.749456 14.087328 34.905648 14.868144C35.217936 15.961295999999997 36.935808 15.805152 36.935808 14.711951999999998C36.935808 13.931135999999999 36.154944 13.462655999999999 35.842608 13.774992Z" clip-rule="evenodd" stroke-width="1"></path><path fill="#000000" fill-rule="evenodd" d="M11.949168 9.55848C11.480687999999999 10.651632 10.54368 11.900976 11.012208 13.150319999999999C11.324544 14.243471999999999 12.573839999999999 14.087328 13.198512 13.306464C13.510848 12.837983999999999 13.354703999999998 12.213312 13.354703999999998 11.58864C13.354703999999998 11.276304 12.886175999999999 11.276304 12.886175999999999 11.58864C12.886175999999999 12.057167999999999 12.886175999999999 12.681792 12.730032 12.994128C12.573839999999999 13.306464 12.10536 13.306464 11.949168 12.994128C11.793023999999999 12.213312 12.261503999999999 10.651632 12.573839999999999 9.870816C12.417696 9.402336 11.949168 9.246144 11.949168 9.55848Z" clip-rule="evenodd" stroke-width="1"></path><path fill="#000000" fill-rule="evenodd" d="M10.54368 24.393791999999998V22.519776C10.54368 22.207440000000002 10.231344 22.051295999999997 10.075199999999999 22.363632C9.919008 22.675967999999997 9.762864 23.144447999999997 9.606672 23.456784C9.450528 24.393791999999998 9.919008 25.174608 10.54368 25.018416C11.168351999999999 24.706128 11.168351999999999 23.925264 10.856016 23.925264S10.699872 24.237599999999997 10.54368 24.393791999999998Z" clip-rule="evenodd" stroke-width="1"></path><path fill="#000000" fill-rule="evenodd" d="M14.604 28.141776C14.447855999999998 27.36096 14.604 26.423952 14.13552 26.26776C13.979327999999999 26.26776 13.823184 26.423952 13.823184 26.423952C13.823184 26.736288 13.666991999999999 27.048624 13.666991999999999 27.36096C13.510848 28.766448 14.604 29.547264 14.916336 28.766448C15.072527999999998 28.454112 15.072527999999998 27.517104 15.072527999999998 27.36096C15.072527999999998 27.048624 14.604 27.048624 14.604 27.36096C14.760191999999998 27.517104 14.760191999999998 27.829439999999998 14.604 28.141776Z" clip-rule="evenodd" stroke-width="1"></path><path fill="#000000" fill-rule="evenodd" d="M25.535664 28.454591999999998C27.721968 29.079264 29.908319999999996 29.079264 31.93848 28.142256C32.250816 27.986112 32.094623999999996 27.673776 31.782287999999998 27.673776C29.595983999999998 28.298448 25.379472 27.673776 25.379472 28.142256C25.223328 28.298448 25.379472 28.298448 25.535664 28.454591999999998Z" clip-rule="evenodd" stroke-width="1"></path><path fill="#000000" fill-rule="evenodd" d="M32.40696 28.92312C32.40696 30.640416000000002 32.719296 31.577423999999997 34.593312 32.670576C34.905648 32.826768 35.061792 32.514432 34.905648 32.358288C33.96864 31.42128 33.343968 30.328128 32.875488 28.922591999999998C32.875488 28.454112 32.40696 28.610256 32.40696 28.922591999999998Z" clip-rule="evenodd" stroke-width="1"></path><path fill="#000000" fill-rule="evenodd" d="M25.38096 28.478495999999996C27.098784000000002 31.445616 29.439792 31.109424 30.220655999999998 29.703936C30.376799999999996 29.235456 30.689135999999998 28.142256 30.220655999999998 28.142256S30.064464 28.766928 29.595983999999998 29.3916C28.658976 30.640943999999998 26.786448 29.415456 25.693296 28.166159999999998C25.693296 28.009968 25.224815999999997 28.166159999999998 25.38096 28.478495999999996Z" clip-rule="evenodd" stroke-width="1"></path><path fill="#000000" fill-rule="evenodd" d="M18.976656 20.333952C21.163007999999998 21.582768 23.661648 20.489616 24.7548 18.459456C24.910992 18.147119999999997 24.442512 17.990976 24.28632 18.303312000000002C23.349311999999998 19.864944 20.850672 20.645808 19.132848 20.021136000000002C18.976656 19.7088 18.820512 20.17728 18.976656 20.333472Z" clip-rule="evenodd" stroke-width="1"></path><path fill="#000000" fill-rule="evenodd" d="M23.349311999999998 33.295248C24.28632 32.045952 24.442463999999998 32.358239999999995 26.160336 33.91992C29.127456 36.418608 32.563152 34.076112 33.031632 29.8596C33.031632 29.703456 33.031632 29.547264 32.87544 29.547264C32.250816 29.391119999999997 32.87544 31.265088 30.845279999999995 33.139103999999996C27.097296 36.730944 25.379472 29.547264 23.036976 32.982912C22.72464 33.295248 23.036976 33.45144 23.349311999999998 33.295248Z" clip-rule="evenodd" stroke-width="1"></path><path fill="#000000" fill-rule="evenodd" d="M24.239088 28.708272C25.488384 33.705552 30.376799999999996 33.139584 31.626143999999996 30.328608C31.93848 29.703936 31.782287999999998 29.079264 31.782287999999998 28.298448C31.782287999999998 27.986112 31.313807999999998 27.986112 31.313807999999998 28.298448C31.313807999999998 28.92312 31.313807999999998 29.547791999999998 31.001471999999996 30.016272C30.376799999999996 31.265616 28.502831999999998 31.734096 27.253488 31.265616C26.004144 30.797088 25.176096 29.645232 24.707568 28.395936C24.707568 28.395936 24.239088 28.55208 24.239088 28.708272Z" clip-rule="evenodd" stroke-width="1"></path><path fill="#000000" fill-rule="evenodd" d="M32.40696 19.396464C33.343968 20.802432 33.500112 22.519776 32.094623999999996 23.612928C31.782287999999998 23.769119999999997 32.094623999999996 24.237599999999997 32.250816 24.081456C34.124784 23.144447999999997 34.593312 21.114767999999998 32.719296 19.2408C32.563152 18.771792 32.250816 19.084128 32.40696 19.396464Z" clip-rule="evenodd" stroke-width="1"></path><path fill="#000000" fill-rule="evenodd" d="M12.886175999999999 34.701264C8.201184 38.136911999999995 7.7331840000000005 39.073919999999994 4.609871999999999 41.572559999999996C4.297536 41.728752 4.609871999999999 42.197232 4.9222079999999995 41.884896C9.138672 38.917728 11.168832 36.731424 13.198512 35.0136C13.354703999999998 34.857408 13.198512 34.545072000000005 12.886175999999999 34.701264Z" clip-rule="evenodd" stroke-width="1"></path><path fill="#000000" fill-rule="evenodd" d="M28.502831999999998 36.730896C24.28632 46.413216 26.472672 44.695392 25.535664 47.19408C25.379472 47.505888 25.848 47.66208 26.004144 47.349744C26.628816 46.257071999999994 26.31648 45.16392 26.784959999999998 43.914576C27.565824 41.415888 29.439792 36.730944 28.971312 36.574752C28.658976 36.418608 28.502831999999998 36.574752 28.502831999999998 36.730944Z" clip-rule="evenodd" stroke-width="1"></path><path fill="#000000" fill-rule="evenodd" d="M13.510848 39.229584C14.604 41.260223999999994 15.228672 43.914576 16.790352 45.6324C17.571168 46.569407999999996 19.601328 45.788543999999995 20.382144 45.6324C23.81784 45.163872 26.941152 44.226912 30.220655999999998 42.82142399999999C30.532991999999997 42.665232 30.376799999999996 42.352896 30.064464 42.352896C25.535664 44.070719999999994 18.039648 45.1644 17.571168 45.1644C17.102688 45.00772799999999 16.321824 43.758384 16.16568 43.446048000000005C14.291663999999999 40.478928 13.979327999999999 38.605391999999995 13.510848 38.917728V39.229584Z" clip-rule="evenodd" stroke-width="1"></path><path fill="#000000" fill-rule="evenodd" d="M30.689135999999998 40.322255999999996C30.845328 40.635072 30.532991999999997 41.57208 30.376799999999996 41.883888C30.064464 42.664752 29.752128 42.664752 29.908319999999996 42.821376C30.220655999999998 43.133712 30.845328 42.509088 31.001471999999996 42.196752C31.782287999999998 41.103552 31.001471999999996 39.854256 30.689135999999998 40.0104C30.689135999999998 40.0104 30.532991999999997 40.166592 30.689135999999998 40.322736Z" clip-rule="evenodd" stroke-width="1"></path><path fill="#000000" fill-rule="evenodd" d="M33.031632 40.166592C32.250816 41.728224000000004 31.626143999999996 42.196752 30.064464 42.509088C29.752128 42.509088 29.752128 42.977568000000005 30.064464 42.977568000000005C32.40696 43.133759999999995 33.187824 42.196752 33.500112 40.322736C33.656304 40.0104 33.187824 39.854256 33.031632 40.166592Z" clip-rule="evenodd" stroke-width="1"></path><path fill="#000000" fill-rule="evenodd" d="M34.905648 41.259744000000005C33.500112 42.821376 32.250816 43.602239999999995 30.532991999999997 42.821376C30.220655999999998 42.665232 30.064464 43.133712 30.220655999999998 43.28990399999999C32.250816 44.695392 33.812447999999996 43.914576 35.217936 41.728224000000004C35.530272 41.259744000000005 35.061792 40.947408 34.905648 41.259744000000005Z" clip-rule="evenodd" stroke-width="1"></path><path fill="#000000" fill-rule="evenodd" d="M36.311136 42.665712C34.593312 44.383055999999996 32.875488 44.383584 31.001471999999996 42.978047999999994C30.845279999999995 42.821903999999996 30.532991999999997 43.133712 30.689135999999998 43.28990399999999C32.719296 45.320063999999995 34.905648 45.320544 36.623472 42.978047999999994C36.935808 42.665712 36.623472 42.353376 36.311136 42.665712Z" clip-rule="evenodd" stroke-width="1"></path><path fill="#000000" fill-rule="evenodd" d="M27.097296 40.947888C29.908319999999996 45.945216 34.280976 49.068528 37.716624 44.383584C38.653632 43.13424 39.122112 41.572559999999996 39.902928 40.167072C39.902928 40.010928 39.902928 39.854735999999995 39.746784 39.854735999999995C39.122112 39.542399999999994 36.779616 48.600048 31.469951999999996 45.008207999999996C29.908319999999996 43.915056 28.502784 42.197232 27.409632 40.635552C27.409632 40.479408 26.941152 40.791743999999994 27.097296 40.947888Z" clip-rule="evenodd" stroke-width="1"></path><path fill="#000000" fill-rule="evenodd" d="M37.872768 38.604912C38.185104 40.166592 40.683792000000004 40.947408 42.245424 40.0104C43.338623999999996 39.385728 43.807103999999995 37.667904 43.338623999999996 37.51176C43.18243199999999 37.51176 43.026287999999994 37.667904 43.026287999999994 37.667904C42.55776 40.166592 38.809776 39.698064 38.341296 38.292576C38.185104 38.136432 37.872768 38.292576 37.872768 38.604912Z" clip-rule="evenodd" stroke-width="1"></path><path fill="#000000" fill-rule="evenodd" d="M41.464608 37.82457599999999C41.464608 38.29305599999999 41.152272 39.542399999999994 40.371456 39.854735999999995C40.05912 39.854735999999995 40.215264 40.323215999999995 40.5276 40.323215999999995C41.620799999999996 40.167072 42.401616 39.230064 41.933136 37.82457599999999C41.933136 37.356095999999994 41.464608 37.51224 41.464608 37.82457599999999Z" clip-rule="evenodd" stroke-width="1"></path></svg>