<svg xmlns="http://www.w3.org/2000/svg" fill="none" viewBox="0 0 48 48" height="48" width="48" id="Questioner--Streamline-Memes.svg"><desc>Questioner Streamline Element: https://streamlinehq.com</desc><path stroke="#000000" stroke-linecap="round" stroke-linejoin="round" d="m32.415 40.622 -0.487 -2.435" stroke-width="1"></path><path stroke="#000000" d="M23.219 11.463a2.749 2.301 0 1 0 5.498 0 2.749 2.301 0 1 0 -5.498 0" stroke-width="1"></path><path stroke="#000000" stroke-linecap="round" d="M24.291 16.078a6.8 6.8 0 0 0 1.677 0.208c1.796 0 3.4 -0.689 4.457 -1.768" stroke-width="1"></path><path stroke="#000000" stroke-linejoin="round" d="M9.335 18.198C9.335 7.191 15.821 1 27.352 1 38.883 1 45.37 7.191 45.37 18.198c0 11.007 -6.486 17.198 -18.017 17.198 -11.53 0 -18.017 -6.191 -18.017 -17.198Z" stroke-width="1"></path><path stroke="#000000" d="M36.328 13.899a2.749 2.301 0 1 0 5.498 0 2.749 2.301 0 1 0 -5.498 0" stroke-width="1"></path><path stroke="#000000" stroke-linecap="round" d="M16.034 8.757c0 0.929 -0.75 1.682 -1.673 1.682" stroke-width="1"></path><path stroke="#000000" stroke-linecap="round" d="M15.387 12.6a1.678 1.678 0 0 1 2.373 -0.006" stroke-width="1"></path><path stroke="#000000" stroke-linecap="round" d="M17.962 9.252c0 0.93 0.75 1.682 1.674 1.682" stroke-width="1"></path><path stroke="#000000" stroke-linecap="round" stroke-linejoin="round" d="M13.747 30.569c-3.07 2.421 -9.593 7.866 -11.116 10.275m26.9 -5.516c-3.13 4.485 -4.756 7.06 -7.236 11.672" stroke-width="1"></path><path stroke="#000000" stroke-linecap="round" stroke-linejoin="round" d="m13.437 35.264 6.998 7.218 13.33 -2.081 1.041 0.841 1.33 -1.195" stroke-width="1"></path><path stroke="#000000" stroke-linecap="round" stroke-linejoin="round" d="m33.797 40.433 0.7 -2.335" stroke-width="1"></path><path stroke="#000000" stroke-linecap="round" stroke-linejoin="round" d="m26.938 39.14 6.783 5.956 6.954 -4.74" stroke-width="1"></path><path stroke="#000000" stroke-linecap="round" stroke-linejoin="round" d="m40.675 40.357 -1.152 -1.462" stroke-width="1"></path><path stroke="#000000" stroke-linecap="round" stroke-linejoin="round" d="m43.553 39.648 -1.372 1.107 -1.506 -0.398 1.24 -1.816" stroke-width="1"></path><path stroke="#000000" stroke-linecap="round" stroke-linejoin="round" d="M27.828 9.753c1.373 0.915 4.255 1.417 4.52 0 0.266 -1.417 -3.188 -4.34 -3.188 -4.34" stroke-width="1"></path><path stroke="#000000" stroke-linecap="round" stroke-linejoin="round" d="M38.094 11.734s-3.62 -0.032 -3.442 -1.14c0.177 -1.107 1.892 -2.1 3.586 -2.657" stroke-width="1"></path><path stroke="#000000" stroke-linecap="round" stroke-linejoin="round" d="M28.628 27.867c-0.097 3.04 2.868 4.046 5.446 3.88 0.786 -0.05 1.377 -0.683 1.528 -1.456l0.25 -1.271 1.078 -2.178a1.668 1.668 0 0 0 -1.495 -2.407v0c-0.332 0 -0.657 -0.1 -0.932 -0.286l-0.846 -0.57a2 2 0 0 0 -2.51 0.221l-1.819 1.762" stroke-width="1"></path><path stroke="#000000" stroke-linecap="round" stroke-linejoin="round" d="M36.334 13.695c0.03 1.092 0.468 3.882 1.02 5.536 0.723 2.17 -1.588 3.276 -3.677 2.17 -0.519 -0.505 -0.608 -1.087 -1.639 -1.373 -1.03 -0.286 -1.86 0.886 -1.86 0.886" stroke-width="1"></path><path stroke="#000000" stroke-linecap="round" stroke-linejoin="round" d="M28.89 27.469c1.895 1.143 5.454 2.237 6.891 1.812" stroke-width="1"></path><path stroke="#000000" stroke-linecap="round" stroke-linejoin="round" d="M30.344 24.563c1.771 1.327 5.059 2.64 6.532 2.36" stroke-width="1"></path><path stroke="#000000" stroke-linecap="round" stroke-linejoin="round" d="M29.014 23.641c0.709 2.762 0.219 3.912 -1.626 5.53" stroke-width="1"></path><path fill="#000000" fill-rule="evenodd" d="M39.073 12.774a1.125 1.125 0 1 0 0 2.25 1.125 1.125 0 0 0 0 -2.25Z" clip-rule="evenodd" stroke-width="1"></path><path fill="#000000" fill-rule="evenodd" d="M25.875 10.378a1.125 1.125 0 1 0 0 2.25 1.125 1.125 0 0 0 0 -2.25Z" clip-rule="evenodd" stroke-width="1"></path></svg>