<svg xmlns="http://www.w3.org/2000/svg" fill="none" viewBox="0 0 48 48" height="48" width="48" id="Roll-Safe-Hand-Drawn--Streamline-Memes.svg"><desc>Roll Safe Hand Drawn Streamline Element: https://streamlinehq.com</desc><path fill="#000000" fill-rule="evenodd" d="M31.048512 22.8672C27.133248 19.42248 21.808896 25.059839999999998 26.350175999999998 25.372895999999997C28.072799999999997 25.529856 29.952431999999998 24.746832 31.048512 23.807232C31.36152 23.650271999999998 31.048512 23.180736 30.734976 23.493744C28.855871999999998 24.903312 25.724159999999998 24.746832 25.410624 24.120288C25.254095999999997 23.650271999999998 28.229328 21.145056 30.734976 23.180736C30.891983999999997 23.493744 31.204992 23.023728 31.048512 22.8672Z" clip-rule="evenodd" stroke-width="1"></path><path fill="#000000" fill-rule="evenodd" d="M27.358272 22.448112C26.107104 23.073695999999998 27.045696 24.324863999999998 27.827808 24.011808C28.765967999999997 23.699279999999998 28.453392 22.135536 27.045696 22.448112H27.358272Z" clip-rule="evenodd" stroke-width="1"></path><path fill="#000000" fill-rule="evenodd" d="M27.202224 22.291584C25.482 22.917168 26.57664 25.106448 27.983856 24.480864C29.391551999999997 23.85528 28.453392 21.822528 27.202224 22.291584ZM27.358272 22.76064C26.732688 23.229744 27.358272 23.85528 27.67128 23.699279999999998C28.140383999999997 23.542271999999997 27.983856 22.76064 27.358752 22.76064Z" clip-rule="evenodd" stroke-width="1"></path><path fill="#000000" fill-rule="evenodd" d="M40.131119999999996 19.42152C38.565024 18.168912 36.685871999999996 18.951984 36.215856 20.204544C35.746320000000004 21.457632 36.529392 22.240655999999998 37.625424 22.083696C38.408496 22.083696 40.131119999999996 21.457632 40.444128 20.361552C40.444128 20.048064 40.131119999999996 19.891536 39.974592 20.204544C39.817584 20.987616 37.468944 21.457632 36.999407999999995 20.987616C36.529344 20.51808 37.93896 18.325439999999997 39.818064 19.57848C40.131119999999996 19.891536 40.444128 19.57848 40.131119999999996 19.42152Z" clip-rule="evenodd" stroke-width="1"></path><path fill="#000000" fill-rule="evenodd" d="M38.085456 20.75592C38.747712 20.983824 38.977488 20.099904 38.427071999999995 19.762608C38.097840000000005 19.427232 36.980351999999996 20.524271999999996 38.085456 20.75592Z" clip-rule="evenodd" stroke-width="1"></path><path fill="#000000" fill-rule="evenodd" d="M38.539776 19.431984C38.320944 19.208399999999997 37.767216000000005 19.313999999999997 37.32096 19.752144C36.986064 20.080416 37.089312 20.855856 37.862352 20.973792C39.184895999999995 21.428592 39.420864 19.882512 38.54025599999999 19.431984ZM38.3148 19.872048C38.094048 19.870127999999998 37.86854399999999 20.310191999999997 38.089776 20.312544C38.308608 20.535648000000002 38.53411199999999 20.095152 38.3148 19.872048Z" clip-rule="evenodd" stroke-width="1"></path><path fill="#000000" fill-rule="evenodd" d="M36.529344 20.205024C35.589791999999996 22.084176 36.686352 23.650271999999998 37.93896 25.216368C38.095439999999996 25.529376 38.565024 25.216368 38.251968 24.903312C37.625424 23.650271999999998 36.529824000000005 21.61464 36.999359999999996 20.205024C36.999359999999996 20.048544 36.529344 19.892015999999998 36.529344 20.205024Z" clip-rule="evenodd" stroke-width="1"></path><path fill="#000000" fill-rule="evenodd" d="M39.50457599999999 28.035072C40.444128 27.878543999999998 41.070672 26.782463999999997 40.444128 25.842912C40.131119999999996 25.372895999999997 38.721984 24.120288 38.565024 24.746832C38.408496 25.216368 39.348048 25.216368 39.974592 26.15592C40.444128 27.095472 39.035039999999995 27.565488 39.50457599999999 27.252C39.348048 27.252 39.035039999999995 27.252 38.87851199999999 27.565535999999998C38.565024 28.191551999999998 38.565024 28.505087999999997 37.93896 28.818096C37.625424 28.975104 37.468944 28.818096 37.155888 28.818096C35.902848 28.505087999999997 34.33718399999999 29.914175999999998 33.240672 28.975104C32.4576 28.34856 33.554159999999996 27.565535999999998 33.084143999999995 27.409008C32.614608000000004 27.095472 32.144591999999996 28.505087999999997 32.614608000000004 29.131152C33.084143999999995 30.071184 34.493712 30.227712 35.746320000000004 29.914175999999998C36.999407999999995 29.601167999999998 36.685871999999996 29.601167999999998 37.312416 29.601167999999998C37.781952 29.758128 38.095487999999996 29.758128 38.565024 29.444159999999997C39.191568000000004 29.131632 39.191568000000004 28.661616 39.50457599999999 28.035072Z" clip-rule="evenodd" stroke-width="1"></path><path fill="#000000" fill-rule="evenodd" d="M36.529344 20.361552C36.998928 19.265472 38.251488 17.542848 39.661104 16.759824C39.974592 16.602815999999997 39.818064 16.13328 39.50457599999999 16.289808C37.468944 17.072832 36.37286399999999 18.32592 36.059327999999994 20.205024C36.059327999999994 20.67456 36.529344 20.67456 36.529344 20.362032Z" clip-rule="evenodd" stroke-width="1"></path><path fill="#000000" fill-rule="evenodd" d="M31.518047999999997 19.57848C28.542816 18.795936 26.037648 19.108943999999997 24.158496 21.301104C24.001535999999998 21.458112 24.314543999999998 21.927647999999998 24.471072 21.61464C26.350175999999998 20.048544 29.169359999999998 19.735488 31.518047999999997 19.892015999999998C31.733999999999998 19.892015999999998 31.833936 19.66176 31.518047999999997 19.57848Z" clip-rule="evenodd" stroke-width="1"></path><path fill="#000000" fill-rule="evenodd" d="M37.24488 29.326176C35.524608 30.108287999999998 33.491376 31.515504000000004 32.866272 31.828511999999996C32.240688 31.985039999999994 31.615104 32.141087999999996 30.989519999999995 32.454096C30.363936 32.923152 30.832991999999997 33.548256 33.1788 32.923152C35.368608 32.297568000000005 36.932304 30.88992 37.557888 30.577344C38.339999999999996 30.264336 39.121632 30.264815999999996 39.90321599999999 30.108287999999998C40.3728 29.95176 40.685328 29.482704 40.685328 29.013647999999996C40.685328 28.700592 38.96558399999999 28.700592 38.809056 28.85664C38.339999999999996 29.169648 37.714416 29.639231999999996 37.24488 29.326176Z" clip-rule="evenodd" stroke-width="1"></path><path fill="#000000" fill-rule="evenodd" d="M37.40136 29.169168C37.088832 28.85664 33.960912 30.733392 33.335328 31.046400000000002C32.553216 31.515504000000004 32.08416 31.515504000000004 31.302528 31.671503999999995C28.800192 32.610144 30.832991999999997 35.268527999999996 36.463248 31.671503999999995C36.932304 31.358976 37.24488 31.046400000000002 37.714416 30.88992C38.339999999999996 30.576863999999997 39.121632 30.576863999999997 39.903696 30.420816C40.52928 30.264336 40.997904 29.638751999999997 40.841856 29.013167999999997C40.685328 28.544064 40.216272 28.544064 39.747216 28.544064C39.43464 28.544064 38.965104 28.544064 38.496048 28.700592C38.183472 28.85664 37.870464 29.326176 37.40184 29.169648ZM31.302528 32.766672C31.145568 32.766672 31.145568 32.766672 31.302528 32.766672ZM40.3728 29.169648C40.060224 29.169648 39.121632 29.013167999999997 38.809056 29.169648C38.183472 29.326176 37.870464 29.795232 37.24488 29.638751999999997C36.932304 29.638751999999997 33.960912 31.671503999999995 33.648336 31.671503999999995C32.553216 32.297088 31.771583999999997 32.297568000000005 31.146 32.766672C33.1788 33.235728 36.932304 30.420816 37.24488 30.264336C38.652528 29.638751999999997 40.3728 30.264336 40.3728 29.169696000000002ZM31.302528 32.766192C31.302528 32.610144 31.145568 32.610144 31.302528 32.766192C31.145568 32.766192 31.145568 32.766192 31.302528 32.766192ZM40.3728 29.169648C40.52928 29.326176 40.3728 29.326176 40.3728 29.169648C40.52928 29.326176 40.52928 29.326176 40.3728 29.169648Z" clip-rule="evenodd" stroke-width="1"></path><path fill="#000000" fill-rule="evenodd" d="M40.131119999999996 30.227231999999997C40.444128 31.793327999999995 37.312416 33.202416 35.902848 33.67243199999999C32.771088 34.611984 31.204992 33.985488 30.421968 34.141968C30.108912 34.298975999999996 29.638896 34.768511999999994 29.952431999999998 34.925039999999996C30.265439999999998 35.082 30.265439999999998 34.768032 30.578495999999998 34.611984C31.204992 34.455024 32.927616 35.238048 36.059327999999994 34.455024C38.095439999999996 33.82896 41.070672 32.26286399999999 40.444128 30.070223999999996C40.601136 29.757216 40.131119999999996 29.913695999999998 40.131119999999996 30.227231999999997Z" clip-rule="evenodd" stroke-width="1"></path><path fill="#000000" fill-rule="evenodd" d="M39.50457599999999 33.046367999999994C39.661584 35.551584 35.433312 37.11768 33.084143999999995 36.178079999999994C32.771136 36.021119999999996 32.614608000000004 36.491136 32.927136000000004 36.647664C35.902848 38.21375999999999 40.600656 36.334608 39.974592 33.046367999999994C39.974592 32.576352 39.50457599999999 32.73288 39.50457599999999 33.046367999999994Z" clip-rule="evenodd" stroke-width="1"></path><path fill="#000000" fill-rule="evenodd" d="M35.433312 8.303711999999999C38.251968 14.724143999999999 40.757183999999995 15.507216 39.974592 18.32592C39.817584 18.639408 40.2876 18.795936 40.444128 18.482879999999998C41.383728 15.663744000000001 39.348048 13.628064 36.998928 9.869808C35.746320000000004 7.990704 35.902848 7.833696 35.589791999999996 7.990704C35.432832 7.990704 35.432832 8.147232 35.432832 8.303711999999999Z" clip-rule="evenodd" stroke-width="1"></path><path fill="#000000" fill-rule="evenodd" d="M40.131119999999996 22.71072C41.070672 24.746352 40.91414399999999 27.252 40.2876 29.131152C40.13064 29.444159999999997 40.600656 29.600688 40.757183999999995 29.287632C41.853744 26.781983999999998 42.166751999999995 24.746352 40.600656 22.397184C40.287648 22.240655999999998 39.974592 22.397184 40.131119999999996 22.71072Z" clip-rule="evenodd" stroke-width="1"></path><path fill="#000000" fill-rule="evenodd" d="M38.87851199999999 35.081568C37.625424 39.30984 35.746320000000004 42.442032 31.362000000000002 41.972015999999996C27.91632 41.65896 25.64376 38.865984 25.486752 39.649007999999995C25.486752 39.80601599999999 25.567632 40.249392 25.724159999999998 40.249392C26.820240000000002 40.719407999999994 27.603264 41.345471999999994 28.699344 41.815488C31.048512 43.068096 34.65024 43.225055999999995 36.8424 40.875935999999996C38.408496 39.30984 39.035039999999995 37.11768 39.50457599999999 34.925039999999996C39.50457599999999 34.925039999999996 39.035039999999995 34.768511999999994 38.87851199999999 35.082Z" clip-rule="evenodd" stroke-width="1"></path><path fill="#000000" fill-rule="evenodd" d="M30.734976 29.131152C30.891983999999997 28.974144 31.204992 28.191551999999998 31.36152 28.035072C31.518528 27.721536 31.831536000000003 27.252 31.518528 27.094991999999998C31.204511999999998 26.938511999999996 31.204511999999998 27.252 30.891983999999997 27.721536C30.421968 28.34808 29.952431999999998 28.661088 29.952431999999998 28.974624C29.795423999999997 29.444159999999997 30.421968 30.383712 29.638896 31.793327999999995C29.012352 32.889407999999996 28.386335999999996 32.889407999999996 28.542816 33.202416C28.855871999999998 33.82896 31.674528000000002 31.323263999999998 30.734976 29.131152ZM30.734976 29.131152C30.734976 29.287632 30.578495999999998 29.287632 30.734976 29.131152Z" clip-rule="evenodd" stroke-width="1"></path><path fill="#000000" fill-rule="evenodd" d="M10.064112 20.988096C10.847135999999999 20.831087999999998 11.630208 20.988096 12.256272 21.301104C13.66584 19.892015999999998 15.388463999999999 18.012864 17.580624 18.169392C17.580624 17.386319999999998 17.737632 17.073312 17.737632 17.073312C17.737632 16.603296 17.580624 15.507216 17.267568 14.724143999999999C16.484544 12.84504 14.448912 14.567184 13.196304 14.724143999999999C10.37712 14.881152 9.438048 12.531503999999998 10.847135999999999 13.001568C11.31672 13.158527999999999 11.786736000000001 13.471584 12.41328 13.471584C13.978895999999999 13.628064 15.388463999999999 13.158048 16.171536 11.74896C18.833712 7.36416 24.001535999999998 8.616767999999999 28.386335999999996 8.460239999999999C29.951952 8.303232 32.614128 8.460239999999999 33.710688 7.050672C34.493232 5.954592 33.397152 4.544976 32.614128 3.762432C29.325888 0.78672 18.990192 -0.779376 13.039295999999998 3.605424C7.714944 7.677216 6.618864 15.507216 9.907583999999998 21.144576V20.988096H10.064112Z" clip-rule="evenodd" stroke-width="1"></path><path fill="#000000" fill-rule="evenodd" d="M10.22064 20.67504C8.655024000000001 21.301104 8.18496 23.023728 8.968032 23.96376C9.12504 24.276816 9.594576 23.96376 9.437567999999999 23.650271999999998C9.124559999999999 22.710672 9.907583999999998 21.301104 10.3776 20.988096C10.847183999999999 20.988096 10.534128 20.51856 10.22064 20.67504Z" clip-rule="evenodd" stroke-width="1"></path><path fill="#000000" fill-rule="evenodd" d="M34.65024 41.815488C34.493232 42.598512 34.336752 43.068576 34.493232 43.8516C34.963248 45.260687999999995 35.902848 46.04376 36.686352 46.983312C36.8424 47.296848 37.312416 46.983312 36.998928 46.670303999999994C36.529344 45.887232 36.059327999999994 45.260735999999994 35.589791999999996 44.477664C34.493712 42.442032 35.432832 41.50243199999999 34.806768 41.50243199999999C34.806768 41.50243199999999 34.64976 41.65944 34.64976 41.815488Z" clip-rule="evenodd" stroke-width="1"></path><path fill="#000000" fill-rule="evenodd" d="M36.059327999999994 41.189424C38.408496 45.730752 38.095439999999996 45.730752 38.408496 45.573744C38.565504000000004 45.573744 38.565504000000004 45.417216 38.565504000000004 45.260735999999994C38.251488 43.068576 37.468944 42.128975999999994 36.529344 40.875935999999996C36.216336 40.719407999999994 35.902848 41.032896 36.059327999999994 41.189424Z" clip-rule="evenodd" stroke-width="1"></path><path fill="#000000" fill-rule="evenodd" d="M37.93848 39.46632C39.817584 41.188944 39.661104 41.188944 42.949824 41.815488C45.612 42.285024 47.334576 43.225055999999995 47.491104 42.755039999999994C47.648112000000005 42.442032 47.178096 42.285504 45.76896 41.815488C40.757664 39.936336 41.696736 41.50248 38.251968 39.153312C38.095008 38.996304 37.781952 39.31032 37.93848 39.46632Z" clip-rule="evenodd" stroke-width="1"></path><path fill="#000000" fill-rule="evenodd" d="M45.612 46.356767999999995C44.202864 44.947199999999995 43.41984 43.694592 41.540687999999996 42.128496C40.601136 41.345471999999994 38.87851199999999 40.092384 38.095487999999996 39.153312C37.93848 38.839776 37.468944 39.153312 37.78243199999999 39.46632C38.721984 40.875935999999996 44.359392 45.886751999999994 45.298944 46.826352C45.612 46.826352 45.925488 46.513296 45.612 46.356767999999995Z" clip-rule="evenodd" stroke-width="1"></path><path fill="#000000" fill-rule="evenodd" d="M13.509312 46.357248C10.064112 41.346432 9.751055999999998 41.189904 8.341968 35.708543999999996C8.18496 34.926 7.715423999999999 33.9864 7.715423999999999 33.203376C7.715423999999999 31.324223999999997 9.437567999999999 31.167263999999996 9.437567999999999 24.746832C9.437567999999999 23.494224 11.47368 22.71072 12.56976 21.61464C13.352832 20.67504 14.605871999999998 19.892496 15.701952 19.109424C16.015008 18.795936 16.485024 18.3264 16.798032 18.482879999999998C17.894112 18.482879999999998 17.581104 21.615071999999998 14.448912 22.398144C14.135855999999999 22.554192 14.135855999999999 23.807232 12.56976 25.059839999999998C12.256752 25.373328 12.883296 26.625936 12.100223999999999 29.288111999999998C12.100223999999999 29.601167999999998 12.413232 29.758128 12.56976 29.44512C12.883296 28.192032 13.039776 26.939424 13.039776 25.372848C13.822847999999999 24.746832 14.605392 23.96376 14.918928 22.86768C18.834144 21.7716 18.990671999999996 17.699855999999997 16.95504 17.699855999999997C16.328015999999998 17.699855999999997 15.701952 18.169872 15.231936 18.482879999999998C14.135855999999999 19.265952 12.883296 19.892496 11.943216 20.988576C10.847135999999999 22.241136 8.655024000000001 22.86768 8.655024000000001 24.746832C8.655024000000001 31.167263999999996 6.775872 31.010735999999998 6.9324 33.203376C6.9324 34.142928 7.401936 35.08248 7.558943999999999 35.865551999999994C9.124559999999999 41.815968 9.594576 41.815968 13.039295999999998 46.670784C13.353312 46.827264 13.666319999999999 46.513776 13.50936 46.357248Z" clip-rule="evenodd" stroke-width="1"></path><path fill="#000000" fill-rule="evenodd" d="M10.3776 31.793327999999995C10.847135999999999 30.54072 11.943216 30.384192 12.882816 29.757648C13.979375999999998 29.131632 14.76192 28.34856 15.858479999999998 27.721536C17.580624 26.782463999999997 19.616736 26.782463999999997 20.086752 28.505087999999997C20.086752 28.661568 20.24328 28.661568 20.399808 28.661568C20.869344 28.504607999999998 20.399808 27.095472 19.303728 26.625456C16.798032 25.372895999999997 13.979327999999999 28.035072 12.56976 28.974624C11.31672 29.757648 10.3776 30.070704 9.907583999999998 31.480272C9.750624 31.950288 10.22064 32.106816 10.3776 31.793327999999995Z" clip-rule="evenodd" stroke-width="1"></path><path fill="#000000" fill-rule="evenodd" d="M14.918928 31.793327999999995C15.701952 30.697248 16.798032 30.853727999999997 17.894112 30.384192C19.460207999999998 29.757648 22.748928 26.625936 23.53152 29.757648C23.68848 30.070704 23.53152 30.384192 23.845008 30.384192C24.471552 30.384192 24.002015999999998 27.722015999999996 22.122383999999997 27.565488C20.869823999999998 27.565488 19.303728 28.505087999999997 18.364128 29.131152C16.798032 30.070704 16.485024 29.914175999999998 15.701952 30.384192C15.231936 30.697248 14.292384 31.480272 14.605871999999998 31.793327999999995C14.605871999999998 31.950288 14.7624 31.950288 14.918928 31.793327999999995Z" clip-rule="evenodd" stroke-width="1"></path><path fill="#000000" fill-rule="evenodd" d="M19.773263999999998 33.202416C20.24328 32.419392 21.025824 32.26286399999999 21.809376 31.949808C22.905456 31.479791999999996 25.097616000000002 28.504607999999998 25.88064 32.106336C26.350175999999998 33.985488 26.037648 35.395056 24.62808 36.960672C24.471072 37.11768 24.78456 37.430687999999996 24.941088 37.274159999999995C26.507184 35.708064 26.9772 34.141968 26.663232 31.949808C26.507184 30.696768 25.724159999999998 29.600688 24.62808 29.600688C23.68848 29.600688 22.905456 30.227231999999997 22.278912 30.853727999999997C21.182831999999998 31.793327999999995 21.182831999999998 31.479791999999996 20.2428 32.106336C18.677184 33.202416 19.460207999999998 33.515904 19.773263999999998 33.202416Z" clip-rule="evenodd" stroke-width="1"></path><path fill="#000000" fill-rule="evenodd" d="M23.844527999999997 35.708064C23.844527999999997 36.178079999999994 23.68848 36.491136 23.844527999999997 36.491136C24.158544 36.648096 24.471552 35.708543999999996 24.62808 35.395056C24.941088 34.455504000000005 24.314543999999998 33.202896 24.001535999999998 33.358944C23.68848 33.515904 24.001535999999998 34.142448 23.844527999999997 35.708064Z" clip-rule="evenodd" stroke-width="1"></path><path fill="#000000" fill-rule="evenodd" d="M24.941088 33.046367999999994C24.609503999999998 33.377472 24.443952 33.756624 24.314543999999998 34.298975999999996C24.157584 34.611984 24.62808 34.768511999999994 24.78456 34.455504000000005C25.254144 33.985488 25.410624 33.82896 25.410624 33.045888C25.410624 32.888928 25.119503999999996 32.86752 24.941088 33.045888Z" clip-rule="evenodd" stroke-width="1"></path><path fill="#000000" fill-rule="evenodd" d="M24.314543999999998 35.395056C24.589536 35.479728 24.909215999999997 35.552064 25.097616000000002 35.552064C25.410624 35.552064 25.410624 35.082 25.097616000000002 35.082C25.010064 35.025888 24.572879999999998 34.925039999999996 24.314543999999998 34.925039999999996C24.157584 34.925039999999996 24.001535999999998 35.395056 24.314543999999998 35.395056Z" clip-rule="evenodd" stroke-width="1"></path><path fill="#000000" fill-rule="evenodd" d="M23.688048 36.335088C24.941088 38.840256 25.410624 42.75552 25.254144 44.94768C25.097136 46.200768 24.941088 46.357248 25.254144 46.513776C26.037168 46.826831999999996 26.037168 42.442032 25.88064 41.189424C25.723679999999998 39.46728 25.254144 37.900704 24.001535999999998 36.0216C24.001535999999998 35.865072 23.53152 36.0216 23.688048 36.335088Z" clip-rule="evenodd" stroke-width="1"></path><path fill="#000000" fill-rule="evenodd" d="M8.341488 37.587695999999994C7.245407999999999 38.683776 7.08888 39.4668 6.305376 40.56288C5.9928479999999995 41.189424 3.017136 41.50248 0.511488 46.514256C0.35496 46.826831999999996 0.8249759999999999 46.983792 0.9815039999999999 46.670303999999994C1.608048 45.574223999999994 3.017616 44.008128 4.7397599999999995 42.598991999999996C5.209776 42.128975999999994 6.775872 41.65944 7.245407999999999 40.876416C7.714944 39.779856 8.02848 38.683776 8.811504 37.744223999999996C8.968032 37.744223999999996 8.654544 37.431168 8.341488 37.587695999999994Z" clip-rule="evenodd" stroke-width="1"></path><path fill="#000000" fill-rule="evenodd" d="M13.509312 24.432816C14.292384 24.9024 14.918928 26.311968 14.918928 27.25152C14.918928 27.565056 15.388463999999999 27.721536 15.388463999999999 27.408528C15.858479999999998 25.998959999999997 15.231936 24.432816 13.822368 24.119808C13.509312 23.80632 13.352832 24.276335999999997 13.509312 24.432816Z" clip-rule="evenodd" stroke-width="1"></path></svg>