<svg xmlns="http://www.w3.org/2000/svg" fill="none" viewBox="0 0 48 48" height="48" width="48" id="Roll-Safe--Streamline-Memes.svg"><desc>Roll Safe Streamline Element: https://streamlinehq.com</desc><path stroke="#000000" stroke-linecap="round" stroke-linejoin="round" d="M11.415 43.309c-1.41 -2.423 -4.166 -7.92 -3.906 -10.524 0.326 -3.255 0.434 -10.74 6.618 -13.236 1.52 -0.76 2.604 1.194 1.302 2.17s-2.917 3.105 -3.35 6.468" stroke-width="1"></path><path stroke="#000000" stroke-linecap="round" stroke-linejoin="round" d="M10.439 29.313c1.7 -1.157 4.94 -3.519 6.292 -2.55 1.352 0.97 0.14 1.293 -0.9 2.244m-1.595 1.283c0.467 -0.332 1.06 -0.794 1.595 -1.283m0 0c1.186 -0.621 2.473 -2.208 3.884 -1.104 1.41 1.104 -0.796 2.495 -1.79 3.038 1.12 -0.76 3.482 -2.148 3.96 -1.628 1.017 1.11 2.332 4.557 -0.76 6.768m1.03 7.282c0.672 -3.84 -2.136 -7.808 -1.03 -11.283" stroke-width="1"></path><path stroke="#000000" stroke-linecap="round" stroke-linejoin="round" d="M13.979 17.372c0.306 -2.722 1.115 -6.55 3.512 -6.394 9.167 0.597 9.8 -1.717 13.073 -1.573 -5.587 -10.849 -20.939 -2.983 -22.078 2.93 -0.83 4.309 -0.24 6.64 0.64 8.315" stroke-width="1"></path><path stroke="#000000" stroke-linecap="round" stroke-linejoin="round" d="M8.16 14.938c2.422 1.198 3.587 1.35 6.076 0.651" stroke-width="1"></path><path stroke="#000000" stroke-linecap="round" stroke-linejoin="round" d="M30.547 9.39c0.054 0.326 4.736 7.88 4.736 9.128" stroke-width="1"></path><path stroke="#000000" stroke-linecap="round" stroke-linejoin="round" d="M35.907 22.587c0.434 0.47 0.786 2.343 0.57 3.471 -0.272 1.41 -1.623 10.106 -3.201 11.446 -3.96 3.364 -9.71 1.302 -10.09 -0.488" stroke-width="1"></path><path stroke="#000000" stroke-linecap="round" stroke-linejoin="round" d="M33.547 37.234c3.382 0.613 10.86 2.616 13.453 5.695" stroke-width="1"></path><path stroke="#000000" stroke-linecap="round" stroke-linejoin="round" d="M8.125 36.266C5.792 38.38 1.043 42.756 1 43.146" stroke-width="1"></path><path stroke="#000000" stroke-linecap="round" stroke-linejoin="round" d="M26.82 20.851c-1.41 -0.705 -3.471 -0.705 -4.23 -0.705" stroke-width="1"></path><path stroke="#000000" stroke-linecap="round" stroke-linejoin="round" d="M30.401 21.99c0.148 1.495 0.961 3.037 1.824 3.743 1.919 1.57 0.997 3.146 0 3.363 -0.997 0.217 -5.025 0.868 -3.126 -1.681" stroke-width="1"></path><path stroke="#000000" stroke-linecap="round" stroke-linejoin="round" d="M25.953 33.002c0.564 -0.304 1.537 0.488 1.953 0.922 2.333 2.437 5.914 1.842 6.985 -0.19" stroke-width="1"></path><path stroke="#000000" stroke-linecap="round" stroke-linejoin="round" d="M35.531 30.89c-1.03 -1.356 -6.69 2.595 -7.937 2.704" stroke-width="1"></path><path stroke="#000000" stroke-linecap="round" stroke-linejoin="round" d="M28.031 34.047c2.404 -0.346 5.708 -0.963 7.282 -2.156" stroke-width="1"></path><path stroke="#000000" stroke-linecap="round" stroke-linejoin="round" d="M35.822 22.589c-2.001 0.115 -3.089 0.44 -4.553 0 0 -1.087 0.597 -2.389 4.123 -3.094" stroke-width="1"></path><path stroke="#000000" stroke-linecap="round" stroke-linejoin="round" d="M32.55 18.385c0.488 -0.689 1.406 -1.372 2.803 -1.578" stroke-width="1"></path><path stroke="#000000" stroke-linecap="round" stroke-linejoin="round" d="M32.047 38.36c0.337 1.66 0.27 3.125 0.008 4.786" stroke-width="1"></path><path fill="#000000" d="m24.5 10.781 -7.844 0.406c-1.706 1.138 -1.947 2.296 -2.531 4.282 -1.962 0.915 -3.427 0.806 -5.969 -0.563 0 -4.906 4.498 -8.855 9.594 -10.343 7.813 -2.282 12.156 2.656 12.75 4.75 -0.645 -0.092 -2.535 0.455 -6 1.468Z" stroke-width="1"></path><path stroke="#000000" stroke-linecap="round" stroke-linejoin="round" d="M26.956 24.359c-1.196 0.769 -4.27 1.268 -6.618 0 2.716 -2.18 5.242 -2.303 6.618 0Z" stroke-width="1"></path><path fill="#000000" fill-rule="evenodd" d="M22.936 22.713a1.252 1.252 0 1 0 0 2.504 1.252 1.252 0 0 0 0 -2.504Z" clip-rule="evenodd" stroke-width="1"></path><path fill="#000000" fill-rule="evenodd" d="M33.395 20.146a1.252 1.252 0 1 0 0 2.504 1.252 1.252 0 0 0 0 -2.504Z" clip-rule="evenodd" stroke-width="1"></path></svg>