<svg xmlns="http://www.w3.org/2000/svg" fill="none" viewBox="0 0 48 48" height="48" width="48" id="Sad-Pepe-Frog-Hand-Drawn--Streamline-Memes.svg"><desc>Sad Pepe Frog Hand Drawn Streamline Element: https://streamlinehq.com</desc><path fill="#000000" fill-rule="evenodd" d="M31.544495999999995 13.056288C24.394512 11.687135999999999 22.264752 12.752063999999999 18.917952 14.729712C17.853071999999997 15.338208 16.48392 15.946703999999999 15.723263999999999 17.011632C15.114768 17.9244 18.461567999999996 18.532895999999997 19.374336 18.98928C21.351983999999998 19.902048 23.329632 20.966928 25.30728 21.423312C29.719008 22.488191999999998 34.434912 20.814815999999997 33.978576000000004 16.555248C33.826415999999995 15.033935999999999 32.609376 13.36056 32.305104 13.816944C31.84872 14.273328 33.370031999999995 14.273328 33.522192000000004 16.70736C33.826415999999995 20.662656 29.414687999999998 21.879696 25.459391999999998 20.814815999999997C23.481744 20.358432 21.656256 19.293504 19.678608 18.380784000000002C18.76584 17.9244 17.5488 17.77224 16.636032 17.315856C17.244576 16.555248 20.895599999999998 14.5776 21.04776 14.5776C25.915824 11.991408 31.544544 14.273328 31.696656 13.512671999999998C31.696656 13.208448 31.696607999999998 13.056288 31.544495999999995 13.056288Z" clip-rule="evenodd" stroke-width="1"></path><path fill="#000000" fill-rule="evenodd" d="M33.37008 14.882207999999999C35.195616 13.96944 38.846688 13.208784 40.976496 13.056624C41.280719999999995 13.056624 41.280719999999995 12.600287999999999 40.976496 12.600287999999999C38.086031999999996 12.448176 35.347728 12.7524 33.065808000000004 14.425775999999999C32.761536 14.577888 33.065856000000004 15.03432 33.37008 14.882207999999999Z" clip-rule="evenodd" stroke-width="1"></path><path fill="#000000" fill-rule="evenodd" d="M42.95414399999999 13.512768C43.866912 13.664927999999998 44.931792 13.969199999999999 45.540288000000004 14.729856C46.605168 15.642624 47.213712 17.620272 46.148784 18.685152C45.388176 19.445807999999996 44.171136 19.44576 43.106255999999995 19.597872C40.824336 20.054256 35.195616 20.967024 33.52224 19.141488000000003C32.761584 18.22872 32.153088000000004 22.184064 43.258368 20.51064C44.475408 20.358528 45.84456 20.206415999999997 46.757328 19.445807999999996C48.126384 18.076656 47.517936 15.642576 45.996672000000004 14.425536C45.083904000000004 13.664927999999998 44.319312000000004 13.309776 43.10232 13.157615999999999C42.745344 13.112928 42.649871999999995 13.360656 42.95414399999999 13.512768Z" clip-rule="evenodd" stroke-width="1"></path><path fill="#000000" fill-rule="evenodd" d="M38.437343999999996 16.103232C36.276095999999995 17.368223999999998 36.703344 20.101008 38.13672 20.051328C40.213775999999996 19.891824 46.3488 20.676624 43.490928 16.488C42.773472 15.480383999999999 40.598592 14.838239999999999 38.437343999999996 16.103232Z" clip-rule="evenodd" stroke-width="1"></path><path fill="#000000" fill-rule="evenodd" d="M38.30352 15.775343999999999C35.814384 17.174256 36.351504 20.550768 38.112719999999996 20.367168C39.230208 20.29344 42.072816 20.509919999999997 43.56628799999999 19.670592C46.055424 18.271728 42.953904 13.111488 38.30352 15.775343999999999ZM43.175135999999995 16.464048C45.449424 19.972848 41.209439999999994 19.332288 38.014896 19.56552C37.699056 19.541472 37.553135999999995 19.371551999999998 37.407264 19.201632C36.17832 16.566575999999998 41.594303999999994 14.278704 43.175135999999995 16.464048Z" clip-rule="evenodd" stroke-width="1"></path><path fill="#000000" fill-rule="evenodd" d="M25.065936 16.441344C22.633200000000002 17.035584 22.261295999999998 19.776528 23.649023999999997 20.138688C25.68504 20.579712 31.339536 23.085791999999998 29.798544 18.254976C29.399136 17.084256 27.498624 15.847104 25.065936 16.441344Z" clip-rule="evenodd" stroke-width="1"></path><path fill="#000000" fill-rule="evenodd" d="M25.03128 16.08888C22.24608 16.717728 21.795408 20.106816000000002 23.5356 20.434416C24.627504 20.683296000000002 27.289632 21.703392 28.960704 21.326112C31.893744 20.753999999999998 30.249071999999998 14.865792 25.03128 16.08888ZM29.502672 18.141551999999997C30.678767999999998 22.154112 26.798976 20.328143999999998 23.671056 19.638288C23.37528 19.524912 23.28408 19.320336 23.192832 19.115759999999998C22.916496 16.296096000000002 28.817135999999998 15.504288 29.502672 18.141551999999997Z" clip-rule="evenodd" stroke-width="1"></path><path fill="#000000" fill-rule="evenodd" d="M10.09464 14.577504C5.378736 18.684912 4.77024 21.271103999999998 3.248928 23.248752C2.33616 24.465791999999997 1.4233919999999998 27.812592 2.031888 31.311503999999996C2.4882720000000003 33.745488 3.857424 36.33168 6.595727999999999 38.157168C12.528672 42.112511999999995 20.2872 43.633824 27.437184 42.112559999999995C31.696751999999996 41.199791999999995 36.166608 38.42952 39.81768 36.147600000000004C40.121952 35.995488 38.75193599999999 35.995488 38.599824000000005 36.147600000000004C34.948752 38.27736 31.54464 40.591296 27.437184 41.351904C20.591424 42.721056 12.985055999999998 41.199744 7.204224 37.2444C4.770192000000001 35.571024 3.5532 33.289104 3.0968159999999996 31.007183999999995C2.4882720000000003 27.812544 3.248928 24.465695999999998 4.009584 23.400816C5.530848 21.423167999999997 5.9466719999999995 19.092384 10.358351999999998 15.137087999999999C10.358351999999998 15.137087999999999 10.398912 14.425344 10.09464 14.577456Z" clip-rule="evenodd" stroke-width="1"></path><path fill="#000000" fill-rule="evenodd" d="M30.023183999999997 10.470336C29.566799999999997 9.861839999999999 28.654079999999997 4.6895039999999995 22.416816 4.081008C18.917904 3.7767359999999996 15.723216 5.602224 13.441296 8.188416C9.790272 12.295872 9.486047999999998 17.468208 10.094543999999999 17.468208C10.246704 17.468208 10.246656 17.316096 10.246656 17.163984C10.246656 14.121455999999998 11.76792 10.92672 14.049839999999998 8.492688000000001C19.222128 3.01608 25.915775999999997 4.08096 28.50192 8.188416C28.958304 8.949072 29.110463999999997 9.861839999999999 29.719008 10.622447999999999C29.871119999999998 10.92672 30.631728 10.926768 30.935952 11.07888C31.84872 11.383151999999999 32.305104 12.143711999999999 32.305104 13.05648C32.305104 13.360752 32.761488 13.360752 32.761488 13.05648C32.609424 11.687328 31.544495999999995 10.92672 30.023183999999997 10.470336Z" clip-rule="evenodd" stroke-width="1"></path><path fill="#000000" fill-rule="evenodd" d="M45.236064 13.665312C45.083999999999996 11.991935999999999 43.714847999999996 10.166447999999999 41.889312000000004 10.31856C41.128704 8.797296 40.21593599999999 7.1238719999999995 38.694672 6.058943999999999C35.956368 4.0813440000000005 31.240415999999996 4.68984 28.654224 6.819599999999999C28.502111999999997 6.971712 28.654224 7.428144 28.958495999999997 7.12392C31.088304 5.298336 35.652096 4.841952 38.238288 6.667488C39.60744 7.580255999999999 40.67232 9.405744 41.280816 10.774896C41.432928 10.927056 41.585088 11.079216 41.7372 10.927104C43.106352 10.47072 44.323392 11.991935999999999 44.779728 13.665312C44.931887999999994 14.121696 45.236064 13.969584 45.236064 13.665312Z" clip-rule="evenodd" stroke-width="1"></path><path fill="#000000" fill-rule="evenodd" d="M31.730687999999997 11.062416C31.578576 11.062416 31.578623999999998 11.214576000000001 31.578623999999998 11.366736C31.730735999999997 11.67096 31.882848 11.366736 33.556224 11.214576000000001C33.708384 11.214576000000001 38.88072 10.758192 38.88072 10.758192C40.706208 10.60608 40.858368 10.910352 40.858368 10.60608C41.162592 9.693312 35.533919999999995 9.845376 31.730687999999997 11.062416Z" clip-rule="evenodd" stroke-width="1"></path><path fill="#000000" fill-rule="evenodd" d="M28.654175999999996 10.317936C23.481887999999998 8.796624 19.07016 9.861503999999998 16.179744 12.143424C15.875519999999998 12.295536 16.179744 12.751968 16.484016 12.447696C19.526544 10.317936 25.155264 9.861503999999998 28.502015999999998 10.622112C28.806288 10.774272 28.958448 10.317936 28.654175999999996 10.317936Z" clip-rule="evenodd" stroke-width="1"></path><path fill="#000000" fill-rule="evenodd" d="M33.065856000000004 20.814671999999998C32.3052 22.335936 30.023328 23.248704 28.349952 23.552975999999997C28.045679999999997 23.552975999999997 28.045679999999997 24.00936 28.349952 24.00936C30.631872 24.00936 32.761632 23.248656 33.370128 21.118896C33.522287999999996 20.662512 33.217968 20.510399999999997 33.065856000000004 20.814671999999998Z" clip-rule="evenodd" stroke-width="1"></path><path fill="#000000" fill-rule="evenodd" d="M29.566848 23.400864000000002C28.501967999999998 24.922128 24.394560000000002 26.291279999999997 23.481792 26.139168C23.177519999999998 26.139168 23.177519999999998 26.595552 23.481792 26.595552C24.546671999999997 26.747664 27.284975999999997 26.139168 28.501967999999998 25.226399999999998C29.110463999999997 24.922176 30.327503999999998 23.553024 29.871119999999998 23.248752C29.719008 23.248752 29.566848 23.248752 29.566848 23.400864000000002Z" clip-rule="evenodd" stroke-width="1"></path><path fill="#000000" fill-rule="evenodd" d="M26.372256 23.097216C24.850944 22.945104 19.678656 20.815344 18.765887999999997 20.815344C18.461616 20.815344 18.461616 21.27168 18.765887999999997 21.27168C19.374384 21.423792 21.960528 22.792944 23.938176 23.40144C26.82864 24.162096 26.676479999999998 23.097216 26.372256 23.097216Z" clip-rule="evenodd" stroke-width="1"></path><path fill="#000000" fill-rule="evenodd" d="M46.453056 18.837552C46.148784 20.815247999999997 43.106255999999995 23.24928 42.041376 23.553504C40.976496 24.009888 43.562591999999995 25.226975999999997 44.475359999999995 29.182271999999998C44.475359999999995 29.486544 44.931792 29.334384 44.931792 29.030112C44.62752 27.204576 43.866912 25.531247999999998 42.801984 24.009936C44.323296 23.249328000000002 46.75728 20.96736 46.909392000000004 18.8376C46.909392000000004 18.685439999999996 46.453056 18.533328 46.453056 18.8376Z" clip-rule="evenodd" stroke-width="1"></path><path fill="#000000" fill-rule="evenodd" d="M40.672176 23.857488C38.846639999999994 23.705376 38.694576 23.705376 36.260543999999996 24.16176C35.956272 24.16176 35.956272 24.618143999999997 36.260543999999996 24.618143999999997C38.9988 24.618143999999997 38.694528 24.618143999999997 40.672176 24.313872C40.976400000000005 24.16176 40.976400000000005 23.705376 40.672176 23.857488Z" clip-rule="evenodd" stroke-width="1"></path><path fill="#000000" fill-rule="evenodd" d="M34.435104 23.553551999999996C37.17336 25.835472 36.716927999999996 25.226975999999997 37.173312 25.683359999999997C37.325472 25.987584 37.781904 25.683408 37.477632 25.379136C36.564864 24.009984 35.804208 23.5536 34.587168 23.097216C34.435055999999996 23.097216 34.130832 23.401488 34.435104 23.553551999999996Z" clip-rule="evenodd" stroke-width="1"></path><path fill="#000000" fill-rule="evenodd" d="M43.714800000000004 32.985072C45.236064 32.072352 46.453151999999996 30.55104 44.931887999999994 29.638272C44.01912 29.181888 42.802080000000004 29.486159999999998 41.889312000000004 29.790432C32.00107199999999 32.83296 27.741504 28.725456 21.656399999999998 28.725456C19.070207999999997 28.725456 15.571295999999998 29.790432 15.571295999999998 32.376576C15.571295999999998 35.11488 18.461712 35.114832 21.047856 34.96272C26.828736 34.81056 32.45745599999999 37.099584 38.238288 36.6432C40.67232 36.795311999999996 44.323344 35.419152 43.714800000000004 32.985072ZM43.258464 32.985072C43.106352 32.83296 43.258464 32.6808 43.258464 32.6808C44.475504 32.072304 45.692448 30.7032 44.627615999999996 30.094656C43.867008 29.790432 42.802080000000004 30.094656 42.041472 30.398927999999998C32.001024 33.593568 27.437231999999998 29.638272 21.656399999999998 29.638272C19.526591999999997 29.638272 16.484064 30.398880000000002 16.484064 32.528639999999996S19.070207999999997 34.506384 21.200015999999998 34.354223999999995C26.980847999999998 34.202112 32.457408 36.331872 38.238288 36.02764799999999C40.21593599999999 35.875488 43.867008 35.11488 43.258464 32.985072Z" clip-rule="evenodd" stroke-width="1"></path><path fill="#000000" fill-rule="evenodd" d="M18.765984 32.528688C25.155312 31.007423999999997 32.457408 35.875536000000004 42.95424 32.985072C43.106352 32.985072 43.106352 32.83296 43.106352 32.680848C42.95424 32.072352 42.041472 33.289344 36.412752 33.137232C28.958495999999997 32.985119999999995 24.546816 30.55104 18.613823999999997 32.072352C18.461712 32.224464 18.461712 32.680848 18.765984 32.528735999999995Z" clip-rule="evenodd" stroke-width="1"></path><path fill="#000000" fill-rule="evenodd" d="M12.528528 32.376528C11.920032 34.202064 12.680736 35.875488 14.201951999999999 36.483984C14.506224 36.636095999999995 14.658384 36.179711999999995 14.354111999999999 36.0276C13.289232 35.266944 12.680736 33.593568 12.832847999999998 32.376528C13.13712 32.072304 12.680687999999998 32.072304 12.528528 32.376528Z" clip-rule="evenodd" stroke-width="1"></path><path fill="#000000" fill-rule="evenodd" d="M6.4436160000000005 37.092624C2.640384 38.00539199999999 1.879776 40.439424 0.510624 43.634111999999995C0.358512 43.938336 0.814896 44.090544 0.9670080000000001 43.786272C2.48832 41.200128 3.4010399999999996 38.766096 6.595727999999999 37.549056C6.899952 37.396944000000005 6.74784 36.940512 6.4436160000000005 37.092624Z" clip-rule="evenodd" stroke-width="1"></path><path fill="#000000" fill-rule="evenodd" d="M32.761488 40.134767999999994C33.217872 40.438992 33.826367999999995 41.199647999999996 34.434912 41.656031999999996C34.739135999999995 41.960255999999994 36.564623999999995 43.329456 37.021007999999995 43.78584C37.173168000000004 43.937999999999995 37.629599999999996 43.63368 37.325328 43.481568C35.499792 41.199647999999996 34.739087999999995 40.591151999999994 33.065712 39.678384C32.76144 39.526224 32.457263999999995 39.982608 32.761488 40.134767999999994Z" clip-rule="evenodd" stroke-width="1"></path><path fill="#000000" fill-rule="evenodd" d="M12.985007999999999 38.613456C18.61368 40.743263999999996 23.786016 41.960304 29.719008 40.28688C30.023232 40.134767999999994 29.871119999999998 39.830496 29.566848 39.830496C24.698784 41.047535999999994 17.396736 39.526224 13.137167999999999 38.157072C12.832896 38.004960000000004 12.680784 38.461344 12.985007999999999 38.613456Z" clip-rule="evenodd" stroke-width="1"></path></svg>