<svg xmlns="http://www.w3.org/2000/svg" fill="none" viewBox="0 0 48 48" height="48" width="48" id="Salt-Bae-Hand-Drawn--Streamline-Memes.svg"><desc>Salt Bae Hand Drawn Streamline Element: https://streamlinehq.com</desc><path fill="#000000" fill-rule="evenodd" d="M25.158239999999996 1.5182399999999998c1.2456 -1.4016 2.4912 -0.77856 3.8927999999999994 0.46703999999999996 0 0 2.3356799999999995 2.18016 2.3356799999999995 2.3356799999999995 0.46703999999999996 0.77856 0.156 1.09008 0.62304 1.09008 0.46703999999999996 0 0.15552 -0.9340799999999999 -0.156 -1.4016 -0.31104 -0.46703999999999996 -2.0241599999999997 -2.3356799999999995 -2.3356799999999995 -2.64672C27.4944 -0.50592 25.7808 -0.3504 24.6912 1.2067199999999998c-0.15552 0.156 0.312 0.46752 0.46752 0.312Z" clip-rule="evenodd" stroke-width="1"></path><path fill="#000000" fill-rule="evenodd" d="M25.469759999999997 7.59168c1.2456 2.3356799999999995 3.8927999999999994 2.6471999999999998 5.2943999999999996 0.9340799999999999 0.15552 -0.15552 -0.156 -0.6225599999999999 -0.312 -0.31152 -1.40112 1.09008 -3.5808 0.312 -4.671359999999999 -0.9340799999999999 0 -0.156 -0.46703999999999996 0.15552 -0.31104 0.31152Z" clip-rule="evenodd" stroke-width="1"></path><path fill="#000000" fill-rule="evenodd" d="M32.165279999999996 11.17296c-1.0896 0 -2.95824 -0.77856 -3.4257599999999995 -2.0241599999999997 -0.15552 -0.312 -0.46703999999999996 -0.156 -0.46703999999999996 0.15552 0.31152 1.55712 1.8686399999999999 2.8032 3.8927999999999994 2.3356799999999995 0.312 0 0.312 -0.46703999999999996 0 -0.46703999999999996Z" clip-rule="evenodd" stroke-width="1"></path><path fill="#000000" fill-rule="evenodd" d="M31.54272 10.394400000000001c0.9340799999999999 0.46703999999999996 1.8681599999999998 -0.312 1.8681599999999998 -1.24608 0 -0.31152 -0.31104 -0.46703999999999996 -0.46703999999999996 -0.15552 -0.15552 0.46703999999999996 -1.0896 0.77856 -1.4016 0.9340799999999999 -0.15552 0 -0.31104 0.46752 0 0.46752Z" clip-rule="evenodd" stroke-width="1"></path><path fill="#000000" fill-rule="evenodd" d="M32.632799999999996 5.878559999999999c-0.156 -0.312 -0.62304 -0.156 -0.46752 0.15552 0.156 0.46703999999999996 0 1.2456 -0.15552 1.71312 -0.31152 0.6225599999999999 -0.46703999999999996 0.6225599999999999 -0.31152 0.77856 0.31152 0.46703999999999996 2.18016 -0.93456 0.93456 -2.6471999999999998Z" clip-rule="evenodd" stroke-width="1"></path><path fill="#000000" fill-rule="evenodd" d="M25.158239999999996 1.8297599999999998c-0.312 0.6225599999999999 -0.46703999999999996 0.77856 0.6225599999999999 1.4016 -0.15552 0.46703999999999996 -0.6225599999999999 0.77808 -0.31104 1.2456 0.15552 0.31104 0.31104 0.6225599999999999 0.6225599999999999 0.46703999999999996 0.156 0 0.156 -0.15552 0.156 -0.31152 0 -0.15552 -0.156 -0.46703999999999996 -0.156 -0.46703999999999996 0.156 -0.31152 0.46752 -0.77856 0.46752 -1.0896 0 -0.312 -0.62304 -0.46752 -0.77904 -0.62352 0.312 -0.46703999999999996 0.46752 -0.6225599999999999 0.312 -0.9340799999999999 -0.312 -0.46703999999999996 -3.8932800000000003 -0.62304 -5.4504 0.9340799999999999 -1.4016 1.4016 -2.3356799999999995 3.7372799999999997 -2.3356799999999995 5.4504 0 1.55712 0.31104 2.9587199999999996 0.6225599999999999 4.0488 0 0.31104 0.46752 0.15552 0.46752 0 -0.46752 -2.8032 -0.93456 -5.917439999999999 1.8686399999999999 -9.03168 0.77856 -0.93456 2.6471999999999998 -1.09008 3.8927999999999994 -1.09008Z" clip-rule="evenodd" stroke-width="1"></path><path fill="#000000" fill-rule="evenodd" d="M19.3968 11.639999999999999c1.2456 -1.55712 1.8681599999999998 -2.9587199999999996 2.1796800000000003 -4.51584 0.156 -0.156 0.46703999999999996 -0.31152 0.62304 -0.46703999999999996 0.77856 -0.62304 -0.156 -0.312 1.55712 0.6225599999999999 0.6225599999999999 0.312 2.3356799999999995 0.62304 2.18016 0 0 -0.15552 -0.156 -0.15552 -0.312 -0.15552 -0.6225599999999999 0.15552 -1.0896 -0.156 -1.5566399999999998 -0.46703999999999996 -1.24608 -0.62304 -1.09008 -1.24608 -1.55712 -1.4016 -0.312 0 -0.312 0.15552 -0.93456 0.62304 -0.62304 0.46703999999999996 -0.77856 0.31152 -0.9340799999999999 0.6225599999999999 -0.77856 3.7372799999999997 -2.18016 4.51584 -1.71312 4.82736 0.156 0.46703999999999996 0.31152 0.46703999999999996 0.46703999999999996 0.31152Z" clip-rule="evenodd" stroke-width="1"></path><path fill="#000000" fill-rule="evenodd" d="M23.37024 13.50576c-2.77824 -0.6312 -3.03072 1.89456 -1.13616 2.5257599999999996 1.2624 0.3792 2.52528 -1.0104 2.14656 -1.7678399999999999 0 -0.12624 -0.12624 -0.3792 -1.0104 -0.7579199999999999Z" clip-rule="evenodd" stroke-width="1"></path><path fill="#000000" fill-rule="evenodd" d="M23.37024 13.25328c-3.1569599999999998 -1.00992 -3.78816 2.4 -1.2624 3.15744 1.7678399999999999 0.50496 3.78816 -1.89456 1.7678399999999999 -2.90448 -0.25248 -0.12672 -0.50544 0.25248 -0.25248 0.37872 0.50496 0.3792 0.6312 0.6312 0.25248 1.1366399999999999 -1.1366399999999999 1.7678399999999999 -3.2832 -0.25248 -2.2732799999999997 -1.0104 0.3792 -0.3792 1.1366399999999999 -0.3792 1.6416 -0.25248 0.3792 0 0.50544 -0.3792 0.12672 -0.50544Z" clip-rule="evenodd" stroke-width="1"></path><path fill="#000000" fill-rule="evenodd" d="M26.40384 14.598239999999999c-0.77856 -0.77856 -1.55712 -0.6225599999999999 -2.18016 -0.15552 -0.31152 0.15552 0 0.62304 0.156 0.46703999999999996 0.31104 0 1.55712 0.156 1.71264 0.156 0.31152 0.15552 0.46703999999999996 -0.312 0.31152 -0.46752Z" clip-rule="evenodd" stroke-width="1"></path><path fill="#000000" fill-rule="evenodd" d="M28.800479999999997 14.2632c-2.904 -0.50496 -3.03072 1.89456 -1.2624 2.4 1.2624 0.37824 2.904 -1.01088 1.6416 -2.14704l-0.3792 -0.25296Z" clip-rule="evenodd" stroke-width="1"></path><path fill="#000000" fill-rule="evenodd" d="M28.92672 14.0112c-3.2832 -0.7579199999999999 -3.6624 2.39904 -1.38912 3.03072 1.6416 0.3792 3.5361599999999997 -1.38912 1.89456 -2.652 -0.25248 -0.25248 -0.50544 0.12624 -0.25248 0.3792 0.8836799999999999 0.8832 -0.50544 1.89408 -1.38912 1.51488 -1.38912 -0.37872 -1.2628799999999998 -2.0208 1.13616 -1.7678399999999999 0.12672 0 0.25296 -0.3792 0 -0.50496Z" clip-rule="evenodd" stroke-width="1"></path><path fill="#000000" fill-rule="evenodd" d="M24.223679999999998 16.000320000000002c-0.31152 0.6225599999999999 -0.31152 0.6225599999999999 -0.15552 1.55712 0 0.31152 0.46703999999999996 0.31152 0.46703999999999996 0 0.31152 -0.93456 0.31152 -0.77856 0.15552 -1.55712 0 -0.156 -0.46703999999999996 -0.156 -0.46703999999999996 0Z" clip-rule="evenodd" stroke-width="1"></path><path fill="#000000" fill-rule="evenodd" d="M23.133599999999998 17.40144c-0.31152 0.77856 0.77856 2.4912 2.0246399999999998 1.8686399999999999 0.6225599999999999 -0.31152 1.2456 -1.0896 1.0896 -1.71312 0 -0.31104 -0.46703999999999996 -0.31104 -0.46703999999999996 0 0 0.312 -0.46703999999999996 0.77856 -0.9340799999999999 0.93456 -0.31152 0.15552 -0.46703999999999996 0 -0.62304 -0.156 -0.31152 -0.15552 -0.77856 -0.6225599999999999 -0.6225599999999999 -0.9340799999999999 0 -0.15552 -0.46752 -0.31152 -0.46752 0Z" clip-rule="evenodd" stroke-width="1"></path><path fill="#000000" fill-rule="evenodd" d="M23.133599999999998 20.204159999999998c1.55712 0.156 0.156 0.156 3.1147199999999997 0.156 0.31104 0 0.31104 -0.46752 0 -0.46752 -1.4016 -0.31104 -1.8686399999999999 -0.46703999999999996 -3.1147199999999997 -0.15552 -0.46703999999999996 0 -0.31104 0.46703999999999996 0 0.46703999999999996Z" clip-rule="evenodd" stroke-width="1"></path><path fill="#000000" fill-rule="evenodd" d="M23.61216 18.533279999999998c-1.1366399999999999 0.16704 -1.2628799999999998 0.33408 -2.0208 0.5846399999999999 0 0 0.50544 0.08352 0.63168 0.08352 1.0104 0.08352 1.6416 -0.16704 2.0208 -0.16704l0.12576 0c-0.25248 -0.25056 -0.75744 -0.33408 -0.75744 -0.50112Z" clip-rule="evenodd" stroke-width="1"></path><path fill="#000000" d="M24.24336 19.28448c-3.2832 1.00224 -3.6624 -0.41759999999999997 -2.77824 -0.5846399999999999l2.4 -0.25008c0.37824 0.16704 0.75744 0.16704 0.75744 0.50064 0.12624 0.25056 -0.25248 0.33408 -0.3792 0.33408Z" stroke-width="1"></path><path fill="#000000" fill-rule="evenodd" d="M25.01232 19.06224c0.8836799999999999 0.25248 1.7678399999999999 0.50496 2.652 0.12624 -2.652 -0.3792 -1.2628799999999998 -0.8836799999999999 -2.652 -0.12624Z" clip-rule="evenodd" stroke-width="1"></path><path fill="#000000" fill-rule="evenodd" d="M25.39104 18.5568c-0.12624 0.12672 -0.3792 0.12672 -0.50496 0.25296 -0.25296 0.12624 -0.25296 0.50496 0 0.6312 1.00992 0.3792 1.7678399999999999 0.63168 2.904 0.25296 0.3792 -0.12672 0.3792 -0.7579199999999999 -0.12576 -0.7579199999999999 -1.89456 -0.25248 -2.2732799999999997 -0.8841600000000001 -2.2732799999999997 -0.3792Z" clip-rule="evenodd" stroke-width="1"></path><path fill="#000000" fill-rule="evenodd" d="M18.61776 12.41856c-0.15552 2.8032 0.156 5.2943999999999996 1.71312 7.63008 0.6225599999999999 0.93456 1.2456 2.18016 2.4912 2.4912 0.46752 0.156 0.62304 -0.15552 1.09008 -0.15552 0.156 0 0.46752 0.156 0.77856 0.156 1.71312 0.15552 4.0488 -3.11424 4.82736 -5.4504 0.156 -0.31104 -0.31152 -0.46703999999999996 -0.46703999999999996 -0.15552 -0.62304 1.8686399999999999 -2.0241599999999997 3.27024 -2.9587199999999996 4.0488 -1.4016 1.2456 -1.71264 0.46703999999999996 -2.3356799999999995 0.46703999999999996 -1.0896 0 -0.93456 0.77856 -2.8032 -2.0241599999999997 -1.4016 -2.18016 -2.0241599999999997 -4.67184 -2.0241599999999997 -7.16304 0.156 0 -0.15552 -0.156 -0.31152 0.15552Z" clip-rule="evenodd" stroke-width="1"></path><path fill="#000000" fill-rule="evenodd" d="M31.231199999999998 11.32896c0 0.15552 -0.77856 2.64672 -0.77856 2.80272 -0.156 0.62304 -0.46752 0.77856 -0.156 0.93456 0.31152 0.15552 0.93456 -0.93456 1.09008 -1.24608 0.46703999999999996 -0.9340799999999999 0.46703999999999996 -1.55712 0.31152 -2.4912 0 -0.156 -0.46703999999999996 -0.156 -0.46703999999999996 0Z" clip-rule="evenodd" stroke-width="1"></path><path fill="#000000" fill-rule="evenodd" d="M20.95392 12.41856c1.0896 0 3.5808 2.0246399999999998 3.7368 1.55712 0 -0.15552 0 -0.31104 -0.15552 -0.31104 -0.62304 -0.46752 -1.55712 -1.4016 -2.6471999999999998 -1.71312 -1.4016 -0.31152 -1.2456 0.46703999999999996 -0.93456 0.46703999999999996Z" clip-rule="evenodd" stroke-width="1"></path><path fill="#000000" fill-rule="evenodd" d="M26.40384 14.2872c3.4257599999999995 0.312 3.27024 -0.46703999999999996 3.7372799999999997 -0.15552 0.46703999999999996 0.46703999999999996 1.4016 -1.4016 -3.7372799999999997 -0.31152 -0.31152 0 -0.31152 0.46703999999999996 0 0.46703999999999996Z" clip-rule="evenodd" stroke-width="1"></path><path fill="#000000" fill-rule="evenodd" d="M18.77376 18.647519999999997c0 -0.15552 0.6225599999999999 -1.2456 0.6225599999999999 -1.4016 0.156 -0.31152 -0.31104 -0.46703999999999996 -0.46703999999999996 -0.15552 -0.31152 0.46703999999999996 -1.0896 1.0896 -1.0896 1.71264 0 0.312 0.6225599999999999 0.62304 0.9340799999999999 0.77856 2.0241599999999997 1.55712 2.4912 1.8686399999999999 2.6471999999999998 1.55712l0 -0.31104 -1.4016 -1.4016c-0.9340799999999999 -0.9340799999999999 -0.62304 -0.46703999999999996 -1.2456 -0.77856Z" clip-rule="evenodd" stroke-width="1"></path><path fill="#000000" fill-rule="evenodd" d="M23.133599999999998 22.3848c1.4016 1.2456 2.3356799999999995 1.71264 3.7372799999999997 2.8032 1.09008 0.77808 2.18016 1.71264 3.5817599999999996 2.0241599999999997 2.1796800000000003 0.46703999999999996 4.0483199999999995 -1.8686399999999999 3.58128 -3.8927999999999994 -0.62304 -2.64768 -3.11424 -3.7377599999999997 -4.51584 -5.76192 -0.15552 -0.31152 -0.62304 0 -0.31152 0.31152 1.4016 1.8686399999999999 3.5817599999999996 3.4257599999999995 4.0488 5.7614399999999995 0.31152 1.55712 -1.09008 3.11424 -2.6471999999999998 2.8032 -1.0896 -0.156 -2.18016 -1.09008 -3.27024 -1.7135999999999998 -1.0896 -0.77808 -2.60832 -1.6670399999999999 -3.6984 -2.6016 -0.312 -0.31104 -0.81744 0.1104 -0.50592 0.2664Z" clip-rule="evenodd" stroke-width="1"></path><path fill="#000000" fill-rule="evenodd" d="M22.82256 29.08032c1.8686399999999999 2.0241599999999997 4.35984 5.60592 8.0976 7.31856 1.2451199999999998 0.46703999999999996 3.11376 1.24608 3.7368 0.156 0.15552 -0.312 -0.15552 -0.46752 -0.31152 -0.312 -0.77856 1.24608 -4.82736 -1.71264 -6.54 -3.11376 -1.2456 -1.09008 -2.9587199999999996 -2.8032 -4.671359999999999 -4.51584 -0.156 0 -0.62304 0.31152 -0.312 0.46703999999999996Z" clip-rule="evenodd" stroke-width="1"></path><path fill="#000000" fill-rule="evenodd" d="M28.73952 31.104c1.4016 1.0905599999999998 2.4912 1.5576 4.82736 2.0246399999999998 0.31152 0 0.46703999999999996 -0.31152 0.15552 -0.46703999999999996 -0.6225599999999999 -0.31152 0.93456 0.46703999999999996 -4.826879999999999 -2.0241599999999997 -0.156 -0.156 -0.312 0.31104 -0.156 0.46703999999999996Z" clip-rule="evenodd" stroke-width="1"></path><path fill="#000000" fill-rule="evenodd" d="M31.3872 19.11456c1.5566399999999998 1.71264 2.64672 2.6471999999999998 3.26976 3.26976 0.15552 0.312 0.6225599999999999 0 0.31152 -0.31104 -1.09008 -1.8686399999999999 -2.18016 -2.4916799999999997 -3.27024 -3.4257599999999995 -0.31152 0 -0.62304 0.31104 -0.31152 0.46703999999999996Z" clip-rule="evenodd" stroke-width="1"></path><path fill="#000000" fill-rule="evenodd" d="M29.985599999999998 17.246399999999998c0.31104 0.15552 0.6225599999999999 0.31104 1.0896 0.46703999999999996 0.312 0 0.62304 -0.156 0.93456 -0.156 2.9587199999999996 -0.15552 5.60592 2.0246399999999998 4.51584 7.63008 -0.156 0.77904 0.31152 1.24608 0.46703999999999996 1.8686399999999999 -0.31152 0.312 -0.46703999999999996 0.46752 -0.31152 0.62304 0.46703999999999996 3.4257599999999995 -0.77856 4.0488 -0.6225599999999999 4.51584 0.9340799999999999 1.8686399999999999 0.6225599999999999 3.7372799999999997 0.9340799999999999 5.7614399999999995 0.15552 1.55712 0.77856 3.5817599999999996 0.93456 5.44992 0.15552 3.1147199999999997 -1.24608 3.27024 -0.77904 3.5817599999999996 0.156 0.156 0.312 0 0.312 0 2.1796800000000003 -2.3356799999999995 0.46656 -6.384 0.31104 -9.1872 -0.15552 -2.0246399999999998 0.156 -3.8927999999999994 -0.77856 -5.917439999999999 0.77856 -1.2456 0.77856 -2.8032 0.62304 -4.35984l0.31104 -0.46752c0.312 -0.31152 -0.31104 -0.9340799999999999 -0.46703999999999996 -1.55712 -0.15552 -0.46703999999999996 0.77856 -3.4257599999999995 -0.46703999999999996 -5.917439999999999 -0.9340799999999999 -2.0241599999999997 -3.11424 -3.26976 -5.7614399999999995 -2.64672 -0.31152 0 -0.62304 -0.312 -1.09008 -0.312 -0.31152 0.156 -0.46703999999999996 0.62304 -0.156 0.62304Z" clip-rule="evenodd" stroke-width="1"></path><path fill="#000000" fill-rule="evenodd" d="M37.926719999999996 28.30128c3.8927999999999994 6.696 0.62304 8.564639999999999 2.9587199999999996 14.7936 0 0.15552 0.156 0.15552 0.31152 0.15552 0.31152 -0.156 0 -0.312 -0.31152 -1.8686399999999999 -0.9340799999999999 -5.1388799999999994 1.71312 -6.54048 -2.4912 -13.235999999999999 -0.312 -0.312 -0.62304 -0.156 -0.46752 0.15552Z" clip-rule="evenodd" stroke-width="1"></path><path fill="#000000" fill-rule="evenodd" d="M37.89312 45.708479999999994c0.12624 -0.50544 0.25296 -1.0104 0.25296 -1.5158399999999999 1.00992 -0.25248 2.02032 -0.50496 3.03072 -0.8836799999999999 0.12624 0.3792 0.25248 0.75744 0.25248 1.1366399999999999 -2.0208 1.00992 -3.2832 1.1366399999999999 -3.5361599999999997 1.2624Z" clip-rule="evenodd" stroke-width="1"></path><path fill="#000000" fill-rule="evenodd" d="M38.145599999999995 45.83424c1.1366399999999999 -0.12624 2.5257599999999996 -0.50496 3.5361599999999997 -1.00992 0.3792 -0.12624 0.25248 -0.63168 0.12624 -1.0104 -0.25248 -1.2628799999999998 -0.50496 -0.8841600000000001 -1.6416 -0.50496 -3.1569599999999998 1.00992 -2.0208 0.12624 -2.39952 2.39904 -0.12624 0.12624 0.12624 0.3792 0.3792 0.12624Zm0.12672 -0.50496c0.8836799999999999 -0.25248 1.89408 -0.63168 2.652 -1.1366399999999999 0 -0.12624 -0.12624 -0.25248 -0.12624 -0.3792 -2.9049599999999995 1.1371200000000001 -2.14704 0 -2.5257599999999996 1.5158399999999999Z" clip-rule="evenodd" stroke-width="1"></path><path fill="#000000" fill-rule="evenodd" d="M42.13104 44.80799999999999c-0.46703999999999996 -0.15552 -0.46703999999999996 -0.6225599999999999 -0.6225599999999999 -0.46703999999999996 -0.46703999999999996 0.15552 0.15552 1.09008 0.6225599999999999 1.09008 1.4016 0.31152 1.09008 -2.9587199999999996 -0.15552 -3.11424 -0.46703999999999996 0 -1.0896 0.46703999999999996 -0.77856 0.6225599999999999 0.15552 0.312 0.31152 -0.15552 0.62304 0 0 0 0.46703999999999996 1.55712 0.31104 1.8686399999999999Z" clip-rule="evenodd" stroke-width="1"></path><path fill="#000000" fill-rule="evenodd" d="M43.844159999999995 47.143679999999996c-0.46703999999999996 -0.62304 -0.6225599999999999 -1.24608 -2.0241599999999997 -2.6471999999999998 -0.156 -0.312 -0.62304 0 -0.31152 0.31152 0.62304 0.9340799999999999 0.77856 1.8686399999999999 2.0241599999999997 2.6471999999999998 0.312 0.15552 0.62304 -0.156 0.312 -0.312Z" clip-rule="evenodd" stroke-width="1"></path><path fill="#000000" fill-rule="evenodd" d="M10.2096 15.84432c-0.312 1.8686399999999999 0.6225599999999999 3.27024 0.46656 5.1384 -0.46703999999999996 4.0488 -2.8032 8.40912 -1.2456 12.45744 1.55712 4.36032 6.22848 7.16304 9.03168 2.6471999999999998 1.4016 -2.1796800000000003 1.55712 -5.7614399999999995 0.9340799999999999 -8.25312 -0.77856 -3.11424 -2.8032 -6.07248 -3.4257599999999995 -9.1872 -0.31104 -1.8686399999999999 0.46752 -3.7372799999999997 0.62304 -5.7614399999999995 0 -0.31152 -0.46703999999999996 -0.31152 -0.46703999999999996 0 0 1.8686399999999999 -0.93456 3.8927999999999994 -0.62304 5.7614399999999995 0.77856 4.98288 4.82736 8.40912 3.11424 15.10464 -0.31152 1.4016 -1.0896 2.4912 -1.8686399999999999 3.11424 -2.3356799999999995 2.0246399999999998 -5.44992 -0.9340799999999999 -6.54 -3.7368 -1.4016 -3.7372799999999997 0.62304 -8.25312 1.0896 -12.1464 0.156 -1.8681599999999998 -0.77808 -3.4257599999999995 -0.6225599999999999 -5.1384 0 -0.31152 -0.46703999999999996 -0.31152 -0.46703999999999996 0Z" clip-rule="evenodd" stroke-width="1"></path><path fill="#000000" fill-rule="evenodd" d="M14.02368 9.979199999999999c0 0.156 -0.19776 0.62304 -0.19776 0.77904 -1.24608 0.46703999999999996 -2.18016 1.4016 -1.8686399999999999 2.6471999999999998 0.15552 0.31152 0.46703999999999996 0.15552 0.46703999999999996 -0.156 -0.31152 -0.9340799999999999 0.62304 -1.71264 1.71264 -2.0241599999999997 0.156 0 0.312 -0.15552 0.312 -0.46703999999999996 0 -0.46703999999999996 0.15552 -0.31152 0.31104 -0.77856 0.31152 -0.46752 -0.15552 -1.2456 -0.31152 -1.8686399999999999 -0.15552 -0.93456 0.62304 -1.4016 0.93456 -1.09008 0.15552 0.15552 0 1.8686399999999999 0 2.3356799999999995 0.15552 0.77856 0.6225599999999999 1.71312 0.77856 2.4912 0.31152 0.93456 0 1.24608 0.31152 1.24608 0.46703999999999996 0 0.15552 -0.9340799999999999 0.15552 -1.4016 -0.31152 -1.71264 -0.77856 -1.71264 -0.62304 -3.4257599999999995 0 -0.6225599999999999 0.156 -1.4016 -0.31104 -1.8686399999999999 -0.93456 -0.9340799999999999 -1.7385599999999999 -0.11903999999999999 -2.0496 0.97104 0 1.98768 0.8035199999999999 1.692 0.3792 2.61072Z" clip-rule="evenodd" stroke-width="1"></path><path fill="#000000" fill-rule="evenodd" d="M10.98768 12.26256c0.156 -0.31104 0.93456 -0.6225599999999999 1.4016 -0.77856 0.77856 -0.15552 0.9340799999999999 0 0.9340799999999999 -0.31104 0.156 -0.312 -0.9340799999999999 -0.46752 -1.2456 -0.46752 -1.0896 0.156 -1.71312 1.4016 -1.4016 1.55712 0.156 0.156 0.312 0.156 0.312 0Z" clip-rule="evenodd" stroke-width="1"></path><path fill="#000000" fill-rule="evenodd" d="M9.8976 9.30384c0.46703999999999996 -0.15552 2.8032 -0.15552 3.8927999999999994 0 0.312 0 0.46752 -0.31104 0.156 -0.46703999999999996 -2.0246399999999998 -0.77856 -2.9587199999999996 -0.6225599999999999 -4.2048 0 -0.15552 0.156 0 0.62304 0.156 0.46703999999999996Z" clip-rule="evenodd" stroke-width="1"></path><path fill="#000000" fill-rule="evenodd" d="M15.03648 6.50112c0.62304 -3.26976 -3.27024 -3.11424 -2.6471999999999998 2.3356799999999995 0 0.156 0.156 0.156 0.31152 0.156 0.46703999999999996 0 0.03744 -2.65824 1.43904 -3.74832 0.47519999999999996 0 0.4296 0.61776 0.4296 1.1011199999999999 0 0.31152 0.46703999999999996 0.46703999999999996 0.46703999999999996 0.15552Z" clip-rule="evenodd" stroke-width="1"></path><path fill="#000000" fill-rule="evenodd" d="M10.98768 8.68128c-0.31104 -2.4912 0.93456 -5.1388799999999994 1.24608 -4.98288 0.46703999999999996 0.31152 0.15552 1.71264 0.15552 3.7372799999999997 0 0.31152 0.46703999999999996 0.31152 0.46703999999999996 0 0.156 -2.0246399999999998 0.77856 -3.5817599999999996 -0.15552 -4.36032 -1.55712 -1.2456 -2.8032 2.6471999999999998 -2.18016 5.60592 0 0.31152 0.46703999999999996 0.31152 0.46703999999999996 0Z" clip-rule="evenodd" stroke-width="1"></path><path fill="#000000" fill-rule="evenodd" d="M10.67616 15.84384c-1.71264 -5.2943999999999996 -4.20432 -6.384 -5.2943999999999996 -7.9416 -0.31104 -0.46703999999999996 -0.6225599999999999 -1.4016 0.156 -0.9340799999999999 0.15552 0.15552 1.2456 1.55712 3.26976 2.4912l0.46752 0c0.31104 -0.31104 -0.156 -0.6225599999999999 -0.312 -2.6471999999999998 -0.31104 -2.6471999999999998 0.46752 -4.35984 0.77904 -2.4912 0 0.15552 0.31152 4.98288 1.0896 4.671359999999999 0.312 -0.15552 0.1704 -0.41759999999999997 -0.14064 -1.50768 -0.312 -1.4016 -0.16272 -2.5176 -0.31824 -3.29616 -0.156 -0.77904 -0.78672 -1.42464 -1.5647999999999997 -1.1136 -1.24608 0.46752 -0.93456 3.8927999999999994 -0.62304 5.4504 -1.8686399999999999 -1.2456 -2.0241599999999997 -2.3356799999999995 -3.27024 -2.3356799999999995 -1.0896 0 -1.0896 1.4016 -0.46703999999999996 2.3356799999999995 0.9340799999999999 1.4016 3.8927999999999994 3.11424 5.44992 7.63008 0.46752 0.156 0.77856 0 0.77856 -0.31152Z" clip-rule="evenodd" stroke-width="1"></path><path fill="#000000" fill-rule="evenodd" d="M16.231199999999998 20.091359999999998c1.09008 -1.2456 1.4524799999999998 -1.75536 2.69808 -1.91088 0.31152 0 0.31152 -0.46752 0 -0.46752 -1.8686399999999999 -0.15552 -2.3865600000000002 0.6652799999999999 -3.0096 2.2224 -0.15552 0.156 0.156 0.312 0.312 0.156Z" clip-rule="evenodd" stroke-width="1"></path><path fill="#000000" fill-rule="evenodd" d="M15.503999999999998 37.956c1.0896 2.4912 2.64672 7.0075199999999995 2.95824 9.810239999999999 0 0.31152 0.46703999999999996 0.31152 0.46703999999999996 0 -0.46703999999999996 -4.9824 -1.2456 -6.696 -3.11424 -9.96576 -0.15552 -0.31152 -0.46703999999999996 -0.156 -0.31152 0.15552Z" clip-rule="evenodd" stroke-width="1"></path><path fill="#000000" fill-rule="evenodd" d="M9.11904 36.24336c-0.31104 0.156 -0.6225599999999999 0.77856 -0.46703999999999996 1.24608 0.312 1.0896 2.0246399999999998 0.15552 1.71312 -0.93456 -0.312 -0.77856 -1.24608 -0.6225599999999999 -1.24608 -0.31152Zm0.312 0.312c-0.312 0.6225599999999999 0 0.77808 -0.156 0.6225599999999999 0.46703999999999996 -0.156 0.46703999999999996 -0.46703999999999996 0.15552 -0.62304Z" clip-rule="evenodd" stroke-width="1"></path><path fill="#000000" fill-rule="evenodd" d="M11.76624 41.22671999999999c-0.15552 -0.156 -0.31152 0 -0.46703999999999996 0.31152 -0.62304 0.77856 0 1.4016 0.77856 1.0896 0.9340799999999999 -0.46703999999999996 0.77856 -1.4016 -0.31152 -1.4016Zm0 0.6225599999999999c0.156 0.156 0 0.156 0 0Zm0.15552 -0.15552c0.156 0.15552 0 0.15552 0 0Zm-0.15552 0.15552c0 -0.15552 0 -0.15552 0 0Zm0 -0.15552c0.156 0 0.156 0 0 0Z" clip-rule="evenodd" stroke-width="1"></path><path fill="#000000" fill-rule="evenodd" d="M20.01936 35.15376c-1.2456 1.2456 0.31152 2.3356799999999995 1.2456 1.55712 0.77856 -0.77856 -0.15552 -2.0246399999999998 -0.9340799999999999 -1.8686399999999999 -0.156 0 -0.31152 0.15552 -0.31152 0.31152Zm0.46703999999999996 0.15552c-0.15552 0.156 -0.31104 0.46703999999999996 -0.15552 0.62304h0.15552c0.46752 0.15552 0.46752 -0.46703999999999996 0 -0.62304Z" clip-rule="evenodd" stroke-width="1"></path><path fill="#000000" fill-rule="evenodd" d="M14.41344 28.30176c-1.2456 0.77856 -0.6225599999999999 2.3356799999999995 0.312 2.3356799999999995 1.71264 -0.156 1.0896 -2.18016 0 -2.6471999999999998 -0.312 -0.31152 -0.46752 0.15552 -0.312 0.31152Zm0.46752 0.31104c-0.46752 0.46752 -0.312 1.09008 -0.156 1.09008 0.312 0 0.46752 0 0.312 -0.46703999999999996 0 -0.15552 -0.156 -0.46703999999999996 -0.156 -0.62304Z" clip-rule="evenodd" stroke-width="1"></path><path fill="#000000" fill-rule="evenodd" d="M13.47936 14.59872c-0.31152 0.31152 -0.46703999999999996 0.31152 -0.31152 1.0896 -0.15552 0.312 0.31152 0.46752 0.46703999999999996 0.156 0.312 -0.46703999999999996 0.46752 -0.46703999999999996 0.312 -1.0896 0.15504 -0.312 -0.312 -0.46752 -0.46752 -0.156Z" clip-rule="evenodd" stroke-width="1"></path><path fill="#000000" fill-rule="evenodd" d="M14.25792 19.58112c-0.15552 0.46752 -0.15552 0.46752 0.31152 0.93456 0.15552 0.31152 0.46703999999999996 0.15552 0.46703999999999996 -0.156 0 -0.46703999999999996 0.156 -0.6225599999999999 -0.31152 -0.9340799999999999 -0.15552 -0.156 -0.6225599999999999 -0.156 -0.46703999999999996 0.15552Z" clip-rule="evenodd" stroke-width="1"></path><path fill="#000000" fill-rule="evenodd" d="M12.5448 24.408479999999997c-0.46703999999999996 0.312 -0.31152 0.46752 -0.31152 0.93456 -0.15552 0.31104 0.312 0.46703999999999996 0.46752 0.15552 0.46703999999999996 -0.46703999999999996 0.31104 -0.6225599999999999 0.31104 -0.9340799999999999 0.156 -0.312 -0.31104 -0.46752 -0.46703999999999996 -0.156Z" clip-rule="evenodd" stroke-width="1"></path><path fill="#000000" fill-rule="evenodd" d="M16.28208 26.1216c0 0.77856 0 0.6225599999999999 0.62304 1.4016 0.15552 0.31104 0.46703999999999996 0.15552 0.46703999999999996 -0.156 0 -0.77856 0 -0.9340799999999999 -0.62304 -1.4016 -0.31104 -0.31104 -0.6225599999999999 -0.15552 -0.46703999999999996 0.156Z" clip-rule="evenodd" stroke-width="1"></path><path fill="#000000" fill-rule="evenodd" d="M11.76624 31.88304c-0.31104 0.46703999999999996 -0.46703999999999996 0.46703999999999996 -0.31104 1.55712 0 0.31152 0.46703999999999996 0.31152 0.46703999999999996 0.15552 0.31152 -0.6225599999999999 0.46703999999999996 -0.6225599999999999 0.31152 -1.55712 0 -0.46703999999999996 -0.46752 -0.46703999999999996 -0.46752 -0.15552Z" clip-rule="evenodd" stroke-width="1"></path><path fill="#000000" fill-rule="evenodd" d="M18.15072 39.04655999999999c0.156 0.77856 0.156 0.77856 0.77856 1.2456 0.156 0.31152 0.62304 0 0.46752 -0.15552 -0.156 -0.93456 -0.312 -0.93456 -0.77856 -1.24608 -0.312 -0.31104 -0.62304 0 -0.46752 0.156Z" clip-rule="evenodd" stroke-width="1"></path><path fill="#000000" fill-rule="evenodd" d="M29.6736 15.6888c0.156 0.31152 0.156 0.31152 0.77904 0.156 0.31104 0 0.46703999999999996 -0.312 0.15552 -0.46752 -0.31152 -0.31152 -0.31152 -0.31152 -0.77856 -0.15552 -0.31152 0 -0.46703999999999996 0.31152 -0.156 0.46703999999999996Z" clip-rule="evenodd" stroke-width="1"></path><path fill="#000000" fill-rule="evenodd" d="M20.95392 13.975679999999999c-0.62304 -0.312 -0.46752 -0.156 -0.46752 -0.62304 0 -0.62304 -0.15552 -1.4016 -0.6225599999999999 -2.18016 -0.156 -0.31104 -0.46752 -0.15552 -0.46752 0.156 0.156 1.0896 0.156 2.95824 0.62304 3.11424 0.93456 0.15552 1.09008 0.15552 1.09008 -0.15552 0 -0.156 0 -0.312 -0.156 -0.312Z" clip-rule="evenodd" stroke-width="1"></path><path fill="#000000" fill-rule="evenodd" d="M18.77376 10.08288c-0.93456 -0.312 -2.0246399999999998 1.55712 -1.09008 3.7368 0.46703999999999996 0.93456 1.2456 1.4016 1.4016 1.09008 0 -0.15552 0 -0.31152 -0.156 -0.31152 -1.0896 -0.46703999999999996 -1.0896 -4.0483199999999995 -0.31152 -4.0483199999999995 0.312 0.15552 0.46752 -0.31152 0.156 -0.46703999999999996Z" clip-rule="evenodd" stroke-width="1"></path></svg>