<svg xmlns="http://www.w3.org/2000/svg" fill="none" viewBox="0 0 48 48" height="48" width="48" id="Salt-Bae--Streamline-Memes.svg"><desc>Salt Bae Streamline Element: https://streamlinehq.com</desc><path stroke="#000000" stroke-linecap="round" stroke-linejoin="round" d="M32.531 14.656c0.331 -0.896 0.442 -1.166 0.623 -1.824 -0.77 -4.898 -7.61 -2.987 -9.71 -7.167 -0.73 0.332 -0.723 3.703 -2.697 5.027a10.994 10.994 0 0 0 -0.256 2.14c-0.056 3.058 1.05 8.839 5.053 9.675 2.538 0.53 4.355 -1.767 5.722 -4.663" stroke-width="1"></path><path stroke="#000000" stroke-linecap="round" stroke-linejoin="round" d="M20.72 10.83c-0.656 -1.88 0.558 -8.152 2.264 -9.048 1.706 -0.896 3.062 -0.219 3.15 0 0.196 -0.477 1.587 -0.991 2.69 -0.895 1.377 0.119 10.04 3.894 4.332 11.957" stroke-width="1"></path><path stroke="#000000" stroke-linecap="round" stroke-linejoin="round" d="M20.672 10.688c-1.378 -0.867 -2.478 -0.036 -1.92 1.875 0.446 1.529 1.428 2.304 1.92 2.812" stroke-width="1"></path><path fill="#000000" fill-rule="evenodd" d="M32.817 15.213c-0.143 -0.544 -0.559 -0.876 -0.995 -1.067 -0.435 -0.189 -0.948 -0.268 -1.428 -0.284a5.842 5.842 0 0 0 -1.37 0.115 3.2 3.2 0 0 0 -0.551 0.165c-0.146 0.06 -0.333 0.156 -0.462 0.313 -0.644 0.781 -0.453 2.488 1.33 3.283 0.943 0.42 1.92 0.249 2.606 -0.25 0.683 -0.497 1.113 -1.352 0.87 -2.275Z" clip-rule="evenodd" stroke-width="1"></path><path fill="#000000" fill-rule="evenodd" d="M22.071 13.776c0.268 -0.501 0.752 -0.744 1.225 -0.844 0.47 -0.1 0.99 -0.075 1.463 0.003 0.478 0.08 0.942 0.22 1.313 0.383 0.185 0.08 0.357 0.171 0.5 0.269 0.128 0.088 0.288 0.218 0.377 0.397 0.44 0.885 -0.145 2.512 -2.078 2.938 -1.023 0.225 -1.937 -0.136 -2.49 -0.758 -0.549 -0.62 -0.764 -1.537 -0.31 -2.388Z" clip-rule="evenodd" stroke-width="1"></path><path stroke="#000000" stroke-linecap="round" stroke-linejoin="round" d="M26.576 14.531c0.676 -0.126 1.033 -0.088 1.608 0.24" stroke-width="1"></path><path stroke="#000000" stroke-linecap="round" stroke-linejoin="round" d="M29.102 19.103c-1.92 -0.338 -2.82 -0.356 -5.282 -0.132 0.756 -0.218 2.101 -0.525 2.888 -0.525 0.787 0 1.924 0.438 2.394 0.657Z" stroke-width="1"></path><path stroke="#000000" stroke-linecap="round" stroke-linejoin="round" d="m24.031 21.906 1.65 1.584 2.072 -1.285" stroke-width="1"></path><path stroke="#000000" stroke-linecap="round" stroke-linejoin="round" d="M16.488 15.52c0.525 -1.474 1.26 -4.396 0 -6.212 0 0 0.525 -2.15 0 -2.509 -0.525 -0.358 -2.296 0.717 -2.034 2.867" stroke-width="1"></path><path stroke="#000000" stroke-linecap="round" stroke-linejoin="round" d="M15.504 7.031c0.35 -0.577 0.722 -1.277 0 -1.784 -0.722 -0.508 -1.864 -0.06 -2.493 1.612m-2.133 1.553c-0.284 -1.533 -1.214 -4.599 -2.395 -4.599 -1.18 0 -1.246 1.434 0.394 5.017 -1.51 -0.717 -2.887 -2.508 -3.871 -1.97 -0.957 0.522 -0.722 1.97 5.511 8.241 0.328 1.732 -1.246 10.333 -0.853 15.827 0.394 5.495 4.2 6.51 7.02 5.794 2.822 -0.717 4.594 -3.046 3.872 -7.227 -0.722 -4.18 -4.954 -10.094 -4.1 -13.856" stroke-width="1"></path><path stroke="#000000" stroke-linecap="round" stroke-linejoin="round" d="M8.483 9.487c1.073 -0.483 1.143 -0.493 2.56 -0.448" stroke-width="1"></path><path stroke="#000000" stroke-linecap="round" stroke-linejoin="round" d="M12.715 8.203c0.23 -1.553 1.247 -4.33 -0.23 -4.57 -1.476 -0.239 -1.607 2.32 -1.804 3.375" stroke-width="1"></path><path stroke="#000000" stroke-linecap="round" stroke-linejoin="round" d="M12.945 15.698h0.984" stroke-width="1"></path><path stroke="#000000" stroke-linecap="round" stroke-linejoin="round" d="M16.844 19.547c0.525 -0.239 3.797 -1.28 4.125 -2.594" stroke-width="1"></path><path stroke="#000000" stroke-linecap="round" stroke-linejoin="round" d="M27.38 24.807c0.197 0.06 5.675 4.001 7.742 1.463 2.067 -2.538 -3.063 -7.309 -3.981 -8.145" stroke-width="1"></path><path stroke="#000000" stroke-linecap="round" stroke-linejoin="round" d="M32.297 17.14c1.914 -0.052 5.384 0.356 6.303 2.568 1.148 2.764 0.393 11.12 0.197 12.9 -0.197 1.78 2.559 9.819 1.18 14.267" stroke-width="1"></path><path stroke="#000000" stroke-linecap="round" stroke-linejoin="round" d="m14.916 40.198 -0.21 0.752" stroke-width="1"></path><path stroke="#000000" stroke-linecap="round" stroke-linejoin="round" d="m13.27 32.32 0.125 0.767" stroke-width="1"></path><path stroke="#000000" stroke-linecap="round" stroke-linejoin="round" d="m14.374 27.137 0.316 0.72" stroke-width="1"></path><path stroke="#000000" stroke-linecap="round" stroke-linejoin="round" d="m21.026 38.732 0.373 0.698" stroke-width="1"></path><path stroke="#000000" stroke-linecap="round" stroke-linejoin="round" d="m10.308 39.43 0.373 0.698" stroke-width="1"></path><path stroke="#000000" stroke-linecap="round" stroke-linejoin="round" d="m22.696 34.222 0.181 0.759" stroke-width="1"></path><path stroke="#000000" stroke-linecap="round" stroke-linejoin="round" d="m17.225 31.39 -0.116 0.769" stroke-width="1"></path><path stroke="#000000" stroke-linecap="round" stroke-linejoin="round" d="M17.538 38.991c0.481 1.454 1.877 6.26 1.771 7.884" stroke-width="1"></path><path stroke="#000000" stroke-linecap="round" stroke-linejoin="round" d="m12.08 43.84 -0.209 0.753" stroke-width="1"></path><path stroke="#000000" stroke-linecap="round" stroke-linejoin="round" d="M39.25 23.563c6.168 10.93 4.163 21.298 1.08 20.701" stroke-width="1"></path><path stroke="#000000" stroke-linecap="round" stroke-linejoin="round" d="M25.674 20.775h0.787" stroke-width="1"></path><path stroke="#000000" stroke-linecap="round" d="m22.644 14.27 -1.927 -3.542" stroke-width="1"></path></svg>