<svg xmlns="http://www.w3.org/2000/svg" fill="none" viewBox="0 0 48 48" height="48" width="48" id="Side-Eyeing-Cloe-Hand-Drawn--Streamline-Memes.svg"><desc>Side Eyeing Cloe Hand Drawn Streamline Element: https://streamlinehq.com</desc><path fill="#000000" fill-rule="evenodd" d="M30.809903999999996 10.62192c1.927824 2.0885279999999997 1.7672160000000001 4.980288 1.927824 7.872047999999999 0.160656 4.819632 2.08848 9.639312 -2.8917599999999997 14.780256 -2.570496 2.570448 -6.747503999999999 1.927824 -10.121232 0.803232 -1.606512 -0.48196799999999995 -3.052416 -0.9638880000000001 -3.855696 -2.409792 -0.160656 -0.321312 -0.642624 0 -0.48196799999999995 0.160656 0.80328 1.60656 2.409792 2.08848 4.0163519999999995 2.7311039999999998 3.69504 1.285248 8.193408 1.927824 10.924512 -0.80328 5.462256 -5.3016 3.213072 -10.924463999999999 3.052416 -15.422784 -0.160656 -3.052416 -0.160656 -5.783519999999999 -2.2491359999999996 -8.032703999999999 -0.160656 -0.160656 -0.48196799999999995 0.160608 -0.321312 0.321264Z" clip-rule="evenodd" stroke-width="1"></path><path fill="#000000" fill-rule="evenodd" d="M28.239503999999997 19.618944c-1.285248 1.285248 -1.124592 2.731152 0 4.337712 0.160656 0.321312 0.642624 -0.000048 0.48196799999999995 -0.16070399999999999 -0.642624 -1.445856 -0.48196799999999995 -3.052416 0 -3.855696 0.160656 -0.321264 -0.160656 -0.642624 -0.48196799999999995 -0.321312Z" clip-rule="evenodd" stroke-width="1"></path><path fill="#000000" fill-rule="evenodd" d="M25.829616 24.920352c-1.124592 -0.160656 -1.7671679999999999 0.9638880000000001 -1.2852000000000001 1.606512 0.160656 0.321312 0.6425759999999999 0.16070399999999999 0.48191999999999996 -0.160608 0 -0.321312 0.642624 -0.9639359999999999 0.80328 -0.9639359999999999 0.321312 0 0.321312 -0.48196799999999995 0 -0.48196799999999995Z" clip-rule="evenodd" stroke-width="1"></path><path fill="#000000" fill-rule="evenodd" d="M26.150927999999997 26.687856c0.642624 0.321312 0.80328 0.160656 1.124592 -0.160656 0.321312 0 0.160656 -0.48191999999999996 -0.160656 -0.48191999999999996 -0.9639359999999999 -0.160656 -0.642672 0 -1.124592 0.160656 -0.160656 0 -0.160656 0.48191999999999996 0.160656 0.48191999999999996Z" clip-rule="evenodd" stroke-width="1"></path><path fill="#000000" fill-rule="evenodd" d="M28.882175999999998 24.759743999999998c0.160656 0.160656 0.160608 0.6425759999999999 0.321264 0.9638880000000001 0.160656 0.321312 0.160656 0.642624 -0.160656 0.9639359999999999 -0.321312 0.160656 0 0.642624 0.160656 0.48196799999999995 1.124592 -0.321264 1.285248 -1.606512 0 -2.570448 -0.160656 -0.321312 -0.48191999999999996 0 -0.321264 0.160656Z" clip-rule="evenodd" stroke-width="1"></path><path fill="#000000" fill-rule="evenodd" d="M19.564224 22.189344c0.48196799999999995 -0.642624 3.21312 -1.9278719999999998 4.177008 -0.321312 0.160656 0.321312 0.642624 0 0.48196799999999995 -0.160656 -0.80328 -1.7672160000000001 -3.373728 -1.445904 -4.819632 -0.48196799999999995 -1.7672160000000001 1.124592 -0.160608 3.052416 3.695088 1.60656 0.321312 -0.160656 0.160608 -0.48196799999999995 -0.16070399999999999 -0.48196799999999995 -1.927824 0.48196799999999995 -3.69504 0 -3.373728 -0.160656Z" clip-rule="evenodd" stroke-width="1"></path><path fill="#000000" fill-rule="evenodd" d="M20.849328 22.992672c1.124592 0.48196799999999995 2.2491359999999996 -1.445904 0.9638880000000001 -2.0885279999999997 -1.445904 -0.642624 -2.2491359999999996 1.606608 -0.9638880000000001 2.0885279999999997Z" clip-rule="evenodd" stroke-width="1"></path><path fill="#000000" fill-rule="evenodd" d="M32.255711999999995 20.5824c-0.9638880000000001 -1.124592 -2.409792 -1.124592 -3.5343359999999997 -0.321312 -0.80328 0.6425759999999999 -0.80328 1.927824 0.80328 2.2491359999999996 0.9638880000000001 0.160656 2.249088 -0.160608 2.731056 -0.9638880000000001 0.160656 -0.321312 -0.160608 -0.48196799999999995 -0.321264 -0.321312 -0.48196799999999995 0.6425759999999999 -2.731152 0.48196799999999995 -2.731152 0.160656 -0.160656 -0.48196799999999995 1.445904 -1.767264 2.731152 -0.482016 0.321312 0.160656 0.6425759999999999 -0.160608 0.321264 -0.321264Z" clip-rule="evenodd" stroke-width="1"></path><path fill="#000000" fill-rule="evenodd" d="M29.327376 20.417184c-0.7938719999999999 0.39696 -0.099264 1.885392 0.793824 1.1907839999999998 0.793824 -0.694608 -0.099216 -1.984608 -0.793824 -1.1907839999999998Z" clip-rule="evenodd" stroke-width="1"></path><path fill="#000000" fill-rule="evenodd" d="M24.383712 18.815231999999998c-2.249184 -1.124592 -4.658976 -0.642624 -6.586848 0.80328 -0.321312 0.160656 0.000048 0.642624 0.32136 0.321312 1.7671679999999999 -1.124592 4.6589279999999995 -1.285248 6.265488 -0.80328 0.160656 0.321312 0.321312 -0.160656 0 -0.321312Z" clip-rule="evenodd" stroke-width="1"></path><path fill="#000000" fill-rule="evenodd" d="M29.364095999999996 18.815088c0.321312 0 2.249184 -0.321312 2.40984 -0.321312 1.124592 -0.160656 1.2852000000000001 0 1.2852000000000001 -0.321312 0 -0.48191999999999996 -2.08848 -0.642624 -2.8917599999999997 -0.321312 -0.321312 0.160656 -0.642624 0.32136 -1.124592 0.482016 -0.160656 0.321264 0 0.6425759999999999 0.321312 0.48191999999999996Z" clip-rule="evenodd" stroke-width="1"></path><path fill="#000000" fill-rule="evenodd" d="M29.685312 29.097264c-0.9639359999999999 -0.48196799999999995 -1.60656 -0.80328 -2.40984 -0.642624 -1.124544 0.160656 -1.9278719999999998 0.80328 -2.7311039999999998 1.124592 -0.642624 0.321312 -0.9639359999999999 0.160656 -0.9639359999999999 0.48196799999999995 0 0.48196799999999995 0.80328 0.160656 1.285248 0.160656 0.9639359999999999 -0.321312 2.08848 -1.124592 3.37368 -0.80328 1.445904 0.321312 1.60656 0.321312 1.7672160000000001 0.160656 0 -0.160656 -0.160608 -0.321312 -0.321264 -0.48196799999999995Z" clip-rule="evenodd" stroke-width="1"></path><path fill="#000000" fill-rule="evenodd" d="M29.04288 29.257728c-0.48196799999999995 0.6425759999999999 -2.249184 0.9639359999999999 -3.052416 0.9639359999999999 -1.445904 -0.160656 -1.445904 -0.8033279999999999 -1.7672160000000001 -0.482016 -0.321312 0.48196799999999995 1.124592 1.124592 1.9278719999999998 1.285248 2.409792 0.321312 3.855696 -1.606512 3.213072 -1.7671679999999999 -0.160656 -0.160656 -0.321312 0 -0.321312 0Z" clip-rule="evenodd" stroke-width="1"></path><path fill="#000000" fill-rule="evenodd" d="M31.302768 10.504368c-0.642624 -0.80328 -1.938576 -4.380336 -4.509024 -2.291808 -1.285248 -1.445904 -3.855696 0.321312 -5.462256 1.285248C14.423376 13.996127999999999 14.262719999999998 21.70752 14.744639999999999 29.097599999999996c0 0.80328 0.000048 1.7672160000000001 0.16070399999999999 2.731152 0.160656 0.642624 0.803232 2.08848 1.2852000000000001 1.60656 0.321312 -0.321312 -0.48196799999999995 -0.32136 -0.80328 -1.7672160000000001 -0.160656 -0.9639359999999999 0 -1.7671679999999999 0 -3.69504 -0.160656 -7.0687679999999995 0.642624 -13.816272 6.586848 -17.832624 0.642624 -0.48196799999999995 1.9278719999999998 -1.285248 2.891808 -1.7672160000000001 1.606512 -0.48196799999999995 1.606512 0.48191999999999996 1.927824 0.48191999999999996s0.321312 -0.160608 0.48196799999999995 -0.321264c1.703568 -1.703568 3.5662079999999996 2.3938559999999995 3.8862719999999995 2.1538079999999997 0.10536 -0.031920000000000004 0.140784 -0.154368 0.140784 -0.183312Z" clip-rule="evenodd" stroke-width="1"></path><path fill="#000000" fill-rule="evenodd" d="M32.737823999999996 10.943375999999999C31.613232 4.999199999999999 25.669007999999998 0.5008608 20.68872 1.9467503999999998c-0.48196799999999995 0.160656 -0.80328 0.48194400000000004 -1.124592 0.48194400000000004 -0.321312 0 -0.803232 -0.16061759999999997 -1.124544 -0.16061759999999997C10.085568 1.7861136 5.747856 9.818831999999999 4.944576 18.012192c-0.4819584 5.944176 0.321312 8.835936 -0.6426048 11.727744 -0.3213072 0.9638880000000001 -0.80328 1.9278719999999998 -1.7672064 2.249184 -0.3213072 0.160656 -0.1606416 0.48191999999999996 0.1606656 0.48191999999999996 3.6950495999999995 -1.124544 2.4098015999999998 -8.354016 3.2130816 -14.458847999999998 0.642624 -6.4261919999999995 3.855696 -13.9769184 10.442543999999998 -14.94084 2.2491359999999996 -0.321312 2.891808 0.1606512 3.5343839999999997 0 0.80328 -0.160656 1.330608 -0.8033136 3.419136 -0.6426575999999999C27.64224 2.9106575999999995 30.8232 6.441408 32.164704 10.678895999999998c0.19142399999999998 0.604608 0.57312 0.585792 0.57312 0.26448Z" clip-rule="evenodd" stroke-width="1"></path><path fill="#000000" fill-rule="evenodd" d="M21.009984 3.5533104c-0.642624 0.9639263999999999 1.9278719999999998 0.9639456000000001 2.40984 1.1246015999999999 -0.321312 0.6426000000000001 0.803232 0.803256 1.606512 1.1245679999999998 0.48196799999999995 0.160656 0.80328 0.321312 0.80328 0.160656 0.321312 -0.48196799999999995 -1.606512 -0.80328 -1.445856 -0.9639359999999999 0.160656 -0.160656 0.160608 -0.6426288 -0.16070399999999999 -0.80328 -0.6425759999999999 -0.321312 -1.606512 -0.3212928 -2.08848 -0.48194400000000004 0 -0.6426192 0.321312 -0.6426192 -1.7672160000000001 -0.8032752 -0.6425759999999999 0 -1.124544 -0.1606416 -1.124544 0.1606656 -0.160656 0 -0.000048 -0.0000192 1.7671679999999999 0.48194400000000004Zm2.891808 1.1246015999999999c0.160656 0 0.160656 0 0 0Zm0 -0.3213312c0 -0.1606512 0 -0.1606512 0 0Z" clip-rule="evenodd" stroke-width="1"></path><path fill="#000000" fill-rule="evenodd" d="M16.672463999999998 6.284304c-4.337663999999999 2.08848 -6.90816 7.711344 -7.39008 12.37032 -0.9639359999999999 8.675327999999999 2.990064 10.730687999999999 3.3113759999999997 10.24872 0.321312 -0.321312 -0.25895999999999997 -0.127488 -1.3835039999999998 -1.573392 -3.21312 -4.0163519999999995 -0.80328 -17.511312 5.622864 -20.724384 0.321312 0 0.160656 -0.48191999999999996 -0.160656 -0.321264Z" clip-rule="evenodd" stroke-width="1"></path><path fill="#000000" fill-rule="evenodd" d="M14.905248 11.265072c-3.373728 5.783568 -5.140944 15.583535999999999 -1.124592 20.72448 0.160656 0.321312 0.642624 -0.000048 0.321312 -0.32136 -3.5343839999999997 -4.658976 -1.445856 -15.422831999999998 1.124592 -20.242416 0.321312 -0.321312 -0.160656 -0.482016 -0.321312 -0.16070399999999999Z" clip-rule="evenodd" stroke-width="1"></path><path fill="#000000" fill-rule="evenodd" d="M0.28563984 36.648336c2.08850736 -0.160656 3.37375056 -1.767264 4.17702096 -3.695088 0.160656 -0.321312 -0.32128799999999996 -0.48191999999999996 -0.48194400000000004 -0.160608 -0.8032704 1.124544 -2.5705056 2.891712 -3.8557406399999996 3.37368 -0.160654512 0 -0.16064472 0.482016 0.16066368 0.482016Z" clip-rule="evenodd" stroke-width="1"></path><path fill="#000000" fill-rule="evenodd" d="M0.6069599999999999 40.50384c4.49832 0 7.39008 -6.4261919999999995 6.747456 -6.747503999999999 -0.48196799999999995 -0.160656 -0.160656 0.80328 -2.2491359999999996 3.213072 -1.1246015999999999 1.285248 -2.7311232 2.731152 -4.49832 3.052464 -0.32131056 0 -0.32131056 0.48196799999999995 0 0.48196799999999995Z" clip-rule="evenodd" stroke-width="1"></path><path fill="#000000" fill-rule="evenodd" d="M9.442896 32.310336c-0.48196799999999995 1.7672160000000001 -1.124592 4.498368 -2.0885279999999997 6.104928 -1.445856 2.409792 -2.5704576 1.7671679999999999 -2.409792 2.2491359999999996 0.160656 0.642624 2.0885279999999997 -0.48196799999999995 3.052464 -1.9278719999999998 1.285248 -1.9278719999999998 1.606512 -4.177008 1.927824 -6.4261919999999995 0 -0.160656 -0.48196799999999995 -0.321312 -0.48196799999999995 0Z" clip-rule="evenodd" stroke-width="1"></path><path fill="#000000" fill-rule="evenodd" d="M10.567487999999999 32.952672c0 2.7311039999999998 1.285296 4.658976 3.8557439999999996 5.622864 0.321312 0.160656 0.48191999999999996 -0.321264 0.160608 -0.48191999999999996 -1.927824 -1.124592 -3.213024 -3.213072 -3.5343359999999997 -5.301552 0 -0.160656 -0.482016 -0.16070399999999999 -0.482016 0.160608Z" clip-rule="evenodd" stroke-width="1"></path><path fill="#000000" fill-rule="evenodd" d="M13.63848 31.835903999999996c0 3.373728 1.5879839999999998 6.097248 4.479792 7.703808 0.321264 0.160656 0.48196799999999995 -0.321264 0.321312 -0.48191999999999996 -2.249184 -1.445904 -3.997872 -4.65144 -4.319184 -7.221888 0 -0.321312 -0.48191999999999996 -0.321312 -0.48191999999999996 0Z" clip-rule="evenodd" stroke-width="1"></path><path fill="#000000" fill-rule="evenodd" d="M27.918288 34.720031999999996c-0.9639359999999999 1.124592 -0.642624 2.249232 0 3.695088 0.160608 0.321312 0.48191999999999996 0.160656 0.48191999999999996 -0.160656 -0.160656 -0.80328 -0.321312 -2.570448 -0.160656 -3.213072 0.160656 -0.321312 -0.160656 -0.482016 -0.321264 -0.32136Z" clip-rule="evenodd" stroke-width="1"></path><path fill="#000000" fill-rule="evenodd" d="M9.386112 23.34912c-1.445856 0 -2.570496 5.140992 1.285248 6.908207999999999 1.2852000000000001 0.6425759999999999 2.570448 0.160608 2.409792 -0.32136 0 -0.160656 -0.160656 -0.160656 -0.321312 -0.160656 -1.285248 0.642624 -4.0163519999999995 -0.80328 -3.855696 -4.819632 0 -0.321312 0.160656 -0.9638880000000001 0.321312 -1.124544 0.160656 -0.160656 0.321264 -0.160656 0.321264 -0.321312 0.160656 0 0.000048 -0.16070399999999999 -0.160608 -0.16070399999999999Z" clip-rule="evenodd" stroke-width="1"></path><path fill="#000000" fill-rule="evenodd" d="M18.600192 41.46744c2.0885279999999997 -0.80328 1.9278719999999998 1.9278719999999998 4.177008 -0.6425759999999999 1.124592 -1.285248 3.8557439999999996 -1.124592 6.104928 -2.40984 0.321312 -0.160656 0 -0.642624 -0.160656 -0.48196799999999995 -1.7672160000000001 0.80328 -4.980288 0.80328 -6.265536 1.7671679999999999 -0.642624 0.48196799999999995 -0.9639359999999999 1.124592 -1.285248 1.285248 -0.321312 0.160656 -1.124544 -0.9638880000000001 -2.7311039999999998 -0.160608 -0.321312 0.48196799999999995 -0.16070399999999999 0.803232 0.160608 0.6425759999999999Z" clip-rule="evenodd" stroke-width="1"></path><path fill="#000000" fill-rule="evenodd" d="M42.858912 36.326448c-4.980288 -3.5344320000000002 -10.121232 -2.570496 -12.852336 0.6425759999999999 -4.177008 4.819632 -2.0885279999999997 7.068815999999999 -1.60656 6.586848 0.642624 -0.48196799999999995 -2.2491359999999996 -1.124544 2.249184 -6.104832 3.052416 -3.373728 8.354016 -3.052464 12.049056 -0.80328 0.160656 0.321312 0.321312 -0.160656 0.160656 -0.321312Z" clip-rule="evenodd" stroke-width="1"></path><path fill="#000000" fill-rule="evenodd" d="M29.042831999999997 42.431712c2.409792 -1.60656 6.4261919999999995 0.48191999999999996 9.960576 -2.0885279999999997 1.445904 -1.124592 2.570448 -2.570448 3.855696 -3.69504 0.160656 -0.160656 0.160656 -0.160656 0 -0.321312 -0.321312 -0.48196799999999995 -1.124592 0.9638880000000001 -3.855696 3.052416 -1.9278719999999998 1.445856 -3.052464 1.606512 -5.140944 1.606512 -6.10488 0 -5.462256 1.9279199999999999 -4.819632 1.445952Z" clip-rule="evenodd" stroke-width="1"></path><path fill="#000000" fill-rule="evenodd" d="M28.69944 42.219167999999996c-0.803232 0.9639359999999999 -1.2852000000000001 1.606512 -1.606512 3.5343839999999997 -0.160656 0.321312 0.321264 0.48196799999999995 0.48191999999999996 0.160656 0.642624 -1.445904 0.642624 -0.642624 1.60656 -3.373728 0 -0.321312 -0.321312 -0.642624 -0.48196799999999995 -0.321312Z" clip-rule="evenodd" stroke-width="1"></path><path fill="#000000" fill-rule="evenodd" d="M39.806592 39.057744c-2.0885279999999997 1.9278719999999998 -3.052416 2.891808 -4.658976 6.265536 -0.160656 0.321312 0.321312 0.48196799999999995 0.48196799999999995 0.160656 1.124544 -2.0885279999999997 4.980288 -6.10488 4.49832 -6.4261919999999995l-0.321312 0Z" clip-rule="evenodd" stroke-width="1"></path><path fill="#000000" fill-rule="evenodd" d="M42.37718399999999 36.648288c0.48196799999999995 0.48196799999999995 1.285248 2.409792 1.445904 3.052416 0 0.321312 0.48191999999999996 0.160656 0.48191999999999996 -0.160656 -0.160656 -1.445904 -0.321312 -2.570448 -1.60656 -3.213072 -0.160656 -0.160656 -0.48191999999999996 0.160656 -0.321264 0.321312Z" clip-rule="evenodd" stroke-width="1"></path><path fill="#000000" fill-rule="evenodd" d="M41.252496 38.093951999999994c2.570448 1.60656 5.140944 4.980288 6.265488 7.711392 0.160656 0.321312 0.482016 0.16070399999999999 0.482016 -0.160608 -1.445904 -4.337663999999999 -3.69504 -6.5868 -6.4261919999999995 -8.032703999999999 -0.321312 0 -0.48196799999999995 0.321312 -0.321312 0.48191999999999996Z" clip-rule="evenodd" stroke-width="1"></path><path fill="#000000" fill-rule="evenodd" d="M11.0496 37.772448c-1.445904 0.9638880000000001 -2.570496 2.0885279999999997 -3.373776 3.69504 -0.48196799999999995 0.9639359999999999 -0.160656 2.249184 0.80328 2.570496 1.60656 0.642624 3.695088 -0.642624 5.944224 -0.160656 0.9639359999999999 0.160656 1.927824 1.124592 2.8917599999999997 1.7672160000000001 0.321312 0.160656 0.482016 -0.16070399999999999 0.32136 -0.32136 -1.7672160000000001 -1.2852000000000001 -1.9279199999999999 -2.731152 -6.265584 -1.9278719999999998 -0.80328 0.160656 -1.7671679999999999 0.321312 -2.409792 0 -1.60656 -0.642624 1.124544 -4.016304 2.409792 -5.140896 0.160656 -0.321312 0.000048 -0.642624 -0.321264 -0.48196799999999995Z" clip-rule="evenodd" stroke-width="1"></path><path fill="#000000" fill-rule="evenodd" d="M7.997039999999999 43.55616c-0.321312 0.642624 -0.482016 0.80328 -0.32136 1.9278719999999998 0 0.321312 0.39931199999999994 0.24791999999999997 0.48196799999999995 0 0.27576 -0.827328 0.321312 -1.264656 0.321312 -1.9278719999999998 0.160656 -0.160656 -0.321264 -0.321312 -0.48191999999999996 0Z" clip-rule="evenodd" stroke-width="1"></path><path fill="#000000" fill-rule="evenodd" d="M8.479104 40.985952c0.48196799999999995 2.409792 3.5343839999999997 1.285248 5.4622079999999995 1.124592 0.321312 0 0.321312 -0.48191999999999996 0 -0.48191999999999996 -2.7311039999999998 -0.160656 -4.49832 0.48191999999999996 -4.980288 -0.80328 -0.160656 -0.321312 -0.6425759999999999 -0.16070399999999999 -0.48191999999999996 0.160608Z" clip-rule="evenodd" stroke-width="1"></path><path fill="#000000" fill-rule="evenodd" d="M31.131311999999998 40.182288c1.7672160000000001 0.160656 3.5343839999999997 0.482016 5.3016 -0.160608 1.606512 -0.642624 2.570496 -1.9278719999999998 3.69504 -2.891808 0.321312 -0.160656 0 -0.6425759999999999 -0.321312 -0.321264 -3.5343839999999997 2.7311039999999998 -3.213072 2.8917599999999997 -8.514672000000001 2.8917599999999997 -0.321312 0 -0.321312 0.48191999999999996 -0.160656 0.48191999999999996Z" clip-rule="evenodd" stroke-width="1"></path><path fill="#000000" fill-rule="evenodd" d="M16.993631999999998 40.342848c0.160656 2.7311039999999998 0.482016 3.373728 0.9639359999999999 5.462256 0 0.321264 0.482016 0.321264 0.482016 0 -0.160656 -3.052464 -0.642624 -3.69504 -0.9639359999999999 -5.462256 0 -0.321312 -0.482016 -0.321312 -0.482016 0Z" clip-rule="evenodd" stroke-width="1"></path><path fill="#000000" fill-rule="evenodd" d="M8.318304 40.825488c-2.409792 1.124592 -4.0163088 2.409792 -5.1408912 5.140896 -0.160656 0.321312 0.32128799999999996 0.48196799999999995 0.48194400000000004 0.160656 0.9639263999999999 -1.7671679999999999 3.2130911999999996 -3.855696 4.8196512 -4.819584 0.321264 -0.321312 0.160608 -0.642624 -0.16070399999999999 -0.48196799999999995Z" clip-rule="evenodd" stroke-width="1"></path><path fill="#000000" fill-rule="evenodd" d="M33.05904 28.293888c0.80328 2.0885279999999997 3.052464 2.731152 4.177055999999999 4.0164 0.80328 0.9638880000000001 0.642624 1.445904 0.9639359999999999 1.285248 0.642624 -0.160656 -0.321312 -1.7672160000000001 -0.9639359999999999 -2.40984 -1.124592 -1.2852000000000001 -3.052416 -2.08848 -3.855696 -3.213072 0 -0.160656 -0.32136 0.160608 -0.32136 0.321264Z" clip-rule="evenodd" stroke-width="1"></path><path fill="#000000" fill-rule="evenodd" d="M33.701856 32.631935999999996c0.160656 0.160656 0.48196799999999995 0.642624 0.642624 0.80328 0.321312 0.48196799999999995 0.803232 0.9638880000000001 1.124544 1.2852000000000001 0.160656 0.321312 0.642624 0 0.482016 -0.160656 -0.48196799999999995 -1.445904 -1.1246399999999999 -1.927824 -1.9278719999999998 -2.2491359999999996 -0.321312 -0.160656 -0.642624 0.160656 -0.321312 0.321312Z" clip-rule="evenodd" stroke-width="1"></path><path fill="#000000" fill-rule="evenodd" d="M26.632896 29.097503999999997c-0.160656 0.642624 -0.160608 0.803232 0.482016 1.606512 0.160656 0.321312 0.48191999999999996 0.160656 0.48191999999999996 -0.160656 0 -1.124592 0.000048 -0.803232 -0.321264 -1.445856 -0.160656 -0.48196799999999995 -0.642672 -0.321312 -0.642672 0Z" clip-rule="evenodd" stroke-width="1"></path></svg>