<svg xmlns="http://www.w3.org/2000/svg" fill="none" viewBox="0 0 48 48" height="48" width="48" id="Side-Eyeing-Cloe--Streamline-Memes.svg"><desc>Side Eyeing Cloe Streamline Element: https://streamlinehq.com</desc><path stroke="#000000" stroke-linecap="round" stroke-linejoin="round" d="M30.91 22.218c0.183 -0.886 0.774 -1.604 1.787 -1.618 1.012 -0.014 1.083 0.464 1.603 0.633" stroke-width="1"></path><path stroke="#000000" stroke-linecap="round" stroke-linejoin="round" d="M25.157 8.487c-3.397 -0.049 -10.144 3.834 -8.979 14.851" stroke-width="1"></path><path fill="#000000" d="M24.096 23.111c-1.038 -0.057 -1.057 -1.183 -0.538 -1.64 0.518 -0.344 1.099 -0.177 1.344 0.171 0.185 0.26 0.23 1.527 -0.806 1.47Z" stroke-width="1"></path><path fill="#000000" d="M32.132 22.442c-0.831 -0.05 -0.847 -1.036 -0.431 -1.436 0.415 -0.301 0.862 0 1.077 0.15 0.215 0.15 0.185 1.336 -0.646 1.286Z" stroke-width="1"></path><path stroke="#000000" stroke-linecap="round" stroke-linejoin="round" d="M29.708 11.303c3.664 1.261 5.2 3.467 5.397 5.989 0.197 2.521 -0.354 3.86 0 5.476 0.355 1.615 0.71 5.121 -0.63 7.367 -1.34 2.245 -2.6 2.442 -3.31 2.994 -0.708 0.552 -2.796 1.418 -4.924 0.433" stroke-width="1"></path><path stroke="#000000" stroke-linecap="round" stroke-linejoin="round" d="M28.211 10.83c-3.9 1.616 -6.965 3.765 -8.746 10.52 -1.142 4.333 0.158 8.6 0.67 9.376" stroke-width="1"></path><path stroke="#000000" stroke-linecap="round" stroke-linejoin="round" d="M22.715 22.198c0.77 -0.635 1.708 -1.27 2.485 -1.207 0.753 0.06 1.163 0.392 1.582 1.207 -0.117 0.206 -0.44 0.66 -0.804 0.83" stroke-width="1"></path><path stroke="#000000" stroke-linecap="round" stroke-linejoin="round" d="M17.89 29.741c1.102 1.773 2.718 3.467 3.072 5.476" stroke-width="1"></path><path stroke="#000000" stroke-linecap="round" stroke-linejoin="round" d="M36.417 18.97c-0.485 -2.33 0.388 -5.29 -0.97 -7.717 -1.36 -2.427 -5.485 -6.018 -9.999 -5.484 -4.32 -0.535 -9.221 -0.049 -12.522 6.843 -3.3 6.892 -1.067 10.932 -1.067 14.803 0 3.349 -0.777 6.843 -3.35 7.571 -2.3 0.651 -4.464 -1.213 -4.901 -2.33" stroke-width="1"></path><path stroke="#000000" stroke-linecap="round" stroke-linejoin="round" d="M8.316 37.364c3.397 0 6.746 -2.426 7.377 -6.503" stroke-width="1"></path><path stroke="#000000" stroke-linecap="round" stroke-linejoin="round" d="M19.527 35.86c-2.33 -1.408 -3.689 -2.282 -4.077 -3.835" stroke-width="1"></path><path stroke="#000000" stroke-linecap="round" stroke-linejoin="round" d="M22.33 20.11c1.398 -0.639 2.018 -0.644 2.588 -0.61 0.57 0.035 1.107 0.174 1.47 0" stroke-width="1"></path><path stroke="#000000" stroke-linecap="round" stroke-linejoin="round" d="M30.928 19.397c0.725 0.035 0.89 -0.051 1.478 -0.172 0.587 -0.121 1.198 -0.129 1.63 0" stroke-width="1"></path><path stroke="#000000" stroke-linecap="round" stroke-linejoin="round" d="M30.766 23.68c0.266 0.735 1.564 1.157 1.408 2.127" stroke-width="1"></path><path stroke="#000000" stroke-linecap="round" stroke-linejoin="round" d="M28.654 26.307c0.391 -0.469 0.782 -0.344 1.001 -0.25" stroke-width="1"></path><path stroke="#000000" stroke-linecap="round" stroke-linejoin="round" d="M27.2 29.573c0.731 -0.457 1.489 -1.462 2.351 -1.41 0.862 0.052 1.202 -0.079 1.607 -0.196 0.405 -0.118 1.15 0.34 1.201 0.627" stroke-width="1"></path><path stroke="#000000" stroke-linecap="round" stroke-linejoin="round" d="M28.606 28.55c0.026 0.316 -0.03 0.726 0.388 0.839 0.418 0.113 0.914 0.102 1.097 -0.09 0.146 -0.155 0.061 -0.714 0 -0.974" stroke-width="1"></path><path stroke="#000000" stroke-linecap="round" stroke-linejoin="round" d="M30.335 29.287c0.418 0.113 0.914 0 1.019 -0.113 0.083 -0.09 0.034 -0.694 0 -0.985" stroke-width="1"></path><path stroke="#000000" stroke-linecap="round" stroke-linejoin="round" d="M17.182 34.688c-2.12 1.484 -3.71 4.274 -4.133 7.49" stroke-width="1"></path><path stroke="#000000" stroke-linecap="round" stroke-linejoin="round" d="M9.869 42.319c0.353 -2.509 2.579 -5.017 4.663 -5.335" stroke-width="1"></path><path stroke="#000000" stroke-linecap="round" stroke-linejoin="round" d="M21.74 36.737c-0.107 1.766 0.246 4.663 0.847 5.582" stroke-width="1"></path><path stroke="#000000" stroke-linecap="round" stroke-linejoin="round" d="M32.09 32.568c0 0.507 0.07 1.696 0.353 2.402" stroke-width="1"></path><path stroke="#000000" stroke-linecap="round" stroke-linejoin="round" d="M29.865 42.39c0.67 -4.028 2.755 -8.585 4.557 -9.292 2.014 -0.106 4.734 -0.636 6.04 0 1.047 0.509 2.038 2.002 2.403 2.685 -0.871 0.683 -2.918 2.318 -4.133 3.392 -1.215 1.074 -1.92 2.59 -2.12 3.215" stroke-width="1"></path><path stroke="#000000" stroke-linecap="round" stroke-linejoin="round" d="M43.007 35.854c1.413 1.625 4.133 4.84 4.274 6.253" stroke-width="1"></path><path stroke="#000000" stroke-linecap="round" stroke-linejoin="round" d="M35.411 27.87c0.777 0.812 2.791 -0.212 3.992 0.777" stroke-width="1"></path><path stroke="#000000" stroke-linecap="round" stroke-linejoin="round" d="M39.332 30.3c-0.953 -0.708 -1.695 1.583 -3.25 2.374" stroke-width="1"></path><path stroke="#000000" stroke-linecap="round" stroke-linejoin="round" d="M21.944 37.933c1.03 0.226 2.008 0.094 2.369 0l0.72 0.824 0.876 -1.21c1.219 -0.533 4.043 -1.437 5.587 -0.799" stroke-width="1"></path><path stroke="#000000" stroke-linecap="round" stroke-linejoin="round" d="M1.755 40.404c-0.97 -2.506 -1.294 -4.123 0 -7.275 1.034 -2.522 3.88 -7.249 5.173 -9.297 -0.188 -2.129 0.21 -7.195 3.315 -10.428" stroke-width="1"></path><path stroke="#000000" stroke-linecap="round" stroke-linejoin="round" d="m35.627 7.906 5.74 -0.485" stroke-width="1"></path><path stroke="#000000" stroke-linecap="round" stroke-linejoin="round" d="M46.217 36.443c-1.698 -6.71 -3.961 -22.797 -4.527 -25.303 -0.566 -2.506 0.97 -3.961 2.02 -4.365 1.052 -0.404 1.789 0 2.507 0" stroke-width="1"></path><path stroke="#000000" stroke-linecap="round" stroke-linejoin="round" d="M7.116 20.36c-1.043 -1.143 -2.384 -0.348 -3.03 1.39 -0.646 1.739 -1.64 2.881 -0.994 4.074" stroke-width="1"></path><path stroke="#000000" stroke-linecap="round" stroke-linejoin="round" d="M0.719 29.56c1.017 -0.728 2.442 -0.586 3.028 -0.425" stroke-width="1"></path></svg>