<svg xmlns="http://www.w3.org/2000/svg" fill="none" viewBox="0 0 48 48" height="48" width="48" id="Sipping-Coffee-On-Laptop-Hand-Drawn--Streamline-Memes.svg"><desc>Sipping Coffee On Laptop Hand Drawn Streamline Element: https://streamlinehq.com</desc><path fill="#000000" fill-rule="evenodd" d="M27.370416 18.64872C27.675743999999998 20.175216 28.896912 21.091056000000002 29.66016 22.159584C29.8128 22.312224 30.11808 22.464864 30.270719999999997 22.159584C31.186656 21.243744 34.392239999999994 17.274912 34.69752 15.901056C34.85016 15.137808 34.54488 14.374559999999999 34.392239999999994 13.611312C34.392239999999994 13.306032 33.93432 13.458623999999999 33.93432 13.763952C34.239599999999996 15.901008 34.69752 15.595775999999999 32.713103999999994 18.038111999999998C31.949903999999997 18.953999999999997 30.881376000000003 20.480496000000002 30.11808 21.243792C29.354879999999998 20.327855999999997 28.133664 19.564608 27.828384 18.343392C27.828384 18.190752 27.370416 18.343439999999998 27.370416 18.64872Z" clip-rule="evenodd" stroke-width="1"></path><path fill="#000000" fill-rule="evenodd" d="M26.30184 16.664304C25.99656 16.969632 25.99656 16.969632 26.149199999999997 17.427552C26.149199999999997 17.732832 26.45448 17.885423999999997 26.607168 17.580144C26.912447999999998 17.122224 26.912447999999998 17.274864 26.759808 16.816896C26.912447999999998 16.511616 26.454528 16.358976000000002 26.30184 16.664304Z" clip-rule="evenodd" stroke-width="1"></path><path fill="#000000" fill-rule="evenodd" d="M27.065087999999996 17.274912C26.759808 17.580192 26.759808 17.580192 26.912447999999998 18.038111999999998C26.912447999999998 18.343439999999998 27.370368 18.343439999999998 27.370368 18.038111999999998C27.675696 17.580192 27.675743999999998 17.580192 27.523056 17.274912C27.523056 17.122272 27.065087999999996 16.969632 27.065087999999996 17.274912Z" clip-rule="evenodd" stroke-width="1"></path><path fill="#000000" fill-rule="evenodd" d="M27.828432 17.733264C27.523152 18.038543999999998 27.523152 18.191184 27.828432 18.6492C27.828432 18.95448 28.2864 18.95448 28.2864 18.6492C28.43904 18.191184 28.59168 18.343872 28.2864 17.885904C28.2864 17.427984000000002 27.828432 17.427984000000002 27.828432 17.733264Z" clip-rule="evenodd" stroke-width="1"></path><path fill="#000000" fill-rule="evenodd" d="M28.896863999999997 18.038111999999998C28.591584 18.49608 28.744224 18.49608 28.896863999999997 18.80136C28.896863999999997 19.106688 29.354879999999998 19.106688 29.354879999999998 18.80136C29.507519999999996 18.343439999999998 29.507519999999996 18.343439999999998 29.354879999999998 18.038111999999998C29.354879999999998 17.885472 28.896863999999997 17.732832 28.896863999999997 18.038111999999998Z" clip-rule="evenodd" stroke-width="1"></path><path fill="#000000" fill-rule="evenodd" d="M29.812848 17.885952C29.660207999999997 18.343872 29.507568 18.49656 29.965488 18.954528C30.118128 19.259808 30.423408 19.107168 30.423408 18.801887999999998C30.423408 18.19128 30.576096 18.343872 30.270768 17.733312C30.270768 17.580671999999996 29.812848 17.580671999999996 29.812848 17.885952Z" clip-rule="evenodd" stroke-width="1"></path><path fill="#000000" fill-rule="evenodd" d="M30.728688000000002 17.428127999999997C30.576048 17.886096000000002 30.728688000000002 18.038736 31.186656 18.191375999999998C31.339295999999997 18.496655999999998 31.797216000000002 18.191375999999998 31.644575999999997 18.038687999999997C31.644575999999997 17.428127999999997 31.644575999999997 17.580768000000003 31.339295999999997 17.275488S30.576048 17.122848 30.728688000000002 17.428127999999997Z" clip-rule="evenodd" stroke-width="1"></path><path fill="#000000" fill-rule="evenodd" d="M31.339247999999998 16.66488C31.339247999999998 17.275488 31.491887999999996 17.275488 31.949856 17.580768000000003C32.102496 17.886048 32.560416 17.580768000000003 32.407776 17.428127999999997C32.255136 16.66488 32.102496 16.66488 31.797168 16.51224C31.644528 16.20696 31.186607999999996 16.3596 31.339247999999998 16.66488Z" clip-rule="evenodd" stroke-width="1"></path><path fill="#000000" fill-rule="evenodd" d="M32.255184 16.206624C32.255184 16.511903999999998 32.255184 16.511952 32.713103999999994 16.664592C32.865744 16.817231999999997 33.323712 16.511903999999998 33.018384000000005 16.359264C33.018384000000005 15.901344 33.018384000000005 15.901344 32.560463999999996 15.901344C32.407824 15.596063999999998 32.102544 15.901344 32.255184 16.206624Z" clip-rule="evenodd" stroke-width="1"></path><path fill="#000000" fill-rule="evenodd" d="M33.01848 15.595728000000001S33.01848 15.748368 33.171119999999995 15.901008S33.476448 15.901008 33.629087999999996 15.901008C33.934368 16.053648 34.087008 15.748368 33.934368 15.595728000000001C33.781728 15.290352 33.781728 15.137759999999998 33.476448 15.137759999999998C33.01848 14.98512 32.7132 15.443087999999998 33.01848 15.595728000000001Z" clip-rule="evenodd" stroke-width="1"></path><path fill="#000000" fill-rule="evenodd" d="M33.323712 14.375183999999999C33.476400000000005 14.833152 33.62904 14.680463999999999 33.93432 14.680463999999999C34.239647999999995 14.833103999999999 34.392288 14.527872 34.239599999999996 14.375183999999999C34.08696 13.917216 33.934368 13.917216 33.62904 14.069856C33.323712 13.917216 33.018432 14.222544 33.323712 14.375183999999999Z" clip-rule="evenodd" stroke-width="1"></path><path fill="#000000" fill-rule="evenodd" d="M27.217775999999997 14.832528C27.370416 14.985168 27.828432 15.137808 28.133712 14.985168C28.311792 14.863008 28.286352 14.832528 28.438992 14.679888C29.20224 14.527248 29.507568 13.916687999999999 29.354879999999998 13.458672C29.354879999999998 13.153391999999998 28.896912 13.153391999999998 28.896912 13.458672C28.896912 13.611312 28.744272 13.91664 28.438992 13.91664C28.133712 13.91664 28.258319999999998 14.175264 27.675791999999998 14.221968C27.523103999999996 14.221968 27.447072 14.232432 27.370464 14.069327999999999C27.227663999999997 14.112575999999999 27.146544 14.049888000000001 27.217775999999997 13.91664C27.828432 13.000752 27.370416 11.321616 26.912496 11.474255999999999C26.607215999999998 11.626895999999999 26.912496 11.779536 26.912496 12.542831999999999C26.912496 13.153391999999998 26.607215999999998 13.30608 26.454576 13.61136C26.301935999999998 14.221968 26.607215999999998 14.832528 27.217775999999997 14.832528Z" clip-rule="evenodd" stroke-width="1"></path><path fill="#000000" fill-rule="evenodd" d="M26.149344 15.443328C26.301983999999997 15.290688 26.454672 15.138048 26.607311999999997 14.985408C26.759952 14.832767999999998 26.912592 14.374848 27.065231999999998 14.374848C27.370512 14.222208 27.065231999999998 13.764192 26.759952 13.91688C26.149392 14.069567999999999 25.844016 14.527487999999998 25.844016 15.138095999999999C25.691375999999998 15.596063999999998 25.996703999999998 15.748655999999999 26.149344 15.443328Z" clip-rule="evenodd" stroke-width="1"></path><path fill="#000000" fill-rule="evenodd" d="M29.202287999999996 13.611215999999999C29.660207999999997 13.763856 30.270816 14.069184 30.881423999999996 14.527104S31.491984 15.290352 31.644623999999997 15.137711999999999C31.949903999999997 14.985072 31.491984 14.069184 31.186704000000002 13.763808000000001C30.423408 13.000607999999998 29.812848 13.153248 29.202287999999996 13.153248C29.049647999999998 13.153248 29.049647999999998 13.611215999999999 29.202287999999996 13.611215999999999Z" clip-rule="evenodd" stroke-width="1"></path><path fill="#000000" fill-rule="evenodd" d="M30.881328 15.290591999999998C31.033967999999998 15.137952 30.881328 14.832671999999999 30.576048 14.985312H30.11808C28.744224 14.680032 28.744224 15.290591999999998 28.286303999999998 15.290591999999998C27.981023999999998 15.290591999999998 27.523103999999996 14.832624 26.912447999999998 15.290591999999998C26.301887999999998 15.74856 26.607168 16.206528 27.217728 16.511808C27.675743999999998 16.817088000000002 27.981023999999998 16.969728 28.744224 16.81704C29.812752 16.6644 30.881328 15.443279999999998 30.881328 15.290591999999998ZM30.11808 15.443279999999998C29.202191999999997 15.443279999999998 29.354832000000002 15.595968 28.744224 15.901248C28.133664 16.206528 27.370464 15.59592 28.133664 16.05384C28.744224 16.359119999999997 29.66016 15.901199999999998 30.11808 15.443279999999998Z" clip-rule="evenodd" stroke-width="1"></path><path fill="#000000" fill-rule="evenodd" d="M26.759856 11.322192C26.149296 10.864224 25.233408 11.322144 25.080768 12.238031999999999C24.92808 12.543312 25.386048 12.695952 25.538687999999997 12.390672C25.809023999999997 11.780111999999999 26.342783999999998 11.64792 26.607215999999998 11.780111999999999C26.912496 11.932751999999999 27.065184000000002 11.474832 26.759856 11.322192Z" clip-rule="evenodd" stroke-width="1"></path><path fill="#000000" fill-rule="evenodd" d="M23.859552 8.879760000000001C23.554271999999997 11.474832 24.164832 11.780064 24.317472 13.00128C24.470111999999997 14.222447999999998 24.164832 16.970112 27.065136 18.649296C28.896912 19.717775999999997 30.423455999999998 19.870416000000002 32.865792 17.122799999999998C34.087008 15.901584000000001 34.544928 15.443615999999999 34.239599999999996 13.917119999999999C35.613456 13.764479999999999 35.613456 11.474784 35.155536 10.253616C34.697568000000004 9.337679999999999 33.93432 9.490368 33.62904 10.558895999999999C33.62904 10.864224 33.93432 11.016815999999999 34.08696 10.711535999999999C34.69752 8.42184 35.613456 13.764479999999999 33.93432 13.30656C33.78168 13.30656 33.476400000000005 13.459247999999999 33.476400000000005 13.611888C33.62904 15.138335999999999 33.78168 15.138335999999999 32.255184 16.664832C29.965439999999997 19.107215999999998 28.896912 18.801935999999998 27.370416 17.886C24.92808 16.359552 25.08072 14.069808 24.775439999999996 12.84864C24.470111999999997 11.627472 23.859552 11.322192 24.164832 8.879760000000001C24.317472 8.57448 24.012192 8.57448 23.859552 8.879760000000001Z" clip-rule="evenodd" stroke-width="1"></path><path fill="#000000" fill-rule="evenodd" d="M25.080624 7.811135999999999C27.06504 5.216112 27.828336 5.3688 27.523056 5.06352C27.37032 4.758192 26.30184 5.368752 25.99656 5.52144C25.233312 6.132 24.927984000000002 6.742608 24.622704 7.505856C24.470064 7.963824 24.927984000000002 8.116416 25.080624 7.811135999999999Z" clip-rule="evenodd" stroke-width="1"></path><path fill="#000000" fill-rule="evenodd" d="M27.370512 6.1318079999999995C28.744367999999998 5.82648 28.825439999999997 5.608175999999999 29.202336 5.3685599999999996C29.42232 5.206656000000001 29.507616 4.91064 29.202336 4.91064C28.13376 4.91064 27.82848 5.21592 27.217871999999996 5.673888C26.912592 5.979168 27.065231999999998 6.284447999999999 27.370512 6.1318079999999995Z" clip-rule="evenodd" stroke-width="1"></path><path fill="#000000" fill-rule="evenodd" d="M29.507519999999996 6.131952C30.103344 5.990784 30.407231999999997 5.792687999999999 30.728735999999994 5.521344C31.034016 5.368703999999999 30.881376000000003 5.0634239999999995 30.576096 5.0634239999999995C30.184752 5.10624 29.66016 5.216063999999999 29.20224 5.6740319999999995C29.0496 5.826671999999999 29.20224 6.284592 29.507519999999996 6.131952Z" clip-rule="evenodd" stroke-width="1"></path><path fill="#000000" fill-rule="evenodd" d="M31.644528 6.284208C31.942943999999997 6.159072 31.797168 5.826288 31.644528 5.826288C31.443696 5.78736 31.009584 5.795567999999999 30.728688000000002 5.978976C30.182064 6.433104 31.290912000000002 6.46104 31.644528 6.284208Z" clip-rule="evenodd" stroke-width="1"></path><path fill="#000000" fill-rule="evenodd" d="M31.95 7.657968C32.158463999999995 7.657968 32.25528 7.581695999999999 32.40792 7.505328C32.7132 7.352688 32.56056 6.894768 32.25528 7.047408C32.135951999999996 7.081056 31.993343999999997 7.1020319999999995 31.797264 7.200048C31.491984 7.352688 31.644623999999997 7.657968 31.95 7.657968Z" clip-rule="evenodd" stroke-width="1"></path><path fill="#000000" fill-rule="evenodd" d="M32.713152 7.658352C32.255232 9.03216 32.7132 9.948096 33.629087999999996 10.863935999999999C33.781728 11.169264 34.239647999999995 10.863983999999999 33.934368 10.558703999999999C33.476448 9.642816 33.01848 8.26896 33.171119999999995 7.658352C33.32375999999999 7.505712 32.865792 7.353071999999999 32.713152 7.658352Z" clip-rule="evenodd" stroke-width="1"></path><path fill="#000000" fill-rule="evenodd" d="M27.828528 3.536832C26.607311999999997 3.689472 23.249088 5.063328 24.164928 5.826576C23.554367999999997 6.437136 22.943711999999998 7.047744 22.638432 7.963584000000001C22.638432 7.963584000000001 22.485791999999996 8.11632 22.485791999999996 8.26896C22.485791999999996 8.57424 22.791072 8.879472 23.401728 8.574192C23.401728 9.03216 23.249088 9.337439999999999 23.401728 10.100688C23.554367999999997 10.558608 23.707008 11.321904 24.012287999999998 11.169264C24.470208 10.863935999999999 23.554367999999997 10.711248 23.859648 8.574192C23.859648 8.574192 24.012287999999998 8.4216 24.012287999999998 8.26896C24.012287999999998 8.11632 24.012287999999998 7.963584000000001 23.707008 7.963584000000001H23.401728C24.317567999999998 6.437136 25.996752 5.979168 25.538784 5.3685599999999996C28.439087999999998 3.842112 28.897008 5.063328 29.049696 4.30008V4.14744C30.728831999999997 4.14744 32.407968 4.758 33.171168 6.1318079999999995C33.476496 6.589776 34.545024 5.673888 34.545024 8.72688C34.545024 10.100688 34.392384 10.406016000000001 34.697663999999996 10.406016000000001C34.850303999999994 10.406016000000001 35.002992 10.405968 35.002992 10.253328C35.308271999999995 8.421551999999998 35.460912 5.979168 33.781775999999994 5.673888C33.323808 5.06328 32.865888 4.45272 32.255328 4.147392C30.728831999999997 3.231504 29.049696 3.3841919999999996 28.744367999999998 3.3841919999999996C28.286448 3.3841919999999996 27.981168 3.078864 27.828528 3.3841919999999996V3.536832Z" clip-rule="evenodd" stroke-width="1"></path><path fill="#000000" fill-rule="evenodd" d="M26.149296 10.406255999999999C25.538687999999997 10.406255999999999 25.386048 10.406255999999999 24.775488 11.016863999999998C24.470208 11.169504 24.775488 11.627424 25.080768 11.474784C25.488624 11.302992 25.776335999999997 11.259168 26.454576 10.864176C26.623103999999998 10.697376 26.480639999999998 10.453487999999998 26.149296 10.406255999999999Z" clip-rule="evenodd" stroke-width="1"></path><path fill="#000000" fill-rule="evenodd" d="M28.744367999999998 10.406255999999999C29.022432 10.46952 29.354975999999997 10.558895999999999 29.660256 10.558895999999999C30.270816 10.558895999999999 30.59088 10.511951999999999 31.034111999999997 10.406255999999999C31.339392 10.406255999999999 31.376687999999998 10.029696 31.186751999999995 9.948288C30.118176 9.490319999999999 29.660256 9.64296 28.897008 9.948288C28.467456 10.06872 28.591728 10.406255999999999 28.744367999999998 10.406255999999999Z" clip-rule="evenodd" stroke-width="1"></path><path fill="#000000" fill-rule="evenodd" d="M29.354832000000002 11.47416C29.501424 10.710911999999999 30.576048 11.16888 30.728688000000002 11.16888C31.033967999999998 11.32152 31.186607999999996 10.8636 30.881328 10.710911999999999C29.507519999999996 9.795024 28.591584 10.8636 28.896912 11.47416C29.049552 11.93208 29.507519999999996 11.779440000000001 29.354832000000002 11.47416Z" clip-rule="evenodd" stroke-width="1"></path><path fill="#000000" fill-rule="evenodd" d="M29.660207999999997 11.322C29.660207999999997 11.62728 29.965488 11.93256 30.270768 11.62728C30.881376000000003 11.16936 29.812848 10.558751999999998 29.660207999999997 11.322Z" clip-rule="evenodd" stroke-width="1"></path><path fill="#000000" fill-rule="evenodd" d="M26.037072 11.753568C25.579152 12.058848 26.037072 12.669456 26.342351999999998 12.364176C26.800368 11.906208 26.037072 11.448288 25.731792 12.058895999999999L26.037072 11.753568Z" clip-rule="evenodd" stroke-width="1"></path><path fill="#000000" fill-rule="evenodd" d="M30.118176 21.549024C29.202336 22.159584 28.744367999999998 22.922831999999996 28.897008 24.449328C28.897008 24.754607999999998 29.354975999999997 24.754607999999998 29.354975999999997 24.449328C29.507616 23.991312 29.660256 23.53344 29.812896 23.228112C30.423455999999998 21.701663999999997 30.728783999999997 21.701615999999998 30.423455999999998 21.396335999999998C30.423455999999998 21.396335999999998 30.270816 21.549024 30.118176 21.549024Z" clip-rule="evenodd" stroke-width="1"></path><path fill="#000000" fill-rule="evenodd" d="M28.74432 33.91392C28.59168 35.593056 28.43904 35.898384 28.896959999999996 38.798688C28.896959999999996 39.103968 29.354975999999997 39.103968 29.354975999999997 38.798688C29.507616 36.508992 29.660256 36.356304 29.202287999999996 33.91392C29.202287999999996 33.60864 28.74432 33.60864 28.74432 33.91392Z" clip-rule="evenodd" stroke-width="1"></path><path fill="#000000" fill-rule="evenodd" d="M33.629135999999995 21.396624C33.629135999999995 20.938655999999998 33.629135999999995 20.022816 33.32375999999999 19.870127999999998C33.171119999999995 19.717488 32.86584 19.564848 32.25528 20.175504L31.95 20.633376C31.797311999999998 20.786016 32.10264 21.091344 32.25528 20.938704C32.7132 20.480784 32.713248 20.480784 32.865888 20.328143999999998C33.018528 20.786064 32.865888 21.396624 32.865888 21.854592C33.018528 23.075808 33.476496 23.07576 34.087056000000004 22.159872C34.544976 21.549311999999997 34.697616 21.091344 35.002944 20.480784C35.613552 19.412256 36.224112 18.34368 36.224112 17.122512C36.224112 14.985408 34.239696 13.45896 34.087056000000004 14.069519999999999C33.934416 14.374848 34.239696 14.374848 34.544976 14.680128C35.155584 15.138048 35.613552 16.206624 35.460912 17.122463999999997C35.308271999999995 18.19104 34.697616 19.259567999999998 34.239696 20.022768C34.087056000000004 20.328096 33.781775999999994 21.091344 33.629135999999995 21.396624ZM33.629135999999995 22.00728C33.781775999999994 22.00728 33.781775999999994 22.00728 33.629135999999995 22.00728Z" clip-rule="evenodd" stroke-width="1"></path><path fill="#000000" fill-rule="evenodd" d="M26.149152 18.801647999999997C25.691184 20.175456 25.691184 20.786016 27.06504 21.701952C27.980928 22.312511999999998 27.980928 22.465152 28.133568 22.312511999999998C28.591535999999998 21.854592 26.759759999999996 21.091344 26.60712 19.717488C26.60712 18.954288000000002 26.607072 18.8016 26.454431999999997 18.64896C26.301792 18.64896 26.149152 18.649008 26.149152 18.801647999999997Z" clip-rule="evenodd" stroke-width="1"></path><path fill="#000000" fill-rule="evenodd" d="M26.454528 19.717488C26.149248 20.022816 25.84392 20.480688 26.301887999999998 20.633328C26.607168 20.785967999999997 26.607168 20.328096 26.912447999999998 20.328096C27.523056 20.633376 28.286303999999998 21.701904 28.591584 21.396527999999996C28.896863999999997 21.091248 27.370368 18.95424 26.454528 19.717488Z" clip-rule="evenodd" stroke-width="1"></path><path fill="#000000" fill-rule="evenodd" d="M25.996608 17.427984000000002C24.622752000000002 19.10712 22.790927999999997 19.10712 22.027728 19.717679999999998C21.41712 20.175696 21.26448 20.633568 20.806511999999998 20.938896C20.348591999999996 21.396816 19.432703999999998 21.702144 19.127423999999998 22.312704C18.669503999999996 23.075904 18.822144 23.686511999999997 18.516816000000002 24.449759999999998C17.906208 25.670927999999996 17.295648 26.281584 17.753568 27.655392C17.906208 27.960672 18.211488 27.808031999999997 18.211488 27.502703999999998C17.906208 26.281584 18.516863999999998 25.670976 19.127423999999998 24.755087999999997C19.432703999999998 24.14448 19.432703999999998 23.381279999999997 19.737984 22.770671999999998C20.043312 22.312752 20.80656 22.007423999999997 21.26448 21.702095999999997C21.722448 21.396816 22.027728 20.786255999999998 22.485648 20.480976C23.096304 20.023007999999997 25.080671999999996 19.87032 26.454528 17.885904C26.607168 17.427984000000002 26.149248 17.122656 25.996608 17.427984000000002Z" clip-rule="evenodd" stroke-width="1"></path><path fill="#000000" fill-rule="evenodd" d="M19.585392 24.602159999999998C19.890672 26.281295999999998 20.34864 26.586575999999997 21.417168 27.960432C21.569808 28.265711999999997 22.027776 27.960432 21.875135999999998 27.807791999999996C20.80656 25.212719999999997 20.65392 25.518 20.196 24.44952C19.890672 24.144192 19.432703999999998 24.296832 19.585392 24.602159999999998Z" clip-rule="evenodd" stroke-width="1"></path><path fill="#000000" fill-rule="evenodd" d="M20.959248 25.365408C21.722544 27.502512 20.959248 29.944895999999996 21.264528 31.929312C21.264528 32.38728 21.417216 32.8452 21.417216 33.455808V34.676928C21.569904 35.898144 21.875135999999998 36.050784 21.875135999999998 37.424592C21.875135999999998 38.798448 21.569855999999998 39.256415999999994 22.027824 39.256415999999994C22.180463999999997 39.256415999999994 22.333104 39.103728 22.333104 39.103728C22.333104 38.187887999999994 22.638384 37.424640000000004 22.485744 36.203424C22.333104 35.592864 22.333104 35.287583999999995 22.180463999999997 34.676928C22.027824 31.013424 21.875184 33.303168 22.027824 29.944848C22.027824 28.265711999999997 22.027824 26.739216 21.417216 25.212768C21.264528 24.754848 20.806607999999997 25.060128 20.959248 25.365408Z" clip-rule="evenodd" stroke-width="1"></path><path fill="#000000" fill-rule="evenodd" d="M17.753568 31.471583999999996C17.448287999999998 32.6928 18.822144 33.761328 19.890672 34.524575999999996C21.56976 35.898384 21.56976 36.051024 21.875087999999998 35.898384C22.333008 35.440464 19.737984 33.15071999999999 19.280064 32.845439999999996C18.974784 32.540112 18.364175999999997 32.08224 18.364175999999997 31.624223999999995C18.211536 31.166304 17.753568 31.166304 17.753568 31.471583999999996Z" clip-rule="evenodd" stroke-width="1"></path><path fill="#000000" fill-rule="evenodd" d="M17.143056 27.807744C15.463872 29.181551999999996 15.61656 30.555408 16.685087999999997 31.165968000000003C16.990368 31.318608 17.143056 31.013327999999994 16.990368 30.860687999999996C16.532448 30.402768 16.685087999999997 29.944752 16.837728 29.334192L17.448336 28.113024C17.753615999999997 27.960383999999998 17.448336 27.655056 17.143056 27.807744Z" clip-rule="evenodd" stroke-width="1"></path><path fill="#000000" fill-rule="evenodd" d="M13.326815999999999 34.066320000000005C12.868896 34.3716 11.3424 35.287535999999996 11.800367999999999 35.745456C11.953008 35.898096 12.105599999999999 35.592768 12.716256 35.287488C13.326815999999999 34.829567999999995 13.479455999999999 34.829567999999995 13.784735999999999 34.67688C14.242752 34.3716 14.090015999999999 33.761039999999994 14.700671999999999 33.150383999999995C15.921839999999998 31.929264 15.954288 30.791376 16.717536 29.570207999999997C16.717536 29.417519999999996 16.717584 29.264879999999998 16.564944 29.264879999999998C16.106928 28.959600000000002 15.311231999999999 31.318656 14.090063999999998 32.539824C13.479455999999999 33.150432 13.479455999999999 33.608399999999996 13.326815999999999 34.066320000000005Z" clip-rule="evenodd" stroke-width="1"></path><path fill="#000000" fill-rule="evenodd" d="M32.713055999999995 32.082336C34.086864 31.166400000000003 35.0028 29.334671999999998 34.850111999999996 28.418736C35.0028 28.418736 35.15544 28.571424 35.15544 28.571424C35.766 29.182032 38.055744 29.945231999999997 38.208431999999995 30.250512C38.36107199999999 30.55584 38.513664 30.55584 38.818992 30.403200000000002C39.88752 29.792592 41.261328 30.09792 41.719296 31.166447999999995C42.024575999999996 31.929648 43.398432 30.250512 44.92488 30.861168C45.382848 31.013807999999997 45.840768 30.861168 46.298736 30.861168C47.061983999999995 30.708479999999998 47.061983999999995 31.013759999999998 47.214624 30.708479999999998C47.367264 30.403152 46.909344 30.250512 46.604016 30.250512C46.14609599999999 30.250512 45.382896 30.55584 45.077568 30.250512C44.16168 29.792592 43.093151999999996 30.097872 42.024575999999996 30.555791999999997C41.414016 29.334623999999998 39.88752 28.876703999999997 38.666304 29.487312C38.361024 29.182032 36.071279999999994 28.266096 35.766 27.808176C35.460719999999995 27.502848 35.15544 27.350208 34.850111999999996 27.350208C34.697472 27.350208 34.392144 27.044928 34.086864 27.350208C33.628944 27.808224 34.544784 28.113456 33.323616 29.945231999999997C32.560416 31.013759999999998 32.560416 30.861119999999996 31.949856 31.31904C30.881279999999997 31.929648 33.781583999999995 33.761472 34.086864 33.914111999999996C35.0028 34.677312 35.15544 35.745888 36.987216000000004 36.35644799999999C38.361024 36.814416 38.666352 36.509088 40.498128 37.424976C42.787872 38.493552 43.245791999999994 38.951471999999995 43.551072 38.646192C43.551072 38.493552 43.551072 38.340912 43.398432 38.340912C42.482544000000004 37.882896 41.719296 37.424976 40.803456 36.967056C38.361024 35.745888 36.987216000000004 36.203807999999995 35.766 34.982639999999996C35.30808 34.52472 35.0028 33.914111999999996 34.544832 33.456143999999995C34.086864 32.998224 33.170975999999996 32.692896000000005 32.713055999999995 32.082288Z" clip-rule="evenodd" stroke-width="1"></path><path fill="#000000" fill-rule="evenodd" d="M46.90944 33.150672C46.451471999999995 32.234832 46.146144 31.776864000000003 44.924976 31.166255999999997C44.619696 31.013616 44.467056 31.318895999999995 44.619696 31.471536C45.688224 32.540063999999994 44.924976 32.082192 46.451423999999996 33.303312C46.7568 33.76128 47.06208 33.456 46.90944 33.150672Z" clip-rule="evenodd" stroke-width="1"></path><path fill="#000000" fill-rule="evenodd" d="M41.71944 31.166447999999995C42.17736 33.76152 42.940656 33.456143999999995 43.703856 34.21944C43.80072 34.316304 43.911503999999994 34.284528 44.009184 34.21944C44.46710399999999 33.914159999999995 43.703856 33.761472 42.17736 31.013807999999997C42.17736 30.708528 41.71944 30.861168 41.71944 31.166447999999995Z" clip-rule="evenodd" stroke-width="1"></path><path fill="#000000" fill-rule="evenodd" d="M38.36112 30.250463999999997C37.9032 31.318991999999998 36.682032 32.998128 35.460816 33.914016000000004C35.155536 34.066656 35.460816 34.524575999999996 35.766096 34.371936C37.445232000000004 33.456048 38.51376 32.38752 38.81904 30.555744C38.81904 30.097775999999996 38.51376 29.945135999999998 38.36112 30.250463999999997Z" clip-rule="evenodd" stroke-width="1"></path><path fill="#000000" fill-rule="evenodd" d="M29.16912 27.363695999999997C28.711199999999998 27.516336 28.59168 27.655535999999998 28.59168 27.960815999999998C28.59168 28.266096 28.74432 28.571375999999997 28.896959999999996 28.876703999999997C28.59168 29.487312 28.74432 29.639951999999997 29.202287999999996 30.250512C28.74432 30.708479999999998 29.507568 32.082288 31.949951999999996 32.082288C32.25528 32.082288 32.25528 31.624319999999997 31.949951999999996 31.624319999999997C31.339344 31.624319999999997 29.965535999999997 31.166400000000003 29.812896 30.555791999999997C29.965535999999997 30.403104 30.118176 30.403152 29.965488 30.097872C29.965488 29.639903999999998 29.354928 29.334623999999998 29.354928 29.334623999999998C29.202287999999996 29.334623999999998 29.507568 29.029344 29.507568 29.029344C29.660207999999997 28.876656 29.507568 28.724016 29.507568 28.571375999999997C29.354928 28.418736 29.049647999999998 27.808176 29.202287999999996 27.808176C29.202287999999996 27.808176 29.641151999999998 27.76344 29.641151999999998 27.610751999999998C29.641151999999998 27.22176 29.347967999999998 27.225456 29.43096 26.703647999999998C29.43096 26.703647999999998 29.660207999999997 26.43432 31.186704000000002 26.7396C31.491984 26.89224 31.644672 26.43432 31.339344 26.28168C30.576144 25.976399999999998 29.507616 25.823711999999997 29.049647999999998 26.43432C29.049647999999998 26.43432 28.789295999999997 27.096335999999997 29.16912 27.363695999999997Z" clip-rule="evenodd" stroke-width="1"></path><path fill="#000000" fill-rule="evenodd" d="M29.507616 25.365312C34.087056000000004 25.365312 33.934416 28.418304 34.544976 28.113024C34.697616 28.113024 34.697616 27.960336 34.697616 27.807695999999996C33.629135999999995 25.823279999999997 33.476448 25.060031999999996 31.034064 24.754752C27.82848 24.296784 28.43904 25.975967999999998 30.576144 26.586527999999998C30.881472 26.739168 31.034064 26.2812 30.728783999999997 26.12856C30.270816 25.97592 29.660256 25.517951999999998 29.507616 25.365312Z" clip-rule="evenodd" stroke-width="1"></path><path fill="#000000" fill-rule="evenodd" d="M28.591535999999998 24.602256C27.523056 24.449616 24.317376 23.991647999999998 23.401536 25.060223999999998C22.943568 25.518143999999996 23.096255999999997 26.434032 23.248896 27.197232C23.859455999999998 31.471391999999998 23.706816 32.845248 24.927984000000002 33.303216C25.538591999999998 33.608496 26.9124 33.608496 27.675696 33.303216C29.049504 32.845248 29.049504 31.318752 29.507423999999997 29.792256C29.507423999999997 29.639616 29.507472 29.486976 29.354832000000002 29.486976C28.744176 29.334335999999997 28.896816 32.234688000000006 27.523056 32.692608C26.912447999999998 32.845248 25.843871999999998 32.692608 25.385952 32.539968C24.622704 32.234688000000006 24.775392 31.776767999999997 24.470064 29.639663999999996C23.859455999999998 25.976112 23.554176 25.670735999999998 24.317376 25.365456000000002C24.622704 25.212815999999997 25.538591999999998 25.060223999999998 26.45448 25.060223999999998C28.438896 25.060223999999998 28.896816 25.365456000000002 28.896816 24.907536C28.896816 24.754896 28.744176 24.602256 28.591535999999998 24.602256Z" clip-rule="evenodd" stroke-width="1"></path><path fill="#000000" fill-rule="evenodd" d="M24.470064 25.518336C24.775343999999997 26.434224 26.9124 26.434271999999996 28.591535999999998 25.670976C28.744176 25.670976 28.744176 25.518336 28.744176 25.365696C28.591535999999998 25.060416 28.438896 25.213055999999998 27.675648 25.365696C27.523007999999997 25.365696 25.080624 25.518336 24.927984000000002 25.365696C24.775343999999997 25.060416 24.317376 25.213055999999998 24.470064 25.518336Z" clip-rule="evenodd" stroke-width="1"></path><path fill="#000000" fill-rule="evenodd" d="M11.037023999999999 36.051072H10.731744C10.426464000000001 36.203712 10.121184 36.3564 9.968544 36.967008C9.815904 37.272287999999996 10.121136 37.424927999999994 10.426416 37.272287999999996C11.037023999999999 36.661728000000004 11.342352 36.96696 11.494992 36.81432C11.800272 36.81432 12.105599999999999 36.3564 12.258239999999999 36.051072C12.716208 35.593151999999996 12.868847999999998 35.593151999999996 13.784688 35.898432C14.089967999999999 36.051072 14.242656 35.593151999999996 13.937328 35.440512C13.021488 34.829952 12.410832 34.677263999999994 11.647631999999998 35.440512C11.189712 35.745791999999994 11.189712 35.898432 11.037023999999999 36.051072ZM11.037023999999999 36.051072C11.189712 36.051072 11.189712 35.898432 11.037023999999999 36.051072Z" clip-rule="evenodd" stroke-width="1"></path><path fill="#000000" fill-rule="evenodd" d="M10.731792 37.424832C10.579151999999999 39.714575999999994 10.731792 39.256608 10.731792 40.325184C10.731792 40.630463999999996 11.189712 40.630463999999996 11.189712 40.325184C11.64768 38.951328 11.49504 38.340768 11.189712 37.272192000000004C11.037023999999999 37.119552 10.579151999999999 37.272192000000004 10.731792 37.424832Z" clip-rule="evenodd" stroke-width="1"></path><path fill="#000000" fill-rule="evenodd" d="M12.868799999999998 39.256512C12.563519999999999 39.103824 12.71616 38.035296 12.868799999999998 37.730016C13.02144 36.5088 13.326768 36.203520000000005 13.021488 36.203520000000005C12.868799999999998 36.203520000000005 12.71616 36.203520000000005 12.71616 36.35616C12.563519999999999 36.814128 12.258192 37.424688 12.105552 37.882656C11.494992 40.172352000000004 13.174128 40.9356 14.090015999999999 39.103775999999996C14.395296 38.493216 14.395296 37.882656 14.700576 37.424640000000004C14.853215999999998 37.272 14.547936 36.966767999999995 14.395296 37.119408C13.632048 37.730016 13.479408 38.798496 12.868799999999998 39.256512Z" clip-rule="evenodd" stroke-width="1"></path><path fill="#000000" fill-rule="evenodd" d="M10.884383999999999 40.172352000000004C10.884383999999999 41.698848 12.563471999999999 41.698848 12.868847999999998 40.324992C12.868847999999998 40.172352000000004 13.02144 39.256464 12.71616 39.256464S12.563519999999999 39.409152 12.258239999999999 40.019712C12.105552 40.324992 11.952912 40.477632 11.800272 40.477632S11.494992 40.172352000000004 11.342352 40.019712C11.189712 39.867072 10.884383999999999 39.867072 10.884383999999999 40.172352000000004Z" clip-rule="evenodd" stroke-width="1"></path><path fill="#000000" fill-rule="evenodd" d="M13.632192 39.103775999999996C15.005999999999998 39.714383999999995 14.39544 39.256464 14.85336 40.019664C15.921935999999997 41.54616 17.601024 40.477632 16.685136 38.493216C16.379855999999997 37.729968 15.769295999999999 36.966719999999995 15.311327999999998 36.5088C15.158688 36.35616 15.15864 36.35616 15.005999999999998 36.5088C14.700719999999999 36.81408 15.463968 37.272048 15.921935999999997 38.798496C16.074576 39.256464 16.074576 39.561744 15.921935999999997 39.867023999999994C15.769295999999999 40.172304 15.15864 39.409104 15.15864 39.256464C15.15864 39.103775999999996 15.005999999999998 38.951136 14.85336 38.951136C13.632192 38.645808 13.479552 38.493216 13.326911999999998 38.798496C13.479552 38.798496 13.479552 38.951136 13.632192 39.103775999999996Z" clip-rule="evenodd" stroke-width="1"></path><path fill="#000000" fill-rule="evenodd" d="M22.750896 41.747664C22.750896 42.816192 22.140287999999998 44.03736 22.903536 44.03736C26.414447999999997 43.73208 42.747792 44.495376 44.579519999999995 43.73208C45.648095999999995 43.274159999999995 45.800736 41.442384 45.037535999999996 40.679136C43.053072 38.84736 34.504751999999996 40.221168 30.841199999999997 40.526496C28.704144 40.679136 26.4144 40.373855999999996 24.277344 40.831776C23.972015999999996 40.831776 24.124656 41.289744 24.430031999999997 41.289744C26.567088000000002 40.831776 28.856832 41.289744 30.993888 41.137056C33.894192 40.984416 43.053072 39.763248000000004 44.579519999999995 41.289744C44.884848 41.595024 44.8848 42.81624 44.42688 42.96888C43.205712 43.57944 28.093535999999997 43.12152 23.361455999999997 43.4268C23.361455999999997 42.205583999999995 23.819376 40.984416 23.056176 41.137056C22.14024 41.289744 21.68232 41.289744 21.68232 41.595024C21.52968 42.052991999999996 21.987599999999997 41.900304 22.750896 41.747664Z" clip-rule="evenodd" stroke-width="1"></path><path fill="#000000" fill-rule="evenodd" d="M19.58544 40.172639999999994C19.4328 40.172639999999994 11.342448 43.07294399999999 11.18976 43.07294399999999C10.884479999999998 43.225584 11.03712 43.530864 11.342448 43.530864C13.937472 42.920303999999994 23.70696 40.32528 21.264575999999998 39.56208H20.654016000000002C17.295744 39.71472 16.990416 39.562032 16.990416 39.86736C16.990416 40.172639999999994 17.143056 40.019999999999996 19.58544 40.172639999999994ZM20.806656 40.172639999999994C20.959296 40.32528 20.959296 40.172639999999994 20.806656 40.172639999999994C20.959296 40.172639999999994 20.959296 40.172639999999994 20.806656 40.172639999999994Z" clip-rule="evenodd" stroke-width="1"></path><path fill="#000000" fill-rule="evenodd" d="M13.937472 35.44056C14.548079999999999 35.5932 15.463968 36.3564 16.074576 37.424927999999994C16.227216 37.730208 16.685136 37.577616 16.532496000000002 37.272335999999996C16.074576 35.5932 15.158688 34.982639999999996 13.937472 34.982639999999996C13.632192 34.982639999999996 13.632192 35.44056 13.937472 35.44056Z" clip-rule="evenodd" stroke-width="1"></path><path fill="#000000" fill-rule="evenodd" d="M18.669503999999996 38.950848C19.280064 38.798207999999995 19.737984 38.798207999999995 20.348591999999996 39.103536C20.653872 39.103536 20.806511999999998 38.950896 20.806511999999998 38.645616000000004C19.737984 35.134704 18.364128 35.134656 16.532352 34.371408C16.379712 34.371408 16.227071999999996 34.371408 16.227071999999996 34.524048C16.074431999999998 35.134704 17.906208 34.982064 19.127423999999998 36.96648C19.432703999999998 37.4244 19.585344 37.882368 19.890624 38.340288C19.432703999999998 38.340288 18.974784 38.340288 18.516768 38.645616000000004C18.211488 38.645616000000004 18.364175999999997 39.103488 18.669456 38.950848Z" clip-rule="evenodd" stroke-width="1"></path><path fill="#000000" fill-rule="evenodd" d="M16.68504 38.951376C19.280064 38.951376 21.722496 39.409392000000004 24.775439999999996 39.562032C25.386 39.562032 43.85644799999999 39.104016 47.062032 39.104016C47.36736 39.104016 47.36736 38.64609599999999 47.062032 38.64609599999999C38.81904 38.493455999999995 37.903152 38.798736 16.68504 38.64609599999999C16.379759999999997 38.493455999999995 16.379759999999997 38.951376 16.68504 38.951376Z" clip-rule="evenodd" stroke-width="1"></path><path fill="#000000" fill-rule="evenodd" d="M35.918783999999995 16.358928C39.887664 17.580144 43.856496 20.327808 45.688272 24.144C46.29888 25.517808 46.45152 27.349632 47.062127999999994 28.876127999999998C47.21476799999999 29.181408 47.519999999999996 29.028768 47.519999999999996 28.723488C46.45152 25.212528 47.21476799999999 19.10664 36.224064 15.901008C35.766144 15.748368 35.613504 16.206288 35.918783999999995 16.358928Z" clip-rule="evenodd" stroke-width="1"></path><path fill="#000000" fill-rule="evenodd" d="M41.108832 21.396431999999997C39.429696 24.449375999999997 39.78624 27.500256 40.020384 29.76984C40.020384 30.07512 40.478304 30.07512 40.478304 29.76984C40.478304 27.327456 40.650864 23.991408 41.566751999999994 21.701712C41.719392 21.243744 41.261472 21.091103999999998 41.108832 21.396431999999997Z" clip-rule="evenodd" stroke-width="1"></path><path fill="#000000" fill-rule="evenodd" d="M41.719344 30.402768C41.871984 29.792111999999996 43.093151999999996 27.807695999999996 43.24584 27.655056C44.314368 25.823279999999997 44.619648 25.823279999999997 44.467008 25.67064C44.314368 25.517951999999998 44.161728000000004 25.517951999999998 44.161728000000004 25.67064C42.482592 27.044448 41.719344 28.570943999999997 41.414064 30.402768C41.261424 30.555408 41.719344 30.708047999999998 41.719344 30.402768Z" clip-rule="evenodd" stroke-width="1"></path><path fill="#000000" fill-rule="evenodd" d="M20.806511999999998 39.867408000000005C19.585296 41.546544 16.532352 42.920352 14.700576 43.530912C14.395296 43.683552 14.547936 43.988928 14.853264 43.988928C17.600928 43.53095999999999 19.890624 42.61512 21.264432 40.172736C21.417071999999997 39.867408000000005 20.959152 39.562127999999994 20.806511999999998 39.867408000000005Z" clip-rule="evenodd" stroke-width="1"></path><path fill="#000000" fill-rule="evenodd" d="M4.3206240000000005 25.365552C4.625903999999999 25.365552 4.625903999999999 24.907632 4.3206240000000005 24.907632C-0.411504 23.991743999999997 -1.174704 25.670831999999997 4.3206240000000005 25.365552Z" clip-rule="evenodd" stroke-width="1"></path><path fill="#000000" fill-rule="evenodd" d="M6.304944 25.212672C7.6788 26.12856 7.83144 28.570943999999997 8.136719999999999 30.09744C8.289408 30.708047999999998 10.273824 40.019568 10.884383999999999 42.461952C10.884383999999999 42.767232 11.3424 42.614592 11.3424 42.309312C10.579104 38.187792 8.900015999999999 28.418304 7.9840800000000005 26.586527999999998C7.6788 25.823328 6.610271999999999 24.296832 6.152352 24.754752C6.304992 24.907391999999998 6.304944 25.060031999999996 6.304944 25.212672Z" clip-rule="evenodd" stroke-width="1"></path><path fill="#000000" fill-rule="evenodd" d="M0.809616 38.187936C2.641392 38.493216 4.0152 38.951136 6.457584 39.256464C7.5261119999999995 39.409104 8.74728 39.409104 9.815856 39.714383999999995C10.121136 39.867023999999994 10.273776 39.409104 9.968496 39.256464C8.594688 38.798496 3.4046399999999997 37.730016 0.809616 37.882656C0.504288 37.730016 0.504288 38.187936 0.809616 38.187936Z" clip-rule="evenodd" stroke-width="1"></path><path fill="#000000" fill-rule="evenodd" d="M0.809616 43.835616C4.3205279999999995 44.446175999999994 2.641392 44.598864 10.731744 44.751504C11.037023999999999 44.751504 11.037023999999999 44.293535999999996 10.731744 44.293535999999996C9.357887999999999 44.140896 6.457584 43.835616 0.809616 43.37764799999999C0.504288 43.225007999999995 0.504288 43.682976000000004 0.809616 43.835616Z" clip-rule="evenodd" stroke-width="1"></path></svg>