<svg xmlns="http://www.w3.org/2000/svg" fill="none" viewBox="0 0 48 48" height="48" width="48" id="Spanish-Laughing-Hand-Drawn--Streamline-Memes.svg"><desc>Spanish Laughing Hand Drawn Streamline Element: https://streamlinehq.com</desc><path fill="#000000" fill-rule="evenodd" d="M13.387488 13.84224C12.771263999999999 20.155008000000002 13.387488 19.847376 13.233215999999999 23.080896C12.925583999999999 30.471839999999997 11.385936 28.93176 16.466736 41.250144C19.392623999999998 48.641087999999996 24.935855999999998 48.641087999999996 28.477008 44.02176C28.631328 43.713648 28.323216 43.559856 28.169376 43.713648C25.089648 47.56296 20.008415999999997 48.179184 17.23728 40.942032C12.30936 28.316016 13.84944 30.317567999999998 14.003232 23.080896C14.003232 19.693103999999998 13.387008 20.155008000000002 13.84944 13.84224C14.003232 13.534128 13.541327999999998 13.534128 13.387488 13.84224Z" clip-rule="evenodd" stroke-width="1"></path><path fill="#000000" fill-rule="evenodd" d="M32.788272 40.018176C32.480592 41.403984 31.094832 44.637552 29.554703999999997 46.023312C29.247071999999996 46.177152 29.554703999999997 46.639536 29.862816 46.331424C31.864368 44.945616 32.942544 42.635951999999996 33.250175999999996 40.172496C33.250175999999996 39.864383999999994 32.788272 39.710063999999996 32.788272 40.018176Z" clip-rule="evenodd" stroke-width="1"></path><path fill="#000000" fill-rule="evenodd" d="M38.023824 24.774815999999998C38.331456 21.541296 40.79496 20.155488 41.565024 22.003248C42.181248 23.542848 41.257343999999996 25.390608 40.9488 27.08448C40.79496 28.162176 40.641119999999994 29.239872000000002 40.333487999999996 30.163728C40.025376 30.933792 39.255311999999996 31.857647999999998 38.331456 31.549536C37.561872 31.241903999999998 38.177664 32.319599999999994 38.177664 35.552687999999996C38.177664 35.861231999999994 38.639568 35.861231999999994 38.639568 35.552687999999996C38.639568 34.783103999999994 38.639568 33.551568 38.485296 32.16576C39.563472 32.319599999999994 40.487328 31.395743999999997 40.79496 30.47232C41.257343999999996 29.394192 41.257343999999996 28.316016 41.565024 27.392592C42.026928 25.698719999999998 42.950784 23.697119999999998 42.181248 21.848927999999997C41.103072 19.385423999999997 37.869552 20.617440000000002 37.4076 24.928656C37.561872 24.928656 38.023824 25.082928 38.023824 24.774815999999998Z" clip-rule="evenodd" stroke-width="1"></path><path fill="#000000" fill-rule="evenodd" d="M32.018208 6.913247999999999C31.710575999999996 6.913247999999999 31.556255999999998 7.375152 31.864368 7.375152C33.250175999999996 10.60872 33.404495999999995 14.304191999999999 31.248144 16.921968C30.940512 17.383872 31.710575999999996 17.538192 33.096384 19.077792C36.945648 23.389008 33.558288 28.316495999999997 33.712607999999996 28.624128C33.865968 29.086032 36.637536 30.163728 37.099488 29.856096C37.4076 29.701824 37.099488 29.547984 37.4076 28.162176C38.331456 21.079344 40.025376 21.695088 40.025376 21.079344C39.71726399999999 15.843791999999999 41.565024 8.453327999999999 35.867952 4.911648C35.55984 4.603536 35.251728 5.065488 32.018208 6.9132ZM32.32632 7.22136C33.8664 10.45488 34.17408 14.150352 32.018688 17.07624C33.095904 17.999664 34.02024 18.92352 34.790304 20.001215999999996C36.175632 22.31088 36.175632 25.698719999999998 34.790304 28.316016C35.406048 28.624128 35.86752 28.777967999999998 36.483744 28.93224C36.483744 27.700272 36.791855999999996 26.930207999999997 36.945648 25.698719999999998C37.25375999999999 23.85096 37.715711999999996 22.003248 39.255311999999996 20.617440000000002C39.10152 15.228048 40.682064 8.728992 35.600784 5.187792L32.3268 7.221311999999999Z" clip-rule="evenodd" stroke-width="1"></path><path fill="#000000" fill-rule="evenodd" d="M25.397327999999998 39.0948C23.703888 39.864816 22.318080000000002 39.864383999999994 21.086063999999997 39.402432C22.471872 39.864383999999994 24.011999999999997 39.556704 25.397759999999998 39.0948ZM20.316527999999998 34.93737599999999C21.856128 34.629264 22.318080000000002 35.861231999999994 25.397327999999998 35.091216L26.321664 35.245488C28.168896 35.091216 29.247071999999996 36.938928000000004 26.013551999999997 38.632368C27.24504 37.862832 26.783136 36.785136 25.70544 37.092768C24.935855999999998 37.24704 24.319632 37.708992 23.550048 37.862784C22.471872 38.017103999999996 20.47032 37.400879999999994 20.162208 38.786688C20.316527999999998 38.478576000000004 20.162208 38.786688 20.47032 39.0948C18.160656 37.862784 18.160656 36.015072 19.546464 35.245488V35.399328H19.700304C19.546464 37.24704 20.778432000000002 37.092768 20.932271999999998 36.47702399999999C20.932271999999998 35.8608 20.778432000000002 35.091216 20.316048 34.93737599999999Z" clip-rule="evenodd" stroke-width="1"></path><path fill="#000000" fill-rule="evenodd" d="M19.392623999999998 23.850479999999997C20.008415999999997 25.390608 19.700304 27.084048 19.238352 28.777967999999998C19.084512 29.0856 19.546464 29.239872000000002 19.700304 28.93176C20.62416 27.084048 21.086063999999997 25.390608 19.854096 23.696208C19.700304 23.388575999999997 19.238352 23.542368 19.392623999999998 23.850479999999997Z" clip-rule="evenodd" stroke-width="1"></path><path fill="#000000" fill-rule="evenodd" d="M25.243488 34.93737599999999C22.009968 35.706959999999995 21.240384 33.8592 19.392623999999998 34.93737599999999C16.466736 36.476544 19.700304 40.633919999999996 23.550048 40.018176C25.089648 39.710063999999996 26.936927999999998 38.786207999999995 27.861264 37.55472C28.938959999999998 36.168912 27.861264 34.783103999999994 26.321184 35.091216C26.013551999999997 35.091216 26.013551999999997 35.552687999999996 26.321184 35.552687999999996C27.399359999999998 35.398848 28.168896 36.322704 27.399359999999998 37.246607999999995C25.5516 39.402432 21.856128 40.172496 19.546464 37.862832C18.93024 37.092768 18.7764 36.168912 19.700304 35.55312C21.240384 34.628783999999996 21.856128 36.168912 25.397327999999998 35.245008C25.5516 35.245008 25.5516 34.936896 25.243488 34.936896Z" clip-rule="evenodd" stroke-width="1"></path><path fill="#000000" fill-rule="evenodd" d="M18.160656 28.93176C17.852543999999998 29.701824 17.852543999999998 30.6252 18.468287999999998 31.549536C20.316048 34.16688 22.625711999999996 31.549536 24.319632 31.703376C24.781536 31.703376 24.935855999999998 30.62568 22.009968 31.549536C21.086063999999997 31.857216 20.316527999999998 32.16576 19.546464 31.549536C18.622608 30.933312 18.468287999999998 30.009935999999996 18.468287999999998 29.0856C18.468287999999998 28.706448 18.160656 28.777967999999998 18.160656 28.93176Z" clip-rule="evenodd" stroke-width="1"></path><path fill="#000000" fill-rule="evenodd" d="M24.627744 29.393711999999997C26.167344 30.6252 26.321184 32.781071999999995 22.626192 31.703376C22.318080000000002 31.549104 22.16376 32.011008 22.471872 32.165327999999995C23.395775999999998 32.627232 24.319632 33.089183999999996 25.243488 32.781552C28.323216 32.011008 25.089648 28.469855999999996 24.627264 29.0856C24.473423999999998 29.0856 24.473423999999998 29.239872000000002 24.627264 29.393711999999997Z" clip-rule="evenodd" stroke-width="1"></path><path fill="#000000" fill-rule="evenodd" d="M24.781536 25.698719999999998C25.243488 25.698719999999998 26.629296 25.852512 29.554703999999997 25.852512C29.862816 25.852512 29.862816 25.390608 29.554703999999997 25.390608C27.706992 24.928656 26.629296 24.621024 24.627744 25.236767999999998C24.473423999999998 25.236767999999998 24.473423999999998 25.698719999999998 24.781536 25.698719999999998Z" clip-rule="evenodd" stroke-width="1"></path><path fill="#000000" fill-rule="evenodd" d="M14.619024 26.005872C14.927135999999999 26.005872 15.389039999999998 25.852032 15.696720000000001 25.852032C16.312944 25.69824 16.929168 25.54392 17.390592 25.54392C17.698704 25.54392 17.698704 25.082016 17.390592 25.082016C16.158624 24.928176 15.389039999999998 24.774384 14.311344 25.54392C14.157072 25.69824 14.311344 26.160144 14.619024 26.005872Z" clip-rule="evenodd" stroke-width="1"></path><path fill="#000000" fill-rule="evenodd" d="M29.655359999999998 22.08792C27.455327999999998 18.860927999999998 25.548768 22.821744 21.881999999999998 20.621184C22.321824 21.207791999999998 22.908432 21.794832 23.495472 21.941136C25.402032000000002 22.528176 28.188671999999997 21.354528 29.655359999999998 22.08792Z" clip-rule="evenodd" stroke-width="1"></path><path fill="#000000" fill-rule="evenodd" d="M24.082079999999998 21.647616C26.135376 21.794351999999996 27.454848 20.327664 28.922016 21.501312000000002H28.481711999999998C28.188671999999997 21.501312000000002 28.188671999999997 21.941136 28.481711999999998 21.941136C29.068319999999996 21.941136 29.361839999999997 22.08792 29.655407999999998 22.234175999999998C29.948448 22.38096 30.095232 22.08792 29.948448 21.794351999999996C27.601632 18.127584 25.548336 22.234175999999998 22.175088 20.18088C21.735263999999997 19.88784 21.441696 20.474448 21.588479999999997 20.767967999999996C23.78856 23.407823999999998 25.402032000000002 22.08792 27.748368 22.08792C28.041888 22.08792 28.041888 21.647616 27.748368 21.647616C26.5752 21.647616 25.108511999999997 21.941136 24.082079999999998 21.647616Z" clip-rule="evenodd" stroke-width="1"></path><path fill="#000000" fill-rule="evenodd" d="M24.935855999999998 26.775935999999998C25.5516 28.007904 26.783136 28.469376 28.168896 28.161744C28.477008 28.161744 28.477008 27.699792 28.168896 27.699792C27.24552 27.699792 25.859232 27.083568 25.397327999999998 26.622096C25.089648 26.160144 24.781536 26.468256 24.935855999999998 26.775935999999998Z" clip-rule="evenodd" stroke-width="1"></path><path fill="#000000" fill-rule="evenodd" d="M18.314496 26.314944C18.468767999999997 26.160624 18.160656 25.698719999999998 18.006816 26.006832C16.159104 27.392639999999997 15.389039999999998 26.776368 15.389039999999998 27.084048C15.234767999999999 27.700272 16.928687999999998 28.316495999999997 18.314975999999998 26.314464Z" clip-rule="evenodd" stroke-width="1"></path><path fill="#000000" fill-rule="evenodd" d="M22.615343999999997 31.952688C21.88152 31.952688 20.268528 32.702496 18.801792 31.827552C18.508751999999998 31.952688 18.068448 31.952688 17.775408 32.202479999999994C15.722111999999997 33.326736 16.308671999999998 36.326015999999996 17.628624 37.575407999999996C17.481887999999998 37.20048 17.1888 36.07574399999999 17.1888 35.576207999999994C17.1888 34.326816 18.655056 33.702096 19.975488 33.57696C21.148656 33.57696 21.001872 32.077824 21.148656 32.077824C21.148656 32.077824 21.588479999999997 33.327216 22.321824 33.451872C24.082079999999998 33.826752 26.721984 33.077424 27.602064 34.20168C27.748368 34.451471999999995 27.895152 35.076624 27.895152 35.325936C28.335456 34.951488 28.922016 34.576608 28.922016 34.077023999999994C29.0688 33.077424 27.015504 31.57776 25.695072 31.57776C24.66864 32.702016 23.935296 31.952688 22.615343999999997 31.952688Z" clip-rule="evenodd" stroke-width="1"></path><path fill="#000000" fill-rule="evenodd" d="M21.441696 33.327647999999996C22.615343999999997 34.951967999999994 26.5752 33.327647999999996 27.602064 34.57704C27.895152 34.826831999999996 27.748368 36.20136 28.335456 35.826432000000004C29.655359999999998 34.951488 29.948928 34.077023999999994 28.77528 32.952287999999996C27.308544 31.578239999999997 25.548288 31.20336 25.695072 31.828032H25.548288C24.37512 32.452704000000004 23.495472 31.578239999999997 22.17552 31.703376C21.441696 31.828032 21.588479999999997 31.952688 21.441696 31.828032C21.295392 31.828032 21.148656 31.828032 21.001872 31.953168C18.948576 32.077824 19.535184 30.953567999999997 17.774928 31.828032C15.575327999999999 32.952287999999996 15.868368 36.20136 17.481887999999998 37.825632C17.775408 38.20056 18.361535999999997 37.700495999999994 18.068448 37.325616000000004C17.921712 37.076304 17.775408 35.951568 17.628624 35.57664C17.628624 34.57704 18.948576 34.077023999999994 19.975008 34.077023999999994C20.708831999999997 34.077023999999994 21.148656 33.827712 21.441696 33.327647999999996ZM20.708352 32.57784C18.80184 32.702976 19.242096 31.828032 17.921712 32.452704000000004C17.188319999999997 32.827632 16.601760000000002 33.702096 16.89528 34.951967999999994C17.188319999999997 33.827231999999995 18.801792 33.20256 19.975008 33.20256C20.415312 33.20256 20.708831999999997 33.077424 20.708831999999997 32.57784ZM25.841856 31.953168C25.988591999999997 32.328047999999995 25.108511999999997 32.452704000000004 24.815424 32.452704000000004C23.641776 32.57784 23.348736 31.953168 21.881999999999998 32.328047999999995C22.028784 32.452704000000004 22.028784 32.702496 22.17504 32.827632C23.201952 33.951888 27.748368 31.952688 28.335456 34.826831999999996C28.77528 34.451952 29.0688 34.077023999999994 28.77528 33.57744C28.481711999999998 33.077424 27.748368 32.453184 27.308544 32.20296C26.428895999999998 31.953168 25.988591999999997 31.953168 25.841856 31.953168Z" clip-rule="evenodd" stroke-width="1"></path><path fill="#000000" fill-rule="evenodd" d="M19.700304 40.326288C21.856128 42.32784 25.089648 42.019728 27.091248 40.018176C27.24552 39.864383999999994 26.937407999999998 39.402432 26.783568 39.710544C24.935855999999998 41.250192 21.856128 41.250192 20.008415999999997 40.018176C19.854576 39.864383999999994 19.546464 40.172496 19.700736 40.326288Z" clip-rule="evenodd" stroke-width="1"></path><path fill="#000000" fill-rule="evenodd" d="M28.70376 33.998928C28.858031999999998 34.615152 29.011872 36.46243199999999 28.54992 37.38628799999999C28.396127999999997 37.6944 28.858031999999998 37.84824 29.011872 37.6944C30.090048 36.46243199999999 29.935728 35.230464 29.319983999999998 33.84465599999999C29.011872 33.537023999999995 28.54992 33.690816 28.70376 33.998928Z" clip-rule="evenodd" stroke-width="1"></path><path fill="#000000" fill-rule="evenodd" d="M18.361535999999997 22.38048C18.508272 21.940655999999997 18.508272 21.207311999999998 18.508272 20.767008C18.508272 20.180448 18.361535999999997 21.207311999999998 17.921712 21.207311999999998C17.628144 21.207311999999998 17.628144 20.767008 16.454976 20.473488C14.988287999999999 20.034143999999998 13.815072 21.207311999999998 13.815072 21.500352V22.527264C15.135024 21.647616 17.188319999999997 22.233744 18.361535999999997 22.38048Z" clip-rule="evenodd" stroke-width="1"></path><path fill="#000000" fill-rule="evenodd" d="M18.215232 22.527744C18.655056 22.820784 18.801792 21.79392 18.801792 21.207791999999998C18.801792 20.767488 18.948576 20.327664 18.508272 20.327664C18.215232 20.327664 18.068448 20.767488 17.921712 20.914271999999997C16.161455999999998 19.741056 14.548464 20.034623999999997 13.668336 21.207311999999998C13.375248000000001 21.500832 13.375248000000001 21.794351999999996 13.521551999999998 22.08744C13.521551999999998 22.67448 13.521551999999998 22.967568 13.815072 23.114304C14.254896 23.261087999999997 14.254896 22.527744 15.574848 22.38048C16.8948 22.234175999999998 18.067967999999997 22.674 18.215232 22.527744ZM18.215232 21.647616C17.774928 21.940655999999997 17.628144 21.647616 16.89528 21.207791999999998C16.015152 20.767488 15.135024 20.914271999999997 14.547984 21.500832C14.40216 21.500832 14.10864 21.794351999999996 14.254896 21.794351999999996C13.961856 22.674 14.401679999999999 21.207791999999998 18.215232 22.234175999999998V21.647616Z" clip-rule="evenodd" stroke-width="1"></path><path fill="#000000" fill-rule="evenodd" d="M20.555472 10.133616C17.937696 7.823904000000001 15.54288 8.452848 14.157072 10.916832C14.927135999999999 6.2974559999999995 19.854576 2.4481919999999997 24.627744 1.9857599999999997C25.243968 1.9857599999999997 29.092799999999997 1.6776479999999998 29.247071999999996 1.6776479999999998C32.56056 1.5544319999999998 35.252207999999996 5.219328 35.71416 4.911216C36.035903999999995 4.696224 34.119504 3.05736 33.503280000000004 2.595408C32.42558399999999 1.825824 31.463616 1.061904 29.555184 0.908064C24.156864 0.47342399999999996 19.855055999999998 1.216176 16.005263999999997 5.5274399999999995C14.157552 7.528992 13.079856 10.146768 13.387967999999999 12.918384C13.387967999999999 13.380287999999998 14.003711999999998 13.380287999999998 14.157552 12.918384C14.927567999999999 9.531024 17.099424 8.117472 20.178672 10.581408C20.47032 10.814736 20.709743999999997 10.287408 20.555951999999998 10.133616Z" clip-rule="evenodd" stroke-width="1"></path><path fill="#000000" fill-rule="evenodd" d="M17.698704 6.913247999999999C19.084512 7.06704 20.47032 8.606687999999998 21.239904 9.684816C21.394175999999998 9.992496 21.856128 9.684816 21.701856 9.530543999999999C20.777952 7.682784 19.700304 6.2970239999999995 17.698704 6.451296C17.390592 6.451296 17.390592 6.913247999999999 17.698704 6.913247999999999Z" clip-rule="evenodd" stroke-width="1"></path><path fill="#000000" fill-rule="evenodd" d="M21.548016 4.603536C21.701856 4.911648 22.779984 7.22136 22.933823999999998 7.529472C23.550048 8.91528 23.395775999999998 9.069071999999998 23.703888 9.069071999999998C23.85768 9.069071999999998 23.85768 8.91528 23.85768 8.760959999999999C23.703888 6.605568 23.088096 5.5274399999999995 22.009968 4.295904C21.701856 4.1416319999999995 21.393744 4.449744 21.548016 4.603584Z" clip-rule="evenodd" stroke-width="1"></path><path fill="#000000" fill-rule="evenodd" d="M24.627744 3.8339999999999996C24.935376 4.449744 25.859232 7.06704 26.013551999999997 8.145216C26.013551999999997 8.452848 26.475456 8.452848 26.475456 8.145216C26.629296 5.989344 26.013551999999997 4.911648 24.935855999999998 3.525888C24.781536 3.217776 24.473423999999998 3.525888 24.627744 3.8339999999999996Z" clip-rule="evenodd" stroke-width="1"></path><path fill="#000000" fill-rule="evenodd" d="M27.707472 3.2172959999999997C29.247071999999996 4.141152 30.940512 5.52696 31.710575999999996 7.220879999999999C31.864368 7.528992 32.17248 7.3746719999999994 32.17248 7.06704C31.556255999999998 4.757376 30.170927999999996 3.5254079999999997 28.015104 2.7558239999999996C27.553152 2.601552 27.398880000000002 3.063456 27.707472 3.2172959999999997Z" clip-rule="evenodd" stroke-width="1"></path><path fill="#000000" fill-rule="evenodd" d="M33.404495999999995 6.143664C33.250175999999996 4.757376 32.480592 4.1416319999999995 31.248623999999996 3.371568C30.940512 3.217776 30.786719999999995 3.525888 30.940512 3.67968C31.556736 4.295904 32.788272 5.835552 32.942544 6.2974559999999995C33.096384 6.605087999999999 33.558288 6.451296 33.404495999999995 6.143664Z" clip-rule="evenodd" stroke-width="1"></path><path fill="#000000" fill-rule="evenodd" d="M34.682112000000004 5.352431999999999C34.373999999999995 4.274736 33.912048 3.50472 32.52624 2.888928C32.218128 2.735136 32.064288 3.042768 32.218128 3.19704C33.141984 3.966624 34.21968 5.660544 34.527792 5.660544C34.682112000000004 5.506752 34.682112000000004 5.506752 34.682112000000004 5.352431999999999Z" clip-rule="evenodd" stroke-width="1"></path><path fill="#000000" fill-rule="evenodd" d="M39.871104 31.087632C40.179216 34.628783999999996 38.023824 37.55472 36.021792 40.78776C34.944576 42.48168 33.404495999999995 44.791343999999995 32.018688 46.177152C31.864368 46.330992 32.17248 46.639103999999996 32.32632 46.485264C35.097936 43.559376 39.10152 38.170463999999996 40.025376 34.628783999999996C40.179216 33.704927999999995 40.6416 30.779519999999998 40.025376 30.779519999999998C40.025376 30.933312 39.871536 30.933312 39.871536 31.087632Z" clip-rule="evenodd" stroke-width="1"></path><path fill="#000000" fill-rule="evenodd" d="M40.79544 30.317567999999998C42.181248 31.241423999999995 42.33503999999999 32.473440000000004 44.644704 33.551088C45.414288 34.01304 46.338144 34.167311999999995 47.108208 35.090736C47.26248 35.398848 47.724432 35.090736 47.41632 34.783103999999994C46.338623999999996 33.242976 45.106656 33.242976 43.413216 31.703376C40.487328 28.93176 40.641119999999994 30.163728 40.79544 30.317567999999998Z" clip-rule="evenodd" stroke-width="1"></path><path fill="#000000" fill-rule="evenodd" d="M41.410704 32.473440000000004C41.410704 36.168912 39.10104 40.942511999999994 36.791376 43.713648C36.637536 44.02176 36.945648 44.175599999999996 37.099488 44.02176C40.179216 40.480128 42.026928 37.092768 41.873135999999995 32.473440000000004C41.873135999999995 32.16576 41.410704 32.16576 41.410704 32.473440000000004Z" clip-rule="evenodd" stroke-width="1"></path><path fill="#000000" fill-rule="evenodd" d="M0.915264 39.864383999999994C3.532608 37.400879999999994 5.2264800000000005 36.938448 8.151936 36.476544C12.309312 35.8608 12.155520000000001 35.245008 14.311344 34.629264C14.465183999999999 34.629264 14.465183999999999 34.474992 14.465183999999999 34.321152C14.311344 33.859247999999994 13.387488 34.474992 10.923551999999999 35.245008C7.07424 36.322704 5.22696 34.936896 0.607632 39.710544C0.29952 39.710544 0.607632 40.018176 0.915264 39.864383999999994Z" clip-rule="evenodd" stroke-width="1"></path><path fill="#000000" fill-rule="evenodd" d="M15.697151999999997 39.248591999999995C15.389039999999998 42.32784 16.004784 44.791824 18.314496 47.101488C18.468287999999998 47.255328 18.93072 46.947216000000004 18.622608 46.793375999999995C16.929119999999998 44.945616 16.158624 41.865936 16.158624 39.402432C16.312896 38.94048 15.850992 38.94048 15.696672 39.248591999999995Z" clip-rule="evenodd" stroke-width="1"></path><path fill="#000000" fill-rule="evenodd" d="M14.157072 35.245008C13.69512 36.784656 13.540848 37.862784 14.003232 40.172496C14.003232 40.480128 14.465183999999999 40.480128 14.465183999999999 40.172496C14.465183999999999 39.402432 14.619024 39.402432 14.619024 35.398848C14.619024 34.936896 14.157072 34.936896 14.157072 35.245008Z" clip-rule="evenodd" stroke-width="1"></path><path fill="#000000" fill-rule="evenodd" d="M44.644704 38.786688C42.951264 42.020208000000004 43.104623999999994 42.020208000000004 42.33503999999999 43.713648C42.18076799999999 44.02176 42.642672 44.175599999999996 42.796991999999996 43.867968C44.336592 41.712095999999995 44.490432 40.788239999999995 45.106656 38.786688C45.260495999999996 38.786688 44.79854399999999 38.632368 44.644704 38.786688Z" clip-rule="evenodd" stroke-width="1"></path><path fill="#000000" fill-rule="evenodd" d="M26.629296 3.67968C28.630847999999997 6.759408 28.168896 7.528992 28.630847999999997 7.528992C29.092799999999997 7.528992 28.78512 5.989344 28.630847999999997 5.681232C28.323216 4.604016 27.706992 3.987792 27.091248 3.371568C26.783136 3.217776 26.321184 3.525888 26.629296 3.67968Z" clip-rule="evenodd" stroke-width="1"></path><path fill="#000000" fill-rule="evenodd" d="M39.10152 28.469855999999996C39.409152 25.852512 40.162272 23.974704 40.333008 24.0048C40.333008 24.0048 40.426607999999995 23.978928 40.487328 24.158592C40.641119999999994 24.312431999999998 40.948319999999995 24.158592 40.79496 23.850479999999997C39.871104 22.618992 38.79340799999999 25.082496 38.639568 26.468256C38.485296 27.08448 38.639568 27.854063999999997 38.639568 28.469855999999996C38.639568 28.777967999999998 39.10152 28.777967999999998 39.10152 28.469855999999996Z" clip-rule="evenodd" stroke-width="1"></path></svg>