<svg xmlns="http://www.w3.org/2000/svg" fill="none" viewBox="0 0 48 48" height="48" width="48" id="Spanish-Laughing--Streamline-Memes.svg"><desc>Spanish Laughing Streamline Element: https://streamlinehq.com</desc><path stroke="#000000" stroke-linecap="round" stroke-linejoin="round" d="M27.258 38.223c-0.456 1.114 -1.044 2.512 -4.609 2.229 -2.48 -0.198 -4.898 -6.58 -6.28 -10.833 -1.382 -4.254 -0.304 -11.636 0 -15.806 0.375 -2.923 2.444 -8.35 10.257 -8.35 9.765 0 10.292 13.338 9.767 15.229" stroke-width="1"></path><path stroke="#000000" stroke-linecap="round" stroke-linejoin="round" d="M27.257 30.931h-7.771C19.398 32.035 20.984 35.115 23 35c2.016 -0.115 4.17 -2.966 4.257 -4.069Z" stroke-width="1"></path><path fill="#000000" d="M18.022 31.877c-0.17 -2.578 1.864 -2.665 2.896 -2.862h5.421c1.249 0 2.384 1.882 1.817 2.862 -0.625 -0.722 -1.25 -0.567 -4.94 -0.67 -3.69 -0.104 -4.06 0.402 -5.194 0.67Z" stroke-width="1"></path><path stroke="#000000" stroke-linecap="round" stroke-linejoin="round" d="m20.875 30.931 0.42 1.274 0.998 -0.27v-1.003" stroke-width="1"></path><path stroke="#000000" stroke-linecap="round" stroke-linejoin="round" d="M21.523 34.523c0.341 -0.478 3.094 -2.76 4.672 -1.593" stroke-width="1"></path><path stroke="#000000" stroke-linecap="round" stroke-linejoin="round" d="M24.63 26.888c0.735 0.105 2.18 1.287 1.444 1.838 -0.735 0.551 -5.225 0.436 -5.96 0.184 -0.919 -0.315 0.026 -1.628 0.735 -2.153 0.272 -0.779 0.63 -1.602 -0.21 -4.989" stroke-width="1"></path><path stroke="#000000" stroke-linecap="round" stroke-linejoin="round" d="M16.858 20.85c1.165 -0.312 1.761 -0.26 2.784 0" stroke-width="1"></path><path stroke="#000000" stroke-linecap="round" stroke-linejoin="round" d="M23.79 20.85h3.676" stroke-width="1"></path><path stroke="#000000" stroke-linecap="round" stroke-linejoin="round" d="M16.91 23.738c0.159 -0.814 1.892 -0.51 2.732 0" stroke-width="1"></path><path stroke="#000000" stroke-linecap="round" stroke-linejoin="round" d="M27.702 23.749c-0.186 -0.62 -1.417 -0.679 -2.698 0" stroke-width="1"></path><path stroke="#000000" stroke-linecap="round" stroke-linejoin="round" d="M35.132 20.692c2.206 -0.63 3.361 6.721 0 7.877" stroke-width="1"></path><path stroke="#000000" stroke-linecap="round" stroke-linejoin="round" d="M36.708 27.308c-1.093 8.99 -7.65 13.898 -10.555 15.229 0 0 -2.248 -1.11 -2.965 -2.037" stroke-width="1"></path><path fill="#000000" d="M21.427 12.29c-0.672 -0.966 -2.897 -1.593 -3.965 -1.838l0.332 -0.688c1.404 -2.256 4.036 -4.3 8.832 -4.3 9.765 0 10.292 13.337 9.767 15.228 -0.534 -0.093 -0.925 -0.126 -1.313 0l-0.315 5.566c-0.158 -0.07 -0.777 -0.231 -1.996 -0.315 0.998 -7.247 -1.837 -6.144 -2.573 -7.614 -0.588 -1.177 -0.507 -6.25 -0.262 -8.875 -2.267 0.242 -7.082 1.755 -8.507 2.836Z" stroke-width="1"></path><path stroke="#000000" stroke-linecap="round" stroke-linejoin="round" d="M36.708 27.387c3.186 1.995 9.704 7.625 10.292 14.178" stroke-width="1"></path><path stroke="#000000" stroke-linecap="round" stroke-linejoin="round" d="M16.688 30.688C12.043 31.087 0.813 36.508 0.813 42.535" stroke-width="1"></path></svg>