<svg xmlns="http://www.w3.org/2000/svg" fill="none" viewBox="0 0 48 48" height="48" width="48" id="Success-Kid--Streamline-Memes.svg"><desc>Success Kid Streamline Element: https://streamlinehq.com</desc><path stroke="#000000" stroke-linecap="round" stroke-linejoin="round" d="M15.61 37.63c0.286 -1.114 0.544 -1.885 1.015 -2.844 0.338 -0.688 1.18 -0.94 1.868 -0.598v0c0.592 0.294 0.939 0.97 0.635 1.557a5.739 5.739 0 0 1 -0.534 0.818" stroke-width="1"></path><path stroke="#000000" stroke-linecap="round" stroke-linejoin="round" d="M20.813 38a5.19 5.19 0 0 0 0.452 -0.597c0.342 -0.531 0.21 -1.24 -0.265 -1.656v0c-0.495 -0.431 -1.26 -0.457 -1.712 0.02a3.126 3.126 0 0 0 -0.6 0.89" stroke-width="1"></path><path stroke="#000000" stroke-linecap="round" stroke-linejoin="round" d="M22.688 39.438c0.239 -0.314 0.39 -0.57 0.525 -0.878 0.2 -0.456 0.024 -0.983 -0.37 -1.285v0c-0.472 -0.362 -1.148 -0.317 -1.543 0.126 -0.176 0.198 -0.327 0.381 -0.519 0.63" stroke-width="1"></path><path stroke="#000000" stroke-linecap="round" stroke-linejoin="round" d="M22.688 39.406c0.142 -0.184 0.239 -0.304 0.32 -0.409 0.34 -0.439 0.967 -0.555 1.393 -0.199v0c0.302 0.252 0.414 0.67 0.253 1.028 -0.685 1.524 -1.493 2.321 -3.204 3.498 -4.106 0.093 -6.053 -0.605 -8.821 -3.342 0 0 -0.242 -1.255 -0.016 -2.98 0.16 -1.225 0.812 -1.928 1.543 -1.877" stroke-width="1"></path><path stroke="#000000" stroke-linecap="round" stroke-linejoin="round" d="M12.563 39.654c0 2.185 -3.683 5.972 -4.654 6.583" stroke-width="1"></path><path stroke="#000000" stroke-linecap="round" stroke-linejoin="round" d="M21.438 43.328c-0.353 0.658 -1.53 2.753 -1.78 2.905" stroke-width="1"></path><path stroke="#000000" stroke-linecap="round" stroke-linejoin="round" d="M12.172 29.578c-3.694 1.35 -9.656 10.009 -7.94 16.655" stroke-width="1"></path><path stroke="#000000" stroke-linecap="round" stroke-linejoin="round" d="M31.156 28.203c6.04 0 10.821 8.739 12.922 18.276" stroke-width="1"></path><path stroke="#000000" stroke-linejoin="round" d="M11.472 10.767c0.198 -0.597 0.34 -1.207 0.49 -1.817 0.987 -3.983 4.25 -7.067 8.373 -7.604 1.89 -0.246 3.523 -0.411 3.996 -0.321 0.465 0.088 1.936 0.727 3.634 1.51 3.873 1.789 6.11 5.839 5.762 10.044 -0.04 0.483 -0.086 0.962 -0.092 1.447 -0.072 5.84 -0.69 17.556 -7.913 18.255 -1.848 0.178 -4.01 0.22 -6.17 -0.111 -2.16 -0.332 -4.21 -1.02 -5.919 -1.744 -6.588 -2.792 -4.024 -14.037 -2.16 -19.659Z" stroke-width="1"></path><path stroke="#000000" stroke-linecap="round" stroke-linejoin="round" d="M10.531 14.016c3.96 0.087 13.263 -0.757 15.889 -4.538 0.84 1.523 0.59 5.382 1.772 5.908 1.182 0.525 2.823 -3.873 2.823 -3.873l2.391 7.315" stroke-width="1"></path><path stroke="#000000" stroke-linecap="round" stroke-linejoin="round" d="M33.281 20.219c1.858 -0.03 2.224 2.415 1.6 4.001l-0.21 0.533c-0.566 1.44 -1.947 1.957 -2.733 1.638" stroke-width="1"></path><path stroke="#000000" stroke-linecap="round" stroke-linejoin="round" d="M13.158 16.982c0.717 -0.732 2.628 -0.1 5.09 1.017" stroke-width="1"></path><path stroke="#000000" stroke-linecap="round" stroke-linejoin="round" d="M27.875 19.25c-0.416 -0.936 -2.163 -0.938 -4.86 -0.751" stroke-width="1"></path><path stroke="#000000" stroke-linecap="round" stroke-linejoin="round" d="M16.149 26.3a9.836 9.836 0 0 1 3.41 -0.08c1.2 0.175 2.302 0.547 3.244 1.056" stroke-width="1"></path><path stroke="#000000" stroke-linecap="round" stroke-linejoin="round" d="M22.659 26.276s-0.042 1.43 0.751 1.925" stroke-width="1"></path><path stroke="#000000" stroke-linecap="round" stroke-linejoin="round" d="M16.23 25.54s0.043 1.43 -0.751 1.926" stroke-width="1"></path><path stroke="#000000" stroke-linecap="round" stroke-linejoin="round" d="M19.815 29.269c-0.237 -0.13 -0.803 -0.342 -1.167 -0.162" stroke-width="1"></path><path stroke="#000000" stroke-linecap="round" stroke-linejoin="round" d="M17.271 22.956c0.69 -0.984 1.893 0.154 2.396 0.722 0.8 -0.268 2.33 -1.05 2.692 0.099" stroke-width="1"></path><path stroke="#000000" stroke-linecap="round" stroke-linejoin="round" d="M22.022 9.28c-0.656 1.38 -1.933 3.151 -3.194 3.939" stroke-width="1"></path><path stroke="#000000" stroke-linecap="round" stroke-linejoin="round" d="M17.4 9.839c-0.656 1.378 -2.03 3.248 -3.29 4.036" stroke-width="1"></path><path fill="#000000" fill-rule="evenodd" d="M24.312 19.049a1.194 1.194 0 1 0 0 2.388 1.194 1.194 0 0 0 0 -2.388Z" clip-rule="evenodd" stroke-width="1"></path><path fill="#000000" fill-rule="evenodd" d="M16.216 18.116a1.194 1.194 0 1 0 0 2.389 1.194 1.194 0 0 0 0 -2.389Z" clip-rule="evenodd" stroke-width="1"></path><path stroke="#000000" stroke-linecap="round" stroke-linejoin="round" d="M14.563 34.106c-0.443 1.01 -0.28 2.843 0.937 3.769l1.423 -3.769c-0.512 -1.06 -1.84 -1.189 -2.36 0Z" stroke-width="1"></path></svg>