<svg xmlns="http://www.w3.org/2000/svg" fill="none" viewBox="0 0 48 48" height="48" width="48" id="The-Rock--Streamline-Memes.svg"><desc>The Rock Streamline Element: https://streamlinehq.com</desc><path stroke="#000000" stroke-linecap="round" d="M4.955 44.833c2.216 -1.446 5.54 -3.131 5.54 -7.948 0 -1.698 -0.222 -4.231 -0.372 -7.791m31.44 -9.625C43.59 10.022 36.422 1 26.76 1h-1.193C18.414 1 11.945 5.695 10.88 12.768a82.146 82.146 0 0 0 -0.758 7.103" stroke-width="1"></path><path stroke="#000000" stroke-linecap="round" d="M38.258 34.906 36.34 43.84A4 4 0 0 1 32.43 47h-5.045a4 4 0 0 1 -2.6 -0.96L17.6 39.895" stroke-width="1"></path><path stroke="#000000" stroke-linecap="round" stroke-linejoin="round" d="M22.656 14.005c3.473 -2.754 7.423 -3.365 11.256 3.617a0.474 0.474 0 0 0 0.175 0.183c1.24 0.694 1.702 -0.693 1.936 -1.512" stroke-width="1"></path><path stroke="#000000" stroke-linecap="round" stroke-linejoin="round" d="M36.143 19.785c0.321 3.071 1.325 8.67 1.927 10.898 0.519 1.919 -3.338 2.185 -4.42 2.222a0.532 0.532 0 0 1 -0.436 -0.221c-0.505 -0.66 -2.137 -2.37 -3.935 0.227" stroke-width="1"></path><path stroke="#000000" stroke-linecap="round" stroke-linejoin="round" d="M26.088 38.812s1.024 -0.422 2.409 -0.542c1.385 -0.12 6.442 0 6.442 0" stroke-width="1"></path><path stroke="#000000" stroke-linecap="round" stroke-linejoin="round" d="M38.47 19.497c2.18 -0.521 3.552 0 4.575 0.782" stroke-width="1"></path><path stroke="#000000" d="M32.27 20.514c-0.254 1.547 -2.632 2.444 -5.31 2.003 -2.678 -0.44 -4.643 -2.052 -4.389 -3.598 0.255 -1.547 2.705 -3.608 5.384 -3.168 2.678 0.44 4.57 3.217 4.316 4.763Z" stroke-width="1"></path><path stroke="#000000" stroke-linecap="round" d="M39.433 25.503c1.273 0.21 2.47 -0.618 2.673 -1.847a2.23 2.23 0 0 0 -0.666 -1.969" stroke-width="1"></path><path stroke="#000000" stroke-linecap="round" stroke-linejoin="round" d="M22.295 11.717c1.299 -1.361 2.186 -1.715 3.974 -1.806" stroke-width="1"></path><path stroke="#000000" stroke-linecap="round" stroke-linejoin="round" d="M16.636 23.835c0.92 2.497 3.357 3.798 4.816 4.094" stroke-width="1"></path><path stroke="#000000" stroke-linecap="round" d="M11.337 21.111c-0.406 -0.822 -0.96 -1.328 -1.57 -1.328 -1.242 0 -2.25 2.099 -2.25 4.688 0 2.588 1.008 4.687 2.25 4.687 0.468 0 0.903 -0.297 1.263 -0.806" stroke-width="1"></path><path fill="#000000" fill-rule="evenodd" d="M26.534 17.92a1.5 1.5 0 1 0 0 3.002 1.5 1.5 0 0 0 0 -3.002Z" clip-rule="evenodd" stroke-width="1"></path><path fill="#000000" fill-rule="evenodd" d="M38.934 21.466a1.5 1.5 0 1 0 0 3.002 1.5 1.5 0 0 0 0 -3.002Z" clip-rule="evenodd" stroke-width="1"></path></svg>