<svg xmlns="http://www.w3.org/2000/svg" fill="none" viewBox="0 0 48 48" height="48" width="48" id="The-Rock-Hand-Drawn--Streamline-Memes.svg"><desc>The Rock Hand Drawn Streamline Element: https://streamlinehq.com</desc><path fill="#000000" fill-rule="evenodd" d="M41.62992 24.319679999999998c2.0654399999999997 -2.85984 1.4304 -3.33648 1.5888 -4.92576 0.31776 -2.70096 1.4304 -3.972 -1.42992 -10.00992 -0.9532799999999999 -1.9070399999999998 -1.74768 -3.6547199999999997 -3.49536 -4.76688 -7.15056 -4.7664 -19.38528 -1.4304 -21.76848 10.487039999999999 -0.7944 -0.63552 -1.5888 -0.63552 -2.2247999999999997 0 -1.9065599999999998 1.74768 -1.27104 9.69216 1.27152 10.487039999999999 -1.27152 5.71968 -1.11264 7.944 -2.8603199999999998 10.64544 -0.9532799999999999 1.4304 -3.0192 2.06592 -4.44912 3.0192 -1.9065599999999998 1.27104 -3.1776 2.70096 -4.92528 3.972 -0.95376 0.636 -2.2247999999999997 0.95376 -3.0192 1.5888 -0.31776 0.15936 0 0.636 0.31776 0.31824 0.9532799999999999 -0.63552 2.22432 -0.9532799999999999 3.0192 -1.5888 1.7472 -1.27152 3.1776 -2.70144 5.08416 -3.8136 4.13136 -2.54208 5.56128 -1.5888 6.99168 -10.8048 0.47663999999999995 -2.70096 1.27104 -4.13136 0.47663999999999995 -3.9724799999999996 -2.2247999999999997 0.15888 -2.70144 -10.327679999999999 -0.31776 -9.216 0.63552 0.31824 0.7944 0.95376 1.27104 0.95376 0.63552 -0.15888 0.1584 -1.11216 1.4304 -4.29024C22.24464 2.86944 34.89312 0.87456 39.66 6.9124799999999995c1.11216 1.27104 2.6208 5.09136 3.09792 6.83952 0.7944 3.0192 0.0014399999999999999 3.11616 -0.15744 6.61152 -0.15888 2.06592 -1.35648 3.2592 -1.23408 3.65424 0 0 0.10415999999999999 0.3024 0.26304 0.3024Z" clip-rule="evenodd" stroke-width="1"></path><path fill="#000000" fill-rule="evenodd" d="M37.1808 37.03104c1.11264 0.63552 2.2247999999999997 0.9532799999999999 3.1776 1.5888 0.7948799999999999 0.47712 1.5892799999999998 1.4304 2.54256 1.9070399999999998 0.7948799999999999 0.47663999999999995 1.5888 0.63552 2.38368 0.9532799999999999 0.7944 0.31776 1.27104 0.63552 2.3832 0.9532799999999999 0.31776 0.15888 0.47663999999999995 -0.31776 0.15888 -0.47663999999999995 -0.63552 -0.31776 -1.42992 -0.7944 -2.22432 -1.27104 -0.7944 -0.31776 -1.5888 -0.63552 -2.22432 -1.11216 -0.95376 -0.63552 -1.5888 -1.4304 -2.54256 -1.9070399999999998 -1.11216 -0.63552 -2.3832 -0.7944 -3.49584 -1.27104 -0.31776 0.15888 -0.47663999999999995 0.63552 -0.1584 0.63552Z" clip-rule="evenodd" stroke-width="1"></path><path fill="#000000" fill-rule="evenodd" d="M17.796 30.039839999999998c-0.15888 4.92528 0.9532799999999999 6.67344 4.44912 9.69216 3.0192 2.54256 3.972 4.13136 7.944479999999999 4.29024 3.6547199999999997 0.1584 4.608 -1.27104 6.0384 -4.13136 0.31728 -0.63552 0.9528 -1.27104 1.27056 -2.0654399999999997 0.31776 -0.63552 -0.1584 -1.11216 0 -1.5888 0.31776 -1.11264 0.9532799999999999 -2.38368 1.4304 -3.6547199999999997 0.1584 -0.63552 0.1584 -0.9532799999999999 0.31776 -1.4304 0.63552 -1.7472 3.65424 -2.0654399999999997 2.3832 -7.1495999999999995 -0.15888 -0.31776 -0.47663999999999995 -0.15936 -0.47663999999999995 0.1584 0.31776 1.11264 0.31776 2.8603199999999998 -0.15888 3.9724799999999996 -0.47663999999999995 1.11216 -1.9065599999999998 1.5888 -2.2247999999999997 2.8603199999999998 -0.1584 0.47663999999999995 -0.1584 0.9532799999999999 -0.31776 1.42992 -0.63552 1.74768 -1.7472 3.1776 -1.5888 4.608 0.15888 0.7944 -0.7944 1.42992 -1.27104 2.3832 -0.7944 1.74768 -1.4304 3.33696 -3.6547199999999997 3.6547199999999997 -0.9532799999999999 0.1584 -2.22432 0 -3.1776 -0.15888 -1.11216 -0.15888 -2.06592 -0.63552 -3.33696 -1.5888 -0.47663999999999995 -0.31824 -4.130879999999999 -3.33696 -5.084639999999999 -4.608 -2.85984 -3.33696 -1.42992 -6.99168 -2.22432 -6.99168 -0.15888 0.15888 -0.31776 0.15888 -0.31776 0.31824Z" clip-rule="evenodd" stroke-width="1"></path><path fill="#000000" fill-rule="evenodd" d="M38.7696 16.3752c0.31824 0.63552 0.15936 1.11216 0 1.74768 -0.1584 0.47663999999999995 -0.63552 1.4304 -0.9532799999999999 1.74768 -0.31776 0.31824 -0.7944 0.15888 -0.63552 0.47712 0 1.27104 4.13136 -2.06592 2.2247999999999997 -4.29024 -0.47663999999999995 -0.31776 -0.7948799999999999 0 -0.636 0.31776Z" clip-rule="evenodd" stroke-width="1"></path><path fill="#000000" fill-rule="evenodd" d="M36.54528 17.964c-1.42992 -0.63552 -4.44864 -7.944479999999999 -9.85104 -2.22432 -0.15888 0.1584 0.1584 0.47663999999999995 0.31776 0.31776 4.92576 -4.92576 7.46784 2.0654399999999997 9.53328 2.54208 0.63552 0.1584 1.27152 -1.11216 1.27152 -1.9065599999999998 0 -0.31776 -0.47712 -0.31776 -0.47712 0s-0.31776 0.9532799999999999 -0.7944 1.27104Z" clip-rule="evenodd" stroke-width="1"></path><path fill="#000000" fill-rule="evenodd" d="M30.66624 12.4032c-1.9065599999999998 -0.31824 -3.1776 0.31728 -4.13136 1.7472 -0.1584 0.31824 0.15888 0.47712 0.31776 0.31824 0.9532799999999999 -0.9532799999999999 2.8603199999999998 -1.4304 3.8136 -1.5888 0.31776 0 0.31776 -0.47712 0 -0.47712Z" clip-rule="evenodd" stroke-width="1"></path><path fill="#000000" fill-rule="evenodd" d="M39.722879999999996 20.665439999999997c0.636 -0.15888 1.11264 -0.07968 1.9070399999999998 0.31776 0.31776 0.1584 0.9532799999999999 0.31776 1.11216 0.63552 0.15888 0.31776 0.47663999999999995 0.15888 0.47663999999999995 -0.15888 -0.1584 -0.7944 -1.5888 -1.4304 -2.3832 -1.5888 -0.47663999999999995 0 -1.11264 0.13440000000000002 -1.32384 0.5102399999999999 -0.1584 0.1584 0.0528 0.44304 0.2112 0.28415999999999997Z" clip-rule="evenodd" stroke-width="1"></path><path fill="#000000" fill-rule="evenodd" d="M33.36768 20.982719999999997c-2.2247999999999997 -5.56128 -7.944959999999999 -2.3832 -6.3556799999999996 -0.1584 1.42992 1.9065599999999998 6.67344 0.9532799999999999 6.3552 0.1584Zm-0.63552 0c-2.70144 0.7948799999999999 -5.56128 -0.1584 -5.084639999999999 -1.11216 0.9532799999999999 -1.74768 3.6547199999999997 -1.74768 5.084639999999999 1.11216Z" clip-rule="evenodd" stroke-width="1"></path><path fill="#000000" fill-rule="evenodd" d="M29.459039999999998 18.94608c-0.7891199999999999 0.47375999999999996 -0.6312 1.4207999999999998 0 1.57872 0.94704 0.31536000000000003 1.89408 -0.63168 1.10496 -1.2628799999999998 -0.47328 -0.31584 -1.10496 -0.47375999999999996 -1.5782399999999999 0l0.47328 -0.31584Z" clip-rule="evenodd" stroke-width="1"></path><path fill="#000000" fill-rule="evenodd" d="M28.511999999999997 20.208479999999998c0.31584 1.4207999999999998 2.8415999999999997 1.10496 2.6832 -0.31536000000000003 0 -1.57872 -3.1564799999999997 -1.57872 -2.6832 0.31536000000000003Zm0.94704 -0.94704c-0.31536000000000003 0.47375999999999996 -0.15744 0.7896 0.1584 0.94704 0.47328 0.1584 1.1044800000000001 -0.31536000000000003 0.78864 -0.6312 -0.31536000000000003 -0.31584 -0.7891199999999999 -0.31584 -0.94704 -0.31584Z" clip-rule="evenodd" stroke-width="1"></path><path fill="#000000" fill-rule="evenodd" d="M32.4144 17.48688c0.1584 0.31776 0.31776 0.7948799999999999 0.47663999999999995 0.9532799999999999 0.47663999999999995 0.95376 0.63552 1.11264 0.7944 1.4304 0 0.31776 0.47663999999999995 0.1584 0.47663999999999995 -0.15888 0 -1.4304 -0.47663999999999995 -2.06592 -1.27104 -2.70144 -0.31776 0 -0.636 0.31776 -0.47712 0.47663999999999995Z" clip-rule="evenodd" stroke-width="1"></path><path fill="#000000" fill-rule="evenodd" d="M32.5728 22.25376c-1.9065599999999998 1.4304 -2.3832 2.38368 -3.33648 2.0654399999999997 -0.15888 0 -0.31776 0 -0.31776 0.15936 -0.31824 0.47663999999999995 1.27104 1.27104 2.85984 -0.31824 0.31776 -0.31776 0.9532799999999999 -1.11216 1.11216 -1.42992 0.15888 -0.31776 -0.1584 -0.63552 -0.31776 -0.47663999999999995Z" clip-rule="evenodd" stroke-width="1"></path><path fill="#000000" fill-rule="evenodd" d="M37.816320000000005 21.936c0.47663999999999995 4.7664 0.15888 4.29024 0.31776 5.243519999999999 0.31824 1.27104 1.74816 2.0654399999999997 0.31824 3.0192 -3.17808 2.22432 -2.70144 0.1584 -3.33696 -0.47712 -0.47663999999999995 -0.47663999999999995 -1.27104 -0.47663999999999995 -2.0654399999999997 0.15888 -0.47663999999999995 0.47712 -0.7948799999999999 0.95376 -1.27152 0.7948799999999999 -1.42992 -0.47712 -1.42992 -2.2247999999999997 -0.1584 -2.8603199999999998 0.31728 -0.1584 0.1584 -0.63552 -0.15936 -0.47663999999999995 -2.70096 1.27104 -0.47663999999999995 5.56128 1.9070399999999998 3.49584 0.31776 -0.31824 0.47663999999999995 -0.47663999999999995 0.9532799999999999 -0.47663999999999995 0.63552 0 0.31776 0.7944 0.9532799999999999 1.42992 0.9532799999999999 0.9532799999999999 2.54208 0.1584 3.8136 -0.63552 1.11216 -0.7948799999999999 1.27104 -1.74816 0.47663999999999995 -2.8603199999999998 -1.11216 -1.9065599999999998 -0.47663999999999995 -1.5888 -0.9532799999999999 -4.13136 -0.31776 -2.22432 -0.31776 -2.3832 -0.636 -2.3832 -0.1584 0 -0.1584 0.15888 -0.1584 0.15888Z" clip-rule="evenodd" stroke-width="1"></path><path fill="#000000" fill-rule="evenodd" d="M37.89359999999999 21.8736c-0.15888 0.15936 0.1584 0.636 0.31776 0.31824 0.7944 -0.63552 2.85984 0.9532799999999999 3.1776 0.63552 0.47663999999999995 -0.47663999999999995 -2.22432 -2.3832 -3.49536 -0.9532799999999999Z" clip-rule="evenodd" stroke-width="1"></path><path fill="#000000" fill-rule="evenodd" d="M39.57792 22.39584c0 1.09728 -1.09728 0.78384 -1.09728 0.31344 0 -0.62688 0.9408 -1.09728 1.09728 -0.31344 0.15696 0.15648 0 0.31344 0 0.4704v-0.4704Z" clip-rule="evenodd" stroke-width="1"></path><path fill="#000000" fill-rule="evenodd" d="M39.7344 22.865759999999998c0.7843199999999999 -1.56768 -1.72416 -1.72464 -1.72416 -0.15648 0 0.78384 1.4112 1.25424 1.72464 0.15648Zm-0.31344 -0.4704c-0.15648 -0.15648 -0.62688 0.31392 -0.31344 0.31392 0.15696 0 0.15696 -0.15696 0.31344 -0.31392Z" clip-rule="evenodd" stroke-width="1"></path><path fill="#000000" fill-rule="evenodd" d="M40.835519999999995 22.730399999999996c-0.15888 0.15888 -1.11216 1.11216 -1.4304 1.11216 -0.31728 0 -0.31728 0.47712 0 0.47712 0.7948799999999999 0.31776 1.74816 -0.15888 1.9070399999999998 -1.4304 0 -0.1584 -0.31776 -0.31776 -0.47663999999999995 -0.1584Z" clip-rule="evenodd" stroke-width="1"></path><path fill="#000000" fill-rule="evenodd" d="M28.6008 34.1712c-0.63552 0.31776 -1.27104 0.47663999999999995 -1.5888 1.5888 -0.15888 0.31776 0.31776 0.47663999999999995 0.47663999999999995 0.15888 0.47663999999999995 -0.47663999999999995 0.7137600000000001 -0.6312 1.42992 -1.4304 0.31776 -0.1584 0 -0.47615999999999997 -0.31776 -0.31728Z" clip-rule="evenodd" stroke-width="1"></path><path fill="#000000" fill-rule="evenodd" d="M28.44192 35.28384c2.0654399999999997 0.9532799999999999 2.85984 0.47663999999999995 3.9724799999999996 0.47663999999999995 1.7472 0.1584 1.9065599999999998 1.11216 2.85984 0.47663999999999995 0.47663999999999995 -0.31776 0.9532799999999999 0 1.4304 -0.15888 0.47615999999999997 0 0.9532799999999999 -0.31776 0.6350399999999999 -0.63552 -0.1584 -0.15888 -0.31776 0.1584 -0.63552 0.1584 -0.63552 0 -0.9532799999999999 -0.47615999999999997 -1.9065599999999998 0 -0.47663999999999995 0.31824 -0.47663999999999995 -0.1584 -1.74768 -0.47615999999999997 -1.5888 -0.47663999999999995 -2.06592 0.31776 -3.6547199999999997 0 -0.9532799999999999 -0.15888 -1.11216 -0.47663999999999995 -1.27104 -0.15888 0.1584 0.1584 0.1584 0.31776 0.31776 0.31776Z" clip-rule="evenodd" stroke-width="1"></path><path fill="#000000" fill-rule="evenodd" d="M31.619519999999998 37.98432c1.5888 0.7944 3.0192 0.7944 4.449599999999999 0 0.31728 -0.15888 0.1584 -0.63552 -0.15936 -0.47663999999999995 -0.9532799999999999 0.31776 -3.49536 0.1584 -4.130879999999999 0 -0.31824 0 -0.47712 0.47663999999999995 -0.15936 0.47663999999999995Z" clip-rule="evenodd" stroke-width="1"></path><path fill="#000000" fill-rule="evenodd" d="M26.376 31.152c-0.7944 0.636 -1.27104 0.95376 -1.5888 2.38368 -0.15888 0.31776 0.31776 0.47663999999999995 0.47663999999999995 0.15888 0.15888 -0.31776 0.65856 -0.6816 0.9532799999999999 -1.27104 0.15888 -0.31776 0.47663999999999995 -0.7944 0.47663999999999995 -0.9532799999999999 0.19727999999999998 -0.24768 -0.1584 -0.47663999999999995 -0.31776 -0.31776Z" clip-rule="evenodd" stroke-width="1"></path><path fill="#000000" fill-rule="evenodd" d="M7.30896 40.05024c0.63552 1.74768 0.9532799999999999 3.6547199999999997 3.1776 5.243519999999999 0.31824 0.15888 0.47712 -0.15888 0.31824 -0.31776 -0.63552 -0.63552 -1.11216 -1.4304 -1.4304 -2.0654399999999997 -1.27104 -2.38368 -1.5888 -3.1776 -1.9065599999999998 -3.0192 -0.1584 -0.1584 -0.31776 0 -0.1584 0.15888Z" clip-rule="evenodd" stroke-width="1"></path><path fill="#000000" fill-rule="evenodd" d="M36.1632 38.9376c-0.7948799999999999 3.17808 -0.95376 4.608 -1.5892799999999998 5.72016 -0.15888 0.31776 0.1584 0.47663999999999995 0.31776 0.31776 1.74768 -1.9065599999999998 1.5888 -4.289759999999999 1.74768 -5.87904 0.15888 -0.31776 -0.31776 -0.47663999999999995 -0.47663999999999995 -0.1584Z" clip-rule="evenodd" stroke-width="1"></path><path fill="#000000" fill-rule="evenodd" d="M15.09504 18.281760000000002c0.31776 -0.9532799999999999 0.63552 -0.47663999999999995 0.7944 0 0.1584 0.7944 -0.63552 1.9065599999999998 0 3.0192 0.1584 0.31776 0.9532799999999999 1.11216 0.7944 1.9065599999999998 -0.15888 0.31776 -0.31776 0 -0.47663999999999995 0.31776 -0.15888 0.31776 0.47663999999999995 0.63552 0.9532799999999999 0.15888 0.7944 -0.9532799999999999 -0.31776 -2.54256 -0.47663999999999995 -2.70096 -0.31776 -0.636 0.31776 -1.74816 0 -2.8603199999999998 -0.31776 -1.27104 -1.74768 -1.4304 -1.9065599999999998 0.15888 -0.31776 0.31776 0.1584 0.31776 0.31776 0Z" clip-rule="evenodd" stroke-width="1"></path></svg>