<svg xmlns="http://www.w3.org/2000/svg" fill="none" viewBox="0 0 48 48" height="48" width="48" id="Thinking-Face--Streamline-Memes.svg"><desc>Thinking Face Streamline Element: https://streamlinehq.com</desc><path stroke="#000000" stroke-linecap="round" stroke-linejoin="round" d="M34.38 46.2c6.784 -4.073 11.388 -12.016 11.388 -21.147C45.768 11.77 36.022 1 24 1S2.232 11.769 2.232 25.053c0 3.771 0.649 7.087 2.049 10.264" stroke-width="1"></path><path stroke="#000000" stroke-linecap="round" stroke-linejoin="round" d="M27.156 16.187c5.118 -1.136 10.146 1.254 12.016 2.47" stroke-width="1"></path><path stroke="#000000" stroke-linecap="round" stroke-linejoin="round" d="M7.766 13.313c6.737 -1.755 11.382 1.477 13.329 4.422" stroke-width="1"></path><path stroke="#000000" stroke-linecap="round" stroke-linejoin="round" d="M26.25 21.797c4.494 2.646 10.063 2.004 12.203 1.39" stroke-width="1"></path><path stroke="#000000" stroke-linecap="round" stroke-linejoin="round" d="M6.75 19.375c5.071 3.175 11.252 1.91 13.713 1.097" stroke-width="1"></path><path stroke="#000000" stroke-linecap="round" stroke-linejoin="round" d="M25.985 19.951a6.658 6.658 0 1 0 13.316 0 6.658 6.658 0 1 0 -13.316 0" stroke-width="1"></path><path stroke="#000000" stroke-linecap="round" stroke-linejoin="round" d="M6.497 17.454a7.299 7.299 0 1 0 14.598 0 7.299 7.299 0 1 0 -14.598 0" stroke-width="1"></path><path stroke="#000000" stroke-linecap="round" stroke-linejoin="round" d="M36.792 9.171c1.906 -1.443 4.477 -1.896 6.76 -1.247" stroke-width="1"></path><path stroke="#000000" stroke-linecap="round" stroke-linejoin="round" d="M15.878 4.685c4.13 1.395 6.072 5.16 6.9 7.772" stroke-width="1"></path><path stroke="#000000" stroke-linecap="round" stroke-linejoin="round" d="m20.479 34.676 2.433 0.769" stroke-width="1"></path><path stroke="#000000" stroke-linecap="round" stroke-linejoin="round" d="M14.62 46.83c-2.99 -2.028 -6.998 -6.514 -7.696 -8.174 -0.698 -1.66 0.436 -3.149 1.996 -2.435 3.895 1.783 9.233 8.017 12.761 8.017 3.549 0 4.201 -2.698 7.95 -3.559 3.75 -0.86 4.466 -0.129 4.22 0.978 -0.246 1.106 -4.872 3.145 -5.241 5.174" stroke-width="1"></path><path stroke="#000000" stroke-linecap="round" stroke-linejoin="round" d="M10.557 43.332c-0.583 -0.376 -1.908 -0.835 -2.54 0.338 -0.632 1.174 0.79 2.71 1.58 3.33" stroke-width="1"></path><path fill="#000000" fill-rule="evenodd" d="M9.275 13.9a1.25 1.25 0 1 0 0 2.5 1.25 1.25 0 0 0 0 -2.5Z" clip-rule="evenodd" stroke-width="1"></path><path fill="#000000" fill-rule="evenodd" d="M28.546 16.954a1.25 1.25 0 1 0 0 2.5 1.25 1.25 0 0 0 0 -2.5Z" clip-rule="evenodd" stroke-width="1"></path></svg>