<svg xmlns="http://www.w3.org/2000/svg" fill="none" viewBox="0 0 48 48" height="48" width="48" id="Thinking-Face-Hand-Drawn--Streamline-Memes.svg"><desc>Thinking Face Hand Drawn Streamline Element: https://streamlinehq.com</desc><path fill="#000000" fill-rule="evenodd" d="M5.84136 39.595776C4.742592 36.298511999999995 1.445328 32.451840000000004 1.9952159999999999 22.194623999999997C2.1781439999999996 17.981088 2.727552 14.134464 5.109024 10.654224C10.237872 3.32736 20.129136 0.029615999999999996 28.188864 2.045136C37.897152 4.426608 43.026048 10.8372 45.590447999999995 20.728992C48.154895999999994 30.986687999999997 41.92776 44.358191999999995 37.164815999999995 46.190256C36.798912 46.373232 36.981888 46.739664 37.348271999999994 46.739664C42.47712 44.724624 48.888192 31.169664 46.323792000000005 20.545536C43.758863999999996 10.287792 38.44656 3.693792 28.37232 1.129344C19.762752000000003 -1.0691519999999999 9.505008 2.411568 4.193232 10.104864C0.34656 15.783071999999999 0.34656 26.95656 2.727552 33.91752C3.460368 35.749103999999996 4.742592 38.130576 5.291952 39.779232C5.475408 40.145136 6.0248159999999995 39.96216 5.84136 39.595776Z" clip-rule="evenodd" stroke-width="1"></path><path fill="#000000" fill-rule="evenodd" d="M32.625119999999995 47.332272C34.273776 40.737744 37.74552 40.695024 37.562064 37.214304C37.562064 35.749103999999996 34.599936 36.115536 33.317712 36.664896C30.93624 37.763664 29.471040000000002 40.328112000000004 28.371792 42.709584C24.708624 43.075968 20.312592 42.343151999999996 17.015328 40.694495999999994C15.36672 39.778704 13.718112 38.496528 12.435888 37.214304C9.687983999999998 34.466927999999996 6.39072 35.931599999999996 10.420848 41.243904C12.618816 44.174735999999996 14.816832 45.456959999999995 17.931168 46.556208C18.297552 46.739184 18.480528 46.189776 18.114095999999996 46.0068C15.183264 44.90808 13.168704 43.625376 11.153664 40.694495999999994C10.420848 39.595776 8.955647999999998 37.031328 9.687983999999998 36.664896C11.33664 36.115055999999996 12.80232 39.595776 16.8324 41.610288000000004C21.41136 43.99176 28.92168 44.541168 29.471087999999998 43.4424C30.753263999999998 40.511568000000004 32.584847999999994 37.580687999999995 35.699183999999995 37.214304C36.065568 37.214304 36.460848 37.117824 36.460848 37.484256C36.644304 40.415088 33.551376000000005 40.027824 31.719312000000002 46.988735999999996C31.585055999999998 47.49984 32.442192 47.698704 32.625119999999995 47.331792Z" clip-rule="evenodd" stroke-width="1"></path><path fill="#000000" fill-rule="evenodd" d="M10.787232 46.556687999999994C7.124064 40.328592 10.4208 41.244864 10.237872 40.51204799999999C10.054896 39.41328 5.658864 41.610816 10.4208 46.92312C10.604256 47.106095999999994 10.970687999999999 46.740143999999994 10.787232 46.556687999999994Z" clip-rule="evenodd" stroke-width="1"></path><path fill="#000000" fill-rule="evenodd" d="M19.030416 34.284431999999995C20.129136 34.467408 21.961248 35.3832 23.060015999999997 36.481967999999995C23.243472 36.84888 23.792831999999997 36.481967999999995 23.426399999999997 36.116015999999995C22.327679999999997 34.467408 21.044928 33.551615999999996 19.030416 33.734544C18.84696 33.734544 18.663984 34.284431999999995 19.030416 34.284431999999995Z" clip-rule="evenodd" stroke-width="1"></path><path fill="#000000" fill-rule="evenodd" d="M12.435888 7.35696C17.38176 8.456208 20.679024 10.8372 21.961248 15.600144C22.144175999999998 15.966527999999998 22.510608 15.783071999999999 22.510608 15.417168C21.227904 9.371999999999998 18.297552 7.723392 12.619343999999998 6.624624C12.069455999999999 6.807599999999999 12.069455999999999 7.35696 12.435888 7.35696Z" clip-rule="evenodd" stroke-width="1"></path><path fill="#000000" fill-rule="evenodd" d="M33.867072 9.189072C35.882112 8.639184 37.897152 8.090304 38.996447999999994 7.906367999999999C41.193936 7.540416 41.377872 7.906367999999999 41.560368000000004 7.540416C41.743824000000004 6.807599999999999 38.44656 6.807599999999999 35.882639999999995 7.723392C35.149776 8.089824 34.416959999999996 8.456208 33.684096000000004 8.639184C33.501168 8.82264 33.684096000000004 9.371999999999998 33.867072 9.189072Z" clip-rule="evenodd" stroke-width="1"></path><path fill="#000000" fill-rule="evenodd" d="M15.733151999999999 13.218672C12.985248 11.203584000000001 9.32208 11.936447999999999 7.489968 13.951488C4.193232 17.614656 6.0248159999999995 24.209184 10.604256 25.491408C17.198304 27.322992 21.594815999999998 18.34752 16.648944 13.768032C16.465488 13.585056 16.099536 13.951488 16.282512 14.134464C20.495568 18.164544 16.465488 26.224224 10.787232 24.39216C5.658384 22.927008 4.742592 13.585056 11.703024 12.668783999999999C12.985728 12.485808 14.267472 12.85272 15.36672 13.585056C15.733151999999999 13.951488 16.099536 13.4016 15.733151999999999 13.218672Z" clip-rule="evenodd" stroke-width="1"></path><path fill="#000000" fill-rule="evenodd" d="M7.673424 14.684304000000001C10.421327999999999 15.050735999999999 15.550176 16.149503999999997 18.114095999999996 17.981568C18.481008 18.164544 18.663984 17.798112 18.481008 17.615184C15.183743999999999 15.050735999999999 12.069936 14.134943999999999 7.8564 14.317919999999999C7.30704 14.134943999999999 7.30704 14.684304000000001 7.673424 14.684304000000001Z" clip-rule="evenodd" stroke-width="1"></path><path fill="#000000" fill-rule="evenodd" d="M7.124064 22.010688000000002C10.787232 24.025728 15.3672 23.659344 18.297552 20.545536C18.481008 20.36208 18.114576 19.996128 17.931119999999996 20.179104C15.36672 22.560575999999998 10.421327999999999 22.743503999999998 7.30704 21.461807999999998C6.940608 21.277872 6.757632 21.827712000000002 7.124064 22.010688000000002Z" clip-rule="evenodd" stroke-width="1"></path><path fill="#000000" fill-rule="evenodd" d="M34.233503999999996 15.599616000000001C30.570287999999998 14.317392 25.807392 17.431728 25.99032 21.461328C25.99032 23.659295999999998 27.273024 25.491408 28.92168 26.590176C34.416959999999996 30.070368 41.743824000000004 22.377119999999998 36.248543999999995 16.698863999999997C36.065568 16.515408 35.515679999999996 16.881839999999997 35.882112 17.065296C40.645056 22.010688000000002 34.233503999999996 28.788672 29.654016 25.674384C23.609375999999997 21.827712000000002 29.288111999999998 14.317392 34.233503999999996 16.149503999999997C34.416959999999996 16.33248 34.599888 15.783071999999999 34.233503999999996 15.599616000000001Z" clip-rule="evenodd" stroke-width="1"></path><path fill="#000000" fill-rule="evenodd" d="M27.822912 17.981088C30.936719999999998 18.164544 35.149296 18.89688 37.347792 21.278352C37.530767999999995 21.644783999999998 38.080128 21.278352 37.714223999999994 20.91192C35.332752 17.615184 31.852511999999997 17.065296 27.822432 17.431728C27.456 17.431728 27.456 17.981088 27.822432 17.981088Z" clip-rule="evenodd" stroke-width="1"></path><path fill="#000000" fill-rule="evenodd" d="M26.540207999999996 22.560575999999998C28.92168 26.040768 33.684624 26.773632 37.164815999999995 24.025728C37.530767999999995 23.842752 37.164815999999995 23.292911999999998 36.798432 23.659295999999998C34.05052799999999 25.674384 29.104656 24.758064 26.90664 22.194143999999998C26.723664 21.827712000000002 26.174304 22.194143999999998 26.540207999999996 22.560575999999998Z" clip-rule="evenodd" stroke-width="1"></path><path fill="#000000" fill-rule="evenodd" d="M8.222832 14.500368C6.391247999999999 15.416640000000001 7.124064 18.530448 9.505536 17.797632C12.069455999999999 16.881839999999997 10.787232 13.768032 8.406288 14.317392C8.222832 14.317392 8.222832 14.500848 8.222832 14.500848Z" clip-rule="evenodd" stroke-width="1"></path><path fill="#000000" fill-rule="evenodd" d="M28.738224 17.431728C28.555248 17.431728 27.639456 17.981088 27.639456 18.34752C27.090096 19.263312 27.273072 20.36208 28.37232 20.91192C30.386879999999998 22.010688000000002 32.768304 18.89688 30.386879999999998 17.614656C29.837471999999998 17.431728 29.288111999999998 17.248272 28.738224 17.431728Z" clip-rule="evenodd" stroke-width="1"></path></svg>