<svg xmlns="http://www.w3.org/2000/svg" fill="none" viewBox="0 0 48 48" height="48" width="48" id="This-Is-Fine-Hand-Drawn--Streamline-Memes.svg"><desc>This Is Fine Hand Drawn Streamline Element: https://streamlinehq.com</desc><path fill="#000000" fill-rule="evenodd" d="M25.485024 15.793247999999998C24.230784 16.420368 18.273359999999997 21.593904 15.608208 20.966832C12.159119999999998 20.339712 10.591391999999999 24.729408 13.570079999999999 26.297184C17.332704 28.335264 20.93856 27.551375999999998 24.3876 25.199808C26.42568 23.788800000000002 28.934064 20.810015999999997 29.717951999999997 19.242288C30.972144 16.733904 28.46376 14.382287999999999 25.485024 15.793247999999998ZM27.052752 15.950015999999998C25.328208 16.106783999999998 24.230784 17.517791999999996 22.192704 18.928752C20.781744 20.026176 17.489472 22.377791999999996 15.451391999999998 21.907487999999997C12.943008 21.437136 11.845583999999999 24.572688 13.883664 25.670064C17.332704 27.551375999999998 20.624976 26.767488 23.917247999999997 24.729408C25.79856 23.475216 28.46376 20.49648 29.2476 19.08552C30.188256 17.204208 28.934064 15.793247999999998 27.052752 15.950015999999998Z" clip-rule="evenodd" stroke-width="1"></path><path fill="#000000" fill-rule="evenodd" d="M17.489424 21.1236C17.175936 17.674512 17.175936 12.187344 20.154624 13.911935999999999C21.7224 14.852543999999998 22.506288 15.950015999999998 23.760479999999998 17.360976C23.9172 17.517744 24.3876 17.204208 24.074016 17.047392C22.819824 15.636431999999997 22.192704 14.38224 20.624928 13.284816C19.214016 12.344159999999999 17.803055999999998 12.657696 17.175936 14.382192C16.392048 16.420272 16.862351999999998 19.08552 17.175936 21.28032C17.175936 21.437136 17.489424 21.437088 17.489424 21.1236Z" clip-rule="evenodd" stroke-width="1"></path><path fill="#000000" fill-rule="evenodd" d="M17.332655999999997 19.398912C18.116495999999998 18.14472 20.781647999999997 16.10664 22.50624 15.793152C22.819727999999998 15.793152 22.819727999999998 15.322799999999999 22.50624 15.322799999999999C20.311344 15.47952 17.959728 16.890528 17.019072 19.242192C16.705536 19.55568 17.175887999999997 19.712496 17.332655999999997 19.398912Z" clip-rule="evenodd" stroke-width="1"></path><path fill="#000000" fill-rule="evenodd" d="M28.934112 20.339424C29.718 20.653007999999996 31.128912 21.750432 31.756031999999998 22.847856C31.912799999999997 23.161392 32.383151999999995 22.847808 32.226383999999996 22.69104C31.599312 21.123312 30.815424 20.182608 29.090927999999998 20.025888C28.620575999999996 19.86912 28.620528 20.182655999999998 28.934112 20.339424Z" clip-rule="evenodd" stroke-width="1"></path><path fill="#000000" fill-rule="evenodd" d="M14.353871999999999 26.297088C12.315792 32.25456 7.769328 30.686784 7.298976 34.135824C6.828672 38.211984 12.47256 40.406831999999994 15.294528 37.74168C17.959728 35.07648 17.489376 30.843552000000003 17.17584 27.080976C17.17584 26.767391999999997 16.705488 26.767391999999997 16.705488 27.080976C17.019023999999998 30.530016 17.332608 34.919712 14.824224 37.271328C12.629375999999999 39.309408 7.926095999999999 37.584912 8.239632 34.29264C8.553215999999999 31.470672 12.942912 32.88168 14.824224 26.610623999999998C14.980991999999999 26.14032 14.510639999999999 25.983504 14.353871999999999 26.297088Z" clip-rule="evenodd" stroke-width="1"></path><path fill="#000000" fill-rule="evenodd" d="M25.014623999999998 25.827023999999998C21.408768 25.983791999999998 20.154528 30.530255999999998 21.565535999999998 33.352224C23.917104 37.741872 29.561087999999998 34.606415999999996 28.15008 29.119343999999998C27.679776 27.237984 25.955232 25.827023999999998 25.641696 26.297327999999997C25.328111999999997 26.767632 26.895888 26.610864 27.523007999999997 29.276016C28.620432 33.82248 24.387504 36.487728 22.349424 33.038688C21.095184 30.687071999999997 22.03584 26.610864 25.014623999999998 26.454144C25.484928 26.297327999999997 25.328111999999997 25.827023999999998 25.014623999999998 25.827023999999998Z" clip-rule="evenodd" stroke-width="1"></path><path fill="#000000" fill-rule="evenodd" d="M25.823808 29.451791999999998C24.634847999999998 29.06808 23.4636 30.528 24.6576 31.438463999999996C25.718736 32.218464 26.889984 30.758591999999997 26.222687999999998 29.843087999999998L25.823808 29.451791999999998Z" clip-rule="evenodd" stroke-width="1"></path><path fill="#000000" fill-rule="evenodd" d="M26.089727999999997 29.712623999999998C26.220191999999997 29.579616 26.087231999999997 29.449344 25.95432 29.31888C24.36648 28.54392 22.806335999999998 30.666096 24.52968 31.834895999999997C25.987104 32.742768 27.54984 30.883824 26.616624 29.707487999999998C26.217791999999996 29.316192 25.959311999999997 29.845584 26.089727999999997 29.712623999999998ZM26.089727999999997 29.712623999999998C25.959311999999997 29.845584 25.959407999999996 29.845584 25.826448 29.71512C25.430064 29.587248 24.905904 29.855615999999998 24.777984 30.252C24.389231999999996 30.914208 25.319855999999998 31.827216000000004 25.971984 31.162464C26.232864 30.896496 26.360784 30.500207999999997 26.22528 30.106416C25.959407999999996 29.845584 26.089727999999997 29.712623999999998 26.089727999999997 29.712623999999998Z" clip-rule="evenodd" stroke-width="1"></path><path fill="#000000" fill-rule="evenodd" d="M32.539776 22.534367999999997C29.717855999999998 22.691088 28.620432 25.983408 29.561087999999998 28.335024C30.815279999999998 31.156944000000003 35.51856 30.68664 35.83204799999999 26.767295999999998C36.145632 23.475024 33.010128 22.220784000000002 32.85336 23.004672C32.85336 23.16144 32.85336 23.318208 33.010128 23.318208C34.577904 23.631792 35.361743999999995 25.356288 35.048159999999996 26.767295999999998C34.734671999999996 29.902752 31.285583999999997 30.05952 30.18816 28.02144C29.247504 26.296944 30.18816 23.318208 32.38296 23.16144C32.85336 22.847856 32.696544 22.377552 32.539776 22.534367999999997Z" clip-rule="evenodd" stroke-width="1"></path><path fill="#000000" fill-rule="evenodd" d="M33.026447999999995 25.687776C32.095152 26.060256 32.281439999999996 27.736464 33.398928000000005 27.550223999999996C34.516416 27.550223999999996 34.516416 25.874016 33.398928000000005 25.687776H33.026447999999995Z" clip-rule="evenodd" stroke-width="1"></path><path fill="#000000" fill-rule="evenodd" d="M33.212544 25.501776C33.026352 25.129296 31.908863999999998 25.688064 31.908863999999998 26.805504C31.908863999999998 28.481711999999998 34.51632 28.295423999999997 34.51632 26.619215999999998C34.51632 25.687967999999998 33.398832 25.315535999999998 33.212544 25.501776ZM33.212544 25.874304C33.026352 26.060544 32.653824 26.060544 32.840064 26.805504C33.026352 27.550512 33.77136 27.364224 33.957648 26.805504C33.957648 25.874304 33.212544 26.060544 33.212544 25.874304Z" clip-rule="evenodd" stroke-width="1"></path><path fill="#000000" fill-rule="evenodd" d="M30.031344 30.216431999999998C30.501648 30.059663999999998 35.98881599999999 29.58936 37.243008 29.432543999999996C40.221743999999994 29.432543999999996 40.37851199999999 30.059663999999998 40.53527999999999 29.58936C40.848864 28.962239999999998 37.243008 27.864815999999998 30.972047999999997 29.275775999999997C30.344928 29.432543999999996 29.717855999999998 29.58936 29.717855999999998 29.902896S29.874576 30.216431999999998 30.031344 30.216431999999998Z" clip-rule="evenodd" stroke-width="1"></path><path fill="#000000" fill-rule="evenodd" d="M42.259968 33.822C41.005776000000004 36.487151999999995 37.243152 36.957504 34.421231999999996 36.487151999999995C30.501839999999998 35.703312 29.561183999999997 34.292304 29.2476 34.762608V35.076192C35.675376 39.465888 41.319312000000004 37.427808 42.573504 34.135536C42.730272 33.665232 42.416736 33.508464 42.259968 33.822Z" clip-rule="evenodd" stroke-width="1"></path><path fill="#000000" fill-rule="evenodd" d="M27.523103999999996 35.859984C29.404367999999998 36.016799999999996 31.128863999999997 34.449072 30.501792 32.881296C30.501792 32.567712 30.03144 32.724528 30.03144 33.038112000000005C30.188208 34.292304 28.306992 35.232912 27.523103999999996 35.389728C27.20952 35.389728 27.20952 35.859984 27.523103999999996 35.859984Z" clip-rule="evenodd" stroke-width="1"></path><path fill="#000000" fill-rule="evenodd" d="M42.73008 29.588928C38.183616 28.021199999999997 35.832 32.567664 39.124272 34.135391999999996C42.416544 35.703168 46.0224 32.254128 43.200432 29.902559999999998C42.886896 29.745744 42.73008 30.059231999999998 42.886896 30.216047999999997C43.827504 31.156704 43.827504 32.567615999999994 42.416544 33.194784C39.908159999999995 34.605696 36.929424 32.254128 39.124272 30.529632C40.064927999999995 29.745744 41.475888 29.588928 42.573312 30.059231999999998C42.886799999999994 30.059231999999998 42.886799999999994 29.745744 42.73008 29.588928Z" clip-rule="evenodd" stroke-width="1"></path><path fill="#000000" fill-rule="evenodd" d="M15.137759999999998 37.428384C14.667456 40.093584 14.510687999999998 40.56384 14.824224 44.953536C14.824224 45.26712 15.294576 45.26712 15.294576 44.953536C15.294576 43.542576 15.451343999999999 44.796768 15.608111999999998 37.428384C15.608111999999998 37.1148 15.137759999999998 37.1148 15.137759999999998 37.428384Z" clip-rule="evenodd" stroke-width="1"></path><path fill="#000000" fill-rule="evenodd" d="M34.26432 36.801264C35.988864 44.169647999999995 35.988864 43.699343999999996 35.988864 43.699343999999996C35.988864 44.012928 36.459168 43.856111999999996 36.459168 43.542576C35.98881599999999 39.152879999999996 35.518511999999994 38.52576 34.734624 36.487680000000005C34.577856 36.33096 34.26432 36.487680000000005 34.26432 36.801264Z" clip-rule="evenodd" stroke-width="1"></path><path fill="#000000" fill-rule="evenodd" d="M21.095232 42.131327999999996C20.624879999999997 43.38552 20.624832 44.482896000000004 21.565535999999998 45.737088C21.722304 46.050672 22.192655999999996 45.737136 22.03584 45.580368C21.879119999999997 45.110063999999994 21.879119999999997 44.482896000000004 21.722304 44.16936C21.565535999999998 42.444815999999996 21.722304 42.131327999999996 21.40872 41.974512C21.252 41.974512 21.095232 41.974512 21.095232 42.131327999999996Z" clip-rule="evenodd" stroke-width="1"></path><path fill="#000000" fill-rule="evenodd" d="M23.133312 42.288047999999996C22.976544 43.542288 23.13336 44.639711999999996 24.230736 45.893904C24.387552 46.20744 24.857855999999998 45.893904 24.70104 45.580368C24.230736 44.482943999999996 23.9172 41.974512 23.446896000000002 41.974512C23.29008 41.974512 23.133312 42.131327999999996 23.133312 42.288047999999996Z" clip-rule="evenodd" stroke-width="1"></path><path fill="#000000" fill-rule="evenodd" d="M8.082912 45.109919999999995C3.6931679999999996 43.69896 1.028016 38.83896 1.3416 34.135728C1.655136 35.076384 2.282208 36.01704 2.75256 36.80088C2.909328 37.114416 3.3796319999999995 36.957648 3.3796319999999995 36.48729599999999C2.438976 29.432447999999997 9.02352 25.356336 6.515136 20.496336C7.299024 20.96664 7.926143999999999 21.436896 8.396448 22.220784000000002C8.553215999999999 22.534367999999997 9.02352 22.377599999999997 9.180335999999999 22.064016000000002C9.807407999999999 17.987904 11.845488 13.127904 15.451295999999997 11.089824C18.116495999999998 9.678816 21.565535999999998 9.365231999999999 23.917151999999998 7.327152C25.171391999999997 6.229775999999999 25.641696 4.505279999999999 24.857808 3.2510399999999997C30.815279999999998 5.602704 35.675279999999994 12.500735999999998 33.166848 18.458208C32.696544 19.555632 36.302448 17.674367999999998 37.556639999999994 14.22528C37.71336 13.911744 37.243008 13.754976 37.086240000000004 14.06856C36.45912 15.636239999999999 35.361743999999995 17.047247999999996 33.950736 17.987904C36.3024 11.089775999999999 29.874576 3.4078079999999997 22.976495999999997 1.996848C22.506192 1.84008 22.349472 2.62392 22.819776 2.780688C24.857855999999998 3.4078079999999997 25.171391999999997 5.445887999999999 23.446848 6.856896C19.213967999999998 10.305888 11.0616 7.95432 8.396448 21.123408C7.61256 20.33952 6.515136 19.555632 5.260944 19.242096C4.79064 19.085328 4.477104 19.7124 4.79064 20.025983999999998C8.8668 23.945376 2.282256 28.805376 2.439024 35.38992C1.9687199999999998 34.606032 1.498368 33.508608 1.3416 32.567952C1.3416 32.254416 0.7144799999999999 32.254416 0.7144799999999999 32.567952C-0.38294399999999995 37.898304 2.439024 44.012544 7.769375999999999 45.73704C8.23968 45.73704 8.3964 45.266736 8.082912 45.109919999999995Z" clip-rule="evenodd" stroke-width="1"></path><path fill="#000000" fill-rule="evenodd" d="M37.086240000000004 14.225375999999999C38.183712 16.890576 38.654064 19.869311999999997 37.556639999999994 22.534464C37.399871999999995 22.848 37.71336 23.161535999999998 38.026944 23.004768C39.437903999999996 22.22088 40.535328 21.280272 41.319216 19.869264C41.475984 23.631888 43.357296 25.042848 44.924976 27.864815999999998C47.747088 33.351935999999995 48.060719999999996 41.190672 42.103103999999995 43.228752C41.789519999999996 43.385568 41.946335999999995 43.699056 42.259871999999994 43.699056C48.530879999999996 41.504256 48.530879999999996 33.508703999999994 45.708864 27.394464C43.670784 23.161584 42.416639999999994 23.631888 42.259871999999994 18.144768C42.259871999999994 17.674464 41.632751999999996 17.517648 41.476032 17.988C40.848912 19.555728000000002 39.908207999999995 20.653152 38.654016 21.593808C39.281136 19.085424 38.654064 16.263455999999998 37.71336 13.755072C37.399871999999995 13.755072 36.92952 13.911888 37.086240000000004 14.225375999999999Z" clip-rule="evenodd" stroke-width="1"></path></svg>