<svg xmlns="http://www.w3.org/2000/svg" fill="none" viewBox="0 0 48 48" height="48" width="48" id="Thug-Life-Hand-Drawn--Streamline-Memes.svg"><desc>Thug Life Hand Drawn Streamline Element: https://streamlinehq.com</desc><path fill="#000000" fill-rule="evenodd" d="M24.0096 32.26992c0.74304 -0.02592 1.63104 0.13344 2.13312 -0.5616 0.18144 -0.25104 0.18672 -0.5471999999999999 0.20976 -0.8423999999999999 0.0384 -0.4704 0.07632 -0.9739199999999999 0.05232 -1.44624 -0.01248 -0.24816 -0.056639999999999996 -0.624 -0.33599999999999997 -0.7103999999999999 -0.26496000000000003 -0.0816 -0.6167999999999999 -0.02688 -0.8947200000000001 -0.04368 -0.8515199999999999 -0.05184 -1.69104 -0.04176 -2.5463999999999998 -0.035519999999999996 -0.27215999999999996 0.00192 -0.54384 0.0057599999999999995 -0.81552 -0.01872 -0.20159999999999997 -0.017759999999999998 -0.41759999999999997 -0.072 -0.61296 0.0024 -0.29856 0.11424 -0.24336 0.67536 -0.19968 0.92208 0.01632 0.09456 0.04464 0.22176 0.12047999999999999 0.28656 0.08256 0.072 0.28415999999999997 0.03264 0.38736000000000004 0.0288 0.38832 -0.01248 0.83856 -0.06336 1.2254399999999999 0.03168 0.86544 0.21312 1.19472 1.3319999999999999 1.2768 2.38704Z" clip-rule="evenodd" stroke-width="1"></path><path fill="#000000" fill-rule="evenodd" d="M3.75744 25.9752c-0.03024 0.52128 -0.22176 1.3823999999999999 -0.16751999999999997 2.0956799999999998 0.03072 0.40319999999999995 0.15023999999999998 0.75696 0.36191999999999996 1.0209599999999999 0.32976 0.39791999999999994 0.816 0.65808 1.38192 0.81504 0.52224 0.14543999999999999 1.11456 0.20015999999999998 1.68624 0.23184 0.58128 0.03168 1.14144 0.03072 1.5792 0.09504 0.44592 0.05807999999999999 0.83568 0.1152 1.13184 0.29616 0.264 0.16128 0.44208000000000003 0.42288 0.51648 0.86976 0.036 0.20928 0.05616 0.41952 0.06576 0.6302399999999999 0.014879999999999999 0.32928 0.0072 0.6599999999999999 0.0028799999999999997 0.9897599999999999a0.23328 0.23328 0 1 0 0.46703999999999996 0.025439999999999997c0.03264 -0.33887999999999996 0.06720000000000001 -0.6768 0.08016 -1.01616 0.0096 -0.2352 0.00672 -0.4704 -0.01296 -0.7056 -0.04656 -0.5347200000000001 -0.22368000000000002 -0.89856 -0.47184 -1.1664 -0.37344 -0.40319999999999995 -0.9508800000000001 -0.57312 -1.65024 -0.71184 -0.45743999999999996 -0.0816 -1.04544 -0.11279999999999998 -1.6555199999999999 -0.15504 -0.51648 -0.035519999999999996 -1.04928 -0.08399999999999999 -1.52544 -0.20015999999999998 -0.40463999999999994 -0.09935999999999999 -0.77088 -0.2352 -1.0204799999999998 -0.50352 -0.19296 -0.19968 -0.26112 -0.51984 -0.2928 -0.864 -0.056639999999999996 -0.6192 0.01248 -1.3094400000000002 -0.00816 -1.7443199999999999a0.23423999999999998 0.23423999999999998 0 0 0 -0.46847999999999995 -0.0028799999999999997Z" clip-rule="evenodd" stroke-width="1"></path><path fill="#000000" fill-rule="evenodd" d="M0.004319999999999999 31.39296c-0.00768 0.25680000000000003 -0.0048 0.5107200000000001 0.0028799999999999997 0.76512 0.010559999999999998 0.37584 0.03264 0.75072 0.04896 1.12896 0.017279999999999997 0.3768 0.016800000000000002 0.82368 0.08064 1.24416 0.04896 0.32352000000000003 0.14064 0.62976 0.28944 0.8904 0.17472 0.3024 0.46608 0.5232 0.80736 0.67968 0.43104 0.19823999999999997 0.9456 0.28319999999999995 1.3439999999999999 0.32448 0.34608 0.0312 0.69312 0.04223999999999999 1.0392 0.03984 0.7728 -0.00624 1.5456 -0.07392 2.3184 -0.050879999999999995 0.216 0.004319999999999999 0.51168 -0.01824 0.7871999999999999 -0.004319999999999999 0.13535999999999998 0.00672 0.26592 0.01584 0.3648 0.06384000000000001 0.1704 0.07968 0.26352000000000003 0.22655999999999998 0.32736000000000004 0.3984 0.22655999999999998 0.612 0.18576 1.44864 0.46559999999999996 1.9368 0.09839999999999999 0.1704 0.252 0.3048 0.4392 0.3984 0.2112 0.10656 0.4608 0.16751999999999997 0.65664 0.21216a8.448 8.448 0 0 0 1.2849599999999999 0.17904c0.43776 0.02736 0.87744 0.02592 1.2897599999999998 -0.01104a0.23423999999999998 0.23423999999999998 0 0 0 -0.028319999999999998 -0.46703999999999996 7.9987200000000005 7.9987200000000005 0 0 1 -1.212 -0.059039999999999995 7.6536 7.6536 0 0 1 -1.1817600000000001 -0.23856 2.7062399999999998 2.7062399999999998 0 0 1 -0.43344 -0.15072c-0.09312 -0.04416 -0.18144 -0.09744 -0.22512 -0.1824 -0.11136 -0.2208 -0.1296 -0.51936 -0.1584 -0.8275199999999999 -0.03407999999999999 -0.35663999999999996 -0.0696 -0.7248 -0.17087999999999998 -1.04016 -0.12 -0.37584 -0.33599999999999997 -0.67968 -0.69456 -0.8688 -0.14448 -0.07488 -0.32304 -0.12143999999999999 -0.51696 -0.14687999999999998 -0.32496 -0.04223999999999999 -0.7017599999999999 -0.0192 -0.96576 -0.03168 -0.78576 -0.0288 -1.5695999999999999 0.02592 -2.3544 0.034559999999999994a10.948799999999999 10.948799999999999 0 0 1 -0.96192 -0.02352c-0.32304 -0.02016 -0.744 -0.06767999999999999 -1.09968 -0.2112 -0.19584 -0.07968 -0.37728 -0.17951999999999999 -0.4848 -0.34463999999999995 -0.11807999999999999 -0.17951999999999999 -0.192 -0.39743999999999996 -0.24287999999999998 -0.6264 -0.08639999999999999 -0.39168 -0.1152 -0.81312 -0.156 -1.1664 -0.04464 -0.37392 -0.09456 -0.74304 -0.13296 -1.11456a12.12 12.12 0 0 1 -0.05807999999999999 -0.73344 0.23471999999999998 0.23471999999999998 0 0 0 -0.46847999999999995 0.00336Z" clip-rule="evenodd" stroke-width="1"></path><path fill="#000000" fill-rule="evenodd" d="M47.984159999999996 8.724c-3.45696 -0.22848 -7.008 -0.19056 -10.528799999999999 -0.1536 -1.71264 0.01824 -3.4180800000000002 0.036 -5.10192 0.02352 -2.3078399999999997 -0.017279999999999997 -4.619039999999999 -0.059519999999999997 -6.9312 -0.10175999999999999 -3.6047999999999996 -0.06576 -7.211519999999999 -0.13152 -10.81104 -0.1032 -2.0068799999999998 0.01584 -4.0127999999999995 0.06528 -6.0172799999999995 0.11471999999999999 -2.73024 0.06720000000000001 -5.45952 0.13440000000000002 -8.19216 0.11664C0.37536 9.43872 0.384 10.253759999999998 0.39359999999999995 11.071679999999999l0.00336 0.27359999999999995c0.0014399999999999999 0.0768 -0.00816 0.18384 -0.01824 0.30096 -0.02352 0.26880000000000004 -0.05184 0.5952 0.03264 0.75168 0.02784 0.05232 0.21984 0.08592 0.32784 0.10464l0.056639999999999996 0.010559999999999998c0.38688 0.08447999999999999 0.816 0.0816 1.2139199999999999 0.07872l0.02208 0 -0.01008 0.24528c-0.014879999999999999 0.33455999999999997 -0.029759999999999998 0.6729599999999999 0.0048 1.00464 0.004319999999999999 0.02736 0.00624 0.06048 0.00816 0.096 0.005279999999999999 0.09839999999999999 0.011519999999999999 0.21456 0.06528 0.27599999999999997 0.04944 0.05376 0.18 0.06528 0.26304 0.07296l0.0384 0.00336c0.22416 0.02592 0.44832 0.024 0.6700799999999999 0.02256l0.14304 -0.00096 0.11136 0c0.20736 0.00096 0.41616 0.0014399999999999999 0.61824 -0.0192 -0.0096 0.22559999999999997 -0.0096 0.44832 0 0.67392 0.00192 0.04032 0.0024 0.08688 0.00336 0.13776 0.00336 0.23904 0.00768 0.56784 0.12816 0.73776 0.20543999999999998 0.28319999999999995 0.76032 0.25056 1.1807999999999998 0.22559999999999997 0.11615999999999999 -0.00672 0.22272 -0.01296 0.30816 -0.011519999999999999 0.00096 0.08399999999999999 -0.00192 0.17808 -0.0048 0.27791999999999994 -0.014879999999999999 0.5423999999999999 -0.035039999999999995 1.25136 0.46224 1.512 0.27024 0.14159999999999998 0.6048 0.12096 0.9119999999999999 0.10175999999999999 0.06911999999999999 -0.004319999999999999 0.13727999999999999 -0.00816 0.20256 -0.010559999999999998 0.28944 -0.0096 0.5784 -0.02448 0.8673599999999999 -0.03936 0.4728 -0.024 0.9456 -0.048 1.41984 -0.05039999999999999 0.7180799999999999 -0.00336 1.428 0.029759999999999998 2.1388800000000003 0.0624 0.40703999999999996 0.0192 0.81456 0.03744 1.224 0.04992 0.5663999999999999 0.01632 1.1327999999999998 0.01536 1.6982399999999997 0.0144 0.44880000000000003 -0.00096 0.8976000000000001 -0.0014399999999999999 1.34784 0.00624l0.08543999999999999 0.0014399999999999999c0.5856 0.01104 1.18368 0.02208 1.7683200000000001 -0.0528l0.10271999999999999 -0.010559999999999998c0.17279999999999998 -0.016800000000000002 0.41663999999999995 -0.04032 0.52032 -0.13871999999999998 0.31872 -0.3024 0.27743999999999996 -0.8592 0.24287999999999998 -1.32144 -0.008639999999999998 -0.11664 -0.017279999999999997 -0.22655999999999998 -0.0192 -0.32544 0.14448 -0.01248 0.3144 -0.008639999999999998 0.49295999999999995 -0.0048 0.64512 0.01392 1.4064 0.03024 1.5168 -0.6854399999999999 0.02448 -0.15984 0.0144 -0.32544 0 -0.48623999999999995a18.9696 18.9696 0 0 0 -0.07296 -0.7392l0.05424 0.00624 0.05376 0.00624c0.26208000000000004 0.029759999999999998 0.5265599999999999 0.059519999999999997 0.7871999999999999 0.059519999999999997 1.17696 -0.00048 1.0905599999999998 -1.31136 1.0272000000000001 -2.2824a11.82 11.82 0 0 1 -0.024 -0.44832 3.0609599999999997 3.0609599999999997 0 0 0 -0.011519999999999999 -0.15936c-0.0192 -0.23231999999999997 -0.048 -0.57504 0.05472 -0.69936 0.13056 -0.15984 0.42384 -0.17423999999999998 0.63648 -0.18431999999999998l0.0936 -0.0048c0.6816 -0.04704 1.4352 -0.01584 2.1168 0.05424 0.44784 0.04656 0.59856 0.4910399999999999 0.59856 0.8865599999999999 0 0.2496 -0.0312 0.51696 -0.06336 0.7891199999999999 -0.058559999999999994 0.50112 -0.11952 1.0180799999999999 0.0096 1.46832 0.156 0.5352 0.86208 0.5769599999999999 1.38384 0.60768 0.08112 0.0048 0.15792 0.0096 0.22704 0.01584 -0.01248 0.18144 0.0048 0.35663999999999996 0.02208 0.53616l0.0048 0.048 0.0024 0.02784c0.00384 0.04416 0.00672 0.09215999999999999 0.0096 0.14304 0.011519999999999999 0.20015999999999998 0.02448 0.43584 0.12192 0.59232 0.312 0.50688 1.05648 0.46559999999999996 1.6478399999999997 0.43296 0.11856 -0.00672 0.23135999999999998 -0.01248 0.33263999999999994 -0.0144 -0.05807999999999999 0.62112 -0.08736 1.52016 0.58416 1.8264 0.28512 0.13008 0.60672 0.12768000000000002 0.9206399999999999 0.1248l0.14976 0c0.27263999999999994 0 0.54576 -0.00816 0.8188799999999999 -0.017279999999999997a17.3088 17.3088 0 0 1 1.128 -0.011519999999999999c0.61056 0.02064 1.22256 0.021599999999999998 1.8355199999999998 0.02256 0.53952 0.00048 1.07952 0.0014399999999999999 1.61904 0.01536 0.33311999999999997 0.008639999999999998 0.66816 0.02736 1.00416 0.0456 0.6705599999999999 0.03696 1.3439999999999999 0.07392 2.00832 0.033600000000000005a89.27664 89.27664 0 0 1 1.44384 -0.07872c0.23712 -0.00816 0.5044799999999999 -0.017279999999999997 0.6969599999999999 -0.15552 0.5112 -0.36384 0.5207999999999999 -1.17936 0.5015999999999999 -1.7438399999999998 0.34559999999999996 0.01584 0.66672 -0.03216 1.00704 -0.08496l0.06720000000000001 -0.01008c0.23856 -0.035519999999999996 0.46368 -0.06911999999999999 0.624 -0.27552 0.288 -0.36288 0.2352 -0.8702399999999999 0.19008 -1.31136 -0.0048 -0.050879999999999995 -0.010559999999999998 -0.10079999999999999 -0.014879999999999999 -0.15023999999999998l0.20256 0.0028799999999999997c0.29087999999999997 0.004319999999999999 0.5803200000000001 0.00816 0.87264 -0.01536l0.035039999999999995 -0.0028799999999999997c0.19776 -0.01632 0.39791999999999994 -0.03264 0.55872 -0.1632 0.39984 -0.31872 0.3576 -0.88464 0.32208000000000003 -1.3656000000000001a7.47504 7.47504 0 0 1 -0.01536 -0.23471999999999998c0.06576 0.00384 0.13344 0.00912 0.20159999999999997 0.0144 0.45503999999999994 0.035039999999999995 0.95904 0.07343999999999999 1.33104 -0.23087999999999997 0.33119999999999994 -0.27168 0.3408 -0.7209599999999999 0.34559999999999996 -1.1155199999999998 0.01248 -0.7128 0.00384 -1.4270399999999999 -0.005279999999999999 -2.1408l-0.004319999999999999 -0.35184ZM13.13232 14.81184c0.0028799999999999997 -0.1872 0.00624 -0.44112 -0.1272 -0.57168 -0.32976 -0.31968 -1.6536 -0.45503999999999994 -1.9996800000000001 -0.15744 -0.22416 0.19248 -0.24816 0.53856 -0.25824 0.81264 -0.0192 0.66816 0.13152 1.2024 0.89568 1.2431999999999999 0.40368 0.02208 1.13376 -0.06384000000000001 1.35264 -0.48288 0.12192 -0.23807999999999999 0.13631999999999997 -0.5112 0.13631999999999997 -0.77376 0 -0.02208 0 -0.04512 0.00096 -0.07007999999999999Zm-3.8836799999999996 -0.6888c-0.3264 -0.32256 -0.98304 -0.28991999999999996 -1.4112 -0.2304 -0.144 0.02016 -0.26112 0.0528 -0.45263999999999993 0.24192 -0.3264 0.31776 -0.29184 1.3439999999999999 0.03888 1.6843199999999998 0.23376 0.24624 0.696 0.2928 1.0123199999999999 0.252 0.7103999999999999 -0.09072 1.00704 -0.5347200000000001 1.00704 -1.24944 0 -0.22416 -0.0192 -0.52896 -0.19440000000000002 -0.6984Zm29.115359999999995 0.60288c0.0028799999999999997 -0.1872 0.00624 -0.44208000000000003 -0.132 -0.5736 -0.3216 -0.31824 -1.6526399999999999 -0.45119999999999993 -1.9948799999999998 -0.15696 -0.22416 0.192 -0.24816 0.53808 -0.25824 0.81216 -0.0192 0.66816 0.13152 1.2024 0.89568 1.2436800000000001 0.40368 0.02208 1.13376 -0.06384000000000001 1.35264 -0.48288 0.12192 -0.23807999999999999 0.13631999999999997 -0.51168 0.13631999999999997 -0.77376l0.00048 -0.06863999999999999Zm-28.974239999999998 -2.31504c-0.27743999999999996 0.16943999999999998 -0.30672 0.5846399999999999 -0.29184 0.9216 0.033600000000000005 0.66576 0.3408 1.1011199999999999 1.0896 1.0128 0.7056 -0.08256 1.0804799999999999 -0.53088 1.00752 -1.25664a8.67024 8.67024 0 0 1 -0.0057599999999999995 -0.0528c-0.016800000000000002 -0.16176000000000001 -0.03744 -0.3576 -0.16464 -0.46752 -0.41328 -0.3576 -1.09968 -0.25152 -1.63488 -0.15744Zm-3.9024 0.03168 -0.00816 0.0696c-0.04464 0.40368 -0.11136 1.00224 0.09552000000000001 1.35936 0.31104 0.52896 1.54224 0.55824 1.9416 0.1056 0.14112 -0.16559999999999997 0.1992 -0.40271999999999997 0.20448 -0.6172799999999999 0.0048 -0.23184 -0.0048 -0.60288 -0.16559999999999997 -0.7968 -0.39408 -0.48 -1.4500799999999998 -0.32880000000000004 -1.98528 -0.15168l-0.08303999999999999 0.0312Zm29.134079999999997 -0.11903999999999999c-0.27743999999999996 0.16895999999999997 -0.30672 0.58416 -0.29231999999999997 0.9211199999999999 0.034559999999999994 0.6662399999999999 0.3408 1.1011199999999999 1.09008 1.0128 0.7056 -0.08256 1.0804799999999999 -0.53088 1.008 -1.25616L36.422399999999996 12.959999999999999c-0.01824 -0.16416 -0.04032 -0.36719999999999997 -0.16607999999999998 -0.47952 -0.41375999999999996 -0.3576 -1.09968 -0.25152 -1.63488 -0.15744Zm-3.90288 0.03168 -0.00768 0.06911999999999999c-0.04512 0.40415999999999996 -0.11136 1.00224 0.09552000000000001 1.35936 0.31104 0.52944 1.54224 0.55872 1.9363199999999998 0.1056 0.1464 -0.16559999999999997 0.20448 -0.40224 0.20928 -0.6167999999999999 0.0048 -0.23184 -0.0048 -0.6033599999999999 -0.16512 -0.79728 -0.39455999999999997 -0.47952 -1.45536 -0.32832 -1.9857599999999997 -0.1512l-0.08256 0.03072Zm-1.43808 -1.85184c-0.023039999999999998 0.09888 -0.25344 1.09392 0.05616 1.58784 0.23856 0.38016 0.80784 0.37824 1.2019199999999999 0.31152 0.58368 -0.09984 0.5740799999999999 -0.75456 0.5256 -1.2220799999999998a2.2512000000000003 2.2512000000000003 0 0 1 -0.00624 -0.10896c-0.00624 -0.14495999999999998 -0.01344 -0.3168 -0.1056 -0.41712 -0.29136 -0.32448 -0.85056 -0.25776 -1.27536 -0.2064l-0.08832 0.010559999999999998c-0.108 0.01296 -0.27312 0.033600000000000005 -0.30624 0.03696l-0.00192 0.00816Zm-21.496799999999997 0.12816c-0.62784 0.10896 -0.59856 0.94896 -0.24816 1.4207999999999998 0.22895999999999997 0.30816 0.73008 0.35903999999999997 1.08528 0.3168 0.5692799999999999 -0.06672 0.8807999999999999 -0.45215999999999995 0.876 -1.0343999999999998 -0.0048 -0.20015999999999998 -0.0144 -0.41184 -0.1704 -0.5529599999999999 -0.27503999999999995 -0.2448 -0.9144 -0.19679999999999997 -1.3459199999999998 -0.16416 -0.072 0.0057599999999999995 -0.13871999999999998 0.010559999999999998 -0.19679999999999997 0.01392Zm25.23168 -0.08784c-0.6273599999999999 0.10896 -0.6033599999999999 0.94944 -0.24816 1.4212799999999999 0.22895999999999997 0.30768 0.7248 0.35903999999999997 1.08528 0.3168 0.5692799999999999 -0.06720000000000001 0.8807999999999999 -0.45215999999999995 0.8712 -1.03488 0 -0.20015999999999998 -0.0144 -0.41184 -0.1704 -0.55344 -0.27119999999999994 -0.2448 -0.9096 -0.19631999999999997 -1.3411199999999999 -0.1632 -0.072 0.005279999999999999 -0.13871999999999998 0.01008 -0.19679999999999997 0.01344Zm-28.71072 0.008639999999999998c-0.5937600000000001 0.1152 -0.45263999999999993 1.22256 -0.19968 1.62672 0.23856 0.37968 0.80784 0.37776 1.2019199999999999 0.31104 0.58896 -0.09935999999999999 0.5740799999999999 -0.75408 0.5304 -1.2216 -0.0048 -0.03696 -0.00672 -0.07872 -0.0096 -0.1224 -0.00816 -0.14207999999999998 -0.017759999999999998 -0.30672 -0.10704 -0.40368 -0.29087999999999997 -0.32448 -0.84576 -0.25776 -1.2696 -0.20687999999999998 -0.050879999999999995 0.00624 -0.09984 0.012 -0.1464 0.016800000000000002Zm28.34592 5.1792c-0.3264 -0.3408 -0.36 -1.3670399999999998 -0.03407999999999999 -1.6847999999999999 0.05712 -0.07488 0.22751999999999997 -0.22895999999999997 0.45263999999999993 -0.24144 0.42336 -0.059519999999999997 1.0847999999999998 -0.09215999999999999 1.4112 0.2304 0.1752 0.16895999999999997 0.19440000000000002 0.47424 0.19440000000000002 0.69792 0 0.7152 -0.30144 1.1592 -1.00704 1.24944 -0.3216 0.04128 -0.77856 -0.0057599999999999995 -1.0176 -0.252Z" clip-rule="evenodd" stroke-width="1"></path><path fill="#000000" fill-rule="evenodd" d="M20.7912 29.535359999999997c-0.1152 0.010559999999999998 -0.26496000000000003 0.024 -0.29472 0.02736 -0.24768 0.02784 -0.9950399999999999 -0.014879999999999999 -1.45536 0.05184 -0.24576 0.035519999999999996 -0.4296 0.11856 -0.5207999999999999 0.20543999999999998 -0.12576 0.12 -0.2208 0.32496 -0.27408 0.5711999999999999 -0.07872 0.36624 -0.0744 0.8404799999999999 -0.08399999999999999 1.0823999999999998 -0.0014399999999999999 0.0408 0.0057599999999999995 0.21359999999999998 0.01104 0.324 -0.11279999999999998 0.07007999999999999 -0.26304 0.11232 -0.42096 0.14976 -0.37824 0.08928 -0.8063999999999999 0.11567999999999999 -1.08816 0.15023999999999998 -0.10175999999999999 0.01296 -0.4992 0.00096 -0.6671999999999999 0.04512a0.49487999999999993 0.49487999999999993 0 0 0 -0.24672 0.14687999999999998c-0.1584 0.17759999999999998 -0.27359999999999995 0.4008 -0.35184 0.6528a3.19536 3.19536 0 0 0 -0.11711999999999999 0.5774400000000001c-0.33552 -0.012 -0.78336 -0.0384 -1.16112 -0.005279999999999999 -0.34224 0.0288 -0.6350399999999999 0.11664 -0.81504 0.25056 -0.1176 0.08688 -0.22176 0.2496 -0.27215999999999996 0.4728 -0.0816 0.36 -0.03407999999999999 0.95424 -0.029759999999999998 1.1616 0.01584 0.66576 -0.06384000000000001 1.96368 0.22559999999999997 2.85744 0.18431999999999998 0.5683199999999999 0.516 0.9864 1.0152 1.13952 0.39984 0.12288 0.8971199999999999 0.16559999999999997 1.41408 0.1632 0.6940799999999999 -0.0028799999999999997 1.4270399999999999 -0.08496 1.9766400000000002 -0.12576 0.13056 -0.01008 0.5500799999999999 -0.01104 0.80304 -0.06336 0.19776 -0.04128 0.33696 -0.12912 0.40415999999999996 -0.20543999999999998a1.0368 1.0368 0 0 0 0.23184 -0.45503999999999994c0.0552 -0.23279999999999998 0.03696 -0.49632 0.0144 -0.7488 -0.00816 -0.09839999999999999 -0.03168 -0.19488 -0.02256 -0.27552 0.1152 -0.00672 0.2592 0.005279999999999999 0.28896 -0.00192 0.32976 -0.08256 0.70368 -0.07103999999999999 1.04112 -0.15504a1.6176 1.6176 0 0 0 0.54624 -0.24 0.9503999999999999 0.9503999999999999 0 0 0 0.37056 -0.5088c0.08399999999999999 -0.26688 0.06432 -0.5976 0.03024 -0.9168 -0.01248 -0.11856 -0.0264 -0.2352 -0.02736 -0.34224 -0.00096 -0.0384 -0.00336 -0.07536 0 -0.10848 0.0816 -0.02784 0.21744 -0.07343999999999999 0.26112 -0.09215999999999999 0.35519999999999996 -0.14831999999999998 1.03296 -0.16032 1.4865599999999999 -0.31392 0.192 -0.06528 0.35375999999999996 -0.15168 0.46896 -0.26208000000000004 0.20112 -0.19248 0.3264 -0.45599999999999996 0.38880000000000003 -0.7512 0.0744 -0.35519999999999996 0.06384000000000001 -0.7536 0.04416 -1.0632 -0.00192 -0.024 -0.0528 -0.16607999999999998 -0.07824 -0.28847999999999996 0.47519999999999996 -0.13392 1.0267199999999999 -0.0624 1.52064 -0.15936a2.0208 2.0208 0 0 0 0.49056 -0.1584c0.40271999999999997 -0.19535999999999998 0.63936 -0.5688 0.7488 -1.0368 0.19440000000000002 -0.82848 -0.01344 -1.96704 -0.07872 -2.5824l-0.00096 -0.00816a0.2352 0.2352 0 0 0 -0.23135999999999998 -0.21359999999999998 62.599199999999996 62.599199999999996 0 0 1 -2.1144 -0.07584c-1.0598400000000001 -0.0552 -2.11776 -0.1296 -3.17616 -0.19871999999999998a0.29616 0.29616 0 0 0 -0.312 0.2808c-0.01248 0.21504 0.04848 0.6139199999999999 0.056639999999999996 0.93792 0.00048 0.0384 0.00192 0.07488 0.0014399999999999999 0.10848Zm5.32896 -0.58416c0.04992 0.5102399999999999 0.14304 1.25184 0.06096 1.8864 -0.05568 0.42719999999999997 -0.1824 0.8092799999999999 -0.52752 0.9638399999999999 -0.11184000000000001 0.05039999999999999 -0.2304 0.08016 -0.35184 0.10079999999999999 -0.59712 0.09888 -1.2609599999999999 -0.011519999999999999 -1.8143999999999998 0.19679999999999997 -0.04128 0.01584 -0.20879999999999999 0.11375999999999999 -0.21216 0.35231999999999997 -0.0024 0.13296 0.029279999999999997 0.46271999999999996 0.0312 0.5112 0.0096 0.25632 0.01584 0.5875199999999999 -0.05376 0.88032 -0.03648 0.15072 -0.09264 0.29184 -0.19968 0.38832 -0.0816 0.07536 -0.21792 0.10656 -0.36768 0.1392 -0.46752 0.10175999999999999 -1.05744 0.12336 -1.3905599999999998 0.25296 -0.0768 0.03024 -0.27359999999999995 0.07488 -0.38976 0.13248000000000001a0.55632 0.55632 0 0 0 -0.23087999999999997 0.204 0.90384 0.90384 0 0 0 -0.10944 0.30863999999999997c-0.04656 0.25968 0.008639999999999998 0.6081599999999999 0.02208 0.93744 0.00672 0.16512 0.033600000000000005 0.33503999999999995 -0.09792 0.42336 -0.12 0.08112 -0.2592 0.11279999999999998 -0.40175999999999995 0.13488 -0.30768 0.048 -0.6336 0.0456 -0.9263999999999999 0.11327999999999999 -0.06528 0.01536 -0.39936 0.04416 -0.5313599999999999 0.09215999999999999a0.48911999999999994 0.48911999999999994 0 0 0 -0.26256 0.2112c-0.0816 0.14015999999999998 -0.12192 0.30624 -0.1296 0.49007999999999996 -0.00672 0.16607999999999998 0.0144 0.3528 0.02592 0.5376000000000001 0.00672 0.11279999999999998 0.0264 0.22943999999999998 -0.01248 0.32496l-0.67872 0.048c-0.53328 0.03984 -1.24416 0.12047999999999999 -1.91712 0.12384 -0.42432 0.00192 -0.8332799999999999 -0.025439999999999997 -1.1616 -0.12576 -0.33936 -0.1032 -0.45696 -0.4910399999999999 -0.5423999999999999 -0.9177599999999999 -0.15744 -0.7871999999999999 -0.09839999999999999 -1.75296 -0.11424 -2.28432 -0.0048 -0.16559999999999997 0.01008 -0.84768 0.01392 -0.9878399999999998 0.12672 -0.06096 0.3264 -0.06863999999999999 0.5371199999999999 -0.07824 0.4843199999999999 -0.02352 1.02432 0.0192 1.28256 0.00192a0.39552 0.39552 0 0 0 0.372 -0.3816c0.005279999999999999 -0.22224 0.02256 -0.44496 0.06815999999999998 -0.64848 0.033600000000000005 -0.15023999999999998 0.08016 -0.29136 0.1536 -0.40703999999999996 0.13392 -0.00672 0.432 -0.02256 0.49871999999999994 -0.03216 0.35519999999999996 -0.04944 0.9239999999999999 -0.096 1.3727999999999998 -0.24576 0.26112 -0.08688 0.48527999999999993 -0.20879999999999999 0.6384 -0.36719999999999997a0.42672 0.42672 0 0 0 0.1152 -0.25728c0.012 -0.12192 -0.02256 -0.4104 -0.021119999999999996 -0.48 0.00336 -0.1896 -0.0096 -0.5371199999999999 0.029279999999999997 -0.84288 0.016800000000000002 -0.13392 0.02496 -0.26256 0.08112 -0.33359999999999995 0.050879999999999995 -0.012 0.3048 -0.06720000000000001 0.49199999999999994 -0.07968 0.42624 -0.028319999999999998 0.91344 -0.0192 1.1039999999999999 -0.04464 0.058559999999999994 -0.00768 0.38592 -0.03024 0.5136000000000001 -0.0648 0.1632 -0.04464 0.23376 -0.15072 0.25536000000000003 -0.20351999999999998a1.0464 1.0464 0 0 0 0.06384000000000001 -0.37008c0.00336 -0.22176 -0.03936 -0.5064 -0.06432 -0.74112 0.9528 0.03888 1.9046399999999999 0.08016 2.8579199999999996 0.108 0.63984 0.01824 1.27968 0.03024 1.92 0.029759999999999998Zm-7.07952 8.735999999999999c-0.07824 0.0072 -0.13679999999999998 0.02496 -0.12096 0.06767999999999999 0.02448 0.0648 0.0792 -0.00048 0.12096 -0.06720000000000001Zm4.8369599999999995 -5.09856c0.08112 -0.06624000000000001 0.14304 -0.13776 0.04176 -0.13679999999999998 -0.046079999999999996 0.00048 -0.05184 0.06 -0.04176 0.13679999999999998Z" clip-rule="evenodd" stroke-width="1"></path><path fill="#000000" fill-rule="evenodd" d="M18.658559999999998 38.9952a0.23376 0.23376 0 0 0 0.18624 -0.22512c0.0288 -0.64512 0.0576 -1.40496 0.05616 -2.14368a18.09936 18.09936 0 0 0 -0.0528 -1.44576c-0.02208 -0.2592 -0.050879999999999995 -0.6172799999999999 -0.156 -0.9225599999999999 -0.09264 -0.27024 -0.2496 -0.49679999999999996 -0.47231999999999996 -0.6384 -0.23328 -0.1464 -0.7607999999999999 -0.216 -1.39008 -0.20592 -1.0343999999999998 0.017279999999999997 -2.3793599999999997 0.20495999999999998 -2.7984 0.20112a0.42575999999999997 0.42575999999999997 0 0 0 -0.2904 0.11664l-0.18192 0.043199999999999995a0.42719999999999997 0.42719999999999997 0 0 0 -0.28031999999999996 0.17279999999999998 1.3727999999999998 1.3727999999999998 0 0 0 -0.23279999999999998 0.5529599999999999c-0.06815999999999998 0.34896 -0.0192 0.744 -0.00768 1.0752000000000002 0.02592 0.59808 -0.04128 1.4064 0.09984 2.1081600000000003 0.11424 0.5711999999999999 0.35856 1.07568 0.8184 1.4001599999999998 0.30144 0.21023999999999998 0.66096 0.32064 1.04352 0.36288 0.48527999999999993 0.05328 1.00608 0.0048 1.44288 -0.0024 0.32496 -0.00624 0.6547200000000001 -0.00672 0.9796799999999999 -0.04223999999999999a3.4704 3.4704 0 0 0 0.6744 -0.13488c0.12576 -0.03984 0.26880000000000004 -0.07056 0.38832 -0.13727999999999999 0.06432 -0.03648 0.12384 -0.0792 0.17328 -0.13488Zm-0.28319999999999995 -0.37152a45.614399999999996 45.614399999999996 0 0 0 -0.0552 -1.98144 17.621760000000002 17.621760000000002 0 0 0 -0.1224 -1.3905599999999998c-0.02448 -0.1824 -0.05232 -0.42288 -0.12 -0.64512 -0.04656 -0.15023999999999998 -0.10704 -0.29519999999999996 -0.23135999999999998 -0.36624 -0.16895999999999997 -0.096 -0.5471999999999999 -0.07488 -0.99072 -0.0528 -0.9432 0.04704 -2.13792 0.22607999999999998 -2.67168 0.26544a1.0056 1.0056 0 0 1 -0.14064 0.07103999999999999c-0.04416 0.01824 -0.09024 0.033600000000000005 -0.13631999999999997 0.04656a0.8587199999999999 0.8587199999999999 0 0 0 -0.036 0.192c-0.025439999999999997 0.2616 0.01296 0.5423999999999999 0.021599999999999998 0.78336 0.0144 0.564 -0.06336 1.32384 0.04896 1.98912 0.0624 0.372 0.17664 0.7180799999999999 0.46463999999999994 0.94128 0.19440000000000002 0.1536 0.43536 0.23184 0.6911999999999999 0.27599999999999997 0.45359999999999995 0.07824 0.9446399999999999 0.06 1.3555199999999998 0.07968 0.3072 0.01536 0.6192 0.03744 0.9288 0.02448a2.92032 2.92032 0 0 0 0.57888 -0.07392c0.0768 -0.01872 0.1608 -0.03168 0.24048 -0.0552 0.043199999999999995 -0.01296 0.08832 -0.02352 0.12 -0.0576a0.24528 0.24528 0 0 1 0.05424 -0.046079999999999996Z" clip-rule="evenodd" stroke-width="1"></path></svg>