<svg xmlns="http://www.w3.org/2000/svg" fill="none" viewBox="0 0 48 48" height="48" width="48" id="Thug-Life--Streamline-Memes.svg"><desc>Thug Life Streamline Element: https://streamlinehq.com</desc><path stroke="#000000" d="M11.9518 34.5037C10.3393 36.0902 11.049 38.8272 13.2292 39.4304C14.2574 39.7148 15.359 39.4197 16.1073 38.6592C17.7197 37.0727 17.0101 34.3356 14.8299 33.7325C13.8016 33.448 12.7 33.7432 11.9518 34.5037" stroke-width="1"></path><path stroke="#000000" d="M12.8045 33.784L25.0849 23.9597C25.4832 23.641 26.0575 23.6729 26.4181 24.0337L26.5362 24.1518C26.897 24.5124 26.9289 25.0867 26.6102 25.485L16.7859 37.7654C16.7328 37.8316 16.6716 37.8908 16.6037 37.9416C17.667 35.9441 16.1693 33.5447 13.9078 33.6225C13.4608 33.6379 13.0232 33.7551 12.6283 33.9652C12.6784 33.8991 12.7364 33.8381 12.8045 33.784Z" stroke-width="1"></path><path stroke="#000000" stroke-linecap="round" stroke-linejoin="round" d="M0.9804 8.4635H47.0196V12.3818H45.0599V14.3405H43.1012V16.2992H41.1426V18.2588H29.3876V16.2992H27.4289V14.3405H25.4692V10.4222H22.5307V14.3405H20.5721V16.2992H18.6124V18.2588H6.8574V16.2992H4.8988V14.3415H2.9391V12.3828H0.9804V8.4635Z" stroke-width="1"></path><path fill="#000000" fill-rule="evenodd" d="M5.6284 10.4012H4.8777V12.4029H6.8354V14.3615H8.7951V16.3212H10.7968V14.3615H12.7564V12.3598H10.7978V10.4012H8.7961V12.3598H6.8784V10.4012H5.6274ZM9.5457 14.3195H8.8381V12.4029H10.7547V14.3195H9.5467Z" clip-rule="evenodd" stroke-width="1"></path><path fill="#000000" fill-rule="evenodd" d="M30.1172 10.4012H29.3666V12.4029H31.3252V14.3615H33.2839V16.3212H35.2856V14.3615H37.2453V12.3598H35.2856V10.4012H33.2839V12.3598H31.3683V10.4012H30.1172ZM34.0355 14.3195H33.3269V12.4029H35.2436V14.3195H34.0345Z" clip-rule="evenodd" stroke-width="1"></path></svg>