<svg xmlns="http://www.w3.org/2000/svg" fill="none" viewBox="0 0 48 48" height="48" width="48" id="Tobey-Maguire-Hand-Drawn--Streamline-Memes.svg"><desc>Tobey Maguire Hand Drawn Streamline Element: https://streamlinehq.com</desc><path fill="#000000" fill-rule="evenodd" d="M20.38272 47.1528c0 0.9503999999999999 1.9007999999999998 0.7919999999999999 2.2176 0 0.6336 -1.5839999999999999 2.0592 -4.11936 3.80208 -4.43616 0 0.1584 0.3168 4.43616 0.3168 4.5945599999999995 0 0.9503999999999999 1.9012799999999999 0.47519999999999996 2.05968 -0.3168 0 -0.47519999999999996 -0.3168 -3.64368 -0.1584 -5.22816 2.6932799999999997 0.6336 4.75296 2.0592 5.70336 3.48528 0.3168 0.47519999999999996 1.4256 0 1.9007999999999998 -0.47519999999999996 -0.47519999999999996 -3.1679999999999997 -6.49536 -6.02016 -11.08944 -4.11888 -1.5839999999999999 0.1584 -4.59408 3.80208 -4.752479999999999 6.49536Z" clip-rule="evenodd" stroke-width="1"></path><path fill="#000000" fill-rule="evenodd" d="M37.17552 26.55744c1.1088 -0.47519999999999996 2.6928 -3.01008 3.1679999999999997 -3.8025599999999997 1.58448 -2.8512 0.1584 -4.43568 -0.9503999999999999 -4.1184 1.1088 -5.54544 0 -10.13952 -2.2176 -13.4664 -0.3168 -0.47519999999999996 -1.7424 -2.376 -2.2176 -2.0592 -0.3168 0.3168 0.47519999999999996 0.3168 1.7424 2.2176 1.4256 2.0592 2.376 4.91088 2.5344 7.920959999999999 0.1584 4.277760000000001 -0.9503999999999999 5.861759999999999 -0.47519999999999996 6.17856 0.3168 0.1584 0.7919999999999999 -0.6336 1.2672 0 1.1092799999999998 1.4256 -1.4256 4.5945599999999995 -2.5344 5.861759999999999 -0.6336 0.6336 -1.2672 0.47519999999999996 -1.1088 1.1088 0 2.85168 -1.2672 9.34752 -3.64416 12.04032 -1.7424 2.0592 -3.96 2.37648 -6.8121599999999995 2.53488 -2.8512 0.1584 -6.17856 -1.7424 -8.554559999999999 -4.59408 -4.11936 -5.22816 -2.6932799999999997 -9.50544 -3.48528 -9.82224 -0.47519999999999996 -0.3168 -0.6336 0.6336 -1.9012799999999999 0.6336 -2.5344 0 -5.22816 -4.11936 -3.64368 -6.8121599999999995 0.6336 -1.1088 1.2672 -0.7919999999999999 1.1088 -1.2672 -0.1584 -2.69376 -0.1584 -5.22816 0.6336 -7.92144C13.25328 0.10031999999999999 27.67008 -1.48368 33.53184 2.3184c0.3168 0.1584 0.47519999999999996 -0.1584 0.3168 -0.3168C27.511680000000002 -2.1172799999999996 7.3919999999999995 -1.32528 8.659199999999998 18.9528c-4.277279999999999 2.6932799999999997 0.3168 10.93152 4.59408 9.03024 0.1584 7.920959999999999 7.12944 14.4168 12.673919999999999 14.099519999999998 5.386559999999999 -0.3168 8.55504 -1.5839999999999999 10.45632 -9.98064 0.3168 -0.7919999999999999 0.7919999999999999 -4.11888 0.7919999999999999 -5.54448Z" clip-rule="evenodd" stroke-width="1"></path><path fill="#000000" fill-rule="evenodd" d="M18.164640000000002 16.1016c-5.22816 0.47519999999999996 -4.43568 5.06928 1.2672 4.752479999999999 4.911359999999999 -0.1584 5.386559999999999 -4.91088 0 -4.752479999999999 -0.3168 0 -0.3168 0.47519999999999996 0 0.47519999999999996 3.4857599999999995 0 4.11936 2.2176 1.5839999999999999 3.1684799999999997 -1.4256 0.47519999999999996 -4.2768 0.3168 -5.2272 -0.7919999999999999 -1.1092799999999998 -1.2672 0.9503999999999999 -2.2176 2.5344 -2.37648 0.1584 0 0.1584 -0.47519999999999996 -0.1584 -0.47519999999999996Z" clip-rule="evenodd" stroke-width="1"></path><path fill="#000000" fill-rule="evenodd" d="M31.472159999999995 15.626399999999999c-5.227679999999999 0.47519999999999996 -4.43568 5.06976 1.2672 4.75296 4.911359999999999 -0.1584 5.386559999999999 -4.911359999999999 0 -4.75296 -0.3168 0 -0.3168 0.47519999999999996 0 0.47519999999999996 3.4857599999999995 0 4.11936 2.21808 1.58448 3.16896 -1.4256 0.47519999999999996 -4.277279999999999 0.3168 -5.227679999999999 -0.7919999999999999 -1.1088 -1.26768 0.9503999999999999 -2.21808 2.5344 -2.37696 0.3168 0 0.1584 -0.47519999999999996 -0.1584 -0.47519999999999996Z" clip-rule="evenodd" stroke-width="1"></path><path fill="#000000" fill-rule="evenodd" d="M21.01632 18.79536c0.47519999999999996 0.6336 1.5839999999999999 0.47519999999999996 1.9007999999999998 -0.1584 0.3168 -0.6336 0 -1.26768 -0.47519999999999996 -1.42608 -1.1088 -0.47519999999999996 -2.2176 0.7919999999999999 -1.4256 1.5839999999999999Z" clip-rule="evenodd" stroke-width="1"></path><path fill="#000000" fill-rule="evenodd" d="M34.32384 18.3192c0.47519999999999996 0.6336 1.5839999999999999 0.47519999999999996 1.9007999999999998 -0.1584 0.3168 -0.6336 0 -1.2672 -0.47519999999999996 -1.4256 -1.1088 -0.47519999999999996 -2.2176 0.6336 -1.4256 1.5839999999999999Z" clip-rule="evenodd" stroke-width="1"></path><path fill="#000000" fill-rule="evenodd" d="M17.68944 22.28016c2.5344 0.3168 4.277279999999999 -0.9503999999999999 5.227679999999999 -3.01008 0.1584 -0.3168 -0.3168 -0.47519999999999996 -0.47519999999999996 -0.1584 -0.9503999999999999 1.7424 -3.0096 2.6928 -4.752479999999999 2.8512 -0.3168 -0.1584 -0.3168 0.3168 0 0.3168Z" clip-rule="evenodd" stroke-width="1"></path><path fill="#000000" fill-rule="evenodd" d="M20.85792 31.4688c0.3168 -0.63408 0.3168 -0.9508800000000001 0.47519999999999996 -1.26768 0.1584 -0.3168 -0.1584 -0.47519999999999996 -0.3168 -0.3168 -0.9503999999999999 0.7919999999999999 -0.9503999999999999 1.4256 -0.9503999999999999 2.2176 0.21216 0.4224 0.7392 -0.5270400000000001 0.7919999999999999 -0.6336Z" clip-rule="evenodd" stroke-width="1"></path><path fill="#000000" fill-rule="evenodd" d="M30.363359999999997 27.82512c0.47519999999999996 0.7919999999999999 1.4256 3.3263999999999996 1.7424 4.752479999999999 0 0.3168 0.47519999999999996 0.3168 0.47519999999999996 0 0 -2.0592 -0.3168 -3.64368 -1.7424 -5.06976 -0.3168 -0.3168 -0.6336 0 -0.47519999999999996 0.3168Z" clip-rule="evenodd" stroke-width="1"></path><path fill="#000000" fill-rule="evenodd" d="M24.5016 35.27088c1.4256 0.9503999999999999 3.0096 0.7919999999999999 4.277279999999999 -0.3168 0.3168 -0.1584 0 -0.6336 -0.3168 -0.47519999999999996 -1.1088 0.47519999999999996 -2.8512 0.47519999999999996 -3.80208 0.1584 -0.1584 0 -0.3168 0.47519999999999996 -0.1584 0.6336Z" clip-rule="evenodd" stroke-width="1"></path><path fill="#000000" fill-rule="evenodd" d="M28.30368 18.478080000000002c0.3168 2.376 2.6928 3.4848 4.911359999999999 2.8512 0.3168 0 0.1584 -0.47519999999999996 -0.1584 -0.47519999999999996 -1.7428799999999998 0.1584 -3.8025599999999997 -1.1088 -4.277760000000001 -2.5344 0 -0.3168 -0.47519999999999996 -0.1584 -0.47519999999999996 0.1584Z" clip-rule="evenodd" stroke-width="1"></path><path fill="#000000" fill-rule="evenodd" d="M38.9184 20.69568c0.7919999999999999 -6.02016 -0.9508800000000001 -12.35712 -5.22816 -16.9512 -0.6336 -0.7919999999999999 -1.4256 1.7424 -6.812639999999999 3.0096 -5.38608 1.26768 -7.669919999999999 -0.7128 -7.986719999999999 0.23807999999999999 -0.9503999999999999 1.9007999999999998 -3.0988800000000003 3.8438399999999993 -5.00016 4.95312 -0.47519999999999996 0.3168 -0.28991999999999996 4.15344 -2.53824 7.84608 -1.9012799999999999 -1.7424 -3.16896 -0.20448 -2.85168 0.11232 0.3168 0.3168 0.47519999999999996 -0.47519999999999996 1.2672 -0.3168 0.9503999999999999 0.1584 1.4256 1.1088 1.5839999999999999 1.1088 0.47519999999999996 0 1.58448 -2.376 1.9012799999999999 -3.1684799999999997 0.6336 -1.5839999999999999 0.9503999999999999 -3.1684799999999997 1.2672 -4.911359999999999 1.9012799999999999 -1.1088 3.96096 -3.0096 5.06976 -4.91088 4.43568 0.9503999999999999 9.663839999999999 -0.1584 13.465919999999999 -3.01008 1.9007999999999998 2.0592 3.32688 4.59408 4.11936 7.28736 1.9007999999999998 6.17856 0.3168 8.87184 1.1088 9.03024 0.47519999999999996 -0.1584 0.6336 -0.1584 0.6336 -0.3168Z" clip-rule="evenodd" stroke-width="1"></path><path fill="#000000" fill-rule="evenodd" d="M13.094879999999998 27.98304c0.3168 2.8512 1.1088 3.9604799999999996 2.21808 6.49536 0.1584 0.3168 0.47519999999999996 0.1584 0.47519999999999996 -0.1584 -1.2672 -4.277279999999999 -1.7424 -4.911359999999999 -2.2176 -6.49536 0 -0.1584 -0.47519999999999996 0 -0.47519999999999996 0.1584Z" clip-rule="evenodd" stroke-width="1"></path><path fill="#000000" fill-rule="evenodd" d="M20.7624 30.399359999999998c0.9503999999999999 2.2176 1.2043199999999998 2.97072 5.006399999999999 2.8123199999999997 1.1088 0 2.0592 0 3.1684799999999997 -0.47519999999999996 1.5839999999999999 -0.6336 2.5344 -2.21808 2.5344 -3.80208 0 -0.3168 -0.47519999999999996 -0.3168 -0.47519999999999996 0 -0.1584 1.4256 -0.9503999999999999 2.6928 -2.376 3.1679999999999997 -0.9503999999999999 0.3168 -5.06976 0.6336 -6.17856 0 -0.6336 -0.3168 -0.88752 -1.0694400000000002 -1.3632 -1.7030399999999999 0 -0.47519999999999996 -0.47519999999999996 -0.1584 -0.3168 0Z" clip-rule="evenodd" stroke-width="1"></path><path fill="#000000" fill-rule="evenodd" d="M25.1352 28.9344c-0.3168 0.9503999999999999 -0.1584 1.1088 0.1584 2.0592 0 0.3168 0.47519999999999996 0.3168 0.47519999999999996 0 0.1584 -1.1088 0.1584 -1.1088 -0.1584 -2.0592 0 -0.3168 -0.47519999999999996 -0.3168 -0.47519999999999996 0Z" clip-rule="evenodd" stroke-width="1"></path><path fill="#000000" fill-rule="evenodd" d="M26.4024 27.507839999999998c-0.1584 1.7424 0 1.5839999999999999 0.3168 3.32688 0 0.3168 0.47519999999999996 0.3168 0.47519999999999996 0 0 -2.0592 -0.1584 -2.0592 -0.3168 -3.1679999999999997 0 -0.47519999999999996 -0.47519999999999996 -0.47519999999999996 -0.47519999999999996 -0.1584Z" clip-rule="evenodd" stroke-width="1"></path><path fill="#000000" fill-rule="evenodd" d="M16.10496 12.6168c0.7919999999999999 -1.1088 2.6932799999999997 -1.7428799999999998 4.75296 -0.6336 1.4256 0.7919999999999999 1.2672 1.2672 1.5839999999999999 1.1088 0.3168 -0.3168 -0.9503999999999999 -1.4256 -1.2672 -1.5839999999999999 -2.37648 -1.7428799999999998 -4.75296 -0.79248 -5.54496 0.9503999999999999 -0.1584 0.3168 0.3168 0.47519999999999996 0.47519999999999996 0.1584Z" clip-rule="evenodd" stroke-width="1"></path><path fill="#000000" fill-rule="evenodd" d="M28.77888 12.141119999999999c2.0592 -1.5839999999999999 5.386559999999999 -2.0592 7.28736 0 0.1584 0.1584 0.6336 0 0.3168 -0.3168 -2.0592 -2.6928 -5.7028799999999995 -2.5344 -7.920959999999999 0 -0.1584 0.1584 0.1584 0.6336 0.3168 0.3168Z" clip-rule="evenodd" stroke-width="1"></path><path fill="#000000" fill-rule="evenodd" d="M23.392799999999998 26.39904c0.6336 0.6336 0.7919999999999999 0.47519999999999996 1.7424 0.47519999999999996 0.3168 0.1584 0.47519999999999996 -0.3168 0.1584 -0.47519999999999996 -0.9503999999999999 -0.6336 -0.9503999999999999 -0.47519999999999996 -1.5839999999999999 -0.47519999999999996 -0.47519999999999996 0 -0.6336 0.3168 -0.3168 0.47519999999999996Z" clip-rule="evenodd" stroke-width="1"></path><path fill="#000000" fill-rule="evenodd" d="M27.03648 26.874719999999996c0.7919999999999999 0 0.7919999999999999 0 1.5839999999999999 -0.6336 0.3168 -0.1584 0.1584 -0.47519999999999996 -0.1584 -0.47519999999999996 -1.1088 0.1584 -1.1088 0.1584 -1.5839999999999999 0.6336 -0.3168 0.1584 -0.1584 0.6336 0.1584 0.47519999999999996Z" clip-rule="evenodd" stroke-width="1"></path><path fill="#000000" fill-rule="evenodd" d="M22.60032 26.55792c-0.7919999999999999 -0.9503999999999999 0.1584 -2.37648 1.1088 -3.32688 0.1584 -0.1584 -0.1584 -0.6336 -0.3168 -0.3168 -0.7919999999999999 0.6336 -1.5839999999999999 1.2672 -1.9007999999999998 2.2176 -0.1584 0.7919999999999999 0 1.4256 0.7919999999999999 1.9007999999999998 0.1584 0 0.47519999999999996 -0.3168 0.3168 -0.47519999999999996Z" clip-rule="evenodd" stroke-width="1"></path><path fill="#000000" fill-rule="evenodd" d="M21.01632 37.17168c5.86128 6.02016 11.72304 -0.47519999999999996 10.93104 -1.1088 -0.47519999999999996 -0.3168 -1.9007999999999998 3.0096 -5.54496 2.8512 -1.5839999999999999 -0.1584 -3.8015999999999996 -0.7919999999999999 -5.06928 -2.0592 -0.1584 -0.3168 -0.47519999999999996 0 -0.3168 0.3168Z" clip-rule="evenodd" stroke-width="1"></path><path fill="#000000" fill-rule="evenodd" d="M28.93728 46.835519999999995c-0.47519999999999996 -6.8121599999999995 0.6336 -6.01968 -2.376 -5.54448 -0.1584 0 -0.47519999999999996 0.1584 -0.47519999999999996 0.47519999999999996 0.3168 6.02016 0.47519999999999996 5.70336 0.6336 5.70336 0.3168 0 0.1584 0 0.1584 -5.386559999999999 0.3168 0 0.6336 -0.1584 0.9503999999999999 -0.1584 0 0.9503999999999999 0 1.1088 0.1584 2.8512 0.1584 2.21808 0.1584 2.37648 0.47519999999999996 2.37648 0.3168 0 0.47519999999999996 -0.1584 0.47519999999999996 -0.3168Z" clip-rule="evenodd" stroke-width="1"></path><path fill="#000000" fill-rule="evenodd" d="M27.67008 42.08304c-3.01008 0.3168 -4.752479999999999 2.0592 -5.22816 4.91088 0 0.3168 0.47519999999999996 0.47519999999999996 0.47519999999999996 0.1584 0.6336 -2.376 2.37648 -3.9604799999999996 4.75296 -4.59408 0.47519999999999996 0 0.3168 -0.47519999999999996 0 -0.47519999999999996Z" clip-rule="evenodd" stroke-width="1"></path><path fill="#000000" fill-rule="evenodd" d="M24.1848 40.97376c-2.37648 0.9503999999999999 -3.80208 3.48528 -3.96096 6.17856 0 0.3168 0.47519999999999996 0.3168 0.47519999999999996 0 0.3168 -2.2176 2.21808 -4.911359999999999 3.64416 -5.70336 0.3168 -0.1584 0 -0.6336 -0.1584 -0.47519999999999996Z" clip-rule="evenodd" stroke-width="1"></path><path fill="#000000" fill-rule="evenodd" d="M28.93728 42.08304c1.7424 0.47519999999999996 4.277760000000001 1.7424 5.22816 3.48528 0.1584 0.3168 0.6336 0.1584 0.47519999999999996 -0.1584 -0.7919999999999999 -1.9007999999999998 -2.376 -3.3263999999999996 -5.54496 -3.6431999999999998 -0.47519999999999996 -0.3168 -0.47519999999999996 0.1584 -0.1584 0.3168Z" clip-rule="evenodd" stroke-width="1"></path><path fill="#000000" fill-rule="evenodd" d="M30.52176 40.65744c2.376 0.47519999999999996 4.59408 1.9007999999999998 5.54448 4.11888 0.1584 0.3168 0.47519999999999996 0.1584 0.47519999999999996 -0.1584 -0.9503999999999999 -2.6928 -2.8512 -4.2768 -5.86128 -4.43568 -0.47519999999999996 0 -0.47519999999999996 0.47519999999999996 -0.1584 0.47519999999999996Z" clip-rule="evenodd" stroke-width="1"></path><path fill="#000000" fill-rule="evenodd" d="M18.164640000000002 30.835199999999997c0.1584 -0.1584 0.47519999999999996 -0.47519999999999996 0.6336 -0.7919999999999999 0.47519999999999996 -0.6336 0.8188799999999999 -1.0943999999999998 0.9503999999999999 -1.2672 0.3168 -0.1584 -0.1584 -0.6336 -0.3168 -0.3168 -1.2672 0.7919999999999999 -1.4256 1.4256 -1.5839999999999999 2.376 -0.06096 0.13584 0.1704 0.19776 0.3168 0Z" clip-rule="evenodd" stroke-width="1"></path></svg>