<svg xmlns="http://www.w3.org/2000/svg" fill="none" viewBox="0 0 48 48" height="48" width="48" id="Troll-Face-Hand-Drawn--Streamline-Memes.svg"><desc>Troll Face Hand Drawn Streamline Element: https://streamlinehq.com</desc><path fill="#000000" fill-rule="evenodd" d="M15.783840000000001 35.16624c6.1248 2.96352 11.65632 4.9392 18.373920000000002 4.34688 2.96352 -0.19776 5.72928 -0.7905599999999999 7.902719999999999 -2.76624 0.19727999999999998 -0.19727999999999998 0 -0.59232 -0.39503999999999995 -0.39503999999999995 -3.35904 2.96352 -10.66896 2.7657599999999998 -15.01536 1.77792 -3.5568 -0.59232 -7.70544 -2.17296 -10.66896 -3.55584 -0.39503999999999995 0 -0.5928 0.39503999999999995 -0.19727999999999998 0.59232Z" clip-rule="evenodd" stroke-width="1"></path><path fill="#000000" fill-rule="evenodd" d="M23.09376 25.88016c10.273439999999999 3.16128 16.20048 -0.19727999999999998 18.373920000000002 -5.13648 0.59232 2.96352 1.77792 8.890559999999999 0 11.65632 -1.7784 2.96352 -6.91488 3.5568 -10.273439999999999 3.5568 1.9756799999999997 0 2.7657599999999998 -0.39552 4.543679999999999 -0.7905599999999999 1.9756799999999997 -0.39552 4.14912 -0.7905599999999999 5.532 -2.56848 0.9878399999999998 -1.3828799999999999 0.7905599999999999 -1.58064 0.9878399999999998 -2.17344C34.15728 34.7712 20.328 34.375679999999996 14.203199999999999 26.2752c-0.39552 -0.59232 9.483360000000001 6.32256 21.13968 3.35904 1.1856 -0.39503999999999995 6.32208 -0.9878399999999998 6.91488 -2.96352 0 -1.9756799999999997 -0.19776 -3.7536 -0.7900799999999999 -5.532 -2.3712 4.74144 -8.6928 7.902719999999999 -18.3744 4.74144Zm-13.039679999999999 -1.9756799999999997 0.5928 0.5928c-0.19776 0.5928 0.19776 1.1856 0.39503999999999995 1.77792 -0.5928 -1.1856 -0.7900799999999999 -1.77792 -0.9878399999999998 -2.37072Zm-0.19776 -0.9878399999999998c0 -0.39503999999999995 -0.19727999999999998 -0.9878399999999998 -0.19727999999999998 -1.3823999999999999 0 -0.19776 -0.19776 -0.7905599999999999 -0.19776 -0.7905599999999999 0.5928 -0.39552 2.3712 0.5928 -0.19727999999999998 -0.5928 0 0.7900799999999999 0.19727999999999998 1.77792 0.59232 2.7657599999999998Z" clip-rule="evenodd" stroke-width="1"></path><path fill="#000000" fill-rule="evenodd" d="M34.83935999999999 15.295679999999999c0.33455999999999997 1.3377599999999998 0 1.50528 -1.0031999999999999 1.67232 -0.50208 0.16751999999999997 -0.83664 0.33455999999999997 -1.0036800000000001 -0.33455999999999997 -0.33455999999999997 -0.83616 0.16704 -1.0031999999999999 1.0031999999999999 -1.1712 1.1712 -0.16704 1.1712 0.16799999999999998 1.0036800000000001 -0.16704Z" clip-rule="evenodd" stroke-width="1"></path><path fill="#000000" fill-rule="evenodd" d="M41.66544 20.74368c0 -0.19727999999999998 -0.39552 -0.19727999999999998 -0.39552 0 -1.9756799999999997 3.9513599999999993 -6.519839999999999 6.32256 -10.668479999999999 6.1248 -11.261759999999999 -0.39503999999999995 -21.93024 -9.285599999999999 -21.732480000000002 -6.91488 0 1.58064 0.59232 2.7657599999999998 0.9878399999999998 4.14912 2.96352 8.6928 11.45856 12.446399999999999 20.546879999999998 12.446399999999999 3.9513599999999993 0 9.483360000000001 -0.59232 11.45904 -3.7536 1.58064 -2.96352 0.39503999999999995 -8.890559999999999 -0.19727999999999998 -12.05184Zm-0.39552 0.7905599999999999c0.5928 2.96352 1.38336 8.297759999999998 -0.19727999999999998 10.866240000000001 -3.7536 5.92704 -29.04288 5.72928 -31.413599999999995 -11.85408C16.57392 23.7072 22.896 27.26352 30.403679999999998 27.4608c4.34688 0.19727999999999998 8.890559999999999 -2.17344 10.866240000000001 -5.92704Z" clip-rule="evenodd" stroke-width="1"></path><path fill="#000000" fill-rule="evenodd" d="M43.44336 9.67968C38.50416 4.14768 33.169439999999994 6.3216 22.896 4.54272c-2.7657599999999998 -0.39503999999999995 -5.72928 -1.9752 -8.6928 -0.7900799999999999 -3.7536 1.58064 -5.92704 5.532 -8.100480000000001 8.6928 -0.9878399999999998 1.38336 -2.3712 1.97616 -3.55632 3.16128 -2.3712 2.3712 -3.3585599999999998 6.32256 -1.77792 9.28608 1.1856 2.17296 3.3585599999999998 2.7657599999999998 4.74144 4.54416 1.58064 1.9752 2.5679999999999996 4.14864 4.7419199999999995 5.92704 1.77792 1.3823999999999999 3.7536 2.37072 5.72928 3.55584 4.14912 2.3712 8.49552 3.5568 13.23744 4.54416 2.96352 0.5928 5.72928 1.38336 8.6928 1.1856 2.7657599999999998 -0.19776 6.1248 -2.3712 7.70496 -4.54416 1.1856 -1.3828799999999999 -1.3823999999999999 -11.65632 -0.39503999999999995 -14.2248 0.7905599999999999 -1.9756799999999997 2.56848 -3.5568 2.76624 -5.72976 0.19727999999999998 -2.5679999999999996 -1.9756799999999997 -3.7536 -2.96352 -5.532 -0.5928 -1.1856 -0.39503999999999995 -2.7657599999999998 -0.9878399999999998 -4.14864 -0.19776 -0.19776 -0.5928 -0.19776 -0.39552 0.19727999999999998 0.5928 1.3828799999999999 0.19776 2.76624 0.7905599999999999 4.14912 0.9878399999999998 1.9756799999999997 3.1608 2.96352 2.96352 5.334239999999999 -0.19776 2.17344 -1.9756799999999997 3.7536 -2.76624 5.532 -1.1856 2.5679999999999996 1.1856 13.039679999999999 0.39552 14.027519999999999 -1.7784 1.9756799999999997 -4.7419199999999995 3.9513599999999993 -7.3104 4.14864 -2.7657599999999998 0.19776 -5.72928 -0.59232 -8.49504 -1.1856 -4.54416 -0.9873599999999999 -8.89104 -2.17296 -12.8424 -4.543679999999999 -7.70496 -4.54416 -5.532 -2.76624 -10.273439999999999 -9.08832 -1.3828799999999999 -1.77792 -3.55632 -2.5679999999999996 -4.54416 -4.54416 -1.3828799999999999 -2.5679999999999996 -0.39503999999999995 -6.3216 1.77792 -8.297759999999998 1.1856 -1.1856 2.56848 -1.77792 3.5568 -3.1608 2.17296 -3.16128 4.14864 -6.91536 7.70496 -8.495999999999999 3.3585599999999998 -1.3823999999999999 3.9513599999999993 0.9883200000000001 16.596 1.58064 4.74144 0.19776 8.6928 0.39552 11.85408 3.9513599999999993 0.19727999999999998 0.19776 0.59232 -0.19727999999999998 0.39503999999999995 -0.39503999999999995Z" clip-rule="evenodd" stroke-width="1"></path><path fill="#000000" fill-rule="evenodd" d="M13.6104 13.8288c2.96352 -2.3712 5.92704 -3.5568 9.68112 -3.16128 0.59232 0 0.9873599999999999 0 1.3823999999999999 1.5801599999999998 0.5932799999999999 1.97616 0.39552 2.964 0.7905599999999999 2.76624 0.19776 0 0.19776 -0.19776 0.19776 -0.19776 -0.39503999999999995 -1.77792 0 -4.3464 -2.17344 -4.74144 -0.5928 -0.19776 -2.96352 -0.19776 -4.74144 0.19727999999999998 -2.17344 0.5928 -3.9513599999999993 1.7784 -5.72976 3.35904 0 0 0.39503999999999995 0.39503999999999995 0.5928 0.19727999999999998Z" clip-rule="evenodd" stroke-width="1"></path><path fill="#000000" fill-rule="evenodd" d="M31.193759999999997 15.2112c0.19776 -0.19727999999999998 0.19776 -0.59232 0.39503999999999995 -1.18512 0.19776 -0.5928 0.19776 -1.1856 0.39552 -1.58064 0.19727999999999998 -0.19776 -0.19776 -0.5928 -0.39552 -0.19776 -0.7900799999999999 0.9878399999999998 -0.7900799999999999 1.7784 -0.7900799999999999 2.964 0 0.19727999999999998 0.39503999999999995 0.19727999999999998 0.39503999999999995 0Z" clip-rule="evenodd" stroke-width="1"></path><path fill="#000000" fill-rule="evenodd" d="M30.996479999999995 11.26032c1.9756799999999997 -0.39552 5.13648 -0.19776 6.51936 1.3823999999999999 0.5928 0.7905599999999999 0.9883200000000001 1.7784 1.1856 2.76624 0 0.39503999999999995 0.5928 0.19776 0.39503999999999995 0 -0.39503999999999995 -2.5679999999999996 -1.1856 -4.14864 -3.7536 -4.74144 -1.58064 -0.39503999999999995 -2.96352 -0.19776 -4.54416 0.39503999999999995 -0.19776 -0.19776 -0.19776 0.19776 0.19776 0.19776Z" clip-rule="evenodd" stroke-width="1"></path><path fill="#000000" fill-rule="evenodd" d="M11.23968 11.65584c1.58064 -1.7784 4.9392 -4.34688 7.11264 -4.34688 2.17296 0 3.7536 1.7784 7.70496 1.58064 3.9513599999999993 -0.19727999999999998 7.902719999999999 -1.9756799999999997 11.6568 0.19776 0.19727999999999998 0.19776 0.59232 -0.19776 0.19727999999999998 -0.39503999999999995 -5.334239999999999 -3.16128 -10.07616 0.7900799999999999 -15.805439999999997 -1.1856 -3.3585599999999998 -1.1856 -4.54416 -2.17296 -9.08832 1.58064 -0.7900799999999999 0.5928 -1.58064 1.3828799999999999 -2.37072 2.37072 0 0 0.39503999999999995 0.39503999999999995 0.5928 0.19776Z" clip-rule="evenodd" stroke-width="1"></path><path fill="#000000" fill-rule="evenodd" d="M13.80768 11.4576c1.58064 -1.1856 4.3464 -2.96352 6.32256 -2.5679999999999996 0.39503999999999995 0 0.39503999999999995 -0.39552 0 -0.39552 -2.56848 -0.7900799999999999 -4.9392 0.7905599999999999 -6.717599999999999 2.76624 -0.19776 0 0.19776 0.39503999999999995 0.39503999999999995 0.19727999999999998Z" clip-rule="evenodd" stroke-width="1"></path><path fill="#000000" fill-rule="evenodd" d="M26.25456 9.87744c3.16128 0.9878399999999998 6.32256 -0.5928 9.28608 -0.5928 2.96352 0 3.3585599999999998 1.7784 3.7536 1.1856l0 -0.39503999999999995c-3.7536 -3.7536 -9.285599999999999 0 -12.84192 -0.7905599999999999 -0.39503999999999995 0.19776 -0.5928 0.5928 -0.19776 0.5928Z" clip-rule="evenodd" stroke-width="1"></path><path fill="#000000" fill-rule="evenodd" d="M30.79872 16.9896c0 1.1856 -0.19776 2.3712 0.5928 3.5568 0.39503999999999995 0.59232 0.9878399999999998 0.7896 1.58064 1.18512 0.9878399999999998 0.7900799999999999 -0.7905599999999999 2.5679999999999996 -1.38336 2.7657599999999998 -1.1856 0.5928 -1.9756799999999997 -0.19776 -1.9756799999999997 0.19776 -0.19727999999999998 0.59232 1.7784 0.5928 2.3712 0.39503999999999995 1.1856 -0.39503999999999995 3.3585599999999998 -2.7657599999999998 1.77792 -4.14912 -1.3828799999999999 -1.1856 -1.77792 0 -2.3712 -3.9513599999999993 -0.19679999999999997 -0.39503999999999995 -0.59232 -0.39503999999999995 -0.59232 0Z" clip-rule="evenodd" stroke-width="1"></path><path fill="#000000" fill-rule="evenodd" d="M24.47664 21.138239999999996c-2.96352 0.5928 -2.3712 2.96352 -0.9878399999999998 3.35904 1.3828799999999999 0.39503999999999995 2.17344 -1.58064 3.9513599999999993 -0.7905599999999999 0.19776 0.19776 0.5928 -0.19776 0.19727999999999998 -0.39503999999999995 -1.9756799999999997 -1.1856 -3.1608 0.5928 -3.9513599999999993 0.39503999999999995 -0.7900799999999999 -0.19776 -0.9878399999999998 -1.3828799999999999 0.9883200000000001 -1.9756799999999997 0.19727999999999998 -0.19776 0.19727999999999998 -0.7900799999999999 -0.19776 -0.5928Z" clip-rule="evenodd" stroke-width="1"></path><path fill="#000000" fill-rule="evenodd" d="M35.93568 19.953599999999998c2.5679999999999996 2.17344 4.3464 -0.19776 5.532 -0.39503999999999995 0.59232 -0.19776 1.5801599999999998 0.19727999999999998 1.9756799999999997 0.9878399999999998 0.19727999999999998 0.39503999999999995 0.19727999999999998 0.5928 0.39503999999999995 0.5928 0.5928 -0.19776 -0.39503999999999995 -2.76624 -2.3712 -2.3712 -1.77792 0.19776 -2.7657599999999998 2.3712 -5.135999999999999 0.7905599999999999 -0.39552 -0.19776 -0.7905599999999999 0.19776 -0.39552 0.39503999999999995Z" clip-rule="evenodd" stroke-width="1"></path><path fill="#000000" fill-rule="evenodd" d="M35.54064 14.81664c-1.1856 0 -2.17344 0.19776 -2.964 0.7905599999999999 -1.3823999999999999 0.9878399999999998 -1.5801599999999998 2.37072 0.7905599999999999 1.9756799999999997 1.77792 -0.39503999999999995 0 -0.19776 3.55632 -0.5928 2.5679999999999996 -0.39503999999999995 1.1856 -2.56848 -1.38336 -2.17344Zm-3.16128 1.9756799999999997c1.1856 -1.58064 4.74144 -1.9756799999999997 5.13696 -0.7900799999999999 -0.19776 0.19776 -0.5928 0.19727999999999998 -0.7905599999999999 0.19727999999999998 -3.3585599999999998 0.19776 -1.9756799999999997 0.19776 -3.7536 0.5928l-0.5928 0Z" clip-rule="evenodd" stroke-width="1"></path><path fill="#000000" fill-rule="evenodd" d="M18.35184 17.97792c-5.334239999999999 2.37072 -6.7171199999999995 -0.39552 -9.680639999999999 -0.5928 -1.7784 -0.19776 -3.55632 1.3823999999999999 -4.14912 2.96352 -0.5928 1.9756799999999997 0.19776 3.9513599999999993 0.5928 3.7536 0.19776 -0.19776 -0.19776 -0.39503999999999995 -0.19776 -1.1856 -0.39503999999999995 -2.7657599999999998 1.58064 -4.74144 3.5568 -4.543679999999999 2.96304 0.19727999999999998 3.9508799999999997 2.96352 9.8784 0.19727999999999998 0.59232 -0.39503999999999995 0.39503999999999995 -0.7900799999999999 0 -0.59232Z" clip-rule="evenodd" stroke-width="1"></path><path fill="#000000" fill-rule="evenodd" d="M24.47664 16.00176c-0.19776 -0.19727999999999998 -1.58064 -1.58064 -3.35904 -2.17296 -5.72928 -1.9756799999999997 -9.680639999999999 2.96352 -5.92704 3.1608 1.1856 0.19776 2.06112 -0.19727999999999998 3.6417599999999997 -0.19727999999999998 1.3828799999999999 0 1.89024 0.39503999999999995 2.87808 0.7900799999999999 1.9756799999999997 0.7905599999999999 3.5568 0 2.76624 -1.58064Zm-0.39552 0.39503999999999995c0.39552 0.7905599999999999 -0.6009599999999999 0.9192 -1.39104 0.9192 -0.9878399999999998 0 -1.8288 -0.9192 -3.37056 -0.9192 -1.23072 -0.19727999999999998 -4.63392 0.1104 -4.326239999999999 -0.19727999999999998 1.58064 -2.3712 5.92704 -2.76624 9.08784 0.19727999999999998Z" clip-rule="evenodd" stroke-width="1"></path><path fill="#000000" fill-rule="evenodd" d="M16.9416 14.12496c-0.5015999999999999 1.0031999999999999 -0.5015999999999999 2.0068799999999998 0.50208 2.1744 0.66864 0 1.83984 0.16751999999999997 2.1744 -0.33455999999999997 0.33455999999999997 -0.33455999999999997 0.6691199999999999 -1.1712 0.33455999999999997 -1.6727999999999998 -0.6691199999999999 -1.0031999999999999 -4.5168 0.50208 -3.01104 -0.16704Z" clip-rule="evenodd" stroke-width="1"></path><path fill="#000000" fill-rule="evenodd" d="M16.439999999999998 14.62656c-0.33455999999999997 1.0036800000000001 -0.16751999999999997 1.84032 1.0031999999999999 2.0073600000000003 0.83664 0.16751999999999997 2.0073600000000003 0.16751999999999997 2.5094399999999997 -0.33455999999999997 0.5015999999999999 -0.5015999999999999 0.83616 -1.6727999999999998 0.33455999999999997 -2.1744 -0.50208 -0.6691199999999999 -1.50528 -0.5015999999999999 -2.3419199999999996 -0.33455999999999997 -0.5015999999999999 0 -1.1712 0.16751999999999997 -1.6727999999999998 0.33455999999999997 -0.16704 0.16751999999999997 0 0.5015999999999999 0.16751999999999997 0.5015999999999999Zm0.6691199999999999 -0.16704c-0.16751999999999997 0.33455999999999997 -0.33455999999999997 1.0031999999999999 0 1.3382399999999999 0.16704 0.16704 2.0068799999999998 0.33455999999999997 2.34144 0 0.16751999999999997 -0.16751999999999997 0.33455999999999997 -0.6691199999999999 0.33455999999999997 -1.0036800000000001 0 -0.33455999999999997 -0.6691199999999999 -0.33455999999999997 -1.0031999999999999 -0.33455999999999997 -0.16751999999999997 -0.16704 -1.50576 -0.16704 -1.6727999999999998 0Z" clip-rule="evenodd" stroke-width="1"></path><path fill="#000000" fill-rule="evenodd" d="M14.45232 22.96944c-0.39503999999999995 1.58064 -0.19776 1.58064 0 3.16128 0 0.39503999999999995 0.39503999999999995 0.39503999999999995 0.39503999999999995 0 0.39503999999999995 -1.9756799999999997 0.19776 -1.9756799999999997 0 -3.16128 0 -0.39503999999999995 -0.39503999999999995 -0.39503999999999995 -0.39503999999999995 0Z" clip-rule="evenodd" stroke-width="1"></path><path fill="#000000" fill-rule="evenodd" d="M21.31584 25.485599999999998c-0.5928 1.1856 -0.7905599999999999 1.58064 -0.7905599999999999 3.55632 0 0.39503999999999995 0.39503999999999995 0.39503999999999995 0.39503999999999995 0 0.39552 -1.38336 0.5928 -1.3828799999999999 0.7905599999999999 -3.5568 0 -0.19679999999999997 -0.39503999999999995 -0.39455999999999997 -0.39503999999999995 0Z" clip-rule="evenodd" stroke-width="1"></path><path fill="#000000" fill-rule="evenodd" d="M27.2424 27.06528c-0.19727999999999998 1.1856 -0.5928 1.7784 -0.39503999999999995 3.7540799999999996 0 0.39503999999999995 0.39503999999999995 0.39503999999999995 0.39503999999999995 0 0.19776 -1.3828799999999999 0.5928 -1.77792 0.39503999999999995 -3.7536 0.19776 -0.39552 -0.39503999999999995 -0.39552 -0.39503999999999995 0Z" clip-rule="evenodd" stroke-width="1"></path><path fill="#000000" fill-rule="evenodd" d="M31.5888 27.26352c-0.19679999999999997 1.5801599999999998 -0.19679999999999997 1.3823999999999999 0.19776 3.3585599999999998 0 0.39503999999999995 0.39552 0.39503999999999995 0.39552 0 0.19727999999999998 -1.58064 0.39503999999999995 -1.3828799999999999 -0.19776 -3.3585599999999998 0 -0.19776 -0.39503999999999995 -0.19776 -0.39503999999999995 0Z" clip-rule="evenodd" stroke-width="1"></path><path fill="#000000" fill-rule="evenodd" d="M35.93568 26.2752c0.19776 2.56896 0.39503999999999995 2.17392 0.7900799999999999 3.5568 0 0.39503999999999995 0.5928 0.19727999999999998 0.39552 0 0 -1.9756799999999997 -0.19776 -2.3712 -0.7905599999999999 -3.5568 0 -0.39503999999999995 -0.5928 -0.19679999999999997 -0.39503999999999995 0Z" clip-rule="evenodd" stroke-width="1"></path><path fill="#000000" fill-rule="evenodd" d="M38.70192 24.3c0.39503999999999995 3.7536 0.59232 2.96352 0.7900799999999999 4.9392 0 0.39552 0.5928 0.19776 0.39503999999999995 0 0 -2.5679999999999996 -0.19727999999999998 -3.3585599999999998 -0.7900799999999999 -4.9392 0 -0.5928 -0.5928 -0.39503999999999995 -0.39503999999999995 0Z" clip-rule="evenodd" stroke-width="1"></path><path fill="#000000" fill-rule="evenodd" d="M22.69872 22.32432c-0.7905599999999999 0 -1.1856 0 -2.17344 0.5928 -0.39503999999999995 0.19776 -0.19776 0.5928 0.19776 0.39503999999999995 1.1856 -0.19727999999999998 0.9878399999999998 0 2.17296 -0.5928 0.19776 0 0.19776 -0.5928 -0.19727999999999998 -0.39503999999999995Z" clip-rule="evenodd" stroke-width="1"></path><path fill="#000000" fill-rule="evenodd" d="M14.203199999999999 26.868479999999998c-0.5928 0.7900799999999999 -0.9883200000000001 1.1856 -0.9883200000000001 2.5679999999999996 0 0.39552 0.39552 0.39552 0.39552 0.19776 0.39503999999999995 -0.9878399999999998 0.39503999999999995 -0.39503999999999995 0.9878399999999998 -2.5679999999999996 0.19727999999999998 -0.19823999999999997 -0.19776 -0.39552 -0.39552 -0.19776Z" clip-rule="evenodd" stroke-width="1"></path><path fill="#000000" fill-rule="evenodd" d="M20.099999999999998 30.1896c-0.5928 0.9878399999999998 -0.9878399999999998 1.58064 -0.9878399999999998 3.5568 0 0.39455999999999997 0.39503999999999995 0.39455999999999997 0.39503999999999995 0 0.5928 -1.5811199999999999 0.5928 -1.1856 0.9878399999999998 -3.35904 0.19727999999999998 -0.39503999999999995 -0.39503999999999995 -0.39503999999999995 -0.39503999999999995 -0.19776Z" clip-rule="evenodd" stroke-width="1"></path><path fill="#000000" fill-rule="evenodd" d="M26.45232 32.992799999999995c-0.39503999999999995 0.9878399999999998 -0.5928 1.3828799999999999 -0.19776 2.7657599999999998 0 0.39503999999999995 0.39503999999999995 0.39503999999999995 0.39503999999999995 0s0.19776 -0.9878399999999998 0.19776 -1.58064l0 -1.1856c0.19776 -0.39455999999999997 -0.39503999999999995 -0.39455999999999997 -0.39503999999999995 0Z" clip-rule="evenodd" stroke-width="1"></path><path fill="#000000" fill-rule="evenodd" d="M31.392000000000003 33.38832c-0.19823999999999997 0.7900799999999999 -0.39552 0.9878399999999998 0 2.37072 0 0.39503999999999995 0.59232 0.19776 0.39455999999999997 0 0.19776 -1.1856 0.39552 -1.1856 0 -2.3712 0.19776 -0.19679999999999997 -0.39503999999999995 -0.19679999999999997 -0.39503999999999995 0Z" clip-rule="evenodd" stroke-width="1"></path><path fill="#000000" fill-rule="evenodd" d="M36.33071999999999 32.59776c0 0.19776 -1.58064 2.56848 -1.58064 2.76624 -0.19727999999999998 0.19727999999999998 0.19776 0.59232 0.39503999999999995 0.39503999999999995 1.38336 -1.1856 1.58064 -1.9756799999999997 1.7784 -2.96352 0 -0.39503999999999995 -0.39503999999999995 -0.39552 -0.5928 -0.19776Z" clip-rule="evenodd" stroke-width="1"></path><path fill="#000000" fill-rule="evenodd" d="M39.689280000000004 31.610400000000002c0 0.19727999999999998 -1.7784 2.96352 -1.7784 3.1608 -0.19727999999999998 0.19776 0.19776 0.5928 0.39552 0.39503999999999995 1.3823999999999999 -1.3823999999999999 1.77792 -2.17296 1.9756799999999997 -3.3585599999999998 0 -0.39503999999999995 -0.39503999999999995 -0.5928 -0.5928 -0.19776Z" clip-rule="evenodd" stroke-width="1"></path><path fill="#000000" fill-rule="evenodd" d="M18.35184 28.44864c-1.77792 -0.5928 -5.72928 -3.16128 -6.519839999999999 -3.7536 -1.3823999999999999 -0.9883200000000001 -1.3823999999999999 -1.38336 -1.77792 -1.1856 0 0 -0.19776 0.19776 0 0.39503999999999995 1.9756799999999997 2.3712 5.13696 4.3464 8.100480000000001 5.13696 0.39503999999999995 0 0.39503999999999995 -0.39503999999999995 0.19727999999999998 -0.5928Z" clip-rule="evenodd" stroke-width="1"></path></svg>