<svg xmlns="http://www.w3.org/2000/svg" fill="none" viewBox="0 0 48 48" height="48" width="48" id="Troll-Face--Streamline-Memes.svg"><desc>Troll Face Streamline Element: https://streamlinehq.com</desc><path stroke="#000000" stroke-linecap="round" stroke-linejoin="round" d="M21.203 15.587c-1.355 -0.112 -3.113 0.134 -5.3 0.998 -0.838 0.332 -1.858 0.064 -2.277 -0.597 -0.42 -0.662 -0.081 -1.466 0.757 -1.798 2.587 -1.022 5 -1.446 7.172 -1.267 2.204 0.18 4.03 0.974 5.395 2.19 0.622 0.554 0.556 1.4 -0.145 1.891 -0.702 0.49 -1.774 0.44 -2.396 -0.114 -0.826 -0.737 -1.883 -1.194 -3.206 -1.303Z" clip-rule="evenodd" stroke-width="1"></path><path stroke="#000000" stroke-linecap="round" stroke-linejoin="round" d="m32.662 17.448 -0.002 0.001c-0.77 0.432 -1.827 0.28 -2.362 -0.341 -0.536 -0.621 -0.347 -1.475 0.423 -1.907 0.555 -0.312 1.354 -0.53 2.041 -0.684 0.754 -0.17 1.627 -0.32 2.493 -0.436a31.804 31.804 0 0 1 2.543 -0.244c0.736 -0.037 1.55 -0.044 2.175 0.067 0.916 0.161 1.496 0.891 1.295 1.63 -0.2 0.739 -1.105 1.207 -2.02 1.045 -0.129 -0.023 -0.533 -0.045 -1.236 -0.009 -0.652 0.033 -1.425 0.108 -2.2 0.212 -0.777 0.104 -1.526 0.234 -2.134 0.371a9.463 9.463 0 0 0 -0.746 0.197 2.363 2.363 0 0 0 -0.27 0.098Z" clip-rule="evenodd" stroke-width="1"></path><path stroke="#000000" stroke-linecap="round" stroke-linejoin="round" d="M30.418 17.27c1.272 1.98 4.879 3.173 4.242 4.809 -0.636 1.635 -2.757 2.2 -3.818 1.635" stroke-width="1"></path><path stroke="#000000" stroke-linecap="round" stroke-linejoin="round" d="M41.226 21.807c-5.068 9.582 -21.86 2.68 -30.852 -2.768 -0.365 -0.221 -0.824 0.081 -0.748 0.501 1.82 10.163 8.306 16.046 24.398 16.046 9.169 0 9.327 -7.616 8.275 -13.675 -0.087 -0.503 -0.834 -0.555 -1.073 -0.104Z" stroke-width="1"></path><path stroke="#000000" d="M46.046 26.322c1.414 -3.324 1.356 -8.184 -0.849 -11.027C43.783 8.729 39.2 4.282 24.963 4.282c-14.076 0 -18.13 4.487 -19.298 11.013a4.915 4.915 0 0 0 -0.41 9.78c1.276 10.437 21.773 18.643 32.35 18.643 5.466 0 7.592 -2.687 7.592 -6.294 0 -3.606 -0.566 -7.779 0.849 -11.102Z" stroke-width="1"></path><path stroke="#000000" stroke-linecap="round" stroke-linejoin="round" d="M31.407 8.946c2.146 -0.218 6.436 -0.215 6.436 1.536" stroke-width="1"></path><path stroke="#000000" stroke-linecap="round" stroke-linejoin="round" d="M19.88 8.946c-2.145 -0.218 -6.435 -0.215 -6.435 1.536" stroke-width="1"></path><path stroke="#000000" stroke-linecap="round" stroke-linejoin="round" d="M9.484 18.484c9.476 12.022 21.782 15.404 33.097 10.03" stroke-width="1"></path><path stroke="#000000" stroke-linecap="round" stroke-linejoin="round" d="m18.375 23.172 -2.156 8.015" stroke-width="1"></path><path stroke="#000000" stroke-linecap="round" stroke-linejoin="round" d="m24.75 25.453 -1.767 8.865" stroke-width="1"></path><path stroke="#000000" stroke-linecap="round" stroke-linejoin="round" d="m31.312 26.577 0.085 8.956" stroke-width="1"></path><path stroke="#000000" stroke-linecap="round" stroke-linejoin="round" d="m36.923 25.734 2.293 8.584" stroke-width="1"></path><path stroke="#000000" stroke-linecap="round" stroke-linejoin="round" d="M7.383 20.25c1.203 -0.401 2.579 -2.063 2.579 -2.98" stroke-width="1"></path><path fill="#000000" fill-rule="evenodd" d="M33.788 14.229a1.525 1.525 0 1 0 0 3.05 1.525 1.525 0 0 0 0 -3.05Z" clip-rule="evenodd" stroke-width="1"></path><path fill="#000000" fill-rule="evenodd" d="M17.408 13.39a1.525 1.525 0 1 0 0 3.05 1.525 1.525 0 0 0 0 -3.05Z" clip-rule="evenodd" stroke-width="1"></path></svg>