<svg xmlns="http://www.w3.org/2000/svg" fill="none" viewBox="0 0 48 48" height="48" width="48" id="Watch-The-World-Burn-Hand-Drawn--Streamline-Memes.svg"><desc>Watch The World Burn Hand Drawn Streamline Element: https://streamlinehq.com</desc><path fill="#000000" fill-rule="evenodd" d="M31.698047999999996 28.458624C32.468543999999994 27.996336 33.855408 27.68808 35.396448 28.150416C35.70465599999999 28.304496 35.85873599999999 27.842256 35.55052799999999 27.688128C34.009536 26.763504 32.468543999999994 26.609424 31.38984 27.996288C31.235711999999996 28.304543999999996 31.543919999999996 28.766832 31.698047999999996 28.458624Z" clip-rule="evenodd" stroke-width="1"></path><path fill="#000000" fill-rule="evenodd" d="M23.838863999999997 27.842688C24.301152 27.68856 25.688064 27.99672 26.30448 28.304976C26.612688 28.459056 26.766816 28.150847999999996 26.612688 27.99672C25.842191999999997 27.072096 24.60936 26.763936 23.684784 27.534432C23.376576 27.534432 23.530655999999997 27.996768 23.838863999999997 27.842688Z" clip-rule="evenodd" stroke-width="1"></path><path fill="#000000" fill-rule="evenodd" d="M33.701376 32.465616000000004C34.009584000000004 32.465616000000004 34.009584000000004 32.003232 33.701376 32.003232C33.393215999999995 32.003232 33.085007999999995 31.695072 32.776799999999994 31.540992000000003C31.543968 30.924575999999995 31.698096 30.770495999999998 31.389888 30.924623999999998C31.23576 31.078704 32.006256 32.773824 33.701376 32.465616000000004Z" clip-rule="evenodd" stroke-width="1"></path><path fill="#000000" fill-rule="evenodd" d="M25.379855999999997 31.848671999999997C25.996272 31.848671999999997 25.996272 31.848671999999997 26.30448 31.386335999999996C26.612688 31.232256 26.3436 30.889295999999998 26.150399999999998 30.924096000000002C25.675104 30.924096000000002 24.588863999999997 31.848671999999997 25.379855999999997 31.848671999999997Z" clip-rule="evenodd" stroke-width="1"></path><path fill="#000000" fill-rule="evenodd" d="M29.694672 27.842351999999998C30.927455999999996 27.225983999999997 33.701328 26.30136 35.24232 26.147232C35.55052799999999 26.147232 35.55052799999999 25.684896 35.24232 25.684896C32.776656 25.376687999999998 31.081583999999996 25.993152 29.386464 27.380015999999998C29.232336 27.688223999999998 29.540543999999997 28.15056 29.694672 27.842351999999998Z" clip-rule="evenodd" stroke-width="1"></path><path fill="#000000" fill-rule="evenodd" d="M24.917568 27.071568C24.147071999999998 26.301071999999998 23.530704 25.838736 22.143791999999998 25.684607999999997C21.835584 25.684607999999997 21.681455999999997 25.992864 21.989663999999998 26.146943999999998C22.606032 26.455152 22.606032 26.60928 24.60936 27.379728C24.917568 27.533856 25.225728 27.225696 24.917568 27.071568Z" clip-rule="evenodd" stroke-width="1"></path><path fill="#000000" fill-rule="evenodd" d="M33.855408 12.740639999999999C33.855408 17.363664 34.471776 21.678528 37.245648 25.376928C39.865344 28.921295999999998 39.865344 27.534336 39.711216 27.380208C38.63256 26.609759999999998 36.783312 23.835887999999997 35.70465599999999 20.445648000000002C35.08824 18.288287999999998 34.471776 15.206256 34.317744 12.89472C34.317744 12.432432 33.855408 12.432432 33.855408 12.740639999999999Z" clip-rule="evenodd" stroke-width="1"></path><path fill="#000000" fill-rule="evenodd" d="M33.08496 11.969999999999999C32.314463999999994 15.51432 28.461935999999998 20.137344000000002 24.301199999999998 21.832463999999998C23.992991999999997 21.986591999999998 24.147119999999997 22.2948 24.455327999999998 22.2948C28.924224 20.75376 32.622671999999994 16.901232 33.547248 11.969999999999999C33.547248 11.661792 33.08496 11.661792 33.08496 11.969999999999999Z" clip-rule="evenodd" stroke-width="1"></path><path fill="#000000" fill-rule="evenodd" d="M31.698096 12.586751999999999C28.616063999999998 14.89824 24.455327999999998 17.209823999999998 22.60608 22.449264C22.451999999999998 22.757472 22.914336 22.911551999999997 23.068416 22.603344C24.455327999999998 19.059023999999997 28.153776 16.131072 32.006256 12.89496C32.314463999999994 12.74088 32.006304 12.278544 31.698096 12.586751999999999Z" clip-rule="evenodd" stroke-width="1"></path><path fill="#000000" fill-rule="evenodd" d="M30.002879999999998 12.740208C21.835535999999998 16.284527999999998 18.445296 22.140383999999997 17.520671999999998 30.924191999999998C17.520671999999998 31.2324 17.98296 31.2324 17.98296 30.924191999999998C19.061663999999997 22.7568 22.760112 16.592736 30.156959999999998 13.048416C30.465215999999998 12.894288 30.311087999999998 12.586079999999999 30.002879999999998 12.740208Z" clip-rule="evenodd" stroke-width="1"></path><path fill="#000000" fill-rule="evenodd" d="M20.294544 24.60624C19.06176 29.99976 17.058432 35.701488 19.678127999999997 38.321231999999995C20.448672 39.091728 21.835584 39.399936000000004 21.835584 38.78352C21.835584 38.629392 21.681455999999997 38.629439999999995 21.527376 38.629439999999995C20.911008 38.629439999999995 20.448672 38.321184 19.986335999999998 38.012976C18.90768 36.780192 18.90768 35.085072000000004 19.06176 33.54408C19.215888 32.157168 20.911008 24.76032 20.448672 24.60624C20.294544 24.452111999999996 20.294544 24.452111999999996 20.294544 24.60624Z" clip-rule="evenodd" stroke-width="1"></path><path fill="#000000" fill-rule="evenodd" d="M20.756975999999998 36.009648C21.219312 37.55064 21.989759999999997 38.475311999999995 23.68488 39.09168C23.993087999999997 39.24576 24.147216 38.78352 23.839008 38.629392C22.914384000000002 38.012976 21.52752 36.163776 21.219312 35.70144C21.065184000000002 35.54736 20.602895999999998 35.70144 20.756975999999998 36.009648Z" clip-rule="evenodd" stroke-width="1"></path><path fill="#000000" fill-rule="evenodd" d="M39.0948 7.655568C32.622576 6.885071999999999 26.45856 9.658847999999999 22.760112 14.127792C19.83216 17.672112 17.982912 25.223087999999997 17.674752 29.846111999999998C17.674752 30.15432 18.13704 30.15432 18.13704 29.846111999999998C18.445248 25.377168 20.756784 17.82624 23.37648 14.590128C26.9208 10.275264 33.084912 7.50144 39.0948 8.117856C39.248928 8.117856 39.248928 7.655568 39.0948 7.655568Z" clip-rule="evenodd" stroke-width="1"></path><path fill="#000000" fill-rule="evenodd" d="M36.01286399999999 9.812208C35.550576 9.966288 35.242368 9.966288 34.471824 10.428624C34.163664 10.582704 34.317744 10.890911999999998 34.625952 10.890911999999998C37.091568 9.966336 38.016192 10.736784 38.47848 10.274496C38.786688 9.966288 38.632608 9.658079999999998 38.3244 9.504C38.3244 9.504 38.3244 9.504048 37.707984 9.34992C38.786688 9.041712 40.01951999999999 8.887583999999999 40.789968 9.041712C41.098176 9.041712 41.252304 8.733504 40.944096 8.579376C39.711264 8.271215999999999 38.632608 8.271215999999999 37.399727999999996 8.579376C37.080432 8.685888 35.401296 9.20064 36.01286399999999 9.812208Z" clip-rule="evenodd" stroke-width="1"></path><path fill="#000000" fill-rule="evenodd" d="M42.331056 8.579519999999999C43.87204799999999 9.504192 46.029455999999996 11.96976 46.799952 13.510752C46.954032 13.819008 47.416368 13.510752 47.262288 13.356672C46.337616 11.045136 44.950752 9.041856 42.485136 8.271312C42.331056 7.9631039999999995 42.176928 8.42544 42.331056 8.579519999999999Z" clip-rule="evenodd" stroke-width="1"></path><path fill="#000000" fill-rule="evenodd" d="M45.412991999999996 8.888207999999999C46.183536 10.121039999999999 46.337616 9.966911999999999 47.108112 10.737456C47.26224 11.045616 47.724528 10.737407999999999 47.41632 10.4292C46.799904 9.196416 46.337568000000005 8.888255999999998 45.721199999999996 8.58C45.567119999999996 8.42592 45.258911999999995 8.73408 45.412991999999996 8.888207999999999Z" clip-rule="evenodd" stroke-width="1"></path><path fill="#000000" fill-rule="evenodd" d="M36.320976 17.826048C37.091471999999996 19.829376 38.170176 21.216288 39.865344 22.75728C39.557136 27.84264 42.330912 39.554303999999995 38.478384 41.557632C38.170176 41.71176 38.478384 42.174 38.632512 42.01992C42.330912 40.170719999999996 40.944048 30.462336 40.63584 26.763936C40.327583999999995 22.6032 40.63584 22.75728 40.327583999999995 22.449072C38.786592 21.06216 37.553808 19.829376 36.629184 17.826048C36.629184 17.36376 36.166896 17.51784 36.320976 17.826048Z" clip-rule="evenodd" stroke-width="1"></path><path fill="#000000" fill-rule="evenodd" d="M39.249072 44.331216C44.180304 41.249184 43.255728 32.927712 43.1016 27.380064C43.1016 27.071856 42.639312000000004 27.071856 42.639312000000004 27.380064C42.639312000000004 32.311296 42.94752 41.095152 38.940864 43.868928000000004C38.786736 44.023056 39.094944 44.485296 39.249072 44.331216Z" clip-rule="evenodd" stroke-width="1"></path><path fill="#000000" fill-rule="evenodd" d="M42.0228 44.33087999999999C49.26576 40.324272 46.183583999999996 28.3044 45.875376 21.678047999999997C45.721247999999996 18.750144000000002 46.183583999999996 16.130399999999998 44.48846399999999 13.664784C44.334336 13.356575999999999 43.87204799999999 13.664784 44.026128 13.972992C45.567168 16.438608000000002 44.950752 19.058304 45.104832 21.832079999999998C45.41304 27.996143999999997 47.416368 36.625823999999994 44.18025599999999 41.557056C42.639216 43.868592 41.406383999999996 43.868592 41.714591999999996 44.33087999999999C41.714591999999996 44.33087999999999 41.868719999999996 44.48496 42.0228 44.33087999999999Z" clip-rule="evenodd" stroke-width="1"></path><path fill="#000000" fill-rule="evenodd" d="M27.537312 40.632768C28.461935999999998 41.249184 29.38656 41.403312 30.927552 40.786944C31.23576 40.786944 31.081632 40.32456 30.773472 40.32456H29.38656C27.537312 40.170432 27.537312 40.016352 27.383232 40.32456C27.383232 40.47864 27.383232 40.632768 27.537312 40.632768Z" clip-rule="evenodd" stroke-width="1"></path><path fill="#000000" fill-rule="evenodd" d="M23.068368 21.369984C22.297824 23.373264 22.451952 23.219184 21.989616 24.760175999999998C21.219168 27.071711999999998 20.756832 27.071711999999998 21.835535999999998 30.153744C22.451952 32.157072 22.143791999999998 32.465232 22.143791999999998 34.160351999999996C22.143791999999998 34.776768 22.143744 35.547264 22.451952 35.547264S22.451952 35.239056 22.60608 34.314432C22.76016 33.081648 23.068368 32.31115199999999 22.76016 30.924239999999998C22.60608 29.845535999999996 21.989616 28.766832 21.989616 27.842208C21.989616 26.917632 22.451952 26.147088 22.606032 25.222512C22.914288 24.297888 23.222496 22.602768 23.376527999999997 21.832224C23.530655999999997 21.215856 23.222496 21.061728 23.068368 21.369984Z" clip-rule="evenodd" stroke-width="1"></path><path fill="#000000" fill-rule="evenodd" d="M22.606032 36.163968C23.376527999999997 38.321376 24.455280000000002 39.554159999999996 25.379855999999997 41.557488C26.150399999999998 42.9444 26.304432 44.485392 27.999551999999998 45.410064C30.156959999999998 46.642848 32.160288 46.026432 34.471824 45.255936C41.406383999999996 43.098528 39.86539199999999 42.482064 39.557184 42.636192C38.016192 43.560767999999996 36.01286399999999 44.023104 34.317744 44.485392C32.160288 45.101856 30.311087999999998 45.718224 28.461888 44.485392C27.074976 43.714895999999996 26.920847999999996 42.327984 26.150399999999998 41.0952C25.225728 39.400079999999996 23.838863999999997 37.70496 23.222496 35.85576C22.91424 35.701632 22.451952 35.85576 22.606032 36.163968Z" clip-rule="evenodd" stroke-width="1"></path><path fill="#000000" fill-rule="evenodd" d="M23.684832 29.691215999999997C23.838959999999997 28.766592 24.609408 28.458432000000002 25.688112 29.383056C26.458655999999998 29.999424 26.612735999999998 30.307631999999998 26.766863999999998 30.153551999999998C26.920944 29.999424 26.920944 29.999424 26.766863999999998 29.845343999999997C24.917616000000002 27.07152 22.914288 27.996096 23.068416 29.845343999999997C23.222496 29.845343999999997 23.684832 29.845343999999997 23.684832 29.691215999999997Z" clip-rule="evenodd" stroke-width="1"></path><path fill="#000000" fill-rule="evenodd" d="M26.458608 27.996816C27.075024 29.537855999999998 26.612688 30.308352 25.84224 31.849392C25.225824 32.928048 24.763488 34.160928 25.379904 35.239584C25.84224 35.856048 27.075024 36.318287999999995 27.229104 35.856048C27.229104 35.393712 26.458655999999998 35.70192 25.996319999999997 34.931376C24.917568 33.082176 28.924224 31.078848 26.920896 27.996816C26.766816 27.534527999999998 26.458608 27.688608000000002 26.458608 27.996816Z" clip-rule="evenodd" stroke-width="1"></path><path fill="#000000" fill-rule="evenodd" d="M28.616016 35.855568C29.232383999999996 35.855568 30.002928 36.934272 30.927504 36.163776C32.006256 35.239152 31.235711999999996 33.698112 30.157008 33.389903999999994C29.8488 33.235872 29.694719999999997 33.698159999999994 30.002928 33.852287999999994C30.619296 34.160495999999995 30.927504 35.085072000000004 30.311087999999998 35.547408000000004C30.002928 35.855616 29.386511999999996 35.39328 28.924176 35.39328C28.461935999999998 35.39328 27.845519999999997 35.54736 28.153727999999997 35.855568C28.153727999999997 36.009648 28.461935999999998 36.009648 28.616016 35.855568Z" clip-rule="evenodd" stroke-width="1"></path><path fill="#000000" fill-rule="evenodd" d="M25.84224 38.629631999999994C26.304527999999998 38.93784 26.612735999999998 39.246 27.229104 39.554208C27.845519999999997 39.708336 28.461983999999998 39.554208 28.924224 39.554208C29.694768 39.554208 30.927552 39.708336 31.852176 39.400175999999995C32.314463999999994 39.246048 33.393215999999995 38.629631999999994 33.085007999999995 38.32142399999999C32.776799999999994 38.01321599999999 32.776799999999994 38.629584 31.852176 38.783712C31.08168 38.937792 29.848847999999997 38.629631999999994 28.924224 38.629631999999994C28.461983999999998 38.629631999999994 27.69144 38.783712 27.383232 38.783712C26.920944 38.629584 26.458655999999998 38.32142399999999 25.996319999999997 38.167344C25.84224 38.01321599999999 25.688112 38.47555199999999 25.84224 38.629631999999994Z" clip-rule="evenodd" stroke-width="1"></path><path fill="#000000" fill-rule="evenodd" d="M31.698047999999996 37.396896C32.160335999999994 37.705104 32.468543999999994 38.783808 33.08496 39.554303999999995C33.393168 39.862464 34.163616 40.633008000000004 34.471824 40.3248C34.625952 40.016592 34.317744 40.016639999999995 33.855408 39.400272C33.393168 38.783856 33.08496 37.705152 32.006256 37.088736C31.698047999999996 36.780528 31.543919999999996 37.242768 31.698047999999996 37.396896Z" clip-rule="evenodd" stroke-width="1"></path><path fill="#000000" fill-rule="evenodd" d="M24.917616000000002 36.16367999999999C24.455327999999998 37.396512 24.917616000000002 38.167008 25.379951999999996 39.245712C25.53408 39.55392 25.842287999999996 39.399792 25.842287999999996 39.091632C25.68816 38.321087999999996 25.68816 38.012928 25.53408 37.088304C25.53408 36.934176 25.379951999999996 36.47188799999999 25.379951999999996 36.16367999999999C25.379951999999996 36.0096 24.917616000000002 35.85552 24.917616000000002 36.16367999999999Z" clip-rule="evenodd" stroke-width="1"></path><path fill="#000000" fill-rule="evenodd" d="M31.852032 29.845775999999997C33.238944 27.688319999999997 37.091471999999996 30.462191999999998 37.39968 29.999855999999998C37.707936 29.537616 32.622576 26.301455999999998 31.389791999999996 29.537568C31.235663999999996 29.999855999999998 31.697952 30.153983999999998 31.852032 29.845775999999997Z" clip-rule="evenodd" stroke-width="1"></path><path fill="#000000" fill-rule="evenodd" d="M33.850607999999994 28.698816C33.618719999999996 30.144432 35.589648 30.867023999999997 35.937456 29.276927999999998C35.705568 29.132351999999997 34.430304 28.843344 33.850607999999994 28.698816Z" clip-rule="evenodd" stroke-width="1"></path><path fill="#000000" fill-rule="evenodd" d="M36.05328 29.132208000000002C35.93736 28.987632 34.777967999999994 28.553952 33.966432 28.409424C33.386736 28.264848 33.270815999999996 29.132255999999998 33.502704 29.710463999999998C34.0824 31.011503999999995 35.937312 31.011552 36.169200000000004 29.421456C36.169200000000004 29.27688 36.05328 29.13216 36.05328 29.13216ZM34.198319999999995 29.132208000000002C34.430208 29.710416 35.125776 29.999664 35.473632 29.421456C35.589552000000005 29.421456 35.821439999999996 29.421312 34.198319999999995 29.132208000000002Z" clip-rule="evenodd" stroke-width="1"></path><path fill="#000000" fill-rule="evenodd" d="M25.271279999999997 28.554576C24.459792 29.855567999999998 26.77848 30.433968 26.314752 29.422079999999998C25.966943999999998 28.843823999999998 25.271279999999997 28.84368 25.271279999999997 28.554576Z" clip-rule="evenodd" stroke-width="1"></path><path fill="#000000" fill-rule="evenodd" d="M25.503216 28.554143999999997C25.387296 28.26504 24.923616 28.409616 24.807695999999996 29.132447999999997C24.575808 30.722544000000003 27.126336 30.867168 26.778528 29.566176C26.430768 28.98792 25.966992 28.698719999999998 25.503216 28.554143999999997ZM25.387344000000002 28.987871999999996C25.387344000000002 29.277023999999997 25.503263999999998 29.421647999999998 25.851072 29.421647999999998C25.851072 29.421647999999998 25.619184 29.132496 25.387344000000002 28.987871999999996Z" clip-rule="evenodd" stroke-width="1"></path><path fill="#000000" fill-rule="evenodd" d="M3.3434399999999997 24.298176C3.49752 22.294847999999998 3.9598560000000003 20.753808 3.651648 17.363616C3.651648 17.055408 3.1893599999999998 17.055408 3.1893599999999998 17.363616C3.035232 19.983359999999998 2.7270719999999997 20.599728 2.8811519999999997 24.298176C2.8811519999999997 24.606384 3.3434399999999997 24.606384 3.3434399999999997 24.298176Z" clip-rule="evenodd" stroke-width="1"></path><path fill="#000000" fill-rule="evenodd" d="M5.500896 24.4524C5.655024 18.750719999999998 7.96656 17.20968 8.428799999999999 21.370416C8.737056 23.681952 8.27472 24.4524 8.737056 24.4524C8.891136 24.4524 9.045264 24.298319999999997 9.045264 24.298319999999997C9.199343999999998 22.911408 9.661679999999999 18.750719999999998 7.812431999999999 18.134255999999997C6.887856 17.826048 6.117312 18.904799999999998 5.655024 19.829376C4.8845279999999995 21.524496 5.192735999999999 22.75728 5.192735999999999 24.298319999999997C5.038656 24.760608 5.500896 24.760608 5.500896 24.4524Z" clip-rule="evenodd" stroke-width="1"></path><path fill="#000000" fill-rule="evenodd" d="M13.514207999999998 19.36704C14.438832 17.826 12.435504 16.747296 11.51088 18.288287999999998C11.3568 18.596496 11.3568 19.058832 11.51088 19.521072C11.202672 19.983408 10.894511999999999 20.445744 10.894511999999999 20.908032C10.740432 21.678576 10.740384 24.606431999999998 11.048592 24.914640000000002C11.202672 25.222848 11.3568 25.06872 11.51088 25.222848C11.973215999999999 25.531056 11.51088 27.688464 12.589584 27.842592C13.051872 27.842592 13.360128 27.534384 13.514207999999998 27.072096C13.668336 26.3016 13.514207999999998 25.993392 13.668336 25.376928C13.668336 25.222896 14.130624 24.914687999999998 14.284752 24.760559999999998C14.901119999999999 23.990064 14.746991999999999 21.062112 14.592912 20.445695999999998C14.284752 19.983408 13.976543999999999 19.675248 13.514207999999998 19.36704ZM13.206 19.82928C13.051872 19.983408 12.897839999999999 19.983455999999997 12.897839999999999 19.983455999999997C12.743711999999999 19.829328 12.897791999999999 19.675248 13.051872 19.36704C13.668287999999999 18.288336 12.589632 17.826 12.127296 18.596544C11.819088 19.212912 12.435504 19.36704 12.127296 19.82928C11.20272 21.06216 11.51088 22.140815999999997 11.665007999999998 24.144144V24.606479999999998L11.973215999999999 24.760559999999998C12.589632 25.222896 12.589584 26.3016 12.589584 26.763840000000002C12.743663999999999 26.3016 12.589632 25.839264 12.743663999999999 25.222848C13.051872 24.452351999999998 13.514207999999998 24.760559999999998 13.668287999999999 23.681856C13.668287999999999 23.3736 13.976543999999999 21.524448 13.822416 20.753904C13.822416 20.291616 13.668287999999999 19.983408 13.206 19.82928Z" clip-rule="evenodd" stroke-width="1"></path><path fill="#000000" fill-rule="evenodd" d="M10.432127999999999 17.055359999999997C9.96984 18.288144 10.12392 18.442224 10.278048 19.675055999999998C10.278048 19.983264 10.740384 19.983264 10.740384 19.675055999999998C11.048592 17.979936 11.048592 18.134064 10.894464 17.055359999999997C10.894464 16.901232 10.432127999999999 16.747152 10.432127999999999 17.055359999999997Z" clip-rule="evenodd" stroke-width="1"></path><path fill="#000000" fill-rule="evenodd" d="M18.137135999999998 17.517888C18.445344 17.672016 18.599472 18.288384 18.599472 18.750719999999998C18.753552 20.137584 18.291216 20.908127999999998 18.753552 21.062208000000002C18.907632 21.062208000000002 19.06176 20.908127999999998 19.06176 20.908127999999998C19.06176 20.137632 19.832255999999997 17.363808 18.445344 17.055648C17.983007999999998 16.90152 17.828927999999998 17.20968 17.674799999999998 17.20968C17.52072 17.0556 17.52072 16.901472 16.904352 16.593263999999998C15.8256 16.285055999999997 13.514111999999999 16.131023999999996 11.202575999999999 16.901472C10.43208 15.822815999999998 9.199247999999999 16.90152 8.736911999999998 17.055648C8.274672 17.20968 5.654976 17.517888 5.500848 17.20968C5.346767999999999 16.747391999999998 4.576224 17.517888 5.654928 17.826096C6.117215999999999 17.980223999999996 7.658256 17.980223999999996 8.120543999999999 17.826096C9.815664 17.672016 10.43208 16.747391999999998 10.740239999999998 17.517888C10.894368 18.134304 11.356656 17.517888 13.82232 17.20968C17.983007999999998 16.593263999999998 16.596096 18.288384 18.137135999999998 17.517888ZM17.520768 17.055648C17.674848 17.055648 17.674848 17.055648 17.520768 17.055648Z" clip-rule="evenodd" stroke-width="1"></path><path fill="#000000" fill-rule="evenodd" d="M2.41872 24.760704C4.884336 24.760704 2.572848 25.068863999999998 11.048399999999999 25.068863999999998C11.356608 25.068863999999998 11.356608 24.606624 11.048399999999999 24.606624C5.9630399999999995 24.144288 7.504079999999999 24.144288 2.41872 24.298415999999996C1.956432 24.298415999999996 2.110512 24.760704 2.41872 24.760704Z" clip-rule="evenodd" stroke-width="1"></path><path fill="#000000" fill-rule="evenodd" d="M17.983103999999997 25.376496C18.291359999999997 25.376496 18.291359999999997 24.91416 17.983103999999997 24.91416C13.976496 23.989583999999997 12.897791999999999 25.684656 17.983103999999997 25.376496Z" clip-rule="evenodd" stroke-width="1"></path><path fill="#000000" fill-rule="evenodd" d="M4.26792 30.000048C9.199152 30.308256 7.65816 30.616464 16.904256 30.000048C17.212463999999997 30.000048 17.212463999999997 29.53776 16.904256 29.53776C14.900928 29.53776 4.11384 29.229551999999998 4.11384 29.69184C3.9597119999999997 30.000048 4.11384 30.000048 4.26792 30.000048Z" clip-rule="evenodd" stroke-width="1"></path><path fill="#000000" fill-rule="evenodd" d="M2.7269759999999996 31.232928C7.966415999999999 31.695168 9.1992 32.157503999999996 17.058336 31.541136C17.366544 31.541136 17.366544 31.078751999999998 17.058336 31.078751999999998C14.130432 31.232879999999998 3.035136 30.770592 2.7269759999999996 30.770592C2.418768 30.770592 2.418768 31.232928 2.7269759999999996 31.232928Z" clip-rule="evenodd" stroke-width="1"></path><path fill="#000000" fill-rule="evenodd" d="M4.268016 8.117232000000001C4.268016 8.887728000000001 4.268016 10.27464 4.884432 9.658224C7.19592 7.9631039999999995 9.353375999999999 9.041856 10.894368 7.5008159999999995C13.051775999999998 5.343407999999999 9.353375999999999 4.726991999999999 9.815664 3.494208C9.969791999999998 3.186 9.815664 3.34008 10.123872 3.648288C11.356704 4.88112 13.514111999999999 4.264704 14.438687999999999 7.346687999999999C14.746896 8.42544 14.592816000000001 9.504144 13.668239999999999 10.274592C13.359984 10.582799999999999 13.668239999999999 11.045183999999999 13.9764 10.891055999999999C15.51744 10.428768 18.753552 12.123887999999999 19.36992 9.195984V8.271312C20.294544 9.195936 20.6028 10.582847999999998 19.832255999999997 11.661551999999999C19.678127999999997 11.96976 19.986335999999998 12.123887999999999 20.140463999999998 12.123887999999999C21.219168 11.661551999999999 22.297824 11.045183999999999 22.76016 9.966432C22.91424 10.891055999999999 22.91424 11.815679999999999 22.451952 12.586127999999999C22.297871999999998 12.894336 22.76016 13.048464 22.91424 12.740256C23.530704 11.507424 23.530704 10.12056 23.222496 8.88768C23.068368 8.579519999999999 22.76016 8.579519999999999 22.76016 8.88768C22.606032 9.966432 21.835584 10.736928 20.91096 11.199216C21.527376 9.504144 20.448672 7.654895999999999 18.907632 6.73032C18.599472 6.576239999999999 18.291263999999998 6.884399999999999 18.445344 7.192608C18.907632 7.809023999999999 18.907632 8.579519999999999 18.907632 8.887728000000001C18.599472 10.736928 16.904352 9.966432 15.055103999999998 9.966432C15.671471999999998 9.041856 15.671471999999998 8.117232000000001 15.363264 7.038528C14.438687999999999 3.9564959999999996 11.973071999999998 3.802416 11.048496 3.186C10.277952 2.569584 10.894368 2.261376 10.432032 1.9531679999999998C10.123872 1.799088 9.969791999999998 1.9531679999999998 9.815664 2.107296C7.658256 4.264704 10.277952 5.343407999999999 10.740288 5.959776C11.048496 6.422112 10.123872 7.346736 9.199247999999999 7.5008159999999995C7.966464 7.809023999999999 7.04184 7.654895999999999 5.654928 8.271312C4.884432 8.579519999999999 5.0385599999999995 8.733648 5.0385599999999995 8.42544C5.0385599999999995 7.346736 5.19264 7.038528 5.0385599999999995 6.73032C4.730352 6.422112 4.422143999999999 6.884399999999999 3.651648 7.809071999999999C2.727024 8.887728000000001 0.8778239999999999 9.812351999999999 0.569616 11.661551999999999C0.10732799999999999 13.664879999999998 1.4941919999999997 15.668208 3.3433919999999997 16.130496C3.6515999999999997 16.284623999999997 3.805728 15.82224 3.49752 15.66816C1.340112 15.051791999999999 -0.0468 12.277968 2.2646879999999996 9.966432C2.8811039999999997 9.350064 3.035232 9.504144 4.268016 8.117232000000001Z" clip-rule="evenodd" stroke-width="1"></path><path fill="#000000" fill-rule="evenodd" d="M9.815616 12.894624C10.123823999999999 11.045423999999999 8.73696 10.27488 8.582832 11.045423999999999C8.582832 11.199504 8.736863999999999 11.50776 8.120496 11.969999999999999C7.041792 12.740544 5.038464 14.127456 7.195872 15.668448C7.35 15.822527999999998 7.658207999999999 15.514367999999997 7.504079999999999 15.360287999999999C7.35 15.20616 7.195872 15.052031999999999 7.04184 14.897903999999999C6.425424 13.819247999999998 7.504079999999999 13.356912 8.582832 12.586415999999998C9.1992 12.124128 9.1992 11.66184 8.890991999999999 13.510992C8.890991999999999 13.819247999999998 9.1992 14.127504 9.661536 13.973376C11.356656 13.202831999999999 12.435312 13.35696 12.743519999999998 12.278255999999999C13.205855999999999 13.819247999999998 11.973023999999999 14.743872 12.281232 14.897903999999999C12.743519999999998 15.206112 14.284559999999999 12.894624 12.58944 10.891344C12.435312 10.737264 12.281279999999999 10.583088 12.127152 10.583088C11.664864 10.737216 11.973071999999998 11.199504 11.973071999999998 11.353632000000001C12.281232 12.586415999999998 10.89432 12.432336 9.815616 12.894624Z" clip-rule="evenodd" stroke-width="1"></path></svg>