<svg xmlns="http://www.w3.org/2000/svg" fill="none" viewBox="0 0 48 48" height="48" width="48" id="Wojak-Feels-Guy-Hand-Drawn--Streamline-Memes.svg"><desc>Wojak Feels Guy Hand Drawn Streamline Element: https://streamlinehq.com</desc><path fill="#000000" fill-rule="evenodd" d="M2.810064 46.779936C8.368416 45.98592 13.450415999999999 39.157056000000004 13.291535999999999 34.075152C13.291535999999999 32.328239999999994 13.926815999999999 29.787312 12.815135999999999 28.199232C8.68608 22.958448 8.844864 15.9708 11.38584 9.936C15.991295999999998 -1.180704 35.207376 -1.1806560000000001 41.401008 8.506752C41.559791999999995 8.824368 42.036192 8.506704 41.87736 8.189136C35.524992 -2.292384 15.514895999999998 -2.292384 10.591776 9.4596C7.892016 15.811968 7.892016 23.11728 12.179904 28.516799999999996C13.132703999999999 29.787264 12.49752 32.328288 12.49752 33.916368C12.656304 38.521872 8.0508 45.35064 2.65128 46.144752C2.4924479999999996 46.46232 2.4924479999999996 46.938719999999996 2.810064 46.779936Z" clip-rule="evenodd" stroke-width="1"></path><path fill="#000000" fill-rule="evenodd" d="M41.400864 8.665871999999998C45.688752 15.335856 43.624176 22.005888 43.624176 22.641168C43.782959999999996 23.435184 44.259456 23.911631999999997 44.41824 24.546816C45.371136 28.040688 41.559647999999996 32.64624 40.765584 33.916704C39.653904000000004 35.663616 39.01872 37.728096 38.065824 39.633792C35.524896 44.556912 27.209039999999998 43.462176 23.715215999999998 39.491904C21.491903999999998 36.792144 18.059568 34.869504 17.265552 31.375728C16.947888000000003 30.422831999999996 17.424336 29.469935999999997 17.424336 28.517088C17.424336 27.785615999999997 16.785263999999998 27.92808 16.785263999999998 28.517088C16.785263999999998 29.628767999999997 16.308864 30.42288 16.62648 31.53456C17.420496 35.187168 20.91432 37.41048 23.13768 40.110288000000004C26.790336 44.398128 36.001296 45.509808 38.859888 39.951408C39.812736 38.045711999999995 40.447967999999996 35.981184 41.559647999999996 34.234272C42.671328 32.328528 44.25940799999999 30.581616 44.89464 28.517088C46.323984 23.7528 44.577023999999994 23.435184 44.41824 22.323504C44.259456 21.688272 46.323935999999996 15.335904 41.71848 8.189423999999999C41.71848 8.189423999999999 41.242032 8.348208 41.400864 8.665871999999998Z" clip-rule="evenodd" stroke-width="1"></path><path fill="#000000" fill-rule="evenodd" d="M29.807712 43.603919999999995C30.28416 47.256575999999995 33.778032 47.256575999999995 37.271808 47.256575999999995C40.448015999999996 47.256575999999995 40.448015999999996 47.41536 40.448015999999996 47.097792C40.448015999999996 46.621296 39.336335999999996 46.780176 35.366112 46.462512C32.98392 46.303728 30.919392000000002 45.82728 30.284208 43.603919999999995C30.125376 43.286304 29.648927999999998 43.286304 29.807712 43.603919999999995Z" clip-rule="evenodd" stroke-width="1"></path><path fill="#000000" fill-rule="evenodd" d="M19.008816 39.156768C18.214752 41.697744 16.309056 42.809424 14.085695999999999 43.921104C13.76808 44.079888 13.926911999999998 44.556287999999995 14.244528 44.397504C17.261952 43.444608 19.008816 42.332928 19.485216 39.156768C19.644047999999998 38.839152 19.167648 38.839152 19.008816 39.156768Z" clip-rule="evenodd" stroke-width="1"></path><path fill="#000000" fill-rule="evenodd" d="M21.867264 42.80952C21.708479999999998 43.603584 21.708479999999998 43.603584 22.026096 44.3976C22.026096 44.715264 22.502543999999997 44.715264 22.502543999999997 44.3976C22.661328 43.4448 22.661375999999997 43.4448 22.34376 42.80952C22.34376 42.33312 21.867264 42.491904 21.867264 42.80952Z" clip-rule="evenodd" stroke-width="1"></path><path fill="#000000" fill-rule="evenodd" d="M23.931791999999998 9.777072C25.996319999999997 9.935903999999999 27.902015999999996 9.61824 29.807712 9.459408C30.125376 9.459408 30.601823999999997 9.777072 31.078224000000002 9.777072C32.031119999999994 9.935903999999999 32.666352 9.300624 33.142751999999994 9.300624C33.460368 9.300624 33.778032 9.618288 34.25448 9.618288C34.73088 9.777072 36.319008 9.618288 38.06592 9.777072C40.289232 10.094688 40.448064 10.412303999999999 40.606848 10.094688C40.606848 9.935903999999999 40.606848 9.777072 40.448064 9.777072C39.653999999999996 9.459408 39.018768 9.300624 38.224703999999996 9.14184C36.636624 8.824224 34.889664 8.983008 34.25448 8.665392C33.301584 8.188944000000001 32.983968 8.188944000000001 32.031071999999995 8.665392C31.078271999999995 9.141792 30.760607999999998 8.347824000000001 29.807712 8.506608C27.902015999999996 8.66544 25.837536 9.300624 23.931791999999998 9.14184C23.614224 9.300624 23.614224 9.777072 23.931791999999998 9.777072Z" clip-rule="evenodd" stroke-width="1"></path><path fill="#000000" fill-rule="evenodd" d="M22.026144 20.417808C21.549743999999997 20.417808 19.644 22.799951999999998 21.549743999999997 23.752752C22.343808 24.070416 24.725904 24.229248000000002 25.678752 24.229248000000002C29.649023999999997 24.070416 29.649023999999997 21.052992 24.408288 20.258976C23.773103999999996 20.100192 22.343808 19.94136 22.026144 20.417808ZM21.39096 22.482287999999997C21.39096 22.799951999999998 21.390912 22.958736 21.867312 23.117568C22.978991999999998 23.435136 28.060943999999996 23.593968 27.743327999999998 22.482287999999997C27.42576 21.847056 25.043568 20.894208 24.408288 20.735376C22.502592 20.417759999999998 21.708528 20.735376 21.39096 22.482287999999997Z" clip-rule="evenodd" stroke-width="1"></path><path fill="#000000" fill-rule="evenodd" d="M24.824688 21.075599999999998C24.1308 21.270576 23.668128 22.050528 23.899392 22.635456C24.130704 23.220384 25.056 23.415359999999996 25.518576 23.220384C26.906495999999997 22.635456 25.981344 20.685696 24.593472000000002 21.4656L24.824688 21.075599999999998Z" clip-rule="evenodd" stroke-width="1"></path><path fill="#000000" fill-rule="evenodd" d="M25.055951999999998 20.88096C24.824640000000002 20.685983999999998 24.130704 21.075936 23.899392 21.46584C23.436816 22.050815999999998 23.436816 23.025696 24.362064 23.415599999999998C25.749935999999998 24.000576 27.369168 22.635696 26.443920000000002 21.46584C26.212559999999996 21.075936 25.749888 20.685983999999998 25.055951999999998 20.88096ZM24.593472000000002 21.46584C24.1308 21.855791999999997 24.130751999999998 22.44072 24.824688 22.635744C25.518624 22.83072 26.212559999999996 22.245791999999998 25.981248 21.85584C25.518624 21.075936 24.824736 21.660816 24.593472000000002 21.465888Z" clip-rule="evenodd" stroke-width="1"></path><path fill="#000000" fill-rule="evenodd" d="M35.524944 24.864288000000002C36.160224 26.611248 38.224752 29.152175999999997 36.636624 30.263807999999997C35.84256 30.740255999999995 35.207328000000004 30.581471999999998 34.413264 30.740304C34.095648 30.740304 34.095648 31.216704 34.413264 31.216704C35.048496 31.216704 35.524944 31.375488 36.160224 31.216704C37.589472 30.899087999999995 38.383536 29.94624 37.907088 28.35816C37.58951999999999 26.770031999999997 36.47784 26.134752 35.84256 24.864288000000002C35.84256 24.387888 35.36616 24.546671999999997 35.524944 24.864288000000002Z" clip-rule="evenodd" stroke-width="1"></path><path fill="#000000" fill-rule="evenodd" d="M32.189856 30.104736C32.825136 30.26352 32.98392 30.263568 33.777984000000004 29.787119999999998C34.0956 29.787119999999998 33.936816 29.310671999999997 33.619152 29.310671999999997C32.825136 29.310671999999997 32.98392 29.151888 32.189856 29.628287999999998C31.872239999999994 29.628287999999998 31.872239999999994 30.104736 32.189856 30.104736Z" clip-rule="evenodd" stroke-width="1"></path><path fill="#000000" fill-rule="evenodd" d="M31.078367999999998 30.740208000000003C30.760704 30.422544 30.443088 29.628528 30.601872 28.993247999999998C30.760704 28.040447999999998 31.078367999999998 28.040399999999998 30.760704 27.881567999999998C30.443088 27.722784 29.966687999999998 28.67568 29.807855999999997 28.993247999999998C29.331408 30.422591999999998 30.919487999999998 31.375391999999994 31.237152 31.057775999999997C31.237152 30.898992 31.237199999999998 30.740208000000003 31.078367999999998 30.740208000000003Z" clip-rule="evenodd" stroke-width="1"></path><path fill="#000000" fill-rule="evenodd" d="M29.807664 18.035519999999998C29.966448 18.194304 30.76056 19.623551999999997 30.919344 20.099999999999998C30.919344 20.417664 31.395791999999997 20.417664 31.395791999999997 20.099999999999998C31.554575999999997 18.988319999999998 30.866495999999998 18.035519999999998 30.125328 17.717808C29.858496 17.58456 29.648832 17.876687999999998 29.807664 18.035519999999998Z" clip-rule="evenodd" stroke-width="1"></path><path fill="#000000" fill-rule="evenodd" d="M34.889664 18.353184C34.413216 18.988415999999997 34.413216 19.623648 34.889664 20.258927999999997C35.048496 20.576544000000002 35.524896 20.258927999999997 35.366112 20.100048V19.306032V18.6708C35.366112 18.194399999999998 35.048496 18.035568 34.889664 18.353184Z" clip-rule="evenodd" stroke-width="1"></path><path fill="#000000" fill-rule="evenodd" d="M37.11312 21.370223999999997C36.160272 21.846624000000002 35.842608 23.117088 37.11312 23.752367999999997C37.907183999999994 24.069983999999998 38.860079999999996 23.911199999999997 39.654096 23.911199999999997C40.130544 23.911199999999997 40.765776 23.911199999999997 41.242224 23.593584C42.67152 22.640735999999997 41.718624 20.893824 40.289328 20.417376C39.495264 20.09976 38.701248 20.576159999999998 38.065968 20.893824C37.7484 21.052608 38.066016 21.529007999999997 38.2248 21.370223999999997C38.860079999999996 21.052608 39.495264 20.735039999999998 40.130495999999994 21.052608C40.92456 21.370223999999997 41.718624 22.32312 40.92456 22.79952C40.606944 22.958352 40.130544 22.958304 39.812928 22.958304C39.177696 22.958304 38.224752 23.117088 37.589568 22.958304C36.795504 22.79952 36.954288 22.164288 37.589568 21.687839999999998C37.589568 21.529056 37.271904 21.211391999999996 37.11312 21.370223999999997Z" clip-rule="evenodd" stroke-width="1"></path><path fill="#000000" fill-rule="evenodd" d="M39.5496 21.150336C38.587488 21.150336 38.266752 22.634016 39.228863999999994 22.634016C40.351344 22.634016 40.511711999999996 21.001968 39.228863999999994 21.001968L39.5496 21.150336Z" clip-rule="evenodd" stroke-width="1"></path><path fill="#000000" fill-rule="evenodd" d="M38.266656 22.189296C38.266656 23.672976 40.511616 23.524607999999997 40.511616 22.04088C40.511616 20.40888 38.266656 20.705568 38.266656 22.189296ZM39.549504 21.447408C39.068448 21.447408 38.747664 22.337664 39.228768 22.337664C39.870191999999996 22.337664 40.030607999999994 21.595824 39.549504 21.447408Z" clip-rule="evenodd" stroke-width="1"></path><path fill="#000000" fill-rule="evenodd" d="M19.644047999999998 18.035232C21.86736 17.558832 24.725952 16.923504 26.155247999999997 16.923504C28.219776 16.764719999999997 28.855055999999998 16.923504 28.696223999999997 16.605887999999997C28.696223999999997 16.447104 28.537392 16.447152 28.37856 16.447152C25.361183999999998 16.447152 25.361183999999998 15.811919999999999 19.326384 17.717616C19.167552 17.717616 19.326384 18.194063999999997 19.644047999999998 18.035232Z" clip-rule="evenodd" stroke-width="1"></path><path fill="#000000" fill-rule="evenodd" d="M36.477888 16.923455999999998C40.289328 17.717519999999997 41.242176 17.717568 42.830304 18.035184C43.147872 18.193967999999998 43.306704 17.717519999999997 42.989087999999995 17.558736C40.289328 16.447056 38.860032 16.447056 36.477888 16.447056C36.160272 16.447056 36.160272 16.923455999999998 36.477888 16.923455999999998Z" clip-rule="evenodd" stroke-width="1"></path><path fill="#000000" fill-rule="evenodd" d="M25.012128 35.345424C25.859855999999997 35.190864 26.607168 35.66304 27.401232 36.139488C28.35408 36.615936 28.855008 36.298272 32.031168 36.457103999999994C35.36620799999999 36.457103999999994 34.572192 36.29832 35.842656 35.980703999999996C36.001536 35.980703999999996 36.16032 35.980703999999996 36.319103999999996 36.139488C36.477936 36.29832 36.477936 36.29832 36.63672 36.139488C36.954336000000005 35.980703999999996 36.477888 35.504256 36.001488 35.504256S34.731024 35.821824 33.93696 35.821824C33.46056 35.821824 32.190048 35.662991999999996 30.919584 35.662991999999996C28.219824 35.504208 28.855008 35.821824 27.584543999999998 35.345424C26.631695999999998 35.02780799999999 25.012128 34.192367999999995 24.567168000000002 35.02780799999999C24.567168000000002 35.02780799999999 24.694464 35.504256 25.012128 35.345424Z" clip-rule="evenodd" stroke-width="1"></path><path fill="#000000" fill-rule="evenodd" d="M18.373584 14.224224C20.755679999999998 13.747824 23.296608 12.794975999999998 25.678752 12.636143999999998C27.266928 12.47736 28.696176 13.747872 30.443088 13.747872C32.19 13.906656 33.619296 13.271424 35.207423999999996 13.112592000000001C36.319055999999996 12.953808 37.430784 13.112592000000001 38.542367999999996 13.271424C38.860032 13.271424 38.860032 12.794975999999998 38.542367999999996 12.794975999999998C37.430784 12.636143999999998 36.319103999999996 12.318575999999998 35.04864 12.477407999999999C33.460512 12.636192 31.872384 12.953759999999999 30.443088 12.953759999999999C28.696176 12.794975999999998 27.584543999999998 11.524464 25.520016 11.84208C22.661424 12.159695999999999 20.755679999999998 13.271376 18.214703999999998 13.747872C17.897088 13.906656 18.05592 14.224224 18.373584 14.224224Z" clip-rule="evenodd" stroke-width="1"></path><path fill="#000000" fill-rule="evenodd" d="M21.549743999999997 46.144368C22.661424 46.620816 24.090719999999997 47.891328 25.520016 47.414927999999996C26.79048 46.93848 25.837584 46.779647999999995 28.855008 46.303248C29.172624 46.303248 29.172624 45.8268 28.855008 45.8268C28.060943999999996 45.8268 27.266928 45.82675199999999 26.472864 45.985583999999996C25.837584 46.144368 25.361183999999998 46.620864 24.884736 46.620864C24.090671999999998 46.620864 22.661375999999997 45.8268 21.708528 45.667967999999995C21.390912 45.667967999999995 21.232128 46.144368 21.549743999999997 46.144368Z" clip-rule="evenodd" stroke-width="1"></path></svg>