<svg xmlns="http://www.w3.org/2000/svg" fill="none" viewBox="0 0 48 48" height="48" width="48" id="Wojak-Feels-Guy--Streamline-Memes.svg"><desc>Wojak Feels Guy Streamline Element: https://streamlinehq.com</desc><path stroke="#000000" stroke-linecap="round" d="M16.452 27.463c0 9.858 11.189 15.008 16.695 15.186 9.613 0 10.39 -14.63 10.39 -24.244C43.537 8.793 35.142 1 25.53 1 15.917 1 8.124 8.793 8.124 18.405c0 4.35 1.595 8.326 4.232 11.377 0.537 2.75 0.934 9.048 -1.765 12.245 -2.7 3.197 -5.565 4.647 -6.66 4.973" stroke-width="1"></path><path stroke="#000000" d="M33.147 42.649c-0.207 0.917 0.888 2.895 1.953 3.108 1.066 0.213 6.01 0.77 8.97 1.065" stroke-width="1"></path><path stroke="#000000" stroke-linecap="round" d="M23.06 10.905c6.876 1.177 4.826 -2.269 12.676 -0.166" stroke-width="1"></path><path stroke="#000000" stroke-linecap="round" d="M21.07 14.19c9.035 1.177 6.34 -2.268 16.657 -0.166" stroke-width="1"></path><path stroke="#000000" stroke-linecap="round" d="M22.537 18.262c0.82 -1.076 3.216 -1.701 5.657 -1.011" stroke-width="1"></path><path stroke="#000000" stroke-linecap="round" d="M39.02 18.262c-0.85 -0.947 -3.246 -1.557 -5.657 -1.011" stroke-width="1"></path><path stroke="#000000" stroke-linecap="round" d="M27.438 35.766c3.128 0 4.622 0.087 7.186 0.028a2.028 2.028 0 0 1 1.59 0.706l0.161 0.188" stroke-width="1"></path><path stroke="#000000" d="M28.662 23.378c0 0.957 -2.513 0.844 -4.352 0.844 -1.839 0 -2.442 -1.42 -2.22 -2.176 0.747 -2.537 6.572 -1.292 6.572 1.332Z" stroke-width="1"></path><path stroke="#000000" d="M33.625 23.378c0 0.957 2.512 0.844 4.351 0.844 1.84 0 2.442 -1.42 2.22 -2.176 -0.746 -2.537 -6.571 -1.292 -6.571 1.332Z" stroke-width="1"></path><path stroke="#000000" stroke-linecap="round" d="M31.637 26.085c1.154 1.776 3.73 2.288 3.73 3.64 0 1.646 -1.332 2.622 -2.664 2.09" stroke-width="1"></path><path stroke="#000000" stroke-linecap="round" stroke-linejoin="round" d="M29.545 30.563c-0.344 0.658 -0.437 1.014 0 1.398" stroke-width="1"></path><path fill="#000000" fill-rule="evenodd" d="M26.407 21.176a1.525 1.525 0 1 0 0 3.05 1.525 1.525 0 0 0 0 -3.05Z" clip-rule="evenodd" stroke-width="1"></path><path fill="#000000" fill-rule="evenodd" d="M37.727 20.918a1.525 1.525 0 1 0 0 3.05 1.525 1.525 0 0 0 0 -3.05Z" clip-rule="evenodd" stroke-width="1"></path></svg>