<svg xmlns="http://www.w3.org/2000/svg" fill="none" viewBox="0 0 48 48" height="48" width="48" id="Yao-Ming-Face-Hand-Drawn--Streamline-Memes.svg"><desc>Yao Ming Face Hand Drawn Streamline Element: https://streamlinehq.com</desc><path fill="#000000" fill-rule="evenodd" d="M22.468992 33.21177599999999C23.0964 33.36888 23.253455999999996 32.740992000000006 23.253455999999996 33.055152C22.468992 34.30992 21.841152 35.094384 21.684576 35.094384C17.91936 35.8788 16.978319999999997 36.035903999999995 15.880175999999999 36.820368C16.664640000000002 36.976944 17.291999999999998 36.976944 18.233088 36.820368C17.91936 36.820368 15.566016 37.134048 14.938656 36.820368C13.840511999999999 36.50616 13.526352 34.93728 12.428688 34.93728C12.585312 34.62408 12.585312 33.99624 13.056047999999999 33.682559999999995C13.369776 33.525935999999994 13.840511999999999 33.682559999999995 14.311296 33.682559999999995C13.526832 33.682559999999995 13.526832 33.368832 13.840511999999999 34.153296C13.997615999999999 34.466976 13.840511999999999 34.937760000000004 13.997615999999999 35.094864C14.468352 35.565599999999996 14.939136 35.094864 15.09576 35.094864C15.40944 35.094864 15.566495999999999 35.251439999999995 15.880175999999999 35.094864C16.0368 35.094864 16.193856 34.780656 16.35096 34.780656H16.664640000000002C17.448624 34.937760000000004 17.60568 34.62408 17.91936 34.30992H18.233088C19.174608 34.30992 19.017504 33.839135999999996 19.331184 33.682559999999995C19.644864 33.525935999999994 20.115648 33.99624 20.586432 33.525935999999994L20.743488 33.368832C21.057168 33.682559999999995 21.527472 34.3104 22.468992 33.21177599999999ZM21.684576 35.094864C20.743008 36.035903999999995 19.801488000000003 36.663264 18.546768 36.820368C19.488288 36.663264 21.057216 35.722224 21.684576 35.094384ZM15.252336 33.525935999999994C16.350479999999997 33.055152 16.978319999999997 32.270736 19.644912 32.584416000000004C20.429328 32.741471999999995 21.370896 32.898096 22.155312 33.055152C21.370896 32.898096 19.331232 32.270736 17.291999999999998 32.584416000000004C16.507583999999998 32.741471999999995 15.879696000000001 33.21177599999999 15.252336 33.525935999999994Z" clip-rule="evenodd" stroke-width="1"></path><path fill="#000000" fill-rule="evenodd" d="M6.623856 19.877519999999997C6.78096 20.661504 6.938016 21.289344 6.78096 21.916704C6.623856 22.701168 6.153552 23.485632000000003 6.310176 24.426672C6.310176 25.368192 7.251695999999999 25.524815999999998 7.251695999999999 26.152655999999997C6.938016 30.231023999999998 6.938016 30.231023999999998 8.820624 33.839616C10.232448 36.663264 9.447984 36.50616 13.840511999999999 40.428431999999994C13.997136 40.585056 14.154192 40.428431999999994 14.154192 40.428431999999994C14.467872 40.114752 13.683456 39.957648 11.957952 38.075087999999994S10.232448 35.251439999999995 9.447984 33.682511999999996C8.66352 31.957008 8.03568 31.015487999999998 8.03568 29.289984C7.879055999999999 27.721103999999997 8.192736 26.62296 8.192736 26.152655999999997C8.192736 25.368192 7.879055999999999 25.368192 7.40832 24.740351999999998C6.78096 23.955887999999998 7.879055999999999 22.701168 7.565376 20.975184000000002C7.565376 20.5044 7.40832 20.034143999999998 7.251695999999999 19.720416C6.938016 19.56336 6.46728 19.56336 6.623856 19.877039999999997Z" clip-rule="evenodd" stroke-width="1"></path><path fill="#000000" fill-rule="evenodd" d="M12.428688 37.447728C13.997615999999999 41.055792 13.370256 41.840256 14.311296 43.095504C15.566495999999999 44.664384 20.272752 45.448368 23.567135999999998 42.62472C23.880816 42.467616 23.567135999999998 41.99736 23.253455999999996 42.31104C21.527472 43.722863999999994 19.645392 43.87992 17.448624 43.56576C13.526832 43.095024 15.252336 41.840256 12.742368 37.133568C12.742368 36.976944 12.271631999999999 37.133568 12.428688 37.447728Z" clip-rule="evenodd" stroke-width="1"></path><path fill="#000000" fill-rule="evenodd" d="M27.018143999999996 43.723344C29.842271999999998 42.31104 31.09752 40.271856 32.9796 37.76188799999999C33.764064000000005 36.820368 34.548528 36.036384 34.862688 34.62408C35.176368 32.271216 34.078224 31.329648 34.862688 28.662623999999997C35.646672 28.662623999999997 36.431087999999995 28.348944 37.058496 27.87864C38.941536 26.309759999999997 38.941536 24.427152 39.412319999999994 22.230864C39.725519999999996 20.661984 40.0392 19.093056 39.09816 17.68176C38.000016 15.955775999999998 35.646672 15.955775999999998 34.234848 17.367552C33.607488000000004 17.99496 33.293327999999995 18.779856 33.136704 19.720944C32.9796 20.034623999999997 33.450384 20.19168 33.607488000000004 19.877519999999997C33.764064000000005 19.093056 34.078224 18.30864 34.705631999999994 17.838336C35.803728 16.740192 37.686336 16.740192 38.627376 18.152016C39.41184 19.407264 39.09816 20.819039999999998 38.78448 22.230383999999997C38.313696 24.427152 38.312256 25.447967999999996 36.743376 26.860272C35.488127999999996 27.958368 34.424592 27.250799999999998 34.267488 27.87864C33.169392 31.486272 34.963103999999994 33.39336 33.707856 35.5896C33.55128 35.746224 30.705552 40.077264 29.763983999999997 41.01835199999999C28.980048 41.802768 27.959712 42.423407999999995 27.018672 43.050816C26.78136 43.209312 26.704511999999998 43.87992 27.018672 43.723344Z" clip-rule="evenodd" stroke-width="1"></path><path fill="#000000" fill-rule="evenodd" d="M15.879696000000001 43.87992C16.350479999999997 44.978064 16.193904 45.448848 17.762784 47.174352C17.919407999999997 47.488032000000004 18.390144 47.174352 18.233088 46.860672C17.448624 45.135168 17.60568 45.291743999999994 16.350479999999997 43.56624C16.193375999999997 43.409183999999996 15.723120000000002 43.56624 15.879696000000001 43.87992Z" clip-rule="evenodd" stroke-width="1"></path><path fill="#000000" fill-rule="evenodd" d="M12.428688 47.488512C14.624975999999998 47.488512 15.723120000000002 46.233312 16.350479999999997 44.037023999999995C16.507583999999998 43.723344 16.0368 43.56624 15.879696000000001 43.8804C15.09576 45.292224 13.840511999999999 46.704048 12.271631999999999 47.017728C11.957952 47.174832 12.115008 47.645136 12.428688 47.488512Z" clip-rule="evenodd" stroke-width="1"></path><path fill="#000000" fill-rule="evenodd" d="M36.74476799999999 27.650496C35.332992 32.043023999999996 35.019264 35.408544 36.74476799999999 40.585056C37.686336 43.409183999999996 40.823664 45.291743999999994 43.647792 47.174352H43.961472C44.432207999999996 46.546512 38.627376 44.036544 37.372656 40.428431999999994C36.117408000000005 36.192479999999996 35.960352 31.886400000000002 37.372656 27.650496C37.686336 27.336768 36.901872 27.336768 36.74476799999999 27.650496Z" clip-rule="evenodd" stroke-width="1"></path><path fill="#000000" fill-rule="evenodd" d="M10.703184 22.544591999999998C12.428688 23.642688 12.585312 23.329007999999998 12.428688 24.427152C12.271631999999999 28.19232 10.546128 29.290464 11.801327999999998 30.074928C12.115008 30.231551999999997 12.272112 29.917824 12.115008 29.760768C11.487648 29.289984 12.428688 28.662623999999997 12.742368 27.094224C13.840511999999999 23.171952 13.056047999999999 23.171952 10.703184 22.230912C10.546128 21.917232 10.389024 22.387487999999998 10.703184 22.544591999999998Z" clip-rule="evenodd" stroke-width="1"></path><path fill="#000000" fill-rule="evenodd" d="M14.467872 30.859392C13.683936 31.173071999999998 13.683936 30.702287999999996 13.056095999999998 30.859392C12.899472 30.859392 12.428688 31.016447999999997 11.957952 30.859392C11.330592 30.545711999999998 11.330592 30.232032 11.016384 30.388608C10.703184 30.702287999999996 11.330592 31.173071999999998 11.644271999999999 31.330128000000002C12.271631999999999 31.643807999999996 12.585792 31.643807999999996 13.213152 31.486751999999996C13.840511999999999 31.643807999999996 13.997615999999999 31.957535999999998 15.40944 31.330128000000002C16.193904 31.016447999999997 15.880223999999998 30.545711999999998 15.40944 30.388608C16.35096 30.074928 17.762784 30.859392 18.703823999999997 29.447088C19.645392 28.035744 17.919407999999997 26.466816 16.664640000000002 27.251279999999998C16.350479999999997 27.407904 15.723120000000002 28.035744 16.0368 28.1928C16.35096 28.349424 16.35096 28.035744 16.821264 27.722064C17.60568 27.251279999999998 18.704304 28.1928 18.076464 28.976784C17.291999999999998 30.074928 16.350479999999997 29.133888 15.09576 29.604143999999998C14.468399999999999 29.918304 14.154192 30.388608 14.468399999999999 30.859392ZM14.938656 30.545711999999998C15.09576 30.545711999999998 15.09576 30.545711999999998 14.938656 30.545711999999998C15.09576 30.388608 14.938656 30.388608 14.938656 30.545711999999998ZM15.252336 30.388608C15.252336 30.545711999999998 15.252336 30.545711999999998 15.252336 30.388608ZM15.252336 30.388608C15.252336 30.232032 15.252336 30.232032 15.252336 30.388608Z" clip-rule="evenodd" stroke-width="1"></path><path fill="#000000" fill-rule="evenodd" d="M23.0964 32.741471999999995C22.782719999999998 33.055152 22.468992 32.898576 22.154832 32.741471999999995C16.350479999999997 31.329167999999996 16.350479999999997 32.741471999999995 14.467872 33.212256C14.154192 33.212256 13.683456 33.055152 13.212672 33.055152C12.271631999999999 33.212256 12.115008 34.153296 11.957952 34.62408C11.800848 34.937760000000004 12.115008 35.251439999999995 12.428688 35.251439999999995C13.213152 35.251439999999995 13.683456 36.820368 14.938656 37.134528C15.880175999999999 37.447728 18.546768 37.134528 19.487808 36.820368C21.370896 36.19296 22.468992 34.62408 23.567135999999998 32.898576C23.72376 32.741471999999995 23.253455999999996 32.584416000000004 23.0964 32.741471999999995ZM22.625615999999997 33.36888C21.684095999999997 33.36888 20.115648 32.741471999999995 18.076464 32.898096C15.879696000000001 33.055152 15.40944 34.3104 14.154192 34.153296C13.212672 34.153296 13.056095999999998 33.682511999999996 12.898992 34.62408C15.09576 35.408544 12.898992 36.977424 18.389664 36.349584C20.429328 36.19296 21.527472 35.094864 22.625615999999997 33.36888Z" clip-rule="evenodd" stroke-width="1"></path><path fill="#000000" fill-rule="evenodd" d="M15.095279999999999 38.860032C16.978319999999997 40.115232 21.056736 39.173712 20.743008 38.389247999999995C20.586432 38.075568 20.429328 38.389247999999995 19.174128 38.546352C18.703343999999998 38.546352 16.0368 38.703407999999996 15.40944 38.389247999999995C15.095279999999999 38.389247999999995 14.781600000000001 38.702928 15.095279999999999 38.860032Z" clip-rule="evenodd" stroke-width="1"></path><path fill="#000000" fill-rule="evenodd" d="M19.331232 27.250320000000002C20.429328 27.87816 22.625615999999997 30.231504 22.939296 30.701808C23.567135999999998 31.643327999999997 23.41008 31.957056 23.880816 31.957056C24.66528 31.799951999999998 22.782719999999998 28.819248 21.057216 27.56448C19.174128 26.309279999999998 19.017504 27.093695999999998 19.331232 27.250320000000002Z" clip-rule="evenodd" stroke-width="1"></path><path fill="#000000" fill-rule="evenodd" d="M24.821904 29.760768C26.234208 31.643807999999996 25.449264 32.271216 24.194543999999997 36.977424C23.880816 38.075568 23.72376 39.487392 22.782239999999998 40.114752C22.468992 40.271856 22.782239999999998 40.742591999999995 23.0964 40.585536C24.194496 39.958176 24.508224 38.389247999999995 24.978959999999997 37.291104000000004C26.390784 32.898576 27.018143999999996 31.643375999999996 25.29264 29.604143999999998C24.978959999999997 29.289984 24.508224 29.604143999999998 24.821904 29.760768Z" clip-rule="evenodd" stroke-width="1"></path><path fill="#000000" fill-rule="evenodd" d="M10.232448 31.486751999999996C8.66352 33.526416 9.761664 34.62456 11.487167999999999 36.350063999999996C11.644271999999999 36.663744 12.115008 36.350063999999996 11.800848 36.036384C10.546128 34.31088 9.918768 33.526416 10.702703999999999 31.643807999999996C10.702703999999999 31.330128000000002 10.389024 31.173071999999998 10.231968 31.486751999999996Z" clip-rule="evenodd" stroke-width="1"></path><path fill="#000000" fill-rule="evenodd" d="M14.310815999999999 21.760127999999998C13.997615999999999 23.014848 14.310815999999999 23.799311999999997 15.40944 24.427152C15.723120000000002 24.583776 15.880223999999998 24.270096 15.723120000000002 24.112992C15.252336 23.642208 14.938656 22.230383999999997 14.781600000000001 21.760127999999998C14.781600000000001 21.446448 14.310815999999999 21.446448 14.310815999999999 21.760127999999998Z" clip-rule="evenodd" stroke-width="1"></path><path fill="#000000" fill-rule="evenodd" d="M16.978319999999997 23.014848C17.762304 22.073328 18.233088 22.073328 19.488288 22.230432C21.841152 22.387487999999998 21.841152 22.387487999999998 21.998256 22.073808C21.998256 21.759648 21.527472 21.759648 20.743008 21.603024C19.488288 21.289344 18.076464 20.975664 17.135424 22.073808C16.0368 23.171952 16.821264 23.171952 16.97784 23.015328Z" clip-rule="evenodd" stroke-width="1"></path><path fill="#000000" fill-rule="evenodd" d="M23.0964 21.917184C24.194496 21.760608 24.978959999999997 21.289824 25.449264 19.878C25.60632 19.56384 25.135583999999998 19.407264 24.978479999999998 19.720944C24.508224 20.348304 23.252976 21.289824 22.939296 21.446448C22.625615999999997 21.603504 22.782719999999998 22.074288 23.0964 21.917184Z" clip-rule="evenodd" stroke-width="1"></path><path fill="#000000" fill-rule="evenodd" d="M23.880816 22.701168C24.194543999999997 22.701168 24.508224 22.857791999999996 24.822383999999996 23.014848C25.29264 23.171952 25.920048 23.328528 26.233728 23.328528C26.547888 23.485632000000003 26.704464 23.014848 26.390784 22.857791999999996C25.29264 21.916224 24.66528 21.916224 23.72376 22.073328C23.567135999999998 22.230432 23.567135999999998 22.701168 23.880864 22.701168Z" clip-rule="evenodd" stroke-width="1"></path><path fill="#000000" fill-rule="evenodd" d="M8.34936 25.525775999999997C9.761664 24.270576 9.918288 24.584256 11.957952 24.741312C12.271631999999999 24.741312 12.271631999999999 24.270576 12.114528 24.270576C11.173008 23.956896 10.231968 23.486112 9.133824 24.113472C8.663039999999999 24.427632 8.506464000000001 24.741312 8.03568 25.368671999999997C7.721999999999999 25.525775999999997 8.03568 25.839456 8.349839999999999 25.525775999999997Z" clip-rule="evenodd" stroke-width="1"></path><path fill="#000000" fill-rule="evenodd" d="M12.115008 16.582655999999997C11.016863999999998 18.778896 11.016863999999998 20.034143999999998 13.056576 21.445967999999997C13.369776 21.603024 13.526832 21.288863999999997 13.369776 21.132288C12.271631999999999 20.034143999999998 12.115008 19.249679999999998 12.271631999999999 18.151536C12.428688 16.896335999999998 12.742416 16.739231999999998 12.428688 16.582655999999997C12.271631999999999 16.268976000000002 12.115008 16.426032 12.115008 16.582655999999997Z" clip-rule="evenodd" stroke-width="1"></path><path fill="#000000" fill-rule="evenodd" d="M9.134304 16.112351999999998C11.330544 14.073167999999999 11.487167999999999 14.229743999999998 13.997615999999999 14.386847999999999C15.09576 14.386847999999999 16.193856 14.230272 17.291999999999998 14.230272C17.60568 14.230272 17.60568 13.759488 17.291999999999998 13.759488C11.016863999999998 13.445808 11.330544 12.817968 8.66352 15.798671999999998C8.66352 15.955775999999998 8.9772 16.269455999999998 9.134304 16.112351999999998Z" clip-rule="evenodd" stroke-width="1"></path><path fill="#000000" fill-rule="evenodd" d="M23.823168 19.210272C22.051584000000002 20.602416 19.014143999999998 20.096591999999998 17.115696 19.463472C16.103568 19.083936 14.458272000000001 18.32496 13.698816 19.463472C12.813023999999999 15.54024 18.381504 18.198144 21.038928 18.577632C21.671616 18.577632 23.44368 18.198144 23.823168 19.210272Z" clip-rule="evenodd" stroke-width="1"></path><path fill="#000000" fill-rule="evenodd" d="M23.823168 19.083936C23.44368 17.945472 22.051584000000002 18.704448 19.520496 17.945472C16.98888 17.185536 13.318848 15.793392 13.066175999999999 18.704448C12.93936 20.222928 13.698816 20.096591999999998 13.951968 19.716624C14.458272000000001 18.830784 15.976752 19.59024 16.862544 19.843439999999998C22.051584000000002 21.488687999999996 24.709008 19.337088 23.823168 19.084416ZM23.44368 19.210752C23.190528 18.577632 21.545232 18.831264 20.912111999999997 18.831264C18.507839999999998 18.577632 14.331456 16.552848 14.078304 18.577632C15.7236 17.818656 20.279951999999998 21.235535999999996 23.44368 19.210752Z" clip-rule="evenodd" stroke-width="1"></path><path fill="#000000" fill-rule="evenodd" d="M10.408224 18.95712C8.762976 18.703968 7.623984 20.729231999999996 6.864528 21.99456C6.48504 22.627679999999998 6.231888 23.639808 6.991344 24.14616C6.991344 24.14616 6.991344 24.019344 7.370832 23.513472C8.762976 21.615071999999998 9.648768 21.615071999999998 10.408272 20.476079999999996C10.661424 20.096591999999998 10.787759999999999 19.590287999999997 10.534607999999999 19.210272L10.408272 18.95712Z" clip-rule="evenodd" stroke-width="1"></path><path fill="#000000" fill-rule="evenodd" d="M7.370832 24.14616C8.762976 21.868223999999998 10.914576 21.10872 10.914576 19.717104C10.914576 19.337568 10.787759999999999 19.083936 10.661424 18.9576C10.661424 18.451296 9.142943999999998 18.704448 8.383488 19.337088C7.624464 19.969776 5.85192 21.99456 6.105552 23.386656C6.105552 24.272976 7.11768 25.031952 7.370832 24.14616ZM10.281888 19.083936C8.889791999999998 19.083936 7.877135999999999 20.855568 7.244496 22.121375999999998C6.991344 22.500864 6.8650079999999996 22.880352 6.991344 23.26032C8.256672 21.235535999999996 10.281888 20.728752 10.408224 19.590287999999997C10.408224 19.337088 10.281888 19.337088 10.281888 19.083936Z" clip-rule="evenodd" stroke-width="1"></path><path fill="#000000" fill-rule="evenodd" d="M37.997615999999994 15.413424C37.997615999999994 15.287087999999999 38.250767999999994 14.9076 38.250767999999994 14.780736C38.250767999999994 14.6544 37.617647999999996 14.6544 37.49131199999999 13.642271999999998C37.49131199999999 13.009151999999998 38.123951999999996 12.502799999999999 38.123951999999996 11.996495999999999C38.123951999999996 11.743343999999999 37.744463999999994 11.87016 37.49131199999999 11.743343999999999C37.111776 11.490672 36.858624 10.984368 36.732288 10.60488C36.605472 10.098048 36.732288 9.592224 36.858624 9.212256C36.858624 9.08592 36.98500799999999 8.706432 36.98500799999999 8.579616C36.858624 8.326464000000001 35.466528 8.579616 35.08656 5.668512C35.08656 5.415839999999999 35.08656 4.909535999999999 34.960224 4.7832C34.83336 4.656383999999999 34.2012 4.656383999999999 33.947568000000004 4.656383999999999C32.809104 4.276896 31.796447999999998 3.390576 31.290143999999998 2.504784C31.163327999999996 2.3784479999999997 31.036991999999998 1.872144 30.910656 1.745808L30.277487999999998 2.1252959999999996C28.63224 2.757936 26.986943999999998 0.8594879999999999 26.607456 0.8594879999999999C26.480639999999998 0.8594879999999999 26.101152 1.2389759999999999 25.974768 1.2389759999999999C24.455856 1.99896 23.570016 0.6072960000000001 22.81056 0.48C22.684224 0.48 22.431072 0.733152 22.431072 0.8594879999999999C21.545232 1.492656 20.279472 1.492656 19.393631999999997 1.2389759999999999C19.140479999999997 1.11264 18.507839999999998 0.733152 18.255167999999998 0.733152C17.8752 0.733152 17.115696 2.1252959999999996 14.711424000000001 1.36584C14.078304 2.504784 12.812975999999999 3.391056 11.547215999999999 3.643776C11.040911999999999 3.770592 10.535088 3.643776 10.155072 3.643776C9.396095999999998 3.5173919999999996 9.775584 3.390576 9.522432 4.403232C8.889791999999998 7.187472 6.611376 7.187472 6.231888 7.56696C6.105504 7.693776 6.611376 9.08592 4.713407999999999 9.971712C4.33392 10.098528 4.080768 9.971712 4.8397440000000005 10.730735999999998C6.105552 12.123312 5.852352 12.755999999999998 5.0928960000000005 14.148096C5.0928960000000005 14.274432 4.966559999999999 14.274432 4.966559999999999 14.401248C5.2197119999999995 14.527584 5.5992 14.148096 5.978688 14.401248C7.623984 15.160271999999999 5.852352 17.818176 5.978688 18.197664C6.105504 18.32448 6.358224 18.32448 6.48504 18.450816C6.738192 18.703968 6.738192 19.463472 6.738192 19.716624C6.6118559999999995 17.944512 6.738192 16.299696 7.370832 14.6544C8.257104 12.122831999999999 9.142943999999998 13.009151999999998 9.902399999999998 12.882336C10.028736 12.882336 9.902399999999998 12.502799999999999 10.028736 12.376464C10.53504 11.363856 12.939791999999999 12.755999999999998 13.951968 12.755999999999998C14.078304 12.755999999999998 14.964096 12.755999999999998 14.964096 12.629135999999999C15.090912 12.502799999999999 14.584608 12.502799999999999 14.458272000000001 12.376464C14.078783999999999 12.123312 13.192512 11.617008 13.698816 11.110704C14.078304 10.731216 14.964096 10.857552 15.470448 10.857552C16.483056 10.857552 17.748383999999998 10.3512 18.634656 10.478016C19.140479999999997 10.6044 19.393631999999997 10.857552 19.773168 10.984368L19.899984 10.731216C20.532624 9.592224 22.431552 9.592224 23.570016 11.490191999999999L23.696832 11.743343999999999C24.202704 11.617008 24.076368 10.478016 24.835344 10.984368C25.974768 11.617008 24.96216 13.38864 25.215312 14.401248C25.468464 15.413424 26.986943999999998 15.793392 27.493247999999998 16.679184C28.379039999999996 18.197664 26.860608 20.602416 30.53064 22.120896C30.910175999999996 22.247712 30.910175999999996 22.6272 31.163327999999996 21.488208C31.290143999999998 20.729231999999996 31.795968000000002 19.083936 32.808576 19.716576C33.314927999999995 17.818176 35.213376 15.667055999999999 37.364448 16.932336C38.250767999999994 16.679184 37.49131199999999 16.679184 37.997615999999994 15.413424Z" clip-rule="evenodd" stroke-width="1"></path><path fill="#000000" fill-rule="evenodd" d="M4.8397440000000005 13.768607999999999C4.460255999999999 14.274911999999999 4.713407999999999 14.6544 5.346048000000001 14.6544C5.4728639999999995 14.6544 5.725536 14.527584 5.852352 14.527584C6.611376 14.907072 6.231888 16.046544 5.978736 16.806C5.5992 17.69184 5.2197119999999995 18.32448 6.358224 18.577632C6.48504 18.703968 6.358224 18.830784 6.48504 19.590287999999997C6.48504 20.096112 7.370832 20.096112 7.370832 19.590287999999997C7.370832 18.577632 7.244496 18.198144 7.370832 17.058671999999998C7.497648 15.54024 8.004 14.148096 8.383488 13.641792C8.889791999999998 12.629664 9.396095999999998 13.262303999999999 10.15512 13.135967999999998C10.281936 13.135967999999998 10.408272 13.009151999999998 10.534607999999999 12.882816C10.534607999999999 12.755999999999998 10.408272 12.376464 10.534607999999999 12.50328C10.914095999999999 11.87016 13.572 13.515455999999999 15.090959999999999 13.009151999999998C15.470448 12.882816 15.7236 12.629615999999999 15.597264000000001 12.376464C15.470448 11.996976 15.090959999999999 12.123312 14.837807999999999 11.996976C14.584655999999999 11.87016 13.951968 11.490672 14.20512 11.363856C14.458272000000001 11.110704 15.343632 11.23752 15.7236 11.23752C16.736255999999997 11.23752 18.001535999999998 10.731216 18.887327999999997 10.858032C19.266863999999998 10.858032 19.520496 11.23752 19.899984 11.363856C20.406288 11.490672 20.406288 10.857552 20.785776 10.604831999999998C21.418464 10.098528 22.81056 10.225344 23.823216 11.996495999999999C24.076368 12.375983999999999 24.582192 12.123312 24.835824 11.617008C24.96216 11.23752 24.96216 11.23752 25.215312 11.363856C26.101152 12.122831999999999 25.215312 13.38864 25.468511999999997 14.527584C25.848 16.046544 27.619632 15.920207999999999 27.9996 17.565024C28.252752 18.577632 27.746448 20.855568 30.277536 22.120896L31.036512000000002 22.500864L31.290143999999998 22.6272C32.04912 22.880352 31.669631999999996 21.10872 32.555471999999995 20.222928C32.934960000000004 19.716624 33.188112000000004 20.222928 33.441264000000004 20.096112C33.694416000000004 19.969776 33.947568000000004 18.071328 35.592864 17.185488C36.225504 16.806 36.98500799999999 16.806 37.744463999999994 17.311823999999998H37.997615999999994C38.123951999999996 17.438688 38.377103999999996 17.311823999999998 38.377103999999996 17.059152C38.123951999999996 16.046544 38.75664 15.54024 38.75664 15.160704C38.75664 14.907552 38.503440000000005 14.907552 38.250767999999994 14.781215999999999C37.364495999999995 13.768607999999999 38.503440000000005 13.262303999999999 38.503440000000005 12.376464C38.503440000000005 12.123312 38.250767999999994 11.996976 37.997615999999994 11.996976C37.870799999999996 11.996976 37.744463999999994 11.996976 37.364495999999995 11.490672C36.858672 10.731168 37.364495999999995 9.971712 37.364495999999995 9.08592C37.49131199999999 8.326896 36.858672 8.706384 36.225984 8.073263999999998C35.339712 7.187472 35.339712 5.289024 35.339712 5.162687999999999C35.08656 4.403712 34.45392 5.036352 33.314927999999995 4.276848C31.795968000000002 3.391056 31.542816000000002 2.125248 31.416479999999996 1.9989119999999998C31.036991999999998 1.239936 30.657504 2.252112 29.644848 2.1252959999999996C28.379088 2.1252959999999996 27.366912 0.986784 27.113279999999996 0.859968C26.227967999999997 0.353664 26.354304 1.239456 25.215359999999997 1.366272C23.949552 1.492608 23.316912 0.100512 22.557888000000002 0.606816C22.304736000000002 0.733152 21.924768 1.492608 20.405807999999997 1.3657920000000001C19.014623999999998 1.239936 18.634175999999997 0.354144 17.8752 0.860448C17.495711999999997 1.1136 17.242079999999998 1.493136 16.103088 1.6194719999999998C15.090959999999999 1.6194719999999998 14.710944 1.239936 14.458272000000001 1.6194719999999998C13.698816 2.8852320000000002 12.179856 4.024224 10.281888 3.644688C10.028736 3.644688 9.648768 3.391536 9.395616 3.7710719999999998C9.142943999999998 4.15056 9.26928 4.403712 9.26928 4.7836799999999995C8.762976 7.441103999999999 6.611376 7.187952 6.105552 7.694736C5.5992 8.200607999999999 6.611376 9.0864 4.713407999999999 9.972192C4.460255999999999 10.099008 4.207103999999999 10.099008 4.080288 10.351728C3.827616 10.731216 4.33344 11.111184 4.5865920000000004 11.491152C5.852352 12.123792 5.346048000000001 12.629664 4.8397440000000005 13.769088ZM22.937376 0.606336C21.038928 2.504784 18.507839999999998 0.859968 18.254687999999998 0.859968C17.495711999999997 1.3657920000000001 16.736208 1.9984799999999998 14.837807999999999 1.618992C13.572 3.5173919999999996 11.42088 4.15056 10.028736 3.770592C9.775584 5.542176 9.016128 6.554832 7.370832 7.3142879999999995C6.3587039999999995 7.693776 6.738192 7.440624 6.6118559999999995 8.073263999999998C6.48504 9.08592 5.8524 9.71856 4.966559999999999 10.098528C5.725536 10.984368 6.3587039999999995 11.743824 5.978736 12.882816C5.5992 14.021279999999999 5.4728639999999995 13.38864 6.105552 13.768607999999999C6.991344 14.148096 6.738192 14.6544 6.864528 14.274911999999999C7.370832 13.009151999999998 7.877135999999999 11.996495999999999 9.142943999999998 12.249647999999999C9.775584 12.376464 9.396095999999998 12.249647999999999 9.522432 11.996495999999999C10.281407999999999 10.6044 12.686208 11.996495999999999 13.572 12.249647999999999C12.93936 11.743824 12.93936 11.23752 13.318848 10.731216C13.825152 10.098528 14.837807999999999 10.35168 15.344111999999999 10.35168C16.35624 10.35168 17.622048 9.845376 18.634656 9.972192C19.014143999999998 9.972192 19.267344 10.224864 19.520496 10.35168C20.153136 9.212256 22.051584000000002 8.959584 23.44368 10.604352C23.823216 11.110704 23.6964 10.983887999999999 23.823216 10.857552C24.202704 9.971712 25.088976 10.35168 25.341648 10.857552C26.354304 12.249647999999999 24.709008 13.641792 25.974815999999997 14.780736C26.860608 15.667055999999999 27.746399999999998 15.793392 27.9996 17.185488C28.252752 18.198144 27.9996 19.210272 28.63224 20.222928C29.264879999999998 21.235056 30.277536 21.488208 30.657024 21.74136C30.910175999999996 20.602895999999998 31.416479999999996 18.830303999999998 32.555471999999995 19.210272C33.188112000000004 17.059152 35.213376 15.413903999999999 37.23815999999999 16.426032C37.23815999999999 15.793392 37.364495999999995 15.413903999999999 37.617647999999996 14.907552C36.099168 13.768607999999999 37.364495999999995 12.502799999999999 37.49131199999999 11.996495999999999C37.364495999999995 11.996495999999999 37.111824 11.996495999999999 36.98500799999999 11.87016C36.605472 11.617008 36.225984 11.111184 36.099168 10.604831999999998C35.972352 10.098528 36.099168 9.592224 36.225504 9.08592C36.35232 8.453232 36.35232 8.832768 35.846016 8.579616C34.960224 8.073263999999998 34.45392 6.807983999999999 34.327535999999995 5.7953280000000005C34.20072 4.656864 34.45392 5.289024 33.441264000000004 5.036352C32.17593599999999 4.656864 31.163327999999996 3.644208 30.657024 2.757936C30.277536 2.1252959999999996 30.657024 2.252112 30.024384 2.504784C28.252752 3.137904 26.480639999999998 1.366272 26.227967999999997 1.239456C24.709008 2.3784479999999997 23.443727999999997 0.733152 22.937376 0.606816ZM9.775103999999999 12.249647999999999C9.648768 12.249647999999999 9.648768 12.376464 9.648768 12.376464C9.775584 12.376464 9.775584 12.376464 9.775584 12.249647999999999Z" clip-rule="evenodd" stroke-width="1"></path></svg>