<svg xmlns="http://www.w3.org/2000/svg" fill="none" viewBox="0 0 48 48" height="48" width="48" id="Yao-Ming-Face--Streamline-Memes.svg"><desc>Yao Ming Face Streamline Element: https://streamlinehq.com</desc><path stroke="#000000" stroke-linecap="round" stroke-linejoin="round" d="M25.24 21.22c0.583 -0.253 1.809 -0.881 2.052 -1.367" stroke-width="1"></path><path stroke="#000000" stroke-linecap="round" stroke-linejoin="round" d="M25.212 21.732c0.602 0.318 1.948 0.926 2.519 0.804" stroke-width="1"></path><path stroke="#000000" stroke-linecap="round" stroke-linejoin="round" d="M25.24 44.298c-1.906 1.657 -3.156 2.032 -6.687 1.75 -0.835 0.01 -1.437 -0.28 -1.844 -0.968 -0.406 -0.688 -2 -3.375 -2.812 -4.563 -7.022 -12.914 -4.53 -8.41 -5.489 -16.53" stroke-width="1"></path><path stroke="#000000" stroke-linecap="round" stroke-linejoin="round" d="M39.584 26.955c-1.597 12.239 0.74 16.45 2.375 20.375" stroke-width="1"></path><path stroke="#000000" stroke-linecap="round" stroke-linejoin="round" d="M32.834 21.642c0.493 -2.18 -2.382 -2.894 -4.25 -5.687 -1.178 -1.762 0.642 -3.87 -1.356 -4.848 -3.134 -1.535 -7.22 -1.617 -12.081 1.285 -6.554 -1.542 -6.064 4.624 -6.23 7.615" stroke-width="1"></path><path stroke="#000000" stroke-linecap="round" stroke-linejoin="round" d="M14.962 21.874c1.52 4.71 -1.852 8.257 -0.628 9.05 1.063 0.687 7.688 -0.563 5.157 -3" stroke-width="1"></path><path fill="#000000" fill-rule="evenodd" d="M13.448 18.913a1.125 1.125 0 0 1 -0.94 1.284c-0.274 0.043 -0.784 0.268 -1.432 0.837 -0.626 0.55 -1.304 1.358 -1.922 2.416a1.125 1.125 0 1 1 -1.943 -1.134c0.723 -1.24 1.55 -2.242 2.379 -2.971 0.808 -0.71 1.704 -1.236 2.573 -1.37a1.125 1.125 0 0 1 1.285 0.938Z" clip-rule="evenodd" stroke-width="1"></path><path fill="#000000" fill-rule="evenodd" d="M20.43 19.695a43.6 43.6 0 0 0 3.334 0.742 1.125 1.125 0 0 0 0.39 -2.215 41.37 41.37 0 0 1 -3.164 -0.706l-0.674 -0.176a40.538 40.538 0 0 0 -1.864 -0.459c-0.67 -0.14 -1.463 -0.264 -2.127 -0.077a1.834 1.834 0 0 0 -1.044 0.737c-0.26 0.387 -0.335 0.82 -0.335 1.204a1.125 1.125 0 0 0 2.23 0.216l0.05 0.003c0.195 0.014 0.446 0.053 0.766 0.12a36.99 36.99 0 0 1 1.705 0.42l0.732 0.19Zm-3.23 -1.009 -0.001 0.002 0 -0.002Z" clip-rule="evenodd" stroke-width="1"></path><path stroke="#000000" stroke-linecap="round" stroke-linejoin="round" d="M17.678 38.955c4.538 0 6.974 -1.747 8.051 -4.72a0.474 0.474 0 0 0 -0.249 -0.59c-1.886 -0.876 -3.734 -1.277 -7.802 -0.253 -2.25 0.438 -3.5 0.469 -3.937 2.5 1.562 0.156 1.625 3.063 3.937 3.063Z" stroke-width="1"></path><path stroke="#000000" stroke-linecap="round" stroke-linejoin="round" d="M9.137 25.837c1.699 -1.653 3.096 -2.712 4.329 -1.372" stroke-width="1"></path><path stroke="#000000" stroke-linecap="round" stroke-linejoin="round" d="M23.584 22.017c-2.78 -0.344 -3.718 -0.781 -4.566 0.85" stroke-width="1"></path><path stroke="#000000" stroke-linecap="round" d="M37.21 28.455c2.014 0 3.75 -3.6 3.75 -6.375s-0.239 -5.462 -2.253 -5.462c-2.015 0 -4.238 1.195 -5.863 5.007" stroke-width="1"></path><path stroke="#000000" stroke-linecap="round" stroke-linejoin="round" d="M22.002 27.993c2.178 1.271 2.717 2.103 3.165 3.676" stroke-width="1"></path><path stroke="#000000" stroke-linecap="round" stroke-linejoin="round" d="M36.724 31.669c0.392 7.223 0.517 7.192 -6.483 13.004" stroke-width="1"></path><path stroke="#000000" stroke-linecap="round" stroke-linejoin="round" d="M27.897 29.267c0.594 1.906 2.156 8 -1.313 12.656" stroke-width="1"></path><path stroke="#000000" stroke-linecap="round" stroke-linejoin="round" d="M17.063 38.875c0.395 -0.823 0.328 -3.64 7.546 -2.64" stroke-width="1"></path><path stroke="#000000" stroke-linecap="round" d="M9.078 17.14c-0.583 0 -1.219 -0.185 -1.806 -0.185 -0.163 0 -0.343 0.055 -0.31 -0.164 0.05 -0.317 0.245 -0.68 0.386 -0.961 0.145 -0.29 0.328 -0.551 0.459 -0.848 0.026 -0.06 0.19 -0.277 0.055 -0.277h-0.59c-0.14 0 -0.89 0.104 -0.934 -0.094 -0.04 -0.183 0.428 -0.306 0.531 -0.344 0.476 -0.174 0.984 -0.453 0.827 -1.035 -0.115 -0.423 -0.524 -0.836 -0.737 -1.215 -0.233 -0.415 -0.55 -0.781 -0.875 -1.125 -0.23 -0.243 0.514 -0.138 0.691 -0.156 0.521 -0.054 1.05 -0.031 1.573 -0.031 0.342 0 0.01 -0.338 -0.114 -0.473 -0.585 -0.635 -0.713 -1.247 -0.865 -2.073l0 -0.005c-0.04 -0.208 -0.114 -0.615 0.23 -0.56 0.447 0.07 0.875 0.195 1.322 0.267 0.137 0.022 0.361 0.108 0.497 0.083 0.138 -0.025 -0.055 -0.489 -0.07 -0.538 -0.119 -0.387 -0.209 -0.948 -0.135 -1.354 0.074 -0.409 2.151 -0.098 2.4 -0.066 0.486 0.062 0.526 0.01 0.534 -0.483 0.01 -0.61 0.077 -1.289 0.25 -1.875 0.298 -1.009 1.468 -0.356 2.125 -0.125 1.352 0.476 0.939 -1.19 1.548 -1.847 0.32 -0.344 0.59 0.091 0.855 0.292 0.309 0.234 0.687 0.57 1.097 0.57 0.315 0 0.482 -0.67 0.69 -0.88 0.337 -0.335 0.73 -0.448 1.06 -0.027 0.282 0.36 0.704 0.87 1.208 0.594 0.476 -0.261 0.804 -0.81 1.257 -1.122 0.433 -0.299 0.637 -0.227 0.861 0.184 0.217 0.398 1.129 1.104 1.545 0.583 0.345 -0.43 0.458 -0.984 1.046 -1.145 0.58 -0.16 0.867 0.265 1.163 0.704l0.01 0.014c0.281 0.416 0.772 0.974 1.222 0.455 0.344 -0.395 0.661 -1.105 1.243 -1.17 0.36 -0.04 0.257 0.783 0.257 0.997 0 0.98 0.921 0.146 1.396 -0.077 0.376 -0.176 2.048 -0.55 2.327 -0.02 0.23 0.438 -0.476 1.15 -0.622 1.555 -0.142 0.394 1.294 -0.378 1.462 -0.445 0.439 -0.173 1.805 -0.503 1.458 0.4 -0.147 0.382 -1.107 1.347 -0.854 1.788 0.364 0.634 1.452 0.703 2.042 1.035 0.15 0.084 0.796 0.505 0.562 0.76 -0.111 0.122 -0.45 0.122 -0.604 0.122h-0.003c-0.065 0 -0.429 -0.143 -0.462 -0.105 -0.042 0.048 0.475 0.228 0.5 0.237 0.49 0.176 0.963 0.32 1.392 0.625 0.596 0.423 1.177 0.703 1.469 1.395 0.062 0.147 0.296 0.21 0.246 0.382 0 0.003 -1.283 -0.093 -1.42 -0.09 -0.32 0.007 -0.543 0.2 -0.218 0.441l0.003 0.003c0.281 0.208 0.541 0.4 0.792 0.646 0.138 0.136 0.383 0.262 0.406 0.473 0.045 0.41 -0.666 0.566 -0.934 0.75 -0.556 0.381 0.664 0.473 0.913 0.503 0.481 0.059 1.167 0.232 1.01 0.858 -0.082 0.329 -0.693 0.242 -0.791 0.61 -0.124 0.466 0.39 0.547 0.666 0.779 0.408 0.34 -0.098 0.829 -0.357 1.062 -0.24 0.217 -0.354 0.514 -0.566 0.75a5.847 5.847 0 0 0 -0.347 0.506" stroke-width="1"></path></svg>